<?xml version="1.0" standalone="no"?>
<!DOCTYPE svg PUBLIC "-//W3C//DTD SVG 1.1//EN" "http://www.w3.org/Graphics/SVG/1.1/DTD/svg11.dtd" >
<svg xmlns="http://www.w3.org/2000/svg" xmlns:xlink="http://www.w3.org/1999/xlink" version="1.1">
<metadata>
Created by FontForge 20190801 at Thu Apr 30 13:25:02 2009
 By Jimmy Wärting
Copyright (c) 2009 by The Foundry. All rights reserved.
</metadata>
<defs>
<font id="FoundrySterlingOT3-Book" horiz-adv-x="593" >
  <font-face 
    font-family="Foundry Sterling OT3"
    font-weight="400"
    font-stretch="normal"
    units-per-em="1000"
    panose-1="2 0 5 3 4 0 0 2 0 4"
    ascent="765"
    descent="-235"
    x-height="480"
    cap-height="667"
    bbox="-275 -262 1212 1065"
    underline-thickness="50"
    underline-position="-100"
    stemh="53"
    stemv="62"
    unicode-range="U+0020-FFF3"
  />
<missing-glyph horiz-adv-x="582" 
d="M496 -122h-410v789h410v-789zM149 614v-683h284v683h-284z" />
    <glyph glyph-name="fi" unicode="fi" horiz-adv-x="496" 
d="M426 0h-60v431h-198v-431h-60v431h-85v49h85v83c0 48 11 97 45 131c24 24 61 38 103 38c58 0 95 -26 101 -31l-24 -42c-6 4 -36 20 -71 20c-28 0 -50 -8 -66 -24c-28 -28 -28 -71 -28 -98v-77h258v-480z" />
    <glyph glyph-name="fl" unicode="fl" horiz-adv-x="496" 
d="M426 0h-60v431h-198v-431h-60v431h-85v49h85v83c0 48 10 96 45 131c24 24 61 38 103 38c46 0 72 -15 77 -18l-19 -46c-5 2 -22 11 -53 11c-26 0 -49 -8 -65 -24c-28 -28 -28 -71 -28 -98v-77h198v240h60v-720z" />
    <glyph glyph-name="f_f_i" unicode="ffi" horiz-adv-x="754" 
d="M684 0h-60v431h-198v-431h-60v431h-198v-431h-60v431h-85v49h85v83c0 48 10 96 45 131c24 24 61 38 103 38c46 0 72 -15 77 -18l-19 -46c-5 2 -22 11 -53 11c-26 0 -49 -8 -65 -24c-28 -28 -28 -71 -28 -98v-77h198v77c0 39 4 96 45 137c24 24 61 38 103 38
c58 0 95 -26 101 -31l-24 -42c-6 4 -36 20 -71 20c-28 0 -50 -8 -66 -24c-28 -28 -28 -71 -28 -98v-77h258v-480z" />
    <glyph glyph-name="f_f_l" unicode="ffl" horiz-adv-x="754" 
d="M684 0h-60v431h-198v-431h-60v431h-198v-431h-60v431h-85v49h85v83c0 48 10 96 45 131c24 24 61 38 103 38c46 0 72 -15 77 -18l-19 -46c-5 2 -22 11 -53 11c-26 0 -49 -8 -65 -24c-28 -28 -28 -71 -28 -98v-77h198v77c0 39 4 96 45 137c24 24 61 38 103 38
c46 0 72 -15 77 -18l-19 -46c-5 2 -22 11 -53 11c-26 0 -49 -8 -65 -24c-28 -28 -28 -71 -28 -98v-77h198v240h60v-720z" />
    <glyph glyph-name="f_f" unicode="ff" horiz-adv-x="610" 
d="M615 701l-24 -42c-6 4 -36 20 -71 20c-28 0 -50 -8 -66 -24c-28 -28 -28 -71 -28 -98v-77h154v-49h-154v-431h-60v431h-198v-431h-60v431h-85v49h85v83c0 48 10 96 45 131c24 24 61 38 103 38c46 0 72 -15 77 -18l-19 -46c-5 2 -22 11 -53 11c-26 0 -49 -8 -65 -24
c-28 -28 -28 -71 -28 -98v-77h198v77c0 39 4 96 45 137c24 24 61 38 103 38c58 0 95 -26 101 -31z" />
    <glyph glyph-name="f_j" unicode="fj" horiz-adv-x="496" 
d="M426 -56c0 -65 -9 -102 -40 -133c-25 -25 -62 -38 -102 -38c-36 0 -57 10 -66 14l14 47c9 -3 24 -9 51 -9c73 0 83 54 83 112v494h-198v-431h-60v431h-85v49h85v83c0 48 10 96 45 131c24 24 61 38 103 38c58 0 95 -26 101 -31l-24 -42c-6 4 -36 20 -71 20
c-28 0 -50 -8 -66 -24c-28 -28 -28 -71 -28 -98v-77h258v-536z" />
    <glyph glyph-name="f_t" unicode="ft" horiz-adv-x="630" 
d="M588 12c-8 -4 -41 -23 -95 -23c-44 0 -76 11 -99 34c-28 28 -28 66 -28 124v284h-198v-431h-60v431h-85v49h85v77c0 39 4 96 45 137c24 24 61 38 103 38c58 0 95 -26 101 -31l-24 -42c-6 4 -36 20 -71 20c-28 0 -50 -8 -66 -24c-28 -28 -28 -71 -28 -98v-77h198v136h60
v-136h154v-49h-154v-272c0 -66 -5 -116 75 -116c37 0 66 14 71 15z" />
    <glyph glyph-name="IJ" unicode="IJ" horiz-adv-x="594" 
d="M150 0h-64v667h64v-667zM516 207c0 -61 5 -132 -42 -179c-25 -25 -62 -40 -104 -40c-73 0 -122 34 -126 38l25 47c23 -13 53 -29 90 -29c100 0 93 92 93 137v486h64v-460z" />
    <glyph glyph-name="ij" unicode="ij" horiz-adv-x="400" 
d="M140 642c0 -22 -18 -40 -40 -40s-40 18 -40 40s18 40 40 40s40 -18 40 -40zM130 0h-60v480h60v-480zM340 642c0 -22 -18 -40 -40 -40s-40 18 -40 40s18 40 40 40s40 -18 40 -40zM330 480v-536c0 -65 -9 -102 -40 -133c-25 -25 -62 -38 -102 -38c-36 0 -57 10 -66 14
l14 47c9 -3 24 -9 51 -9c73 0 83 54 83 112v543h60z" />
    <glyph glyph-name="IJsmall" unicode="&#xf769;&#xf76a;" horiz-adv-x="517" 
d="M138 0h-62v517h62v-517zM449 162c0 -62 0 -105 -33 -138c-22 -22 -53 -34 -88 -34c-60 0 -99 27 -106 34l24 44c6 -3 35 -24 78 -24c67 0 64 68 64 98v375h61v-355z" />
    <glyph glyph-name=".notdef" horiz-adv-x="582" 
d="M496 -122h-410v789h410v-789zM149 614v-683h284v683h-284z" />
    <glyph glyph-name="Eth" unicode="&#xd0;" horiz-adv-x="684" 
d="M629 337c0 -106 -35 -191 -96 -252c-78 -78 -164 -85 -286 -85h-151v323h-100v53h100v291h128c136 0 234 -8 309 -83c60 -60 96 -148 96 -247zM564 339c0 66 -14 144 -79 209c-59 59 -126 66 -259 66h-66v-238h202v-53h-202v-270h91c94 0 172 4 238 70
c50 50 75 130 75 216z" />
    <glyph glyph-name="eth" unicode="&#xf0;" horiz-adv-x="506" 
d="M463 328c-1 -209 -80 -336 -211 -341c-121 -4 -203 95 -209 250c-5 151 71 250 196 254c49 2 96 -13 152 -47c-11 108 -66 156 -89 176l-123 -60l-25 45l97 47c-37 20 -100 37 -173 40l4 52c106 -3 175 -23 235 -60l93 45l25 -45l-74 -36c84 -79 102 -207 102 -320z
M399 319c0 12 -1 38 -2 57c-40 36 -104 61 -155 59c-87 -3 -140 -80 -136 -199s61 -195 144 -192c93 3 149 105 149 275z" />
    <glyph glyph-name="Lslash" unicode="&#x141;" horiz-adv-x="495" 
d="M462 0h-351v288l-82 -62l-33 41l115 87v313h64v-276l121 90l32 -41l-153 -113v-271h287v-56z" />
    <glyph glyph-name="lslash" unicode="&#x142;" horiz-adv-x="289" 
d="M293 448l-123 -91v-357h-60v321l-82 -64l-32 40l114 86v337h60v-301l91 69z" />
    <glyph glyph-name="Scaron" unicode="&#x160;" horiz-adv-x="516" 
d="M455 183c0 -112 -73 -196 -212 -196c-118 0 -188 66 -194 71l33 46c10 -7 76 -60 157 -60c98 0 150 55 150 134c0 32 -14 58 -34 78c-60 60 -180 75 -248 143c-15 15 -40 50 -40 109c0 99 79 171 197 171c121 0 177 -65 183 -71l-34 -40c-8 6 -56 56 -144 56
c-83 0 -140 -48 -140 -115c0 -29 11 -51 29 -69c55 -55 180 -71 245 -136c29 -29 52 -67 52 -121zM415 816l-154 -99l-152 99l26 39l126 -69l126 69z" />
    <glyph glyph-name="scaron" unicode="&#x161;" horiz-adv-x="416" 
d="M363 646l-154 -99l-152 99l26 39l126 -69l126 69zM366 131c0 -90 -67 -143 -173 -143c-91 0 -157 43 -161 47l26 46c3 -2 63 -40 131 -40c72 0 115 32 115 84c0 65 -70 84 -120 103c-71 28 -133 51 -133 138c0 77 70 126 160 126c85 0 141 -39 145 -43l-24 -43
c-7 4 -56 34 -116 34c-56 0 -103 -28 -103 -72c0 -56 49 -69 103 -91c65 -26 150 -53 150 -146z" />
    <glyph glyph-name="Yacute" unicode="&#xdd;" horiz-adv-x="541" 
d="M515 667l-213 -404v-263h-63v263l-213 404h70l178 -342l176 342h65zM384 797l-214 -80l-20 39l207 100z" />
    <glyph glyph-name="yacute" unicode="&#xfd;" horiz-adv-x="483" 
d="M355 626l-214 -80l-20 39l207 100zM458 480l-190 -514c-30 -81 -53 -118 -84 -149c-29 -29 -74 -44 -118 -44c-48 0 -80 15 -86 17l16 49c7 -2 30 -12 68 -12c31 0 59 9 78 28c30 30 46 68 72 133l-198 492h66l165 -415l149 415h62z" />
    <glyph glyph-name="Thorn" unicode="&#xde;" horiz-adv-x="544" 
d="M489 345c0 -70 -29 -117 -53 -141c-62 -62 -134 -58 -228 -58h-59v-146h-63v667h63v-130h89c80 0 148 -3 197 -52c36 -36 54 -87 54 -140zM425 346c0 40 -14 79 -41 106c-34 34 -94 33 -152 33h-83v-287h55c78 0 139 -2 179 38c25 25 42 57 42 110z" />
    <glyph glyph-name="thorn" unicode="&#xfe;" horiz-adv-x="518" 
d="M475 250c0 -154 -97 -260 -236 -260c-61 0 -101 22 -109 27v-230h-60v933h57v-273c4 3 58 45 138 45c126 0 210 -97 210 -242zM413 252c0 111 -63 187 -154 187c-69 0 -123 -42 -129 -47v-317c9 -5 46 -32 110 -32c104 0 173 83 173 209z" />
    <glyph glyph-name="CR" horiz-adv-x="508" 
 />
    <glyph glyph-name="Zcaron" unicode="&#x17d;" horiz-adv-x="543" 
d="M496 0h-450v47l368 566h-348v54h422v-49l-365 -562h373v-56zM415 816l-154 -99l-152 99l26 39l126 -69l126 69z" />
    <glyph glyph-name="zcaron" unicode="&#x17e;" horiz-adv-x="463" 
d="M408 0h-366v47l282 382h-268v51h342v-48l-278 -379h288v-53zM383 646l-154 -99l-152 99l26 39l126 -69l126 69z" />
    <glyph glyph-name="onehalf" unicode="&#xbd;" horiz-adv-x="731" 
d="M642 0h-207v39c36 34 155 137 155 203c0 37 -19 58 -57 58c-34 0 -64 -25 -73 -33l-25 31c8 14 49 48 103 48c61 0 101 -40 101 -101c0 -60 -47 -117 -136 -200h139v-45zM235 326h-52v277l-78 -50l-27 40l117 74h40v-341zM624 670l-476 -706l-43 29l476 708z" />
    <glyph glyph-name="onequarter" unicode="&#xbc;" horiz-adv-x="731" 
d="M235 326h-52v277l-78 -50l-27 40l117 74h40v-341zM624 670l-476 -706l-43 29l476 708zM667 78h-47v-78h-51v78h-164v38l168 225h47v-218h47v-45zM569 123v142l-105 -142h105z" />
    <glyph glyph-name="onesuperior" unicode="&#xb9;" horiz-adv-x="381" 
d="M235 326h-52v277l-78 -50l-27 40l117 74h40v-341z" />
    <glyph glyph-name="threequarters" unicode="&#xbe;" horiz-adv-x="731" 
d="M624 670l-476 -706l-43 29l476 708zM295 425c0 -66 -51 -104 -113 -104c-64 0 -94 31 -104 44l27 30c6 -5 33 -30 72 -30c44 0 69 22 69 56c0 16 -7 29 -14 37c-14 15 -33 21 -76 21h-14v44h17c37 0 82 6 82 54c0 28 -20 52 -57 52c-41 0 -66 -25 -71 -30l-28 28
c8 10 44 46 101 46c62 0 104 -38 104 -95c0 -30 -23 -66 -60 -75c39 -9 65 -40 65 -78zM667 78h-47v-78h-51v78h-164v38l168 225h47v-218h47v-45zM569 123v142l-105 -142h105z" />
    <glyph glyph-name="threesuperior" unicode="&#xb3;" horiz-adv-x="381" 
d="M295 425c0 -66 -51 -104 -113 -104c-64 0 -94 31 -104 44l27 30c6 -5 33 -30 72 -30c44 0 69 22 69 56c0 16 -7 29 -14 37c-14 15 -33 21 -76 21h-14v44h17c37 0 82 6 82 54c0 28 -20 52 -57 52c-41 0 -66 -25 -71 -30l-28 28c8 10 44 46 101 46c62 0 104 -38 104 -95
c0 -30 -23 -66 -60 -75c39 -9 65 -40 65 -78z" />
    <glyph glyph-name="twosuperior" unicode="&#xb2;" horiz-adv-x="381" 
d="M291 326h-207v39c36 34 155 137 155 203c0 37 -19 60 -57 60c-34 0 -64 -27 -73 -35l-27 31c11 15 51 49 105 49c64 0 105 -41 105 -102c0 -60 -51 -117 -140 -200h139v-45z" />
    <glyph glyph-name="brokenbar" unicode="&#xa6;" horiz-adv-x="254" 
d="M160 364h-66v303h66v-303zM160 -122h-66v304h66v-304z" />
    <glyph glyph-name="minus" unicode="&#x2212;" 
d="M534 227h-475v53h475v-53z" />
    <glyph glyph-name="multiply" unicode="&#xd7;" 
d="M523 64l-37 -37l-190 189l-189 -189l-37 37l189 189l-189 190l37 37l189 -189l190 189l37 -37l-189 -190z" />
    <glyph glyph-name="space" unicode=" " horiz-adv-x="240" 
 />
    <glyph glyph-name="exclam" unicode="!" horiz-adv-x="290" 
d="M182 667l-10 -505h-54l-13 505h77zM190 37c0 -25 -20 -45 -45 -45s-45 20 -45 45s20 45 45 45s45 -20 45 -45z" />
    <glyph glyph-name="quotedbl" unicode="&#x22;" horiz-adv-x="298" 
d="M243 667l-6 -229h-55l-7 229h68zM122 667l-6 -229h-55l-6 229h67z" />
    <glyph glyph-name="numbersign" unicode="#" horiz-adv-x="566" 
d="M496 517l-7 -53h-91l-17 -118h91l-7 -54h-91l-24 -165h-58l24 165h-99l-24 -165h-58l24 165h-89l7 54h89l17 118h-89l7 53h89l21 150h58l-21 -150h99l21 150h58l-21 -150h91zM340 464h-99l-17 -118h99z" />
    <glyph glyph-name="dollar" unicode="$" 
d="M498 185c0 -110 -73 -177 -177 -190v-95h-57v93c-114 7 -178 65 -184 70l34 46c10 -7 72 -54 150 -60v279c-39 16 -87 34 -124 69c-15 15 -42 48 -42 106c0 97 79 156 166 165v76h57v-74c109 -5 163 -63 169 -69l-34 -39c-8 6 -57 52 -135 55v-246c17 -7 86 -30 124 -67
c30 -28 53 -66 53 -119zM264 394v219c-45 -8 -104 -43 -104 -109c0 -28 11 -49 30 -67c21 -20 51 -34 74 -43zM432 180c0 31 -14 58 -35 78c-27 26 -61 39 -76 47v-253c58 11 111 51 111 128z" />
    <glyph glyph-name="percent" unicode="%" horiz-adv-x="731" 
d="M686 173c0 -112 -55 -179 -147 -179c-88 0 -144 64 -144 168c0 116 55 184 148 184c87 0 143 -67 143 -173zM336 500c0 -112 -55 -179 -147 -179c-88 0 -144 64 -144 168c0 116 55 184 148 184c87 0 143 -67 143 -173zM630 173c0 80 -33 128 -87 128
c-58 0 -92 -50 -92 -137c0 -79 32 -125 88 -125c58 0 91 49 91 134zM280 500c0 80 -33 128 -87 128c-58 0 -92 -50 -92 -137c0 -79 32 -125 88 -125c58 0 91 49 91 134zM624 670l-476 -706l-43 29l476 708z" />
    <glyph glyph-name="ampersand" unicode="&#x26;" horiz-adv-x="665" 
d="M617 0h-7c-69 0 -108 19 -155 71c-54 -53 -126 -83 -199 -83c-115 0 -201 84 -201 195c0 56 27 108 53 134s54 41 87 60c-42 58 -73 101 -73 153c0 86 71 149 168 149c93 0 155 -54 155 -135c0 -109 -98 -152 -158 -182l168 -200c21 24 62 102 62 200h58
c0 -112 -49 -213 -79 -246c51 -58 81 -65 121 -65v-51zM380 540c0 54 -35 88 -91 88c-60 0 -103 -40 -103 -96c0 -35 15 -65 67 -129c91 41 127 80 127 137zM416 113l-187 224c-74 -36 -110 -86 -110 -151c0 -80 63 -140 146 -139c53 1 106 23 151 66z" />
    <glyph glyph-name="quotesingle" unicode="'" horiz-adv-x="177" 
d="M122 667l-6 -229h-55l-6 229h67z" />
    <glyph glyph-name="parenleft" unicode="(" horiz-adv-x="361" 
d="M311 692c-125 -100 -165 -243 -165 -400c0 -161 39 -288 160 -391l-33 -40c-147 105 -198 261 -198 436c0 173 62 344 202 435z" />
    <glyph glyph-name="parenright" unicode=")" horiz-adv-x="361" 
d="M286 297c0 -175 -51 -331 -198 -436l-33 40c121 103 160 230 160 391c0 157 -40 300 -165 400l34 40c140 -91 202 -262 202 -435z" />
    <glyph glyph-name="asterisk" unicode="*" horiz-adv-x="446" 
d="M391 539l-123 -38l80 -109l-50 -35l-75 112l-75 -112l-50 35l80 109l-123 38l19 57l118 -46v117h62v-117l118 46z" />
    <glyph glyph-name="plus" unicode="+" 
d="M520 227h-197v-197h-53v197h-197v53h197v197h53v-197h197v-53z" />
    <glyph glyph-name="comma" unicode="," horiz-adv-x="236" 
d="M166 70c0 -123 -81 -192 -88 -199l-38 30c37 52 54 105 54 165v10h72v-6z" />
    <glyph glyph-name="hyphen" unicode="-" horiz-adv-x="490" 
d="M405 227h-320v53h320v-53z" />
    <glyph glyph-name="period" unicode="." horiz-adv-x="216" 
d="M153 37c0 -25 -20 -45 -45 -45s-45 20 -45 45s20 45 45 45s45 -20 45 -45z" />
    <glyph glyph-name="slash" unicode="/" horiz-adv-x="435" 
d="M398 667l-303 -811l-58 22l304 811z" />
    <glyph glyph-name="zero" unicode="0" 
d="M542 334c0 -216 -88 -346 -246 -346c-159 0 -245 130 -245 349c0 210 88 343 242 343c160 0 249 -131 249 -346zM476 333c0 186 -61 293 -179 293c-122 0 -180 -103 -180 -297c0 -182 62 -287 178 -287c119 0 181 105 181 291z" />
    <glyph glyph-name="one" unicode="1" 
d="M361 0h-63v592l-164 -111l-34 47l208 139h53v-667z" />
    <glyph glyph-name="two" unicode="2" 
d="M493 0h-405v53c6 6 87 82 136 131c137 137 197 213 197 300c0 89 -52 139 -141 139c-82 0 -151 -57 -155 -61l-35 38c5 7 79 80 198 80c121 0 199 -73 199 -191c0 -114 -91 -209 -184 -302c-50 -50 -132 -131 -132 -131h322v-56z" />
    <glyph glyph-name="three" unicode="3" 
d="M490 184c0 -123 -97 -196 -222 -196c-131 0 -188 61 -196 71l34 41c3 -2 56 -55 151 -55c101 0 168 50 168 135c0 39 -21 71 -37 88c-37 37 -82 47 -176 47h-10v55h17c64 0 120 3 164 47c21 21 32 50 32 83c0 72 -53 123 -142 123c-87 0 -150 -56 -155 -61l-34 40
c3 5 79 78 194 78c125 0 201 -73 201 -178c0 -74 -46 -148 -131 -159c88 -8 142 -76 142 -159z" />
    <glyph glyph-name="four" unicode="4" 
d="M530 162h-91v-162h-62v162h-321v52l319 453h64v-451h91v-54zM377 216v362l-254 -362h254z" />
    <glyph glyph-name="five" unicode="5" 
d="M500 211c0 -137 -96 -223 -229 -223c-123 0 -183 61 -187 66l32 43c5 -4 64 -52 148 -52c105 0 171 61 171 161c0 85 -56 160 -169 160c-66 0 -111 -27 -119 -32l-30 19v314h357v-54h-295v-211c5 2 43 21 101 21c142 0 220 -88 220 -212z" />
    <glyph glyph-name="six" unicode="6" 
d="M527 218c0 -130 -86 -230 -217 -230c-182 0 -234 175 -234 325c0 172 54 367 254 367c114 0 175 -59 179 -65l-33 -42c-10 8 -60 52 -138 52c-161 0 -202 -162 -202 -302c0 -22 1 -16 1 -27c19 88 101 137 189 137c128 0 201 -92 201 -215zM466 215
c0 92 -48 165 -146 165s-162 -81 -162 -175c0 -90 62 -164 155 -164c98 0 153 83 153 174z" />
    <glyph glyph-name="seven" unicode="7" 
d="M521 616l-275 -616h-72l280 610h-374v57h441v-51z" />
    <glyph glyph-name="eight" unicode="8" 
d="M524 176c0 -114 -89 -188 -223 -188c-141 0 -232 71 -232 186c0 92 58 167 148 170c-83 16 -129 80 -129 157c0 106 85 179 207 179c125 0 210 -70 210 -175c0 -78 -44 -144 -125 -161c94 -11 144 -74 144 -168zM441 501c0 79 -59 130 -143 130c-86 0 -145 -51 -145 -129
s63 -134 145 -134c81 0 143 55 143 133zM458 179c0 87 -63 140 -161 140c-97 0 -162 -55 -162 -139c0 -90 62 -143 167 -143c96 0 156 53 156 142z" />
    <glyph glyph-name="nine" unicode="9" 
d="M517 355c0 -172 -54 -367 -254 -367c-114 0 -175 59 -179 65l33 42c10 -8 60 -52 138 -52c161 0 202 162 202 302c0 22 -1 16 -1 27c-19 -88 -101 -137 -189 -137c-128 0 -201 92 -201 215c0 130 86 230 217 230c182 0 234 -175 234 -325zM435 463c0 90 -62 164 -155 164
c-98 0 -153 -83 -153 -174c0 -92 48 -165 146 -165s162 81 162 175z" />
    <glyph glyph-name="colon" unicode=":" horiz-adv-x="216" 
d="M153 447c0 -25 -20 -45 -45 -45s-45 20 -45 45s20 45 45 45s45 -20 45 -45zM153 37c0 -25 -20 -45 -45 -45s-45 20 -45 45s20 45 45 45s45 -20 45 -45z" />
    <glyph glyph-name="semicolon" unicode=";" horiz-adv-x="236" 
d="M175 447c0 -25 -20 -45 -45 -45s-45 20 -45 45s20 45 45 45s45 -20 45 -45zM166 70c0 -123 -81 -192 -88 -199l-38 30c37 52 54 105 54 165v10h72v-6z" />
    <glyph glyph-name="less" unicode="&#x3c;" 
d="M533 64l-22 -48l-451 218v40l450 218l23 -48l-400 -191z" />
    <glyph glyph-name="equal" unicode="=" 
d="M534 290h-475v53h475v-53zM534 164h-475v53h475v-53z" />
    <glyph glyph-name="greater" unicode="&#x3e;" 
d="M533 234l-451 -218l-22 48l400 189l-400 191l23 48l450 -218v-40z" />
    <glyph glyph-name="question" unicode="?" horiz-adv-x="493" 
d="M421 496c0 -73 -33 -110 -58 -135c-32 -32 -87 -55 -113 -81c-25 -25 -22 -47 -22 -118h-54c-1 19 -2 40 -2 56c0 46 0 64 23 87c33 33 75 52 112 89c33 33 45 60 45 102c0 75 -53 127 -131 127c-68 0 -132 -42 -138 -46l-28 44c4 5 80 59 181 59c112 0 185 -73 185 -184
zM246 37c0 -25 -20 -45 -45 -45s-45 20 -45 45s20 45 45 45s45 -20 45 -45z" />
    <glyph glyph-name="at" unicode="@" horiz-adv-x="776" 
d="M728 413c0 -145 -107 -241 -262 -241c-5 0 -11 1 -21 2l8 46c-5 -4 -56 -48 -117 -48c-66 0 -110 50 -110 123c0 122 96 217 221 217c57 0 98 -17 105 -20l-52 -272c63 5 102 33 125 56c30 30 51 83 51 136c0 125 -104 213 -253 213c-184 0 -318 -135 -318 -320
c0 -162 116 -266 272 -266c127 0 205 60 209 62l29 -41c-3 -2 -83 -74 -243 -74c-187 0 -324 131 -324 321c0 211 161 368 376 368c176 0 304 -110 304 -262zM489 460c-14 3 -25 6 -42 6c-90 0 -165 -77 -165 -168c0 -43 28 -75 67 -75c53 0 98 46 106 54z" />
    <glyph glyph-name="A" unicode="A" horiz-adv-x="581" 
d="M570 0h-68l-68 191h-291l-68 -191h-64l243 667h72zM415 246l-127 354l-126 -354h253z" />
    <glyph glyph-name="B" unicode="B" horiz-adv-x="556" 
d="M501 189c0 -49 -17 -95 -50 -128c-65 -65 -149 -61 -282 -61h-83v667h168c69 0 127 -3 173 -49c34 -34 52 -77 52 -129c0 -75 -44 -134 -113 -147c88 -14 135 -66 135 -153zM414 492c0 34 -12 64 -33 85c-43 43 -115 38 -181 38h-50v-251h66c58 0 125 5 165 45
c21 21 33 49 33 83zM436 187c0 29 -9 58 -35 84c-47 47 -131 41 -201 41h-50v-259h73c86 0 137 5 180 48c22 22 33 59 33 86z" />
    <glyph glyph-name="C" unicode="C" horiz-adv-x="606" 
d="M582 52c-7 -8 -87 -64 -213 -64c-175 0 -314 125 -314 340c0 223 147 352 324 352c117 0 184 -44 195 -55l-29 -47c-7 5 -67 43 -161 43c-144 0 -264 -106 -264 -285c0 -176 100 -289 257 -289c101 0 171 49 175 51z" />
    <glyph glyph-name="D" unicode="D" horiz-adv-x="674" 
d="M619 337c0 -106 -35 -191 -96 -252c-78 -78 -164 -85 -286 -85h-151v667h128c136 0 234 -8 309 -83c60 -60 96 -148 96 -247zM554 339c0 66 -14 144 -79 209c-59 59 -126 66 -259 66h-66v-561h91c94 0 172 4 238 70c50 50 75 130 75 216z" />
    <glyph glyph-name="E" unicode="E" horiz-adv-x="498" 
d="M446 0h-360v667h352v-54h-289v-237h271v-53h-271v-267h297v-56z" />
    <glyph glyph-name="F" unicode="F" horiz-adv-x="469" 
d="M429 613h-279v-237h261v-53h-261v-323h-64v667h343v-54z" />
    <glyph glyph-name="G" unicode="G" horiz-adv-x="660" 
d="M592 44c-6 -5 -81 -57 -221 -57c-178 0 -316 125 -316 341c0 223 147 352 324 352c117 0 184 -44 195 -55l-29 -47c-7 5 -67 43 -161 43c-144 0 -264 -106 -264 -285c0 -176 100 -291 256 -291c100 0 150 31 153 32v195h-153v52h216v-280z" />
    <glyph glyph-name="H" unicode="H" horiz-adv-x="637" 
d="M551 0h-64v324h-337v-324h-64v667h64v-289h337v289h64v-667z" />
    <glyph glyph-name="I" unicode="I" horiz-adv-x="236" 
d="M150 0h-64v667h64v-667z" />
    <glyph glyph-name="J" unicode="J" horiz-adv-x="358" 
d="M280 207c0 -61 5 -132 -42 -179c-25 -25 -62 -40 -104 -40c-73 0 -122 34 -126 38l25 47c23 -13 53 -29 90 -29c100 0 93 92 93 137v486h64v-460z" />
    <glyph glyph-name="K" unicode="K" horiz-adv-x="539" 
d="M529 0h-80l-300 319v-319h-63v667h63v-314l292 314h73l-301 -327z" />
    <glyph glyph-name="L" unicode="L" horiz-adv-x="470" 
d="M437 0h-351v667h64v-611h287v-56z" />
    <glyph glyph-name="M" unicode="M" horiz-adv-x="874" 
d="M796 0h-66l-63 574l-207 -574h-53l-209 574l-61 -574h-59l76 667h72l212 -575l207 575h73z" />
    <glyph glyph-name="N" unicode="N" horiz-adv-x="634" 
d="M548 0h-73l-332 573l2 -573h-59v667h70l335 -578l-2 578h59v-667z" />
    <glyph glyph-name="O" unicode="O" horiz-adv-x="701" 
d="M646 336c0 -204 -121 -348 -299 -348c-167 0 -292 142 -292 340c0 206 123 351 300 351c169 0 291 -141 291 -343zM578 340c0 169 -96 284 -230 284c-137 0 -225 -116 -225 -288s97 -293 228 -293c140 0 227 118 227 297z" />
    <glyph glyph-name="P" unicode="P" horiz-adv-x="540" 
d="M489 475c0 -70 -29 -117 -53 -141c-62 -62 -134 -58 -228 -58h-59v-276h-63v667h152c80 0 148 -3 197 -52c36 -36 54 -87 54 -140zM425 476c0 40 -14 79 -41 106c-34 34 -94 33 -152 33h-83v-287h55c78 0 139 -2 179 38c25 25 42 57 42 110z" />
    <glyph glyph-name="Q" unicode="Q" horiz-adv-x="701" 
d="M646 336c0 -171 -88 -331 -272 -343c21 -28 71 -81 206 -81c32 0 54 4 58 4l7 -47c-20 -5 -57 -9 -89 -9c-108 0 -198 38 -258 135c-119 15 -243 132 -243 333c0 206 123 351 300 351c169 0 291 -141 291 -343zM578 340c0 169 -96 284 -230 284
c-137 0 -225 -116 -225 -288s97 -293 228 -293c140 0 227 118 227 297z" />
    <glyph glyph-name="R" unicode="R" horiz-adv-x="550" 
d="M524 0h-66l-76 171c-50 112 -71 126 -179 126h-54v-297h-63v667h137c89 0 153 0 203 -50c34 -34 52 -79 52 -134c0 -47 -14 -85 -42 -114c-24 -25 -65 -48 -107 -52c26 -2 41 -14 53 -26c15 -15 27 -35 49 -83zM415 487c0 40 -16 72 -33 89c-42 42 -96 39 -151 39h-82
v-266h19c73 0 158 -6 210 46c24 24 37 55 37 92z" />
    <glyph glyph-name="S" unicode="S" horiz-adv-x="516" 
d="M455 183c0 -112 -73 -196 -212 -196c-118 0 -188 66 -194 71l33 46c10 -7 76 -60 157 -60c98 0 150 55 150 134c0 32 -14 58 -34 78c-60 60 -180 75 -248 143c-15 15 -40 50 -40 109c0 99 79 171 197 171c121 0 177 -65 183 -71l-34 -40c-8 6 -56 56 -144 56
c-83 0 -140 -48 -140 -115c0 -29 11 -51 29 -69c55 -55 180 -71 245 -136c29 -29 52 -67 52 -121z" />
    <glyph glyph-name="T" unicode="T" horiz-adv-x="532" 
d="M500 613h-202v-613h-64v613h-202v54h468v-54z" />
    <glyph glyph-name="U" unicode="U" horiz-adv-x="617" 
d="M541 346c0 -130 7 -229 -59 -295c-42 -42 -101 -63 -173 -63c-71 0 -133 23 -175 65c-62 62 -58 142 -58 253v361h63v-422c0 -57 -1 -112 42 -155c31 -31 78 -47 131 -47c50 0 94 17 120 43c47 47 46 95 46 228v353h63v-321z" />
    <glyph glyph-name="V" unicode="V" 
d="M569 667l-235 -667h-80l-230 667h68l204 -612l211 612h62z" />
    <glyph glyph-name="W" unicode="W" horiz-adv-x="885" 
d="M846 667l-165 -667h-88l-149 617l-152 -617h-88l-165 667h67l143 -615l150 615h94l149 -615l143 615h61z" />
    <glyph glyph-name="X" unicode="X" horiz-adv-x="558" 
d="M531 0h-74l-181 296l-180 -296h-69l213 347l-199 320h75l162 -270l161 270h70l-197 -321z" />
    <glyph glyph-name="Y" unicode="Y" horiz-adv-x="541" 
d="M515 667l-213 -404v-263h-63v263l-213 404h70l178 -342l176 342h65z" />
    <glyph glyph-name="Z" unicode="Z" horiz-adv-x="543" 
d="M496 0h-450v47l368 566h-348v54h422v-49l-365 -562h373v-56z" />
    <glyph glyph-name="bracketleft" unicode="[" horiz-adv-x="323" 
d="M286 -122h-200v789h200v-53h-137v-683h137v-53z" />
    <glyph glyph-name="backslash" unicode="\" horiz-adv-x="435" 
d="M398 -122l-58 -22l-303 811l57 22z" />
    <glyph glyph-name="bracketright" unicode="]" horiz-adv-x="323" 
d="M237 -122h-200v53h137v683h-137v53h200v-789z" />
    <glyph glyph-name="asciicircum" unicode="^" 
d="M515 253h-65l-154 337l-154 -337h-64l196 414h46z" />
    <glyph glyph-name="underscore" unicode="_" horiz-adv-x="470" 
d="M472 -122h-474v53h474v-53z" />
    <glyph glyph-name="grave" unicode="`" horiz-adv-x="380" 
d="M307 585l-20 -39l-214 80l27 59z" />
    <glyph glyph-name="a" unicode="a" horiz-adv-x="464" 
d="M401 0h-55v36c-4 -2 -68 -46 -153 -46c-92 0 -154 59 -154 146c0 152 194 157 277 157h25v18c0 45 -2 78 -24 101c-15 15 -42 28 -91 28c-74 0 -126 -34 -133 -38l-25 42c4 4 66 49 165 49c61 0 102 -18 130 -46c32 -32 38 -65 38 -138v-309zM341 82v162h-27
c-123 0 -213 -28 -213 -109c0 -48 31 -92 106 -92c62 0 121 33 134 39z" />
    <glyph glyph-name="b" unicode="b" horiz-adv-x="518" 
d="M475 248c0 -153 -100 -258 -243 -258c-83 0 -143 25 -162 32v698h60v-271c5 4 56 43 134 43c129 0 211 -97 211 -244zM413 246c0 115 -61 193 -155 193c-74 0 -121 -42 -128 -47v-332c10 -3 43 -17 104 -17c109 0 179 80 179 203z" />
    <glyph glyph-name="c" unicode="c" horiz-adv-x="464" 
d="M434 38c-4 -5 -73 -48 -164 -48c-132 0 -227 91 -227 240c0 155 98 262 239 262c84 0 141 -43 145 -47l-27 -42c-10 6 -51 35 -121 35c-104 0 -174 -86 -174 -199c0 -118 71 -193 168 -193c76 0 127 33 135 37z" />
    <glyph glyph-name="d" unicode="d" horiz-adv-x="519" 
d="M449 0h-55v36c-6 -5 -62 -46 -140 -46c-126 0 -211 97 -211 242c0 154 97 260 236 260c64 0 104 -24 109 -27v255h61v-720zM388 90v317c-7 4 -47 32 -109 32c-104 0 -174 -83 -174 -209c0 -111 64 -187 155 -187c70 0 111 35 128 47z" />
    <glyph glyph-name="e" unicode="e" horiz-adv-x="494" 
d="M451 260c0 -5 -1 -22 -2 -32h-344c0 -106 57 -182 165 -182c79 0 133 36 139 39l27 -46c-2 -3 -73 -49 -171 -49c-140 0 -222 102 -222 247c0 155 86 255 219 255c111 0 189 -84 189 -232zM390 279c0 71 -33 162 -127 162c-83 0 -150 -62 -156 -162h283z" />
    <glyph glyph-name="f" unicode="f" horiz-adv-x="352" 
d="M357 701l-24 -42c-6 4 -36 20 -71 20c-28 0 -50 -8 -66 -24c-28 -28 -28 -71 -28 -98v-77h154v-49h-154v-431h-60v431h-85v49h85v77c0 39 4 96 45 137c24 24 61 38 103 38c58 0 95 -26 101 -31z" />
    <glyph glyph-name="g" unicode="g" horiz-adv-x="519" 
d="M449 -7c0 -85 -9 -130 -45 -167c-42 -42 -92 -53 -156 -53c-107 0 -173 54 -178 59l27 42c7 -4 65 -48 147 -48c59 0 92 15 113 37c30 30 31 63 31 140v37c-9 -5 -64 -41 -140 -41c-120 0 -205 99 -205 237c0 148 100 256 239 256c84 0 157 -37 167 -41v-458zM388 98v318
c-7 3 -47 23 -109 23c-105 0 -174 -82 -174 -202c0 -110 60 -185 149 -185c70 0 127 42 134 46z" />
    <glyph glyph-name="h" unicode="h" horiz-adv-x="503" 
d="M440 0h-60v280c0 60 1 103 -28 132c-17 17 -46 27 -75 27c-71 0 -145 -45 -147 -47v-392h-60v720h60v-274c4 4 74 46 153 46c43 0 88 -15 110 -37c41 -41 47 -77 47 -166v-289z" />
    <glyph glyph-name="i" unicode="i" horiz-adv-x="200" 
d="M140 642c0 -22 -18 -40 -40 -40s-40 18 -40 40s18 40 40 40s40 -18 40 -40zM130 0h-60v480h60v-480z" />
    <glyph glyph-name="j" unicode="j" horiz-adv-x="200" 
d="M140 642c0 -22 -18 -40 -40 -40s-40 18 -40 40s18 40 40 40s40 -18 40 -40zM130 480v-536c0 -65 -9 -102 -40 -133c-25 -25 -62 -38 -102 -38c-36 0 -57 10 -66 14l14 47c9 -3 24 -9 51 -9c73 0 83 54 83 112v543h60z" />
    <glyph glyph-name="k" unicode="k" horiz-adv-x="468" 
d="M453 0h-79l-244 254v-254h-60v720h60v-453l224 213h79l-236 -218z" />
    <glyph glyph-name="l" unicode="l" horiz-adv-x="200" 
d="M130 0h-60v720h60v-720z" />
    <glyph glyph-name="m" unicode="m" horiz-adv-x="789" 
d="M726 0h-60v286c0 26 1 97 -28 126c-18 18 -42 25 -72 25c-68 0 -134 -37 -146 -44c10 -21 9 -96 9 -114v-279h-60v263c0 78 1 123 -26 150c-14 14 -38 25 -70 25c-69 0 -137 -42 -143 -46v-392h-60v480h57v-35c5 3 75 47 152 47c53 0 91 -17 119 -56c55 34 108 56 174 56
c44 0 81 -14 107 -40c49 -49 47 -110 47 -198v-254z" />
    <glyph glyph-name="n" unicode="n" horiz-adv-x="503" 
d="M440 0h-60v280c0 60 1 103 -28 132c-17 17 -46 27 -75 27c-71 0 -145 -45 -147 -47v-392h-60v480h57v-35c8 5 77 47 158 47c34 0 79 -8 111 -40c37 -37 44 -74 44 -163v-289z" />
    <glyph glyph-name="o" unicode="o" horiz-adv-x="523" 
d="M480 236c0 -150 -85 -248 -220 -248c-131 0 -217 98 -217 252c0 152 84 252 222 252c130 0 215 -97 215 -256zM418 238c0 121 -68 202 -157 202c-96 0 -156 -79 -156 -198c0 -121 67 -201 157 -201c99 0 156 77 156 197z" />
    <glyph glyph-name="p" unicode="p" horiz-adv-x="518" 
d="M475 250c0 -154 -97 -260 -236 -260c-61 0 -101 22 -109 27v-230h-60v693h57v-33c4 3 58 45 138 45c126 0 210 -97 210 -242zM413 252c0 111 -63 187 -154 187c-69 0 -123 -42 -129 -47v-317c9 -5 46 -32 110 -32c104 0 173 83 173 209z" />
    <glyph glyph-name="q" unicode="q" horiz-adv-x="518" 
d="M448 -213h-60v246c-5 -4 -56 -43 -134 -43c-129 0 -211 97 -211 244c0 153 100 258 243 258c83 0 143 -25 162 -32v-673zM388 90v332c-10 3 -43 17 -104 17c-109 0 -179 -80 -179 -203c0 -115 61 -193 155 -193c74 0 121 42 128 47z" />
    <glyph glyph-name="r" unicode="r" horiz-adv-x="349" 
d="M329 485l-14 -50c-7 1 -20 3 -39 3c-102 0 -142 -80 -146 -84v-354h-60v480h57v-63c5 6 54 76 152 76c36 0 47 -7 50 -8z" />
    <glyph glyph-name="s" unicode="s" horiz-adv-x="416" 
d="M366 131c0 -90 -67 -143 -173 -143c-91 0 -157 43 -161 47l26 46c3 -2 63 -40 131 -40c72 0 115 32 115 84c0 65 -70 84 -120 103c-71 28 -133 51 -133 138c0 77 70 126 160 126c85 0 141 -39 145 -43l-24 -43c-7 4 -56 34 -116 34c-56 0 -103 -28 -103 -72
c0 -56 49 -69 103 -91c65 -26 150 -53 150 -146z" />
    <glyph glyph-name="t" unicode="t" horiz-adv-x="370" 
d="M328 12c-8 -4 -41 -23 -95 -23c-44 0 -76 11 -99 34c-28 28 -28 66 -28 124v284h-84v49h84v136h60v-136h154v-49h-154v-272c0 -66 -5 -116 75 -116c37 0 66 14 71 15z" />
    <glyph glyph-name="u" unicode="u" horiz-adv-x="503" 
d="M433 0h-55v38c-9 -6 -73 -48 -156 -48c-45 0 -86 13 -116 43c-48 48 -43 118 -43 173v274h60v-286c0 -51 0 -94 28 -122c19 -19 45 -29 75 -29c71 0 139 43 147 47v390h60v-480z" />
    <glyph glyph-name="v" unicode="v" horiz-adv-x="494" 
d="M466 480l-188 -480h-71l-187 480h66l159 -417l159 417h62z" />
    <glyph glyph-name="w" unicode="w" horiz-adv-x="739" 
d="M700 480l-140 -480h-74l-121 427l-123 -427h-74l-134 480h61l113 -419l120 419h80l118 -419l115 419h59z" />
    <glyph glyph-name="x" unicode="x" horiz-adv-x="478" 
d="M446 0h-73l-141 204l-141 -204h-69l176 246l-164 234h74l129 -190l130 190h68l-163 -233z" />
    <glyph glyph-name="y" unicode="y" horiz-adv-x="483" 
d="M458 480l-190 -514c-30 -81 -53 -118 -84 -149c-29 -29 -74 -44 -118 -44c-48 0 -80 15 -86 17l16 49c7 -2 30 -12 68 -12c31 0 59 9 78 28c30 30 46 68 72 133l-198 492h66l165 -415l149 415h62z" />
    <glyph glyph-name="z" unicode="z" horiz-adv-x="491" 
d="M436 0h-366v47l282 382h-268v51h342v-48l-278 -379h288v-53z" />
    <glyph glyph-name="braceleft" unicode="{" horiz-adv-x="335" 
d="M298 -122h-51c-42 0 -87 3 -118 35c-18 18 -31 37 -31 121v132c0 21 3 66 -13 82c-8 8 -25 11 -34 11v52c5 0 24 1 34 11c16 16 13 61 13 82v107c0 84 13 103 31 121c31 32 76 35 118 35h51v-53h-35c-54 0 -70 -3 -84 -16c-13 -12 -17 -31 -17 -84v-107
c0 -46 3 -88 -18 -109c-6 -6 -13 -10 -22 -13c9 -3 16 -7 22 -13c21 -21 18 -63 18 -109v-132c0 -53 4 -72 17 -84c14 -13 30 -16 84 -16h35v-53z" />
    <glyph glyph-name="bar" unicode="|" horiz-adv-x="254" 
d="M160 -122h-66v789h66v-789z" />
    <glyph glyph-name="braceright" unicode="}" horiz-adv-x="335" 
d="M284 259c-5 0 -24 -1 -34 -11c-16 -16 -13 -61 -13 -82v-132c0 -84 -13 -103 -31 -121c-31 -32 -76 -35 -118 -35h-51v53h35c54 0 70 3 84 16c13 12 17 31 17 84v132c0 46 -3 88 18 109c6 6 13 10 22 13c-9 3 -16 7 -22 13c-21 21 -18 63 -18 109v107c0 53 -4 72 -17 84
c-14 13 -30 16 -84 16h-35v53h51c42 0 87 -3 118 -35c18 -18 31 -37 31 -121v-107c0 -21 -3 -66 13 -82c8 -8 25 -11 34 -11v-52z" />
    <glyph glyph-name="asciitilde" unicode="~" 
d="M511 261c-10 -13 -47 -65 -110 -65c-77 0 -138 57 -203 57c-27 0 -49 -10 -75 -39l-41 32c8 13 41 66 117 66c79 0 134 -57 201 -57c26 0 47 12 73 41z" />
    <glyph glyph-name="Adieresis" unicode="&#xc4;" horiz-adv-x="581" 
d="M570 0h-68l-68 191h-291l-68 -191h-64l243 667h72zM415 246l-127 354l-126 -354h253zM410 770c0 -25 -20 -45 -45 -45s-45 20 -45 45s20 45 45 45s45 -20 45 -45zM258 770c0 -25 -20 -45 -45 -45s-45 20 -45 45s20 45 45 45s45 -20 45 -45z" />
    <glyph glyph-name="Aring" unicode="&#xc5;" horiz-adv-x="581" 
d="M570 0h-68l-68 191h-291l-68 -191h-64l243 667h72zM415 246l-127 354l-126 -354h253zM386 815c0 -54 -44 -98 -98 -98s-98 44 -98 98c0 56 45 98 98 98c55 0 98 -45 98 -98zM345 815c0 33 -26 57 -57 57s-56 -26 -56 -57s25 -56 56 -56c32 0 57 25 57 56z" />
    <glyph glyph-name="Ccedilla" unicode="&#xc7;" horiz-adv-x="606" 
d="M582 52c-8 -8 -87 -64 -213 -64l-9 -45c4 3 15 5 26 5c50 0 84 -36 84 -86c0 -59 -50 -89 -97 -89c-39 0 -63 13 -71 20l16 37c8 -5 25 -12 49 -12c41 0 51 25 51 42c0 25 -17 43 -43 43c-18 0 -34 -9 -42 -15l-26 18l17 85c-128 14 -269 117 -269 337
c0 223 147 352 324 352c117 0 184 -44 195 -55l-29 -47c-7 5 -68 43 -161 43c-144 0 -264 -106 -264 -285c0 -176 101 -289 257 -289c101 0 171 49 175 51z" />
    <glyph glyph-name="Eacute" unicode="&#xc9;" horiz-adv-x="498" 
d="M446 0h-360v667h352v-54h-289v-237h271v-53h-271v-267h297v-56zM379 797l-214 -80l-20 39l207 100z" />
    <glyph glyph-name="Ntilde" unicode="&#xd1;" horiz-adv-x="634" 
d="M548 0h-73l-332 573l2 -573h-59v667h70l335 -578l-2 578h59v-667zM459 763c-30 -30 -64 -45 -99 -45c-38 0 -72 22 -110 22c-22 0 -40 -6 -67 -23l-29 39c37 31 64 43 97 43c39 0 73 -23 110 -23c24 0 48 9 69 27z" />
    <glyph glyph-name="Odieresis" unicode="&#xd6;" horiz-adv-x="701" 
d="M646 336c0 -204 -121 -348 -299 -348c-167 0 -292 142 -292 340c0 206 123 351 300 351c169 0 291 -141 291 -343zM578 340c0 169 -96 284 -230 284c-137 0 -225 -116 -225 -288s97 -293 228 -293c140 0 227 118 227 297zM473 770c0 -25 -20 -45 -45 -45s-45 20 -45 45
s20 45 45 45s45 -20 45 -45zM321 770c0 -25 -20 -45 -45 -45s-45 20 -45 45s20 45 45 45s45 -20 45 -45z" />
    <glyph glyph-name="Udieresis" unicode="&#xdc;" horiz-adv-x="617" 
d="M541 346c0 -130 7 -229 -59 -295c-42 -42 -101 -63 -173 -63c-71 0 -133 23 -175 65c-62 62 -58 142 -58 253v361h63v-422c0 -57 -1 -112 42 -155c31 -31 78 -47 131 -47c50 0 94 17 120 43c47 47 46 95 46 228v353h63v-321zM430 770c0 -25 -20 -45 -45 -45
s-45 20 -45 45s20 45 45 45s45 -20 45 -45zM278 770c0 -25 -20 -45 -45 -45s-45 20 -45 45s20 45 45 45s45 -20 45 -45z" />
    <glyph glyph-name="aacute" unicode="&#xe1;" horiz-adv-x="464" 
d="M401 0h-55v36c-4 -2 -68 -46 -153 -46c-92 0 -154 59 -154 146c0 152 194 157 277 157h25v18c0 45 -2 78 -24 101c-15 15 -42 28 -91 28c-74 0 -126 -34 -133 -38l-25 42c4 4 66 49 165 49c61 0 102 -18 130 -46c32 -32 38 -65 38 -138v-309zM341 82v162h-27
c-123 0 -213 -28 -213 -109c0 -48 31 -92 106 -92c62 0 121 33 134 39zM349 626l-214 -80l-20 39l207 100z" />
    <glyph glyph-name="agrave" unicode="&#xe0;" horiz-adv-x="464" 
d="M401 0h-55v36c-4 -2 -68 -46 -153 -46c-92 0 -154 59 -154 146c0 152 194 157 277 157h25v18c0 45 -2 78 -24 101c-15 15 -42 28 -91 28c-74 0 -126 -34 -133 -38l-25 42c4 4 66 49 165 49c61 0 102 -18 130 -46c32 -32 38 -65 38 -138v-309zM341 82v162h-27
c-123 0 -213 -28 -213 -109c0 -48 31 -92 106 -92c62 0 121 33 134 39zM353 585l-20 -39l-214 80l27 59z" />
    <glyph glyph-name="acircumflex" unicode="&#xe2;" horiz-adv-x="464" 
d="M401 0h-55v36c-4 -2 -68 -46 -153 -46c-92 0 -154 59 -154 146c0 152 194 157 277 157h25v18c0 45 -2 78 -24 101c-15 15 -42 28 -91 28c-74 0 -126 -34 -133 -38l-25 42c4 4 66 49 165 49c61 0 102 -18 130 -46c32 -32 38 -65 38 -138v-309zM341 82v162h-27
c-123 0 -213 -28 -213 -109c0 -48 31 -92 106 -92c62 0 121 33 134 39zM381 586l-26 -39l-126 69l-126 -69l-28 39l154 99z" />
    <glyph glyph-name="adieresis" unicode="&#xe4;" horiz-adv-x="464" 
d="M401 0h-55v36c-4 -2 -68 -46 -153 -46c-92 0 -154 59 -154 146c0 152 194 157 277 157h25v18c0 45 -2 78 -24 101c-15 15 -42 28 -91 28c-74 0 -126 -34 -133 -38l-25 42c4 4 66 49 165 49c61 0 102 -18 130 -46c32 -32 38 -65 38 -138v-309zM341 82v162h-27
c-123 0 -213 -28 -213 -109c0 -48 31 -92 106 -92c62 0 121 33 134 39zM358 615c0 -25 -20 -45 -45 -45s-45 20 -45 45s20 45 45 45s45 -20 45 -45zM206 615c0 -25 -20 -45 -45 -45s-45 20 -45 45s20 45 45 45s45 -20 45 -45z" />
    <glyph glyph-name="atilde" unicode="&#xe3;" horiz-adv-x="464" 
d="M401 0h-55v36c-4 -2 -68 -46 -153 -46c-92 0 -154 59 -154 146c0 152 194 157 277 157h25v18c0 45 -2 78 -24 101c-15 15 -42 28 -91 28c-74 0 -126 -34 -133 -38l-25 42c4 4 66 49 165 49c61 0 102 -18 130 -46c32 -32 38 -65 38 -138v-309zM341 82v162h-27
c-123 0 -213 -28 -213 -109c0 -48 31 -92 106 -92c62 0 121 33 134 39zM389 618c-30 -30 -64 -45 -99 -45c-38 0 -72 22 -110 22c-22 0 -40 -6 -67 -23l-29 39c37 31 64 43 97 43c39 0 73 -23 110 -23c24 0 48 9 69 27z" />
    <glyph glyph-name="aring" unicode="&#xe5;" horiz-adv-x="464" 
d="M401 0h-55v36c-4 -2 -68 -46 -153 -46c-92 0 -154 59 -154 146c0 152 194 157 277 157h25v18c0 45 -2 78 -24 101c-15 15 -42 28 -91 28c-74 0 -126 -34 -133 -38l-25 42c4 4 66 49 165 49c61 0 102 -18 130 -46c32 -32 38 -65 38 -138v-309zM341 82v162h-27
c-123 0 -213 -28 -213 -109c0 -48 31 -92 106 -92c62 0 121 33 134 39zM330 631c0 -54 -44 -98 -98 -98s-98 44 -98 98c0 56 45 98 98 98c55 0 98 -45 98 -98zM289 631c0 33 -26 57 -57 57s-56 -26 -56 -57s25 -56 56 -56c32 0 57 25 57 56z" />
    <glyph glyph-name="ccedilla" unicode="&#xe7;" horiz-adv-x="464" 
d="M434 38c-4 -5 -73 -48 -163 -48l-8 -43c4 3 14 5 25 5c49 0 82 -34 82 -83c0 -57 -49 -87 -95 -87c-38 0 -61 13 -69 20l16 36c8 -5 25 -12 48 -12c40 0 49 25 49 41c0 24 -17 41 -42 41c-17 0 -32 -8 -40 -14l-26 17l17 82c-96 16 -185 91 -185 237
c0 155 98 262 239 262c85 0 141 -43 145 -47l-27 -42c-10 6 -51 35 -121 35c-104 0 -174 -86 -174 -199c0 -118 71 -193 168 -193c76 0 127 33 135 37z" />
    <glyph glyph-name="eacute" unicode="&#xe9;" horiz-adv-x="494" 
d="M451 260c0 -5 -2 -22 -2 -32h-344c0 -106 57 -182 165 -182c79 0 133 36 139 39l27 -46c-2 -3 -73 -49 -171 -49c-140 0 -222 102 -222 247c0 155 86 255 219 255c111 0 189 -84 189 -232zM390 279c0 71 -33 162 -127 162c-83 0 -150 -62 -156 -162h283zM376 626
l-214 -80l-20 39l207 100z" />
    <glyph glyph-name="egrave" unicode="&#xe8;" horiz-adv-x="494" 
d="M451 260c0 -5 -2 -22 -2 -32h-344c0 -106 57 -182 165 -182c79 0 133 36 139 39l27 -46c-2 -3 -73 -49 -171 -49c-140 0 -222 102 -222 247c0 155 86 255 219 255c111 0 189 -84 189 -232zM390 279c0 71 -33 162 -127 162c-83 0 -150 -62 -156 -162h283zM368 585l-20 -39
l-214 80l27 59z" />
    <glyph glyph-name="ecircumflex" unicode="&#xea;" horiz-adv-x="494" 
d="M451 260c0 -5 -2 -22 -2 -32h-344c0 -106 57 -182 165 -182c79 0 133 36 139 39l27 -46c-2 -3 -73 -49 -171 -49c-140 0 -222 102 -222 247c0 155 86 255 219 255c111 0 189 -84 189 -232zM390 279c0 71 -33 162 -127 162c-83 0 -150 -62 -156 -162h283zM409 586l-26 -39
l-126 69l-126 -69l-28 39l154 99z" />
    <glyph glyph-name="edieresis" unicode="&#xeb;" horiz-adv-x="494" 
d="M451 260c0 -5 -2 -22 -2 -32h-344c0 -106 57 -182 165 -182c79 0 133 36 139 39l27 -46c-2 -3 -73 -49 -171 -49c-140 0 -222 102 -222 247c0 155 86 255 219 255c111 0 189 -84 189 -232zM390 279c0 71 -33 162 -127 162c-83 0 -150 -62 -156 -162h283zM379 615
c0 -25 -20 -45 -45 -45s-45 20 -45 45s20 45 45 45s45 -20 45 -45zM227 615c0 -25 -20 -45 -45 -45s-45 20 -45 45s20 45 45 45s45 -20 45 -45z" />
    <glyph glyph-name="iacute" unicode="&#xed;" horiz-adv-x="200" 
d="M130 0h-60v480h60v-480zM216 626l-214 -80l-20 39l207 100z" />
    <glyph glyph-name="igrave" unicode="&#xec;" horiz-adv-x="200" 
d="M130 0h-60v480h60v-480zM217 585l-20 -39l-214 80l27 59z" />
    <glyph glyph-name="icircumflex" unicode="&#xee;" horiz-adv-x="200" 
d="M130 0h-60v480h60v-480zM254 586l-26 -39l-126 69l-126 -69l-28 39l154 99z" />
    <glyph glyph-name="idieresis" unicode="&#xef;" horiz-adv-x="200" 
d="M130 0h-60v480h60v-480zM221 615c0 -25 -20 -45 -45 -45s-45 20 -45 45s20 45 45 45s45 -20 45 -45zM69 615c0 -25 -20 -45 -45 -45s-45 20 -45 45s20 45 45 45s45 -20 45 -45z" />
    <glyph glyph-name="ntilde" unicode="&#xf1;" horiz-adv-x="503" 
d="M440 0h-60v280c0 60 1 103 -28 132c-17 17 -46 27 -75 27c-71 0 -145 -45 -147 -47v-392h-60v480h57v-35c8 5 77 47 158 47c34 0 79 -8 111 -40c37 -37 44 -74 44 -163v-289zM407 618c-30 -30 -64 -45 -99 -45c-38 0 -72 22 -110 22c-22 0 -40 -6 -67 -23l-29 39
c37 31 64 43 97 43c39 0 73 -23 110 -23c24 0 48 9 69 27z" />
    <glyph glyph-name="oacute" unicode="&#xf3;" horiz-adv-x="523" 
d="M480 236c0 -150 -85 -248 -220 -248c-131 0 -217 98 -217 252c0 152 84 252 222 252c130 0 215 -97 215 -256zM418 238c0 121 -68 202 -157 202c-96 0 -156 -79 -156 -198c0 -121 67 -201 157 -201c99 0 156 77 156 197zM381 626l-214 -80l-20 39l207 100z" />
    <glyph glyph-name="ograve" unicode="&#xf2;" horiz-adv-x="523" 
d="M480 236c0 -150 -85 -248 -220 -248c-131 0 -217 98 -217 252c0 152 84 252 222 252c130 0 215 -97 215 -256zM418 238c0 121 -68 202 -157 202c-96 0 -156 -79 -156 -198c0 -121 67 -201 157 -201c99 0 156 77 156 197zM373 585l-20 -39l-214 80l27 59z" />
    <glyph glyph-name="ocircumflex" unicode="&#xf4;" horiz-adv-x="523" 
d="M480 236c0 -150 -85 -248 -220 -248c-131 0 -217 98 -217 252c0 152 84 252 222 252c130 0 215 -97 215 -256zM418 238c0 121 -68 202 -157 202c-96 0 -156 -79 -156 -198c0 -121 67 -201 157 -201c99 0 156 77 156 197zM416 586l-26 -39l-126 69l-126 -69l-28 39l154 99
z" />
    <glyph glyph-name="odieresis" unicode="&#xf6;" horiz-adv-x="523" 
d="M480 236c0 -150 -85 -248 -220 -248c-131 0 -217 98 -217 252c0 152 84 252 222 252c130 0 215 -97 215 -256zM418 238c0 121 -68 202 -157 202c-96 0 -156 -79 -156 -198c0 -121 67 -201 157 -201c99 0 156 77 156 197zM381 615c0 -25 -20 -45 -45 -45s-45 20 -45 45
s20 45 45 45s45 -20 45 -45zM229 615c0 -25 -20 -45 -45 -45s-45 20 -45 45s20 45 45 45s45 -20 45 -45z" />
    <glyph glyph-name="otilde" unicode="&#xf5;" horiz-adv-x="523" 
d="M480 236c0 -150 -85 -248 -220 -248c-131 0 -217 98 -217 252c0 152 84 252 222 252c130 0 215 -97 215 -256zM418 238c0 121 -68 202 -157 202c-96 0 -156 -79 -156 -198c0 -121 67 -201 157 -201c99 0 156 77 156 197zM416 618c-30 -30 -64 -45 -99 -45
c-38 0 -72 22 -110 22c-22 0 -40 -6 -67 -23l-29 39c37 31 64 43 97 43c39 0 73 -23 110 -23c24 0 48 9 69 27z" />
    <glyph glyph-name="uacute" unicode="&#xfa;" horiz-adv-x="503" 
d="M433 0h-55v38c-9 -6 -73 -48 -156 -48c-45 0 -86 13 -116 43c-48 48 -43 118 -43 173v274h60v-286c0 -51 0 -94 28 -122c19 -19 45 -29 75 -29c71 0 139 43 147 47v390h60v-480zM366 626l-214 -80l-20 39l207 100z" />
    <glyph glyph-name="ugrave" unicode="&#xf9;" horiz-adv-x="503" 
d="M433 0h-55v38c-9 -6 -73 -48 -156 -48c-45 0 -86 13 -116 43c-48 48 -43 118 -43 173v274h60v-286c0 -51 0 -94 28 -122c19 -19 45 -29 75 -29c71 0 139 43 147 47v390h60v-480zM354 585l-20 -39l-214 80l27 59z" />
    <glyph glyph-name="ucircumflex" unicode="&#xfb;" horiz-adv-x="503" 
d="M433 0h-55v38c-9 -6 -73 -48 -156 -48c-45 0 -86 13 -116 43c-48 48 -43 118 -43 173v274h60v-286c0 -51 0 -94 28 -122c19 -19 45 -29 75 -29c71 0 139 43 147 47v390h60v-480zM403 586l-26 -39l-126 69l-126 -69l-28 39l154 99z" />
    <glyph glyph-name="udieresis" unicode="&#xfc;" horiz-adv-x="503" 
d="M433 0h-55v38c-9 -6 -73 -48 -156 -48c-45 0 -86 13 -116 43c-48 48 -43 118 -43 173v274h60v-286c0 -51 0 -94 28 -122c19 -19 45 -29 75 -29c71 0 139 43 147 47v390h60v-480zM371 615c0 -25 -20 -45 -45 -45s-45 20 -45 45s20 45 45 45s45 -20 45 -45zM219 615
c0 -25 -20 -45 -45 -45s-45 20 -45 45s20 45 45 45s45 -20 45 -45z" />
    <glyph glyph-name="dagger" unicode="&#x2020;" horiz-adv-x="553" 
d="M483 363h-175l-6 -485h-50l-7 485h-175v57h174l-3 247h71l-3 -247h174v-57z" />
    <glyph glyph-name="degree" unicode="&#xb0;" 
d="M441 535c0 -80 -64 -144 -144 -144s-145 64 -145 144s65 144 145 144s144 -64 144 -144zM395 535c0 55 -43 98 -98 98s-99 -43 -99 -98s44 -98 99 -98s98 43 98 98z" />
    <glyph glyph-name="cent" unicode="&#xa2;" 
d="M500 48c-4 -5 -64 -40 -130 -46v-102h-57v101c-111 9 -204 90 -204 239c0 157 98 248 204 259v82h57v-80c73 -7 119 -42 123 -46l-27 -42c-10 6 -42 28 -96 34v-389c55 6 96 31 104 35zM313 58v387c-75 -12 -142 -83 -142 -196c0 -118 70 -182 142 -191z" />
    <glyph glyph-name="sterling" unicode="&#xa3;" 
d="M539 620l-31 -40c-9 7 -52 45 -130 45c-95 0 -152 -62 -152 -177c0 -50 5 -84 7 -103h195v-54h-190c0 -9 3 -37 3 -60c0 -95 -23 -152 -59 -175h340v-56h-439v51c58 18 95 50 95 157c0 39 -3 70 -4 83h-89v54h85c-5 36 -10 68 -10 103c0 144 83 231 214 231
c102 0 157 -49 165 -59z" />
    <glyph glyph-name="section" unicode="&#xa7;" 
d="M486 278c0 -64 -34 -110 -110 -140c66 -35 91 -72 91 -126c0 -87 -68 -158 -181 -158c-103 0 -168 48 -179 56l30 47c7 -4 69 -45 143 -45c83 0 122 44 122 92c0 21 -6 40 -23 57c-51 51 -156 60 -220 124c-26 26 -39 55 -39 88c0 54 29 103 117 136
c-66 34 -94 75 -94 130c0 86 68 140 170 140c92 0 144 -45 149 -49l-28 -43c-4 3 -56 38 -120 38c-69 0 -106 -34 -106 -78c0 -20 7 -38 20 -51c45 -45 166 -72 217 -123c25 -25 41 -58 41 -95zM421 267c0 21 -8 42 -22 56c-28 28 -72 46 -108 62
c-69 -21 -108 -60 -108 -103c0 -20 8 -37 23 -52c26 -26 88 -50 123 -65c64 24 92 63 92 102z" />
    <glyph glyph-name="bullet" unicode="&#x2022;" horiz-adv-x="548" 
d="M356 253c0 -46 -36 -82 -82 -82c-44 0 -82 36 -82 82c0 44 38 82 82 82c46 0 82 -39 82 -82z" />
    <glyph glyph-name="paragraph" unicode="&#xb6;" 
d="M533 614h-61v-736h-53v736h-49v-736h-52v403c-43 0 -144 -5 -204 55c-28 28 -54 68 -54 144c0 53 18 97 52 131c51 51 123 56 246 56h175v-53z" />
    <glyph glyph-name="germandbls" unicode="&#xdf;" horiz-adv-x="527" 
d="M484 154c0 -106 -84 -166 -180 -166c-69 0 -117 29 -124 32l22 49c6 -3 47 -25 97 -25c70 0 120 40 120 105c0 30 -13 58 -37 82c-25 25 -75 53 -107 85c-18 18 -24 33 -24 52c0 68 112 100 112 199c0 68 -47 111 -113 111c-30 0 -57 -6 -83 -32
c-23 -23 -37 -58 -37 -165v-481h-60v445c0 97 -3 183 53 239c35 35 78 48 131 48c101 0 174 -67 174 -164c0 -119 -106 -152 -106 -193c0 -14 6 -19 17 -30c43 -43 145 -84 145 -191z" />
    <glyph glyph-name="registered" unicode="&#xae;" horiz-adv-x="536" 
d="M488 459c0 -122 -98 -219 -220 -219s-220 97 -220 219s98 220 220 220s220 -98 220 -220zM443 459c0 98 -77 174 -175 174s-175 -76 -175 -174s77 -173 175 -173s175 75 175 173zM372 341h-44l-30 62c-17 35 -20 36 -54 36h-11v-98h-42v241h59c32 0 58 -1 79 -20
c14 -13 21 -31 21 -51c0 -26 -14 -53 -49 -57c18 0 28 -20 33 -31zM309 513c0 31 -34 31 -57 31h-19v-67c28 0 76 -4 76 36z" />
    <glyph glyph-name="copyright" unicode="&#xa9;" horiz-adv-x="787" 
d="M739 333c0 -190 -155 -345 -345 -345s-346 155 -346 345s156 346 346 346c193 0 345 -161 345 -346zM682 333c0 163 -132 288 -288 288c-160 0 -289 -135 -289 -288c0 -158 131 -287 289 -287s288 129 288 287zM521 188c-7 -9 -58 -41 -126 -41c-99 0 -171 70 -171 183
c0 117 73 199 180 199c63 0 106 -32 113 -40l-26 -40c-29 19 -53 29 -90 29c-72 0 -120 -61 -120 -142c0 -84 50 -136 117 -136c55 0 88 23 100 29z" />
    <glyph glyph-name="trademark" unicode="&#x2122;" horiz-adv-x="727" 
d="M680 313h-52l-28 257l-93 -257h-40l-93 257l-27 -257h-49l40 354h51l101 -271l97 271h52zM283 625h-102v-312h-48v312h-103v42h253v-42z" />
    <glyph glyph-name="acute" unicode="&#xb4;" horiz-adv-x="380" 
d="M307 626l-214 -80l-20 39l207 100z" />
    <glyph glyph-name="dieresis" unicode="&#xa8;" horiz-adv-x="380" 
d="M311 615c0 -25 -20 -45 -45 -45s-45 20 -45 45s20 45 45 45s45 -20 45 -45zM159 615c0 -25 -20 -45 -45 -45s-45 20 -45 45s20 45 45 45s45 -20 45 -45z" />
    <glyph glyph-name="notequal" unicode="&#x2260;" 
d="M534 164h-259l-86 -135l-46 28l69 107h-153v53h185l45 73h-230v53h263l81 128l44 -28l-63 -100h150v-53h-183l-45 -73h228v-53z" />
    <glyph glyph-name="AE" unicode="&#xc6;" horiz-adv-x="844" 
d="M792 0h-360v191h-238l-103 -191h-71l376 667h388v-54h-289v-237h271v-53h-271v-268h297v-55zM432 246v367l-209 -367h209z" />
    <glyph glyph-name="Oslash" unicode="&#xd8;" horiz-adv-x="701" 
d="M646 336c0 -204 -121 -348 -299 -348c-77 0 -128 31 -135 36l-53 -92l-46 27l54 96c-6 5 -112 90 -112 273c0 206 123 351 300 351c83 0 138 -35 145 -41l54 95l46 -27l-57 -101c5 -5 103 -86 103 -269zM578 340c0 135 -62 204 -68 210l-269 -474c4 -2 49 -33 111 -33
c140 0 226 118 226 297zM470 586c-18 16 -65 38 -121 38c-137 0 -226 -116 -226 -288c0 -106 36 -180 76 -223z" />
    <glyph glyph-name="infinity" unicode="&#x221e;" horiz-adv-x="850" 
d="M756 276c0 -76 -64 -140 -141 -140c-56 0 -109 30 -190 108c-81 -78 -134 -108 -190 -108c-77 0 -141 64 -141 140c0 79 60 141 138 141c64 0 123 -32 193 -105c70 73 129 105 193 105c78 0 138 -62 138 -141zM706 282c0 48 -39 88 -91 88c-66 0 -111 -45 -158 -92
c41 -38 96 -89 158 -89c50 0 91 43 91 93zM393 278c-47 47 -92 92 -158 92c-52 0 -91 -40 -91 -88c0 -50 41 -93 91 -93c62 0 117 51 158 89z" />
    <glyph glyph-name="plusminus" unicode="&#xb1;" 
d="M520 307h-197v-208h-53v208h-197v53h197v212h53v-212h197v-53zM520 0h-447v53h447v-53z" />
    <glyph glyph-name="lessequal" unicode="&#x2264;" 
d="M533 146l-22 -48l-451 218v40l450 218l23 -48l-400 -191zM533 0h-473v53h473v-53z" />
    <glyph glyph-name="greaterequal" unicode="&#x2265;" 
d="M533 316l-451 -218l-22 48l400 189l-400 191l23 48l450 -218v-40zM533 0h-473v53h473v-53z" />
    <glyph glyph-name="yen" unicode="&#xa5;" 
d="M535 667l-188 -322h126v-49h-146v-55h146v-49h-146v-192h-63v192h-145v49h145v55h-145v49h123l-184 322h71l167 -311l173 311h66z" />
    <glyph glyph-name="mu" unicode="&#x3bc;" horiz-adv-x="510" 
d="M440 0h-55v38c-9 -6 -73 -48 -156 -48c-62 0 -90 23 -99 29v-141h-60v602h60v-286c0 -51 0 -94 28 -122c19 -19 45 -29 75 -29c71 0 139 43 147 47v390h60v-480z" />
    <glyph glyph-name="partialdiff" unicode="&#x2202;" horiz-adv-x="611" 
d="M517 356c0 -230 -84 -369 -223 -369c-121 0 -200 102 -200 257c0 151 78 248 206 248c78 0 139 -46 147 -52c-14 147 -88 235 -193 235c-58 0 -113 -31 -119 -34l-26 46c6 4 72 45 149 45c155 0 259 -144 259 -376zM452 346v25c-5 5 -65 65 -155 65
c-85 0 -140 -76 -140 -195s54 -197 137 -197c99 0 158 112 158 302z" />
    <glyph glyph-name="summation" unicode="&#x2211;" horiz-adv-x="551" 
d="M457 0h-363v38l182 303l-182 283v43h363v-53h-284l170 -271l-177 -290h291v-53z" />
    <glyph glyph-name="product" unicode="&#x220f;" horiz-adv-x="807" 
d="M713 614h-76v-614h-66v614h-335v-614h-66v614h-76v53h619v-53z" />
    <glyph glyph-name="pi" unicode="&#x3c0;" horiz-adv-x="669" 
d="M575 4c-7 -2 -20 -7 -48 -7c-24 0 -50 9 -69 28c-22 22 -26 62 -26 118v284h-206v-427h-60v427h-72v53h474v-53h-76v-273c0 -47 2 -77 14 -89c11 -11 24 -15 36 -15c9 0 25 1 33 2v-48z" />
    <glyph glyph-name="integral" unicode="&#x222b;" horiz-adv-x="628" 
d="M534 706l-21 -48c-10 4 -39 18 -74 18c-21 0 -47 -4 -65 -22c-27 -27 -30 -65 -30 -100v-612c0 -45 -7 -93 -46 -132c-22 -22 -60 -37 -102 -37c-55 0 -97 23 -102 26l21 48c10 -4 39 -18 74 -18c21 0 47 4 65 22c27 27 30 65 30 100v612c0 45 7 93 46 132
c22 22 60 37 102 37c55 0 97 -23 102 -26z" />
    <glyph glyph-name="ordfeminine" unicode="&#xaa;" horiz-adv-x="410" 
d="M332 312h-47v24c-32 -20 -70 -32 -108 -32c-68 0 -115 45 -115 110c0 114 146 118 205 118h16v10c0 33 -1 58 -17 74c-10 10 -30 19 -65 19s-68 -11 -97 -29l-21 34c5 5 51 39 124 39c45 0 76 -13 97 -34c24 -24 28 -51 28 -105v-228zM283 375v116h-17
c-90 0 -153 -20 -153 -77c0 -34 21 -66 74 -66c33 0 67 12 96 27z" />
    <glyph glyph-name="ordmasculine" unicode="&#xba;" horiz-adv-x="409" 
d="M367 488c0 -112 -63 -185 -164 -185c-97 0 -161 74 -161 188c0 113 62 188 165 188c97 0 160 -73 160 -191zM317 490c0 88 -50 146 -113 146c-68 0 -112 -57 -112 -144c0 -88 49 -145 113 -145c70 0 112 56 112 143z" />
    <glyph glyph-name="Omega" unicode="&#x3a9;" horiz-adv-x="820" 
d="M726 0h-244v53c119 48 160 164 160 287c0 171 -94 288 -232 288s-233 -117 -233 -288c0 -124 42 -239 161 -287v-53h-244v55h155c-92 56 -139 164 -139 291c0 195 124 333 300 333c175 0 299 -138 299 -333c0 -121 -42 -233 -138 -291h155v-55z" />
    <glyph glyph-name="ae" unicode="&#xe6;" horiz-adv-x="788" 
d="M745 260c0 -5 -2 -22 -2 -32h-344c0 -106 57 -182 165 -182c79 0 133 36 139 39l27 -46c-2 -3 -73 -49 -171 -49s-148 51 -160 64c-35 -27 -93 -63 -192 -63c-101 0 -168 54 -168 138c0 150 206 153 270 153h32v29c0 45 -2 78 -24 101c-15 15 -42 28 -91 28
c-74 0 -126 -34 -133 -38l-25 42c4 4 66 49 165 49c61 0 102 -18 130 -46c14 -14 19 -23 25 -37c33 48 92 82 168 82c111 0 189 -84 189 -232zM684 279c0 71 -33 162 -127 162c-83 0 -150 -62 -156 -162h283zM369 94c-12 23 -28 60 -28 125v12h-34c-88 0 -206 -10 -206 -102
c0 -51 47 -83 109 -83c71 0 129 25 159 48z" />
    <glyph glyph-name="oslash" unicode="&#xf8;" horiz-adv-x="523" 
d="M480 236c0 -150 -85 -248 -220 -248c-55 0 -86 17 -94 21l-36 -61l-45 26l37 63c-46 40 -79 108 -79 203c0 152 85 252 222 252c58 0 102 -23 106 -28l38 63l44 -27l-40 -68c6 -6 67 -63 67 -196zM418 238c0 68 -22 115 -38 136l-185 -316c7 -4 32 -17 67 -17
c99 0 156 77 156 197zM342 413c-15 13 -47 27 -81 27c-96 0 -156 -79 -156 -198c0 -76 27 -124 49 -151z" />
    <glyph glyph-name="questiondown" unicode="&#xbf;" horiz-adv-x="493" 
d="M337 447c0 -25 -20 -45 -45 -45s-45 20 -45 45s20 45 45 45s45 -20 45 -45zM438 -137c-4 -5 -80 -59 -181 -59c-112 0 -185 73 -185 184c0 73 33 110 58 135c32 32 87 55 113 81c25 25 22 47 22 118h54c1 -19 2 -40 2 -56c0 -46 0 -64 -23 -87c-33 -33 -75 -52 -112 -89
c-33 -33 -45 -60 -45 -102c0 -75 53 -127 131 -127c68 0 132 42 138 46z" />
    <glyph glyph-name="exclamdown" unicode="&#xa1;" horiz-adv-x="290" 
d="M190 447c0 -25 -20 -45 -45 -45s-45 20 -45 45s20 45 45 45s45 -20 45 -45zM185 -183h-77l10 505h54z" />
    <glyph glyph-name="logicalnot" unicode="&#xac;" 
d="M534 144h-58v136h-417v53h475v-189z" />
    <glyph glyph-name="radical" unicode="&#x221a;" horiz-adv-x="802" 
d="M708 712l-267 -712h-54l-158 410l-118 -40l-17 50l170 59l152 -396l238 649z" />
    <glyph glyph-name="florin" unicode="&#x192;" 
d="M562 656l-18 -48c-6 3 -39 16 -72 16c-60 0 -87 -32 -107 -128l-32 -150h153l-11 -55h-154l-62 -305c-11 -54 -26 -138 -62 -174c-26 -26 -60 -39 -101 -39c-56 0 -89 19 -96 22l19 48c8 -3 35 -15 72 -15c24 0 44 7 57 20c28 28 38 87 51 151l61 292h-129l11 55h129
l30 143c9 42 20 108 59 147c35 35 76 43 108 43c50 0 88 -20 94 -23z" />
    <glyph glyph-name="approxequal" unicode="&#x2248;" 
d="M517 333c-34 -43 -77 -67 -117 -67c-77 0 -138 57 -203 57c-27 0 -49 -10 -75 -39l-46 31c27 37 65 67 122 67c79 0 134 -57 201 -57c26 0 47 12 73 41zM517 193c-34 -43 -77 -67 -117 -67c-77 0 -138 57 -203 57c-27 0 -49 -10 -75 -39l-46 31c27 37 65 67 122 67
c79 0 134 -57 201 -57c26 0 47 12 73 41z" />
    <glyph glyph-name="Delta" unicode="&#x394;" horiz-adv-x="701" 
d="M607 0h-513l233 667h50zM527 53l-176 515l-179 -515h355z" />
    <glyph glyph-name="guillemotleft" unicode="&#xab;" horiz-adv-x="465" 
d="M401 83l-44 -29l-138 193l138 189l44 -29l-97 -160zM245 83l-44 -29l-138 193l138 189l44 -29l-97 -160z" />
    <glyph glyph-name="guillemotright" unicode="&#xbb;" horiz-adv-x="465" 
d="M402 247l-138 -193l-44 29l97 164l-97 160l44 29zM246 247l-138 -193l-44 29l97 164l-97 160l44 29z" />
    <glyph glyph-name="ellipsis" unicode="&#x2026;" horiz-adv-x="648" 
d="M585 37c0 -25 -20 -45 -45 -45s-45 20 -45 45s20 45 45 45s45 -20 45 -45zM369 37c0 -25 -20 -45 -45 -45s-45 20 -45 45s20 45 45 45s45 -20 45 -45zM153 37c0 -25 -20 -45 -45 -45s-45 20 -45 45s20 45 45 45s45 -20 45 -45z" />
    <glyph glyph-name="Agrave" unicode="&#xc0;" horiz-adv-x="581" 
d="M570 0h-68l-68 191h-291l-68 -191h-64l243 667h72zM415 246l-127 354l-126 -354h253zM411 756l-20 -39l-214 80l27 59z" />
    <glyph glyph-name="Atilde" unicode="&#xc3;" horiz-adv-x="581" 
d="M570 0h-68l-68 191h-291l-68 -191h-64l243 667h72zM415 246l-127 354l-126 -354h253zM442 763c-30 -30 -64 -45 -99 -45c-38 0 -72 22 -110 22c-22 0 -40 -6 -67 -23l-29 39c37 31 64 43 97 43c39 0 73 -23 110 -23c24 0 48 9 69 27z" />
    <glyph glyph-name="Otilde" unicode="&#xd5;" horiz-adv-x="701" 
d="M646 336c0 -204 -121 -348 -299 -348c-167 0 -292 142 -292 340c0 206 123 351 300 351c169 0 291 -141 291 -343zM578 340c0 169 -96 284 -230 284c-137 0 -225 -116 -225 -288s97 -293 228 -293c140 0 227 118 227 297zM500 763c-30 -30 -64 -45 -99 -45
c-38 0 -72 22 -110 22c-22 0 -40 -6 -67 -23l-29 39c37 31 64 43 97 43c39 0 73 -23 110 -23c24 0 48 9 69 27z" />
    <glyph glyph-name="OE" unicode="&#x152;" horiz-adv-x="874" 
d="M822 0h-362c-136 0 -234 9 -309 83c-60 60 -96 148 -96 247c0 106 35 191 96 252c78 78 164 85 286 85h377v-54h-289v-237h271v-53h-271v-268h297v-55zM462 53v561h-29c-94 0 -172 -4 -238 -70c-50 -50 -75 -130 -75 -216c0 -66 14 -144 79 -209c59 -59 126 -66 259 -66
h4z" />
    <glyph glyph-name="oe" unicode="&#x153;" horiz-adv-x="867" 
d="M824 260c0 -5 -1 -22 -2 -32h-344c0 -106 57 -182 165 -182c78 0 135 36 139 39l27 -46c-2 -3 -73 -49 -171 -49c-117 0 -172 72 -188 106c-5 -10 -55 -108 -189 -108c-131 0 -218 98 -218 252c0 152 85 252 222 252c135 0 181 -104 184 -110c3 6 49 110 186 110
c111 0 189 -84 189 -232zM763 279c0 71 -33 162 -127 162c-83 0 -150 -62 -156 -162h283zM418 238c0 121 -68 202 -157 202c-96 0 -156 -79 -156 -198c0 -121 67 -201 157 -201c99 0 156 77 156 197z" />
    <glyph glyph-name="endash" unicode="&#x2013;" horiz-adv-x="644" 
d="M559 227h-474v53h474v-53z" />
    <glyph glyph-name="emdash" unicode="&#x2014;" horiz-adv-x="994" 
d="M909 227h-824v53h824v-53z" />
    <glyph glyph-name="quotedblleft" unicode="&#x201c;" horiz-adv-x="329" 
d="M294 650c-38 -51 -55 -97 -55 -164h-72c0 88 54 163 86 195zM162 650c-38 -51 -55 -97 -55 -164h-72c0 88 54 163 86 195z" />
    <glyph glyph-name="quotedblright" unicode="&#x201d;" horiz-adv-x="329" 
d="M294 667c0 -88 -54 -163 -86 -195l-41 31c38 51 55 97 55 164h72zM162 667c0 -88 -54 -163 -86 -195l-41 31c38 51 55 97 55 164h72z" />
    <glyph glyph-name="quoteleft" unicode="&#x2018;" horiz-adv-x="197" 
d="M162 650c-38 -51 -55 -97 -55 -164h-72c0 88 54 163 86 195z" />
    <glyph glyph-name="quoteright" unicode="&#x2019;" horiz-adv-x="197" 
d="M162 667c0 -88 -54 -163 -86 -195l-41 31c38 51 55 97 55 164h72z" />
    <glyph glyph-name="divide" unicode="&#xf7;" 
d="M342 464c0 -25 -20 -45 -45 -45s-46 20 -46 45s20 45 45 45c26 0 46 -20 46 -45zM534 227h-475v53h475v-53zM342 45c0 -25 -20 -45 -45 -45s-46 20 -46 45s20 45 45 45c26 0 46 -20 46 -45z" />
    <glyph glyph-name="lozenge" unicode="&#x25ca;" horiz-adv-x="666" 
d="M572 336l-215 -336h-48l-215 336l215 331h46zM506 336l-174 264l-170 -264l172 -276z" />
    <glyph glyph-name="ydieresis" unicode="&#xff;" horiz-adv-x="483" 
d="M458 480l-190 -514c-30 -81 -53 -118 -84 -149c-29 -29 -74 -44 -118 -44c-48 0 -80 15 -86 17l16 49c7 -2 30 -12 68 -12c31 0 59 9 78 28c30 30 46 68 72 133l-198 492h66l165 -415l149 415h62zM366 615c0 -25 -20 -45 -45 -45s-45 20 -45 45s20 45 45 45
s45 -20 45 -45zM214 615c0 -25 -20 -45 -45 -45s-45 20 -45 45s20 45 45 45s45 -20 45 -45z" />
    <glyph glyph-name="Ydieresis" unicode="&#x178;" horiz-adv-x="541" 
d="M515 667l-213 -404v-263h-63v263l-213 404h70l178 -342l176 342h65zM395 770c0 -25 -20 -45 -45 -45s-45 20 -45 45s20 45 45 45s45 -20 45 -45zM243 770c0 -25 -20 -45 -45 -45s-45 20 -45 45s20 45 45 45s45 -20 45 -45z" />
    <glyph glyph-name="fraction" unicode="&#x2044;" horiz-adv-x="-31" 
d="M244 670l-476 -706l-43 29l476 708z" />
    <glyph glyph-name="Euro" unicode="&#x20ac;" 
d="M526 53c-5 -4 -74 -65 -178 -65c-212 0 -249 214 -249 264h-67v49h64c-1 19 -1 28 -1 37c0 10 0 10 1 28h-64v49h67c0 35 37 265 251 265c91 0 154 -51 158 -55l-30 -43c-7 5 -61 44 -126 44c-170 0 -188 -188 -188 -211h261v-49h-265c-1 -13 -1 -24 -1 -36
c0 -18 0 -12 1 -29h265v-49h-261c0 -24 19 -208 183 -208c80 0 140 47 148 52z" />
    <glyph glyph-name="guilsinglleft" unicode="&#x2039;" horiz-adv-x="309" 
d="M245 83l-44 -29l-138 193l138 189l44 -29l-97 -160z" />
    <glyph glyph-name="guilsinglright" unicode="&#x203a;" horiz-adv-x="309" 
d="M246 247l-138 -193l-44 29l97 164l-97 160l44 29z" />
    <glyph glyph-name="daggerdbl" unicode="&#x2021;" horiz-adv-x="553" 
d="M483 166h-177l-4 -288h-50l-4 288h-178v56h177l-2 141h-175v57h174l-3 247h71l-3 -247h174v-57h-175l-1 -141h176v-56z" />
    <glyph glyph-name="periodcentered" unicode="&#xb7;" horiz-adv-x="216" 
d="M153 254c0 -25 -20 -45 -45 -45s-45 20 -45 45s20 45 45 45s45 -20 45 -45z" />
    <glyph glyph-name="quotesinglbase" unicode="&#x201a;" horiz-adv-x="197" 
d="M162 76c0 -88 -54 -163 -86 -195l-41 31c38 51 55 97 55 164h72z" />
    <glyph glyph-name="quotedblbase" unicode="&#x201e;" horiz-adv-x="329" 
d="M294 76c0 -88 -54 -163 -86 -195l-41 31c38 51 55 97 55 164h72zM162 76c0 -88 -54 -163 -86 -195l-41 31c38 51 55 97 55 164h72z" />
    <glyph glyph-name="perthousand" unicode="&#x2030;" horiz-adv-x="1071" 
d="M686 173c0 -112 -55 -179 -147 -179c-88 0 -144 64 -144 168c0 116 55 184 148 184c87 0 143 -67 143 -173zM336 500c0 -112 -55 -179 -147 -179c-88 0 -144 64 -144 168c0 116 55 184 148 184c87 0 143 -67 143 -173zM630 173c0 80 -33 128 -87 128
c-58 0 -92 -50 -92 -137c0 -79 32 -125 88 -125c58 0 91 49 91 134zM280 500c0 80 -33 128 -87 128c-58 0 -92 -50 -92 -137c0 -79 32 -125 88 -125c58 0 91 49 91 134zM624 670l-476 -706l-43 29l476 708zM1026 173c0 -112 -55 -179 -147 -179c-88 0 -144 64 -144 168
c0 116 55 184 148 184c87 0 143 -67 143 -173zM970 173c0 80 -33 128 -87 128c-58 0 -92 -50 -92 -137c0 -79 32 -125 88 -125c58 0 91 49 91 134z" />
    <glyph glyph-name="Acircumflex" unicode="&#xc2;" horiz-adv-x="581" 
d="M570 0h-68l-68 191h-291l-68 -191h-64l243 667h72zM415 246l-127 354l-126 -354h253zM440 756l-26 -39l-126 69l-126 -69l-28 39l154 99z" />
    <glyph glyph-name="Ecircumflex" unicode="&#xca;" horiz-adv-x="498" 
d="M446 0h-360v667h352v-54h-289v-237h271v-53h-271v-267h297v-56zM409 756l-26 -39l-126 69l-126 -69l-28 39l154 99z" />
    <glyph glyph-name="Aacute" unicode="&#xc1;" horiz-adv-x="581" 
d="M570 0h-68l-68 191h-291l-68 -191h-64l243 667h72zM415 246l-127 354l-126 -354h253zM408 797l-214 -80l-20 39l207 100z" />
    <glyph glyph-name="Edieresis" unicode="&#xcb;" horiz-adv-x="498" 
d="M446 0h-360v667h352v-54h-289v-237h271v-53h-271v-267h297v-56zM371 770c0 -25 -20 -45 -45 -45s-45 20 -45 45s20 45 45 45s45 -20 45 -45zM219 770c0 -25 -20 -45 -45 -45s-45 20 -45 45s20 45 45 45s45 -20 45 -45z" />
    <glyph glyph-name="Egrave" unicode="&#xc8;" horiz-adv-x="498" 
d="M446 0h-360v667h352v-54h-289v-237h271v-53h-271v-267h297v-56zM375 756l-20 -39l-214 80l27 59z" />
    <glyph glyph-name="Iacute" unicode="&#xcd;" horiz-adv-x="236" 
d="M150 0h-64v667h64v-667zM234 797l-214 -80l-20 39l207 100z" />
    <glyph glyph-name="Icircumflex" unicode="&#xce;" horiz-adv-x="236" 
d="M150 0h-64v667h64v-667zM270 756l-26 -39l-126 69l-126 -69l-28 39l154 99z" />
    <glyph glyph-name="Idieresis" unicode="&#xcf;" horiz-adv-x="236" 
d="M150 0h-64v667h64v-667zM239 770c0 -25 -20 -45 -45 -45s-45 20 -45 45s20 45 45 45s45 -20 45 -45zM87 770c0 -25 -20 -45 -45 -45s-45 20 -45 45s20 45 45 45s45 -20 45 -45z" />
    <glyph glyph-name="Igrave" unicode="&#xcc;" horiz-adv-x="236" 
d="M150 0h-64v667h64v-667zM244 755l-20 -39l-214 80l27 59z" />
    <glyph glyph-name="Oacute" unicode="&#xd3;" horiz-adv-x="701" 
d="M646 336c0 -204 -121 -348 -299 -348c-167 0 -292 142 -292 340c0 206 123 351 300 351c169 0 291 -141 291 -343zM578 340c0 169 -96 284 -230 284c-137 0 -225 -116 -225 -288s97 -293 228 -293c140 0 227 118 227 297zM456 797l-214 -80l-20 39l207 100z" />
    <glyph glyph-name="Ocircumflex" unicode="&#xd4;" horiz-adv-x="701" 
d="M646 336c0 -204 -121 -348 -299 -348c-167 0 -292 142 -292 340c0 206 123 351 300 351c169 0 291 -141 291 -343zM578 340c0 169 -96 284 -230 284c-137 0 -225 -116 -225 -288s97 -293 228 -293c140 0 227 118 227 297zM496 756l-26 -39l-126 69l-126 -69l-28 39
l154 99z" />
    <glyph glyph-name="Ograve" unicode="&#xd2;" horiz-adv-x="701" 
d="M646 336c0 -204 -121 -348 -299 -348c-167 0 -292 142 -292 340c0 206 123 351 300 351c169 0 291 -141 291 -343zM578 340c0 169 -96 284 -230 284c-137 0 -225 -116 -225 -288s97 -293 228 -293c140 0 227 118 227 297zM465 755l-20 -39l-214 80l27 59z" />
    <glyph glyph-name="Uacute" unicode="&#xda;" horiz-adv-x="617" 
d="M541 346c0 -130 7 -229 -59 -295c-42 -42 -101 -63 -173 -63c-71 0 -133 23 -175 65c-62 62 -58 142 -58 253v361h63v-422c0 -57 -1 -112 42 -155c31 -31 78 -47 131 -47c50 0 94 17 120 43c47 47 46 95 46 228v353h63v-321zM426 797l-214 -80l-20 39l207 100z" />
    <glyph glyph-name="Ucircumflex" unicode="&#xdb;" horiz-adv-x="617" 
d="M541 346c0 -130 7 -229 -59 -295c-42 -42 -101 -63 -173 -63c-71 0 -133 23 -175 65c-62 62 -58 142 -58 253v361h63v-422c0 -57 -1 -112 42 -155c31 -31 78 -47 131 -47c50 0 94 17 120 43c47 47 46 95 46 228v353h63v-321zM455 756l-26 -39l-126 69l-126 -69l-28 39
l154 99z" />
    <glyph glyph-name="Ugrave" unicode="&#xd9;" horiz-adv-x="617" 
d="M541 346c0 -130 7 -229 -59 -295c-42 -42 -101 -63 -173 -63c-71 0 -133 23 -175 65c-62 62 -58 142 -58 253v361h63v-422c0 -57 -1 -112 42 -155c31 -31 78 -47 131 -47c50 0 94 17 120 43c47 47 46 95 46 228v353h63v-321zM417 756l-20 -39l-214 80l27 59z" />
    <glyph glyph-name="dotlessi" unicode="&#x131;" horiz-adv-x="200" 
d="M130 0h-60v480h60v-480z" />
    <glyph glyph-name="circumflex" unicode="&#x2c6;" horiz-adv-x="380" 
d="M343 586l-26 -39l-126 69l-126 -69l-28 39l154 99z" />
    <glyph glyph-name="tilde" unicode="&#x2dc;" horiz-adv-x="380" 
d="M342 618c-30 -30 -64 -45 -99 -45c-38 0 -72 22 -110 22c-22 0 -40 -6 -67 -23l-29 39c37 31 64 43 97 43c39 0 73 -23 110 -23c24 0 48 9 69 27z" />
    <glyph glyph-name="macron" unicode="&#xaf;" horiz-adv-x="380" 
d="M340 588h-300v54h300v-54z" />
    <glyph glyph-name="breve" unicode="&#x2d8;" horiz-adv-x="380" 
d="M323 677c-8 -77 -58 -124 -133 -124s-125 47 -133 124h51c7 -42 34 -63 82 -63s75 21 82 63h51z" />
    <glyph glyph-name="dotaccent" unicode="&#x2d9;" horiz-adv-x="380" 
d="M235 615c0 -25 -20 -45 -45 -45s-45 20 -45 45s20 45 45 45s45 -20 45 -45z" />
    <glyph glyph-name="ring" unicode="&#x2da;" horiz-adv-x="380" 
d="M288 631c0 -54 -44 -98 -98 -98s-98 44 -98 98c0 56 45 98 98 98c55 0 98 -45 98 -98zM247 631c0 33 -26 57 -57 57s-56 -26 -56 -57s25 -56 56 -56c32 0 57 25 57 56z" />
    <glyph glyph-name="cedilla" unicode="&#xb8;" horiz-adv-x="380" 
d="M272 -131c0 -57 -49 -87 -95 -87c-38 0 -61 13 -69 20l16 36c8 -5 25 -12 48 -12c40 0 49 25 49 41c0 24 -17 41 -42 41c-17 0 -32 -8 -40 -14l-26 17l18 89h43l-9 -53c4 3 14 5 25 5c49 0 82 -34 82 -83z" />
    <glyph glyph-name="hungarumlaut" unicode="&#x2dd;" horiz-adv-x="380" 
d="M313 675l-69 -168l-48 17l53 176zM184 675l-68 -168l-49 17l53 176z" />
    <glyph glyph-name="ogonek" unicode="&#x2db;" horiz-adv-x="380" 
d="M136 0h67c-28 -19 -64 -46 -64 -92c0 -39 24 -62 62 -62c34 0 66 17 72 20l17 -35c-2 -2 -42 -29 -98 -29c-62 0 -104 41 -104 106c0 50 34 81 48 92z" />
    <glyph glyph-name="caron" unicode="&#x2c7;" horiz-adv-x="380" 
d="M343 646l-154 -99l-152 99l26 39l126 -69l126 69z" />
    <glyph glyph-name="Asmall" unicode="&#xf761;" horiz-adv-x="491" 
d="M480 0h-67l-56 145h-229l-55 -145h-62l201 517h66zM337 197l-95 251l-95 -251h190z" />
    <glyph glyph-name="Bsmall" unicode="&#xf762;" horiz-adv-x="470" 
d="M421 149c0 -38 -16 -74 -41 -99c-50 -50 -108 -50 -216 -50h-88v517h143c58 0 108 -2 144 -39c28 -28 40 -59 40 -100c0 -90 -71 -107 -97 -112c34 -1 115 -20 115 -117zM341 379c0 25 -9 46 -23 60c-32 32 -91 28 -132 28h-48v-180h60c56 0 97 10 120 33
c15 15 23 35 23 59zM359 147c0 21 -5 41 -24 60c-35 35 -103 30 -148 30h-49v-186h67c63 0 100 3 131 35c16 16 23 42 23 61z" />
    <glyph glyph-name="Csmall" unicode="&#xf763;" horiz-adv-x="492" 
d="M473 43c-10 -11 -74 -53 -174 -53c-140 0 -250 96 -250 263c0 173 118 273 259 273c93 0 145 -33 158 -46l-29 -43c-4 3 -48 33 -122 33c-115 0 -203 -79 -203 -211c0 -131 75 -213 194 -213c84 0 135 38 139 40z" />
    <glyph glyph-name="Dsmall" unicode="&#xf764;" horiz-adv-x="568" 
d="M519 261c0 -121 -66 -181 -78 -193c-63 -63 -144 -68 -233 -68h-132v517h109c112 0 196 -6 256 -66c39 -39 78 -94 78 -190zM455 263c0 64 -22 113 -52 143c-42 42 -82 60 -207 60h-57v-415h68c76 0 142 5 193 56c39 39 55 97 55 156z" />
    <glyph glyph-name="Esmall" unicode="&#xf765;" horiz-adv-x="424" 
d="M374 0h-298v517h292v-52h-231v-169h217v-51h-217v-192h237v-53z" />
    <glyph glyph-name="Fsmall" unicode="&#xf766;" horiz-adv-x="403" 
d="M361 465h-223v-169h208v-51h-208v-245h-62v517h285v-52z" />
    <glyph glyph-name="Gsmall" unicode="&#xf767;" horiz-adv-x="535" 
d="M478 37c-9 -6 -66 -47 -174 -47c-145 0 -255 96 -255 263c0 173 118 273 259 273c93 0 145 -33 158 -46l-29 -43c-4 3 -48 33 -122 33c-115 0 -203 -79 -203 -211c0 -154 98 -214 202 -214c60 0 96 18 104 21v140h-119v51h179v-220z" />
    <glyph glyph-name="Hsmall" unicode="&#xf768;" horiz-adv-x="537" 
d="M461 0h-62v246h-261v-246h-62v517h62v-219h261v219h62v-517z" />
    <glyph glyph-name="Ismall" unicode="&#xf769;" horiz-adv-x="214" 
d="M138 0h-62v517h62v-517z" />
    <glyph glyph-name="Jsmall" unicode="&#xf76a;" horiz-adv-x="303" 
d="M235 162c0 -62 0 -105 -33 -138c-22 -22 -53 -34 -88 -34c-60 0 -99 27 -106 34l24 44c6 -3 35 -24 78 -24c67 0 64 68 64 98v375h61v-355z" />
    <glyph glyph-name="Ksmall" unicode="&#xf76b;" horiz-adv-x="457" 
d="M452 0h-80l-234 243v-243h-62v517h62v-241l230 241h71l-242 -254z" />
    <glyph glyph-name="Lsmall" unicode="&#xf76c;" horiz-adv-x="395" 
d="M367 0h-291v517h62v-464h229v-53z" />
    <glyph glyph-name="Msmall" unicode="&#xf76d;" horiz-adv-x="714" 
d="M656 0h-65l-48 422l-164 -422h-50l-165 422l-47 -422h-59l64 517h67l170 -429l165 429h67z" />
    <glyph glyph-name="Nsmall" unicode="&#xf76e;" horiz-adv-x="536" 
d="M460 0h-67l-261 424l3 -424h-59v517h65l263 -428l-3 428h59v-517z" />
    <glyph glyph-name="Osmall" unicode="&#xf76f;" horiz-adv-x="589" 
d="M540 259c0 -158 -100 -269 -248 -269c-139 0 -243 110 -243 263c0 159 102 272 249 272c141 0 242 -110 242 -266zM474 262c0 126 -77 211 -182 211c-107 0 -177 -85 -177 -214s77 -217 180 -217c110 0 179 86 179 220z" />
    <glyph glyph-name="Psmall" unicode="&#xf770;" horiz-adv-x="457" 
d="M411 366c0 -55 -25 -91 -45 -111c-48 -48 -115 -46 -176 -46h-52v-209h-62v517h128c64 0 121 -2 163 -44c30 -30 44 -70 44 -107zM350 368c0 34 -12 55 -29 72c-28 28 -75 27 -114 27h-69v-208h48c70 0 109 3 134 28c17 17 30 42 30 81z" />
    <glyph glyph-name="Qsmall" unicode="&#xf771;" horiz-adv-x="589" 
d="M540 -102c-22 -6 -53 -8 -79 -8c-88 0 -160 29 -210 103c-101 16 -202 105 -202 260c0 159 102 272 249 272c141 0 242 -110 242 -266c0 -158 -98 -256 -218 -267c22 -24 66 -53 154 -53c31 0 48 3 56 4zM474 262c0 126 -77 211 -182 211c-107 0 -177 -85 -177 -214
s77 -217 180 -217c110 0 179 86 179 220z" />
    <glyph glyph-name="Rsmall" unicode="&#xf772;" horiz-adv-x="467" 
d="M443 0h-65l-63 133c-39 83 -54 92 -139 92h-38v-225h-62v517h116c58 0 123 3 168 -42c35 -35 43 -70 43 -103c0 -37 -14 -66 -37 -89c-17 -17 -38 -32 -82 -38c47 -4 64 -46 80 -79zM341 375c0 32 -11 50 -25 64c-31 31 -77 28 -118 28h-60v-191h38c55 0 106 2 139 35
c17 17 26 39 26 64z" />
    <glyph glyph-name="Ssmall" unicode="&#xf773;" horiz-adv-x="432" 
d="M379 144c0 -88 -61 -154 -175 -154c-99 0 -158 52 -164 58l33 44c7 -5 61 -48 128 -48c85 0 115 47 115 96c0 22 -8 37 -22 51c-51 51 -147 58 -201 112c-13 13 -36 37 -36 88c0 79 67 135 164 135c103 0 148 -53 154 -59l-33 -38c-10 9 -48 45 -117 45
c-65 0 -108 -35 -108 -82c0 -20 7 -34 20 -47c42 -42 146 -52 203 -109c26 -26 39 -56 39 -92z" />
    <glyph glyph-name="Tsmall" unicode="&#xf774;" horiz-adv-x="447" 
d="M418 465h-163v-465h-62v465h-164v52h389v-52z" />
    <glyph glyph-name="Usmall" unicode="&#xf775;" horiz-adv-x="521" 
d="M453 231c0 -82 1 -141 -45 -187c-37 -37 -86 -54 -147 -54c-58 0 -110 18 -145 51c-40 38 -47 85 -48 137v59v280h61v-326c0 -41 -1 -83 32 -114c24 -22 60 -34 102 -34c39 0 74 12 94 31c32 30 34 64 35 105v64v274h61v-286z" />
    <glyph glyph-name="Vsmall" unicode="&#xf776;" horiz-adv-x="497" 
d="M477 517l-194 -517h-73l-190 517h67l162 -456l168 456h60z" />
    <glyph glyph-name="Wsmall" unicode="&#xf777;" horiz-adv-x="747" 
d="M710 517l-136 -517h-80l-119 453l-122 -453h-80l-136 517h66l112 -453l121 453h81l121 -453l112 453h60z" />
    <glyph glyph-name="Xsmall" unicode="&#xf778;" horiz-adv-x="473" 
d="M450 0h-72l-143 220l-143 -220h-69l176 269l-164 248h72l128 -201l128 201h70l-164 -250z" />
    <glyph glyph-name="Ysmall" unicode="&#xf779;" horiz-adv-x="457" 
d="M435 517l-176 -313v-204h-61v204l-176 313h69l141 -256l140 256h63z" />
    <glyph glyph-name="Zsmall" unicode="&#xf77a;" horiz-adv-x="466" 
d="M418 0h-374v43l292 422h-276v52h351v-44l-289 -420h296v-53z" />
    <glyph glyph-name="Aacutesmall" unicode="&#xf7e1;" horiz-adv-x="491" 
d="M480 0h-67l-56 145h-229l-55 -145h-62l201 517h66zM337 197l-95 251l-95 -251h190zM355 646l-214 -80l-20 39l207 100z" />
    <glyph glyph-name="Agravesmall" unicode="&#xf7e0;" horiz-adv-x="491" 
d="M480 0h-67l-56 145h-229l-55 -145h-62l201 517h66zM337 197l-95 251l-95 -251h190zM359 605l-20 -39l-214 80l27 59z" />
    <glyph glyph-name="Acircumflexsmall" unicode="&#xf7e2;" horiz-adv-x="491" 
d="M480 0h-67l-56 145h-229l-55 -145h-62l201 517h66zM337 197l-95 251l-95 -251h190zM394 606l-26 -39l-126 69l-126 -69l-28 39l154 99z" />
    <glyph glyph-name="Atildesmall" unicode="&#xf7e3;" horiz-adv-x="491" 
d="M480 0h-67l-56 145h-229l-55 -145h-62l201 517h66zM337 197l-95 251l-95 -251h190zM398 638c-30 -30 -64 -45 -99 -45c-38 0 -72 22 -110 22c-22 0 -40 -6 -67 -23l-29 39c37 31 64 43 97 43c39 0 73 -23 110 -23c24 0 48 9 69 27z" />
    <glyph glyph-name="Adieresissmall" unicode="&#xf7e4;" horiz-adv-x="491" 
d="M480 0h-67l-56 145h-229l-55 -145h-62l201 517h66zM337 197l-95 251l-95 -251h190zM363 635c0 -25 -20 -45 -45 -45s-45 20 -45 45s20 45 45 45s45 -20 45 -45zM211 635c0 -25 -20 -45 -45 -45s-45 20 -45 45s20 45 45 45s45 -20 45 -45z" />
    <glyph glyph-name="Aringsmall" unicode="&#xf7e5;" horiz-adv-x="491" 
d="M480 0h-67l-56 145h-229l-55 -145h-62l201 517h66zM337 197l-95 251l-95 -251h190zM340 651c0 -54 -44 -98 -98 -98s-98 44 -98 98c0 56 45 98 98 98c55 0 98 -45 98 -98zM299 651c0 33 -26 57 -57 57s-56 -26 -56 -57s25 -56 56 -56c32 0 57 25 57 56z" />
    <glyph glyph-name="AEsmall" unicode="&#xf7e6;" horiz-adv-x="700" 
d="M650 0h-298v145h-187l-84 -145h-70l314 517h319v-52h-231v-169h217v-51h-217v-192h237v-53zM352 197v266l-157 -266h157z" />
    <glyph glyph-name="Ccedillasmall" unicode="&#xf7e7;" horiz-adv-x="492" 
d="M473 43c-13 -13 -75 -51 -169 -53l-7 -43c4 3 14 5 25 5c49 0 82 -34 82 -83c0 -57 -49 -87 -95 -87c-38 0 -61 13 -69 20l16 36c8 -5 25 -12 48 -12c40 0 49 25 49 41c0 24 -17 41 -42 41c-17 0 -32 -8 -40 -14l-26 17l16 81c-101 12 -212 92 -212 261
c0 173 118 273 259 273c93 0 145 -33 158 -46l-29 -43c-4 3 -48 33 -122 33c-115 0 -203 -79 -203 -211c0 -131 75 -213 194 -213c84 0 135 38 139 40z" />
    <glyph glyph-name="Ethsmall" unicode="&#xf7f0;" horiz-adv-x="601" 
d="M552 261c0 -121 -66 -181 -78 -193c-63 -63 -144 -68 -233 -68h-132v245h-81v51h81v221h109c112 0 196 -6 256 -66c39 -39 78 -94 78 -190zM488 263c0 64 -22 113 -52 143c-42 42 -82 60 -207 60h-57v-170h164v-51h-164v-194h68c76 0 142 5 193 56c39 39 55 97 55 156z
" />
    <glyph glyph-name="Eacutesmall" unicode="&#xf7e9;" horiz-adv-x="424" 
d="M374 0h-298v517h292v-52h-231v-169h217v-51h-217v-192h237v-53zM341 646l-214 -80l-20 39l207 100z" />
    <glyph glyph-name="Egravesmall" unicode="&#xf7e8;" horiz-adv-x="424" 
d="M374 0h-298v517h292v-52h-231v-169h217v-51h-217v-192h237v-53zM343 605l-20 -39l-214 80l27 59z" />
    <glyph glyph-name="Ecircumflexsmall" unicode="&#xf7ea;" horiz-adv-x="424" 
d="M378 0h-298v517h292v-52h-231v-169h217v-51h-217v-192h237v-53zM382 606l-26 -39l-126 69l-126 -69l-28 39l154 99z" />
    <glyph glyph-name="Edieresissmall" unicode="&#xf7eb;" horiz-adv-x="424" 
d="M374 0h-298v517h292v-52h-231v-169h217v-51h-217v-192h237v-53zM344 635c0 -25 -20 -45 -45 -45s-45 20 -45 45s20 45 45 45s45 -20 45 -45zM192 635c0 -25 -20 -45 -45 -45s-45 20 -45 45s20 45 45 45s45 -20 45 -45z" />
    <glyph glyph-name="Iacutesmall" unicode="&#xf7ed;" horiz-adv-x="214" 
d="M138 0h-62v517h62v-517zM224 646l-214 -80l-20 39l207 100z" />
    <glyph glyph-name="Igravesmall" unicode="&#xf7ec;" horiz-adv-x="214" 
d="M138 0h-62v517h62v-517zM224 605l-20 -39l-214 80l27 59z" />
    <glyph glyph-name="Icircumflexsmall" unicode="&#xf7ee;" horiz-adv-x="214" 
d="M138 0h-62v517h62v-517zM259 606l-26 -39l-126 69l-126 -69l-28 39l154 99z" />
    <glyph glyph-name="Idieresissmall" unicode="&#xf7ef;" horiz-adv-x="214" 
d="M138 0h-62v517h62v-517zM228 635c0 -25 -20 -45 -45 -45s-45 20 -45 45s20 45 45 45s45 -20 45 -45zM76 635c0 -25 -20 -45 -45 -45s-45 20 -45 45s20 45 45 45s45 -20 45 -45z" />
    <glyph glyph-name="Lslashsmall" unicode="&#xf6f9;" horiz-adv-x="429" 
d="M401 0h-291v214l-61 -44l-34 39l95 68v240h62v-206l94 67l33 -40l-127 -88v-197h229v-53z" />
    <glyph glyph-name="Ntildesmall" unicode="&#xf7f1;" horiz-adv-x="536" 
d="M460 0h-67l-261 424l3 -424h-59v517h65l263 -428l-3 428h59v-517zM418 638c-30 -30 -64 -45 -99 -45c-38 0 -72 22 -110 22c-22 0 -40 -6 -67 -23l-29 39c37 31 64 43 97 43c39 0 73 -23 110 -23c24 0 48 9 69 27z" />
    <glyph glyph-name="Oacutesmall" unicode="&#xf7f3;" horiz-adv-x="589" 
d="M540 259c0 -158 -100 -269 -248 -269c-139 0 -243 110 -243 263c0 159 102 272 249 272c141 0 242 -110 242 -266zM474 262c0 126 -77 211 -182 211c-107 0 -177 -85 -177 -214s77 -217 180 -217c110 0 179 86 179 220zM406 646l-214 -80l-20 39l207 100z" />
    <glyph glyph-name="Ogravesmall" unicode="&#xf7f2;" horiz-adv-x="589" 
d="M540 259c0 -158 -100 -269 -248 -269c-139 0 -243 110 -243 263c0 159 102 272 249 272c141 0 242 -110 242 -266zM474 262c0 126 -77 211 -182 211c-107 0 -177 -85 -177 -214s77 -217 180 -217c110 0 179 86 179 220zM418 605l-20 -39l-214 80l27 59z" />
    <glyph glyph-name="Ocircumflexsmall" unicode="&#xf7f4;" horiz-adv-x="589" 
d="M540 259c0 -158 -100 -269 -248 -269c-139 0 -243 110 -243 263c0 159 102 272 249 272c141 0 242 -110 242 -266zM474 262c0 126 -77 211 -182 211c-107 0 -177 -85 -177 -214s77 -217 180 -217c110 0 179 86 179 220zM446 606l-26 -39l-126 69l-126 -69l-28 39l154 99z
" />
    <glyph glyph-name="Otildesmall" unicode="&#xf7f5;" horiz-adv-x="589" 
d="M540 259c0 -158 -100 -269 -248 -269c-139 0 -243 110 -243 263c0 159 102 272 249 272c141 0 242 -110 242 -266zM474 262c0 126 -77 211 -182 211c-107 0 -177 -85 -177 -214s77 -217 180 -217c110 0 179 86 179 220zM451 638c-30 -30 -64 -45 -99 -45
c-38 0 -72 22 -110 22c-22 0 -40 -6 -67 -23l-29 39c37 31 64 43 97 43c39 0 73 -23 110 -23c24 0 48 9 69 27z" />
    <glyph glyph-name="Odieresissmall" unicode="&#xf7f6;" horiz-adv-x="589" 
d="M540 259c0 -158 -100 -269 -248 -269c-139 0 -243 110 -243 263c0 159 102 272 249 272c141 0 242 -110 242 -266zM474 262c0 126 -77 211 -182 211c-107 0 -177 -85 -177 -214s77 -217 180 -217c110 0 179 86 179 220zM418 635c0 -25 -20 -45 -45 -45s-45 20 -45 45
s20 45 45 45s45 -20 45 -45zM266 635c0 -25 -20 -45 -45 -45s-45 20 -45 45s20 45 45 45s45 -20 45 -45z" />
    <glyph glyph-name="Oslashsmall" unicode="&#xf7f8;" horiz-adv-x="589" 
d="M540 259c0 -158 -100 -269 -248 -269c-65 0 -102 22 -108 25l-43 -70l-46 26l44 74c-5 4 -90 70 -90 208c0 159 102 272 249 272c68 0 110 -25 115 -28l45 73l46 -26l-48 -79c11 -10 84 -74 84 -206zM473 262c0 93 -43 142 -50 150l-211 -348c6 -4 34 -22 82 -22
c110 0 179 86 179 220zM383 447c-5 4 -41 26 -92 26c-107 0 -177 -85 -177 -214c0 -108 53 -159 57 -162z" />
    <glyph glyph-name="OEsmall" unicode="&#xf6fa;" horiz-adv-x="735" 
d="M685 0h-302c-112 0 -196 6 -256 66c-39 39 -78 94 -78 190c0 121 66 181 78 193c63 63 144 68 233 68h319v-52h-236v-169h222v-51h-222v-192h242v-53zM381 51v415h-20c-76 0 -142 -5 -193 -56c-39 -39 -55 -97 -55 -156c0 -64 22 -113 52 -143c42 -42 82 -60 207 -60h9z
" />
    <glyph glyph-name="Thornsmall" unicode="&#xf7fe;" horiz-adv-x="457" 
d="M411 267c0 -55 -25 -91 -45 -111c-48 -48 -115 -46 -176 -46h-52v-110h-62v517h62v-99h66c64 0 121 -2 163 -44c30 -30 44 -70 44 -107zM350 269c0 34 -12 55 -29 72c-28 28 -75 27 -114 27h-69v-208h48c70 0 109 3 134 28c17 17 30 42 30 81z" />
    <glyph glyph-name="Scaronsmall" unicode="&#xf6fd;" horiz-adv-x="432" 
d="M379 144c0 -88 -61 -154 -175 -154c-99 0 -158 52 -164 58l33 44c7 -5 61 -48 128 -48c85 0 115 47 115 96c0 22 -8 37 -22 51c-51 51 -147 58 -201 112c-13 13 -36 37 -36 88c0 79 67 135 164 135c103 0 148 -53 154 -59l-33 -38c-10 9 -48 45 -117 45
c-65 0 -108 -35 -108 -82c0 -20 7 -34 20 -47c42 -42 146 -52 203 -109c26 -26 39 -56 39 -92zM383 666l-154 -99l-152 99l26 39l126 -69l126 69z" />
    <glyph glyph-name="germandblssmall" horiz-adv-x="802" 
d="M749 144c0 -88 -61 -154 -175 -154c-99 0 -158 52 -164 58l33 44c7 -5 61 -48 128 -48c85 0 115 47 115 96c0 22 -8 37 -22 51c-51 51 -147 58 -201 112c-13 13 -36 37 -36 88c0 79 67 135 164 135c103 0 148 -53 154 -59l-33 -38c-10 9 -48 45 -117 45
c-65 0 -108 -35 -108 -82c0 -20 7 -34 20 -47c42 -42 146 -52 203 -109c26 -26 39 -56 39 -92zM379 144c0 -88 -61 -154 -175 -154c-99 0 -158 52 -164 58l33 44c7 -5 61 -48 128 -48c85 0 115 47 115 96c0 22 -8 37 -22 51c-51 51 -147 58 -201 112c-13 13 -36 37 -36 88
c0 79 67 135 164 135c103 0 148 -53 154 -59l-33 -38c-10 9 -48 45 -117 45c-65 0 -108 -35 -108 -82c0 -20 7 -34 20 -47c42 -42 146 -52 203 -109c26 -26 39 -56 39 -92z" />
    <glyph glyph-name="germandbls.small" horiz-adv-x="802" 
d="M749 144c0 -88 -61 -154 -175 -154c-99 0 -158 52 -164 58l33 44c7 -5 61 -48 128 -48c85 0 115 47 115 96c0 22 -8 37 -22 51c-51 51 -147 58 -201 112c-13 13 -36 37 -36 88c0 79 67 135 164 135c103 0 148 -53 154 -59l-33 -38c-10 9 -48 45 -117 45
c-65 0 -108 -35 -108 -82c0 -20 7 -34 20 -47c42 -42 146 -52 203 -109c26 -26 39 -56 39 -92zM379 144c0 -88 -61 -154 -175 -154c-99 0 -158 52 -164 58l33 44c7 -5 61 -48 128 -48c85 0 115 47 115 96c0 22 -8 37 -22 51c-51 51 -147 58 -201 112c-13 13 -36 37 -36 88
c0 79 67 135 164 135c103 0 148 -53 154 -59l-33 -38c-10 9 -48 45 -117 45c-65 0 -108 -35 -108 -82c0 -20 7 -34 20 -47c42 -42 146 -52 203 -109c26 -26 39 -56 39 -92z" />
    <glyph glyph-name="Uacutesmall" unicode="&#xf7fa;" horiz-adv-x="521" 
d="M453 517v-286c0 -82 1 -141 -45 -187c-37 -37 -86 -54 -147 -54c-58 0 -110 18 -145 51c-40 38 -47 85 -48 137v59v280h61v-326c0 -41 -1 -83 32 -114c24 -22 60 -34 102 -34c39 0 74 12 94 31c32 30 34 64 35 105v64v274h61zM382 646l-214 -80l-20 39l207 100z" />
    <glyph glyph-name="Ugravesmall" unicode="&#xf7f9;" horiz-adv-x="521" 
d="M453 231c0 -82 1 -141 -45 -187c-37 -37 -86 -54 -147 -54c-58 0 -110 18 -145 51c-40 38 -47 85 -48 137v59v280h61v-326c0 -41 -1 -83 32 -114c24 -22 60 -34 102 -34c39 0 74 12 94 31c32 30 34 64 35 105v64v274h61v-286zM380 605l-20 -39l-214 80l27 59z" />
    <glyph glyph-name="Ucircumflexsmall" unicode="&#xf7fb;" horiz-adv-x="521" 
d="M453 231c0 -82 1 -141 -45 -187c-37 -37 -86 -54 -147 -54c-58 0 -110 18 -145 51c-40 38 -47 85 -48 137v59v280h61v-326c0 -41 -1 -83 32 -114c24 -22 60 -34 102 -34c39 0 74 12 94 31c32 30 34 64 35 105v64v274h61v-286zM414 606l-26 -39l-126 69l-126 -69l-28 39
l154 99z" />
    <glyph glyph-name="Udieresissmall" unicode="&#xf7fc;" horiz-adv-x="521" 
d="M453 231c0 -82 1 -141 -45 -187c-37 -37 -86 -54 -147 -54c-58 0 -110 18 -145 51c-40 38 -47 85 -48 137v59v280h61v-326c0 -41 -1 -83 32 -114c24 -22 60 -34 102 -34c39 0 74 12 94 31c32 30 34 64 35 105v64v274h61v-286zM383 635c0 -25 -20 -45 -45 -45
s-45 20 -45 45s20 45 45 45s45 -20 45 -45zM231 635c0 -25 -20 -45 -45 -45s-45 20 -45 45s20 45 45 45s45 -20 45 -45z" />
    <glyph glyph-name="Yacutesmall" unicode="&#xf7fd;" horiz-adv-x="457" 
d="M435 517l-176 -313v-204h-61v204l-176 313h69l141 -256l140 256h63zM355 646l-214 -80l-20 39l207 100z" />
    <glyph glyph-name="Ydieresissmall" unicode="&#xf7ff;" horiz-adv-x="457" 
d="M435 517l-176 -313v-204h-61v204l-176 313h69l141 -256l140 256h63zM353 635c0 -25 -20 -45 -45 -45s-45 20 -45 45s20 45 45 45s45 -20 45 -45zM201 635c0 -25 -20 -45 -45 -45s-45 20 -45 45s20 45 45 45s45 -20 45 -45z" />
    <glyph glyph-name="Zcaronsmall" unicode="&#xf6ff;" horiz-adv-x="466" 
d="M418 0h-374v43l292 422h-276v52h351v-44l-289 -420h296v-53zM386 666l-154 -99l-152 99l26 39l126 -69l126 69z" />
    <glyph glyph-name="uni2126" unicode="&#x2126;" horiz-adv-x="820" 
d="M726 0h-244v53c119 48 160 164 160 287c0 171 -94 288 -232 288s-233 -117 -233 -288c0 -124 42 -239 161 -287v-53h-244v55h155c-92 56 -139 164 -139 291c0 195 124 333 300 333c175 0 299 -138 299 -333c0 -121 -42 -233 -138 -291h155v-55z" />
    <glyph glyph-name="Eurooldstyle" horiz-adv-x="600" 
d="M547 53c-5 -4 -74 -65 -178 -65c-211 0 -249 214 -249 264h-67v49h64c-1 19 -1 28 -1 37c0 10 0 10 1 28h-64v49h67c0 35 37 265 251 265c91 0 154 -51 158 -55l-30 -43c-7 5 -60 44 -126 44c-170 0 -188 -188 -188 -211h261v-49h-265c-1 -13 -1 -24 -1 -36
c0 -18 0 -12 1 -29h265v-49h-261c0 -24 19 -208 183 -208c80 0 140 47 148 52z" />
    <glyph glyph-name="dollaroldstyle" horiz-adv-x="524" 
d="M471 185c0 -110 -73 -177 -177 -190v-95h-57v93c-114 7 -178 65 -184 70l34 46c10 -7 72 -54 150 -60v279c-39 16 -87 34 -124 69c-15 15 -42 48 -42 106c0 97 79 156 166 165v76h57v-74c109 -5 163 -63 169 -69l-34 -39c-8 6 -57 52 -135 55v-246c17 -7 86 -30 124 -67
c30 -28 53 -66 53 -119zM237 394v219c-45 -8 -104 -43 -104 -109c0 -28 11 -49 30 -67c21 -20 51 -34 74 -43zM405 180c0 31 -14 58 -35 78c-27 26 -61 39 -76 47v-253c58 11 111 51 111 128z" />
    <glyph glyph-name="centoldstyle" 
d="M500 48c-4 -5 -64 -40 -130 -46v-102h-57v101c-111 9 -204 90 -204 239c0 157 98 248 204 259v82h57v-80c73 -7 119 -42 123 -46l-27 -42c-10 6 -42 28 -96 34v-389c55 6 96 31 104 35zM313 58v387c-75 -12 -142 -83 -142 -196c0 -118 70 -182 142 -191z" />
    <glyph glyph-name="sterlingoldstyle" horiz-adv-x="550" 
d="M503 620l-31 -40c-9 7 -52 45 -130 45c-95 0 -152 -62 -152 -177c0 -50 5 -84 7 -103h195v-54h-190c0 -9 3 -37 3 -60c0 -95 -23 -152 -59 -175h340v-56h-439v51c58 18 95 50 95 157c0 39 -3 70 -4 83h-89v54h85c-5 36 -10 68 -10 103c0 144 83 231 214 231
c102 0 157 -49 165 -59z" />
    <glyph glyph-name="florinoldstyle" horiz-adv-x="566" 
d="M564 656l-18 -48c-6 3 -39 16 -72 16c-60 0 -87 -32 -107 -128l-32 -150h153l-11 -55h-154l-62 -305c-11 -54 -26 -138 -62 -174c-26 -26 -60 -39 -101 -39c-56 0 -89 19 -96 22l19 48c8 -3 35 -15 72 -15c24 0 44 7 57 20c28 28 38 87 51 151l61 292h-129l11 55h129
l30 143c9 42 20 108 59 147c35 35 76 43 108 43c50 0 88 -20 94 -23z" />
    <glyph glyph-name="yenoldstyle" horiz-adv-x="570" 
d="M523 667l-187 -322h125v-49h-146v-55h146v-49h-146v-192h-63v192h-144v49h144v55h-144v49h122l-183 322h71l167 -311l173 311h65z" />
    <glyph glyph-name="zerooldstyle" unicode="&#xf730;" horiz-adv-x="597" 
d="M544 259c0 -158 -100 -269 -248 -269c-139 0 -243 110 -243 263c0 159 102 272 249 272c141 0 242 -110 242 -266zM480 262c0 127 -78 213 -184 213c-108 0 -179 -86 -179 -216s78 -218 182 -218c111 0 181 86 181 221z" />
    <glyph glyph-name="oneoldstyle" unicode="&#xf731;" horiz-adv-x="304" 
d="M221 0h-61v445l-125 -82l-33 45l170 109h49v-517z" />
    <glyph glyph-name="twooldstyle" unicode="&#xf732;" horiz-adv-x="429" 
d="M386 0h-364v48c8 7 104 85 164 145c72 72 113 119 113 181c0 48 -39 98 -111 98c-74 0 -122 -44 -131 -52l-35 36c5 8 64 71 174 71c122 0 168 -82 168 -148c0 -67 -27 -112 -111 -196c-62 -62 -134 -122 -143 -130h276v-53z" />
    <glyph glyph-name="threeoldstyle" unicode="&#xf733;" horiz-adv-x="455" 
d="M393 62c0 -106 -91 -186 -207 -186c-122 0 -177 57 -184 67l33 38c3 -2 52 -51 138 -51c95 0 153 53 153 125c0 36 -16 67 -34 85c-35 35 -79 43 -162 43h-5v52h11c87 0 126 18 152 44c20 20 30 47 30 78c0 61 -45 115 -131 115c-77 0 -133 -49 -139 -55l-34 37
c3 6 71 73 178 73c118 0 190 -75 190 -168c0 -70 -43 -139 -122 -150c82 -8 133 -69 133 -147z" />
    <glyph glyph-name="fouroldstyle" unicode="&#xf734;" horiz-adv-x="485" 
d="M475 10h-84v-132h-61v132h-313v47l306 460h68v-455h84v-52zM330 62v369l-245 -369h245z" />
    <glyph glyph-name="fiveoldstyle" unicode="&#xf735;" horiz-adv-x="498" 
d="M450 82c0 -122 -87 -206 -217 -206c-116 0 -174 58 -178 63l31 40c5 -3 59 -49 140 -49c107 0 158 71 158 148c0 85 -57 151 -160 151c-60 0 -98 -22 -109 -29l-28 18v299h337v-52h-279v-201c4 2 41 19 96 19c133 0 209 -83 209 -201z" />
    <glyph glyph-name="sixoldstyle" unicode="&#xf736;" horiz-adv-x="525" 
d="M472 206c0 -122 -80 -216 -202 -216c-169 0 -217 164 -217 305c0 161 50 345 236 345c111 0 162 -57 167 -62l-32 -40c-37 30 -79 49 -128 49c-148 0 -185 -151 -185 -282c0 -7 1 -19 1 -19c19 79 94 123 173 123c119 0 187 -87 187 -203zM411 203c0 86 -42 154 -132 154
s-148 -75 -148 -163c0 -84 56 -152 141 -152c89 0 139 76 139 161z" />
    <glyph glyph-name="sevenoldstyle" unicode="&#xf737;" horiz-adv-x="430" 
d="M408 466l-255 -588h-67l260 584h-349v55h411v-51z" />
    <glyph glyph-name="eightoldstyle" unicode="&#xf738;" horiz-adv-x="523" 
d="M470 168c0 -109 -83 -178 -208 -178c-120 0 -209 68 -209 178c0 134 119 155 127 157c-11 3 -112 27 -112 147c0 100 81 168 194 168c116 0 193 -65 193 -164c0 -121 -97 -147 -108 -151c18 -5 123 -28 123 -157zM393 472c0 71 -53 118 -130 118
c-78 0 -132 -47 -132 -117c0 -68 51 -124 132 -124c78 0 130 53 130 123zM406 170c0 80 -55 129 -144 129c-88 0 -145 -51 -145 -128c0 -82 60 -131 146 -131c87 0 143 49 143 130z" />
    <glyph glyph-name="nineoldstyle" unicode="&#xf739;" horiz-adv-x="525" 
d="M472 221c0 -161 -50 -345 -236 -345c-111 0 -162 57 -167 62l32 40c37 -30 79 -49 128 -49c148 0 185 151 185 282c0 7 -1 19 -1 19c-19 -79 -94 -123 -173 -123c-119 0 -187 87 -187 203c0 122 80 216 202 216c169 0 217 -164 217 -305zM394 322c0 84 -56 152 -141 152
c-89 0 -139 -76 -139 -161c0 -86 42 -154 132 -154s148 75 148 163z" />
    <glyph glyph-name="ampersandsmall" unicode="&#xf726;" horiz-adv-x="569" 
d="M521 0h-11c-56 0 -88 14 -126 52c-9 -7 -66 -61 -161 -61c-96 0 -168 65 -168 153c0 42 19 81 44 106c21 21 61 40 69 43c-16 16 -59 63 -59 115c0 69 61 118 142 118c77 0 131 -43 131 -108c0 -92 -97 -126 -126 -139l128 -143c17 21 45 77 45 150h58
c0 -88 -37 -164 -62 -193c38 -40 61 -44 96 -44v-49zM320 413c0 31 -17 65 -70 65c-46 0 -79 -30 -79 -69c0 -29 19 -53 51 -91c18 8 98 38 98 95zM345 92l-145 164c-4 -2 -83 -34 -83 -109c0 -57 46 -102 113 -102c64 0 110 43 115 47z" />
    <glyph glyph-name="afii61289" unicode="&#x2113;" horiz-adv-x="500" 
d="M249 269c-29 -150 -33 -173 -33 -208c0 -17 6 -25 18 -25c17 0 34 18 51 54c6 14 11 18 19 18s13 -5 13 -15c0 -15 -10 -37 -26 -60c-25 -32 -48 -47 -76 -47c-42 0 -67 33 -67 88c0 28 1 45 10 127c-30 -28 -43 -38 -49 -38c-7 0 -14 8 -14 16c0 7 5 14 20 27
c8 7 39 39 50 52c55 287 117 420 197 420c38 0 63 -32 63 -81c0 -54 -25 -128 -64 -192c-24 -38 -57 -79 -112 -136zM260 333c81 91 125 181 125 260c0 26 -9 44 -23 44c-15 0 -32 -18 -41 -44c-19 -53 -41 -145 -61 -260z" />
    <glyph glyph-name="estimated" unicode="&#x212e;" horiz-adv-x="798" 
d="M769 311h-599c-3 0 -6 -1 -6 -4v-181c0 -8 4 -15 9 -21c57 -60 137 -98 227 -98c95 0 180 43 238 110h54c-67 -78 -174 -130 -293 -130c-204 0 -370 149 -370 333c0 183 166 332 370 332s370 -149 370 -332v-9zM634 335v181c0 9 -4 16 -10 22c-57 58 -137 94 -224 94
c-89 0 -169 -38 -226 -97c-6 -6 -10 -14 -10 -23v-177c0 -3 3 -5 6 -5h459c3 0 5 2 5 5z" />
    <glyph glyph-name="zerosuperior" unicode="&#x2070;" horiz-adv-x="381" 
d="M336 500c0 -112 -55 -179 -147 -179c-88 0 -144 64 -144 168c0 116 55 184 148 184c87 0 143 -67 143 -173zM280 500c0 80 -33 128 -87 128c-58 0 -92 -50 -92 -137c0 -79 32 -125 88 -125c58 0 91 49 91 134z" />
    <glyph glyph-name="foursuperior" unicode="&#x2074;" horiz-adv-x="381" 
d="M317 404h-47v-78h-51v78h-164v38l168 225h47v-218h47v-45zM219 449v142l-105 -142h105z" />
    <glyph glyph-name="fivesuperior" unicode="&#x2075;" horiz-adv-x="381" 
d="M302 437c0 -71 -52 -116 -122 -116c-64 0 -100 37 -102 39l25 33c7 -6 38 -28 74 -28c46 0 76 26 76 70c0 37 -26 70 -75 70c-28 0 -48 -12 -58 -16l-22 12v166h188v-43h-140v-82c10 3 22 7 40 7c73 0 116 -47 116 -112z" />
    <glyph glyph-name="sixsuperior" unicode="&#x2076;" horiz-adv-x="381" 
d="M311 441c0 -69 -47 -120 -116 -120c-89 0 -125 79 -125 166c0 88 32 186 135 186c58 0 94 -36 97 -40l-24 -31c-6 5 -34 29 -69 29c-64 0 -84 -59 -88 -117c17 24 43 39 82 39c67 0 108 -48 108 -112zM263 439c0 41 -20 73 -63 73c-47 0 -71 -38 -71 -78
c0 -39 28 -71 67 -71c44 0 67 36 67 76z" />
    <glyph glyph-name="sevensuperior" unicode="&#x2077;" horiz-adv-x="381" 
d="M306 634l-137 -308h-52l136 298h-178v43h231v-33z" />
    <glyph glyph-name="eightsuperior" unicode="&#x2078;" horiz-adv-x="381" 
d="M309 420c0 -60 -46 -99 -116 -99c-74 0 -120 38 -120 98c0 38 20 72 50 85c-27 16 -42 44 -42 75c0 56 45 94 109 94c65 0 110 -36 110 -92c0 -33 -15 -63 -42 -78c35 -12 51 -41 51 -83zM253 579c0 33 -26 55 -61 55c-37 0 -63 -22 -63 -55s27 -57 63 -57
c34 0 61 24 61 57zM261 422c0 38 -28 60 -70 60c-43 0 -71 -23 -71 -60c0 -39 27 -61 73 -61c42 0 68 22 68 61z" />
    <glyph glyph-name="ninesuperior" unicode="&#x2079;" horiz-adv-x="381" 
d="M311 507c0 -87 -31 -186 -135 -186c-58 0 -95 36 -98 40l25 31c5 -5 34 -29 69 -29c64 0 81 59 86 117c-15 -25 -47 -39 -80 -39c-67 0 -108 49 -108 113c0 67 47 119 116 119c95 0 125 -89 125 -166zM253 560c0 40 -29 72 -68 72c-44 0 -67 -37 -67 -77s20 -72 63 -72
s72 35 72 77z" />
    <glyph glyph-name="parenleftsuperior" unicode="&#x207d;" horiz-adv-x="195" 
d="M45 494c0 88 27 167 105 223l25 -31c-57 -49 -76 -115 -76 -190s20 -147 79 -194l-26 -31c-75 49 -107 136 -107 223z" />
    <glyph glyph-name="parenrightsuperior" unicode="&#x207e;" horiz-adv-x="195" 
d="M150 494c0 -88 -27 -167 -105 -223l-25 31c57 49 76 115 76 190s-20 147 -79 194l26 31c75 -49 107 -136 107 -223z" />
    <glyph glyph-name="lira" unicode="&#x20a4;" 
d="M85 301h89c-1 13 -4 48 -7 65h-82v49h77c-1 9 -2 18 -2 33c0 144 83 231 214 231c102 0 157 -49 165 -59l-31 -40c-9 7 -52 45 -130 45c-95 0 -152 -62 -152 -177c0 -12 0 -24 1 -33h201v-49h-197c3 -19 6 -51 7 -65h190v-49h-188c1 -8 1 -16 1 -21
c0 -95 -23 -152 -59 -175h340v-56h-439v51c58 18 95 50 95 157c0 9 0 33 -1 44h-92v49z" />
    <glyph glyph-name="afii61352" unicode="&#x2116;" horiz-adv-x="995" 
d="M548 0h-73l-332 573l2 -573h-59v667h70l335 -578l-2 578h59v-667zM953 488c0 -112 -63 -185 -164 -185c-97 0 -161 74 -161 188c0 113 62 188 165 188c97 0 160 -73 160 -191zM903 490c0 88 -50 146 -113 146c-68 0 -112 -57 -112 -144c0 -88 49 -145 113 -145
c70 0 112 56 112 143z" />
    <glyph glyph-name="franc" unicode="&#x20a3;" horiz-adv-x="748" 
d="M429 613h-279v-198h261v-53h-261v-362h-64v667h343v-54zM728 420l-14 -50c-7 1 -20 3 -39 3c-97 0 -139 -73 -146 -84v-289h-60v415h57v-63c5 6 54 76 152 76c36 0 47 -7 50 -8z" />
    <glyph glyph-name="peseta" unicode="&#x20a7;" horiz-adv-x="1262" 
d="M489 475c0 -70 -29 -117 -53 -141c-62 -62 -134 -58 -228 -58h-59v-276h-63v667h152c80 0 148 -3 197 -52c36 -36 54 -87 54 -140zM425 476c0 40 -14 79 -41 106c-34 34 -94 33 -152 33h-83v-287h55c78 0 139 -2 179 38c25 25 42 57 42 110zM832 12
c-8 -4 -41 -23 -95 -23c-44 0 -76 11 -99 34c-28 28 -28 66 -28 124v284h-84v49h84v136h60v-136h154v-49h-154v-272c0 -66 -5 -116 75 -116c37 0 66 14 71 15zM1212 131c0 -90 -67 -143 -173 -143c-91 0 -157 43 -161 47l26 46c3 -2 63 -40 131 -40c72 0 115 32 115 84
c0 65 -70 84 -120 103c-71 28 -133 51 -133 138c0 77 70 126 160 126c85 0 141 -39 145 -43l-24 -43c-7 4 -56 34 -116 34c-56 0 -103 -28 -103 -72c0 -56 49 -69 103 -91c65 -26 150 -53 150 -146z" />
    <glyph glyph-name="figuredash" unicode="&#x2012;" 
d="M534 227h-475v53h475v-53z" />
    <glyph glyph-name="zeroinferior" unicode="&#x2080;" horiz-adv-x="381" 
d="M336 173c0 -112 -55 -179 -147 -179c-88 0 -144 64 -144 168c0 116 55 184 148 184c87 0 143 -67 143 -173zM280 173c0 80 -33 128 -87 128c-58 0 -92 -50 -92 -137c0 -79 32 -125 88 -125c58 0 91 49 91 134z" />
    <glyph glyph-name="oneinferior" unicode="&#x2081;" horiz-adv-x="381" 
d="M235 0h-52v277l-78 -50l-27 40l117 74h40v-341z" />
    <glyph glyph-name="twoinferior" unicode="&#x2082;" horiz-adv-x="381" 
d="M291 0h-207v39c36 34 155 137 155 203c0 37 -19 60 -57 60c-34 0 -64 -27 -73 -35l-27 31c11 15 51 49 105 49c64 0 105 -41 105 -102c0 -60 -51 -117 -140 -200h139v-45z" />
    <glyph glyph-name="threeinferior" unicode="&#x2083;" horiz-adv-x="381" 
d="M295 98c0 -66 -51 -104 -113 -104c-64 0 -94 31 -104 44l27 30c6 -5 33 -30 72 -30c44 0 69 22 69 56c0 16 -7 29 -14 37c-14 15 -33 21 -76 21h-14v44h17c37 0 82 6 82 54c0 28 -20 52 -57 52c-41 0 -66 -25 -71 -30l-28 28c8 10 44 46 101 46c62 0 104 -38 104 -95
c0 -30 -23 -66 -60 -75c39 -9 65 -40 65 -78z" />
    <glyph glyph-name="fourinferior" unicode="&#x2084;" horiz-adv-x="381" 
d="M317 78h-47v-78h-51v78h-164v38l168 225h47v-218h47v-45zM219 123v142l-105 -142h105z" />
    <glyph glyph-name="fiveinferior" unicode="&#x2085;" horiz-adv-x="381" 
d="M302 111c0 -71 -52 -116 -122 -116c-64 0 -100 37 -102 39l25 33c7 -6 38 -28 74 -28c46 0 76 26 76 70c0 37 -26 70 -75 70c-28 0 -48 -12 -58 -16l-22 12v166h188v-43h-140v-82c10 3 22 7 40 7c73 0 116 -47 116 -112z" />
    <glyph glyph-name="sixinferior" unicode="&#x2086;" horiz-adv-x="381" 
d="M311 114c0 -69 -47 -120 -116 -120c-89 0 -125 79 -125 166c0 88 32 186 135 186c58 0 94 -36 97 -40l-24 -31c-6 5 -34 29 -69 29c-64 0 -84 -59 -88 -117c17 24 43 39 82 39c67 0 108 -48 108 -112zM263 112c0 41 -20 73 -63 73c-47 0 -71 -38 -71 -78
c0 -39 28 -71 67 -71c44 0 67 36 67 76z" />
    <glyph glyph-name="seveninferior" unicode="&#x2087;" horiz-adv-x="381" 
d="M306 308l-137 -308h-52l136 298h-178v43h231v-33z" />
    <glyph glyph-name="eightinferior" unicode="&#x2088;" horiz-adv-x="381" 
d="M309 93c0 -60 -46 -99 -116 -99c-74 0 -120 38 -120 98c0 38 20 72 50 85c-27 16 -42 44 -42 75c0 56 45 94 109 94c65 0 110 -36 110 -92c0 -33 -15 -63 -42 -78c35 -12 51 -41 51 -83zM253 252c0 33 -26 55 -61 55c-37 0 -63 -22 -63 -55s27 -57 63 -57
c34 0 61 24 61 57zM261 95c0 38 -28 60 -70 60c-43 0 -71 -23 -71 -60c0 -39 27 -61 73 -61c42 0 68 22 68 61z" />
    <glyph glyph-name="nineinferior" unicode="&#x2089;" horiz-adv-x="381" 
d="M311 180c0 -87 -31 -186 -135 -186c-58 0 -95 36 -98 40l25 31c5 -5 34 -29 69 -29c64 0 81 59 86 117c-15 -25 -47 -39 -80 -39c-67 0 -108 49 -108 113c0 67 47 119 116 119c95 0 125 -89 125 -166zM253 233c0 40 -29 72 -68 72c-44 0 -67 -37 -67 -77s20 -72 63 -72
s72 35 72 77z" />
    <glyph glyph-name="parenleftinferior" unicode="&#x208d;" horiz-adv-x="195" 
d="M45 166c0 88 27 167 105 223l25 -31c-57 -49 -76 -115 -76 -190s20 -147 79 -194l-26 -31c-75 49 -107 136 -107 223z" />
    <glyph glyph-name="parenrightinferior" unicode="&#x208e;" horiz-adv-x="195" 
d="M150 166c0 -88 -27 -167 -105 -223l-25 31c57 49 76 115 76 190s-20 147 -79 194l26 31c75 -49 107 -136 107 -223z" />
    <glyph glyph-name="onethird" unicode="&#x2153;" horiz-adv-x="731" 
d="M624 670l-476 -706l-43 29l476 708zM235 326h-52v277l-78 -50l-27 40l117 74h40v-341zM645 98c0 -66 -51 -104 -113 -104c-64 0 -94 31 -104 44l27 30c6 -5 33 -30 72 -30c44 0 69 22 69 56c0 16 -7 29 -14 37c-14 15 -33 21 -76 21h-14v44h17c37 0 82 6 82 54
c0 28 -20 52 -57 52c-41 0 -66 -25 -71 -30l-28 28c8 10 44 46 101 46c62 0 104 -38 104 -95c0 -30 -23 -66 -60 -75c39 -9 65 -40 65 -78z" />
    <glyph glyph-name="Foundry" unicode="&#xf8ff;" horiz-adv-x="908" 
d="M860 388c0 -222 -177 -402 -406 -402c-228 0 -406 181 -406 402c0 224 180 403 406 403c229 0 406 -181 406 -403zM795 388c0 184 -152 341 -341 341c-186 0 -342 -155 -342 -340c0 -179 134 -296 258 -328v252h-85v49h85v87c0 38 4 96 45 137c24 24 61 38 103 38
c58 0 95 -26 101 -31l-24 -42c-6 4 -36 20 -71 20c-28 0 -50 -8 -66 -24c-28 -28 -28 -71 -28 -98v-87h154v-49h-154v-262c6 -1 17 -2 24 -2c187 0 341 155 341 339z" />
    <glyph glyph-name="seveneighths" unicode="&#x215e;" horiz-adv-x="731" 
d="M624 670l-476 -706l-43 29l476 708zM306 634l-137 -308h-52l136 298h-178v43h231v-33zM659 93c0 -60 -46 -99 -116 -99c-74 0 -120 38 -120 98c0 38 20 72 50 85c-27 16 -42 44 -42 75c0 56 45 94 109 94c65 0 110 -36 110 -92c0 -33 -15 -63 -42 -78
c35 -12 51 -41 51 -83zM603 252c0 33 -26 55 -61 55c-37 0 -63 -22 -63 -55s27 -57 63 -57c34 0 61 24 61 57zM611 95c0 38 -28 60 -70 60c-43 0 -71 -23 -71 -60c0 -39 27 -61 73 -61c42 0 68 22 68 61z" />
    <glyph glyph-name="twothirds" unicode="&#x2154;" horiz-adv-x="731" 
d="M624 670l-476 -706l-43 29l476 708zM645 98c0 -66 -51 -104 -113 -104c-64 0 -94 31 -104 44l27 30c6 -5 33 -30 72 -30c44 0 69 22 69 56c0 16 -7 29 -14 37c-14 15 -33 21 -76 21h-14v44h17c37 0 82 6 82 54c0 28 -20 52 -57 52c-41 0 -66 -25 -71 -30l-28 28
c8 10 44 46 101 46c62 0 104 -38 104 -95c0 -30 -23 -66 -60 -75c39 -9 65 -40 65 -78zM291 326h-207v39c36 34 155 137 155 203c0 37 -19 60 -57 60c-34 0 -64 -27 -73 -35l-27 31c11 15 51 49 105 49c64 0 105 -41 105 -102c0 -60 -51 -117 -140 -200h139v-45z" />
    <glyph glyph-name="fiveeighths" unicode="&#x215d;" horiz-adv-x="731" 
d="M624 670l-476 -706l-43 29l476 708zM659 93c0 -60 -46 -99 -116 -99c-74 0 -120 38 -120 98c0 38 20 72 50 85c-27 16 -42 44 -42 75c0 56 45 94 109 94c65 0 110 -36 110 -92c0 -33 -15 -63 -42 -78c35 -12 51 -41 51 -83zM603 252c0 33 -26 55 -61 55
c-37 0 -63 -22 -63 -55s27 -57 63 -57c34 0 61 24 61 57zM611 95c0 38 -28 60 -70 60c-43 0 -71 -23 -71 -60c0 -39 27 -61 73 -61c42 0 68 22 68 61zM302 437c0 -71 -52 -116 -122 -116c-64 0 -100 37 -102 39l25 33c7 -6 38 -28 74 -28c46 0 76 26 76 70
c0 37 -26 70 -75 70c-28 0 -48 -12 -58 -16l-22 12v166h188v-43h-140v-82c10 3 22 7 40 7c73 0 116 -47 116 -112z" />
    <glyph glyph-name="threeeighths" unicode="&#x215c;" horiz-adv-x="731" 
d="M624 670l-476 -706l-43 29l476 708zM659 93c0 -60 -46 -99 -116 -99c-74 0 -120 38 -120 98c0 38 20 72 50 85c-27 16 -42 44 -42 75c0 56 45 94 109 94c65 0 110 -36 110 -92c0 -33 -15 -63 -42 -78c35 -12 51 -41 51 -83zM603 252c0 33 -26 55 -61 55
c-37 0 -63 -22 -63 -55s27 -57 63 -57c34 0 61 24 61 57zM611 95c0 38 -28 60 -70 60c-43 0 -71 -23 -71 -60c0 -39 27 -61 73 -61c42 0 68 22 68 61zM295 425c0 -66 -51 -104 -113 -104c-64 0 -94 31 -104 44l27 30c6 -5 33 -30 72 -30c44 0 69 22 69 56c0 16 -7 29 -14 37
c-14 15 -33 21 -76 21h-14v44h17c37 0 82 6 82 54c0 28 -20 52 -57 52c-41 0 -66 -25 -71 -30l-28 28c8 10 44 46 101 46c62 0 104 -38 104 -95c0 -30 -23 -66 -60 -75c39 -9 65 -40 65 -78z" />
    <glyph glyph-name="oneeighth" unicode="&#x215b;" horiz-adv-x="731" 
d="M624 670l-476 -706l-43 29l476 708zM659 93c0 -60 -46 -99 -116 -99c-74 0 -120 38 -120 98c0 38 20 72 50 85c-27 16 -42 44 -42 75c0 56 45 94 109 94c65 0 110 -36 110 -92c0 -33 -15 -63 -42 -78c35 -12 51 -41 51 -83zM603 252c0 33 -26 55 -61 55
c-37 0 -63 -22 -63 -55s27 -57 63 -57c34 0 61 24 61 57zM611 95c0 38 -28 60 -70 60c-43 0 -71 -23 -71 -60c0 -39 27 -61 73 -61c42 0 68 22 68 61zM235 326h-52v277l-78 -50l-27 40l117 74h40v-341z" />
    <glyph glyph-name="currency" unicode="&#xa4;" 
d="M553 119l-37 -37l-54 53c-42 -37 -99 -57 -166 -57c-65 0 -121 21 -164 59l-55 -55l-37 37l58 58c-29 41 -45 93 -45 154c0 66 17 122 48 165l-61 62l37 37l60 -60c42 37 99 58 165 58c62 0 116 -19 157 -54l57 56l37 -37l-58 -58c31 -43 49 -98 49 -163
s-17 -120 -47 -163zM480 340c0 127 -78 203 -184 203c-108 0 -179 -76 -179 -206s78 -208 182 -208c111 0 181 76 181 211z" />
    <glyph glyph-name="Acute" unicode="&#xf6c9;" horiz-adv-x="380" 
d="M307 797l-214 -80l-20 39l207 100z" />
    <glyph glyph-name="Grave" unicode="&#xf6ce;" horiz-adv-x="380" 
d="M287 717l-214 80l27 59l207 -100z" />
    <glyph glyph-name="Circumflex" unicode="&#xeff7;" horiz-adv-x="380" 
d="M343 756l-26 -39l-126 69l-126 -69l-28 39l154 99z" />
    <glyph glyph-name="Tilde" unicode="&#xeff5;" horiz-adv-x="380" 
d="M342 763c-30 -30 -64 -45 -99 -45c-38 0 -72 22 -110 22c-22 0 -40 -6 -67 -23l-29 39c37 31 64 43 97 43c39 0 73 -23 110 -23c24 0 48 9 69 27z" />
    <glyph glyph-name="Dieresis" unicode="&#xf6cb;" horiz-adv-x="380" 
d="M311 770c0 -25 -20 -45 -45 -45s-45 20 -45 45s20 45 45 45s45 -20 45 -45zM159 770c0 -25 -20 -45 -45 -45s-45 20 -45 45s20 45 45 45s45 -20 45 -45z" />
    <glyph glyph-name="Macron" unicode="&#xf6d0;" horiz-adv-x="380" 
d="M350 726h-320v54h320v-54z" />
    <glyph glyph-name="Breve" unicode="&#xefee;" horiz-adv-x="380" 
d="M272 843h51c-12 -81 -58 -124 -134 -124c-75 0 -121 43 -132 124h51c8 -44 33 -63 82 -63c48 0 72 19 82 63z" />
    <glyph glyph-name="Ring" unicode="&#xfff3;" horiz-adv-x="380" 
d="M288 815c0 -54 -44 -98 -98 -98s-98 44 -98 98c0 56 45 98 98 98c55 0 98 -45 98 -98zM247 815c0 33 -26 57 -57 57s-56 -26 -56 -57s25 -56 56 -56c32 0 57 25 57 56z" />
    <glyph glyph-name="Caron" unicode="&#xf6ca;" horiz-adv-x="380" 
d="M37 816l26 39l126 -69l126 69l28 -39l-154 -99z" />
    <glyph glyph-name="Hungarumlaut" unicode="&#xf6cf;" horiz-adv-x="380" 
d="M313 881l-69 -168l-48 17l53 176zM184 881l-68 -168l-49 17l53 176z" />
    <glyph glyph-name="Dotaccent" unicode="&#xefed;" horiz-adv-x="380" 
d="M235 770c0 -25 -20 -45 -45 -45s-45 20 -45 45s20 45 45 45s45 -20 45 -45z" />
    <glyph glyph-name="Cedilla" unicode="&#xeff2;" horiz-adv-x="380" 
d="M111 -94l19 94h46l-12 -57c4 3 15 5 26 5c50 0 84 -36 84 -86c0 -59 -50 -89 -97 -89c-39 0 -63 13 -71 20l16 37c8 -5 25 -12 49 -12c41 0 51 25 51 42c0 25 -17 43 -43 43c-18 0 -34 -9 -42 -15z" />
    <glyph glyph-name="Ogonek" unicode="&#xeff1;" horiz-adv-x="380" 
d="M136 0h67c-28 -19 -64 -46 -64 -92c0 -39 24 -62 62 -62c34 0 66 17 72 20l17 -35c-2 -2 -42 -29 -98 -29c-62 0 -104 41 -104 106c0 50 34 81 48 92z" />
    <glyph glyph-name=".null" horiz-adv-x="0" 
 />
    <glyph glyph-name="zero.dnom" unicode="&#xf655;" horiz-adv-x="381" 
d="M336 173c0 -112 -55 -179 -147 -179c-88 0 -144 64 -144 168c0 116 55 184 148 184c87 0 143 -67 143 -173zM280 173c0 80 -33 128 -87 128c-58 0 -92 -50 -92 -137c0 -79 32 -125 88 -125c58 0 91 49 91 134z" />
    <glyph glyph-name="one.dnom" unicode="&#xf656;" horiz-adv-x="381" 
d="M235 0h-52v277l-78 -50l-27 40l117 74h40v-341z" />
    <glyph glyph-name="two.dnom" unicode="&#xf657;" horiz-adv-x="381" 
d="M291 0h-207v39c36 34 155 137 155 203c0 37 -19 60 -57 60c-34 0 -64 -27 -73 -35l-27 31c11 15 51 49 105 49c64 0 105 -41 105 -102c0 -60 -51 -117 -140 -200h139v-45z" />
    <glyph glyph-name="three.dnom" unicode="&#xf658;" horiz-adv-x="381" 
d="M295 98c0 -66 -51 -104 -113 -104c-64 0 -94 31 -104 44l27 30c6 -5 33 -30 72 -30c44 0 69 22 69 56c0 16 -7 29 -14 37c-14 15 -33 21 -76 21h-14v44h17c37 0 82 6 82 54c0 28 -20 52 -57 52c-41 0 -66 -25 -71 -30l-28 28c8 10 44 46 101 46c62 0 104 -38 104 -95
c0 -30 -23 -66 -60 -75c39 -9 65 -40 65 -78z" />
    <glyph glyph-name="four.dnom" unicode="&#xf659;" horiz-adv-x="381" 
d="M317 78h-47v-78h-51v78h-164v38l168 225h47v-218h47v-45zM219 123v142l-105 -142h105z" />
    <glyph glyph-name="five.dnom" unicode="&#xf65a;" horiz-adv-x="381" 
d="M302 111c0 -71 -52 -116 -122 -116c-64 0 -100 37 -102 39l25 33c7 -6 38 -28 74 -28c46 0 76 26 76 70c0 37 -26 70 -75 70c-28 0 -48 -12 -58 -16l-22 12v166h188v-43h-140v-82c10 3 22 7 40 7c73 0 116 -47 116 -112z" />
    <glyph glyph-name="six.dnom" unicode="&#xf65b;" horiz-adv-x="381" 
d="M311 114c0 -69 -47 -120 -116 -120c-89 0 -125 79 -125 166c0 88 32 186 135 186c58 0 94 -36 97 -40l-24 -31c-6 5 -34 29 -69 29c-64 0 -84 -59 -88 -117c17 24 43 39 82 39c67 0 108 -48 108 -112zM263 112c0 41 -20 73 -63 73c-47 0 -71 -38 -71 -78
c0 -39 28 -71 67 -71c44 0 67 36 67 76z" />
    <glyph glyph-name="seven.dnom" unicode="&#xf65c;" horiz-adv-x="381" 
d="M306 308l-137 -308h-52l136 298h-178v43h231v-33z" />
    <glyph glyph-name="eight.dnom" unicode="&#xf65d;" horiz-adv-x="381" 
d="M309 93c0 -60 -46 -99 -116 -99c-74 0 -120 38 -120 98c0 38 20 72 50 85c-27 16 -42 44 -42 75c0 56 45 94 109 94c65 0 110 -36 110 -92c0 -33 -15 -63 -42 -78c35 -12 51 -41 51 -83zM253 252c0 33 -26 55 -61 55c-37 0 -63 -22 -63 -55s27 -57 63 -57
c34 0 61 24 61 57zM261 95c0 38 -28 60 -70 60c-43 0 -71 -23 -71 -60c0 -39 27 -61 73 -61c42 0 68 22 68 61z" />
    <glyph glyph-name="nine.dnom" unicode="&#xf65e;" horiz-adv-x="381" 
d="M311 180c0 -87 -31 -186 -135 -186c-58 0 -95 36 -98 40l25 31c5 -5 34 -29 69 -29c64 0 81 59 86 117c-15 -25 -47 -39 -80 -39c-67 0 -108 49 -108 113c0 67 47 119 116 119c95 0 125 -89 125 -166zM253 233c0 40 -29 72 -68 72c-44 0 -67 -37 -67 -77s20 -72 63 -72
s72 35 72 77z" />
    <glyph glyph-name="parenleft.dnom" unicode="&#xf62c;" horiz-adv-x="195" 
d="M45 166c0 88 27 167 105 223l25 -31c-57 -49 -76 -115 -76 -190s20 -147 79 -194l-26 -31c-75 49 -107 136 -107 223z" />
    <glyph glyph-name="parenright.dnom" unicode="&#xf62d;" horiz-adv-x="195" 
d="M150 166c0 -88 -27 -167 -105 -223l-25 31c57 49 76 115 76 190s-20 147 -79 194l26 31c75 -49 107 -136 107 -223z" />
    <glyph glyph-name="Euro.fitted" unicode="&#xe002;" horiz-adv-x="550" 
d="M526 53c-5 -4 -74 -65 -178 -65c-212 0 -249 214 -249 264h-67v49h64c-1 19 -1 28 -1 37c0 10 0 10 1 28h-64v49h67c0 35 37 265 251 265c91 0 154 -51 158 -55l-30 -43c-7 5 -61 44 -126 44c-170 0 -188 -188 -188 -211h261v-49h-265c-1 -13 -1 -24 -1 -36
c0 -18 0 -12 1 -29h265v-49h-261c0 -24 19 -208 183 -208c80 0 140 47 148 52z" />
    <glyph glyph-name="dollar.fitted" horiz-adv-x="528" 
d="M467 185c0 -110 -73 -177 -177 -190v-95h-57v93c-114 7 -178 65 -184 70l34 46c10 -7 72 -54 150 -60v279c-39 16 -87 34 -124 69c-15 15 -42 48 -42 106c0 97 79 156 166 165v76h57v-74c109 -5 163 -63 169 -69l-34 -39c-8 6 -57 52 -135 55v-246c17 -7 86 -30 124 -67
c30 -28 53 -66 53 -119zM233 394v219c-45 -8 -104 -43 -104 -109c0 -28 11 -49 30 -67c21 -20 51 -34 74 -43zM401 180c0 31 -14 58 -35 78c-27 26 -61 39 -76 47v-253c58 11 111 51 111 128z" />
    <glyph glyph-name="cent.fitted" horiz-adv-x="464" 
d="M434 48c-4 -5 -64 -40 -130 -46v-102h-57v101c-111 9 -204 90 -204 239c0 157 98 248 204 259v82h57v-80c73 -7 119 -42 123 -46l-27 -42c-10 6 -42 28 -96 34v-389c55 6 96 31 104 35zM247 58v387c-75 -12 -142 -83 -142 -196c0 -118 70 -182 142 -191z" />
    <glyph glyph-name="sterling.fitted" horiz-adv-x="512" 
d="M488 620l-31 -40c-9 7 -52 45 -130 45c-95 0 -152 -62 -152 -177c0 -50 5 -84 7 -103h195v-54h-190c0 -9 3 -37 3 -60c0 -95 -23 -152 -59 -175h340v-56h-439v51c58 18 95 50 95 157c0 39 -3 70 -4 83h-89v54h85c-5 36 -10 68 -10 103c0 144 83 231 214 231
c102 0 157 -49 165 -59z" />
    <glyph glyph-name="florin.fitted" horiz-adv-x="522" 
d="M522 656l-18 -48c-6 3 -39 16 -72 16c-60 0 -87 -32 -107 -128l-32 -150h153l-11 -55h-154l-62 -305c-11 -54 -26 -138 -62 -174c-26 -26 -60 -39 -101 -39c-56 0 -89 19 -96 22l19 48c8 -3 35 -15 72 -15c24 0 44 7 57 20c28 28 38 87 51 151l61 292h-129l11 55h129
l30 143c9 42 20 108 59 147c35 35 76 43 108 43c50 0 88 -20 94 -23z" />
    <glyph glyph-name="yen.fitted" horiz-adv-x="529" 
d="M503 667l-188 -322h126v-49h-146v-55h146v-49h-146v-192h-63v192h-145v49h145v55h-145v49h123l-184 322h71l167 -311l173 311h66z" />
    <glyph glyph-name="zero.fitted" unicode="&#xf639;" horiz-adv-x="601" 
d="M546 334c0 -216 -88 -346 -246 -346c-159 0 -245 130 -245 349c0 210 88 343 242 343c160 0 249 -131 249 -346zM480 333c0 186 -61 293 -179 293c-122 0 -180 -103 -180 -297c0 -182 62 -287 178 -287c119 0 181 105 181 291z" />
    <glyph glyph-name="one.fitted" unicode="&#xf6dc;" horiz-adv-x="359" 
d="M273 0h-63v592l-164 -111l-34 47l208 139h53v-667z" />
    <glyph glyph-name="two.fitted" unicode="&#xf63a;" horiz-adv-x="487" 
d="M432 0h-405v53c6 6 87 82 136 131c137 137 197 213 197 300c0 89 -52 139 -141 139c-82 0 -151 -57 -155 -61l-35 38c5 7 79 80 198 80c121 0 199 -73 199 -191c0 -114 -91 -209 -184 -302c-50 -50 -132 -131 -132 -131h322v-56z" />
    <glyph glyph-name="three.fitted" unicode="&#xf63b;" horiz-adv-x="500" 
d="M445 184c0 -123 -97 -196 -222 -196c-131 0 -188 61 -196 71l34 41c3 -2 56 -55 151 -55c101 0 168 50 168 135c0 39 -21 71 -37 88c-37 37 -82 47 -176 47h-10v55h17c64 0 120 3 164 47c21 21 32 50 32 83c0 72 -53 123 -142 123c-87 0 -150 -56 -155 -61l-34 40
c3 5 79 78 194 78c125 0 201 -73 201 -178c0 -74 -46 -148 -131 -159c88 -8 142 -76 142 -159z" />
    <glyph glyph-name="four.fitted" unicode="&#xf63c;" horiz-adv-x="551" 
d="M509 162h-91v-162h-62v162h-321v52l319 453h64v-451h91v-54zM356 216v362l-254 -362h254z" />
    <glyph glyph-name="five.fitted" unicode="&#xf63d;" horiz-adv-x="513" 
d="M458 211c0 -137 -96 -223 -229 -223c-123 0 -183 61 -187 66l32 43c5 -4 64 -52 148 -52c105 0 171 61 171 161c0 85 -56 160 -169 160c-66 0 -111 -27 -119 -32l-30 19v314h357v-54h-295v-211c5 2 43 21 101 21c142 0 220 -88 220 -212z" />
    <glyph glyph-name="six.fitted" unicode="&#xf63e;" horiz-adv-x="542" 
d="M506 218c0 -130 -86 -230 -217 -230c-182 0 -234 175 -234 325c0 172 54 367 254 367c114 0 175 -59 179 -65l-33 -42c-10 8 -60 52 -138 52c-161 0 -202 -162 -202 -302c0 -22 1 -16 1 -27c19 88 101 137 189 137c128 0 201 -92 201 -215zM445 215
c0 92 -48 165 -146 165s-162 -81 -162 -175c0 -90 62 -164 155 -164c98 0 153 83 153 174z" />
    <glyph glyph-name="seven.fitted" unicode="&#xf63f;" horiz-adv-x="500" 
d="M468 616l-275 -616h-72l280 610h-374v57h441v-51z" />
    <glyph glyph-name="eight.fitted" unicode="&#xf640;" horiz-adv-x="565" 
d="M510 176c0 -114 -89 -188 -223 -188c-141 0 -232 71 -232 186c0 92 58 167 148 170c-83 16 -129 80 -129 157c0 106 85 179 207 179c125 0 210 -70 210 -175c0 -78 -44 -144 -125 -161c94 -11 144 -74 144 -168zM427 501c0 79 -59 130 -143 130c-86 0 -145 -51 -145 -129
s63 -134 145 -134c81 0 143 55 143 133zM444 179c0 87 -63 140 -161 140c-97 0 -162 -55 -162 -139c0 -90 62 -143 167 -143c96 0 156 53 156 142z" />
    <glyph glyph-name="nine.fitted" unicode="&#xf641;" horiz-adv-x="542" 
d="M487 355c0 -172 -54 -367 -254 -367c-114 0 -175 59 -179 65l33 42c10 -8 60 -52 138 -52c161 0 202 162 202 302c0 22 -1 16 -1 27c-19 -88 -101 -137 -189 -137c-128 0 -201 92 -201 215c0 130 86 230 217 230c182 0 234 -175 234 -325zM405 463c0 90 -62 164 -155 164
c-98 0 -153 -83 -153 -174c0 -92 48 -165 146 -165s162 81 162 175z" />
    <glyph glyph-name="Euro.taboldstyle" unicode="&#xf64e;" 
d="M544 53c-5 -4 -74 -65 -178 -65c-211 0 -249 214 -249 264h-67v49h64c-1 19 -1 28 -1 37c0 10 0 10 1 28h-64v49h67c0 35 37 265 251 265c91 0 154 -51 158 -55l-30 -43c-7 5 -60 44 -126 44c-170 0 -188 -188 -188 -211h261v-49h-265c-1 -13 -1 -24 -1 -36
c0 -18 0 -12 1 -29h265v-49h-261c0 -24 19 -208 183 -208c80 0 140 47 148 52z" />
    <glyph glyph-name="dollar.taboldstyle" unicode="&#xf653;" 
d="M506 185c0 -110 -73 -177 -177 -190v-95h-57v93c-114 7 -178 65 -184 70l34 46c10 -7 72 -54 150 -60v279c-39 16 -87 34 -124 69c-15 15 -42 48 -42 106c0 97 79 156 166 165v76h57v-74c109 -5 163 -63 169 -69l-34 -39c-8 6 -57 52 -135 55v-246c17 -7 86 -30 124 -67
c30 -28 53 -66 53 -119zM272 394v219c-45 -8 -104 -43 -104 -109c0 -28 11 -49 30 -67c21 -20 51 -34 74 -43zM440 180c0 31 -14 58 -35 78c-27 26 -61 39 -76 47v-253c58 11 111 51 111 128z" />
    <glyph glyph-name="cent.taboldstyle" unicode="&#xf654;" 
d="M500 48c-4 -5 -64 -40 -130 -46v-102h-57v101c-111 9 -204 90 -204 239c0 157 98 248 204 259v82h57v-80c73 -7 119 -42 123 -46l-27 -42c-10 6 -42 28 -96 34v-389c55 6 96 31 104 35zM313 58v387c-75 -12 -142 -83 -142 -196c0 -118 70 -182 142 -191z" />
    <glyph glyph-name="sterling.taboldstyle" unicode="&#xf651;" 
d="M525 620l-31 -40c-9 7 -52 45 -130 45c-95 0 -152 -62 -152 -177c0 -50 5 -84 7 -103h195v-54h-190c0 -9 3 -37 3 -60c0 -95 -23 -152 -59 -175h340v-56h-439v51c58 18 95 50 95 157c0 39 -3 70 -4 83h-89v54h85c-5 36 -10 68 -10 103c0 144 83 231 214 231
c102 0 157 -49 165 -59z" />
    <glyph glyph-name="florin.taboldstyle" unicode="&#xf64f;" 
d="M577 656l-18 -48c-6 3 -39 16 -72 16c-60 0 -87 -32 -107 -128l-32 -150h153l-11 -55h-154l-62 -305c-11 -54 -26 -138 -62 -174c-26 -26 -60 -39 -101 -39c-56 0 -89 19 -96 22l19 48c8 -3 35 -15 72 -15c24 0 44 7 57 20c28 28 38 87 51 151l61 292h-129l11 55h129
l30 143c9 42 20 108 59 147c35 35 76 43 108 43c50 0 88 -20 94 -23z" />
    <glyph glyph-name="yen.taboldstyle" unicode="&#xf652;" 
d="M535 667l-187 -322h125v-49h-146v-55h146v-49h-146v-192h-63v192h-144v49h144v55h-144v49h122l-183 322h71l167 -311l173 311h65z" />
    <glyph glyph-name="zero.taboldstyle" unicode="&#xf643;" 
d="M542 259c0 -158 -100 -269 -248 -269c-139 0 -243 110 -243 263c0 159 102 272 249 272c141 0 242 -110 242 -266zM478 262c0 127 -78 213 -184 213c-108 0 -179 -86 -179 -216s78 -218 182 -218c111 0 181 86 181 221z" />
    <glyph glyph-name="one.taboldstyle" unicode="&#xf644;" 
d="M365 0h-61v445l-125 -82l-33 45l170 109h49v-517z" />
    <glyph glyph-name="two.taboldstyle" unicode="&#xf645;" 
d="M468 0h-364v48c8 7 104 85 164 145c72 72 113 119 113 181c0 48 -39 98 -111 98c-74 0 -122 -44 -131 -52l-35 36c5 8 64 71 174 71c122 0 168 -82 168 -148c0 -67 -27 -112 -111 -196c-62 -62 -134 -122 -143 -130h276v-53z" />
    <glyph glyph-name="three.taboldstyle" unicode="&#xf646;" 
d="M462 62c0 -106 -91 -186 -207 -186c-122 0 -177 57 -184 67l33 38c3 -2 52 -51 138 -51c95 0 153 53 153 125c0 36 -16 67 -34 85c-35 35 -79 43 -162 43h-5v52h11c87 0 126 18 152 44c20 20 30 47 30 78c0 61 -45 115 -131 115c-77 0 -133 -49 -139 -55l-34 37
c3 6 71 73 178 73c118 0 190 -75 190 -168c0 -70 -43 -139 -122 -150c82 -8 133 -69 133 -147z" />
    <glyph glyph-name="four.taboldstyle" unicode="&#xf647;" 
d="M524 10h-84v-132h-61v132h-313v47l306 460h68v-455h84v-52zM379 62v369l-245 -369h245z" />
    <glyph glyph-name="five.taboldstyle" unicode="&#xf648;" 
d="M497 82c0 -122 -87 -206 -217 -206c-116 0 -174 58 -178 63l31 40c5 -3 59 -49 140 -49c107 0 158 71 158 148c0 85 -57 151 -160 151c-60 0 -98 -22 -109 -29l-28 18v299h337v-52h-279v-201c4 2 41 19 96 19c133 0 209 -83 209 -201z" />
    <glyph glyph-name="six.taboldstyle" unicode="&#xf649;" 
d="M506 206c0 -122 -80 -216 -202 -216c-169 0 -217 164 -217 305c0 161 50 345 236 345c111 0 162 -57 167 -62l-32 -40c-37 30 -79 49 -128 49c-148 0 -185 -151 -185 -282c0 -7 1 -19 1 -19c19 79 94 123 173 123c119 0 187 -87 187 -203zM445 203c0 86 -42 154 -132 154
s-148 -75 -148 -163c0 -84 56 -152 141 -152c89 0 139 76 139 161z" />
    <glyph glyph-name="seven.taboldstyle" unicode="&#xf64a;" 
d="M489 466l-255 -588h-67l260 584h-349v55h411v-51z" />
    <glyph glyph-name="eight.taboldstyle" unicode="&#xf64b;" 
d="M505 168c0 -109 -83 -178 -208 -178c-120 0 -209 68 -209 178c0 134 119 155 127 157c-11 3 -112 27 -112 147c0 100 81 168 194 168c116 0 193 -65 193 -164c0 -121 -97 -147 -108 -151c18 -5 123 -28 123 -157zM428 472c0 71 -53 118 -130 118
c-78 0 -132 -47 -132 -117c0 -68 51 -124 132 -124c78 0 130 53 130 123zM441 170c0 80 -55 129 -144 129c-88 0 -145 -51 -145 -128c0 -82 60 -131 146 -131c87 0 143 49 143 130z" />
    <glyph glyph-name="nine.taboldstyle" unicode="&#xf64c;" 
d="M506 221c0 -161 -50 -345 -236 -345c-111 0 -162 57 -167 62l32 40c37 -30 79 -49 128 -49c148 0 185 151 185 282c0 7 -1 19 -1 19c-19 -79 -94 -123 -173 -123c-119 0 -187 87 -187 203c0 122 80 216 202 216c169 0 217 -164 217 -305zM428 322c0 84 -56 152 -141 152
c-89 0 -139 -76 -139 -161c0 -86 42 -154 132 -154s148 75 148 163z" />
    <glyph glyph-name="Idotaccent" unicode="&#x130;" horiz-adv-x="236" 
d="M150 0h-64v667h64v-667zM118 816c25 0 45 -20 45 -45s-20 -45 -45 -45s-45 20 -45 45s20 45 45 45z" />
    <glyph glyph-name="commaaccent" horiz-adv-x="197" 
d="M90 -67h72c0 -67 -32 -140 -86 -195l-41 31c40 54 55 98 55 164z" />
    <glyph glyph-name="Commaaccent" horiz-adv-x="197" 
d="M90 -67h72c0 -67 -32 -140 -86 -195l-41 31c40 54 55 98 55 164z" />
    <glyph glyph-name="dotlessismall" horiz-adv-x="214" 
d="M138 0h-62v517h62v-517z" />
    <glyph glyph-name="uni2206" unicode="&#x2206;" horiz-adv-x="701" 
d="M607 0h-513l233 667h50zM527 53l-176 515l-179 -515h355z" />
    <glyph glyph-name="uni00B5" unicode="&#xb5;" horiz-adv-x="510" 
d="M440 0h-55v38c-9 -6 -73 -48 -156 -48c-62 0 -90 23 -99 29v-141h-60v602h60v-286c0 -51 0 -94 28 -122c19 -19 45 -29 75 -29c71 0 139 43 147 47v390h60v-480z" />
    <glyph glyph-name="zero.numr" unicode="&#xf661;" horiz-adv-x="381" 
d="M336 500c0 -112 -55 -179 -147 -179c-88 0 -144 64 -144 168c0 116 55 184 148 184c87 0 143 -67 143 -173zM280 500c0 80 -33 128 -87 128c-58 0 -92 -50 -92 -137c0 -79 32 -125 88 -125c58 0 91 49 91 134z" />
    <glyph glyph-name="one.numr" unicode="&#xf662;" horiz-adv-x="381" 
d="M235 326h-52v277l-78 -50l-27 40l117 74h40v-341z" />
    <glyph glyph-name="two.numr" unicode="&#xf663;" horiz-adv-x="381" 
d="M291 326h-207v39c36 34 155 137 155 203c0 37 -19 60 -57 60c-34 0 -64 -27 -73 -35l-27 31c11 15 51 49 105 49c64 0 105 -41 105 -102c0 -60 -51 -117 -140 -200h139v-45z" />
    <glyph glyph-name="three.numr" unicode="&#xf664;" horiz-adv-x="381" 
d="M295 425c0 -66 -51 -104 -113 -104c-64 0 -94 31 -104 44l27 30c6 -5 33 -30 72 -30c44 0 69 22 69 56c0 16 -7 29 -14 37c-14 15 -33 21 -76 21h-14v44h17c37 0 82 6 82 54c0 28 -20 52 -57 52c-41 0 -66 -25 -71 -30l-28 28c8 10 44 46 101 46c62 0 104 -38 104 -95
c0 -30 -23 -66 -60 -75c39 -9 65 -40 65 -78z" />
    <glyph glyph-name="four.numr" unicode="&#xf665;" horiz-adv-x="381" 
d="M317 404h-47v-78h-51v78h-164v38l168 225h47v-218h47v-45zM219 449v142l-105 -142h105z" />
    <glyph glyph-name="five.numr" unicode="&#xf666;" horiz-adv-x="381" 
d="M302 437c0 -71 -52 -116 -122 -116c-64 0 -100 37 -102 39l25 33c7 -6 38 -28 74 -28c46 0 76 26 76 70c0 37 -26 70 -75 70c-28 0 -48 -12 -58 -16l-22 12v166h188v-43h-140v-82c10 3 22 7 40 7c73 0 116 -47 116 -112z" />
    <glyph glyph-name="six.numr" unicode="&#xf667;" horiz-adv-x="381" 
d="M311 441c0 -69 -47 -120 -116 -120c-89 0 -125 79 -125 166c0 88 32 186 135 186c58 0 94 -36 97 -40l-24 -31c-6 5 -34 29 -69 29c-64 0 -84 -59 -88 -117c17 24 43 39 82 39c67 0 108 -48 108 -112zM263 439c0 41 -20 73 -63 73c-47 0 -71 -38 -71 -78
c0 -39 28 -71 67 -71c44 0 67 36 67 76z" />
    <glyph glyph-name="seven.numr" unicode="&#xf668;" horiz-adv-x="381" 
d="M306 634l-137 -308h-52l136 298h-178v43h231v-33z" />
    <glyph glyph-name="eight.numr" unicode="&#xf669;" horiz-adv-x="381" 
d="M309 420c0 -60 -46 -99 -116 -99c-74 0 -120 38 -120 98c0 38 20 72 50 85c-27 16 -42 44 -42 75c0 56 45 94 109 94c65 0 110 -36 110 -92c0 -33 -15 -63 -42 -78c35 -12 51 -41 51 -83zM253 579c0 33 -26 55 -61 55c-37 0 -63 -22 -63 -55s27 -57 63 -57
c34 0 61 24 61 57zM261 422c0 38 -28 60 -70 60c-43 0 -71 -23 -71 -60c0 -39 27 -61 73 -61c42 0 68 22 68 61z" />
    <glyph glyph-name="nine.numr" unicode="&#xf66a;" horiz-adv-x="381" 
d="M311 507c0 -87 -31 -186 -135 -186c-58 0 -95 36 -98 40l25 31c5 -5 34 -29 69 -29c64 0 81 59 86 117c-15 -25 -47 -39 -80 -39c-67 0 -108 49 -108 113c0 67 47 119 116 119c95 0 125 -89 125 -166zM253 560c0 40 -29 72 -68 72c-44 0 -67 -37 -67 -77s20 -72 63 -72
s72 35 72 77z" />
    <glyph glyph-name="parenleft.numr" unicode="&#xf631;" horiz-adv-x="195" 
d="M45 494c0 88 27 167 105 223l25 -31c-57 -49 -76 -115 -76 -190s20 -147 79 -194l-26 -31c-75 49 -107 136 -107 223z" />
    <glyph glyph-name="parenright.numr" unicode="&#xf632;" horiz-adv-x="195" 
d="M150 494c0 -88 -27 -167 -105 -223l-25 31c57 49 76 115 76 190s-20 147 -79 194l26 31c75 -49 107 -136 107 -223z" />
    <glyph glyph-name="Amacron" unicode="&#x100;" horiz-adv-x="581" 
d="M570 0h-68l-68 191h-291l-68 -191h-64l243 667h72zM415 246l-127 354l-126 -354h253zM451 726h-320v54h320v-54z" />
    <glyph glyph-name="Abreve" unicode="&#x102;" horiz-adv-x="581" 
d="M570 0h-68l-68 191h-291l-68 -191h-64l243 667h72zM415 246l-127 354l-126 -354h253zM373 843h51c-12 -81 -58 -124 -134 -124c-75 0 -121 43 -132 124h51c8 -44 33 -63 82 -63c48 0 72 19 82 63z" />
    <glyph glyph-name="Aogonek" unicode="&#x104;" horiz-adv-x="581" 
d="M326 667l244 -667c-28 -19 -64 -46 -64 -92c0 -39 24 -62 62 -62c34 0 66 17 72 20l17 -35c-2 -2 -42 -29 -98 -29c-62 0 -104 41 -104 106c0 50 34 81 48 92l-69 191h-291l-68 -191h-64l243 667h72zM415 246l-127 354l-126 -354h253z" />
    <glyph glyph-name="Cacute" unicode="&#x106;" horiz-adv-x="606" 
d="M582 52c-7 -8 -87 -64 -213 -64c-175 0 -314 125 -314 340c0 223 147 352 324 352c117 0 184 -44 195 -55l-29 -47c-7 5 -67 43 -161 43c-144 0 -264 -106 -264 -285c0 -176 100 -289 257 -289c101 0 171 49 175 51zM488 797l-214 -80l-20 39l207 100z" />
    <glyph glyph-name="Ccaron" unicode="&#x10c;" horiz-adv-x="606" 
d="M517 816l-154 -99l-152 99l26 39l126 -69l126 69zM582 52c-7 -8 -87 -64 -213 -64c-175 0 -314 125 -314 340c0 223 147 352 324 352c117 0 184 -44 195 -55l-29 -47c-7 5 -67 43 -161 43c-144 0 -264 -106 -264 -285c0 -176 100 -289 257 -289c101 0 171 49 175 51z" />
    <glyph glyph-name="Dcaron" unicode="&#x10e;" horiz-adv-x="674" 
d="M459 816l-154 -99l-152 99l26 39l126 -69l126 69zM619 337c0 -106 -35 -191 -96 -252c-78 -78 -164 -85 -286 -85h-151v667h128c136 0 234 -8 309 -83c60 -60 96 -148 96 -247zM554 339c0 66 -14 144 -79 209c-59 59 -126 66 -259 66h-66v-561h91c94 0 172 4 238 70
c50 50 75 130 75 216z" />
    <glyph glyph-name="Dcroat" unicode="&#x110;" horiz-adv-x="684" 
d="M629 337c0 -106 -35 -191 -96 -252c-78 -78 -164 -85 -286 -85h-151v323h-100v53h100v291h128c136 0 234 -8 309 -83c60 -60 96 -148 96 -247zM564 339c0 66 -14 144 -79 209c-59 59 -126 66 -259 66h-66v-238h202v-53h-202v-270h91c94 0 172 4 238 70
c50 50 75 130 75 216z" />
    <glyph glyph-name="Ecaron" unicode="&#x11a;" horiz-adv-x="498" 
d="M446 0h-360v667h352v-54h-289v-237h271v-53h-271v-267h297v-56zM415 816l-154 -99l-152 99l26 39l126 -69l126 69z" />
    <glyph glyph-name="Emacron" unicode="&#x112;" horiz-adv-x="498" 
d="M446 0h-360v667h352v-54h-289v-237h271v-53h-271v-267h297v-56zM421 726h-320v54h320v-54z" />
    <glyph glyph-name="Edotaccent" unicode="&#x116;" horiz-adv-x="498" 
d="M446 0h-360v667h352v-54h-289v-237h271v-53h-271v-267h297v-56zM264 816c25 0 45 -20 45 -45s-20 -45 -45 -45s-45 20 -45 45s20 45 45 45z" />
    <glyph glyph-name="Eogonek" unicode="&#x118;" horiz-adv-x="498" 
d="M446 56v-56c-28 -19 -64 -46 -64 -92c0 -39 24 -62 62 -62c34 0 66 17 72 20l17 -35c-2 -2 -42 -29 -98 -29c-62 0 -104 41 -104 106c0 50 34 81 48 92h-293v667h352v-54h-289v-237h271v-53h-271v-267h297z" />
    <glyph glyph-name="Gbreve" unicode="&#x11e;" horiz-adv-x="660" 
d="M592 44c-6 -5 -81 -57 -221 -57c-178 0 -316 125 -316 341c0 223 147 352 324 352c117 0 184 -44 195 -55l-29 -47c-7 5 -67 43 -161 43c-144 0 -264 -106 -264 -285c0 -176 100 -291 256 -291c100 0 150 31 153 32v195h-153v52h216v-280zM446 843h51
c-12 -81 -58 -124 -134 -124c-75 0 -121 43 -132 124h51c8 -44 33 -63 82 -63c48 0 72 19 82 63z" />
    <glyph glyph-name="Imacron" unicode="&#x12a;" horiz-adv-x="236" 
d="M150 0h-64v667h64v-667zM278 726h-320v54h320v-54z" />
    <glyph glyph-name="Iogonek" unicode="&#x12e;" horiz-adv-x="236" 
d="M150 667v-667c-28 -19 -61 -49 -61 -92c0 -39 24 -62 62 -62c34 0 66 17 72 20l17 -35c-2 -2 -42 -29 -98 -29c-62 0 -104 41 -104 106c0 50 34 81 48 92v667h64z" />
    <glyph glyph-name="Lacute" unicode="&#x139;" horiz-adv-x="470" 
d="M437 0h-351v667h64v-611h287v-56zM332 797l-214 -80l-20 39l207 100z" />
    <glyph glyph-name="Lcaron" unicode="&#x13d;" horiz-adv-x="470" 
d="M437 0h-351v667h64v-611h287v-56zM242 667h72c0 -67 -32 -140 -86 -195l-41 31c40 53 55 98 55 164z" />
    <glyph glyph-name="Nacute" unicode="&#x143;" horiz-adv-x="634" 
d="M548 0h-73l-332 573l2 -573h-59v667h70l335 -578l-2 578h59v-667zM434 797l-214 -80l-20 39l207 100z" />
    <glyph glyph-name="Ncaron" unicode="&#x147;" horiz-adv-x="634" 
d="M548 0h-73l-332 573l2 -573h-59v667h70l335 -578l-2 578h59v-667zM470 816l-154 -99l-152 99l26 39l126 -69l126 69z" />
    <glyph glyph-name="Omacron" unicode="&#x14c;" horiz-adv-x="701" 
d="M511 726h-320v54h320v-54zM646 336c0 -204 -121 -348 -299 -348c-167 0 -292 142 -292 340c0 206 123 351 300 351c169 0 291 -141 291 -343zM578 340c0 169 -96 284 -230 284c-137 0 -225 -116 -225 -288s97 -293 228 -293c140 0 227 118 227 297z" />
    <glyph glyph-name="Ohungarumlaut" unicode="&#x150;" horiz-adv-x="701" 
d="M499 885l-69 -168l-48 17l53 176zM370 885l-68 -168l-49 17l53 176zM646 336c0 -204 -121 -348 -299 -348c-167 0 -292 142 -292 340c0 206 123 351 300 351c169 0 291 -141 291 -343zM578 340c0 169 -96 284 -230 284c-137 0 -225 -116 -225 -288s97 -293 228 -293
c140 0 227 118 227 297z" />
    <glyph glyph-name="Racute" unicode="&#x154;" horiz-adv-x="550" 
d="M384 797l-214 -80l-20 39l207 100zM524 0h-66l-76 171c-50 112 -71 126 -179 126h-54v-297h-63v667h137c89 0 153 0 203 -50c34 -34 52 -79 52 -134c0 -47 -14 -85 -42 -114c-24 -25 -65 -48 -107 -52c26 -2 41 -14 53 -26c15 -15 27 -35 49 -83zM415 487
c0 40 -16 72 -33 89c-42 42 -96 39 -151 39h-82v-266h19c73 0 158 -6 210 46c24 24 37 55 37 92z" />
    <glyph glyph-name="Rcaron" unicode="&#x158;" horiz-adv-x="550" 
d="M401 816l-154 -99l-152 99l26 39l126 -69l126 69zM524 0h-66l-76 171c-50 112 -71 126 -179 126h-54v-297h-63v667h137c89 0 153 0 203 -50c34 -34 52 -79 52 -134c0 -47 -14 -85 -42 -114c-24 -25 -65 -48 -107 -52c26 -2 41 -14 53 -26c15 -15 27 -35 49 -83zM415 487
c0 40 -16 72 -33 89c-42 42 -96 39 -151 39h-82v-266h19c73 0 158 -6 210 46c24 24 37 55 37 92z" />
    <glyph glyph-name="Sacute" unicode="&#x15a;" horiz-adv-x="516" 
d="M375 797l-214 -80l-20 39l207 100zM455 183c0 -112 -73 -196 -212 -196c-118 0 -188 66 -194 71l33 46c10 -7 76 -60 157 -60c98 0 150 55 150 134c0 32 -14 58 -34 78c-60 60 -180 75 -248 143c-15 15 -40 50 -40 109c0 99 79 171 197 171c121 0 177 -65 183 -71
l-34 -40c-8 6 -56 56 -144 56c-83 0 -140 -48 -140 -115c0 -29 11 -51 29 -69c55 -55 180 -71 245 -136c29 -29 52 -67 52 -121z" />
    <glyph glyph-name="Scedilla" unicode="&#x15e;" horiz-adv-x="516" 
d="M197 -94l19 82c-100 10 -161 65 -167 70l33 46c10 -7 76 -60 157 -60c98 0 150 55 150 134c0 32 -14 58 -34 78c-60 60 -180 75 -248 143c-15 15 -40 50 -40 109c0 99 79 171 197 171c121 0 177 -65 183 -71l-34 -40c-8 6 -56 56 -144 56c-83 0 -140 -48 -140 -115
c0 -29 11 -51 29 -69c55 -55 180 -71 245 -136c29 -29 52 -67 52 -121c0 -112 -73 -191 -195 -195l-10 -45c4 3 15 5 26 5c50 0 84 -36 84 -86c0 -59 -50 -89 -97 -89c-39 0 -63 13 -71 20l16 37c8 -5 25 -12 49 -12c41 0 51 25 51 42c0 25 -17 43 -43 43
c-18 0 -34 -9 -42 -15z" />
    <glyph glyph-name="Scommaaccent" unicode="&#x218;" horiz-adv-x="516" 
d="M455 183c0 -112 -73 -196 -212 -196c-118 0 -188 66 -194 71l33 46c10 -7 76 -60 157 -60c98 0 150 55 150 134c0 32 -14 58 -34 78c-60 60 -180 75 -248 143c-15 15 -40 50 -40 109c0 99 79 171 197 171c121 0 177 -65 183 -71l-34 -40c-8 6 -56 56 -144 56
c-83 0 -140 -48 -140 -115c0 -29 11 -51 29 -69c55 -55 180 -71 245 -136c29 -29 52 -67 52 -121zM220 -67h72c0 -67 -32 -140 -86 -195l-41 31c40 54 55 98 55 164z" />
    <glyph glyph-name="Tcaron" unicode="&#x164;" horiz-adv-x="532" 
d="M500 613h-202v-613h-64v613h-202v54h468v-54zM419 816l-154 -99l-152 99l26 39l126 -69l126 69z" />
    <glyph glyph-name="Umacron" unicode="&#x16a;" horiz-adv-x="617" 
d="M469 726h-320v54h320v-54zM541 346c0 -130 7 -229 -59 -295c-42 -42 -101 -63 -173 -63c-71 0 -133 23 -175 65c-62 62 -58 142 -58 253v361h63v-422c0 -57 -1 -112 42 -155c31 -31 78 -47 131 -47c50 0 94 17 120 43c47 47 46 95 46 228v353h63v-321z" />
    <glyph glyph-name="Uring" unicode="&#x16e;" horiz-adv-x="617" 
d="M541 346c0 -130 7 -229 -59 -295c-42 -42 -101 -63 -173 -63c-71 0 -133 23 -175 65c-62 62 -58 142 -58 253v361h63v-422c0 -57 -1 -112 42 -155c31 -31 78 -47 131 -47c50 0 94 17 120 43c47 47 46 95 46 228v353h63v-321zM406 815c0 -54 -44 -98 -98 -98
s-98 44 -98 98c0 56 45 98 98 98c55 0 98 -45 98 -98zM365 815c0 33 -26 57 -57 57s-56 -26 -56 -57s25 -56 56 -56c32 0 57 25 57 56z" />
    <glyph glyph-name="Uhungarumlaut" unicode="&#x170;" horiz-adv-x="617" 
d="M541 346c0 -130 7 -229 -59 -295c-42 -42 -101 -63 -173 -63c-71 0 -133 23 -175 65c-62 62 -58 142 -58 253v361h63v-422c0 -57 -1 -112 42 -155c31 -31 78 -47 131 -47c50 0 94 17 120 43c47 47 46 95 46 228v353h63v-321zM454 885l-69 -168l-48 17l53 176zM325 885
l-68 -168l-49 17l53 176z" />
    <glyph glyph-name="Uogonek" unicode="&#x172;" horiz-adv-x="616" 
d="M317 -12c-82 1 -141 23 -183 65c-62 62 -58 142 -58 253v361h63v-422c0 -57 -1 -112 42 -155c31 -31 78 -47 131 -47c50 0 94 17 120 43c47 47 46 95 46 228v353h63v-351c0 -218 -20 -256 -147 -323c-38 -20 -60 -47 -60 -85c0 -41 26 -62 62 -62c34 0 66 17 72 20
l17 -35c-2 -2 -42 -29 -98 -29c-63 0 -104 42 -104 107c0 31 14 58 34 79z" />
    <glyph glyph-name="Zacute" unicode="&#x179;" horiz-adv-x="543" 
d="M496 0h-450v47l368 566h-348v54h422v-49l-365 -562h373v-56zM404 797l-214 -80l-20 39l207 100z" />
    <glyph glyph-name="Zdotaccent" unicode="&#x17b;" horiz-adv-x="543" 
d="M496 0h-450v47l368 566h-348v54h422v-49l-365 -562h373v-56zM272 816c25 0 45 -20 45 -45s-20 -45 -45 -45s-45 20 -45 45s20 45 45 45z" />
    <glyph glyph-name="amacron" unicode="&#x101;" horiz-adv-x="464" 
d="M392 588h-300v54h300v-54zM401 0h-55v36c-4 -2 -68 -46 -153 -46c-92 0 -154 59 -154 146c0 152 194 157 277 157h25v18c0 45 -2 78 -24 101c-15 15 -42 28 -91 28c-74 0 -126 -34 -133 -38l-25 42c4 4 66 49 165 49c61 0 102 -18 130 -46c32 -32 38 -65 38 -138v-309z
M341 82v162h-27c-123 0 -213 -28 -213 -109c0 -48 31 -92 106 -92c62 0 121 33 134 39z" />
    <glyph glyph-name="abreve" unicode="&#x103;" horiz-adv-x="464" 
d="M401 0h-55v36c-4 -2 -68 -46 -153 -46c-92 0 -154 59 -154 146c0 152 194 157 277 157h25v18c0 45 -2 78 -24 101c-15 15 -42 28 -91 28c-74 0 -126 -34 -133 -38l-25 42c4 4 66 49 165 49c61 0 102 -18 130 -46c32 -32 38 -65 38 -138v-309zM341 82v162h-27
c-123 0 -213 -28 -213 -109c0 -48 31 -92 106 -92c62 0 121 33 134 39zM365 677c-8 -77 -58 -124 -133 -124s-125 47 -133 124h51c7 -42 34 -63 82 -63s75 21 82 63h51z" />
    <glyph glyph-name="aogonek" unicode="&#x105;" horiz-adv-x="464" 
d="M401 309v-309c-28 -19 -64 -46 -64 -92c0 -39 24 -62 62 -62c34 0 66 17 72 20l17 -35c-2 -2 -42 -29 -98 -29c-62 0 -104 41 -104 106c0 50 32 82 60 98v30c-4 -2 -68 -46 -153 -46c-92 0 -154 59 -154 146c0 152 194 157 277 157h25v18c0 45 -2 78 -24 101
c-15 15 -42 28 -91 28c-74 0 -126 -34 -133 -38l-25 42c4 4 66 49 165 49c61 0 102 -18 130 -46c32 -32 38 -65 38 -138zM341 82v162h-27c-123 0 -213 -28 -213 -109c0 -48 31 -92 106 -92c62 0 121 33 134 39z" />
    <glyph glyph-name="cacute" unicode="&#x107;" horiz-adv-x="464" 
d="M387 626l-214 -80l-20 39l207 100zM434 38c-4 -5 -73 -48 -164 -48c-132 0 -227 91 -227 240c0 155 98 262 239 262c84 0 141 -43 145 -47l-27 -42c-10 6 -51 35 -121 35c-104 0 -174 -86 -174 -199c0 -118 71 -193 168 -193c76 0 127 33 135 37z" />
    <glyph glyph-name="ccaron" unicode="&#x10d;" horiz-adv-x="464" 
d="M432 646l-154 -99l-152 99l26 39l126 -69l126 69zM434 38c-4 -5 -73 -48 -164 -48c-132 0 -227 91 -227 240c0 155 98 262 239 262c84 0 141 -43 145 -47l-27 -42c-10 6 -51 35 -121 35c-104 0 -174 -86 -174 -199c0 -118 71 -193 168 -193c76 0 127 33 135 37z" />
    <glyph glyph-name="dcaron" unicode="&#x10f;" horiz-adv-x="611" 
d="M539 720h72c0 -67 -32 -140 -86 -195l-41 31c40 54 55 98 55 164zM449 0h-55v36c-6 -5 -62 -46 -140 -46c-126 0 -211 97 -211 242c0 154 97 260 236 260c64 0 104 -24 109 -27v255h61v-720zM388 90v317c-7 4 -47 32 -109 32c-104 0 -174 -83 -174 -209
c0 -111 64 -187 155 -187c70 0 111 35 128 47z" />
    <glyph glyph-name="dcroat" unicode="&#x111;" horiz-adv-x="519" 
d="M449 0h-55v36c-6 -5 -62 -46 -140 -46c-126 0 -211 97 -211 242c0 154 97 260 236 260c64 0 104 -24 109 -27v105h-153v49h153v101h61v-101h84v-49h-84v-570zM388 90v317c-7 4 -47 32 -109 32c-104 0 -174 -83 -174 -209c0 -111 64 -187 155 -187c70 0 111 35 128 47z
" />
    <glyph glyph-name="ecaron" unicode="&#x11b;" horiz-adv-x="494" 
d="M413 646l-154 -99l-152 99l26 39l126 -69l126 69zM451 260c0 -5 -2 -22 -2 -32h-344c0 -106 57 -182 165 -182c79 0 133 36 139 39l27 -46c-2 -3 -73 -49 -171 -49c-140 0 -222 102 -222 247c0 155 86 255 219 255c111 0 189 -84 189 -232zM390 279
c0 71 -33 162 -127 162c-83 0 -150 -62 -156 -162h283z" />
    <glyph glyph-name="emacron" unicode="&#x113;" horiz-adv-x="494" 
d="M451 260c0 -5 -2 -22 -2 -32h-344c0 -106 57 -182 165 -182c79 0 133 36 139 39l27 -46c-2 -3 -73 -49 -171 -49c-140 0 -222 102 -222 247c0 155 86 255 219 255c111 0 189 -84 189 -232zM390 279c0 71 -33 162 -127 162c-83 0 -150 -62 -156 -162h283zM409 588h-300v54
h300v-54z" />
    <glyph glyph-name="edotaccent" unicode="&#x117;" horiz-adv-x="494" 
d="M451 260c0 -5 -2 -22 -2 -32h-344c0 -106 57 -182 165 -182c79 0 133 36 139 39l27 -46c-2 -3 -73 -49 -171 -49c-140 0 -222 102 -222 247c0 155 86 255 219 255c111 0 189 -84 189 -232zM390 279c0 71 -33 162 -127 162c-83 0 -150 -62 -156 -162h283zM310 615
c0 -25 -20 -45 -45 -45s-45 20 -45 45s20 45 45 45s45 -20 45 -45z" />
    <glyph glyph-name="eogonek" unicode="&#x119;" horiz-adv-x="494" 
d="M451 260c0 -5 -2 -22 -2 -32h-344c0 -106 57 -182 165 -182c79 0 133 36 139 39l27 -46c-51 -40 -162 -42 -162 -131c0 -39 24 -62 62 -62c34 0 66 17 72 20l17 -35c-2 -2 -42 -29 -98 -29c-62 0 -104 41 -104 106c0 39 22 69 41 82c-141 1 -221 104 -221 247
c0 155 86 255 219 255c111 0 189 -84 189 -232zM390 279c0 71 -33 162 -127 162c-83 0 -150 -62 -156 -162h283z" />
    <glyph glyph-name="gbreve" unicode="&#x11f;" horiz-adv-x="519" 
d="M449 -7c0 -85 -9 -130 -45 -167c-42 -42 -92 -53 -156 -53c-107 0 -173 54 -178 59l27 42c7 -4 65 -48 147 -48c59 0 92 15 113 37c30 30 31 63 31 140v37c-9 -5 -64 -41 -140 -41c-120 0 -205 99 -205 237c0 148 100 256 239 256c84 0 157 -37 167 -41v-458zM388 98v318
c-7 3 -47 23 -109 23c-105 0 -174 -82 -174 -202c0 -110 60 -185 149 -185c70 0 127 42 134 46zM415 677c-8 -77 -58 -124 -133 -124s-125 47 -133 124h51c7 -42 34 -63 82 -63s75 21 82 63h51z" />
    <glyph glyph-name="imacron" unicode="&#x12b;" horiz-adv-x="200" 
d="M130 0h-60v480h60v-480zM250 588h-300v54h300v-54z" />
    <glyph glyph-name="iogonek" unicode="&#x12f;" horiz-adv-x="200" 
d="M140 642c0 -22 -18 -40 -40 -40s-40 18 -40 40s18 40 40 40s40 -18 40 -40zM130 480v-480c-28 -19 -64 -46 -64 -92c0 -39 24 -62 62 -62c34 0 66 17 72 20l17 -35c-2 -2 -42 -29 -98 -29c-62 0 -104 41 -104 106c0 53 38 86 55 94v478h60z" />
    <glyph glyph-name="lacute" unicode="&#x13a;" horiz-adv-x="200" 
d="M130 0h-60v720h60v-720zM314 830l-214 -80l-20 39l207 100z" />
    <glyph glyph-name="lcaron" unicode="&#x13e;" horiz-adv-x="292" 
d="M130 0h-60v720h60v-720zM220 720h72c0 -67 -32 -140 -86 -195l-41 31c40 54 55 98 55 164z" />
    <glyph glyph-name="nacute" unicode="&#x144;" horiz-adv-x="503" 
d="M406 626l-214 -80l-20 39l207 100zM440 0h-60v280c0 60 1 103 -28 132c-17 17 -46 27 -75 27c-71 0 -145 -45 -147 -47v-392h-60v480h57v-35c8 5 77 47 158 47c34 0 79 -8 111 -40c37 -37 44 -74 44 -163v-289z" />
    <glyph glyph-name="ncaron" unicode="&#x148;" horiz-adv-x="503" 
d="M425 646l-154 -99l-152 99l26 39l126 -69l126 69zM440 0h-60v280c0 60 1 103 -28 132c-17 17 -46 27 -75 27c-71 0 -145 -45 -147 -47v-392h-60v480h57v-35c8 5 77 47 158 47c34 0 79 -8 111 -40c37 -37 44 -74 44 -163v-289z" />
    <glyph glyph-name="omacron" unicode="&#x14d;" horiz-adv-x="523" 
d="M415 588h-300v54h300v-54zM480 236c0 -150 -85 -248 -220 -248c-131 0 -217 98 -217 252c0 152 84 252 222 252c130 0 215 -97 215 -256zM418 238c0 121 -68 202 -157 202c-96 0 -156 -79 -156 -198c0 -121 67 -201 157 -201c99 0 156 77 156 197z" />
    <glyph glyph-name="ohungarumlaut" unicode="&#x151;" horiz-adv-x="523" 
d="M402 714l-69 -168l-48 17l53 176zM273 714l-68 -168l-49 17l53 176zM480 236c0 -150 -85 -248 -220 -248c-131 0 -217 98 -217 252c0 152 84 252 222 252c130 0 215 -97 215 -256zM418 238c0 121 -68 202 -157 202c-96 0 -156 -79 -156 -198c0 -121 67 -201 157 -201
c99 0 156 77 156 197z" />
    <glyph glyph-name="racute" unicode="&#x155;" horiz-adv-x="349" 
d="M323 626l-214 -80l-20 39l207 100zM329 485l-14 -50c-7 1 -20 3 -39 3c-102 0 -142 -80 -146 -84v-354h-60v480h57v-63c5 6 54 76 152 76c36 0 47 -7 50 -8z" />
    <glyph glyph-name="rcaron" unicode="&#x159;" horiz-adv-x="349" 
d="M326 646l-154 -99l-152 99l26 39l126 -69l126 69zM329 485l-14 -50c-7 1 -20 3 -39 3c-102 0 -142 -80 -146 -84v-354h-60v480h57v-63c5 6 54 76 152 76c36 0 47 -7 50 -8z" />
    <glyph glyph-name="sacute" unicode="&#x15b;" horiz-adv-x="416" 
d="M334 626l-214 -80l-20 39l207 100zM366 131c0 -90 -67 -143 -173 -143c-91 0 -157 43 -161 47l26 46c3 -2 63 -40 131 -40c72 0 115 32 115 84c0 65 -70 84 -120 103c-71 28 -133 51 -133 138c0 77 70 126 160 126c85 0 141 -39 145 -43l-24 -43c-7 4 -56 34 -116 34
c-56 0 -103 -28 -103 -72c0 -56 49 -69 103 -91c65 -26 150 -53 150 -146z" />
    <glyph glyph-name="scedilla" unicode="&#x15f;" horiz-adv-x="416" 
d="M366 131c0 -88 -64 -140 -165 -143l-7 -41c4 3 14 5 25 5c49 0 82 -34 82 -83c0 -57 -49 -87 -95 -87c-38 0 -61 13 -69 20l16 36c8 -5 25 -12 48 -12c40 0 49 25 49 41c0 24 -17 41 -42 41c-17 0 -32 -8 -40 -14l-26 17l16 79c-73 9 -123 41 -126 45l26 46
c3 -2 63 -40 131 -40c72 0 115 32 115 84c0 65 -70 84 -120 103c-71 28 -133 51 -133 138c0 77 70 126 160 126c85 0 141 -39 145 -43l-24 -43c-7 4 -56 34 -116 34c-56 0 -103 -28 -103 -72c0 -56 49 -69 103 -91c65 -26 150 -53 150 -146z" />
    <glyph glyph-name="scommaaccent" unicode="&#x219;" horiz-adv-x="416" 
d="M173 -67h72c0 -67 -32 -140 -86 -195l-41 31c40 54 55 98 55 164zM366 131c0 -90 -67 -143 -173 -143c-91 0 -157 43 -161 47l26 46c3 -2 63 -40 131 -40c72 0 115 32 115 84c0 65 -70 84 -120 103c-71 28 -133 51 -133 138c0 77 70 126 160 126c85 0 141 -39 145 -43
l-24 -43c-7 4 -56 34 -116 34c-56 0 -103 -28 -103 -72c0 -56 49 -69 103 -91c65 -26 150 -53 150 -146z" />
    <glyph glyph-name="tcaron" unicode="&#x165;" horiz-adv-x="370" 
d="M284 720h72c0 -67 -32 -140 -86 -195l-41 31c40 54 55 98 55 164zM328 12c-8 -4 -41 -23 -95 -23c-44 0 -76 11 -99 34c-28 28 -28 66 -28 124v284h-84v49h84v136h60v-136h154v-49h-154v-272c0 -66 -5 -116 75 -116c37 0 66 14 71 15z" />
    <glyph glyph-name="umacron" unicode="&#x16b;" horiz-adv-x="503" 
d="M398 588h-300v54h300v-54zM433 0h-55v38c-9 -6 -73 -48 -156 -48c-45 0 -86 13 -116 43c-48 48 -43 118 -43 173v274h60v-286c0 -51 0 -94 28 -122c19 -19 45 -29 75 -29c71 0 139 43 147 47v390h60v-480z" />
    <glyph glyph-name="uring" unicode="&#x16f;" horiz-adv-x="503" 
d="M433 0h-55v38c-9 -6 -73 -48 -156 -48c-45 0 -86 13 -116 43c-48 48 -43 118 -43 173v274h60v-286c0 -51 0 -94 28 -122c19 -19 45 -29 75 -29c71 0 139 43 147 47v390h60v-480zM346 631c0 -54 -44 -98 -98 -98s-98 44 -98 98c0 56 45 98 98 98c55 0 98 -45 98 -98z
M305 631c0 33 -26 57 -57 57s-56 -26 -56 -57s25 -56 56 -56c32 0 57 25 57 56z" />
    <glyph glyph-name="uhungarumlaut" unicode="&#x171;" horiz-adv-x="503" 
d="M433 0h-55v38c-9 -6 -73 -48 -156 -48c-45 0 -86 13 -116 43c-48 48 -43 118 -43 173v274h60v-286c0 -51 0 -94 28 -122c19 -19 45 -29 75 -29c71 0 139 43 147 47v390h60v-480zM394 714l-69 -168l-48 17l53 176zM265 714l-68 -168l-49 17l53 176z" />
    <glyph glyph-name="uogonek" unicode="&#x173;" horiz-adv-x="503" 
d="M378 6v32c-9 -6 -73 -48 -156 -48c-45 0 -86 13 -116 43c-48 48 -43 118 -43 173v274h60v-286c0 -51 0 -94 28 -122c19 -19 45 -29 75 -29c71 0 139 43 147 47v390h60v-480c-28 -19 -64 -46 -64 -92c0 -39 24 -62 62 -62c34 0 66 17 72 20l17 -35c-2 -2 -42 -29 -98 -29
c-62 0 -104 41 -104 106c0 50 32 82 60 98z" />
    <glyph glyph-name="zacute" unicode="&#x17a;" horiz-adv-x="463" 
d="M408 0h-366v47l282 382h-268v51h342v-48l-278 -379h288v-53zM349 626l-214 -80l-20 39l207 100z" />
    <glyph glyph-name="zdotaccent" unicode="&#x17c;" horiz-adv-x="463" 
d="M408 0h-366v47l282 382h-268v51h342v-48l-278 -379h288v-53zM232 660c25 0 45 -20 45 -45s-20 -45 -45 -45s-45 20 -45 45s20 45 45 45z" />
    <glyph glyph-name="Gcommaaccent" unicode="&#x122;" horiz-adv-x="660" 
d="M592 44c-6 -5 -81 -57 -221 -57c-178 0 -316 125 -316 341c0 223 147 352 324 352c117 0 184 -44 195 -55l-29 -47c-7 5 -67 43 -161 43c-144 0 -264 -106 -264 -285c0 -176 100 -291 256 -291c100 0 150 31 153 32v195h-153v52h216v-280zM330 -67h72
c0 -67 -32 -140 -86 -195l-41 31c40 54 55 98 55 164z" />
    <glyph glyph-name="gcommaaccent" unicode="&#x123;" horiz-adv-x="519" 
d="M311 569h-72c0 67 32 140 86 195l41 -31c-40 -54 -55 -98 -55 -164zM449 -7c0 -85 -9 -130 -45 -167c-42 -42 -92 -53 -156 -53c-107 0 -173 54 -178 59l27 42c7 -4 65 -48 147 -48c59 0 92 15 113 37c30 30 31 63 31 140v37c-9 -5 -64 -41 -140 -41
c-120 0 -205 99 -205 237c0 148 100 256 239 256c84 0 157 -37 167 -41v-458zM388 98v318c-7 3 -47 23 -109 23c-105 0 -174 -82 -174 -202c0 -110 60 -185 149 -185c70 0 127 42 134 46z" />
    <glyph glyph-name="rcommaaccent" unicode="&#x157;" horiz-adv-x="349" 
d="M66 -67h72c0 -67 -32 -140 -86 -195l-41 31c40 54 55 98 55 164zM329 485l-14 -50c-7 1 -20 3 -39 3c-102 0 -142 -80 -146 -84v-354h-60v480h57v-63c5 6 54 76 152 76c36 0 47 -7 50 -8z" />
    <glyph glyph-name="ncommaaccent" unicode="&#x146;" horiz-adv-x="503" 
d="M213 -67h72c0 -67 -32 -140 -86 -195l-41 31c40 54 55 98 55 164zM440 0h-60v280c0 60 1 103 -28 132c-17 17 -46 27 -75 27c-71 0 -145 -45 -147 -47v-392h-60v480h57v-35c8 5 77 47 158 47c34 0 79 -8 111 -40c37 -37 44 -74 44 -163v-289z" />
    <glyph glyph-name="lcommaaccent" unicode="&#x13c;" horiz-adv-x="200" 
d="M130 0h-60v720h60v-720zM64 -67h72c0 -67 -32 -140 -86 -195l-41 31c40 54 55 98 55 164z" />
    <glyph glyph-name="kcommaaccent" unicode="&#x137;" horiz-adv-x="468" 
d="M204 -67h72c0 -67 -32 -140 -86 -195l-41 31c40 54 55 98 55 164zM453 0h-79l-244 254v-254h-60v720h60v-453l224 213h79l-236 -218z" />
    <glyph glyph-name="uni021A" unicode="&#x21a;" horiz-adv-x="532" 
d="M500 613h-202v-613h-64v613h-202v54h468v-54zM230 -67h72c0 -67 -32 -140 -86 -195l-41 31c40 54 55 98 55 164z" />
    <glyph glyph-name="uni021B" unicode="&#x21b;" horiz-adv-x="370" 
d="M190 -67h72c0 -67 -32 -140 -86 -195l-41 31c40 54 55 98 55 164zM328 12c-8 -4 -41 -23 -95 -23c-44 0 -76 11 -99 34c-28 28 -28 66 -28 124v284h-84v49h84v136h60v-136h154v-49h-154v-272c0 -66 -5 -116 75 -116c37 0 66 14 71 15z" />
    <glyph glyph-name="Lcommaaccent" unicode="&#x13b;" horiz-adv-x="470" 
d="M437 0h-351v667h64v-611h287v-56zM217 -67h72c0 -67 -32 -140 -86 -195l-41 31c40 54 55 98 55 164z" />
    <glyph glyph-name="Kcommaaccent" unicode="&#x136;" horiz-adv-x="539" 
d="M529 0h-80l-300 319v-319h-63v667h63v-314l292 314h73l-301 -327zM252 -67h72c0 -67 -32 -140 -86 -195l-41 31c40 54 55 98 55 164z" />
    <glyph glyph-name="Tcommaaccent" unicode="&#x162;" horiz-adv-x="532" 
d="M500 613h-202v-613h-64v613h-202v54h468v-54zM230 -67h72c0 -67 -32 -140 -86 -195l-41 31c40 54 55 98 55 164z" />
    <glyph glyph-name="Rcommaaccent" unicode="&#x156;" horiz-adv-x="550" 
d="M524 0h-66l-76 171c-50 112 -71 126 -179 126h-54v-297h-63v667h137c89 0 153 0 203 -50c34 -34 52 -79 52 -134c0 -47 -14 -85 -42 -114c-24 -25 -65 -48 -107 -52c26 -2 41 -14 53 -26c15 -15 27 -35 49 -83zM415 487c0 40 -16 72 -33 89c-42 42 -96 39 -151 39h-82
v-266h19c73 0 158 -6 210 46c24 24 37 55 37 92zM257 -67h72c0 -67 -32 -140 -86 -195l-41 31c40 54 55 98 55 164z" />
    <glyph glyph-name="tcommaaccent" unicode="&#x163;" horiz-adv-x="370" 
d="M190 -67h72c0 -67 -32 -140 -86 -195l-41 31c40 54 55 98 55 164zM328 12c-8 -4 -41 -23 -95 -23c-44 0 -76 11 -99 34c-28 28 -28 66 -28 124v284h-84v49h84v136h60v-136h154v-49h-154v-272c0 -66 -5 -116 75 -116c37 0 66 14 71 15z" />
    <glyph glyph-name="Amacronsmall" unicode="&#xf66e;" horiz-adv-x="491" 
d="M480 0h-67l-56 145h-229l-55 -145h-62l201 517h66zM337 197l-95 251l-95 -251h190zM398 605h-300v54h300v-54z" />
    <glyph glyph-name="Abrevesmall" unicode="&#xf66d;" horiz-adv-x="491" 
d="M480 0h-67l-56 145h-229l-55 -145h-62l201 517h66zM337 197l-95 251l-95 -251h190zM375 697c-8 -77 -58 -124 -133 -124s-125 47 -133 124h51c7 -42 34 -63 82 -63s75 21 82 63h51z" />
    <glyph glyph-name="Aogoneksmall" unicode="&#xf66f;" horiz-adv-x="491" 
d="M278 517l202 -517c-28 -19 -64 -46 -64 -92c0 -39 24 -62 62 -62c34 0 66 17 72 20l17 -35c-2 -2 -42 -29 -98 -29c-62 0 -104 41 -104 106c0 50 34 81 48 92l-56 145h-229l-55 -145h-62l201 517h66zM337 197l-95 251l-95 -251h190z" />
    <glyph glyph-name="Cacutesmall" unicode="&#xf671;" horiz-adv-x="492" 
d="M473 43c-10 -11 -74 -53 -174 -53c-140 0 -250 96 -250 263c0 173 118 273 259 273c93 0 145 -33 158 -46l-29 -43c-4 3 -48 33 -122 33c-115 0 -203 -79 -203 -211c0 -131 75 -213 194 -213c84 0 135 38 139 40zM427 646l-214 -80l-20 39l207 100z" />
    <glyph glyph-name="Ccaronsmall" unicode="&#xf673;" horiz-adv-x="492" 
d="M462 666l-154 -99l-152 99l26 39l126 -69l126 69zM473 43c-10 -11 -74 -53 -174 -53c-140 0 -250 96 -250 263c0 173 118 273 259 273c93 0 145 -33 158 -46l-29 -43c-4 3 -48 33 -122 33c-115 0 -203 -79 -203 -211c0 -131 75 -213 194 -213c84 0 135 38 139 40z" />
    <glyph glyph-name="Dcaronsmall" unicode="&#xf675;" horiz-adv-x="568" 
d="M416 666l-154 -99l-152 99l26 39l126 -69l126 69zM519 261c0 -121 -66 -181 -78 -193c-63 -63 -144 -68 -233 -68h-132v517h109c112 0 196 -6 256 -66c39 -39 78 -94 78 -190zM455 263c0 64 -22 113 -52 143c-42 42 -82 60 -207 60h-57v-415h68c76 0 142 5 193 56
c39 39 55 97 55 156z" />
    <glyph glyph-name="Dcroatsmall" unicode="&#xf676;" horiz-adv-x="601" 
d="M552 261c0 -121 -66 -181 -78 -193c-63 -63 -144 -68 -233 -68h-132v245h-81v51h81v221h109c112 0 196 -6 256 -66c39 -39 78 -94 78 -190zM488 263c0 64 -22 113 -52 143c-42 42 -82 60 -207 60h-57v-170h164v-51h-164v-194h68c76 0 142 5 193 56c39 39 55 97 55 156z
" />
    <glyph glyph-name="Ecaronsmall" unicode="&#xf678;" horiz-adv-x="424" 
d="M374 0h-298v517h292v-52h-231v-169h217v-51h-217v-192h237v-53zM372 666l-154 -99l-152 99l26 39l126 -69l126 69z" />
    <glyph glyph-name="Emacronsmall" unicode="&#xf67a;" horiz-adv-x="424" 
d="M374 0h-298v517h292v-52h-231v-169h217v-51h-217v-192h237v-53zM373 605h-300v54h300v-54z" />
    <glyph glyph-name="Edotaccentsmall" unicode="&#xf679;" horiz-adv-x="424" 
d="M374 0h-298v517h292v-52h-231v-169h217v-51h-217v-192h237v-53zM222 680c25 0 45 -20 45 -45s-20 -45 -45 -45s-45 20 -45 45s20 45 45 45z" />
    <glyph glyph-name="Eogoneksmall" unicode="&#xf67c;" horiz-adv-x="424" 
d="M307 0h-231v517h292v-52h-231v-169h217v-51h-217v-192h237v-53c-28 -19 -64 -46 -64 -92c0 -39 24 -62 62 -62c34 0 66 17 72 20l17 -35c-2 -2 -42 -29 -98 -29c-62 0 -104 41 -104 106c0 50 34 81 48 92z" />
    <glyph glyph-name="Gbrevesmall" unicode="&#xf67d;" horiz-adv-x="535" 
d="M478 37c-9 -6 -66 -47 -174 -47c-145 0 -255 96 -255 263c0 173 118 273 259 273c93 0 145 -33 158 -46l-29 -43c-4 3 -48 33 -122 33c-115 0 -203 -79 -203 -211c0 -154 98 -214 202 -214c60 0 96 18 104 21v140h-119v51h179v-220zM446 697c-8 -77 -58 -124 -133 -124
s-125 47 -133 124h51c7 -42 34 -63 82 -63s75 21 82 63h51z" />
    <glyph glyph-name="Imacronsmall" unicode="&#xf685;" horiz-adv-x="214" 
d="M138 0h-62v517h62v-517zM257 605h-300v54h300v-54z" />
    <glyph glyph-name="Iogoneksmall" unicode="&#xf686;" horiz-adv-x="214" 
d="M138 517v-517c-28 -19 -64 -46 -64 -92c0 -39 24 -62 62 -62c34 0 66 17 72 20l17 -35c-2 -2 -42 -29 -98 -29c-62 0 -104 41 -104 106c0 55 39 85 53 93v516h62z" />
    <glyph glyph-name="Lacutesmall" unicode="&#xf68a;" horiz-adv-x="395" 
d="M367 0h-291v517h62v-464h229v-53zM321 646l-214 -80l-20 39l207 100z" />
    <glyph glyph-name="Lcaronsmall" unicode="&#xf68b;" horiz-adv-x="395" 
d="M367 0h-291v517h62v-464h229v-53zM244 517h72c0 -67 -32 -140 -86 -195l-41 31c40 54 55 98 55 164z" />
    <glyph glyph-name="Nacutesmall" unicode="&#xf68e;" horiz-adv-x="536" 
d="M460 0h-67l-261 424l3 -424h-59v517h65l263 -428l-3 428h59v-517zM385 646l-214 -80l-20 39l207 100z" />
    <glyph glyph-name="Ncaronsmall" unicode="&#xf68f;" horiz-adv-x="536" 
d="M460 0h-67l-261 424l3 -424h-59v517h65l263 -428l-3 428h59v-517zM421 666l-154 -99l-152 99l26 39l126 -69l126 69z" />
    <glyph glyph-name="Omacronsmall" unicode="&#xf693;" horiz-adv-x="589" 
d="M298 525c141 0 242 -110 242 -264c0 -161 -101 -271 -247 -271c-142 0 -244 111 -244 264c0 159 103 271 249 271zM292 473c-107 0 -177 -85 -177 -213c0 -129 75 -218 182 -218c106 0 177 87 177 217c0 127 -74 214 -182 214zM451 605h-300v54h300v-54z" />
    <glyph glyph-name="Ohungarumlautsmall" unicode="&#xf692;" horiz-adv-x="589" 
d="M540 259c0 -158 -100 -269 -248 -269c-139 0 -243 110 -243 263c0 159 102 272 249 272c141 0 242 -110 242 -266zM474 262c0 126 -77 211 -182 211c-107 0 -177 -85 -177 -214s77 -217 180 -217c110 0 179 86 179 220zM443 734l-69 -168l-48 17l53 176zM314 734
l-68 -168l-49 17l53 176z" />
    <glyph glyph-name="Racutesmall" unicode="&#xf695;" horiz-adv-x="467" 
d="M341 646l-214 -80l-20 39l207 100zM443 0h-65l-63 133c-39 83 -54 92 -139 92h-38v-225h-62v517h116c58 0 123 3 168 -42c35 -35 43 -70 43 -103c0 -37 -14 -66 -37 -89c-17 -17 -38 -32 -82 -38c47 -4 64 -46 80 -79zM341 375c0 32 -11 50 -25 64c-31 31 -77 28 -118 28
h-60v-191h38c55 0 106 2 139 35c17 17 26 39 26 64z" />
    <glyph glyph-name="Rcaronsmall" unicode="&#xf696;" horiz-adv-x="467" 
d="M372 666l-154 -99l-152 99l26 39l126 -69l126 69zM443 0h-65l-63 133c-39 83 -54 92 -139 92h-38v-225h-62v517h116c58 0 123 3 168 -42c35 -35 43 -70 43 -103c0 -37 -14 -66 -37 -89c-17 -17 -38 -32 -82 -38c47 -4 64 -46 80 -79zM341 375c0 32 -11 50 -25 64
c-31 31 -77 28 -118 28h-60v-191h38c55 0 106 2 139 35c17 17 26 39 26 64z" />
    <glyph glyph-name="Sacutesmall" unicode="&#xf698;" horiz-adv-x="432" 
d="M379 144c0 -88 -61 -154 -175 -154c-99 0 -158 52 -164 58l33 44c7 -5 61 -48 128 -48c85 0 115 47 115 96c0 22 -8 37 -22 51c-51 51 -147 58 -201 112c-13 13 -36 37 -36 88c0 79 67 135 164 135c103 0 148 -53 154 -59l-33 -38c-10 9 -48 45 -117 45
c-65 0 -108 -35 -108 -82c0 -20 7 -34 20 -47c42 -42 146 -52 203 -109c26 -26 39 -56 39 -92zM339 646l-214 -80l-20 39l207 100z" />
    <glyph glyph-name="Scedillasmall" unicode="&#xf699;" horiz-adv-x="432" 
d="M379 144c0 -82 -53 -145 -153 -153l-7 -44c4 3 14 5 25 5c49 0 82 -34 82 -83c0 -57 -49 -87 -95 -87c-38 0 -61 13 -69 20l16 36c8 -5 25 -12 48 -12c40 0 49 25 49 41c0 24 -17 41 -42 41c-17 0 -32 -8 -40 -14l-26 17l16 80c-85 6 -137 51 -143 57l33 44
c7 -5 61 -48 128 -48c85 0 115 47 115 96c0 22 -8 37 -22 51c-51 51 -147 58 -201 112c-13 13 -36 37 -36 88c0 79 67 135 164 135c103 0 148 -53 154 -59l-33 -38c-10 9 -48 45 -117 45c-65 0 -108 -35 -108 -82c0 -20 7 -34 20 -47c42 -42 146 -52 203 -109
c26 -26 39 -56 39 -92z" />
    <glyph glyph-name="Scommaaccentsmall" unicode="&#xf69b;" horiz-adv-x="432" 
d="M179 -67h72c0 -67 -32 -140 -86 -195l-41 31c40 54 55 98 55 164zM379 144c0 -88 -61 -154 -175 -154c-99 0 -158 52 -164 58l33 44c7 -5 61 -48 128 -48c85 0 115 47 115 96c0 22 -8 37 -22 51c-51 51 -147 58 -201 112c-13 13 -36 37 -36 88c0 79 67 135 164 135
c103 0 148 -53 154 -59l-33 -38c-10 9 -48 45 -117 45c-65 0 -108 -35 -108 -82c0 -20 7 -34 20 -47c42 -42 146 -52 203 -109c26 -26 39 -56 39 -92z" />
    <glyph glyph-name="Tcaronsmall" unicode="&#xf69d;" horiz-adv-x="447" 
d="M379 666l-154 -99l-152 99l26 39l126 -69l126 69zM418 465h-163v-465h-62v465h-164v52h389v-52z" />
    <glyph glyph-name="Umacronsmall" unicode="&#xf6a1;" horiz-adv-x="521" 
d="M411 605h-300v54h300v-54zM453 231c0 -82 1 -141 -45 -187c-37 -37 -86 -54 -147 -54c-58 0 -110 18 -145 51c-40 38 -47 85 -48 137v59v280h61v-326c0 -41 -1 -83 32 -114c24 -22 60 -34 102 -34c39 0 74 12 94 31c32 30 34 64 35 105v64v274h61v-286z" />
    <glyph glyph-name="Uringsmall" unicode="&#xf6a3;" horiz-adv-x="521" 
d="M453 231c0 -82 1 -141 -45 -187c-37 -37 -86 -54 -147 -54c-58 0 -110 18 -145 51c-40 38 -47 85 -48 137v59v280h61v-326c0 -41 -1 -83 32 -114c24 -22 60 -34 102 -34c39 0 74 12 94 31c32 30 34 64 35 105v64v274h61v-286zM358 651c0 -54 -44 -98 -98 -98
s-98 44 -98 98c0 56 45 98 98 98c55 0 98 -45 98 -98zM317 651c0 33 -26 57 -57 57s-56 -26 -56 -57s25 -56 56 -56c32 0 57 25 57 56z" />
    <glyph glyph-name="Uhungarumlautsmall" unicode="&#xf6a0;" horiz-adv-x="521" 
d="M453 231c0 -82 1 -141 -45 -187c-37 -37 -86 -54 -147 -54c-58 0 -110 18 -145 51c-40 38 -47 85 -48 137v59v280h61v-326c0 -41 -1 -83 32 -114c24 -22 60 -34 102 -34c39 0 74 12 94 31c32 30 34 64 35 105v64v274h61v-286zM400 734l-69 -168l-48 17l53 176zM271 734
l-68 -168l-49 17l53 176z" />
    <glyph glyph-name="Uogoneksmall" unicode="&#xf6a2;" horiz-adv-x="521" 
d="M453 517v-326c0 -218 -167 -162 -167 -283c0 -39 24 -62 62 -62c34 0 66 17 72 20l17 -35c-2 -2 -42 -29 -98 -29c-62 0 -104 41 -104 106c0 41 25 72 44 83c-8 -1 -12 -1 -18 -1c-58 0 -110 18 -145 51c-40 38 -47 85 -48 137v339h61v-326c0 -41 -1 -83 32 -114
c24 -22 60 -34 102 -34c39 0 74 12 94 31c32 30 34 64 35 105v338h61z" />
    <glyph glyph-name="Zacutesmall" unicode="&#xf6ab;" horiz-adv-x="466" 
d="M418 0h-374v43l292 422h-276v52h351v-44l-289 -420h296v-53zM355 646l-214 -80l-20 39l207 100z" />
    <glyph glyph-name="Zdotaccentsmall" unicode="&#xf6ac;" horiz-adv-x="466" 
d="M418 0h-374v43l292 422h-276v52h351v-44l-289 -420h296v-53zM233 680c25 0 45 -20 45 -45s-20 -45 -45 -45s-45 20 -45 45s20 45 45 45z" />
    <glyph glyph-name="Tcommaaccentsmall" unicode="&#xf69e;" horiz-adv-x="447" 
d="M418 465h-163v-465h-62v465h-164v52h389v-52zM188 -67h72c0 -67 -32 -140 -86 -195l-41 31c40 54 55 98 55 164z" />
    <glyph glyph-name="Kcommaaccentsmall" unicode="&#xf689;" horiz-adv-x="457" 
d="M220 -67h72c0 -67 -32 -140 -86 -195l-41 31c40 54 55 98 55 164zM452 0h-80l-234 243v-243h-62v517h62v-241l230 241h71l-242 -254z" />
    <glyph glyph-name="Lcommaaccentsmall" unicode="&#xf68c;" horiz-adv-x="395" 
d="M367 0h-291v517h62v-464h229v-53zM189 -67h72c0 -67 -32 -140 -86 -195l-41 31c40 54 55 98 55 164z" />
    <glyph glyph-name="Ncommaaccentsmall" unicode="&#xf690;" horiz-adv-x="536" 
d="M460 0h-67l-261 424l3 -424h-59v517h65l263 -428l-3 428h59v-517zM226 -67h72c0 -67 -32 -140 -86 -195l-41 31c40 54 55 98 55 164z" />
    <glyph glyph-name="Rcommaaccentsmall" unicode="&#xf697;" horiz-adv-x="467" 
d="M220 -67h72c0 -67 -32 -140 -86 -195l-41 31c40 54 55 98 55 164zM443 0h-65l-63 133c-39 83 -54 92 -139 92h-38v-225h-62v517h116c58 0 123 3 168 -42c35 -35 43 -70 43 -103c0 -37 -14 -66 -37 -89c-17 -17 -38 -32 -82 -38c47 -4 64 -46 80 -79zM341 375
c0 32 -11 50 -25 64c-31 31 -77 28 -118 28h-60v-191h38c55 0 106 2 139 35c17 17 26 39 26 64z" />
    <glyph glyph-name="Gcommaaccentsmall" unicode="&#xf67f;" horiz-adv-x="535" 
d="M271 -67h72c0 -67 -32 -140 -86 -195l-41 31c40 54 55 98 55 164zM478 37c-9 -6 -66 -47 -174 -47c-145 0 -255 96 -255 263c0 173 118 273 259 273c93 0 145 -33 158 -46l-29 -43c-4 3 -48 33 -122 33c-115 0 -203 -79 -203 -211c0 -154 98 -214 202 -214
c60 0 96 18 104 21v140h-119v51h179v-220z" />
    <glyph glyph-name="Wdieresis" unicode="&#x1e84;" horiz-adv-x="885" 
d="M846 667l-165 -667h-88l-149 617l-152 -617h-88l-165 667h67l143 -615l150 615h94l149 -615l143 615h61zM565 770c0 -25 -20 -45 -45 -45s-45 20 -45 45s20 45 45 45s45 -20 45 -45zM413 770c0 -25 -20 -45 -45 -45s-45 20 -45 45s20 45 45 45s45 -20 45 -45z" />
    <glyph glyph-name="Wcircumflex" unicode="&#x174;" horiz-adv-x="885" 
d="M846 667l-165 -667h-88l-149 617l-152 -617h-88l-165 667h67l143 -615l150 615h94l149 -615l143 615h61zM596 756l-26 -39l-126 69l-126 -69l-28 39l154 99z" />
    <glyph glyph-name="wcircumflex" unicode="&#x175;" horiz-adv-x="739" 
d="M700 480l-140 -480h-74l-121 427l-123 -427h-74l-134 480h61l113 -419l120 419h80l118 -419l115 419h59zM517 586l-26 -39l-126 69l-126 -69l-28 39l154 99z" />
    <glyph glyph-name="wdieresis" unicode="&#x1e85;" horiz-adv-x="739" 
d="M700 480l-140 -480h-74l-121 427l-123 -427h-74l-134 480h61l113 -419l120 419h80l118 -419l115 419h59zM490 615c0 -25 -20 -45 -45 -45s-45 20 -45 45s20 45 45 45s45 -20 45 -45zM338 615c0 -25 -20 -45 -45 -45s-45 20 -45 45s20 45 45 45s45 -20 45 -45z" />
    <glyph glyph-name="Ycircumflex" unicode="&#x176;" horiz-adv-x="541" 
d="M515 667l-213 -404v-263h-63v263l-213 404h70l178 -342l176 342h65zM423 756l-26 -39l-126 69l-126 -69l-28 39l154 99z" />
    <glyph glyph-name="ycircumflex" unicode="&#x177;" horiz-adv-x="483" 
d="M458 480l-190 -514c-30 -81 -53 -118 -84 -149c-29 -29 -74 -44 -118 -44c-48 0 -80 15 -86 17l16 49c7 -2 30 -12 68 -12c31 0 59 9 78 28c30 30 46 68 72 133l-198 492h66l165 -415l149 415h62zM390 586l-26 -39l-126 69l-126 -69l-28 39l154 99z" />
    <glyph glyph-name="Wcircumflexsmall" unicode="&#xf6a6;" horiz-adv-x="747" 
d="M710 517l-136 -517h-80l-119 453l-122 -453h-80l-136 517h66l112 -453l121 453h81l121 -453l112 453h60zM527 606l-26 -39l-126 69l-126 -69l-28 39l154 99z" />
    <glyph glyph-name="Wdieresissmall" unicode="&#xf6a7;" horiz-adv-x="747" 
d="M710 517l-136 -517h-80l-119 453l-122 -453h-80l-136 517h66l112 -453l121 453h81l121 -453l112 453h60zM498 635c0 -25 -20 -45 -45 -45s-45 20 -45 45s20 45 45 45s45 -20 45 -45zM346 635c0 -25 -20 -45 -45 -45s-45 20 -45 45s20 45 45 45s45 -20 45 -45z" />
    <glyph glyph-name="Ycircumflexsmall" unicode="&#xf6a9;" horiz-adv-x="457" 
d="M435 517l-176 -313v-204h-61v204l-176 313h69l141 -256l140 256h63zM382 606l-26 -39l-126 69l-126 -69l-28 39l154 99z" />
    <glyph glyph-name="Tbar" unicode="&#x166;" horiz-adv-x="532" 
d="M416 324h-118v-324h-64v324h-118v54h118v235h-202v54h468v-54h-202v-235h118v-54z" />
    <glyph glyph-name="Wacute" unicode="&#x1e82;" horiz-adv-x="885" 
d="M846 667l-165 -667h-88l-149 617l-152 -617h-88l-165 667h67l143 -615l150 615h94l149 -615l143 615h61zM561 797l-214 -80l-20 39l207 100z" />
    <glyph glyph-name="Wgrave" unicode="&#x1e80;" horiz-adv-x="885" 
d="M846 667l-165 -667h-88l-149 617l-152 -617h-88l-165 667h67l143 -615l150 615h94l149 -615l143 615h61zM561 756l-20 -39l-214 80l27 59z" />
    <glyph glyph-name="Cdotaccent" unicode="&#x10a;" horiz-adv-x="606" 
d="M582 52c-7 -8 -87 -64 -213 -64c-175 0 -314 125 -314 340c0 223 147 352 324 352c117 0 184 -44 195 -55l-29 -47c-7 5 -67 43 -161 43c-144 0 -264 -106 -264 -285c0 -176 100 -289 257 -289c101 0 171 49 175 51zM428 771c0 -25 -20 -45 -45 -45s-45 20 -45 45
s20 45 45 45s45 -20 45 -45z" />
    <glyph glyph-name="Aringacute" unicode="&#x1fa;" horiz-adv-x="581" 
d="M570 0h-68l-68 191h-291l-68 -191h-64l243 667h72zM415 246l-127 354l-126 -354h253zM386 815c0 -54 -44 -98 -98 -98s-98 44 -98 98c0 56 45 98 98 98c55 0 98 -45 98 -98zM345 815c0 33 -26 57 -57 57s-56 -26 -56 -57s25 -56 56 -56c32 0 57 25 57 56zM405 1006
l-214 -80l-20 39l207 100z" />
    <glyph glyph-name="AEacute" unicode="&#x1fc;" horiz-adv-x="844" 
d="M792 0h-360v191h-238l-103 -191h-71l376 667h388v-54h-289v-237h271v-53h-271v-268h297v-55zM432 246v367l-209 -367h209zM676 797l-214 -80l-20 39l207 100z" />
    <glyph glyph-name="Ccircumflex" unicode="&#x108;" horiz-adv-x="606" 
d="M582 52c-7 -8 -87 -64 -213 -64c-175 0 -314 125 -314 340c0 223 147 352 324 352c117 0 184 -44 195 -55l-29 -47c-7 5 -67 43 -161 43c-144 0 -264 -106 -264 -285c0 -176 100 -289 257 -289c101 0 171 49 175 51zM526 756l-26 -39l-126 69l-126 -69l-28 39l154 99z
" />
    <glyph glyph-name="Ncommaaccent" unicode="&#x145;" horiz-adv-x="634" 
d="M548 0h-73l-332 573l2 -573h-59v667h70l335 -578l-2 578h59v-667zM288 -67h72c0 -67 -32 -140 -86 -195l-41 31c40 54 55 98 55 164z" />
    <glyph glyph-name="Ldot" unicode="&#x13f;" horiz-adv-x="470" 
d="M437 0h-351v667h64v-611h287v-56zM339 350c0 -25 -20 -45 -45 -45s-45 20 -45 45s20 45 45 45s45 -20 45 -45z" />
    <glyph glyph-name="Jcircumflex" unicode="&#x134;" horiz-adv-x="358" 
d="M280 207c0 -61 5 -132 -42 -179c-25 -25 -62 -40 -104 -40c-73 0 -122 34 -126 38l25 47c23 -13 53 -29 90 -29c100 0 93 92 93 137v486h64v-460zM400 756l-26 -39l-126 69l-126 -69l-28 39l154 99z" />
    <glyph glyph-name="Ibreve" unicode="&#x12c;" horiz-adv-x="236" 
d="M150 0h-64v667h64v-667zM251 843c-8 -77 -58 -124 -133 -124s-125 47 -133 124h51c7 -42 34 -63 82 -63s75 21 82 63h51z" />
    <glyph glyph-name="Itilde" unicode="&#x128;" horiz-adv-x="236" 
d="M150 0h-64v667h64v-667zM271 763c-30 -30 -64 -45 -99 -45c-38 0 -72 22 -110 22c-22 0 -40 -6 -67 -23l-29 39c37 31 64 43 97 43c39 0 73 -23 110 -23c24 0 48 9 69 27z" />
    <glyph glyph-name="Hbar" unicode="&#x126;" horiz-adv-x="657" 
d="M561 0h-64v324h-337v-324h-64v496h-100v52h100v119h64v-119h337v119h64v-119h100v-52h-100v-496zM160 378h337v118h-337v-118z" />
    <glyph glyph-name="Hcircumflex" unicode="&#x124;" horiz-adv-x="637" 
d="M551 0h-64v324h-337v-324h-64v667h64v-289h337v289h64v-667zM471 756l-26 -39l-126 69l-126 -69l-28 39l154 99z" />
    <glyph glyph-name="Gdotaccent" unicode="&#x120;" horiz-adv-x="660" 
d="M592 44c-6 -5 -81 -57 -221 -57c-178 0 -316 125 -316 341c0 223 147 352 324 352c117 0 184 -44 195 -55l-29 -47c-7 5 -67 43 -161 43c-144 0 -264 -106 -264 -285c0 -176 100 -291 256 -291c100 0 150 31 153 32v195h-153v52h216v-280zM429 771c0 -25 -20 -45 -45 -45
s-45 20 -45 45s20 45 45 45s45 -20 45 -45z" />
    <glyph glyph-name="Gcircumflex" unicode="&#x11c;" horiz-adv-x="660" 
d="M592 44c-6 -5 -81 -57 -221 -57c-178 0 -316 125 -316 341c0 223 147 352 324 352c117 0 184 -44 195 -55l-29 -47c-7 5 -67 43 -161 43c-144 0 -264 -106 -264 -285c0 -176 100 -291 256 -291c100 0 150 31 153 32v195h-153v52h216v-280zM530 756l-26 -39l-126 69
l-126 -69l-28 39l154 99z" />
    <glyph glyph-name="Ebreve" unicode="&#x114;" horiz-adv-x="498" 
d="M446 0h-360v667h352v-54h-289v-237h271v-53h-271v-267h297v-56zM393 843c-8 -77 -58 -124 -133 -124s-125 47 -133 124h51c7 -42 34 -63 82 -63s75 21 82 63h51z" />
    <glyph glyph-name="Scircumflex" unicode="&#x15c;" horiz-adv-x="516" 
d="M455 183c0 -112 -73 -196 -212 -196c-118 0 -188 66 -194 71l33 46c10 -7 76 -60 157 -60c98 0 150 55 150 134c0 32 -14 58 -34 78c-60 60 -180 75 -248 143c-15 15 -40 50 -40 109c0 99 79 171 197 171c121 0 177 -65 183 -71l-34 -40c-8 6 -56 56 -144 56
c-83 0 -140 -48 -140 -115c0 -29 11 -51 29 -69c55 -55 180 -71 245 -136c29 -29 52 -67 52 -121zM418 756l-26 -39l-126 69l-126 -69l-28 39l154 99z" />
    <glyph glyph-name="Oslashacute" unicode="&#x1fe;" horiz-adv-x="701" 
d="M646 336c0 -204 -121 -348 -299 -348c-77 0 -128 31 -135 36l-53 -92l-46 27l54 96c-6 5 -112 90 -112 273c0 206 123 351 300 351c83 0 138 -35 145 -41l54 95l46 -27l-57 -101c5 -5 103 -86 103 -269zM578 340c0 135 -62 204 -68 210l-269 -474c4 -2 49 -33 111 -33
c140 0 226 118 226 297zM470 586c-18 16 -65 38 -121 38c-137 0 -226 -116 -226 -288c0 -106 36 -180 76 -223zM456 797l-214 -80l-20 39l207 100z" />
    <glyph glyph-name="Obreve" unicode="&#x14e;" horiz-adv-x="701" 
d="M646 336c0 -204 -121 -348 -299 -348c-167 0 -292 142 -292 340c0 206 123 351 300 351c169 0 291 -141 291 -343zM578 340c0 169 -96 284 -230 284c-137 0 -225 -116 -225 -288s97 -293 228 -293c140 0 227 118 227 297zM483 864c-8 -77 -58 -124 -133 -124
s-125 47 -133 124h51c7 -42 34 -63 82 -63s75 21 82 63h51z" />
    <glyph glyph-name="Utilde" unicode="&#x168;" horiz-adv-x="617" 
d="M541 346c0 -130 7 -229 -59 -295c-42 -42 -101 -63 -173 -63c-71 0 -133 23 -175 65c-62 62 -58 142 -58 253v361h63v-422c0 -57 -1 -112 42 -155c31 -31 78 -47 131 -47c50 0 94 17 120 43c47 47 46 95 46 228v353h63v-321zM461 763c-30 -30 -64 -45 -99 -45
c-38 0 -72 22 -110 22c-22 0 -40 -6 -67 -23l-29 39c37 31 64 43 97 43c39 0 73 -23 110 -23c24 0 48 9 69 27z" />
    <glyph glyph-name="Ubreve" unicode="&#x16c;" horiz-adv-x="617" 
d="M541 346c0 -130 7 -229 -59 -295c-42 -42 -101 -63 -173 -63c-71 0 -133 23 -175 65c-62 62 -58 142 -58 253v361h63v-422c0 -57 -1 -112 42 -155c31 -31 78 -47 131 -47c50 0 94 17 120 43c47 47 46 95 46 228v353h63v-321zM441 843c-8 -77 -58 -124 -133 -124
s-125 47 -133 124h51c7 -42 34 -63 82 -63s75 21 82 63h51z" />
    <glyph glyph-name="Ygrave" unicode="&#x1ef2;" horiz-adv-x="541" 
d="M515 667l-213 -404v-263h-63v263l-213 404h70l178 -342l176 342h65zM391 756l-20 -39l-214 80l27 59z" />
    <glyph glyph-name="Eng" unicode="&#x14a;" horiz-adv-x="635" 
d="M484 0l-341 573l2 -573h-59v667h70l335 -564l-2 564h59v-675c0 -61 5 -132 -42 -179c-25 -25 -62 -40 -104 -40c-73 0 -122 34 -126 38l25 47c23 -13 53 -29 90 -29c100 0 93 92 93 137v34z" />
    <glyph glyph-name="aringacute" unicode="&#x1fb;" horiz-adv-x="464" 
d="M401 0h-55v36c-4 -2 -68 -46 -153 -46c-92 0 -154 59 -154 146c0 152 194 157 277 157h25v18c0 45 -2 78 -24 101c-15 15 -42 28 -91 28c-74 0 -126 -34 -133 -38l-25 42c4 4 66 49 165 49c61 0 102 -18 130 -46c32 -32 38 -65 38 -138v-309zM341 82v162h-27
c-123 0 -213 -28 -213 -109c0 -48 31 -92 106 -92c62 0 121 33 134 39zM330 631c0 -54 -44 -98 -98 -98s-98 44 -98 98c0 56 45 98 98 98c55 0 98 -45 98 -98zM289 631c0 33 -26 57 -57 57s-56 -26 -56 -57s25 -56 56 -56c32 0 57 25 57 56zM349 829l-214 -80l-20 39
l207 100z" />
    <glyph glyph-name="aeacute" unicode="&#x1fd;" horiz-adv-x="788" 
d="M745 260c0 -5 -2 -22 -2 -32h-344c0 -106 57 -182 165 -182c79 0 133 36 139 39l27 -46c-2 -3 -73 -49 -171 -49s-148 51 -160 64c-35 -27 -93 -63 -192 -63c-101 0 -168 54 -168 138c0 150 206 153 270 153h32v29c0 45 -2 78 -24 101c-15 15 -42 28 -91 28
c-74 0 -126 -34 -133 -38l-25 42c4 4 66 49 165 49c61 0 102 -18 130 -46c14 -14 19 -23 25 -37c33 48 92 82 168 82c111 0 189 -84 189 -232zM684 279c0 71 -33 162 -127 162c-83 0 -150 -62 -156 -162h283zM369 94c-12 23 -28 60 -28 125v12h-34c-88 0 -206 -10 -206 -102
c0 -51 47 -83 109 -83c71 0 129 25 159 48zM581 626l-214 -80l-20 39l207 100z" />
    <glyph glyph-name="ccircumflex" unicode="&#x109;" horiz-adv-x="464" 
d="M434 38c-4 -5 -73 -48 -164 -48c-132 0 -227 91 -227 240c0 155 98 262 239 262c84 0 141 -43 145 -47l-27 -42c-10 6 -51 35 -121 35c-104 0 -174 -86 -174 -199c0 -118 71 -193 168 -193c76 0 127 33 135 37zM428 586l-26 -39l-126 69l-126 -69l-28 39l154 99z" />
    <glyph glyph-name="cdotaccent" unicode="&#x10b;" horiz-adv-x="464" 
d="M434 38c-4 -5 -73 -48 -164 -48c-132 0 -227 91 -227 240c0 155 98 262 239 262c84 0 141 -43 145 -47l-27 -42c-10 6 -51 35 -121 35c-104 0 -174 -86 -174 -199c0 -118 71 -193 168 -193c76 0 127 33 135 37zM322 615c0 -25 -20 -45 -45 -45s-45 20 -45 45s20 45 45 45
s45 -20 45 -45z" />
    <glyph glyph-name="ebreve" unicode="&#x115;" horiz-adv-x="494" 
d="M451 260c0 -5 -2 -22 -2 -32h-344c0 -106 57 -182 165 -182c79 0 133 36 139 39l27 -46c-2 -3 -73 -49 -171 -49c-140 0 -222 102 -222 247c0 155 86 255 219 255c111 0 189 -84 189 -232zM390 279c0 71 -33 162 -127 162c-83 0 -150 -62 -156 -162h283zM395 677
c-8 -77 -58 -124 -133 -124s-125 47 -133 124h51c7 -42 34 -63 82 -63s75 21 82 63h51z" />
    <glyph glyph-name="gcircumflex" unicode="&#x11d;" horiz-adv-x="519" 
d="M449 -7c0 -85 -9 -130 -45 -167c-42 -42 -92 -53 -156 -53c-107 0 -173 54 -178 59l27 42c7 -4 65 -48 147 -48c59 0 92 15 113 37c30 30 31 63 31 140v37c-9 -5 -64 -41 -140 -41c-120 0 -205 99 -205 237c0 148 100 256 239 256c84 0 157 -37 167 -41v-458zM388 98v318
c-7 3 -47 23 -109 23c-105 0 -174 -82 -174 -202c0 -110 60 -185 149 -185c70 0 127 42 134 46zM434 586l-26 -39l-126 69l-126 -69l-28 39l154 99z" />
    <glyph glyph-name="gdotaccent" unicode="&#x121;" horiz-adv-x="519" 
d="M449 -7c0 -85 -9 -130 -45 -167c-42 -42 -92 -53 -156 -53c-107 0 -173 54 -178 59l27 42c7 -4 65 -48 147 -48c59 0 92 15 113 37c30 30 31 63 31 140v37c-9 -5 -64 -41 -140 -41c-120 0 -205 99 -205 237c0 148 100 256 239 256c84 0 157 -37 167 -41v-458zM388 98v318
c-7 3 -47 23 -109 23c-105 0 -174 -82 -174 -202c0 -110 60 -185 149 -185c70 0 127 42 134 46zM330 615c0 -25 -20 -45 -45 -45s-45 20 -45 45s20 45 45 45s45 -20 45 -45z" />
    <glyph glyph-name="hcircumflex" unicode="&#x125;" horiz-adv-x="503" 
d="M440 0h-60v280c0 60 1 103 -28 132c-17 17 -46 27 -75 27c-71 0 -145 -45 -147 -47v-392h-60v720h60v-274c4 4 74 46 153 46c43 0 88 -15 110 -37c41 -41 47 -77 47 -166v-289zM254 826l-26 -39l-126 69l-126 -69l-28 39l154 99z" />
    <glyph glyph-name="hbar" unicode="&#x127;" horiz-adv-x="503" 
d="M284 570h-154v-124c4 4 74 46 153 46c43 0 88 -15 110 -37c41 -41 47 -77 47 -166v-289h-60v280c0 60 1 103 -28 132c-17 17 -46 27 -75 27c-71 0 -145 -45 -147 -47v-392h-60v570h-84v49h84v101h60v-101h154v-49z" />
    <glyph glyph-name="itilde" unicode="&#x129;" horiz-adv-x="200" 
d="M130 0h-60v480h60v-480zM253 618c-30 -30 -64 -45 -99 -45c-38 0 -72 22 -110 22c-22 0 -40 -6 -67 -23l-29 39c37 31 64 43 97 43c39 0 73 -23 110 -23c24 0 48 9 69 27z" />
    <glyph glyph-name="ibreve" unicode="&#x12d;" horiz-adv-x="200" 
d="M130 0h-60v480h60v-480zM233 677c-8 -77 -58 -124 -133 -124s-125 47 -133 124h51c7 -42 34 -63 82 -63s75 21 82 63h51z" />
    <glyph glyph-name="jcircumflex" unicode="&#x135;" horiz-adv-x="200" 
d="M130 480v-536c0 -65 -9 -102 -40 -133c-25 -25 -62 -38 -102 -38c-36 0 -57 10 -66 14l14 47c9 -3 24 -9 51 -9c73 0 83 54 83 112v543h60zM254 586l-26 -39l-126 69l-126 -69l-28 39l154 99z" />
    <glyph glyph-name="ldot" unicode="&#x140;" horiz-adv-x="345" 
d="M130 0h-60v720h60v-720zM310 346c0 -25 -20 -45 -45 -45s-45 20 -45 45s20 45 45 45s45 -20 45 -45z" />
    <glyph glyph-name="eng" unicode="&#x14b;" horiz-adv-x="503" 
d="M440 289v-345c0 -65 -9 -102 -40 -133c-25 -25 -62 -38 -102 -38c-36 0 -57 10 -66 14l14 47c9 -3 24 -9 51 -9c73 0 83 54 83 112v343c0 60 1 103 -28 132c-17 17 -46 27 -75 27c-71 0 -145 -45 -147 -47v-392h-60v480h57v-35c8 5 77 47 158 47c34 0 79 -8 111 -40
c37 -37 44 -74 44 -163z" />
    <glyph glyph-name="obreve" unicode="&#x14f;" horiz-adv-x="523" 
d="M480 236c0 -150 -85 -248 -220 -248c-131 0 -217 98 -217 252c0 152 84 252 222 252c130 0 215 -97 215 -256zM418 238c0 121 -68 202 -157 202c-96 0 -156 -79 -156 -198c0 -121 67 -201 157 -201c99 0 156 77 156 197zM396 677c-8 -77 -58 -124 -133 -124
s-125 47 -133 124h51c7 -42 34 -63 82 -63s75 21 82 63h51z" />
    <glyph glyph-name="oslashacute" unicode="&#x1ff;" horiz-adv-x="523" 
d="M480 236c0 -150 -85 -248 -220 -248c-55 0 -86 17 -94 21l-36 -61l-45 26l37 63c-46 40 -79 108 -79 203c0 152 85 252 222 252c58 0 102 -23 106 -28l38 63l44 -27l-40 -68c6 -6 67 -63 67 -196zM418 238c0 68 -22 115 -38 136l-185 -316c7 -4 32 -17 67 -17
c99 0 156 77 156 197zM342 413c-15 13 -47 27 -81 27c-96 0 -156 -79 -156 -198c0 -76 27 -124 49 -151zM381 626l-214 -80l-20 39l207 100z" />
    <glyph glyph-name="scircumflex" unicode="&#x15d;" horiz-adv-x="416" 
d="M366 131c0 -90 -67 -143 -173 -143c-91 0 -157 43 -161 47l26 46c3 -2 63 -40 131 -40c72 0 115 32 115 84c0 65 -70 84 -120 103c-71 28 -133 51 -133 138c0 77 70 126 160 126c85 0 141 -39 145 -43l-24 -43c-7 4 -56 34 -116 34c-56 0 -103 -28 -103 -72
c0 -56 49 -69 103 -91c65 -26 150 -53 150 -146zM364 586l-26 -39l-126 69l-126 -69l-28 39l154 99z" />
    <glyph glyph-name="tbar" unicode="&#x167;" horiz-adv-x="370" 
d="M320 275h-154v-116c0 -66 -5 -116 75 -116c37 0 66 14 71 15l16 -46c-8 -4 -41 -23 -95 -23c-44 0 -76 11 -99 34c-28 28 -28 66 -28 124v128h-84v49h84v107h-84v49h84v136h60v-136h154v-49h-154v-107h154v-49z" />
    <glyph glyph-name="utilde" unicode="&#x169;" horiz-adv-x="503" 
d="M433 0h-55v38c-9 -6 -73 -48 -156 -48c-45 0 -86 13 -116 43c-48 48 -43 118 -43 173v274h60v-286c0 -51 0 -94 28 -122c19 -19 45 -29 75 -29c71 0 139 43 147 47v390h60v-480zM404 618c-30 -30 -64 -45 -99 -45c-38 0 -72 22 -110 22c-22 0 -40 -6 -67 -23l-29 39
c37 31 64 43 97 43c39 0 73 -23 110 -23c24 0 48 9 69 27z" />
    <glyph glyph-name="ubreve" unicode="&#x16d;" horiz-adv-x="503" 
d="M433 0h-55v38c-9 -6 -73 -48 -156 -48c-45 0 -86 13 -116 43c-48 48 -43 118 -43 173v274h60v-286c0 -51 0 -94 28 -122c19 -19 45 -29 75 -29c71 0 139 43 147 47v390h60v-480zM381 677c-8 -77 -58 -124 -133 -124s-125 47 -133 124h51c7 -42 34 -63 82 -63s75 21 82 63
h51z" />
    <glyph glyph-name="wacute" unicode="&#x1e83;" horiz-adv-x="739" 
d="M700 480l-140 -480h-74l-121 427l-123 -427h-74l-134 480h61l113 -419l120 419h80l118 -419l115 419h59zM482 626l-214 -80l-20 39l207 100z" />
    <glyph glyph-name="wgrave" unicode="&#x1e81;" horiz-adv-x="739" 
d="M700 480l-140 -480h-74l-121 427l-123 -427h-74l-134 480h61l113 -419l120 419h80l118 -419l115 419h59zM482 585l-20 -39l-214 80l27 59z" />
    <glyph glyph-name="ygrave" unicode="&#x1ef3;" horiz-adv-x="483" 
d="M458 480l-190 -514c-30 -81 -53 -118 -84 -149c-29 -29 -74 -44 -118 -44c-48 0 -80 15 -86 17l16 49c7 -2 30 -12 68 -12c31 0 59 9 78 28c30 30 46 68 72 133l-198 492h66l165 -415l149 415h62zM358 585l-20 -39l-214 80l27 59z" />
    <glyph glyph-name="Aringacutesmall" horiz-adv-x="491" 
d="M480 0h-67l-56 145h-229l-55 -145h-62l201 517h66zM337 197l-95 251l-95 -251h190zM340 651c0 -54 -44 -98 -98 -98s-98 44 -98 98c0 56 45 98 98 98c55 0 98 -45 98 -98zM299 651c0 33 -26 57 -57 57s-56 -26 -56 -57s25 -56 56 -56c32 0 57 25 57 56zM355 839l-214 -80
l-20 39l207 100z" />
    <glyph glyph-name="AEacutesmall" unicode="&#xf670;" horiz-adv-x="700" 
d="M650 0h-298v145h-187l-84 -145h-70l314 517h319v-52h-231v-169h217v-51h-217v-192h237v-53zM352 197v266l-157 -266h157zM596 646l-214 -80l-20 39l207 100z" />
    <glyph glyph-name="Ccircumflexsmall" unicode="&#xf672;" horiz-adv-x="492" 
d="M473 43c-10 -11 -74 -53 -174 -53c-140 0 -250 96 -250 263c0 173 118 273 259 273c93 0 145 -33 158 -46l-29 -43c-4 3 -48 33 -122 33c-115 0 -203 -79 -203 -211c0 -131 75 -213 194 -213c84 0 135 38 139 40zM460 606l-26 -39l-126 69l-126 -69l-28 39l154 99z" />
    <glyph glyph-name="Cdotaccentsmall" unicode="&#xf674;" horiz-adv-x="492" 
d="M473 43c-10 -11 -74 -53 -174 -53c-140 0 -250 96 -250 263c0 173 118 273 259 273c93 0 145 -33 158 -46l-29 -43c-4 3 -48 33 -122 33c-115 0 -203 -79 -203 -211c0 -131 75 -213 194 -213c84 0 135 38 139 40zM357 635c0 -25 -20 -45 -45 -45s-45 20 -45 45
s20 45 45 45s45 -20 45 -45z" />
    <glyph glyph-name="Ebrevesmall" unicode="&#xf677;" horiz-adv-x="424" 
d="M374 0h-298v517h292v-52h-231v-169h217v-51h-217v-192h237v-53zM351 697c-8 -77 -58 -124 -133 -124s-125 47 -133 124h51c7 -42 34 -63 82 -63s75 21 82 63h51z" />
    <glyph glyph-name="Gcircumflexsmall" unicode="&#xf67e;" horiz-adv-x="535" 
d="M478 37c-9 -6 -66 -47 -174 -47c-145 0 -255 96 -255 263c0 173 118 273 259 273c93 0 145 -33 158 -46l-29 -43c-4 3 -48 33 -122 33c-115 0 -203 -79 -203 -211c0 -154 98 -214 202 -214c60 0 96 18 104 21v140h-119v51h179v-220zM460 606l-26 -39l-126 69l-126 -69
l-28 39l154 99z" />
    <glyph glyph-name="Gdotaccentsmall" unicode="&#xf680;" horiz-adv-x="535" 
d="M353 635c0 -25 -20 -45 -45 -45s-45 20 -45 45s20 45 45 45s45 -20 45 -45zM478 37c-9 -6 -66 -47 -174 -47c-145 0 -255 96 -255 263c0 173 118 273 259 273c93 0 145 -33 158 -46l-29 -43c-4 3 -48 33 -122 33c-115 0 -203 -79 -203 -211c0 -154 98 -214 202 -214
c60 0 96 18 104 21v140h-119v51h179v-220z" />
    <glyph glyph-name="Hcircumflexsmall" unicode="&#xf682;" horiz-adv-x="537" 
d="M461 0h-62v246h-261v-246h-62v517h62v-219h261v219h62v-517zM420 606l-26 -39l-126 69l-126 -69l-28 39l154 99z" />
    <glyph glyph-name="Hbarsmall" unicode="&#xf681;" horiz-adv-x="537" 
d="M-5 381v51h81v85h62v-85h261v85h62v-85h81v-51h-81v-381h-62v246h-261v-246h-62v381h-81zM138 298h261v83h-261v-83z" />
    <glyph glyph-name="Itildesmall" unicode="&#xf687;" horiz-adv-x="214" 
d="M138 0h-62v517h62v-517zM260 638c-30 -30 -64 -45 -99 -45c-38 0 -72 22 -110 22c-22 0 -40 -6 -67 -23l-29 39c37 31 64 43 97 43c39 0 73 -23 110 -23c24 0 48 9 69 27z" />
    <glyph glyph-name="Ibrevesmall" unicode="&#xf683;" horiz-adv-x="214" 
d="M138 0h-62v517h62v-517zM240 697c-8 -77 -58 -124 -133 -124s-125 47 -133 124h51c7 -42 34 -63 82 -63s75 21 82 63h51z" />
    <glyph glyph-name="Idotaccentsmall" unicode="&#xf6ad;" horiz-adv-x="214" 
d="M138 0h-62v517h62v-517zM152 635c0 -25 -20 -45 -45 -45s-45 20 -45 45s20 45 45 45s45 -20 45 -45z" />
    <glyph glyph-name="Jcircumflexsmall" unicode="&#xf688;" horiz-adv-x="311" 
d="M235 162c0 -62 0 -105 -33 -138c-22 -22 -53 -34 -88 -34c-60 0 -99 27 -106 34l24 44c6 -3 35 -24 78 -24c67 0 64 68 64 98v375h61v-355zM356 606l-26 -39l-126 69l-126 -69l-28 39l154 99z" />
    <glyph glyph-name="Ldotsmall" unicode="&#xf68d;" horiz-adv-x="395" 
d="M367 0h-291v517h62v-464h229v-53zM298 271c0 -25 -20 -45 -45 -45s-45 20 -45 45s20 45 45 45s45 -20 45 -45z" />
    <glyph glyph-name="Engsmall" unicode="&#xf67b;" horiz-adv-x="536" 
d="M460 517v-572c0 -62 0 -105 -33 -138c-22 -22 -53 -34 -88 -34c-60 0 -99 27 -106 34l24 44c6 -3 35 -24 78 -24c67 0 64 68 64 98v75l-267 424l3 -424h-59v517h65l263 -420l-3 420h59z" />
    <glyph glyph-name="Obrevesmall" unicode="&#xf691;" horiz-adv-x="589" 
d="M540 259c0 -158 -100 -269 -248 -269c-139 0 -243 110 -243 263c0 159 102 272 249 272c141 0 242 -110 242 -266zM474 262c0 126 -77 211 -182 211c-107 0 -177 -85 -177 -214s77 -217 180 -217c110 0 179 86 179 220zM428 697c-8 -77 -58 -124 -133 -124
s-125 47 -133 124h51c7 -42 34 -63 82 -63s75 21 82 63h51z" />
    <glyph glyph-name="Oslashacutesmall" unicode="&#xf694;" horiz-adv-x="589" 
d="M540 259c0 -158 -100 -269 -248 -269c-65 0 -102 22 -108 25l-43 -70l-46 26l44 74c-5 4 -90 70 -90 208c0 159 102 272 249 272c68 0 110 -25 115 -28l45 73l46 -26l-48 -79c11 -10 84 -74 84 -206zM473 262c0 93 -43 142 -50 150l-211 -348c6 -4 34 -22 82 -22
c110 0 179 86 179 220zM383 447c-5 4 -41 26 -92 26c-107 0 -177 -85 -177 -214c0 -108 53 -159 57 -162zM406 646l-214 -80l-20 39l207 100z" />
    <glyph glyph-name="Scircumflexsmall" unicode="&#xf69a;" horiz-adv-x="432" 
d="M379 144c0 -88 -61 -154 -175 -154c-99 0 -158 52 -164 58l33 44c7 -5 61 -48 128 -48c85 0 115 47 115 96c0 22 -8 37 -22 51c-51 51 -147 58 -201 112c-13 13 -36 37 -36 88c0 79 67 135 164 135c103 0 148 -53 154 -59l-33 -38c-10 9 -48 45 -117 45
c-65 0 -108 -35 -108 -82c0 -20 7 -34 20 -47c42 -42 146 -52 203 -109c26 -26 39 -56 39 -92zM375 606l-26 -39l-126 69l-126 -69l-28 39l154 99z" />
    <glyph glyph-name="Tbarsmall" unicode="&#xf69c;" horiz-adv-x="447" 
d="M93 246v52h100v167h-164v52h389v-52h-163v-167h100v-52h-100v-246h-62v246h-100z" />
    <glyph glyph-name="Utildesmall" unicode="&#xf6a4;" horiz-adv-x="521" 
d="M453 231c0 -82 1 -141 -45 -187c-37 -37 -86 -54 -147 -54c-58 0 -110 18 -145 51c-40 38 -47 85 -48 137v59v280h61v-326c0 -41 -1 -83 32 -114c24 -22 60 -34 102 -34c39 0 74 12 94 31c32 30 34 64 35 105v64v274h61v-286zM412 638c-30 -30 -64 -45 -99 -45
c-38 0 -72 22 -110 22c-22 0 -40 -6 -67 -23l-29 39c37 31 64 43 97 43c39 0 73 -23 110 -23c24 0 48 9 69 27z" />
    <glyph glyph-name="Ubrevesmall" unicode="&#xf69f;" horiz-adv-x="521" 
d="M453 231c0 -82 1 -141 -45 -187c-37 -37 -86 -54 -147 -54c-58 0 -110 18 -145 51c-40 38 -47 85 -48 137v59v280h61v-326c0 -41 -1 -83 32 -114c24 -22 60 -34 102 -34c39 0 74 12 94 31c32 30 34 64 35 105v64v274h61v-286zM395 697c-8 -77 -58 -124 -133 -124
s-125 47 -133 124h51c7 -42 34 -63 82 -63s75 21 82 63h51z" />
    <glyph glyph-name="Wacutesmall" unicode="&#xf6a5;" horiz-adv-x="747" 
d="M710 517l-136 -517h-80l-119 453l-122 -453h-80l-136 517h66l112 -453l121 453h81l121 -453l112 453h60zM492 646l-214 -80l-20 39l207 100z" />
    <glyph glyph-name="Wgravesmall" unicode="&#xf6a8;" horiz-adv-x="747" 
d="M710 517l-136 -517h-80l-119 453l-122 -453h-80l-136 517h66l112 -453l121 453h81l121 -453l112 453h60zM492 605l-20 -39l-214 80l27 59z" />
    <glyph glyph-name="Ygravesmall" unicode="&#xf6aa;" horiz-adv-x="457" 
d="M435 517l-176 -313v-204h-61v204l-176 313h69l141 -256l140 256h63zM349 605l-20 -39l-214 80l27 59z" />
    <glyph glyph-name="afii10017" unicode="&#x410;" horiz-adv-x="581" 
d="M570 0h-68l-68 191h-291l-68 -191h-64l243 667h72zM415 246l-127 354l-126 -354h253z" />
    <glyph glyph-name="afii10018" unicode="&#x411;" horiz-adv-x="556" 
d="M86 0v667h352v-54h-288v-222h68c94 0 166 4 228 -58c24 -24 53 -71 53 -141c0 -53 -18 -104 -54 -140c-49 -49 -117 -52 -197 -52h-162zM433 191c0 53 -15 82 -40 107c-40 40 -101 38 -179 38h-64v-281h106c70 0 177 2 177 136z" />
    <glyph glyph-name="afii10019" unicode="&#x412;" horiz-adv-x="556" 
d="M501 189c0 -49 -17 -95 -50 -128c-65 -65 -149 -61 -282 -61h-83v667h168c69 0 127 -3 173 -49c34 -34 52 -77 52 -129c0 -75 -44 -134 -113 -147c88 -14 135 -66 135 -153zM414 492c0 34 -12 64 -33 85c-43 43 -115 38 -181 38h-50v-251h66c58 0 125 5 165 45
c21 21 33 49 33 83zM436 187c0 29 -9 58 -35 84c-47 47 -131 41 -201 41h-50v-259h73c86 0 137 5 180 48c22 22 33 59 33 86z" />
    <glyph glyph-name="afii10020" unicode="&#x413;" horiz-adv-x="470" 
d="M86 667h352v-54h-288v-613h-64v667z" />
    <glyph glyph-name="afii10021" unicode="&#x414;" horiz-adv-x="647" 
d="M50 -122v180c20 1 35 7 47 19c18 17 29 39 42 94l115 496h285v-609h54v-180h-62v124h-419v-124h-62zM151 58h324v555h-168l-106 -458c-7 -29 -21 -88 -50 -97z" />
    <glyph glyph-name="afii10022" unicode="&#x415;" horiz-adv-x="498" 
d="M446 0h-360v667h352v-54h-289v-237h271v-53h-271v-267h297v-56z" />
    <glyph glyph-name="afii10024" unicode="&#x416;" horiz-adv-x="840" 
d="M451 0h-64v319l-299 -319h-78l314 338l-303 329h75l291 -314v314h64v-314l291 314h73l-301 -327l316 -340h-80l-299 319v-319z" />
    <glyph glyph-name="afii10025" unicode="&#x417;" horiz-adv-x="514" 
d="M459 184c0 -123 -101 -196 -231 -196c-137 0 -196 61 -204 71l35 41c3 -2 61 -55 160 -55c105 0 175 50 175 135c0 127 -125 135 -222 135h-13v55h21c66 0 125 3 170 47c22 21 34 50 34 83c0 72 -56 123 -148 123c-93 0 -157 -54 -162 -59l-35 41c3 5 77 75 199 75
c130 0 209 -73 209 -178c0 -74 -48 -148 -136 -159c91 -8 148 -66 148 -159z" />
    <glyph glyph-name="afii10026" unicode="&#x418;" horiz-adv-x="634" 
d="M157 0h-71v667h59v-580l335 580h68v-667h-59v575z" />
    <glyph glyph-name="afii10027" unicode="&#x419;" horiz-adv-x="634" 
d="M86 0h71l332 575v-575h59v667h-68l-335 -580v580h-59v-667zM450 864c0 -77 -58 -124 -133 -124s-133 47 -133 124h51c7 -42 34 -63 82 -63s75 21 82 63h51z" />
    <glyph glyph-name="afii10028" unicode="&#x41a;" horiz-adv-x="539" 
d="M529 0h-80l-300 319v-319h-63v667h63v-314l292 314h73l-301 -327z" />
    <glyph glyph-name="afii10029" unicode="&#x41b;" horiz-adv-x="615" 
d="M529 0h-64v613h-178l-103 -459c-10 -45 -23 -92 -56 -125c-26 -26 -59 -37 -117 -37v54c31 0 52 7 68 21c23 19 32 54 43 102l112 498h295v-667z" />
    <glyph glyph-name="afii10030" unicode="&#x41c;" horiz-adv-x="874" 
d="M796 0h-66l-63 574l-207 -574h-53l-209 574l-61 -574h-59l76 667h72l212 -575l207 575h73z" />
    <glyph glyph-name="afii10031" unicode="&#x41d;" horiz-adv-x="637" 
d="M551 0h-64v324h-337v-324h-64v667h64v-289h337v289h64v-667z" />
    <glyph glyph-name="afii10032" unicode="&#x41e;" horiz-adv-x="701" 
d="M646 336c0 -204 -121 -348 -299 -348c-167 0 -292 142 -292 340c0 206 123 351 300 351c169 0 291 -141 291 -343zM578 340c0 169 -96 284 -230 284c-137 0 -225 -116 -225 -288s97 -293 228 -293c140 0 227 118 227 297z" />
    <glyph glyph-name="afii10033" unicode="&#x41f;" horiz-adv-x="637" 
d="M551 0h-64v613h-337v-613h-64v667h465v-667z" />
    <glyph glyph-name="afii10034" unicode="&#x420;" horiz-adv-x="540" 
d="M489 475c0 -70 -29 -117 -53 -141c-62 -62 -134 -58 -228 -58h-59v-276h-63v667h152c80 0 148 -3 197 -52c36 -36 54 -87 54 -140zM425 476c0 40 -14 79 -41 106c-34 34 -94 33 -152 33h-83v-287h55c78 0 139 -2 179 38c25 25 42 57 42 110z" />
    <glyph glyph-name="afii10035" unicode="&#x421;" horiz-adv-x="606" 
d="M582 52c-7 -8 -87 -64 -213 -64c-175 0 -314 125 -314 340c0 223 147 352 324 352c117 0 184 -44 195 -55l-29 -47c-7 5 -67 43 -161 43c-144 0 -264 -106 -264 -285c0 -176 100 -289 257 -289c101 0 171 49 175 51z" />
    <glyph glyph-name="afii10036" unicode="&#x422;" horiz-adv-x="532" 
d="M500 613h-202v-613h-64v613h-202v54h468v-54z" />
    <glyph glyph-name="afii10037" unicode="&#x423;" horiz-adv-x="568" 
d="M544 667l-210 -452c-65 -138 -102 -220 -221 -220c-48 0 -82 15 -86 17l16 49c7 -2 30 -12 68 -12c31 0 59 9 78 28c30 30 56 89 85 154l-219 436h70l184 -376l169 376h66z" />
    <glyph glyph-name="afii10038" unicode="&#x424;" horiz-adv-x="671" 
d="M623 331c0 -147 -100 -247 -260 -258v-73h-56v73c-159 7 -259 108 -259 261c0 149 96 251 259 261v72h56v-72c157 -8 260 -107 260 -264zM112 336c0 -128 78 -203 195 -212v421c-122 -8 -195 -83 -195 -209zM559 333c0 135 -84 200 -196 212v-421c124 9 196 73 196 209z
" />
    <glyph glyph-name="afii10039" unicode="&#x425;" horiz-adv-x="558" 
d="M531 0h-74l-181 296l-180 -296h-69l213 347l-199 320h75l162 -270l161 270h70l-197 -321z" />
    <glyph glyph-name="afii10040" unicode="&#x426;" horiz-adv-x="659" 
d="M543 0h-457v667h64v-611h337v611h64v-611h54v-178h-62v122z" />
    <glyph glyph-name="afii10041" unicode="&#x427;" horiz-adv-x="626" 
d="M306 278c-73 0 -132 22 -174 64c-45 45 -57 93 -57 204v121h63v-132c0 -57 -1 -112 42 -155c31 -31 78 -47 131 -47c111 0 163 45 165 47v287h64v-667h-64v319c-5 -3 -64 -41 -170 -41z" />
    <glyph glyph-name="afii10042" unicode="&#x428;" horiz-adv-x="827" 
d="M741 0h-655v667h64v-611h227v611h64v-611h236v611h64v-667z" />
    <glyph glyph-name="afii10043" unicode="&#x429;" horiz-adv-x="849" 
d="M733 0h-647v667h64v-611h227v611h64v-611h236v611h64v-611h54v-178h-62v122z" />
    <glyph glyph-name="afii10044" unicode="&#x42a;" horiz-adv-x="672" 
d="M208 0v613h-176v54h240v-276h68c94 0 166 4 228 -58c24 -24 53 -71 53 -141c0 -53 -18 -104 -54 -140c-49 -49 -117 -52 -197 -52h-162zM555 191c0 53 -15 82 -40 107c-40 40 -101 38 -179 38h-64v-281h106c70 0 177 2 177 136z" />
    <glyph glyph-name="afii10045" unicode="&#x42b;" horiz-adv-x="741" 
d="M655 0h-64v667h64v-667zM86 0v667h64v-276h68c94 0 166 4 228 -58c24 -24 53 -71 53 -141c0 -53 -18 -104 -54 -140c-49 -49 -117 -52 -197 -52h-162zM433 191c0 53 -15 82 -40 107c-40 40 -101 38 -179 38h-64v-281h106c70 0 177 2 177 136z" />
    <glyph glyph-name="afii10046" unicode="&#x42c;" horiz-adv-x="550" 
d="M86 0v667h64v-276h68c94 0 166 4 228 -58c24 -24 53 -71 53 -141c0 -53 -18 -104 -54 -140c-49 -49 -117 -52 -197 -52h-162zM433 191c0 53 -15 82 -40 107c-40 40 -101 38 -179 38h-64v-281h106c70 0 177 2 177 136z" />
    <glyph glyph-name="afii10047" unicode="&#x42d;" horiz-adv-x="606" 
d="M24 52l30 46c4 -2 74 -51 175 -51c148 0 245 100 256 259h-335v54h335c-10 164 -125 261 -263 261c-94 0 -154 -38 -161 -43l-29 47c11 11 78 55 195 55c177 0 324 -129 324 -352c0 -215 -139 -340 -314 -340c-126 0 -206 56 -213 64z" />
    <glyph glyph-name="afii10048" unicode="&#x42e;" horiz-adv-x="947" 
d="M892 336c0 -204 -121 -348 -299 -348c-166 0 -291 140 -292 336h-151v-324h-64v667h64v-289h154c17 178 134 301 297 301c169 0 291 -141 291 -343zM824 340c0 169 -96 284 -230 284c-137 0 -225 -116 -225 -288s97 -293 228 -293c140 0 227 118 227 297z" />
    <glyph glyph-name="afii10049" unicode="&#x42f;" horiz-adv-x="553" 
d="M95 0h-69l93 208c22 48 34 68 49 83c12 12 27 24 53 26c-87 14 -146 76 -146 169c0 51 18 97 52 131c50 50 114 50 203 50h137v-667h-63v297h-54c-108 0 -129 -14 -179 -126zM138 487c0 -130 120 -138 217 -138h49v266h-82c-55 0 -109 3 -151 -39
c-17 -17 -33 -49 -33 -89z" />
    <glyph glyph-name="afii10050" unicode="&#x490;" horiz-adv-x="470" 
d="M378 667v117h60v-171h-288v-613h-64v667h292z" />
    <glyph glyph-name="afii10055" unicode="&#x406;" horiz-adv-x="236" 
d="M150 0h-64v667h64v-667z" />
    <glyph glyph-name="afii10051" unicode="&#x402;" horiz-adv-x="694" 
d="M624 126c0 -270 -38 -354 -208 -354c-31 0 -57 7 -66 11l13 52c10 -3 31 -7 51 -7c131 0 144 71 144 290c0 143 -16 187 -38 209s-52 29 -90 29c-75 0 -145 -37 -167 -52v-304h-64v613h-167v54h408v-54h-177v-250c47 26 109 49 172 49c64 0 106 -17 135 -46
c21 -21 54 -64 54 -240z" />
    <glyph glyph-name="afii10099" unicode="&#x452;" horiz-adv-x="539" 
d="M476 -56c0 -65 -9 -102 -40 -133c-25 -25 -62 -38 -102 -38c-36 0 -62 10 -69 15l18 47c7 -3 23 -10 50 -10c73 0 83 54 83 112v343c0 60 1 103 -28 132c-17 17 -46 27 -75 27c-71 0 -145 -45 -147 -47v-392h-60v593h-84v49h84v78h60v-78h164v-49h-164v-147
c4 4 74 46 153 46c43 0 88 -15 110 -37c41 -41 47 -77 47 -166v-345z" />
    <glyph glyph-name="afii10052" unicode="&#x403;" horiz-adv-x="470" 
d="M438 667h-352v-667h64v613h288v54zM379 797l-214 -80l-20 39l207 100z" />
    <glyph glyph-name="afii10100" unicode="&#x453;" horiz-adv-x="396" 
d="M342 626l-214 -80l-20 39l207 100zM130 0h-60v480h310v-51h-250v-429z" />
    <glyph glyph-name="afii10103" unicode="&#x456;" horiz-adv-x="200" 
d="M140 642c0 -22 -18 -40 -40 -40s-40 18 -40 40s18 40 40 40s40 -18 40 -40zM130 0h-60v480h60v-480z" />
    <glyph glyph-name="afii10098" unicode="&#x491;" horiz-adv-x="396" 
d="M70 480h254v113h56v-164h-250v-429h-60v480z" />
    <glyph glyph-name="afii10057" unicode="&#x408;" horiz-adv-x="358" 
d="M280 207c0 -61 5 -132 -42 -179c-25 -25 -62 -40 -104 -40c-73 0 -122 34 -126 38l25 47c23 -13 53 -29 90 -29c100 0 93 92 93 137v486h64v-460z" />
    <glyph glyph-name="afii10053" unicode="&#x404;" horiz-adv-x="606" 
d="M582 52c-7 -8 -87 -64 -213 -64c-175 0 -314 125 -314 340c0 223 147 352 324 352c117 0 184 -44 195 -55l-29 -47c-7 5 -67 43 -161 43c-138 0 -253 -97 -263 -261h335v-54h-335c11 -159 108 -259 256 -259c101 0 171 49 175 51z" />
    <glyph glyph-name="afii10101" unicode="&#x454;" horiz-adv-x="464" 
d="M434 38c-4 -5 -73 -48 -164 -48c-132 0 -227 91 -227 240c0 155 98 262 239 262c84 0 141 -43 145 -47l-27 -42c-10 6 -51 35 -121 35c-95 0 -162 -73 -173 -171h246v-49h-246c8 -105 76 -172 167 -172c76 0 127 33 135 37z" />
    <glyph glyph-name="afii10056" unicode="&#x407;" horiz-adv-x="236" 
d="M150 0h-64v667h64v-667zM239 770c0 -25 -20 -45 -45 -45s-45 20 -45 45s20 45 45 45s45 -20 45 -45zM87 770c0 -25 -20 -45 -45 -45s-45 20 -45 45s20 45 45 45s45 -20 45 -45z" />
    <glyph glyph-name="afii10104" unicode="&#x457;" horiz-adv-x="200" 
d="M130 0h-60v480h60v-480zM221 615c0 -25 -20 -45 -45 -45s-45 20 -45 45s20 45 45 45s45 -20 45 -45zM69 615c0 -25 -20 -45 -45 -45s-45 20 -45 45s20 45 45 45s45 -20 45 -45z" />
    <glyph glyph-name="afii10058" unicode="&#x409;" horiz-adv-x="929" 
d="M529 55h106c70 0 177 2 177 136c0 132 -99 132 -201 132h-82v-268zM529 667v-289h83c94 0 165 0 217 -52c24 -24 49 -68 49 -134c0 -53 -18 -104 -54 -140c-49 -49 -117 -52 -197 -52h-162v613h-178l-103 -459c-10 -45 -23 -92 -56 -125c-26 -26 -59 -37 -117 -37v54
c31 0 52 7 68 21c23 19 32 54 43 102l112 498h295z" />
    <glyph glyph-name="afii10106" unicode="&#x459;" horiz-adv-x="708" 
d="M341 429h-138l-74 -323c-18 -80 -48 -112 -134 -113v48c58 0 68 25 83 92l79 347h244v-201h62c105 0 211 -5 211 -141c0 -115 -84 -138 -197 -138h-136v429zM613 136c0 94 -62 92 -154 92h-58v-178h79c72 0 130 -2 133 86z" />
    <glyph glyph-name="afii10059" unicode="&#x40a;" horiz-adv-x="951" 
d="M551 55h106c70 0 177 2 177 136c0 132 -99 132 -201 132h-82v-268zM551 667v-289h83c94 0 165 0 217 -52c24 -24 49 -68 49 -134c0 -53 -18 -104 -54 -140c-49 -49 -117 -52 -197 -52h-162v323h-337v-323h-64v667h64v-289h337v289h64z" />
    <glyph glyph-name="afii10107" unicode="&#x45a;" horiz-adv-x="748" 
d="M380 0v228h-250v-228h-60v480h60v-201h250v201h60v-201h78c68 0 122 0 160 -38c17 -19 36 -51 36 -100c0 -39 -13 -77 -40 -103c-36 -36 -87 -38 -146 -38h-148zM440 49h93c47 0 120 1 120 90s-67 89 -136 89h-77v-179z" />
    <glyph glyph-name="afii10105" unicode="&#x458;" horiz-adv-x="200" 
d="M140 642c0 -22 -18 -40 -40 -40s-40 18 -40 40s18 40 40 40s40 -18 40 -40zM130 -56c0 -65 -9 -102 -40 -133c-25 -25 -62 -38 -102 -38c-36 0 -57 10 -66 14l14 47c9 -3 24 -9 51 -9c73 0 83 54 83 112v543h60v-536z" />
    <glyph glyph-name="afii10054" unicode="&#x405;" horiz-adv-x="516" 
d="M455 183c0 -112 -73 -196 -212 -196c-118 0 -188 66 -194 71l33 46c10 -7 76 -60 157 -60c98 0 150 55 150 134c0 32 -14 58 -34 78c-60 60 -180 75 -248 143c-15 15 -40 50 -40 109c0 99 79 171 197 171c121 0 177 -65 183 -71l-34 -40c-8 6 -56 56 -144 56
c-83 0 -140 -48 -140 -115c0 -29 11 -51 29 -69c55 -55 180 -71 245 -136c29 -29 52 -67 52 -121z" />
    <glyph glyph-name="afii10060" unicode="&#x40b;" horiz-adv-x="676" 
d="M263 0h-64v613h-167v54h408v-54h-177v-242c4 3 61 42 168 42c142 0 182 -83 182 -184v-229h-63v220c0 77 -22 136 -122 136c-111 0 -163 -45 -165 -47v-309z" />
    <glyph glyph-name="afii10108" unicode="&#x45b;" horiz-adv-x="539" 
d="M330 593h-164v-147c4 4 74 46 153 46c43 0 88 -15 110 -37c41 -41 47 -77 47 -166v-289h-60v280c0 60 1 103 -28 132c-17 17 -46 27 -75 27c-71 0 -145 -45 -147 -47v-392h-60v593h-84v49h84v78h60v-78h164v-49z" />
    <glyph glyph-name="afii10061" unicode="&#x40c;" horiz-adv-x="539" 
d="M386 813l-214 -80l-20 39l207 100zM529 0h-80l-300 319v-319h-63v667h63v-314l292 314h73l-301 -327z" />
    <glyph glyph-name="afii10109" unicode="&#x45c;" horiz-adv-x="468" 
d="M351 626l-214 -80l-20 39l207 100zM453 0h-79l-244 244v-244h-60v480h60v-223l224 223h79l-236 -226z" />
    <glyph glyph-name="afii10102" unicode="&#x455;" horiz-adv-x="416" 
d="M366 131c0 -90 -67 -143 -173 -143c-91 0 -157 43 -161 47l26 46c3 -2 63 -40 131 -40c72 0 115 32 115 84c0 65 -70 84 -120 103c-71 28 -133 51 -133 138c0 77 70 126 160 126c85 0 141 -39 145 -43l-24 -43c-7 4 -56 34 -116 34c-56 0 -103 -28 -103 -72
c0 -56 49 -69 103 -91c65 -26 150 -53 150 -146z" />
    <glyph glyph-name="afii10062" unicode="&#x40e;" horiz-adv-x="568" 
d="M435 864c0 -77 -58 -124 -133 -124s-133 47 -133 124h51c7 -42 34 -63 82 -63s75 21 82 63h51zM544 667l-210 -452c-65 -138 -102 -220 -221 -220c-48 0 -82 15 -86 17l16 49c7 -2 30 -12 68 -12c31 0 59 9 78 28c30 30 56 89 85 154l-219 436h70l184 -376l169 376h66z
" />
    <glyph glyph-name="afii10110" unicode="&#x45e;" horiz-adv-x="483" 
d="M374 677c0 -77 -58 -124 -133 -124s-133 47 -133 124h51c7 -42 34 -63 82 -63s75 21 82 63h51zM458 480l-190 -514c-35 -93 -77 -193 -202 -193c-48 0 -80 15 -86 17l16 49c7 -2 30 -12 68 -12c31 0 59 9 78 28c30 30 46 68 72 133l-198 492h66l165 -415l149 415h62z" />
    <glyph glyph-name="afii10145" unicode="&#x40f;" horiz-adv-x="637" 
d="M551 0h-200v-122h-62v122h-203v667h64v-611h337v611h64v-667z" />
    <glyph glyph-name="afii10193" unicode="&#x45f;" horiz-adv-x="510" 
d="M380 480h60v-480h-156v-122h-58v122h-156v480h60v-427h250v427z" />
    <glyph glyph-name="afii10023" unicode="&#x401;" horiz-adv-x="498" 
d="M371 770c0 -25 -20 -45 -45 -45s-45 20 -45 45s20 45 45 45s45 -20 45 -45zM219 770c0 -25 -20 -45 -45 -45s-45 20 -45 45s20 45 45 45s45 -20 45 -45zM446 0h-360v667h352v-54h-289v-237h271v-53h-271v-267h297v-56z" />
    <glyph glyph-name="afii10071" unicode="&#x451;" horiz-adv-x="494" 
d="M379 615c0 -25 -20 -45 -45 -45s-45 20 -45 45s20 45 45 45s45 -20 45 -45zM227 615c0 -25 -20 -45 -45 -45s-45 20 -45 45s20 45 45 45s45 -20 45 -45zM451 260c0 -5 -1 -22 -2 -32h-344c0 -106 57 -182 165 -182c79 0 133 36 139 39l27 -46c-2 -3 -73 -49 -171 -49
c-140 0 -222 102 -222 247c0 155 86 255 219 255c111 0 189 -84 189 -232zM390 279c0 71 -33 162 -127 162c-83 0 -150 -62 -156 -162h283z" />
    <glyph glyph-name="afii10097" unicode="&#x44f;" horiz-adv-x="463" 
d="M105 0h-65l70 155c26 59 49 65 71 71c-53 5 -104 42 -104 121c0 130 113 133 190 133h126v-480h-60v207h-52c-70 0 -89 -15 -121 -84zM134 346c0 -82 76 -90 141 -90h58v174h-88c-67 0 -111 -23 -111 -84z" />
    <glyph glyph-name="afii10065" unicode="&#x430;" horiz-adv-x="464" 
d="M401 0h-55v36c-4 -2 -68 -46 -153 -46c-92 0 -154 59 -154 146c0 152 194 157 277 157h25v18c0 45 -2 78 -24 101c-15 15 -42 28 -91 28c-74 0 -126 -34 -133 -38l-25 42c4 4 66 49 165 49c61 0 102 -18 130 -46c32 -32 38 -65 38 -138v-309zM341 82v162h-27
c-123 0 -213 -28 -213 -109c0 -48 31 -92 106 -92c62 0 121 33 134 39z" />
    <glyph glyph-name="afii10066" unicode="&#x431;" horiz-adv-x="490" 
d="M43 294c0 183 19 259 81 321s153 67 273 92l14 -50c-103 -39 -276 -10 -299 -212c12 13 63 47 135 47c129 0 200 -98 200 -254c0 -146 -63 -250 -205 -250c-120 0 -199 76 -199 306zM105 295c0 -194 50 -254 139 -254c87 0 141 61 141 197c0 121 -53 202 -141 202
c-59 0 -108 -31 -135 -53c-2 -16 -4 -52 -4 -92z" />
    <glyph glyph-name="afii10067" unicode="&#x432;" horiz-adv-x="443" 
d="M315 250c32 -8 88 -21 88 -113c0 -114 -86 -137 -179 -137h-154v480h149c85 0 170 -21 170 -124c0 -91 -57 -102 -74 -106zM343 136c0 92 -77 87 -146 87h-67v-170h67c89 0 146 9 146 83zM332 355c0 67 -57 75 -138 75h-64v-158h64c63 0 138 0 138 83z" />
    <glyph glyph-name="afii10068" unicode="&#x433;" horiz-adv-x="396" 
d="M130 0h-60v480h310v-51h-250v-429z" />
    <glyph glyph-name="afii10069" unicode="&#x434;" horiz-adv-x="513" 
d="M34 -122v176c14 1 31 4 41 14c13 13 17 27 25 59l81 353h244v-426h50v-176h-58v124h-325v-124h-58zM122 54h243v375h-138l-72 -313c-6 -26 -14 -57 -33 -62z" />
    <glyph glyph-name="afii10070" unicode="&#x435;" horiz-adv-x="494" 
d="M451 260c0 -5 -1 -22 -2 -32h-344c0 -106 57 -182 165 -182c79 0 133 36 139 39l27 -46c-2 -3 -73 -49 -171 -49c-140 0 -222 102 -222 247c0 155 86 255 219 255c111 0 189 -84 189 -232zM390 279c0 71 -33 162 -127 162c-83 0 -150 -62 -156 -162h283z" />
    <glyph glyph-name="afii10072" unicode="&#x436;" horiz-adv-x="736" 
d="M398 0h-60v244l-244 -244h-79l256 252l-236 228h79l224 -223v223h60v-223l224 223h79l-236 -226l256 -254h-79l-244 244v-244z" />
    <glyph glyph-name="afii10073" unicode="&#x437;" horiz-adv-x="407" 
d="M364 134c0 -90 -80 -145 -176 -145c-95 0 -145 41 -158 55l32 38c16 -14 59 -43 119 -43c71 0 123 33 123 92c0 27 -15 48 -25 59c-27 25 -53 33 -121 33h-31v48h37c44 0 80 2 110 33c15 14 23 33 23 54c0 50 -43 84 -105 84c-56 0 -110 -38 -121 -48l-31 38
c12 13 67 60 154 60c97 0 161 -55 161 -131c0 -45 -26 -92 -79 -113c56 -18 88 -63 88 -114z" />
    <glyph glyph-name="afii10074" unicode="&#x438;" horiz-adv-x="510" 
d="M130 0h-60v480h60v-383l250 383h60v-480h-60v384z" />
    <glyph glyph-name="afii10075" unicode="&#x439;" horiz-adv-x="510" 
d="M388 677c0 -77 -58 -124 -133 -124s-133 47 -133 124h51c7 -42 34 -63 82 -63s75 21 82 63h51zM70 0h60l250 384v-384h60v480h-60l-250 -383v383h-60v-480z" />
    <glyph glyph-name="afii10076" unicode="&#x43a;" horiz-adv-x="468" 
d="M453 0h-79l-244 244v-244h-60v480h60v-223l224 223h79l-236 -226z" />
    <glyph glyph-name="afii10077" unicode="&#x43b;" horiz-adv-x="471" 
d="M341 429h-138l-74 -323c-18 -80 -48 -112 -134 -113v48c58 0 68 25 83 92l79 347h244v-480h-60v429z" />
    <glyph glyph-name="afii10078" unicode="&#x43c;" horiz-adv-x="639" 
d="M577 0h-58l-42 378l-136 -378h-45l-139 378l-40 -378h-55l56 480h59l143 -390l140 390h61z" />
    <glyph glyph-name="afii10079" unicode="&#x43d;" horiz-adv-x="510" 
d="M130 0h-60v480h60v-201h250v201h60v-480h-60v228h-250v-228z" />
    <glyph glyph-name="afii10080" unicode="&#x43e;" horiz-adv-x="523" 
d="M480 236c0 -150 -85 -248 -220 -248c-131 0 -217 98 -217 252c0 152 84 252 222 252c130 0 215 -97 215 -256zM418 238c0 121 -68 202 -157 202c-96 0 -156 -79 -156 -198c0 -121 67 -201 157 -201c99 0 156 77 156 197z" />
    <glyph glyph-name="afii10081" unicode="&#x43f;" horiz-adv-x="510" 
d="M130 0h-60v480h370v-480h-60v429h-250v-429z" />
    <glyph glyph-name="afii10082" unicode="&#x440;" horiz-adv-x="518" 
d="M475 250c0 -154 -97 -260 -236 -260c-61 0 -101 22 -109 27v-230h-60v693h57v-33c4 3 58 45 138 45c126 0 210 -97 210 -242zM413 252c0 111 -63 187 -154 187c-69 0 -123 -42 -129 -47v-317c9 -5 46 -32 110 -32c104 0 173 83 173 209z" />
    <glyph glyph-name="afii10083" unicode="&#x441;" horiz-adv-x="464" 
d="M434 38c-4 -5 -73 -48 -164 -48c-132 0 -227 91 -227 240c0 155 98 262 239 262c84 0 141 -43 145 -47l-27 -42c-10 6 -51 35 -121 35c-104 0 -174 -86 -174 -199c0 -118 71 -193 168 -193c76 0 127 33 135 37z" />
    <glyph glyph-name="afii10084" unicode="&#x442;" horiz-adv-x="422" 
d="M241 0h-60v429h-165v51h390v-51h-165v-429z" />
    <glyph glyph-name="afii10085" unicode="&#x443;" horiz-adv-x="483" 
d="M458 480l-190 -514c-35 -93 -77 -193 -202 -193c-48 0 -80 15 -86 17l16 49c7 -2 30 -12 68 -12c31 0 59 9 78 28c30 30 46 68 72 133l-198 492h66l165 -415l149 415h62z" />
    <glyph glyph-name="afii10086" unicode="&#x444;" horiz-adv-x="649" 
d="M606 236c0 -140 -98 -237 -252 -247v-202h-56v202c-154 7 -255 105 -255 251c0 142 97 241 255 251v229h56v-229c151 -8 252 -105 252 -255zM105 242c0 -112 80 -191 193 -200v396c-118 -7 -193 -86 -193 -196zM544 238c0 110 -82 189 -190 200v-396
c119 9 190 85 190 196z" />
    <glyph glyph-name="afii10087" unicode="&#x445;" horiz-adv-x="478" 
d="M446 0h-73l-141 204l-141 -204h-69l176 246l-164 234h74l129 -190l130 190h68l-163 -233z" />
    <glyph glyph-name="afii10088" unicode="&#x446;" horiz-adv-x="528" 
d="M380 480h60v-427h50v-175h-58v122h-362v480h60v-427h250v427z" />
    <glyph glyph-name="afii10089" unicode="&#x447;" horiz-adv-x="510" 
d="M380 283v197h60v-480h-60v231c-9 -5 -59 -31 -138 -31c-134 0 -172 73 -172 196v84h60v-86c0 -85 20 -142 116 -142c80 0 134 31 134 31z" />
    <glyph glyph-name="afii10090" unicode="&#x448;" horiz-adv-x="696" 
d="M626 0h-556v480h60v-427h188v427h60v-427h188v427h60v-480z" />
    <glyph glyph-name="afii10091" unicode="&#x449;" horiz-adv-x="714" 
d="M130 53h188v427h60v-427h188v427h60v-427h50v-175h-58v122h-548v480h60v-427z" />
    <glyph glyph-name="afii10092" unicode="&#x44a;" horiz-adv-x="540" 
d="M173 0v429h-157v51h217v-172h52c61 0 128 2 176 -46c20 -20 45 -56 45 -111c0 -37 -14 -77 -44 -107c-42 -42 -99 -44 -163 -44h-126zM445 149c0 39 -13 64 -30 81c-25 25 -64 28 -134 28h-48v-208h69c39 0 86 -1 114 27c17 17 29 38 29 72z" />
    <glyph glyph-name="afii10093" unicode="&#x44b;" horiz-adv-x="602" 
d="M532 0h-60v480h60v-480zM403 151c0 55 -25 91 -45 111c-48 48 -115 46 -176 46h-52v172h-60v-480h126c64 0 121 2 163 44c30 30 44 70 44 107zM342 149c0 -34 -12 -55 -29 -72c-28 -28 -75 -27 -114 -27h-69v208h48c70 0 109 -3 134 -28c17 -17 30 -42 30 -81z" />
    <glyph glyph-name="afii10094" unicode="&#x44c;" horiz-adv-x="437" 
d="M403 151c0 -37 -14 -77 -44 -107c-42 -42 -99 -44 -163 -44h-126v480h60v-172h52c61 0 128 2 176 -46c20 -20 45 -56 45 -111zM342 149c0 39 -13 64 -30 81c-25 25 -64 28 -134 28h-48v-208h69c39 0 86 -1 114 27c17 17 29 38 29 72z" />
    <glyph glyph-name="afii10095" unicode="&#x44d;" horiz-adv-x="464" 
d="M30 38l26 45c8 -4 59 -39 135 -39c124 0 165 79 167 173h-246v51h246c-5 101 -73 172 -163 172c-76 0 -121 -31 -131 -37l-27 42c19 17 74 47 158 47c121 0 226 -75 226 -252c0 -149 -76 -252 -227 -252c-91 0 -160 45 -164 50z" />
    </font>
</defs>
</svg>
