<?xml version="1.0" standalone="no"?>
<!DOCTYPE svg PUBLIC "-//W3C//DTD SVG 1.1//EN" "http://www.w3.org/Graphics/SVG/1.1/DTD/svg11.dtd" >
<svg xmlns="http://www.w3.org/2000/svg" xmlns:xlink="http://www.w3.org/1999/xlink" version="1.1">
<metadata>
Created by FontForge 20190801 at Thu Apr 30 12:48:10 2009
 By Jimmy Wärting
Copyright (c) 2009 by The Foundry. All rights reserved.
</metadata>
<defs>
<font id="FoundrySterlingOT3-Medium" horiz-adv-x="610" >
  <font-face 
    font-family="Foundry Sterling OT3"
    font-weight="500"
    font-stretch="normal"
    units-per-em="1000"
    panose-1="2 0 6 0 4 0 0 2 0 4"
    ascent="765"
    descent="-235"
    x-height="484"
    cap-height="667"
    bbox="-280 -283 1264 1086"
    underline-thickness="50"
    underline-position="-100"
    stemh="72"
    stemv="87"
    unicode-range="U+0020-FFF3"
  />
<missing-glyph horiz-adv-x="606" 
d="M436 -51v646h-266v-646h266zM81 -123v790h444v-790h-444z" />
    <glyph glyph-name="IJ" unicode="IJ" horiz-adv-x="628" 
d="M171 0h-90v667h90v-667zM555 212c0 -64 3 -133 -46 -182c-26 -26 -67 -43 -116 -43c-77 0 -128 36 -133 40l32 64c18 -10 52 -26 87 -26c28 0 46 7 59 19c28 26 27 70 27 110v473h90v-455z" />
    <glyph glyph-name="ij" unicode="ij" horiz-adv-x="436" 
d="M161 638c0 -29 -23 -52 -52 -52s-52 23 -52 52s23 52 52 52s52 -23 52 -52zM152 0h-85v484h85v-484zM379 638c0 -29 -23 -52 -52 -52s-52 23 -52 52s23 52 52 52s52 -23 52 -52zM370 -45c0 -66 -8 -108 -44 -144c-28 -28 -72 -40 -112 -40c-42 0 -73 15 -79 18l21 63
c9 -3 27 -10 50 -10c36 0 50 14 57 21c17 17 22 44 22 84v537h85v-529z" />
    <glyph glyph-name="IJsmall" unicode="&#xf769;&#xf76a;" horiz-adv-x="558" 
d="M160 0h-87v520h87v-520zM492 131c-1 -40 -9 -78 -39 -107c-23 -22 -57 -34 -97 -34c-63 0 -106 27 -116 35l31 60c14 -8 40 -21 67 -21c21 0 37 7 47 16c21 20 20 53 20 84v356h87v-352v-37z" />
    <glyph glyph-name="f_f" unicode="ff" horiz-adv-x="653" 
d="M658 697l-33 -57c-6 4 -36 21 -71 21c-28 0 -49 -8 -63 -23c-24 -26 -24 -66 -24 -94v-60h151v-70h-151v-414h-85v414h-186v-414h-85v414h-83v70h83v63c0 59 10 108 47 145c26 26 66 41 112 41c47 0 73 -14 80 -18l-23 -63s-22 9 -49 9c-12 0 -38 -3 -56 -21
c-24 -24 -26 -59 -26 -96v-60h186v59c0 53 6 108 47 149c26 26 64 41 114 41c68 0 110 -31 115 -36z" />
    <glyph glyph-name="fi" unicode="fi" horiz-adv-x="534" 
d="M467 0h-85v414h-186v-414h-85v414h-83v70h83v59c0 53 6 108 47 149c26 26 64 41 114 41c68 0 110 -31 115 -36l-33 -57c-6 4 -36 21 -71 21c-28 0 -49 -8 -63 -23c-24 -26 -24 -66 -24 -94v-60h271v-484z" />
    <glyph glyph-name="f_f_i" unicode="ffi" horiz-adv-x="805" 
d="M738 0h-85v414h-186v-414h-85v414h-186v-414h-85v414h-83v70h83v63c0 59 10 108 47 145c26 26 66 41 112 41c47 0 73 -14 80 -18l-23 -63s-22 9 -49 9c-12 0 -38 -3 -56 -21c-24 -24 -26 -59 -26 -96v-60h186v59c0 53 6 108 47 149c26 26 64 41 114 41
c68 0 110 -31 115 -36l-33 -57c-6 4 -36 21 -71 21c-28 0 -49 -8 -63 -23c-24 -26 -24 -66 -24 -94v-60h271v-484z" />
    <glyph glyph-name="f_j" unicode="fj" horiz-adv-x="534" 
d="M467 -45c0 -66 -8 -108 -44 -144c-28 -28 -72 -40 -112 -40c-42 0 -73 15 -79 18l21 63c9 -3 27 -10 50 -10c36 0 50 14 57 21c17 17 22 44 22 84v467h-186v-414h-85v414h-83v70h83v59c0 53 6 108 47 149c26 26 64 41 114 41c68 0 110 -31 115 -36l-33 -57
c-6 4 -36 21 -71 21c-28 0 -49 -8 -63 -23c-24 -26 -24 -66 -24 -94v-60h271v-529z" />
    <glyph glyph-name="fl" unicode="fl" horiz-adv-x="534" 
d="M467 0h-85v414h-186v-414h-85v414h-83v70h83v63c0 59 10 108 47 145c26 26 66 41 112 41c47 0 73 -14 80 -18l-23 -63s-22 9 -49 9c-12 0 -38 -3 -56 -21c-24 -24 -26 -59 -26 -96v-60h186v237h85v-721z" />
    <glyph glyph-name="f_f_l" unicode="ffl" horiz-adv-x="805" 
d="M738 0h-85v414h-186v-414h-85v414h-186v-414h-85v414h-83v70h83v63c0 59 10 108 47 145c26 26 66 41 112 41c47 0 73 -14 80 -18l-23 -63s-22 9 -49 9c-12 0 -38 -3 -56 -21c-24 -24 -26 -59 -26 -96v-60h186v63c0 59 10 108 47 145c26 26 66 41 112 41
c47 0 73 -14 80 -18l-23 -63s-22 9 -49 9c-12 0 -38 -3 -56 -21c-24 -24 -26 -59 -26 -96v-60h186v237h85v-721z" />
    <glyph glyph-name="f_t" unicode="ft" horiz-adv-x="649" 
d="M382 414h-186v-414h-85v414h-83v70h83v63c0 59 10 108 47 145c26 26 66 41 112 41c47 0 73 -14 80 -18l-23 -63s-22 9 -49 9c-12 0 -38 -3 -56 -21c-24 -24 -26 -59 -26 -96v-60h186v136h85v-136h149v-70h-149v-247c0 -57 -2 -106 71 -106c35 0 61 13 68 14l22 -61
c-7 -4 -45 -26 -105 -26c-44 0 -82 11 -108 37c-37 37 -33 90 -33 167v222z" />
    <glyph glyph-name=".notdef" horiz-adv-x="606" 
d="M436 -51v646h-266v-646h266zM81 -123v790h444v-790h-444z" />
    <glyph glyph-name=".null" horiz-adv-x="0" 
 />
    <glyph glyph-name="CR" horiz-adv-x="512" 
 />
    <glyph glyph-name="space" unicode=" " horiz-adv-x="238" 
 />
    <glyph glyph-name="A" unicode="A" horiz-adv-x="607" 
d="M594 0h-94l-61 174h-275l-61 -174h-90l242 667h95zM414 247l-113 325l-112 -325h225z" />
    <glyph glyph-name="B" unicode="B" horiz-adv-x="571" 
d="M517 193c0 -53 -18 -99 -50 -131c-64 -64 -148 -62 -268 -62h-118v667h184c68 0 131 -3 179 -51c36 -36 52 -78 52 -128c0 -104 -76 -141 -107 -146c67 -10 128 -55 128 -149zM406 486c0 30 -9 56 -26 74c-36 39 -99 36 -154 36h-58v-224h51c55 0 118 2 156 37
c20 18 31 43 31 77zM426 191c0 26 -8 53 -30 75c-40 40 -105 37 -173 37h-55v-230h74c78 0 119 6 155 42c19 19 29 50 29 76z" />
    <glyph glyph-name="C" unicode="C" horiz-adv-x="620" 
d="M596 57c-7 -8 -89 -70 -224 -70c-179 0 -320 126 -320 341c0 223 149 353 333 353c132 0 197 -54 205 -62l-39 -62c-8 5 -67 45 -161 45c-136 0 -246 -99 -246 -266c0 -163 92 -269 239 -269c96 0 167 48 174 52z" />
    <glyph glyph-name="D" unicode="D" horiz-adv-x="681" 
d="M629 338c0 -101 -34 -187 -95 -248c-84 -84 -183 -90 -307 -90h-146v667h147c129 0 226 -5 306 -85c59 -59 95 -147 95 -244zM538 340c0 68 -15 136 -71 192c-58 58 -124 63 -239 63h-58v-522h83c89 0 161 10 218 68c45 46 67 118 67 199z" />
    <glyph glyph-name="E" unicode="E" horiz-adv-x="509" 
d="M458 0h-377v667h369v-74h-281v-210h264v-72h-264v-235h289v-76z" />
    <glyph glyph-name="F" unicode="F" horiz-adv-x="484" 
d="M442 593h-272v-210h256v-72h-256v-311h-89v667h361v-74z" />
    <glyph glyph-name="G" unicode="G" horiz-adv-x="672" 
d="M606 49c-5 -4 -88 -63 -232 -63c-181 0 -322 127 -322 342c0 223 149 353 333 353c132 0 197 -54 205 -62l-39 -62c-7 5 -67 45 -161 45c-136 0 -246 -99 -246 -266c0 -164 91 -272 240 -272c87 0 129 26 135 29v166h-143v71h230v-281z" />
    <glyph glyph-name="H" unicode="H" horiz-adv-x="648" 
d="M567 0h-90v311h-306v-311h-90v667h90v-280h306v280h90v-667z" />
    <glyph glyph-name="I" unicode="I" horiz-adv-x="252" 
d="M171 0h-90v667h90v-667z" />
    <glyph glyph-name="J" unicode="J" horiz-adv-x="376" 
d="M303 212c0 -64 3 -133 -46 -182c-26 -26 -67 -43 -116 -43c-77 0 -128 36 -133 40l32 64c18 -10 52 -26 87 -26c28 0 46 7 59 19c28 26 27 70 27 110v473h90v-455z" />
    <glyph glyph-name="K" unicode="K" horiz-adv-x="565" 
d="M553 0h-109l-274 316v-316h-89v667h89v-313l269 313h100l-283 -326z" />
    <glyph glyph-name="L" unicode="L" horiz-adv-x="486" 
d="M448 0h-367v667h90v-591h277v-76z" />
    <glyph glyph-name="M" unicode="M" horiz-adv-x="871" 
d="M801 0h-88l-55 539l-189 -539h-74l-193 539l-51 -539h-81l71 667h99l197 -545l191 545h99z" />
    <glyph glyph-name="N" unicode="N" horiz-adv-x="646" 
d="M565 0h-89l-315 531l2 -531h-82v667h89l315 -533l-2 533h82v-667z" />
    <glyph glyph-name="O" unicode="O" horiz-adv-x="714" 
d="M662 337c0 -208 -125 -350 -307 -350c-176 0 -303 143 -303 345c0 206 126 348 308 348c178 0 302 -142 302 -343zM570 340c0 159 -89 264 -216 264s-210 -107 -210 -270c0 -162 93 -270 215 -270c139 0 211 119 211 276z" />
    <glyph glyph-name="P" unicode="P" horiz-adv-x="558" 
d="M506 470c0 -54 -17 -107 -55 -145c-64 -64 -137 -60 -234 -60h-47v-265h-89v667h167c82 0 152 -4 202 -54c37 -37 56 -88 56 -143zM416 471c0 36 -13 71 -37 95c-31 31 -85 30 -138 30h-71v-258h45c71 0 127 -2 163 34c23 23 38 51 38 99z" />
    <glyph glyph-name="Q" unicode="Q" horiz-adv-x="714" 
d="M664 -128c-7 -2 -45 -11 -102 -11c-111 0 -202 37 -266 134c-118 17 -244 133 -244 337c0 206 126 348 308 348c178 0 302 -142 302 -343c0 -158 -78 -322 -262 -342c19 -23 67 -66 185 -66c35 0 65 6 69 6zM570 340c0 159 -89 264 -216 264s-210 -107 -210 -270
c0 -162 93 -270 215 -270c139 0 211 119 211 276z" />
    <glyph glyph-name="R" unicode="R" horiz-adv-x="566" 
d="M540 0h-94l-77 174c-46 103 -68 112 -158 112h-42v-286h-88v667h148c89 0 158 1 212 -53c33 -33 52 -77 52 -133c0 -46 -13 -85 -41 -115c-24 -26 -63 -48 -107 -53c22 -1 44 -14 57 -27c20 -20 34 -52 52 -93zM404 481c0 36 -14 65 -29 80c-36 36 -83 35 -137 35h-69
v-239h31c64 0 129 -2 171 40c21 21 33 52 33 84z" />
    <glyph glyph-name="S" unicode="S" horiz-adv-x="524" 
d="M467 181c0 -110 -81 -195 -219 -195c-118 0 -197 64 -205 72l43 62c12 -8 77 -57 158 -57c82 0 130 49 130 110c0 73 -85 109 -157 144c-85 41 -155 85 -155 183c0 106 86 180 209 180s184 -61 190 -68l-45 -58c-8 7 -61 50 -139 50c-73 0 -125 -36 -125 -96
c0 -63 59 -83 125 -117c59 -30 190 -79 190 -210z" />
    <glyph glyph-name="T" unicode="T" horiz-adv-x="541" 
d="M511 593h-195v-593h-90v593h-196v74h481v-74z" />
    <glyph glyph-name="U" unicode="U" horiz-adv-x="629" 
d="M557 328c0 -124 4 -211 -60 -275c-37 -37 -95 -66 -182 -66c-71 0 -139 22 -185 68c-60 60 -58 136 -58 202v410h90v-420c0 -51 -2 -101 38 -141c27 -27 69 -42 118 -42s86 17 110 41c45 45 41 96 41 209v353h88v-339z" />
    <glyph glyph-name="V" unicode="V" horiz-adv-x="609" 
d="M586 667l-234 -667h-99l-230 667h93l189 -575l194 575h87z" />
    <glyph glyph-name="W" unicode="W" horiz-adv-x="894" 
d="M855 667l-162 -667h-108l-136 575l-141 -575h-108l-161 667h90l127 -574l142 574h107l139 -574l128 574h83z" />
    <glyph glyph-name="X" unicode="X" horiz-adv-x="581" 
d="M554 0h-99l-167 276l-166 -276h-95l214 346l-200 321h101l150 -253l151 253h94l-199 -321z" />
    <glyph glyph-name="Y" unicode="Y" horiz-adv-x="563" 
d="M537 667l-211 -403v-264h-89v264l-211 403h95l166 -325l164 325h86z" />
    <glyph glyph-name="Z" unicode="Z" horiz-adv-x="552" 
d="M506 0h-461v64l347 529h-329v74h435v-67l-342 -524h350v-76z" />
    <glyph glyph-name="Aacute" unicode="&#xc1;" horiz-adv-x="607" 
d="M594 0h-94l-61 174h-275l-61 -174h-90l242 667h95zM414 247l-113 325l-112 -325h225zM419 801l-220 -85l-27 50l212 107z" />
    <glyph glyph-name="Agrave" unicode="&#xc0;" horiz-adv-x="607" 
d="M594 0h-94l-61 174h-275l-61 -174h-90l242 667h95zM414 247l-113 325l-112 -325h225zM427 766l-27 -50l-220 85l35 72z" />
    <glyph glyph-name="Acircumflex" unicode="&#xc2;" horiz-adv-x="607" 
d="M594 0h-94l-61 174h-275l-61 -174h-90l242 667h95zM414 247l-113 325l-112 -325h225zM459 763l-33 -47l-125 70l-126 -70l-33 49l159 108z" />
    <glyph glyph-name="Atilde" unicode="&#xc3;" horiz-adv-x="607" 
d="M594 0h-94l-61 174h-275l-61 -174h-90l242 667h95zM414 247l-113 325l-112 -325h225zM462 773c-23 -23 -64 -54 -108 -54c-41 0 -72 25 -109 25c-24 0 -47 -15 -67 -28l-39 49c28 24 63 52 107 52c41 0 73 -25 109 -25c27 0 52 16 69 30z" />
    <glyph glyph-name="Adieresis" unicode="&#xc4;" horiz-adv-x="607" 
d="M594 0h-94l-61 174h-275l-61 -174h-90l242 667h95zM414 247l-113 325l-112 -325h225zM438 775c0 -30 -24 -53 -54 -53s-53 23 -53 53s23 53 53 53s54 -23 54 -53zM272 775c0 -30 -24 -53 -54 -53s-53 23 -53 53s23 53 53 53s54 -23 54 -53z" />
    <glyph glyph-name="Aring" unicode="&#xc5;" horiz-adv-x="607" 
d="M594 0h-94l-61 174h-275l-61 -174h-90l242 667h95zM414 247l-113 325l-112 -325h225zM403 818c0 -56 -46 -102 -102 -102s-102 46 -102 102c0 57 47 101 102 101c57 0 102 -46 102 -101zM354 818c0 30 -24 53 -53 53s-53 -24 -53 -53s24 -53 53 -53c30 0 53 24 53 53z
" />
    <glyph glyph-name="AE" unicode="&#xc6;" horiz-adv-x="869" 
d="M818 0h-377v175h-234l-95 -175h-95l381 667h412v-74h-281v-210h264v-72h-264v-235h289v-76zM441 250v351l-194 -351h194z" />
    <glyph glyph-name="Ccedilla" unicode="&#xc7;" horiz-adv-x="620" 
d="M596 57c-7 -8 -89 -70 -224 -70l-8 -47c4 2 13 4 23 4c51 0 86 -34 86 -84c0 -58 -50 -90 -98 -90c-39 0 -65 14 -74 22l18 38c5 -3 25 -13 50 -13c40 0 49 25 49 41c0 23 -17 39 -42 39c-18 0 -34 -8 -41 -13l-28 17l16 89c-155 21 -271 143 -271 338
c0 223 149 353 333 353c132 0 197 -54 205 -62l-39 -62c-8 5 -67 45 -161 45c-136 0 -246 -99 -246 -266c0 -163 92 -269 239 -269c95 0 167 48 174 52z" />
    <glyph glyph-name="Eacute" unicode="&#xc9;" horiz-adv-x="509" 
d="M458 0h-377v667h369v-74h-281v-210h264v-72h-264v-235h289v-76zM393 801l-220 -85l-27 50l212 107z" />
    <glyph glyph-name="Egrave" unicode="&#xc8;" horiz-adv-x="509" 
d="M458 0h-377v667h369v-74h-281v-210h264v-72h-264v-235h289v-76zM383 766l-27 -50l-220 85l35 72z" />
    <glyph glyph-name="Ecircumflex" unicode="&#xca;" horiz-adv-x="509" 
d="M418 763l-33 -47l-125 70l-126 -70l-33 49l159 108zM458 0h-377v667h369v-74h-281v-210h264v-72h-264v-235h289v-76z" />
    <glyph glyph-name="Edieresis" unicode="&#xcb;" horiz-adv-x="509" 
d="M458 0h-377v667h369v-74h-281v-210h264v-72h-264v-235h289v-76zM395 775c0 -30 -24 -53 -54 -53s-53 23 -53 53s23 53 53 53s54 -23 54 -53zM229 775c0 -30 -24 -53 -54 -53s-53 23 -53 53s23 53 53 53s54 -23 54 -53z" />
    <glyph glyph-name="Iacute" unicode="&#xcd;" horiz-adv-x="252" 
d="M171 0h-90v667h90v-667zM249 801l-220 -85l-27 50l212 107z" />
    <glyph glyph-name="Igrave" unicode="&#xcc;" horiz-adv-x="252" 
d="M171 0h-90v667h90v-667zM250 766l-27 -50l-220 85l35 72z" />
    <glyph glyph-name="Icircumflex" unicode="&#xce;" horiz-adv-x="252" 
d="M171 0h-90v667h90v-667zM284 763l-33 -47l-125 70l-126 -70l-33 49l159 108z" />
    <glyph glyph-name="Idieresis" unicode="&#xcf;" horiz-adv-x="252" 
d="M171 0h-90v667h90v-667zM262 775c0 -30 -24 -53 -54 -53s-53 23 -53 53s23 53 53 53s54 -23 54 -53zM96 775c0 -30 -24 -53 -54 -53s-53 23 -53 53s23 53 53 53s54 -23 54 -53z" />
    <glyph glyph-name="Idotaccent" unicode="&#x130;" horiz-adv-x="252" 
d="M171 0h-90v667h90v-667zM180 775c0 -30 -24 -53 -54 -53s-53 23 -53 53s23 53 53 53s54 -23 54 -53z" />
    <glyph glyph-name="Lslash" unicode="&#x141;" horiz-adv-x="517" 
d="M489 0h-367v270l-75 -57l-44 57l119 88v309h90v-251l113 85l44 -56l-157 -117v-252h277v-76z" />
    <glyph glyph-name="Ntilde" unicode="&#xd1;" horiz-adv-x="646" 
d="M565 0h-89l-315 531l2 -531h-82v667h89l315 -533l-2 533h82v-667zM475 773c-23 -23 -64 -54 -108 -54c-41 0 -72 25 -109 25c-24 0 -47 -15 -67 -28l-39 49c28 24 63 52 107 52c41 0 73 -25 109 -25c27 0 52 16 69 30z" />
    <glyph glyph-name="Oacute" unicode="&#xd3;" horiz-adv-x="714" 
d="M662 337c0 -208 -125 -350 -307 -350c-176 0 -303 143 -303 345c0 206 126 348 308 348c178 0 302 -142 302 -343zM570 340c0 159 -89 264 -216 264s-210 -107 -210 -270c0 -162 93 -270 215 -270c139 0 211 119 211 276zM470 801l-220 -85l-27 50l212 107z" />
    <glyph glyph-name="Ograve" unicode="&#xd2;" horiz-adv-x="714" 
d="M662 337c0 -208 -125 -350 -307 -350c-176 0 -303 143 -303 345c0 206 126 348 308 348c178 0 302 -142 302 -343zM570 340c0 159 -89 264 -216 264s-210 -107 -210 -270c0 -162 93 -270 215 -270c139 0 211 119 211 276zM481 766l-27 -50l-220 85l35 72z" />
    <glyph glyph-name="Ocircumflex" unicode="&#xd4;" horiz-adv-x="714" 
d="M662 337c0 -208 -125 -350 -307 -350c-176 0 -303 143 -303 345c0 206 126 348 308 348c178 0 302 -142 302 -343zM570 340c0 159 -89 264 -216 264s-210 -107 -210 -270c0 -162 93 -270 215 -270c139 0 211 119 211 276zM512 763l-33 -47l-125 70l-126 -70l-33 49
l159 108z" />
    <glyph glyph-name="Otilde" unicode="&#xd5;" horiz-adv-x="714" 
d="M662 337c0 -208 -125 -350 -307 -350c-176 0 -303 143 -303 345c0 206 126 348 308 348c178 0 302 -142 302 -343zM570 340c0 159 -89 264 -216 264s-210 -107 -210 -270c0 -162 93 -270 215 -270c139 0 211 119 211 276zM516 773c-23 -23 -64 -54 -108 -54
c-41 0 -72 25 -109 25c-24 0 -47 -15 -67 -28l-39 49c28 24 63 52 107 52c41 0 73 -25 109 -25c27 0 52 16 69 30z" />
    <glyph glyph-name="Odieresis" unicode="&#xd6;" horiz-adv-x="714" 
d="M662 337c0 -208 -125 -350 -307 -350c-176 0 -303 143 -303 345c0 206 126 348 308 348c178 0 302 -142 302 -343zM570 340c0 159 -89 264 -216 264s-210 -107 -210 -270c0 -162 93 -270 215 -270c139 0 211 119 211 276zM496 775c0 -30 -24 -53 -54 -53s-53 23 -53 53
s23 53 53 53s54 -23 54 -53zM330 775c0 -30 -24 -53 -54 -53s-53 23 -53 53s23 53 53 53s54 -23 54 -53z" />
    <glyph glyph-name="Oslash" unicode="&#xd8;" horiz-adv-x="714" 
d="M662 337c0 -208 -125 -350 -307 -350c-48 0 -92 11 -131 30l-51 -89l-63 35l54 94c-70 61 -112 158 -112 275c0 206 126 348 308 348c72 0 122 -23 139 -33l53 89l64 -36l-58 -96c65 -61 104 -155 104 -267zM570 340c0 128 -56 188 -56 188l-250 -440s33 -24 95 -24
c139 0 211 119 211 276zM460 576c0 0 -39 28 -106 28c-127 0 -210 -107 -210 -270c0 -134 66 -200 66 -200z" />
    <glyph glyph-name="OE" unicode="&#x152;" horiz-adv-x="887" 
d="M836 0h-383c-129 0 -226 5 -306 85c-59 59 -95 147 -95 244c0 101 34 187 95 248c84 84 183 90 307 90h374v-74h-281v-210h264v-72h-264v-235h289v-76zM459 72v522h-31c-89 0 -161 -10 -218 -68c-45 -46 -67 -118 -67 -199c0 -68 15 -136 71 -192c58 -58 124 -63 239 -63
h6z" />
    <glyph glyph-name="Thorn" unicode="&#xde;" horiz-adv-x="558" 
d="M506 345c0 -54 -17 -107 -55 -145c-64 -64 -137 -60 -234 -60h-47v-140h-89v667h89v-125h78c82 0 152 -4 202 -54c37 -37 56 -88 56 -143zM416 346c0 36 -13 71 -37 95c-31 31 -85 30 -138 30h-71v-258h45c71 0 127 -2 163 34c23 23 38 51 38 99z" />
    <glyph glyph-name="Scaron" unicode="&#x160;" horiz-adv-x="524" 
d="M467 181c0 -110 -81 -195 -219 -195c-118 0 -197 64 -205 72l43 62c12 -8 77 -57 158 -57c82 0 130 49 130 110c0 73 -85 109 -157 144c-85 41 -155 85 -155 183c0 106 86 180 209 180s184 -61 190 -68l-45 -58c-8 7 -61 50 -139 50c-73 0 -125 -36 -125 -96
c0 -63 59 -83 125 -117c59 -30 190 -79 190 -210zM431 824l-159 -108l-158 110l33 47l125 -70l126 70z" />
    <glyph glyph-name="Uacute" unicode="&#xda;" horiz-adv-x="629" 
d="M557 328c0 -124 4 -211 -60 -275c-37 -37 -95 -66 -182 -66c-71 0 -139 22 -185 68c-60 60 -58 136 -58 202v410h90v-420c0 -51 -2 -101 38 -141c27 -27 69 -42 118 -42s86 17 110 41c45 45 41 96 41 209v353h88v-339zM439 801l-220 -85l-27 50l212 107z" />
    <glyph glyph-name="Ugrave" unicode="&#xd9;" horiz-adv-x="629" 
d="M557 328c0 -124 4 -211 -60 -275c-37 -37 -95 -66 -182 -66c-71 0 -139 22 -185 68c-60 60 -58 136 -58 202v410h90v-420c0 -51 -2 -101 38 -141c27 -27 69 -42 118 -42s86 17 110 41c45 45 41 96 41 209v353h88v-339zM431 766l-27 -50l-220 85l35 72z" />
    <glyph glyph-name="Ucircumflex" unicode="&#xdb;" horiz-adv-x="629" 
d="M557 328c0 -124 4 -211 -60 -275c-37 -37 -95 -66 -182 -66c-71 0 -139 22 -185 68c-60 60 -58 136 -58 202v410h90v-420c0 -51 -2 -101 38 -141c27 -27 69 -42 118 -42s86 17 110 41c45 45 41 96 41 209v353h88v-339zM469 763l-33 -47l-125 70l-126 -70l-33 49l159 108z
" />
    <glyph glyph-name="Udieresis" unicode="&#xdc;" horiz-adv-x="629" 
d="M557 328c0 -124 4 -211 -60 -275c-37 -37 -95 -66 -182 -66c-71 0 -139 22 -185 68c-60 60 -58 136 -58 202v410h90v-420c0 -51 -2 -101 38 -141c27 -27 69 -42 118 -42s86 17 110 41c45 45 41 96 41 209v353h88v-339zM452 775c0 -30 -24 -53 -54 -53s-53 23 -53 53
s23 53 53 53s54 -23 54 -53zM286 775c0 -30 -24 -53 -54 -53s-53 23 -53 53s23 53 53 53s54 -23 54 -53z" />
    <glyph glyph-name="Yacute" unicode="&#xdd;" horiz-adv-x="563" 
d="M537 667l-211 -403v-264h-89v264l-211 403h95l166 -325l164 325h86zM399 801l-220 -85l-27 50l212 107z" />
    <glyph glyph-name="Ydieresis" unicode="&#x178;" horiz-adv-x="563" 
d="M537 667l-211 -403v-264h-89v264l-211 403h95l166 -325l164 325h86zM423 775c0 -30 -24 -53 -54 -53s-53 23 -53 53s23 53 53 53s54 -23 54 -53zM257 775c0 -30 -24 -53 -54 -53s-53 23 -53 53s23 53 53 53s54 -23 54 -53z" />
    <glyph glyph-name="Zcaron" unicode="&#x17d;" horiz-adv-x="552" 
d="M506 0h-461v64l347 529h-329v74h435v-67l-342 -524h350v-76zM434 824l-159 -108l-158 110l33 47l125 -70l126 70z" />
    <glyph glyph-name="a" unicode="a" horiz-adv-x="479" 
d="M419 0h-76v36c-6 -3 -65 -46 -148 -46c-94 0 -156 61 -156 150c0 160 201 164 276 164h22v31c0 27 -1 49 -20 68s-50 25 -85 25c-71 0 -126 -34 -133 -38l-31 57c5 5 68 50 172 50c53 0 106 -15 140 -49c36 -36 39 -77 39 -144v-304zM337 95v145h-25
c-77 0 -139 -11 -170 -42c-15 -15 -22 -32 -22 -56c0 -49 35 -83 96 -83c60 0 110 31 121 36z" />
    <glyph glyph-name="b" unicode="b" horiz-adv-x="535" 
d="M493 251c0 -156 -101 -263 -249 -263c-88 0 -160 29 -177 35v698h85v-264c5 4 54 40 129 40c125 0 212 -96 212 -246zM407 250c0 109 -59 175 -140 175c-64 0 -108 -36 -115 -41v-309c9 -3 35 -15 90 -15c100 0 165 75 165 190z" />
    <glyph glyph-name="c" unicode="c" horiz-adv-x="475" 
d="M449 43c-3 -4 -72 -54 -172 -54c-139 0 -235 97 -235 245c0 154 103 263 246 263c91 0 149 -46 154 -52l-36 -55c-9 6 -51 35 -116 35c-99 0 -162 -84 -162 -183c0 -107 62 -179 157 -179c73 0 125 36 129 38z" />
    <glyph glyph-name="d" unicode="d" horiz-adv-x="535" 
d="M468 0h-76v38c-7 -6 -54 -49 -136 -49c-129 0 -214 101 -214 247c0 156 102 261 236 261c62 0 100 -26 105 -29v253h85v-721zM383 103v290c-8 6 -41 32 -97 32c-93 0 -158 -71 -158 -189c0 -106 61 -175 143 -175c66 0 109 40 112 42z" />
    <glyph glyph-name="e" unicode="e" horiz-adv-x="508" 
d="M466 255c0 -10 -2 -27 -2 -36h-337c-1 -83 47 -158 152 -158c76 0 128 33 137 38l32 -58c-8 -6 -74 -52 -176 -52c-147 0 -230 106 -230 250c0 154 90 258 225 258c122 0 199 -90 199 -242zM384 286c0 56 -26 143 -116 143c-76 0 -133 -56 -140 -143h256z" />
    <glyph glyph-name="f" unicode="f" horiz-adv-x="382" 
d="M387 697l-33 -57c-6 4 -36 21 -71 21c-28 0 -49 -8 -63 -23c-24 -26 -24 -66 -24 -94v-60h151v-70h-151v-414h-85v414h-83v70h83v59c0 53 6 108 47 149c26 26 64 41 114 41c68 0 110 -31 115 -36z" />
    <glyph glyph-name="g" unicode="g" horiz-adv-x="536" 
d="M469 -2c0 -79 -6 -128 -48 -170c-38 -38 -89 -57 -164 -57c-116 0 -188 57 -194 64l37 57c7 -4 67 -49 149 -49c53 0 83 14 103 33c30 28 32 63 32 126v35c-8 -5 -58 -38 -132 -38c-130 0 -210 106 -210 239c0 148 101 259 247 259c91 0 169 -40 180 -45v-454zM384 110
v295c-7 3 -44 20 -97 20c-94 0 -159 -73 -159 -184c0 -104 59 -171 139 -171c61 0 111 36 117 40z" />
    <glyph glyph-name="h" unicode="h" horiz-adv-x="519" 
d="M458 0h-85v275c0 61 -1 101 -26 126c-13 13 -38 24 -68 24c-62 0 -123 -39 -127 -42v-383h-85v721h85v-267c5 4 69 43 142 43c67 0 101 -27 116 -42c46 -46 48 -96 48 -174v-281z" />
    <glyph glyph-name="i" unicode="i" horiz-adv-x="218" 
d="M161 638c0 -29 -23 -52 -52 -52s-52 23 -52 52s23 52 52 52s52 -23 52 -52zM152 0h-85v484h85v-484z" />
    <glyph glyph-name="j" unicode="j" horiz-adv-x="218" 
d="M161 638c0 -29 -23 -52 -52 -52s-52 23 -52 52s23 52 52 52s52 -23 52 -52zM152 -45c0 -66 -8 -108 -44 -144c-28 -28 -72 -40 -112 -40c-42 0 -73 15 -79 18l21 63c9 -3 27 -10 50 -10c36 0 50 14 57 21c17 17 22 44 22 84v537h85v-529z" />
    <glyph glyph-name="k" unicode="k" horiz-adv-x="493" 
d="M476 0h-105l-219 253v-253h-85v721h85v-443l206 206h108l-224 -217z" />
    <glyph glyph-name="l" unicode="l" horiz-adv-x="219" 
d="M152 0h-85v721h85v-721z" />
    <glyph glyph-name="m" unicode="m" horiz-adv-x="802" 
d="M742 0h-85v283c0 30 1 90 -24 117c-15 17 -37 25 -66 25c-59 0 -117 -34 -128 -41c8 -21 8 -74 8 -113v-271h-84v268c0 65 1 109 -24 135c-13 13 -34 22 -63 22c-59 0 -117 -36 -124 -40v-385h-85v484h76v-36c6 4 72 49 148 49c61 0 97 -26 119 -56c40 25 95 56 168 56
c67 0 101 -27 116 -42c46 -46 48 -96 48 -174v-281z" />
    <glyph glyph-name="n" unicode="n" horiz-adv-x="518" 
d="M458 0h-85v275c0 61 -1 101 -26 126c-13 13 -38 24 -68 24c-62 0 -123 -39 -127 -42v-383h-85v484h76v-36c8 5 69 49 151 49c67 0 101 -27 116 -42c46 -46 48 -96 48 -174v-281z" />
    <glyph glyph-name="o" unicode="o" horiz-adv-x="540" 
d="M498 242c0 -152 -91 -253 -231 -253c-135 0 -225 100 -225 253c0 152 91 255 232 255c135 0 224 -100 224 -255zM413 241c0 111 -61 186 -144 186c-87 0 -142 -73 -142 -182c0 -111 62 -185 145 -185c90 0 141 71 141 181z" />
    <glyph glyph-name="p" unicode="p" horiz-adv-x="535" 
d="M493 250c0 -156 -102 -261 -236 -261c-62 0 -100 26 -105 29v-232h-85v698h76v-36c7 6 54 49 136 49c129 0 214 -101 214 -247zM407 250c0 106 -61 175 -143 175c-66 0 -109 -40 -112 -42v-290c8 -6 41 -32 97 -32c93 0 158 71 158 189z" />
    <glyph glyph-name="q" unicode="q" horiz-adv-x="536" 
d="M469 -214h-85v243c-10 -6 -56 -40 -132 -40c-130 0 -210 109 -210 244c0 151 101 264 247 264c91 0 169 -41 180 -46v-665zM384 102v301c-7 3 -44 21 -97 21c-94 0 -159 -74 -159 -188c0 -106 59 -174 139 -174c61 0 111 36 117 40z" />
    <glyph glyph-name="r" unicode="r" horiz-adv-x="379" 
d="M351 488l-20 -68c-6 1 -21 3 -36 3c-95 0 -135 -69 -143 -79v-344h-85v484h76v-63c5 6 58 76 156 76c36 0 49 -8 52 -9z" />
    <glyph glyph-name="s" unicode="s" horiz-adv-x="413" 
d="M373 135c0 -94 -82 -148 -177 -148c-96 0 -160 43 -166 48l32 59c10 -6 59 -37 129 -37c52 0 93 29 93 72c0 99 -239 77 -239 231c0 82 70 137 169 137c94 0 148 -39 153 -43l-32 -57c-6 4 -56 33 -115 33s-89 -29 -89 -65c0 -93 242 -76 242 -230z" />
    <glyph glyph-name="t" unicode="t" horiz-adv-x="372" 
d="M351 14c-6 -3 -44 -26 -104 -26c-44 0 -83 11 -109 37c-35 35 -32 84 -32 142v247h-85v70h85v136h85v-136h149v-70h-149v-261c0 -49 2 -92 71 -92c39 0 63 12 67 13z" />
    <glyph glyph-name="u" unicode="u" horiz-adv-x="518" 
d="M451 0h-76v36c-8 -5 -69 -49 -151 -49c-50 0 -95 17 -118 40c-46 46 -46 98 -46 176v281h85v-275c0 -61 1 -101 26 -126c13 -13 38 -24 68 -24c62 0 123 39 127 42v383h85v-484z" />
    <glyph glyph-name="v" unicode="v" horiz-adv-x="509" 
d="M483 484l-188 -484h-90l-187 484h90l146 -393l145 393h84z" />
    <glyph glyph-name="w" unicode="w" horiz-adv-x="753" 
d="M715 484l-139 -484h-96l-110 397l-110 -397h-94l-134 484h84l102 -395l109 395h94l108 -395l105 395h81z" />
    <glyph glyph-name="x" unicode="x" horiz-adv-x="507" 
d="M478 0h-99l-131 189l-131 -189h-94l177 246l-166 238h100l120 -175l119 175h92l-163 -236z" />
    <glyph glyph-name="y" unicode="y" horiz-adv-x="514" 
d="M489 484l-192 -508c-33 -86 -56 -127 -88 -159c-26 -26 -70 -46 -126 -46s-93 20 -98 22l24 64c7 -2 32 -14 70 -14c31 0 57 10 75 28c28 28 44 70 64 121l-201 492h92l154 -392l140 392h86z" />
    <glyph glyph-name="z" unicode="z" horiz-adv-x="485" 
d="M430 0h-385v62l270 351h-259v71h364v-64l-266 -348h276v-72z" />
    <glyph glyph-name="aacute" unicode="&#xe1;" horiz-adv-x="479" 
d="M419 0h-76v36c-6 -3 -65 -46 -148 -46c-94 0 -156 61 -156 150c0 160 201 164 276 164h22v31c0 27 -1 49 -20 68s-50 25 -85 25c-71 0 -126 -34 -133 -38l-31 57c5 5 68 50 172 50c53 0 106 -15 140 -49c36 -36 39 -77 39 -144v-304zM337 95v145h-25
c-77 0 -139 -11 -170 -42c-15 -15 -22 -32 -22 -56c0 -49 35 -83 96 -83c60 0 110 31 121 36zM365 631l-220 -85l-27 50l212 107z" />
    <glyph glyph-name="agrave" unicode="&#xe0;" horiz-adv-x="479" 
d="M419 0h-76v36c-6 -3 -65 -46 -148 -46c-94 0 -156 61 -156 150c0 160 201 164 276 164h22v31c0 27 -1 49 -20 68s-50 25 -85 25c-71 0 -126 -34 -133 -38l-31 57c5 5 68 50 172 50c53 0 106 -15 140 -49c36 -36 39 -77 39 -144v-304zM337 95v145h-25
c-77 0 -139 -11 -170 -42c-15 -15 -22 -32 -22 -56c0 -49 35 -83 96 -83c60 0 110 31 121 36zM367 596l-27 -50l-220 85l35 72z" />
    <glyph glyph-name="acircumflex" unicode="&#xe2;" horiz-adv-x="479" 
d="M419 0h-76v36c-6 -3 -65 -46 -148 -46c-94 0 -156 61 -156 150c0 160 201 164 276 164h22v31c0 27 -1 49 -20 68s-50 25 -85 25c-71 0 -126 -34 -133 -38l-31 57c5 5 68 50 172 50c53 0 106 -15 140 -49c36 -36 39 -77 39 -144v-304zM337 95v145h-25
c-77 0 -139 -11 -170 -42c-15 -15 -22 -32 -22 -56c0 -49 35 -83 96 -83c60 0 110 31 121 36zM395 594l-33 -47l-125 70l-126 -70l-33 49l159 108z" />
    <glyph glyph-name="atilde" unicode="&#xe3;" horiz-adv-x="479" 
d="M419 0h-76v36c-6 -3 -65 -46 -148 -46c-94 0 -156 61 -156 150c0 160 201 164 276 164h22v31c0 27 -1 49 -20 68s-50 25 -85 25c-71 0 -126 -34 -133 -38l-31 57c5 5 68 50 172 50c53 0 106 -15 140 -49c36 -36 39 -77 39 -144v-304zM337 95v145h-25
c-77 0 -139 -11 -170 -42c-15 -15 -22 -32 -22 -56c0 -49 35 -83 96 -83c60 0 110 31 121 36zM405 617c-23 -23 -64 -54 -108 -54c-41 0 -72 25 -109 25c-24 0 -47 -15 -67 -28l-39 49c28 24 63 52 107 52c41 0 73 -25 109 -25c27 0 52 16 69 30z" />
    <glyph glyph-name="adieresis" unicode="&#xe4;" horiz-adv-x="479" 
d="M419 0h-76v36c-6 -3 -65 -46 -148 -46c-94 0 -156 61 -156 150c0 160 201 164 276 164h22v31c0 27 -1 49 -20 68s-50 25 -85 25c-71 0 -126 -34 -133 -38l-31 57c5 5 68 50 172 50c53 0 106 -15 140 -49c36 -36 39 -77 39 -144v-304zM337 95v145h-25
c-77 0 -139 -11 -170 -42c-15 -15 -22 -32 -22 -56c0 -49 35 -83 96 -83c60 0 110 31 121 36zM379 623c0 -30 -24 -53 -54 -53s-53 23 -53 53s23 53 53 53s54 -23 54 -53zM213 623c0 -30 -24 -53 -54 -53s-53 23 -53 53s23 53 53 53s54 -23 54 -53z" />
    <glyph glyph-name="aring" unicode="&#xe5;" horiz-adv-x="479" 
d="M419 0h-76v36c-6 -3 -65 -46 -148 -46c-94 0 -156 61 -156 150c0 160 201 164 276 164h22v31c0 27 -1 49 -20 68s-50 25 -85 25c-71 0 -126 -34 -133 -38l-31 57c5 5 68 50 172 50c53 0 106 -15 140 -49c36 -36 39 -77 39 -144v-304zM337 95v145h-25
c-77 0 -139 -11 -170 -42c-15 -15 -22 -32 -22 -56c0 -49 35 -83 96 -83c60 0 110 31 121 36zM341 639c0 -56 -46 -102 -102 -102s-102 46 -102 102c0 57 47 101 102 101c57 0 102 -46 102 -101zM292 639c0 30 -24 53 -53 53s-53 -24 -53 -53s24 -53 53 -53
c30 0 53 24 53 53z" />
    <glyph glyph-name="ae" unicode="&#xe6;" horiz-adv-x="804" 
d="M762 255c0 -10 -2 -27 -2 -36h-337c-1 -83 47 -158 152 -158c76 0 128 33 137 38l32 -58c-8 -6 -74 -52 -176 -52s-150 50 -165 66c-35 -30 -98 -66 -193 -66c-97 0 -168 53 -168 147c0 156 208 159 271 159h25v21c0 40 -1 66 -20 86c-13 14 -39 26 -84 26
c-72 0 -125 -34 -132 -38l-32 57c5 4 69 50 173 50c62 0 102 -17 129 -40c15 -13 23 -25 27 -33c8 10 59 73 164 73c122 0 199 -90 199 -242zM680 286c0 56 -26 143 -116 143c-76 0 -133 -56 -140 -143h256zM367 107c-5 8 -29 52 -27 123h-30c-88 0 -188 -11 -188 -93
c0 -51 47 -77 99 -77c68 0 121 28 146 47z" />
    <glyph glyph-name="ccedilla" unicode="&#xe7;" horiz-adv-x="475" 
d="M449 43c-3 -4 -73 -54 -172 -54l-6 -39c4 2 13 4 23 4c51 0 86 -34 86 -84c0 -58 -50 -90 -98 -90c-39 0 -65 14 -74 22l18 38c5 -3 25 -13 50 -13c40 0 49 25 49 41c0 23 -17 39 -42 39c-18 0 -34 -8 -41 -13l-28 17l15 82c-113 20 -187 111 -187 241
c0 154 103 263 246 263c91 0 149 -46 154 -52l-36 -55c-9 6 -51 35 -116 35c-99 0 -162 -84 -162 -183c0 -107 62 -179 157 -179c73 0 125 36 129 38z" />
    <glyph glyph-name="eth" unicode="&#xf0;" horiz-adv-x="520" 
d="M478 317c0 -202 -83 -330 -223 -330c-127 0 -213 105 -213 259c0 141 74 251 212 251c55 0 107 -29 123 -38c-12 79 -54 121 -75 138l-126 -56l-29 58l92 41c-29 17 -92 33 -155 40l6 64c99 -6 174 -27 232 -66l98 45l29 -58l-70 -32c79 -76 99 -200 99 -316zM390 311
c0 18 -1 44 -3 64c-34 30 -85 50 -124 50c-84 0 -134 -70 -134 -181c0 -110 51 -184 127 -184c95 0 134 113 134 251z" />
    <glyph glyph-name="eacute" unicode="&#xe9;" horiz-adv-x="508" 
d="M466 255c0 -10 -2 -27 -2 -36h-337c-1 -83 47 -158 152 -158c76 0 128 33 137 38l32 -58c-8 -6 -74 -52 -176 -52c-147 0 -230 106 -230 250c0 154 90 258 225 258c122 0 199 -90 199 -242zM384 286c0 56 -26 143 -116 143c-76 0 -133 -56 -140 -143h256zM384 631
l-220 -85l-27 50l212 107z" />
    <glyph glyph-name="egrave" unicode="&#xe8;" horiz-adv-x="508" 
d="M466 255c0 -10 -2 -27 -2 -36h-337c-1 -83 47 -158 152 -158c76 0 128 33 137 38l32 -58c-8 -6 -74 -52 -176 -52c-147 0 -230 106 -230 250c0 154 90 258 225 258c122 0 199 -90 199 -242zM384 286c0 56 -26 143 -116 143c-76 0 -133 -56 -140 -143h256zM382 596
l-27 -50l-220 85l35 72z" />
    <glyph glyph-name="ecircumflex" unicode="&#xea;" horiz-adv-x="508" 
d="M466 255c0 -10 -2 -27 -2 -36h-337c-1 -83 47 -158 152 -158c76 0 128 33 137 38l32 -58c-8 -6 -74 -52 -176 -52c-147 0 -230 106 -230 250c0 154 90 258 225 258c122 0 199 -90 199 -242zM384 286c0 56 -26 143 -116 143c-76 0 -133 -56 -140 -143h256zM422 594
l-33 -47l-125 70l-126 -70l-33 49l159 108z" />
    <glyph glyph-name="edieresis" unicode="&#xeb;" horiz-adv-x="508" 
d="M466 255c0 -10 -2 -27 -2 -36h-337c-1 -83 47 -158 152 -158c76 0 128 33 137 38l32 -58c-8 -6 -74 -52 -176 -52c-147 0 -230 106 -230 250c0 154 90 258 225 258c122 0 199 -90 199 -242zM384 286c0 56 -26 143 -116 143c-76 0 -133 -56 -140 -143h256zM401 623
c0 -30 -24 -53 -54 -53s-53 23 -53 53s23 53 53 53s54 -23 54 -53zM235 623c0 -30 -24 -53 -54 -53s-53 23 -53 53s23 53 53 53s54 -23 54 -53z" />
    <glyph glyph-name="iacute" unicode="&#xed;" horiz-adv-x="218" 
d="M152 0h-85v484h85v-484zM232 631l-220 -85l-27 50l212 107z" />
    <glyph glyph-name="igrave" unicode="&#xec;" horiz-adv-x="218" 
d="M152 0h-85v484h85v-484zM233 596l-27 -50l-220 85l35 72z" />
    <glyph glyph-name="icircumflex" unicode="&#xee;" horiz-adv-x="218" 
d="M152 0h-85v484h85v-484zM269 594l-33 -47l-125 70l-126 -70l-33 49l159 108z" />
    <glyph glyph-name="idieresis" unicode="&#xef;" horiz-adv-x="218" 
d="M152 0h-85v484h85v-484zM246 623c0 -30 -24 -53 -54 -53s-53 23 -53 53s23 53 53 53s54 -23 54 -53zM80 623c0 -30 -24 -53 -54 -53s-53 23 -53 53s23 53 53 53s54 -23 54 -53z" />
    <glyph glyph-name="dotlessi" unicode="&#x131;" horiz-adv-x="218" 
d="M152 0h-85v484h85v-484z" />
    <glyph glyph-name="lslash" unicode="&#x142;" horiz-adv-x="332" 
d="M331 452l-125 -94v-358h-85v303l-73 -58l-44 54l117 91v331h85v-275l81 62z" />
    <glyph glyph-name="ntilde" unicode="&#xf1;" horiz-adv-x="518" 
d="M458 0h-85v275c0 61 -1 101 -26 126c-13 13 -38 24 -68 24c-62 0 -123 -39 -127 -42v-383h-85v484h76v-36c8 5 69 49 151 49c67 0 101 -27 116 -42c46 -46 48 -96 48 -174v-281zM425 617c-23 -23 -64 -54 -108 -54c-41 0 -72 25 -109 25c-24 0 -47 -15 -67 -28l-39 49
c28 24 63 52 107 52c41 0 73 -25 109 -25c27 0 52 16 69 30z" />
    <glyph glyph-name="oacute" unicode="&#xf3;" horiz-adv-x="540" 
d="M498 242c0 -152 -91 -253 -231 -253c-135 0 -225 100 -225 253c0 152 91 255 232 255c135 0 224 -100 224 -255zM413 241c0 111 -61 186 -144 186c-87 0 -142 -73 -142 -182c0 -111 62 -185 145 -185c90 0 141 71 141 181zM396 631l-220 -85l-27 50l212 107z" />
    <glyph glyph-name="ograve" unicode="&#xf2;" horiz-adv-x="540" 
d="M498 242c0 -152 -91 -253 -231 -253c-135 0 -225 100 -225 253c0 152 91 255 232 255c135 0 224 -100 224 -255zM413 241c0 111 -61 186 -144 186c-87 0 -142 -73 -142 -182c0 -111 62 -185 145 -185c90 0 141 71 141 181zM392 596l-27 -50l-220 85l35 72z" />
    <glyph glyph-name="ocircumflex" unicode="&#xf4;" horiz-adv-x="540" 
d="M498 242c0 -152 -91 -253 -231 -253c-135 0 -225 100 -225 253c0 152 91 255 232 255c135 0 224 -100 224 -255zM413 241c0 111 -61 186 -144 186c-87 0 -142 -73 -142 -182c0 -111 62 -185 145 -185c90 0 141 71 141 181zM433 594l-33 -47l-125 70l-126 -70l-33 49
l159 108z" />
    <glyph glyph-name="otilde" unicode="&#xf5;" horiz-adv-x="540" 
d="M498 242c0 -152 -91 -253 -231 -253c-135 0 -225 100 -225 253c0 152 91 255 232 255c135 0 224 -100 224 -255zM413 241c0 111 -61 186 -144 186c-87 0 -142 -73 -142 -182c0 -111 62 -185 145 -185c90 0 141 71 141 181zM431 617c-23 -23 -64 -54 -108 -54
c-41 0 -72 25 -109 25c-24 0 -47 -15 -67 -28l-39 49c28 24 63 52 107 52c41 0 73 -25 109 -25c27 0 52 16 69 30z" />
    <glyph glyph-name="odieresis" unicode="&#xf6;" horiz-adv-x="540" 
d="M498 242c0 -152 -91 -253 -231 -253c-135 0 -225 100 -225 253c0 152 91 255 232 255c135 0 224 -100 224 -255zM413 241c0 111 -61 186 -144 186c-87 0 -142 -73 -142 -182c0 -111 62 -185 145 -185c90 0 141 71 141 181zM408 623c0 -30 -24 -53 -54 -53s-53 23 -53 53
s23 53 53 53s54 -23 54 -53zM242 623c0 -30 -24 -53 -54 -53s-53 23 -53 53s23 53 53 53s54 -23 54 -53z" />
    <glyph glyph-name="oslash" unicode="&#xf8;" horiz-adv-x="540" 
d="M498 242c0 -152 -91 -253 -231 -253c-57 0 -89 17 -89 17l-40 -65l-56 32l40 67c-51 44 -80 115 -80 202c0 152 91 255 232 255c61 0 97 -20 102 -23l40 65l56 -34l-44 -69c50 -46 70 -122 70 -194zM413 241c0 80 -26 114 -29 118l-168 -287s19 -12 56 -12
c90 0 141 71 141 181zM338 407c-6 4 -27 20 -69 20c-87 0 -142 -73 -142 -182c0 -87 39 -133 39 -133z" />
    <glyph glyph-name="oe" unicode="&#x153;" horiz-adv-x="883" 
d="M841 255c0 -10 -2 -27 -2 -36h-337c-1 -83 47 -158 152 -158c76 0 128 33 137 38l32 -58c-8 -6 -74 -52 -176 -52c-129 0 -179 82 -191 98c-9 -13 -59 -98 -189 -98c-135 0 -225 100 -225 253c0 152 91 255 232 255c124 0 176 -84 184 -100c13 19 62 100 184 100
s199 -90 199 -242zM759 286c0 56 -26 143 -116 143c-76 0 -133 -56 -140 -143h256zM413 241c0 111 -61 186 -144 186c-87 0 -142 -73 -142 -182c0 -111 62 -185 145 -185c90 0 141 71 141 181z" />
    <glyph glyph-name="thorn" unicode="&#xfe;" horiz-adv-x="535" 
d="M493 250c0 -156 -102 -261 -236 -261c-62 0 -100 26 -105 29v-232h-85v935h79v-271c7 6 53 47 133 47c129 0 214 -101 214 -247zM407 250c0 106 -61 175 -143 175c-66 0 -109 -40 -112 -42v-290c8 -6 41 -32 97 -32c93 0 158 71 158 189z" />
    <glyph glyph-name="scaron" unicode="&#x161;" horiz-adv-x="413" 
d="M373 135c0 -94 -82 -148 -177 -148c-96 0 -160 43 -166 48l32 59c10 -6 59 -37 129 -37c52 0 93 29 93 72c0 99 -239 77 -239 231c0 82 70 137 169 137c94 0 148 -39 153 -43l-32 -57c-6 4 -56 33 -115 33s-89 -29 -89 -65c0 -93 242 -76 242 -230zM373 655l-159 -108
l-158 110l33 47l125 -70l126 70z" />
    <glyph glyph-name="germandbls" unicode="&#xdf;" horiz-adv-x="545" 
d="M503 159c0 -107 -82 -170 -184 -170c-69 0 -112 25 -121 29l27 67c8 -3 41 -21 86 -21c64 0 105 36 105 90c0 25 -11 46 -28 65c-27 29 -78 55 -111 89c-18 18 -25 36 -25 57c0 73 110 103 110 197c0 58 -39 98 -100 98c-28 0 -52 -7 -74 -29c-27 -28 -36 -75 -36 -159
v-472h-85v463c0 91 5 167 55 217c36 36 83 54 141 54c109 0 187 -69 187 -171c0 -120 -105 -151 -105 -188c0 -10 5 -16 13 -24c38 -39 145 -78 145 -192z" />
    <glyph glyph-name="uacute" unicode="&#xfa;" horiz-adv-x="518" 
d="M451 0h-76v36c-8 -5 -69 -49 -151 -49c-50 0 -95 17 -118 40c-46 46 -46 98 -46 176v281h85v-275c0 -61 1 -101 26 -126c13 -13 38 -24 68 -24c62 0 123 39 127 42v383h85v-484zM383 631l-220 -85l-27 50l212 107z" />
    <glyph glyph-name="ugrave" unicode="&#xf9;" horiz-adv-x="518" 
d="M451 0h-76v36c-8 -5 -69 -49 -151 -49c-50 0 -95 17 -118 40c-46 46 -46 98 -46 176v281h85v-275c0 -61 1 -101 26 -126c13 -13 38 -24 68 -24c62 0 123 39 127 42v383h85v-484zM371 596l-27 -50l-220 85l35 72z" />
    <glyph glyph-name="ucircumflex" unicode="&#xfb;" horiz-adv-x="518" 
d="M451 0h-76v36c-8 -5 -69 -49 -151 -49c-50 0 -95 17 -118 40c-46 46 -46 98 -46 176v281h85v-275c0 -61 1 -101 26 -126c13 -13 38 -24 68 -24c62 0 123 39 127 42v383h85v-484zM413 594l-33 -47l-125 70l-126 -70l-33 49l159 108z" />
    <glyph glyph-name="udieresis" unicode="&#xfc;" horiz-adv-x="518" 
d="M451 0h-76v36c-8 -5 -69 -49 -151 -49c-50 0 -95 17 -118 40c-46 46 -46 98 -46 176v281h85v-275c0 -61 1 -101 26 -126c13 -13 38 -24 68 -24c62 0 123 39 127 42v383h85v-484zM390 623c0 -30 -24 -53 -54 -53s-53 23 -53 53s23 53 53 53s54 -23 54 -53zM224 623
c0 -30 -24 -53 -54 -53s-53 23 -53 53s23 53 53 53s54 -23 54 -53z" />
    <glyph glyph-name="yacute" unicode="&#xfd;" horiz-adv-x="514" 
d="M489 484l-192 -508c-33 -86 -56 -127 -88 -159c-26 -26 -70 -46 -126 -46s-93 20 -98 22l24 64c7 -2 32 -14 70 -14c31 0 57 10 75 28c28 28 44 70 64 121l-201 492h92l154 -392l140 392h86zM375 631l-220 -85l-27 50l212 107z" />
    <glyph glyph-name="ydieresis" unicode="&#xff;" horiz-adv-x="514" 
d="M489 484l-192 -508c-33 -86 -56 -127 -88 -159c-26 -26 -70 -46 -126 -46s-93 20 -98 22l24 64c7 -2 32 -14 70 -14c31 0 57 10 75 28c28 28 44 70 64 121l-201 492h92l154 -392l140 392h86zM398 623c0 -30 -24 -53 -54 -53s-53 23 -53 53s23 53 53 53s54 -23 54 -53z
M232 623c0 -30 -24 -53 -54 -53s-53 23 -53 53s23 53 53 53s54 -23 54 -53z" />
    <glyph glyph-name="zcaron" unicode="&#x17e;" horiz-adv-x="485" 
d="M430 0h-385v62l270 351h-259v71h364v-64l-266 -348h276v-72zM400 655l-159 -108l-158 110l33 47l125 -70l126 70z" />
    <glyph glyph-name="Asmall" unicode="&#xf761;" horiz-adv-x="518" 
d="M507 0h-92l-49 132h-219l-49 -132h-87l203 520h89zM340 200l-84 227l-85 -227h169z" />
    <glyph glyph-name="Bsmall" unicode="&#xf762;" horiz-adv-x="488" 
d="M442 151c0 -41 -15 -78 -42 -103c-54 -50 -125 -48 -227 -48h-100v520h156c57 0 111 -3 151 -40c30 -28 44 -60 44 -99c0 -81 -64 -110 -90 -114c57 -8 108 -43 108 -116zM340 377c0 22 -7 40 -20 53c-28 28 -81 24 -117 24h-46v-158h57c49 0 86 9 106 29
c13 13 20 31 20 52zM355 153c0 18 -4 35 -21 52c-30 31 -92 27 -131 27h-46v-164h62c55 0 88 3 116 31c14 14 20 37 20 54z" />
    <glyph glyph-name="Csmall" unicode="&#xf763;" horiz-adv-x="509" 
d="M489 49c-11 -12 -77 -60 -184 -60c-144 0 -258 99 -258 266c0 174 121 275 268 275c98 0 157 -42 169 -54l-37 -59c-20 12 -61 39 -128 39c-102 0 -181 -73 -181 -195c0 -121 65 -197 175 -197c76 0 129 37 139 43z" />
    <glyph glyph-name="Dsmall" unicode="&#xf764;" horiz-adv-x="584" 
d="M537 264c0 -78 -30 -147 -81 -194c-71 -66 -155 -70 -256 -70h-127v520h128c105 0 187 -3 255 -66c50 -46 81 -115 81 -190zM447 265c0 59 -20 104 -47 131c-38 38 -76 55 -191 55h-48v-381h58c70 0 130 3 178 51c35 35 50 90 50 144z" />
    <glyph glyph-name="Esmall" unicode="&#xf765;" horiz-adv-x="442" 
d="M392 0h-319v520h312v-70h-226v-145h213v-69h-213v-164h233v-72z" />
    <glyph glyph-name="Fsmall" unicode="&#xf766;" horiz-adv-x="421" 
d="M378 450h-219v-145h207v-69h-207v-236h-86v520h305v-70z" />
    <glyph glyph-name="Gsmall" unicode="&#xf767;" horiz-adv-x="553" 
d="M496 41c-8 -6 -75 -52 -189 -52c-146 0 -260 99 -260 267c0 174 120 275 268 275c99 0 157 -40 170 -53l-37 -58c-9 6 -56 37 -129 37c-103 0 -185 -73 -185 -195c0 -121 69 -199 181 -199c32 0 69 4 98 19v114h-112v69h195v-224z" />
    <glyph glyph-name="Hsmall" unicode="&#xf768;" horiz-adv-x="555" 
d="M482 0h-87v236h-235v-236h-87v520h87v-212h235v212h87v-520z" />
    <glyph glyph-name="Ismall" unicode="&#xf769;" horiz-adv-x="233" 
d="M160 0h-87v520h87v-520z" />
    <glyph glyph-name="Jsmall" unicode="&#xf76a;" horiz-adv-x="327" 
d="M261 131c-1 -40 -9 -78 -39 -107c-23 -22 -57 -34 -97 -34c-63 0 -106 27 -116 35l31 60c14 -8 40 -21 67 -21c21 0 37 7 47 16c21 20 20 53 20 84v356h87v-352v-37z" />
    <glyph glyph-name="Ksmall" unicode="&#xf76b;" horiz-adv-x="492" 
d="M483 0h-108l-215 243v-243h-87v520h87v-242l213 242h97l-226 -254z" />
    <glyph glyph-name="Lsmall" unicode="&#xf76c;" horiz-adv-x="417" 
d="M384 0h-311v520h87v-448h224v-72z" />
    <glyph glyph-name="Msmall" unicode="&#xf76d;" horiz-adv-x="734" 
d="M677 0h-88l-42 385l-148 -385h-71l-149 385l-40 -385h-82l61 520h93l156 -400l154 400h93z" />
    <glyph glyph-name="Nsmall" unicode="&#xf76e;" horiz-adv-x="548" 
d="M481 0h-83l-246 385l2 -385h-81v520h83l246 -386l-2 386h81v-520z" />
    <glyph glyph-name="Osmall" unicode="&#xf76f;" horiz-adv-x="609" 
d="M562 263c0 -161 -105 -273 -259 -273c-149 0 -256 112 -256 269c0 160 106 271 260 271c151 0 255 -110 255 -267zM472 265c0 117 -71 193 -170 193s-165 -76 -165 -197c0 -119 73 -198 169 -198c109 0 166 85 166 202z" />
    <glyph glyph-name="Psmall" unicode="&#xf770;" horiz-adv-x="479" 
d="M433 364c0 -43 -15 -86 -47 -116c-56 -52 -125 -47 -195 -47h-31v-201h-87v520h143c66 0 126 -3 169 -43c32 -30 48 -70 48 -113zM346 365c0 30 -10 49 -25 64c-24 24 -67 24 -101 24h-60v-184h42c62 0 96 3 118 25c15 15 26 37 26 71z" />
    <glyph glyph-name="Qsmall" unicode="&#xf771;" horiz-adv-x="612" 
d="M565 -98c-13 -3 -44 -10 -92 -10c-91 0 -172 29 -222 103c-99 16 -204 105 -204 263c0 160 106 272 260 272c151 0 255 -111 255 -268c0 -133 -73 -242 -206 -267c20 -16 59 -37 136 -37c28 0 53 4 63 5zM472 265c0 117 -71 193 -170 193s-165 -76 -165 -197
c0 -119 73 -198 169 -198c109 0 166 85 166 202z" />
    <glyph glyph-name="Rsmall" unicode="&#xf772;" horiz-adv-x="481" 
d="M458 0h-91l-64 135c-36 77 -52 83 -122 83h-22v-218h-86v520h122c61 0 129 4 177 -44c32 -32 44 -66 44 -104c0 -36 -13 -67 -36 -90c-18 -18 -41 -32 -82 -38c50 -4 69 -55 86 -90zM330 372c0 28 -10 44 -22 56c-27 27 -68 25 -104 25h-45v-169h26c49 0 93 2 122 31
c15 15 23 35 23 57z" />
    <glyph glyph-name="Ssmall" unicode="&#xf773;" horiz-adv-x="441" 
d="M390 147c0 -89 -66 -158 -181 -158c-93 0 -163 50 -173 62l42 57c11 -8 61 -46 128 -46c64 0 95 36 95 77c0 103 -246 91 -246 247c0 86 71 145 172 145s152 -49 162 -60l-44 -54c-32 24 -70 41 -113 41c-57 0 -90 -27 -90 -66c0 -41 41 -57 102 -87
c57 -28 146 -71 146 -158z" />
    <glyph glyph-name="Tsmall" unicode="&#xf774;" horiz-adv-x="463" 
d="M435 450h-159v-450h-88v450h-160v70h407v-70z" />
    <glyph glyph-name="Usmall" unicode="&#xf775;" horiz-adv-x="542" 
d="M476 243c0 -104 -6 -155 -49 -198c-33 -33 -83 -55 -156 -55c-61 0 -119 17 -156 54c-51 51 -49 97 -49 158v318h88v-325c0 -37 0 -74 29 -102c21 -20 54 -30 91 -30c35 0 65 11 83 28c28 27 31 57 32 93v57v279h87v-277z" />
    <glyph glyph-name="Vsmall" unicode="&#xf776;" horiz-adv-x="524" 
d="M503 520l-197 -520h-91l-194 520h92l150 -426l154 426h86z" />
    <glyph glyph-name="Wsmall" unicode="&#xf777;" horiz-adv-x="766" 
d="M730 520l-138 -520h-101l-107 414l-111 -414h-100l-137 520h90l99 -413l112 413h99l109 -412l101 412h84z" />
    <glyph glyph-name="Xsmall" unicode="&#xf778;" horiz-adv-x="499" 
d="M477 0h-97l-132 204l-132 -204h-94l179 270l-167 250h98l119 -186l119 186h94l-168 -251z" />
    <glyph glyph-name="Ysmall" unicode="&#xf779;" horiz-adv-x="484" 
d="M463 520l-178 -313v-207h-87v207l-177 313h93l132 -241l132 241h85z" />
    <glyph glyph-name="Zsmall" unicode="&#xf77a;" horiz-adv-x="485" 
d="M436 0h-390v58l276 392h-261v70h368v-60l-271 -388h278v-72z" />
    <glyph glyph-name="Aacutesmall" unicode="&#xf7e1;" horiz-adv-x="518" 
d="M507 0h-92l-49 132h-219l-49 -132h-87l203 520h89zM340 200l-84 227l-85 -227h169zM370 644l-220 -85l-27 50l212 107z" />
    <glyph glyph-name="Agravesmall" unicode="&#xf7e0;" horiz-adv-x="518" 
d="M507 0h-92l-49 132h-219l-49 -132h-87l203 520h89zM340 200l-84 227l-85 -227h169zM374 609l-27 -50l-220 85l35 72z" />
    <glyph glyph-name="Acircumflexsmall" unicode="&#xf7e2;" horiz-adv-x="518" 
d="M507 0h-92l-49 132h-219l-49 -132h-87l203 520h89zM340 200l-84 227l-85 -227h169zM408 606l-33 -47l-125 70l-126 -70l-33 49l159 108z" />
    <glyph glyph-name="Atildesmall" unicode="&#xf7e3;" horiz-adv-x="518" 
d="M507 0h-92l-49 132h-219l-49 -132h-87l203 520h89zM340 200l-84 227l-85 -227h169zM419 627c-23 -23 -64 -54 -108 -54c-41 0 -72 25 -109 25c-24 0 -47 -15 -67 -28l-39 49c28 24 63 52 107 52c41 0 73 -25 109 -25c27 0 52 16 69 30z" />
    <glyph glyph-name="Adieresissmall" unicode="&#xf7e4;" horiz-adv-x="518" 
d="M507 0h-92l-49 132h-219l-49 -132h-87l203 520h89zM340 200l-84 227l-85 -227h169zM386 635c0 -30 -24 -53 -54 -53s-53 23 -53 53s23 53 53 53s54 -23 54 -53zM220 635c0 -30 -24 -53 -54 -53s-53 23 -53 53s23 53 53 53s54 -23 54 -53z" />
    <glyph glyph-name="Aringsmall" unicode="&#xf7e5;" horiz-adv-x="518" 
d="M507 0h-92l-49 132h-219l-49 -132h-87l203 520h89zM340 200l-84 227l-85 -227h169zM352 670c0 -56 -46 -102 -102 -102s-102 46 -102 102c0 57 47 101 102 101c57 0 102 -46 102 -101zM303 670c0 30 -24 53 -53 53s-53 -24 -53 -53s24 -53 53 -53c30 0 53 24 53 53z" />
    <glyph glyph-name="AEsmall" unicode="&#xf7e6;" horiz-adv-x="731" 
d="M681 0h-316v133h-184l-79 -133h-91l321 520h343v-69h-225v-147h212v-68h-212v-166h231v-70zM365 201v248l-146 -248h146z" />
    <glyph glyph-name="Ccedillasmall" unicode="&#xf7e7;" horiz-adv-x="509" 
d="M489 49c-11 -12 -77 -60 -184 -60h-7l-6 -39c4 2 13 4 23 4c51 0 86 -34 86 -84c0 -58 -50 -90 -98 -90c-39 0 -65 14 -74 22l18 38c5 -3 25 -13 50 -13c40 0 49 25 49 41c0 23 -17 39 -42 39c-18 0 -34 -8 -41 -13l-28 17l15 83c-117 22 -203 116 -203 261
c0 174 121 275 268 275c98 0 157 -42 169 -54l-37 -59c-20 12 -61 39 -128 39c-102 0 -181 -73 -181 -195c0 -121 65 -197 175 -197c76 0 129 37 139 43z" />
    <glyph glyph-name="Ethsmall" unicode="&#xf7f0;" horiz-adv-x="617" 
d="M573 264c0 -78 -30 -147 -81 -194c-71 -66 -155 -70 -256 -70h-127v237h-80v66h80v217h128c105 0 187 -3 255 -66c50 -46 81 -115 81 -190zM483 265c0 59 -20 104 -47 131c-38 38 -76 55 -191 55h-48v-148h153v-66h-153v-167h58c70 0 131 4 178 51c35 35 50 90 50 144z
" />
    <glyph glyph-name="Eacutesmall" unicode="&#xf7e9;" horiz-adv-x="442" 
d="M392 0h-319v520h312v-70h-226v-145h213v-69h-213v-164h233v-72zM348 644l-220 -85l-27 50l212 107z" />
    <glyph glyph-name="Egravesmall" unicode="&#xf7e8;" horiz-adv-x="442" 
d="M392 0h-319v520h312v-70h-226v-145h213v-69h-213v-164h233v-72zM349 609l-27 -50l-220 85l35 72z" />
    <glyph glyph-name="Ecircumflexsmall" unicode="&#xf7ea;" horiz-adv-x="442" 
d="M392 0h-319v520h312v-70h-226v-145h213v-69h-213v-164h233v-72zM381 606l-33 -47l-125 70l-126 -70l-33 49l159 108z" />
    <glyph glyph-name="Edieresissmall" unicode="&#xf7eb;" horiz-adv-x="442" 
d="M392 0h-319v520h312v-70h-226v-145h213v-69h-213v-164h233v-72zM360 635c0 -30 -24 -53 -54 -53s-53 23 -53 53s23 53 53 53s54 -23 54 -53zM194 635c0 -30 -24 -53 -54 -53s-53 23 -53 53s23 53 53 53s54 -23 54 -53z" />
    <glyph glyph-name="Iacutesmall" unicode="&#xf7ed;" horiz-adv-x="233" 
d="M160 0h-87v520h87v-520zM240 644l-220 -85l-27 50l212 107z" />
    <glyph glyph-name="Igravesmall" unicode="&#xf7ec;" horiz-adv-x="233" 
d="M160 0h-87v520h87v-520zM240 609l-27 -50l-220 85l35 72z" />
    <glyph glyph-name="Icircumflexsmall" unicode="&#xf7ee;" horiz-adv-x="233" 
d="M160 0h-87v520h87v-520zM275 606l-33 -47l-125 70l-126 -70l-33 49l159 108z" />
    <glyph glyph-name="Idieresissmall" unicode="&#xf7ef;" horiz-adv-x="233" 
d="M160 0h-87v520h87v-520zM253 635c0 -30 -24 -53 -54 -53s-53 23 -53 53s23 53 53 53s54 -23 54 -53zM87 635c0 -30 -24 -53 -54 -53s-53 23 -53 53s23 53 53 53s54 -23 54 -53z" />
    <glyph glyph-name="dotlessismall" horiz-adv-x="233" 
d="M160 0h-87v520h87v-520z" />
    <glyph glyph-name="Lslashsmall" unicode="&#xf6f9;" horiz-adv-x="453" 
d="M420 0h-308v199l-56 -41l-44 54l100 71v237h87v-185l84 60l42 -55l-126 -88v-182h221v-70z" />
    <glyph glyph-name="Ntildesmall" unicode="&#xf7f1;" horiz-adv-x="548" 
d="M481 0h-83l-246 385l2 -385h-81v520h83l246 -386l-2 386h81v-520zM429 627c-23 -23 -64 -54 -108 -54c-41 0 -72 25 -109 25c-24 0 -47 -15 -67 -28l-39 49c28 24 63 52 107 52c41 0 73 -25 109 -25c27 0 52 16 69 30z" />
    <glyph glyph-name="Oacutesmall" unicode="&#xf7f3;" horiz-adv-x="609" 
d="M562 263c0 -161 -105 -273 -259 -273c-149 0 -256 112 -256 269c0 160 106 271 260 271c151 0 255 -110 255 -267zM472 265c0 117 -71 193 -170 193s-165 -76 -165 -197c0 -119 73 -198 169 -198c109 0 166 85 166 202zM423 644l-220 -85l-27 50l212 107z" />
    <glyph glyph-name="Ogravesmall" unicode="&#xf7f2;" horiz-adv-x="609" 
d="M562 263c0 -161 -105 -273 -259 -273c-149 0 -256 112 -256 269c0 160 106 271 260 271c151 0 255 -110 255 -267zM472 265c0 117 -71 193 -170 193s-165 -76 -165 -197c0 -119 73 -198 169 -198c109 0 166 85 166 202zM432 609l-27 -50l-220 85l35 72z" />
    <glyph glyph-name="Ocircumflexsmall" unicode="&#xf7f4;" horiz-adv-x="609" 
d="M562 263c0 -161 -105 -273 -259 -273c-149 0 -256 112 -256 269c0 160 106 271 260 271c151 0 255 -110 255 -267zM472 265c0 117 -71 193 -170 193s-165 -76 -165 -197c0 -119 73 -198 169 -198c109 0 166 85 166 202zM460 606l-33 -47l-125 70l-126 -70l-33 49l159 108
z" />
    <glyph glyph-name="Otildesmall" unicode="&#xf7f5;" horiz-adv-x="609" 
d="M562 263c0 -161 -105 -273 -259 -273c-149 0 -256 112 -256 269c0 160 106 271 260 271c151 0 255 -110 255 -267zM472 265c0 117 -71 193 -170 193s-165 -76 -165 -197c0 -119 73 -198 169 -198c109 0 166 85 166 202zM466 627c-23 -23 -64 -54 -108 -54
c-41 0 -72 25 -109 25c-24 0 -47 -15 -67 -28l-39 49c28 24 63 52 107 52c41 0 73 -25 109 -25c27 0 52 16 69 30z" />
    <glyph glyph-name="Odieresissmall" unicode="&#xf7f6;" horiz-adv-x="609" 
d="M562 263c0 -161 -105 -273 -259 -273c-149 0 -256 112 -256 269c0 160 106 271 260 271c151 0 255 -110 255 -267zM472 265c0 117 -71 193 -170 193s-165 -76 -165 -197c0 -119 73 -198 169 -198c109 0 166 85 166 202zM442 635c0 -30 -24 -53 -54 -53s-53 23 -53 53
s23 53 53 53s54 -23 54 -53zM276 635c0 -30 -24 -53 -54 -53s-53 23 -53 53s23 53 53 53s54 -23 54 -53z" />
    <glyph glyph-name="Oslashsmall" unicode="&#xf7f8;" horiz-adv-x="609" 
d="M562 263c0 -161 -105 -273 -259 -273c-46 0 -77 10 -106 21l-43 -70l-58 34l43 72c-58 48 -92 123 -92 212c0 160 106 271 260 271c40 0 77 -7 110 -22l41 68l59 -35l-42 -70c55 -49 87 -121 87 -208zM472 265c0 54 -15 100 -41 133l-195 -320c15 -9 50 -15 70 -15
c109 0 166 85 166 202zM378 442c-8 5 -37 16 -76 16c-99 0 -165 -76 -165 -197c0 -81 32 -126 46 -141z" />
    <glyph glyph-name="OEsmall" unicode="&#xf6fa;" horiz-adv-x="746" 
d="M696 0h-313c-105 0 -187 3 -255 66c-50 46 -81 115 -81 190c0 78 30 147 81 194c71 66 155 70 256 70h305v-70h-226v-145h213v-69h-213v-164h233v-72zM377 69v381h-12c-70 0 -131 -4 -178 -51c-35 -35 -50 -90 -50 -144c0 -59 20 -104 47 -131c38 -38 76 -55 191 -55h2z
" />
    <glyph glyph-name="Thornsmall" unicode="&#xf7fe;" horiz-adv-x="472" 
d="M427 268c0 -43 -15 -86 -47 -116c-56 -52 -125 -47 -195 -47h-31v-105h-87v520h87v-96h56c66 0 126 -3 169 -43c32 -30 48 -70 48 -113zM340 267c0 26 -10 51 -28 68c-25 23 -77 21 -108 21h-50v-183h28c38 0 99 -5 130 24c17 16 28 35 28 70z" />
    <glyph glyph-name="Scaronsmall" unicode="&#xf6fd;" horiz-adv-x="441" 
d="M390 147c0 -89 -66 -158 -181 -158c-93 0 -163 50 -173 62l42 57c11 -8 61 -46 128 -46c64 0 95 36 95 77c0 103 -246 91 -246 247c0 86 71 145 172 145s152 -49 162 -60l-44 -54c-32 24 -70 41 -113 41c-57 0 -90 -27 -90 -66c0 -41 41 -57 102 -87
c57 -28 146 -71 146 -158zM387 667l-159 -108l-158 110l33 47l125 -70l126 70z" />
    <glyph glyph-name="germandblssmall" horiz-adv-x="839" 
d="M390 147c0 -89 -66 -158 -181 -158c-93 0 -163 50 -173 62l42 57c11 -8 61 -46 128 -46c64 0 95 36 95 77c0 103 -246 91 -246 247c0 86 71 145 172 145s152 -49 162 -60l-44 -54c-32 24 -70 41 -113 41c-57 0 -90 -27 -90 -66c0 -41 41 -57 102 -87
c57 -28 146 -71 146 -158zM788 147c0 -89 -66 -158 -181 -158c-93 0 -163 50 -173 62l42 57c11 -8 61 -46 128 -46c64 0 95 36 95 77c0 103 -246 91 -246 247c0 86 71 145 172 145s152 -49 162 -60l-44 -54c-32 24 -70 41 -113 41c-57 0 -90 -27 -90 -66
c0 -41 41 -57 102 -87c57 -28 146 -71 146 -158z" />
    <glyph glyph-name="germandbls.small" horiz-adv-x="839" 
d="M390 147c0 -89 -66 -158 -181 -158c-93 0 -163 50 -173 62l42 57c11 -8 61 -46 128 -46c64 0 95 36 95 77c0 103 -246 91 -246 247c0 86 71 145 172 145s152 -49 162 -60l-44 -54c-32 24 -70 41 -113 41c-57 0 -90 -27 -90 -66c0 -41 41 -57 102 -87
c57 -28 146 -71 146 -158zM788 147c0 -89 -66 -158 -181 -158c-93 0 -163 50 -173 62l42 57c11 -8 61 -46 128 -46c64 0 95 36 95 77c0 103 -246 91 -246 247c0 86 71 145 172 145s152 -49 162 -60l-44 -54c-32 24 -70 41 -113 41c-57 0 -90 -27 -90 -66
c0 -41 41 -57 102 -87c57 -28 146 -71 146 -158z" />
    <glyph glyph-name="Uacutesmall" unicode="&#xf7fa;" horiz-adv-x="542" 
d="M476 243c0 -104 -6 -155 -49 -198c-33 -33 -83 -55 -156 -55c-61 0 -119 17 -156 54c-51 51 -49 97 -49 158v318h88v-325c0 -37 0 -74 29 -102c21 -20 54 -30 91 -30c35 0 65 11 83 28c28 27 31 57 32 93v57v279h87v-277zM399 644l-220 -85l-27 50l212 107z" />
    <glyph glyph-name="Ugravesmall" unicode="&#xf7f9;" horiz-adv-x="542" 
d="M476 243c0 -104 -6 -155 -49 -198c-33 -33 -83 -55 -156 -55c-61 0 -119 17 -156 54c-51 51 -49 97 -49 158v318h88v-325c0 -37 0 -74 29 -102c21 -20 54 -30 91 -30c35 0 65 11 83 28c28 27 31 57 32 93v57v279h87v-277zM395 609l-27 -50l-220 85l35 72z" />
    <glyph glyph-name="Ucircumflexsmall" unicode="&#xf7fb;" horiz-adv-x="542" 
d="M476 243c0 -104 -6 -155 -49 -198c-33 -33 -83 -55 -156 -55c-61 0 -119 17 -156 54c-51 51 -49 97 -49 158v318h88v-325c0 -37 0 -74 29 -102c21 -20 54 -30 91 -30c35 0 65 11 83 28c28 27 31 57 32 93v57v279h87v-277zM431 606l-33 -47l-125 70l-126 -70l-33 49
l159 108z" />
    <glyph glyph-name="Udieresissmall" unicode="&#xf7fc;" horiz-adv-x="542" 
d="M476 243c0 -104 -6 -155 -49 -198c-33 -33 -83 -55 -156 -55c-61 0 -119 17 -156 54c-51 51 -49 97 -49 158v318h88v-325c0 -37 0 -74 29 -102c21 -20 54 -30 91 -30c35 0 65 11 83 28c28 27 31 57 32 93v57v279h87v-277zM410 635c0 -30 -24 -53 -54 -53s-53 23 -53 53
s23 53 53 53s54 -23 54 -53zM244 635c0 -30 -24 -53 -54 -53s-53 23 -53 53s23 53 53 53s54 -23 54 -53z" />
    <glyph glyph-name="Yacutesmall" unicode="&#xf7fd;" horiz-adv-x="484" 
d="M463 520l-178 -313v-207h-87v207l-177 313h93l132 -241l132 241h85zM367 644l-220 -85l-27 50l212 107z" />
    <glyph glyph-name="Ydieresissmall" unicode="&#xf7ff;" horiz-adv-x="484" 
d="M463 520l-178 -313v-207h-87v207l-177 313h93l132 -241l132 241h85zM375 635c0 -30 -24 -53 -54 -53s-53 23 -53 53s23 53 53 53s54 -23 54 -53zM209 635c0 -30 -24 -53 -54 -53s-53 23 -53 53s23 53 53 53s54 -23 54 -53z" />
    <glyph glyph-name="Zcaronsmall" unicode="&#xf6ff;" horiz-adv-x="485" 
d="M436 0h-390v58l276 392h-261v70h368v-60l-271 -388h278v-72zM400 667l-159 -108l-158 110l33 47l125 -70l126 70z" />
    <glyph glyph-name="ampersand" unicode="&#x26;" horiz-adv-x="676" 
d="M627 0l-20 -1c-66 0 -92 12 -144 66c-54 -50 -127 -77 -199 -77c-121 0 -212 85 -212 199c0 54 25 103 52 132c24 26 52 43 84 60c-39 52 -69 94 -69 145c0 90 77 155 179 155c98 0 166 -55 166 -141c0 -102 -86 -148 -153 -180l152 -176c20 24 55 103 55 185h76
c-1 -117 -50 -213 -76 -243c46 -49 73 -54 109 -57v-67zM379 535c0 47 -30 77 -81 77c-56 0 -94 -36 -94 -85c0 -30 12 -56 60 -114c85 39 115 73 115 122zM410 120l-176 205c-66 -33 -97 -78 -97 -135c0 -72 58 -127 136 -126c47 1 98 20 137 56z" />
    <glyph glyph-name="ampersandsmall" unicode="&#xf726;" horiz-adv-x="583" 
d="M533 -1l-14 -1c-64 -5 -96 19 -127 49c-8 -6 -63 -58 -160 -58c-101 0 -180 67 -180 159c0 43 19 81 43 105c22 23 59 40 67 44c-13 13 -56 57 -56 108c0 75 68 126 153 126c82 0 137 -52 137 -116c0 -86 -94 -119 -123 -133l120 -131c15 18 39 63 40 136h72
c0 -93 -40 -163 -61 -187c28 -28 49 -37 89 -37v-64zM320 413c0 30 -19 55 -61 55c-45 0 -72 -29 -72 -62c0 -26 19 -48 46 -79c17 8 87 35 87 86zM343 97l-137 151c-6 -3 -72 -30 -72 -96c0 -50 41 -92 106 -92c61 0 98 33 103 37z" />
    <glyph glyph-name="acute" unicode="&#xb4;" horiz-adv-x="393" 
d="M320 631l-220 -85l-27 50l212 107z" />
    <glyph glyph-name="Acute" unicode="&#xf6c9;" horiz-adv-x="393" 
d="M320 801l-220 -85l-27 50l212 107z" />
    <glyph glyph-name="grave" unicode="`" horiz-adv-x="393" 
d="M320 596l-27 -50l-220 85l35 72z" />
    <glyph glyph-name="Grave" unicode="&#xf6ce;" horiz-adv-x="393" 
d="M293 716l-220 85l35 72l212 -107z" />
    <glyph glyph-name="circumflex" unicode="&#x2c6;" horiz-adv-x="393" 
d="M355 594l-33 -47l-125 70l-126 -70l-33 49l159 108z" />
    <glyph glyph-name="Circumflex" unicode="&#xeff7;" horiz-adv-x="393" 
d="M355 763l-33 -47l-125 70l-126 -70l-33 49l159 108z" />
    <glyph glyph-name="tilde" unicode="&#x2dc;" horiz-adv-x="393" 
d="M358 627c-23 -23 -64 -54 -108 -54c-41 0 -72 25 -109 25c-24 0 -47 -15 -67 -28l-39 49c28 24 63 52 107 52c41 0 73 -25 109 -25c27 0 52 16 69 30z" />
    <glyph glyph-name="Tilde" unicode="&#xeff5;" horiz-adv-x="393" 
d="M358 773c-23 -23 -64 -54 -108 -54c-41 0 -72 25 -109 25c-24 0 -47 -15 -67 -28l-39 49c28 24 63 52 107 52c41 0 73 -25 109 -25c27 0 52 16 69 30z" />
    <glyph glyph-name="dieresis" unicode="&#xa8;" horiz-adv-x="393" 
d="M333 623c0 -30 -24 -53 -54 -53s-53 23 -53 53s23 53 53 53s54 -23 54 -53zM167 623c0 -30 -24 -53 -54 -53s-53 23 -53 53s23 53 53 53s54 -23 54 -53z" />
    <glyph glyph-name="Dieresis" unicode="&#xf6cb;" horiz-adv-x="393" 
d="M333 775c0 -30 -24 -53 -54 -53s-53 23 -53 53s23 53 53 53s54 -23 54 -53zM167 775c0 -30 -24 -53 -54 -53s-53 23 -53 53s23 53 53 53s54 -23 54 -53z" />
    <glyph glyph-name="macron" unicode="&#xaf;" horiz-adv-x="393" 
d="M356 591h-318v64h318v-64z" />
    <glyph glyph-name="Macron" unicode="&#xf6d0;" horiz-adv-x="393" 
d="M356 731h-318v64h318v-64z" />
    <glyph glyph-name="breve" unicode="&#x2d8;" horiz-adv-x="393" 
d="M335 692c-6 -83 -58 -135 -138 -135s-133 52 -139 135h64c6 -42 31 -63 75 -63s68 21 74 63h64z" />
    <glyph glyph-name="Breve" unicode="&#xefee;" horiz-adv-x="393" 
d="M335 862c-6 -83 -58 -135 -138 -135s-133 52 -139 135h64c6 -42 31 -63 75 -63s68 21 74 63h64z" />
    <glyph glyph-name="ring" unicode="&#x2da;" horiz-adv-x="393" 
d="M299 639c0 -56 -46 -102 -102 -102s-102 46 -102 102c0 57 47 101 102 101c57 0 102 -46 102 -101zM250 639c0 30 -24 53 -53 53s-53 -24 -53 -53s24 -53 53 -53c30 0 53 24 53 53z" />
    <glyph glyph-name="Ring" unicode="&#xfff3;" horiz-adv-x="393" 
d="M299 818c0 -56 -46 -102 -102 -102s-102 46 -102 102c0 57 47 101 102 101c57 0 102 -46 102 -101zM250 818c0 30 -24 53 -53 53s-53 -24 -53 -53s24 -53 53 -53c30 0 53 24 53 53z" />
    <glyph glyph-name="caron" unicode="&#x2c7;" horiz-adv-x="393" 
d="M355 655l-159 -108l-158 110l33 47l125 -70l126 70z" />
    <glyph glyph-name="Caron" unicode="&#xf6ca;" horiz-adv-x="393" 
d="M355 824l-159 -108l-158 110l33 47l125 -70l126 70z" />
    <glyph glyph-name="hungarumlaut" unicode="&#x2dd;" horiz-adv-x="393" 
d="M334 704l-72 -170l-64 22l56 178zM195 704l-71 -170l-65 22l56 178z" />
    <glyph glyph-name="Hungarumlaut" unicode="&#xf6cf;" horiz-adv-x="393" 
d="M334 883l-72 -170l-64 22l56 178zM195 883l-71 -170l-65 22l56 178z" />
    <glyph glyph-name="dotaccent" unicode="&#x2d9;" horiz-adv-x="393" 
d="M250 623c0 -30 -24 -53 -54 -53s-53 23 -53 53s23 53 53 53s54 -23 54 -53z" />
    <glyph glyph-name="Dotaccent" unicode="&#xefed;" horiz-adv-x="393" 
d="M250 775c0 -30 -24 -53 -54 -53s-53 23 -53 53s23 53 53 53s54 -23 54 -53z" />
    <glyph glyph-name="cedilla" unicode="&#xb8;" horiz-adv-x="393" 
d="M282 -130c0 -58 -50 -90 -98 -90c-39 0 -65 14 -74 22l18 38c5 -3 25 -13 50 -13c40 0 49 25 49 41c0 23 -17 39 -42 39c-18 0 -34 -8 -41 -13l-28 17l16 89h49l-8 -50c4 2 13 4 23 4c51 0 86 -34 86 -84z" />
    <glyph glyph-name="Cedilla" unicode="&#xeff2;" horiz-adv-x="393" 
d="M280 -140c0 -58 -50 -90 -98 -90c-39 0 -65 14 -74 22l18 38c5 -3 25 -13 50 -13c40 0 49 25 49 41c0 23 -17 39 -42 39c-18 0 -34 -8 -41 -13l-28 17l18 99h49l-10 -60c4 2 13 4 23 4c51 0 86 -34 86 -84z" />
    <glyph glyph-name="ogonek" unicode="&#x2db;" horiz-adv-x="393" 
d="M298 -166c-4 -3 -45 -30 -101 -30c-63 0 -103 42 -103 108c0 46 26 75 48 88h71c-30 -23 -65 -43 -65 -88c0 -36 22 -59 58 -59c32 0 67 18 73 21z" />
    <glyph glyph-name="Ogonek" unicode="&#xeff1;" horiz-adv-x="393" 
d="M298 -166c-4 -3 -45 -30 -101 -30c-63 0 -103 42 -103 108c0 46 26 75 48 88h71c-30 -23 -65 -43 -65 -88c0 -36 22 -59 58 -59c32 0 67 18 73 21z" />
    <glyph glyph-name="commaaccent" horiz-adv-x="231" 
d="M194 -68c0 -127 -91 -202 -105 -215l-52 44c16 19 64 69 64 171h93z" />
    <glyph glyph-name="Commaaccent" horiz-adv-x="231" 
d="M194 -68c0 -127 -91 -202 -105 -215l-52 44c16 19 64 69 64 171h93z" />
    <glyph glyph-name="comma" unicode="," horiz-adv-x="264" 
d="M196 80c0 -130 -90 -201 -106 -213l-50 43c8 9 63 74 63 158v27h93v-15z" />
    <glyph glyph-name="semicolon" unicode=";" horiz-adv-x="264" 
d="M203 436c0 -32 -25 -58 -57 -58s-58 26 -58 58s26 57 58 57s57 -25 57 -57zM196 80c0 -118 -75 -190 -106 -213l-50 43c33 44 63 93 63 158v27h93v-15z" />
    <glyph glyph-name="colon" unicode=":" horiz-adv-x="239" 
d="M177 436c0 -32 -25 -58 -57 -58s-58 26 -58 58s26 57 58 57s57 -25 57 -57zM177 50c0 -32 -25 -58 -57 -58s-58 26 -58 58s26 57 58 57s57 -25 57 -57z" />
    <glyph glyph-name="period" unicode="." horiz-adv-x="239" 
d="M177 50c0 -32 -25 -58 -57 -58s-58 26 -58 58s26 57 58 57s57 -25 57 -57z" />
    <glyph glyph-name="ellipsis" unicode="&#x2026;" horiz-adv-x="719" 
d="M657 50c0 -32 -25 -58 -57 -58s-58 26 -58 58s26 57 58 57s57 -25 57 -57zM417 50c0 -32 -25 -58 -57 -58s-58 26 -58 58s26 57 58 57s57 -25 57 -57zM177 50c0 -32 -25 -58 -57 -58s-58 26 -58 58s26 57 58 57s57 -25 57 -57z" />
    <glyph glyph-name="hyphen" unicode="-" horiz-adv-x="491" 
d="M411 221h-330v72h330v-72z" />
    <glyph glyph-name="exclam" unicode="!" horiz-adv-x="322" 
d="M211 667l-13 -491h-73l-16 491h102zM218 50c0 -32 -25 -58 -57 -58s-58 26 -58 58s26 57 58 57s57 -25 57 -57z" />
    <glyph glyph-name="exclamdown" unicode="&#xa1;" horiz-adv-x="322" 
d="M219 439c0 -32 -25 -57 -57 -57s-58 25 -58 57s26 58 58 58s57 -26 57 -58zM212 -178h-102l16 491h73z" />
    <glyph glyph-name="question" unicode="?" horiz-adv-x="506" 
d="M442 503c0 -69 -30 -105 -59 -134c-33 -33 -89 -67 -111 -89c-20 -20 -21 -43 -22 -104h-73c-1 15 -4 34 -4 62c0 41 6 60 26 80c33 33 76 57 113 94c25 25 37 49 37 88c0 61 -44 106 -119 106c-69 0 -135 -44 -141 -48l-37 57c4 5 86 66 194 66c113 0 196 -69 196 -178z
M271 50c0 -32 -25 -58 -57 -58s-58 26 -58 58s26 57 58 57s57 -25 57 -57z" />
    <glyph glyph-name="questiondown" unicode="&#xbf;" horiz-adv-x="506" 
d="M350 439c0 -32 -26 -57 -58 -57s-57 25 -57 57s25 58 57 58s58 -26 58 -58zM454 -126c-4 -5 -86 -66 -194 -66c-113 0 -196 69 -196 178c0 69 30 105 59 134c33 33 89 67 111 89c20 20 21 43 22 104h73c1 -15 4 -34 4 -62c0 -41 -6 -60 -26 -80c-33 -33 -76 -57 -113 -94
c-25 -25 -37 -49 -37 -88c0 -61 44 -106 119 -106c69 0 135 44 141 48z" />
    <glyph glyph-name="quoteleft" unicode="&#x2018;" horiz-adv-x="231" 
d="M194 638c-16 -19 -64 -69 -64 -171h-93c0 127 91 202 105 215z" />
    <glyph glyph-name="quoteright" unicode="&#x2019;" horiz-adv-x="231" 
d="M194 667c0 -127 -91 -202 -105 -215l-52 44c16 19 64 69 64 171h93z" />
    <glyph glyph-name="quotedblleft" unicode="&#x201c;" horiz-adv-x="383" 
d="M346 638c-16 -19 -64 -69 -64 -171h-93c0 127 91 202 105 215zM194 638c-16 -19 -64 -69 -64 -171h-93c0 127 91 202 105 215z" />
    <glyph glyph-name="quotedblright" unicode="&#x201d;" horiz-adv-x="383" 
d="M346 667c0 -127 -91 -202 -105 -215l-52 44c16 19 64 69 64 171h93zM194 667c0 -127 -91 -202 -105 -215l-52 44c16 19 64 69 64 171h93z" />
    <glyph glyph-name="quotesinglbase" unicode="&#x201a;" horiz-adv-x="231" 
d="M194 95c0 -127 -91 -202 -105 -215l-52 44c16 19 64 69 64 171h93z" />
    <glyph glyph-name="quotedblbase" unicode="&#x201e;" horiz-adv-x="383" 
d="M346 95c0 -127 -91 -202 -105 -215l-52 44c16 19 64 69 64 171h93zM194 95c0 -127 -91 -202 -105 -215l-52 44c16 19 64 69 64 171h93z" />
    <glyph glyph-name="guilsinglleft" unicode="&#x2039;" horiz-adv-x="322" 
d="M260 87l-56 -35l-142 194l142 191l56 -37l-92 -154z" />
    <glyph glyph-name="guilsinglright" unicode="&#x203a;" horiz-adv-x="322" 
d="M260 246l-142 -194l-56 35l92 159l-92 154l56 37z" />
    <glyph glyph-name="guillemotleft" unicode="&#xab;" horiz-adv-x="490" 
d="M428 87l-56 -35l-142 194l142 191l56 -37l-92 -154zM260 87l-56 -35l-142 194l142 191l56 -37l-92 -154z" />
    <glyph glyph-name="guillemotright" unicode="&#xbb;" horiz-adv-x="490" 
d="M428 246l-142 -194l-56 35l92 159l-92 154l56 37zM260 246l-142 -194l-56 35l92 159l-92 154l56 37z" />
    <glyph glyph-name="underscore" unicode="_" horiz-adv-x="486" 
d="M488 -123h-490v72h490v-72z" />
    <glyph glyph-name="endash" unicode="&#x2013;" horiz-adv-x="652" 
d="M572 221h-491v72h491v-72z" />
    <glyph glyph-name="emdash" unicode="&#x2014;" horiz-adv-x="992" 
d="M911 221h-830v72h830v-72z" />
    <glyph glyph-name="figuredash" unicode="&#x2012;" 
d="M554 221h-498v72h498v-72z" />
    <glyph glyph-name="bullet" unicode="&#x2022;" horiz-adv-x="513" 
d="M350 261c0 -52 -41 -93 -93 -93c-50 0 -93 41 -93 93c0 50 43 93 93 93c52 0 93 -43 93 -93z" />
    <glyph glyph-name="periodcentered" unicode="&#xb7;" horiz-adv-x="239" 
d="M177 255c0 -32 -25 -58 -57 -58s-58 26 -58 58s26 57 58 57s57 -25 57 -57z" />
    <glyph glyph-name="parenleft" unicode="(" horiz-adv-x="387" 
d="M338 677c-87 -70 -171 -204 -171 -383c0 -182 81 -304 170 -379l-47 -53c-103 73 -218 218 -218 435c0 215 123 373 221 436z" />
    <glyph glyph-name="parenright" unicode=")" horiz-adv-x="387" 
d="M315 297c0 -217 -115 -362 -218 -435l-47 53c89 75 170 197 170 379c0 179 -84 313 -171 383l45 56c98 -63 221 -221 221 -436z" />
    <glyph glyph-name="bracketleft" unicode="[" horiz-adv-x="346" 
d="M303 -123h-222v790h222v-72h-133v-646h133v-72z" />
    <glyph glyph-name="bracketright" unicode="]" horiz-adv-x="346" 
d="M265 -123h-222v72h133v646h-133v72h222v-790z" />
    <glyph glyph-name="braceleft" unicode="{" horiz-adv-x="367" 
d="M324 -123h-58c-48 0 -97 6 -132 41c-24 24 -34 53 -34 130v115c0 28 0 64 -16 78c-9 8 -25 9 -33 10v70c11 1 25 3 33 10c16 14 16 50 16 78v87c0 77 10 106 34 130c35 35 84 41 132 41h58v-71h-33c-50 0 -71 -4 -85 -17s-16 -35 -16 -91v-76c0 -41 2 -92 -24 -114
c-7 -6 -15 -10 -25 -12c10 -2 18 -6 25 -12c26 -22 24 -73 24 -114v-105c0 -56 2 -77 16 -90s35 -18 85 -18h33v-70z" />
    <glyph glyph-name="braceright" unicode="}" horiz-adv-x="367" 
d="M316 251c-8 -1 -24 -2 -33 -10c-16 -14 -16 -50 -16 -78v-115c0 -77 -10 -106 -34 -130c-35 -35 -84 -41 -132 -41h-58v70h33c50 0 71 5 85 18s16 34 16 90v105c0 41 -2 92 24 114c7 6 15 10 25 12c-10 2 -18 6 -25 12c-26 22 -24 73 -24 114v76c0 56 -2 78 -16 91
s-35 17 -85 17h-33v71h58c48 0 97 -6 132 -41c24 -24 34 -53 34 -130v-87c0 -28 0 -64 16 -78c8 -7 22 -9 33 -10v-70z" />
    <glyph glyph-name="asterisk" unicode="*" horiz-adv-x="441" 
d="M388 530l-115 -36l79 -104l-58 -40l-73 104l-74 -104l-56 40l77 104l-115 36l22 66l110 -41v112h71v-112l110 41z" />
    <glyph glyph-name="dagger" unicode="&#x2020;" horiz-adv-x="581" 
d="M508 353h-175l-8 -476h-69l-8 476h-174v76h173l-4 238h95l-4 -238h174v-76z" />
    <glyph glyph-name="daggerdbl" unicode="&#x2021;" horiz-adv-x="581" 
d="M508 353h-176l-1 -124h176v-76h-177l-5 -276h-69l-4 276h-177v76h175l-1 124h-175v76h173l-4 238h95l-4 -238h174v-76z" />
    <glyph glyph-name="section" unicode="&#xa7;" horiz-adv-x="600" 
d="M494 282c0 -62 -32 -109 -101 -139c56 -31 81 -71 81 -124c0 -92 -69 -165 -186 -165c-102 0 -165 49 -174 56l36 60c7 -4 66 -43 133 -43c76 0 109 39 109 83c0 20 -6 37 -21 52c-44 44 -143 54 -203 115c-26 26 -41 57 -41 94c0 54 27 103 106 134
c-59 34 -85 73 -85 127c0 89 67 149 176 149c92 0 144 -46 149 -50l-33 -55c-5 4 -55 36 -113 36c-65 0 -97 -31 -97 -71c0 -18 7 -34 19 -46c40 -41 153 -64 204 -115c24 -25 41 -58 41 -98zM415 269c0 17 -6 35 -20 49c-24 24 -69 44 -100 57c-49 -16 -90 -48 -90 -92
c0 -19 7 -33 20 -46c22 -23 72 -44 109 -59c45 18 81 51 81 91z" />
    <glyph glyph-name="paragraph" unicode="&#xb6;" 
d="M578 593h-66v-716h-76v716h-65v-716h-76v392c-45 1 -133 2 -188 57c-29 29 -56 70 -56 148c0 55 19 100 54 135c53 53 127 58 254 58h219v-74z" />
    <glyph glyph-name="bar" unicode="|" horiz-adv-x="260" 
d="M174 -123h-88v790h88v-790z" />
    <glyph glyph-name="brokenbar" unicode="&#xa6;" horiz-adv-x="260" 
d="M174 363h-88v304h88v-304zM174 -123h-88v304h88v-304z" />
    <glyph glyph-name="slash" unicode="/" horiz-adv-x="461" 
d="M414 667l-305 -816l-71 26l305 816z" />
    <glyph glyph-name="backslash" unicode="\" horiz-adv-x="461" 
d="M423 -123l-71 -26l-305 816l71 26z" />
    <glyph glyph-name="asciicircum" unicode="^" 
d="M535 249h-84l-146 320l-146 -320h-84l199 418h64z" />
    <glyph glyph-name="asciitilde" unicode="~" 
d="M531 260c-30 -39 -69 -67 -119 -67c-59 0 -107 30 -160 46c-16 5 -31 8 -47 8c-33 0 -52 -16 -77 -41l-49 39c10 18 46 70 127 70s138 -54 205 -54c31 0 49 16 76 43z" />
    <glyph glyph-name="quotesingle" unicode="'" horiz-adv-x="197" 
d="M145 667l-10 -237h-73l-10 237h93z" />
    <glyph glyph-name="quotedbl" unicode="&#x22;" horiz-adv-x="333" 
d="M282 667l-10 -237h-73l-10 237h93zM145 667l-10 -237h-73l-10 237h93z" />
    <glyph glyph-name="at" unicode="@" horiz-adv-x="786" 
d="M739 412c0 -145 -111 -242 -268 -242c-6 0 -15 1 -24 2l7 43c-16 -12 -62 -46 -113 -46c-69 0 -115 53 -115 127c0 123 98 218 226 218c59 0 104 -18 111 -21l-51 -266c56 6 93 30 117 55c29 30 47 79 47 129c0 120 -101 205 -248 205c-181 0 -313 -131 -313 -311
c0 -157 113 -257 268 -257c122 0 202 59 209 63l34 -48c-5 -4 -90 -77 -250 -77c-188 0 -329 131 -329 321c0 211 164 369 382 369c178 0 310 -111 310 -264zM489 455c-12 2 -23 4 -37 4c-87 0 -160 -74 -160 -161c0 -40 26 -69 62 -69c44 0 87 35 102 50z" />
    <glyph glyph-name="copyright" unicode="&#xa9;" horiz-adv-x="785" 
d="M738 333c0 -190 -155 -345 -345 -345s-346 155 -346 345s156 346 346 346c193 0 345 -161 345 -346zM671 333c0 156 -126 278 -278 278c-154 0 -279 -128 -279 -278c0 -153 126 -277 279 -277s278 124 278 277zM526 189c-6 -7 -57 -41 -128 -41c-104 0 -176 73 -176 184
c0 115 76 197 184 197c67 0 108 -32 115 -40l-28 -44c-23 15 -46 27 -85 27c-73 0 -118 -61 -118 -134c0 -79 45 -132 115 -132c50 0 85 23 95 28z" />
    <glyph glyph-name="registered" unicode="&#xae;" horiz-adv-x="537" 
d="M490 459c0 -123 -98 -220 -221 -220s-222 97 -222 220s99 221 222 221s221 -98 221 -221zM442 459c0 97 -76 172 -173 172s-173 -75 -173 -172s76 -171 173 -171s173 74 173 171zM371 342h-44l-25 55c-17 37 -24 41 -56 41h-10v-96h-44v239h67c32 0 57 0 76 -19
c12 -12 19 -28 19 -48c0 -16 -5 -30 -15 -41c-9 -9 -22 -17 -38 -19c8 0 15 -4 20 -9c7 -7 12 -19 19 -34zM308 511c0 9 -3 16 -7 20c-9 9 -22 10 -36 10h-29v-63h19c17 0 33 0 44 11c6 6 9 14 9 22z" />
    <glyph glyph-name="trademark" unicode="&#x2122;" horiz-adv-x="764" 
d="M719 312h-61l-25 247l-87 -247h-49l-89 247l-23 -247h-57l38 355h63l95 -262l93 262h62zM301 615h-102v-303h-61v303h-103v52h266v-52z" />
    <glyph glyph-name="ordfeminine" unicode="&#xaa;" horiz-adv-x="425" 
d="M346 310h-61v25c-31 -20 -69 -32 -106 -32c-70 0 -117 45 -117 112c0 120 151 124 205 124h13v20c0 18 1 34 -13 48c-13 13 -36 18 -61 18c-35 0 -68 -12 -98 -29l-25 46c6 5 52 38 129 38c40 0 78 -10 104 -36c27 -27 30 -59 30 -108v-226zM280 384v103h-15
c-56 0 -101 -8 -123 -30c-11 -11 -15 -23 -15 -40c0 -34 23 -59 67 -59c31 0 59 12 86 26z" />
    <glyph glyph-name="ordmasculine" unicode="&#xba;" horiz-adv-x="422" 
d="M381 490c0 -113 -68 -188 -172 -188c-101 0 -168 75 -168 188s68 190 173 190c101 0 167 -75 167 -190zM314 490c0 81 -45 134 -104 134c-62 0 -102 -52 -102 -132c0 -81 45 -133 104 -133c64 0 102 51 102 131z" />
    <glyph glyph-name="afii61352" unicode="&#x2116;" horiz-adv-x="1026" 
d="M565 0h-89l-315 531l2 -531h-82v667h89l315 -533l-2 533h82v-667zM985 490c0 -113 -68 -188 -172 -188c-101 0 -168 75 -168 188s68 190 173 190c101 0 167 -75 167 -190zM918 490c0 81 -45 134 -104 134c-62 0 -102 -52 -102 -132c0 -81 45 -133 104 -133
c64 0 102 51 102 131z" />
    <glyph glyph-name="franc" unicode="&#x20a3;" horiz-adv-x="781" 
d="M442 593h-272v-178h246v-72h-246v-343h-89v667h361v-74zM753 419l-20 -68c-6 1 -21 3 -36 3c-95 0 -135 -69 -143 -79v-275h-85v415h76v-63c5 6 58 76 156 76c36 0 49 -8 52 -9z" />
    <glyph glyph-name="lira" unicode="&#x20a4;" 
d="M83 302h90c-2 12 -7 50 -9 63h-81v63h75v20c0 150 91 232 222 232c111 0 169 -58 176 -67l-42 -53c-11 8 -57 47 -129 47c-83 0 -139 -53 -139 -159v-20h201v-63h-196c2 -16 6 -47 8 -63h188v-63h-184v-7c0 -95 -27 -135 -55 -156h336v-76h-463v67c53 18 96 41 97 148
c0 10 0 14 -1 24h-94v63z" />
    <glyph glyph-name="peseta" unicode="&#x20a7;" horiz-adv-x="1304" 
d="M506 471c0 -74 -31 -121 -55 -145c-62 -62 -133 -61 -225 -61h-57v-265h-88v667h164c86 0 156 -3 207 -55c36 -35 54 -86 54 -141zM416 470c0 38 -13 73 -36 95c-30 31 -80 31 -137 31h-74v-258h53c76 0 125 1 157 33c22 22 37 53 37 99zM874 14c-7 -4 -45 -26 -105 -26
c-44 0 -82 11 -108 37c-30 30 -33 68 -33 123v266h-84v70h84v136h85v-136h149v-70h-149v-247c0 -57 -2 -106 71 -106c35 0 61 13 68 14zM1264 136c0 -93 -70 -149 -180 -149c-98 0 -166 46 -171 50l33 60c5 -3 64 -40 130 -40c68 0 102 29 102 72c0 110 -245 64 -245 232
c0 83 72 136 171 136c92 0 148 -41 151 -44l-31 -56c-6 4 -58 33 -114 33s-91 -27 -91 -63c0 -103 245 -64 245 -231z" />
    <glyph glyph-name="numbersign" unicode="#" horiz-adv-x="579" 
d="M509 519l-9 -66h-89l-15 -107h89l-9 -66h-89l-24 -164h-67l24 164h-94l-24 -164h-67l24 164h-89l9 66h89l15 107h-89l9 66h89l21 148h67l-21 -148h94l21 148h67l-21 -148h89zM344 453h-94l-15 -107h94z" />
    <glyph glyph-name="currency" unicode="&#xa4;" horiz-adv-x="599" 
d="M568 117l-51 -51l-60 59c-42 -33 -97 -51 -161 -51c-62 0 -116 18 -159 51l-59 -59l-51 51l59 60c-29 41 -46 94 -46 157c0 64 17 118 47 161l-60 61l51 51l61 -61c42 32 97 50 161 50c61 0 115 -17 156 -49l61 60l51 -51l-60 -60c29 -42 46 -96 46 -158
c0 -65 -16 -119 -46 -162zM466 340c0 117 -72 188 -172 188c-99 0 -165 -72 -165 -193s73 -192 170 -192c107 0 167 77 167 197z" />
    <glyph glyph-name="Euro" unicode="&#x20ac;" 
d="M551 56c-6 -5 -74 -69 -189 -69c-212 0 -252 207 -253 252h-69v63h65c-1 13 -1 24 -1 35s0 12 1 28h-65v63h69c1 32 40 253 254 253c107 0 170 -60 175 -65l-41 -54c-9 7 -59 47 -129 47c-153 0 -171 -160 -172 -181h245v-63h-251c-1 -13 -1 -20 -1 -33
c0 -17 0 -19 1 -30h251v-63h-245c0 -20 17 -178 169 -178c79 0 137 46 144 51z" />
    <glyph glyph-name="dollar" unicode="$" 
d="M524 189c0 -98 -63 -174 -175 -192v-99h-73v96c-117 6 -184 65 -190 70l44 61c11 -7 70 -51 146 -56v248c-51 23 -95 44 -125 74c-31 31 -46 63 -46 106c0 91 68 158 171 173v88h73v-86c106 -8 160 -60 167 -66l-45 -55c-8 6 -54 42 -122 49v-217c44 -20 92 -45 126 -79
s49 -71 49 -115zM277 413v184c-50 -13 -83 -46 -83 -94c0 -28 17 -44 24 -51c14 -14 37 -28 59 -39zM431 183c0 24 -10 47 -32 69c-13 13 -35 27 -51 35v-213c54 16 83 60 83 109z" />
    <glyph glyph-name="cent" unicode="&#xa2;" 
d="M511 53c-3 -3 -56 -42 -133 -51v-104h-73v103c-121 15 -201 108 -201 243c0 137 82 240 201 259v99h73v-96c75 -9 122 -46 126 -51l-36 -55c-8 5 -41 27 -90 34v-359c56 8 95 34 98 36zM305 78v350c-71 -21 -115 -94 -115 -176c0 -90 44 -155 115 -174z" />
    <glyph glyph-name="sterling" unicode="&#xa3;" 
d="M556 613l-42 -53c-11 8 -56 47 -129 47c-86 0 -139 -56 -139 -159c0 -45 5 -80 7 -95h194v-72h-187c1 -8 3 -32 3 -49c0 -74 -16 -127 -55 -156h336v-76h-463v67c62 19 95 54 95 148c0 30 -2 55 -3 66h-90v72h83c-4 33 -8 63 -8 95c0 145 85 232 222 232
c111 0 169 -58 176 -67z" />
    <glyph glyph-name="florin" unicode="&#x192;" horiz-adv-x="609" 
d="M585 653l-24 -64c-8 3 -41 16 -73 16c-60 0 -81 -33 -100 -126l-26 -126h149l-15 -72h-150l-59 -293c-11 -55 -26 -137 -63 -174c-28 -28 -66 -43 -111 -43c-61 0 -102 23 -109 27l26 65c9 -3 37 -16 71 -16c24 0 43 7 55 19c24 24 32 69 45 134l58 281h-127l15 72h128
l26 128c12 57 23 116 60 153c36 36 78 46 117 46c57 0 101 -24 107 -27z" />
    <glyph glyph-name="yen" unicode="&#xa5;" 
d="M556 667l-179 -313h116v-63h-145v-58h144v-62h-145v-171h-86v171h-146v62h146v58h-147v63h115l-176 313h95l159 -304l162 304h87z" />
    <glyph glyph-name="zero" unicode="0" 
d="M561 335c0 -216 -94 -348 -257 -348s-255 132 -255 349c0 209 94 345 253 345c163 0 259 -134 259 -346zM471 333c0 177 -59 274 -165 274c-109 0 -167 -96 -167 -277c0 -174 59 -269 164 -269c108 0 168 96 168 272z" />
    <glyph glyph-name="one" unicode="1" 
d="M388 0h-88v563l-159 -107l-44 64l220 147h71v-667z" />
    <glyph glyph-name="two" unicode="2" 
d="M516 0h-427v69c30 25 117 107 166 156c109 109 162 177 162 254c0 79 -49 126 -129 126s-149 -60 -154 -65l-47 53c4 6 80 88 211 88c124 0 209 -76 209 -198c0 -108 -76 -192 -160 -276c-60 -60 -136 -129 -139 -131h308v-76z" />
    <glyph glyph-name="three" unicode="3" 
d="M511 188c0 -124 -96 -201 -234 -201c-136 0 -198 63 -205 72l44 57c5 -3 59 -53 149 -53c97 0 155 47 155 122c0 36 -17 64 -33 80c-35 34 -83 40 -161 40h-16v74h16c59 0 114 1 156 43c18 18 28 43 28 73c0 63 -50 110 -131 110c-83 0 -144 -54 -150 -59l-45 53
c3 4 77 82 206 82c126 0 208 -74 208 -181c0 -70 -44 -145 -123 -156c86 -9 136 -77 136 -156z" />
    <glyph glyph-name="four" unicode="4" 
d="M551 151h-88v-151h-84v151h-323v67l319 449h88v-443h88v-73zM379 224v329l-230 -329h230z" />
    <glyph glyph-name="five" unicode="5" 
d="M517 217c0 -141 -97 -230 -242 -230c-128 0 -192 64 -196 69l43 58c7 -5 64 -51 146 -51c97 0 160 55 160 147c0 79 -51 146 -159 146c-63 0 -107 -27 -114 -31l-35 21v321h373v-74h-289v-180c5 2 39 17 92 17c138 0 221 -87 221 -213z" />
    <glyph glyph-name="six" unicode="6" 
d="M544 222c0 -135 -90 -235 -227 -235c-176 0 -245 161 -245 329c0 187 72 365 267 365c122 0 184 -59 188 -65l-41 -58c-9 7 -60 49 -138 49c-146 0 -190 -132 -193 -259v-25c23 76 102 119 181 119c129 0 208 -94 208 -220zM461 218c0 85 -48 150 -135 150
c-89 0 -149 -70 -149 -156c0 -85 59 -151 144 -151c88 0 140 71 140 157z" />
    <glyph glyph-name="seven" unicode="7" 
d="M537 598l-270 -598h-97l274 591h-365v76h458v-69z" />
    <glyph glyph-name="eight" unicode="8" 
d="M542 181c0 -119 -94 -194 -234 -194c-145 0 -240 73 -240 193c0 85 51 157 134 166c-75 18 -114 79 -114 150c0 110 88 185 216 185c130 0 218 -73 218 -182c0 -75 -40 -136 -112 -153c86 -15 132 -78 132 -165zM437 495c0 68 -51 116 -131 116s-132 -49 -132 -115
c0 -69 55 -118 133 -118c76 0 130 48 130 117zM455 185c0 77 -56 125 -149 125c-94 0 -151 -50 -151 -124c0 -79 56 -129 154 -129c92 0 146 50 146 128z" />
    <glyph glyph-name="nine" unicode="9" 
d="M537 352c0 -187 -71 -365 -266 -365c-122 0 -185 59 -189 65l42 58c9 -7 60 -50 138 -50c146 0 190 133 193 260v24c-23 -76 -102 -118 -181 -118c-129 0 -209 94 -209 220c0 135 91 235 228 235c176 0 244 -161 244 -329zM433 456c0 85 -59 151 -144 151
c-88 0 -140 -72 -140 -158c0 -85 48 -149 135 -149c89 0 149 70 149 156z" />
    <glyph glyph-name="Euro.fitted" unicode="&#xe002;" 
d="M551 56c-6 -5 -74 -69 -189 -69c-212 0 -252 207 -253 252h-69v63h65c-1 13 -1 24 -1 35s0 12 1 28h-65v63h69c1 32 40 253 254 253c107 0 170 -60 175 -65l-41 -54c-9 7 -59 47 -129 47c-153 0 -171 -160 -172 -181h245v-63h-251c-1 -13 -1 -20 -1 -33
c0 -17 0 -19 1 -30h251v-63h-245c0 -20 17 -178 169 -178c79 0 137 46 144 51z" />
    <glyph glyph-name="dollar.fitted" 
d="M524 189c0 -98 -63 -174 -175 -192v-99h-73v96c-117 6 -184 65 -190 70l44 61c11 -7 70 -51 146 -56v248c-51 23 -95 44 -125 74c-31 31 -46 63 -46 106c0 91 68 158 171 173v88h73v-86c106 -8 160 -60 167 -66l-45 -55c-8 6 -54 42 -122 49v-217c44 -20 92 -45 126 -79
s49 -71 49 -115zM277 413v184c-50 -13 -83 -46 -83 -94c0 -28 17 -44 24 -51c14 -14 37 -28 59 -39zM431 183c0 24 -10 47 -32 69c-13 13 -35 27 -51 35v-213c54 16 83 60 83 109z" />
    <glyph glyph-name="cent.fitted" 
d="M511 53c-3 -3 -56 -42 -133 -51v-104h-73v103c-121 15 -201 108 -201 243c0 137 82 240 201 259v99h73v-96c75 -9 122 -46 126 -51l-36 -55c-8 5 -41 27 -90 34v-359c56 8 95 34 98 36zM305 78v350c-71 -21 -115 -94 -115 -176c0 -90 44 -155 115 -174z" />
    <glyph glyph-name="sterling.fitted" 
d="M556 613l-42 -53c-11 8 -56 47 -129 47c-86 0 -139 -56 -139 -159c0 -45 5 -80 7 -95h194v-72h-187c1 -8 3 -32 3 -49c0 -74 -16 -127 -55 -156h336v-76h-463v67c62 19 95 54 95 148c0 30 -2 55 -3 66h-90v72h83c-4 33 -8 63 -8 95c0 145 85 232 222 232
c111 0 169 -58 176 -67z" />
    <glyph glyph-name="florin.fitted" horiz-adv-x="609" 
d="M585 653l-24 -64c-8 3 -41 16 -73 16c-60 0 -81 -33 -100 -126l-26 -126h149l-15 -72h-150l-59 -293c-11 -55 -26 -137 -63 -174c-28 -28 -66 -43 -111 -43c-61 0 -102 23 -109 27l26 65c9 -3 37 -16 71 -16c24 0 43 7 55 19c24 24 32 69 45 134l58 281h-127l15 72h128
l26 128c12 57 23 116 60 153c36 36 78 46 117 46c57 0 101 -24 107 -27z" />
    <glyph glyph-name="yen.fitted" 
d="M556 667l-179 -313h116v-63h-145v-58h144v-62h-145v-171h-86v171h-146v62h146v58h-147v63h115l-176 313h95l159 -304l162 304h87z" />
    <glyph glyph-name="zero.fitted" unicode="&#xf639;" horiz-adv-x="616" 
d="M564 335c0 -216 -94 -348 -257 -348s-255 132 -255 349c0 209 94 345 253 345c163 0 259 -134 259 -346zM474 333c0 177 -59 274 -165 274c-109 0 -167 -96 -167 -277c0 -174 59 -269 164 -269c108 0 168 96 168 272z" />
    <glyph glyph-name="one.fitted" unicode="&#xf6dc;" horiz-adv-x="390" 
d="M309 0h-88v563l-159 -107l-44 64l220 147h71v-667z" />
    <glyph glyph-name="two.fitted" unicode="&#xf63a;" horiz-adv-x="505" 
d="M453 0h-427v69c30 25 117 107 166 156c109 109 162 177 162 254c0 79 -49 126 -129 126s-149 -60 -154 -65l-47 53c4 6 80 88 211 88c124 0 209 -76 209 -198c0 -108 -76 -192 -160 -276c-60 -60 -136 -129 -139 -131h308v-76z" />
    <glyph glyph-name="three.fitted" unicode="&#xf63b;" horiz-adv-x="515" 
d="M463 188c0 -124 -96 -201 -234 -201c-136 0 -198 63 -205 72l44 57c5 -3 59 -53 149 -53c97 0 155 47 155 122c0 36 -17 64 -33 80c-35 34 -83 40 -161 40h-16v74h16c59 0 114 1 156 43c18 18 28 43 28 73c0 63 -50 110 -131 110c-83 0 -144 -54 -150 -59l-45 53
c3 4 77 82 206 82c126 0 208 -74 208 -181c0 -70 -44 -145 -123 -156c86 -9 136 -77 136 -156z" />
    <glyph glyph-name="four.fitted" unicode="&#xf63c;" horiz-adv-x="561" 
d="M525 151h-88v-151h-84v151h-323v67l319 449h88v-443h88v-73zM353 224v329l-230 -329h230z" />
    <glyph glyph-name="five.fitted" unicode="&#xf63d;" horiz-adv-x="526" 
d="M474 217c0 -141 -97 -230 -242 -230c-128 0 -192 64 -196 69l43 58c7 -5 64 -51 146 -51c97 0 160 55 160 147c0 79 -51 146 -159 146c-63 0 -107 -27 -114 -31l-35 21v321h373v-74h-289v-180c5 2 39 17 92 17c138 0 221 -87 221 -213z" />
    <glyph glyph-name="six.fitted" unicode="&#xf63e;" horiz-adv-x="566" 
d="M524 222c0 -135 -90 -235 -227 -235c-176 0 -245 161 -245 329c0 187 72 365 267 365c122 0 184 -59 188 -65l-41 -58c-9 7 -60 49 -138 49c-146 0 -190 -132 -193 -259v-25c23 76 102 119 181 119c129 0 208 -94 208 -220zM441 218c0 85 -48 150 -135 150
c-89 0 -149 -70 -149 -156c0 -85 59 -151 144 -151c88 0 140 71 140 157z" />
    <glyph glyph-name="seven.fitted" unicode="&#xf63f;" horiz-adv-x="506" 
d="M479 598l-270 -598h-97l274 591h-365v76h458v-69z" />
    <glyph glyph-name="eight.fitted" unicode="&#xf640;" horiz-adv-x="578" 
d="M526 181c0 -119 -94 -194 -234 -194c-145 0 -240 73 -240 193c0 85 51 157 134 166c-75 18 -114 79 -114 150c0 110 88 185 216 185c130 0 218 -73 218 -182c0 -75 -40 -136 -112 -153c86 -15 132 -78 132 -165zM421 495c0 68 -51 116 -131 116s-132 -49 -132 -115
c0 -69 55 -118 133 -118c76 0 130 48 130 117zM439 185c0 77 -56 125 -149 125c-94 0 -151 -50 -151 -124c0 -79 56 -129 154 -129c92 0 146 50 146 128z" />
    <glyph glyph-name="nine.fitted" unicode="&#xf641;" horiz-adv-x="566" 
d="M514 352c0 -187 -71 -365 -266 -365c-122 0 -185 59 -189 65l42 58c9 -7 60 -50 138 -50c146 0 190 133 193 260v24c-23 -76 -102 -118 -181 -118c-129 0 -209 94 -209 220c0 135 91 235 228 235c176 0 244 -161 244 -329zM410 456c0 85 -59 151 -144 151
c-88 0 -140 -72 -140 -158c0 -85 48 -149 135 -149c89 0 149 70 149 156z" />
    <glyph glyph-name="Eurooldstyle" horiz-adv-x="561" 
d="M561 56c-6 -5 -74 -69 -189 -69c-212 0 -252 207 -253 252h-69v63h65c-1 13 -1 24 -1 35s0 12 1 28h-65v63h69c1 32 40 253 254 253c107 0 170 -60 175 -65l-41 -54c-9 7 -59 47 -129 47c-153 0 -171 -160 -172 -181h245v-63h-251c-1 -13 -1 -20 -1 -33
c0 -17 0 -19 1 -30h251v-63h-245c0 -20 17 -178 169 -178c79 0 137 46 144 51z" />
    <glyph glyph-name="dollaroldstyle" horiz-adv-x="482" 
d="M438 189c0 -98 -63 -174 -175 -192v-99h-73v96c-117 6 -184 65 -190 70l44 61c11 -7 70 -51 146 -56v248c-51 23 -95 44 -125 74c-31 31 -46 63 -46 106c0 91 68 158 171 173v88h73v-86c106 -8 160 -60 167 -66l-45 -55c-8 6 -54 42 -122 49v-217c44 -20 92 -45 126 -79
s49 -71 49 -115zM191 413v184c-50 -13 -83 -46 -83 -94c0 -28 17 -44 24 -51c14 -14 37 -28 59 -39zM345 183c0 24 -10 47 -32 69c-13 13 -35 27 -51 35v-213c54 16 83 60 83 109z" />
    <glyph glyph-name="centoldstyle" horiz-adv-x="464" 
d="M449 53c-3 -3 -56 -42 -133 -51v-104h-73v103c-121 15 -201 108 -201 243c0 137 82 240 201 259v99h73v-96c75 -9 122 -46 126 -51l-36 -55c-8 5 -41 27 -90 34v-359c56 8 95 34 98 36zM243 78v350c-71 -21 -115 -94 -115 -176c0 -90 44 -155 115 -174z" />
    <glyph glyph-name="sterlingoldstyle" horiz-adv-x="525" 
d="M525 613l-42 -53c-11 8 -56 47 -129 47c-86 0 -139 -56 -139 -159c0 -45 5 -80 7 -95h194v-72h-187c1 -8 3 -32 3 -49c0 -74 -16 -127 -55 -156h336v-76h-463v67c62 19 95 54 95 148c0 30 -2 55 -3 66h-90v72h83c-4 33 -8 63 -8 95c0 145 85 232 222 232
c111 0 169 -58 176 -67z" />
    <glyph glyph-name="florinoldstyle" horiz-adv-x="461" 
d="M491 653l-24 -64c-8 3 -41 16 -73 16c-60 0 -81 -33 -100 -126l-26 -126h149l-15 -72h-150l-59 -293c-11 -55 -26 -137 -63 -174c-28 -28 -66 -43 -111 -43c-61 0 -102 23 -109 27l26 65c9 -3 37 -16 71 -16c24 0 43 7 55 19c24 24 32 69 45 134l58 281h-127l15 72h128
l26 128c12 57 23 116 60 153c36 36 78 46 117 46c57 0 101 -24 107 -27z" />
    <glyph glyph-name="yenoldstyle" horiz-adv-x="503" 
d="M503 667l-179 -313h116v-63h-145v-58h144v-62h-145v-171h-86v171h-146v62h146v58h-147v63h115l-176 313h95l159 -304l162 304h87z" />
    <glyph glyph-name="zerooldstyle" unicode="&#xf730;" horiz-adv-x="615" 
d="M565 263c0 -161 -105 -273 -259 -273c-149 0 -256 112 -256 269c0 160 106 271 260 271c151 0 255 -110 255 -267zM477 265c0 119 -72 195 -172 195s-167 -77 -167 -199c0 -121 74 -200 171 -200c110 0 168 86 168 204z" />
    <glyph glyph-name="oneoldstyle" unicode="&#xf731;" horiz-adv-x="340" 
d="M262 0h-86v424l-125 -82l-43 58l186 120h68v-520z" />
    <glyph glyph-name="twooldstyle" unicode="&#xf732;" horiz-adv-x="431" 
d="M390 0h-367v63c9 8 117 93 179 156c54 55 91 98 91 152c0 47 -37 88 -98 88c-67 0 -114 -44 -126 -55l-46 49c6 9 67 78 181 78c117 0 176 -76 176 -156c0 -68 -32 -114 -95 -178c-57 -58 -127 -115 -141 -126h246v-71z" />
    <glyph glyph-name="threeoldstyle" unicode="&#xf733;" horiz-adv-x="464" 
d="M414 66c0 -111 -90 -192 -219 -192c-123 0 -182 58 -191 69l42 53c7 -5 55 -51 138 -51c88 0 141 50 141 116c0 30 -12 57 -30 75c-31 32 -71 39 -149 39h-12v70h14c79 0 116 15 142 41c18 18 26 42 26 69c0 55 -42 104 -120 104c-73 0 -129 -49 -136 -56l-45 50
c5 7 73 78 191 78c119 0 195 -74 195 -172c0 -64 -39 -134 -118 -148c84 -10 131 -70 131 -145z" />
    <glyph glyph-name="fouroldstyle" unicode="&#xf734;" horiz-adv-x="518" 
d="M504 11h-89v-134h-84v134h-310v61l302 448h92v-441h89v-68zM331 79v333l-219 -333h219z" />
    <glyph glyph-name="fiveoldstyle" unicode="&#xf735;" horiz-adv-x="498" 
d="M453 90c0 -126 -87 -216 -226 -216c-118 0 -177 60 -182 66l40 55c9 -6 59 -50 137 -50c98 0 144 66 144 140c0 70 -45 139 -144 139c-59 0 -96 -26 -105 -32l-34 22v306h344v-69h-265v-174c6 3 36 17 85 17c128 0 206 -84 206 -204z" />
    <glyph glyph-name="sixoldstyle" unicode="&#xf736;" horiz-adv-x="536" 
d="M491 211c0 -128 -85 -223 -213 -223c-165 0 -228 152 -228 311c0 176 67 346 250 346c115 0 168 -55 176 -62l-40 -56c-29 23 -73 48 -129 48c-136 0 -176 -130 -178 -247v-17c23 71 96 109 167 109c121 0 195 -89 195 -209zM409 208c0 81 -43 142 -123 142
c-82 0 -136 -67 -136 -148s53 -143 131 -143c80 0 128 68 128 149z" />
    <glyph glyph-name="sevenoldstyle" unicode="&#xf737;" horiz-adv-x="456" 
d="M431 451l-251 -574h-91l257 570h-344v73h429v-69z" />
    <glyph glyph-name="eightoldstyle" unicode="&#xf738;" horiz-adv-x="540" 
d="M490 174c0 -115 -88 -186 -219 -186c-128 0 -221 71 -221 186c0 112 92 146 122 154c-28 9 -105 44 -105 143c0 104 83 174 203 174c122 0 204 -68 204 -171s-77 -137 -103 -146c38 -12 119 -44 119 -154zM392 470c0 62 -47 107 -121 107s-122 -46 -122 -106
c0 -61 46 -112 123 -112c73 0 120 49 120 111zM407 176c0 71 -50 118 -136 118s-137 -48 -137 -117c0 -72 53 -120 138 -120s135 48 135 119z" />
    <glyph glyph-name="nineoldstyle" unicode="&#xf739;" horiz-adv-x="542" 
d="M492 220c0 -176 -68 -346 -251 -346c-115 0 -168 55 -176 62l40 56c29 -23 74 -48 130 -48c136 0 175 130 177 247v17c-23 -71 -95 -109 -166 -109c-121 0 -196 89 -196 209c0 128 85 223 213 223c165 0 229 -152 229 -311zM391 317c0 81 -53 143 -131 143
c-80 0 -128 -68 -128 -149s43 -142 123 -142c82 0 136 67 136 148z" />
    <glyph glyph-name="Euro.taboldstyle" unicode="&#xf64e;" 
d="M561 56c-6 -5 -74 -69 -189 -69c-212 0 -252 207 -253 252h-69v63h65c-1 13 -1 24 -1 35s0 12 1 28h-65v63h69c1 32 40 253 254 253c107 0 170 -60 175 -65l-41 -54c-9 7 -59 47 -129 47c-153 0 -171 -160 -172 -181h245v-63h-251c-1 -13 -1 -20 -1 -33
c0 -17 0 -19 1 -30h251v-63h-245c0 -20 17 -178 169 -178c79 0 137 46 144 51z" />
    <glyph glyph-name="dollar.taboldstyle" unicode="&#xf653;" 
d="M524 189c0 -98 -63 -174 -175 -192v-99h-73v96c-117 6 -184 65 -190 70l44 61c11 -7 70 -51 146 -56v248c-51 23 -95 44 -125 74c-31 31 -46 63 -46 106c0 91 68 158 171 173v88h73v-86c106 -8 160 -60 167 -66l-45 -55c-8 6 -54 42 -122 49v-217c44 -20 92 -45 126 -79
s49 -71 49 -115zM277 413v184c-50 -13 -83 -46 -83 -94c0 -28 17 -44 24 -51c14 -14 37 -28 59 -39zM431 183c0 24 -10 47 -32 69c-13 13 -35 27 -51 35v-213c54 16 83 60 83 109z" />
    <glyph glyph-name="cent.taboldstyle" unicode="&#xf654;" 
d="M511 53c-3 -3 -56 -42 -133 -51v-104h-73v103c-121 15 -201 108 -201 243c0 137 82 240 201 259v99h73v-96c75 -9 122 -46 126 -51l-36 -55c-8 5 -41 27 -90 34v-359c56 8 95 34 98 36zM305 78v350c-71 -21 -115 -94 -115 -176c0 -90 44 -155 115 -174z" />
    <glyph glyph-name="sterling.taboldstyle" unicode="&#xf651;" 
d="M543 613l-42 -53c-11 8 -56 47 -129 47c-86 0 -139 -56 -139 -159c0 -45 5 -80 7 -95h194v-72h-187c1 -8 3 -32 3 -49c0 -74 -16 -127 -55 -156h336v-76h-463v67c62 19 95 54 95 148c0 30 -2 55 -3 66h-90v72h83c-4 33 -8 63 -8 95c0 145 85 232 222 232
c111 0 169 -58 176 -67z" />
    <glyph glyph-name="florin.taboldstyle" unicode="&#xf64f;" 
d="M595 653l-24 -64c-8 3 -41 16 -73 16c-60 0 -81 -33 -100 -126l-26 -126h149l-15 -72h-150l-59 -293c-11 -55 -26 -137 -63 -174c-28 -28 -66 -43 -111 -43c-61 0 -102 23 -109 27l26 65c9 -3 37 -16 71 -16c24 0 43 7 55 19c24 24 32 69 45 134l58 281h-127l15 72h128
l26 128c12 57 23 116 60 153c36 36 78 46 117 46c57 0 101 -24 107 -27z" />
    <glyph glyph-name="yen.taboldstyle" unicode="&#xf652;" 
d="M557 667l-179 -313h116v-63h-145v-58h144v-62h-145v-171h-86v171h-146v62h146v58h-147v63h115l-176 313h95l159 -304l162 304h87z" />
    <glyph glyph-name="zero.taboldstyle" unicode="&#xf643;" 
d="M562 263c0 -161 -105 -273 -259 -273c-149 0 -256 112 -256 269c0 160 106 271 260 271c151 0 255 -110 255 -267zM474 265c0 119 -72 195 -172 195s-167 -77 -167 -199c0 -121 74 -200 171 -200c110 0 168 86 168 204z" />
    <glyph glyph-name="one.taboldstyle" unicode="&#xf644;" 
d="M391 0h-86v424l-125 -82l-43 58l186 120h68v-520z" />
    <glyph glyph-name="two.taboldstyle" unicode="&#xf645;" 
d="M469 0h-367v63c9 8 117 93 179 156c54 55 91 98 91 152c0 47 -37 88 -98 88c-67 0 -114 -44 -126 -55l-46 49c6 9 67 78 181 78c117 0 176 -76 176 -156c0 -68 -32 -114 -95 -178c-57 -58 -127 -115 -141 -126h246v-71z" />
    <glyph glyph-name="three.taboldstyle" unicode="&#xf646;" 
d="M482 66c0 -111 -90 -192 -219 -192c-123 0 -182 58 -191 69l42 53c7 -5 55 -51 138 -51c88 0 141 50 141 116c0 30 -12 57 -30 75c-31 32 -71 39 -149 39h-12v70h14c79 0 116 15 142 41c18 18 26 42 26 69c0 55 -42 104 -120 104c-73 0 -129 -49 -136 -56l-45 50
c5 7 73 78 191 78c119 0 195 -74 195 -172c0 -64 -39 -134 -118 -148c84 -10 131 -70 131 -145z" />
    <glyph glyph-name="four.taboldstyle" unicode="&#xf647;" 
d="M545 11h-89v-134h-84v134h-310v61l302 448h92v-441h89v-68zM372 79v333l-219 -333h219z" />
    <glyph glyph-name="five.taboldstyle" unicode="&#xf648;" 
d="M514 90c0 -126 -87 -216 -226 -216c-118 0 -177 60 -182 66l40 55c9 -6 59 -50 137 -50c98 0 144 66 144 140c0 70 -45 139 -144 139c-59 0 -96 -26 -105 -32l-34 22v306h344v-69h-265v-174c6 3 36 17 85 17c128 0 206 -84 206 -204z" />
    <glyph glyph-name="six.taboldstyle" unicode="&#xf649;" 
d="M525 211c0 -128 -85 -223 -213 -223c-165 0 -228 152 -228 311c0 176 67 346 250 346c115 0 168 -55 176 -62l-40 -56c-29 23 -73 48 -129 48c-136 0 -176 -130 -178 -247v-17c23 71 96 109 167 109c121 0 195 -89 195 -209zM443 208c0 81 -43 142 -123 142
c-82 0 -136 -67 -136 -148s53 -143 131 -143c80 0 128 68 128 149z" />
    <glyph glyph-name="seven.taboldstyle" unicode="&#xf64a;" 
d="M507 451l-251 -574h-91l257 570h-344v73h429v-69z" />
    <glyph glyph-name="eight.taboldstyle" unicode="&#xf64b;" 
d="M525 174c0 -115 -88 -186 -219 -186c-128 0 -221 71 -221 186c0 112 92 146 122 154c-28 9 -105 44 -105 143c0 104 83 174 203 174c122 0 204 -68 204 -171s-77 -137 -103 -146c38 -12 119 -44 119 -154zM427 470c0 62 -47 107 -121 107s-122 -46 -122 -106
c0 -61 46 -112 123 -112c73 0 120 49 120 111zM442 176c0 71 -50 118 -136 118s-137 -48 -137 -117c0 -72 53 -120 138 -120s135 48 135 119z" />
    <glyph glyph-name="nine.taboldstyle" unicode="&#xf64c;" 
d="M526 220c0 -176 -68 -346 -251 -346c-115 0 -168 55 -176 62l40 56c29 -23 74 -48 130 -48c136 0 175 130 177 247v17c-23 -71 -95 -109 -166 -109c-121 0 -196 89 -196 209c0 128 85 223 213 223c165 0 229 -152 229 -311zM425 317c0 81 -53 143 -131 143
c-80 0 -128 -68 -128 -149s43 -142 123 -142c82 0 136 67 136 148z" />
    <glyph glyph-name="zerosuperior" unicode="&#x2070;" horiz-adv-x="391" 
d="M343 499c0 -111 -55 -179 -149 -179c-90 0 -146 66 -146 171c0 113 56 182 149 182c89 0 146 -69 146 -174zM279 498c0 79 -32 122 -81 122c-52 0 -85 -45 -85 -128c0 -77 30 -120 81 -120c59 0 85 54 85 126z" />
    <glyph glyph-name="onesuperior" unicode="&#xb9;" horiz-adv-x="391" 
d="M251 325h-62v268l-76 -49l-31 45l121 78h48v-342z" />
    <glyph glyph-name="twosuperior" unicode="&#xb2;" horiz-adv-x="391" 
d="M303 325h-218v46c53 46 155 135 155 195c0 33 -19 55 -54 55c-32 0 -60 -25 -73 -36l-32 36c18 23 59 52 111 52c64 0 109 -41 109 -105c0 -65 -57 -122 -133 -190h135v-53z" />
    <glyph glyph-name="threesuperior" unicode="&#xb3;" horiz-adv-x="391" 
d="M307 426c0 -67 -51 -107 -120 -107c-67 0 -100 32 -109 44l31 37c7 -5 34 -29 72 -29c43 0 66 21 66 52c0 38 -30 52 -84 52h-16v50h16c32 0 79 3 79 49c0 26 -19 47 -54 47c-39 0 -65 -25 -71 -30l-32 35c15 18 55 47 108 47c63 0 108 -38 108 -96
c0 -29 -20 -66 -56 -75c39 -7 62 -41 62 -76z" />
    <glyph glyph-name="foursuperior" unicode="&#x2074;" horiz-adv-x="391" 
d="M328 399h-45v-74h-60v74h-165v43l167 225h58v-216h45v-52zM223 451v131l-96 -131h96z" />
    <glyph glyph-name="fivesuperior" unicode="&#x2075;" horiz-adv-x="391" 
d="M311 438c0 -73 -52 -118 -128 -118c-67 0 -104 37 -106 40l29 39c7 -6 39 -27 74 -27c43 0 70 22 70 63c0 34 -23 64 -70 64c-28 0 -49 -13 -58 -17l-24 14v171h196v-52h-138v-72c8 3 20 6 38 6c71 0 117 -45 117 -111z" />
    <glyph glyph-name="sixsuperior" unicode="&#x2076;" horiz-adv-x="391" 
d="M320 441c0 -71 -49 -122 -121 -122c-87 0 -129 75 -129 169c0 96 40 185 141 185c61 0 98 -35 101 -39l-27 -38c-5 4 -34 27 -70 27c-61 0 -82 -52 -86 -105c16 22 42 37 80 37c68 0 111 -48 111 -114zM263 439c0 38 -21 66 -59 66c-42 0 -66 -32 -66 -69
c0 -38 26 -66 63 -66c39 0 62 31 62 69z" />
    <glyph glyph-name="sevensuperior" unicode="&#x2077;" horiz-adv-x="391" 
d="M315 626l-135 -301h-64l136 291h-174v51h237v-41z" />
    <glyph glyph-name="eightsuperior" unicode="&#x2078;" horiz-adv-x="391" 
d="M321 422c0 -63 -50 -103 -123 -103c-76 0 -126 39 -126 102c0 38 20 70 50 83c-26 14 -42 40 -42 72c0 59 48 97 115 97c68 0 116 -37 116 -95c0 -35 -18 -62 -42 -75c33 -11 52 -39 52 -81zM253 576c0 30 -23 50 -56 50c-35 0 -58 -20 -58 -50c0 -31 24 -51 58 -51
c33 0 56 20 56 51zM262 423c0 35 -25 55 -66 55s-66 -21 -66 -55c0 -35 24 -55 68 -55c40 0 64 20 64 55z" />
    <glyph glyph-name="ninesuperior" unicode="&#x2079;" horiz-adv-x="391" 
d="M322 505c0 -96 -40 -186 -141 -186c-62 0 -99 35 -102 39l28 39c4 -4 34 -27 70 -27c61 0 79 51 84 104c-15 -23 -47 -37 -78 -37c-68 0 -111 49 -111 115c0 69 48 121 120 121c92 0 130 -81 130 -168zM254 556c0 38 -27 67 -63 67c-40 0 -62 -32 -62 -70
c0 -37 20 -66 59 -66s66 31 66 69z" />
    <glyph glyph-name="parenleftsuperior" unicode="&#x207d;" horiz-adv-x="216" 
d="M48 494c0 110 61 185 115 224l30 -38c-40 -34 -81 -98 -81 -184c0 -87 42 -154 83 -187l-30 -38c-52 34 -117 114 -117 223z" />
    <glyph glyph-name="parenrightsuperior" unicode="&#x207e;" horiz-adv-x="216" 
d="M168 494c0 -110 -61 -184 -115 -223l-30 38c40 34 82 98 82 184c0 87 -43 154 -84 187l31 38c52 -34 116 -115 116 -224z" />
    <glyph glyph-name="zeroinferior" unicode="&#x2080;" horiz-adv-x="391" 
d="M343 173c0 -111 -55 -179 -149 -179c-90 0 -146 66 -146 171c0 113 56 182 149 182c89 0 146 -69 146 -174zM279 172c0 79 -32 122 -81 122c-52 0 -85 -45 -85 -128c0 -77 30 -120 81 -120c59 0 85 54 85 126z" />
    <glyph glyph-name="oneinferior" unicode="&#x2081;" horiz-adv-x="391" 
d="M251 0h-62v267l-76 -49l-31 46l121 78h48v-342z" />
    <glyph glyph-name="twoinferior" unicode="&#x2082;" horiz-adv-x="391" 
d="M303 0h-218v46c53 46 155 134 155 195c0 33 -19 54 -54 54c-32 0 -60 -24 -73 -36l-32 37c18 22 59 52 111 52c64 0 109 -42 109 -105c0 -66 -57 -122 -133 -191h135v-52z" />
    <glyph glyph-name="threeinferior" unicode="&#x2083;" horiz-adv-x="391" 
d="M307 100c0 -67 -51 -107 -120 -107c-67 0 -100 32 -109 44l31 37c7 -5 34 -29 72 -29c43 0 66 21 66 52c0 38 -30 52 -84 52h-16v50h16c32 0 79 3 79 49c0 26 -19 47 -54 47c-39 0 -65 -25 -71 -30l-32 35c15 18 55 47 108 47c63 0 108 -38 108 -96
c0 -29 -20 -66 -56 -75c39 -7 62 -41 62 -76z" />
    <glyph glyph-name="fourinferior" unicode="&#x2084;" horiz-adv-x="391" 
d="M328 73h-45v-73h-60v73h-165v44l167 225h58v-217h45v-52zM223 125v131l-96 -131h96z" />
    <glyph glyph-name="fiveinferior" unicode="&#x2085;" horiz-adv-x="391" 
d="M311 113c0 -74 -52 -119 -128 -119c-67 0 -104 38 -106 41l29 39c7 -6 39 -28 74 -28c43 0 70 23 70 63c0 35 -23 64 -70 64c-28 0 -49 -12 -58 -16l-24 14v171h196v-52h-138v-72c8 2 20 6 38 6c71 0 117 -45 117 -111z" />
    <glyph glyph-name="sixinferior" unicode="&#x2086;" horiz-adv-x="391" 
d="M320 115c0 -71 -49 -122 -121 -122c-87 0 -129 75 -129 169c0 96 40 185 141 185c61 0 98 -35 101 -39l-27 -38c-5 4 -34 27 -70 27c-61 0 -82 -52 -86 -105c16 22 42 37 80 37c68 0 111 -48 111 -114zM263 113c0 38 -21 66 -59 66c-42 0 -66 -32 -66 -69
c0 -38 26 -66 63 -66c39 0 62 31 62 69z" />
    <glyph glyph-name="seveninferior" unicode="&#x2087;" horiz-adv-x="391" 
d="M315 301l-135 -301h-64l136 291h-174v51h237v-41z" />
    <glyph glyph-name="eightinferior" unicode="&#x2088;" horiz-adv-x="391" 
d="M321 96c0 -63 -50 -103 -123 -103c-76 0 -126 39 -126 102c0 38 20 70 50 83c-26 14 -42 40 -42 72c0 59 48 97 115 97c68 0 116 -37 116 -95c0 -35 -18 -62 -42 -75c33 -11 52 -39 52 -81zM253 250c0 30 -23 50 -56 50c-35 0 -58 -20 -58 -50c0 -31 24 -51 58 -51
c33 0 56 20 56 51zM262 97c0 35 -25 55 -66 55s-66 -21 -66 -55c0 -35 24 -55 68 -55c40 0 64 20 64 55z" />
    <glyph glyph-name="nineinferior" unicode="&#x2089;" horiz-adv-x="391" 
d="M322 179c0 -96 -40 -186 -141 -186c-62 0 -99 35 -102 39l28 39c4 -4 34 -27 70 -27c61 0 79 51 84 104c-15 -23 -47 -37 -78 -37c-68 0 -111 49 -111 115c0 69 48 121 120 121c92 0 130 -81 130 -168zM254 230c0 38 -27 67 -63 67c-40 0 -62 -32 -62 -70
c0 -37 20 -66 59 -66s66 31 66 69z" />
    <glyph glyph-name="parenleftinferior" unicode="&#x208d;" horiz-adv-x="216" 
d="M48 168c0 110 61 185 115 224l30 -38c-40 -34 -81 -98 -81 -184c0 -87 42 -154 83 -187l-30 -38c-52 34 -117 114 -117 223z" />
    <glyph glyph-name="parenrightinferior" unicode="&#x208e;" horiz-adv-x="216" 
d="M168 168c0 -110 -61 -185 -115 -223l-30 38c40 34 82 98 82 184c0 87 -43 154 -84 187l31 38c52 -34 116 -115 116 -224z" />
    <glyph glyph-name="zero.dnom" unicode="&#xf655;" horiz-adv-x="391" 
d="M343 173c0 -111 -55 -179 -149 -179c-90 0 -146 66 -146 171c0 113 56 182 149 182c89 0 146 -69 146 -174zM279 172c0 79 -32 122 -81 122c-52 0 -85 -45 -85 -128c0 -77 30 -120 81 -120c59 0 85 54 85 126z" />
    <glyph glyph-name="one.dnom" unicode="&#xf656;" horiz-adv-x="391" 
d="M251 0h-62v267l-76 -49l-31 46l121 78h48v-342z" />
    <glyph glyph-name="two.dnom" unicode="&#xf657;" horiz-adv-x="391" 
d="M303 0h-218v46c53 46 155 134 155 195c0 33 -19 54 -54 54c-32 0 -60 -24 -73 -36l-32 37c18 22 59 52 111 52c64 0 109 -42 109 -105c0 -66 -57 -122 -133 -191h135v-52z" />
    <glyph glyph-name="three.dnom" unicode="&#xf658;" horiz-adv-x="391" 
d="M307 100c0 -67 -51 -107 -120 -107c-67 0 -100 32 -109 44l31 37c7 -5 34 -29 72 -29c43 0 66 21 66 52c0 38 -30 52 -84 52h-16v50h16c32 0 79 3 79 49c0 26 -19 47 -54 47c-39 0 -65 -25 -71 -30l-32 35c15 18 55 47 108 47c63 0 108 -38 108 -96
c0 -29 -20 -66 -56 -75c39 -7 62 -41 62 -76z" />
    <glyph glyph-name="four.dnom" unicode="&#xf659;" horiz-adv-x="391" 
d="M328 73h-45v-73h-60v73h-165v44l167 225h58v-217h45v-52zM223 125v131l-96 -131h96z" />
    <glyph glyph-name="five.dnom" unicode="&#xf65a;" horiz-adv-x="391" 
d="M311 113c0 -74 -52 -119 -128 -119c-67 0 -104 38 -106 41l29 39c7 -6 39 -28 74 -28c43 0 70 23 70 63c0 35 -23 64 -70 64c-28 0 -49 -12 -58 -16l-24 14v171h196v-52h-138v-72c8 2 20 6 38 6c71 0 117 -45 117 -111z" />
    <glyph glyph-name="six.dnom" unicode="&#xf65b;" horiz-adv-x="391" 
d="M320 115c0 -71 -49 -122 -121 -122c-87 0 -129 75 -129 169c0 96 40 185 141 185c61 0 98 -35 101 -39l-27 -38c-5 4 -34 27 -70 27c-61 0 -82 -52 -86 -105c16 22 42 37 80 37c68 0 111 -48 111 -114zM263 113c0 38 -21 66 -59 66c-42 0 -66 -32 -66 -69
c0 -38 26 -66 63 -66c39 0 62 31 62 69z" />
    <glyph glyph-name="seven.dnom" unicode="&#xf65c;" horiz-adv-x="391" 
d="M315 301l-135 -301h-64l136 291h-174v51h237v-41z" />
    <glyph glyph-name="eight.dnom" unicode="&#xf65d;" horiz-adv-x="391" 
d="M321 96c0 -63 -50 -103 -123 -103c-76 0 -126 39 -126 102c0 38 20 70 50 83c-26 14 -42 40 -42 72c0 59 48 97 115 97c68 0 116 -37 116 -95c0 -35 -18 -62 -42 -75c33 -11 52 -39 52 -81zM253 250c0 30 -23 50 -56 50c-35 0 -58 -20 -58 -50c0 -31 24 -51 58 -51
c33 0 56 20 56 51zM262 97c0 35 -25 55 -66 55s-66 -21 -66 -55c0 -35 24 -55 68 -55c40 0 64 20 64 55z" />
    <glyph glyph-name="nine.dnom" unicode="&#xf65e;" horiz-adv-x="391" 
d="M322 179c0 -96 -40 -186 -141 -186c-62 0 -99 35 -102 39l28 39c4 -4 34 -27 70 -27c61 0 79 51 84 104c-15 -23 -47 -37 -78 -37c-68 0 -111 49 -111 115c0 69 48 121 120 121c92 0 130 -81 130 -168zM254 230c0 38 -27 67 -63 67c-40 0 -62 -32 -62 -70
c0 -37 20 -66 59 -66s66 31 66 69z" />
    <glyph glyph-name="parenleft.dnom" unicode="&#xf62c;" horiz-adv-x="216" 
d="M48 168c0 110 61 185 115 224l30 -38c-40 -34 -81 -98 -81 -184c0 -87 42 -154 83 -187l-30 -38c-52 34 -117 114 -117 223z" />
    <glyph glyph-name="parenright.dnom" unicode="&#xf62d;" horiz-adv-x="216" 
d="M168 168c0 -110 -61 -185 -115 -223l-30 38c40 34 82 98 82 184c0 87 -43 154 -84 187l31 38c52 -34 116 -115 116 -224z" />
    <glyph glyph-name="zero.numr" unicode="&#xf661;" horiz-adv-x="391" 
d="M343 499c0 -111 -55 -179 -149 -179c-90 0 -146 66 -146 171c0 113 56 182 149 182c89 0 146 -69 146 -174zM279 498c0 79 -32 122 -81 122c-52 0 -85 -45 -85 -128c0 -77 30 -120 81 -120c59 0 85 54 85 126z" />
    <glyph glyph-name="one.numr" unicode="&#xf662;" horiz-adv-x="391" 
d="M251 325h-62v268l-76 -49l-31 45l121 78h48v-342z" />
    <glyph glyph-name="two.numr" unicode="&#xf663;" horiz-adv-x="391" 
d="M303 325h-218v46c53 46 155 135 155 195c0 33 -19 55 -54 55c-32 0 -60 -25 -73 -36l-32 36c18 23 59 52 111 52c64 0 109 -41 109 -105c0 -65 -57 -122 -133 -190h135v-53z" />
    <glyph glyph-name="three.numr" unicode="&#xf664;" horiz-adv-x="391" 
d="M307 426c0 -67 -51 -107 -120 -107c-67 0 -100 32 -109 44l31 37c7 -5 34 -29 72 -29c43 0 66 21 66 52c0 38 -30 52 -84 52h-16v50h16c32 0 79 3 79 49c0 26 -19 47 -54 47c-39 0 -65 -25 -71 -30l-32 35c15 18 55 47 108 47c63 0 108 -38 108 -96
c0 -29 -20 -66 -56 -75c39 -7 62 -41 62 -76z" />
    <glyph glyph-name="four.numr" unicode="&#xf665;" horiz-adv-x="391" 
d="M328 399h-45v-74h-60v74h-165v43l167 225h58v-216h45v-52zM223 451v131l-96 -131h96z" />
    <glyph glyph-name="five.numr" unicode="&#xf666;" horiz-adv-x="391" 
d="M311 438c0 -73 -52 -118 -128 -118c-67 0 -104 37 -106 40l29 39c7 -6 39 -27 74 -27c43 0 70 22 70 63c0 34 -23 64 -70 64c-28 0 -49 -13 -58 -17l-24 14v171h196v-52h-138v-72c8 3 20 6 38 6c71 0 117 -45 117 -111z" />
    <glyph glyph-name="six.numr" unicode="&#xf667;" horiz-adv-x="391" 
d="M320 441c0 -71 -49 -122 -121 -122c-87 0 -129 75 -129 169c0 96 40 185 141 185c61 0 98 -35 101 -39l-27 -38c-5 4 -34 27 -70 27c-61 0 -82 -52 -86 -105c16 22 42 37 80 37c68 0 111 -48 111 -114zM263 439c0 38 -21 66 -59 66c-42 0 -66 -32 -66 -69
c0 -38 26 -66 63 -66c39 0 62 31 62 69z" />
    <glyph glyph-name="seven.numr" unicode="&#xf668;" horiz-adv-x="391" 
d="M315 626l-135 -301h-64l136 291h-174v51h237v-41z" />
    <glyph glyph-name="eight.numr" unicode="&#xf669;" horiz-adv-x="391" 
d="M321 422c0 -63 -50 -103 -123 -103c-76 0 -126 39 -126 102c0 38 20 70 50 83c-26 14 -42 40 -42 72c0 59 48 97 115 97c68 0 116 -37 116 -95c0 -35 -18 -62 -42 -75c33 -11 52 -39 52 -81zM253 576c0 30 -23 50 -56 50c-35 0 -58 -20 -58 -50c0 -31 24 -51 58 -51
c33 0 56 20 56 51zM262 423c0 35 -25 55 -66 55s-66 -21 -66 -55c0 -35 24 -55 68 -55c40 0 64 20 64 55z" />
    <glyph glyph-name="nine.numr" unicode="&#xf66a;" horiz-adv-x="391" 
d="M322 505c0 -96 -40 -186 -141 -186c-62 0 -99 35 -102 39l28 39c4 -4 34 -27 70 -27c61 0 79 51 84 104c-15 -23 -47 -37 -78 -37c-68 0 -111 49 -111 115c0 69 48 121 120 121c92 0 130 -81 130 -168zM254 556c0 38 -27 67 -63 67c-40 0 -62 -32 -62 -70
c0 -37 20 -66 59 -66s66 31 66 69z" />
    <glyph glyph-name="parenleft.numr" unicode="&#xf631;" horiz-adv-x="216" 
d="M48 494c0 110 61 185 115 224l30 -38c-40 -34 -81 -98 -81 -184c0 -87 42 -154 83 -187l-30 -38c-52 34 -117 114 -117 223z" />
    <glyph glyph-name="parenright.numr" unicode="&#xf632;" horiz-adv-x="216" 
d="M168 494c0 -110 -61 -184 -115 -223l-30 38c40 34 82 98 82 184c0 87 -43 154 -84 187l31 38c52 -34 116 -115 116 -224z" />
    <glyph glyph-name="fraction" unicode="&#x2044;" horiz-adv-x="-38" 
d="M242 666l-470 -705l-52 35l470 706z" />
    <glyph glyph-name="onehalf" unicode="&#xbd;" horiz-adv-x="754" 
d="M666 0h-218v46c53 45 154 136 154 195c0 33 -18 53 -53 53c-33 0 -60 -23 -74 -35l-30 37c16 22 58 51 110 51c62 0 106 -41 106 -104c0 -64 -54 -123 -131 -191h136v-52zM251 325h-62v268l-76 -49l-31 45l121 78h48v-342zM636 666l-470 -705l-52 35l470 706z" />
    <glyph glyph-name="onethird" unicode="&#x2153;" horiz-adv-x="754" 
d="M636 666l-470 -705l-52 35l470 706zM251 325h-62v268l-76 -49l-31 45l121 78h48v-342zM670 100c0 -67 -51 -107 -121 -107c-67 0 -99 32 -108 44l30 37c7 -5 34 -29 73 -29c43 0 65 21 65 52c0 38 -29 52 -84 52h-16v50h16c33 0 79 3 79 49c0 26 -19 47 -54 47
c-39 0 -65 -25 -71 -30l-32 35c15 18 55 47 108 47c64 0 108 -38 108 -96c0 -29 -19 -66 -56 -75c40 -7 63 -41 63 -76z" />
    <glyph glyph-name="twothirds" unicode="&#x2154;" horiz-adv-x="754" 
d="M636 666l-470 -705l-52 35l470 706zM670 100c0 -67 -51 -107 -121 -107c-67 0 -99 32 -108 44l30 37c7 -5 34 -29 73 -29c43 0 65 21 65 52c0 38 -29 52 -84 52h-16v50h16c33 0 79 3 79 49c0 26 -19 47 -54 47c-39 0 -65 -25 -71 -30l-32 35c15 18 55 47 108 47
c64 0 108 -38 108 -96c0 -29 -19 -66 -56 -75c40 -7 63 -41 63 -76zM304 325h-218v46c53 46 155 135 155 195c0 33 -19 55 -54 55c-32 0 -60 -25 -73 -36l-32 36c18 23 59 52 111 52c64 0 109 -41 109 -105c0 -65 -57 -122 -134 -190h136v-53z" />
    <glyph glyph-name="onequarter" unicode="&#xbc;" horiz-adv-x="754" 
d="M251 325h-62v268l-76 -49l-31 45l121 78h48v-342zM691 73h-45v-73h-60v73h-165v44l167 225h58v-217h45v-52zM586 125v131l-96 -131h96zM636 666l-470 -705l-52 35l470 706z" />
    <glyph glyph-name="threequarters" unicode="&#xbe;" horiz-adv-x="754" 
d="M307 426c0 -67 -51 -107 -120 -107c-67 0 -100 32 -109 44l31 37c7 -5 34 -29 72 -29c43 0 66 21 66 52c0 38 -30 52 -84 52h-16v50h16c32 0 79 3 79 49c0 26 -19 47 -54 47c-39 0 -65 -25 -71 -30l-32 35c15 18 55 47 108 47c63 0 108 -38 108 -96
c0 -29 -20 -66 -56 -75c39 -7 62 -41 62 -76zM691 73h-45v-73h-60v73h-165v44l167 225h58v-217h45v-52zM586 125v131l-96 -131h96zM636 666l-470 -705l-52 35l470 706z" />
    <glyph glyph-name="oneeighth" unicode="&#x215b;" horiz-adv-x="754" 
d="M684 96c0 -63 -50 -103 -123 -103c-76 0 -126 39 -126 102c0 38 20 70 50 83c-26 14 -41 40 -41 72c0 59 48 97 115 97s116 -37 116 -95c0 -35 -18 -62 -43 -75c33 -11 52 -39 52 -81zM617 250c0 30 -23 50 -57 50s-58 -20 -58 -50c0 -31 24 -51 59 -51c32 0 56 20 56 51
zM625 97c0 35 -25 55 -65 55c-42 0 -67 -21 -67 -55c0 -35 25 -55 68 -55c40 0 64 20 64 55zM251 325h-62v268l-76 -49l-31 45l121 78h48v-342zM636 666l-470 -705l-52 35l470 706z" />
    <glyph glyph-name="threeeighths" unicode="&#x215c;" horiz-adv-x="754" 
d="M684 96c0 -63 -50 -103 -123 -103c-76 0 -126 39 -126 102c0 38 20 70 50 83c-26 14 -41 40 -41 72c0 59 48 97 115 97s116 -37 116 -95c0 -35 -18 -62 -43 -75c33 -11 52 -39 52 -81zM617 250c0 30 -23 50 -57 50s-58 -20 -58 -50c0 -31 24 -51 59 -51c32 0 56 20 56 51
zM625 97c0 35 -25 55 -65 55c-42 0 -67 -21 -67 -55c0 -35 25 -55 68 -55c40 0 64 20 64 55zM294 426c0 -67 -51 -107 -120 -107c-67 0 -100 32 -109 44l31 37c7 -5 34 -29 72 -29c43 0 66 21 66 52c0 38 -30 52 -84 52h-16v50h16c32 0 79 3 79 49c0 26 -19 47 -54 47
c-39 0 -65 -25 -71 -30l-32 35c15 18 55 47 108 47c63 0 108 -38 108 -96c0 -29 -20 -66 -56 -75c39 -7 62 -41 62 -76zM636 666l-470 -705l-52 35l470 706z" />
    <glyph glyph-name="fiveeighths" unicode="&#x215d;" horiz-adv-x="754" 
d="M636 666l-470 -705l-52 35l470 706zM684 96c0 -63 -50 -103 -123 -103c-76 0 -126 39 -126 102c0 38 20 70 50 83c-26 14 -41 40 -41 72c0 59 48 97 115 97s116 -37 116 -95c0 -35 -18 -62 -43 -75c33 -11 52 -39 52 -81zM617 250c0 30 -23 50 -57 50s-58 -20 -58 -50
c0 -31 24 -51 59 -51c32 0 56 20 56 51zM625 97c0 35 -25 55 -65 55c-42 0 -67 -21 -67 -55c0 -35 25 -55 68 -55c40 0 64 20 64 55zM311 438c0 -73 -52 -118 -128 -118c-67 0 -104 37 -106 40l29 39c7 -6 39 -27 74 -27c43 0 70 22 70 63c0 34 -23 64 -70 64
c-28 0 -49 -13 -58 -17l-24 14v171h196v-52h-138v-72c8 3 20 6 38 6c71 0 117 -45 117 -111z" />
    <glyph glyph-name="seveneighths" unicode="&#x215e;" horiz-adv-x="754" 
d="M636 666l-470 -705l-52 35l470 706zM315 626l-135 -301h-64l136 291h-174v51h237v-41zM684 96c0 -63 -50 -103 -123 -103c-76 0 -126 39 -126 102c0 38 20 70 50 83c-26 14 -41 40 -41 72c0 59 48 97 115 97s116 -37 116 -95c0 -35 -18 -62 -43 -75c33 -11 52 -39 52 -81
zM617 250c0 30 -23 50 -57 50s-58 -20 -58 -50c0 -31 24 -51 59 -51c32 0 56 20 56 51zM625 97c0 35 -25 55 -65 55c-42 0 -67 -21 -67 -55c0 -35 25 -55 68 -55c40 0 64 20 64 55z" />
    <glyph glyph-name="percent" unicode="%" horiz-adv-x="754" 
d="M706 173c0 -111 -55 -179 -149 -179c-90 0 -146 66 -146 171c0 113 56 182 149 182c89 0 146 -69 146 -174zM343 499c0 -111 -55 -179 -149 -179c-90 0 -146 66 -146 171c0 113 56 182 149 182c89 0 146 -69 146 -174zM642 172c0 79 -32 122 -81 122
c-52 0 -85 -45 -85 -128c0 -77 30 -120 81 -120c59 0 85 54 85 126zM279 498c0 79 -32 122 -81 122c-52 0 -85 -45 -85 -128c0 -77 30 -120 81 -120c59 0 85 54 85 126zM636 666l-470 -705l-52 35l470 706z" />
    <glyph glyph-name="perthousand" unicode="&#x2030;" horiz-adv-x="1100" 
d="M706 173c0 -111 -55 -179 -149 -179c-90 0 -146 66 -146 171c0 113 56 182 149 182c89 0 146 -69 146 -174zM343 499c0 -111 -55 -179 -149 -179c-90 0 -146 66 -146 171c0 113 56 182 149 182c89 0 146 -69 146 -174zM642 172c0 79 -32 122 -81 122
c-52 0 -85 -45 -85 -128c0 -77 30 -120 81 -120c59 0 85 54 85 126zM279 498c0 79 -32 122 -81 122c-52 0 -85 -45 -85 -128c0 -77 30 -120 81 -120c59 0 85 54 85 126zM630 666l-470 -705l-52 35l470 706zM1052 173c0 -111 -55 -179 -149 -179c-90 0 -146 66 -146 171
c0 113 56 182 149 182c89 0 146 -69 146 -174zM988 172c0 79 -32 122 -81 122c-52 0 -85 -45 -85 -128c0 -77 30 -120 81 -120c59 0 85 54 85 126z" />
    <glyph glyph-name="plus" unicode="+" 
d="M541 221h-200v-201h-72v201h-201v72h201v200h72v-200h200v-72z" />
    <glyph glyph-name="minus" unicode="&#x2212;" 
d="M554 221h-498v72h498v-72z" />
    <glyph glyph-name="plusminus" unicode="&#xb1;" horiz-adv-x="609" 
d="M541 321h-200v-205h-72v205h-201v72h201v207h72v-207h200v-72zM541 0h-473v72h473v-72z" />
    <glyph glyph-name="multiply" unicode="&#xd7;" 
d="M542 71l-51 -52l-186 186l-186 -186l-51 52l186 185l-186 187l51 51l186 -186l186 186l51 -51l-186 -187z" />
    <glyph glyph-name="divide" unicode="&#xf7;" 
d="M363 459c0 -32 -25 -58 -57 -58s-58 26 -58 58s26 57 58 57s57 -25 57 -57zM554 221h-498v72h498v-72zM363 54c0 -32 -25 -58 -57 -58s-58 26 -58 58s26 57 58 57s57 -25 57 -57z" />
    <glyph glyph-name="equal" unicode="=" 
d="M554 292h-498v72h498v-72zM554 149h-498v72h498v-72z" />
    <glyph glyph-name="notequal" unicode="&#x2260;" 
d="M554 149h-276l-76 -122l-55 34l56 88h-147v73h190l43 70h-233v72h277l74 117l55 -34l-52 -83h144v-72h-189l-43 -70h232v-73z" />
    <glyph glyph-name="approxequal" unicode="&#x2248;" 
d="M531 342c-30 -39 -69 -67 -119 -67c-59 0 -107 30 -160 46c-16 5 -31 8 -47 8c-33 0 -52 -16 -77 -41l-49 39c10 18 46 70 127 70s138 -54 205 -54c31 0 49 16 76 43zM531 184c-30 -39 -69 -67 -119 -67c-59 0 -107 30 -160 46c-16 5 -31 8 -47 8c-33 0 -52 -16 -77 -41
l-49 39c10 18 46 70 127 70s138 -54 205 -54c31 0 49 16 76 43z" />
    <glyph glyph-name="less" unicode="&#x3c;" 
d="M550 76l-29 -65l-461 218v56l461 219l29 -67l-384 -181z" />
    <glyph glyph-name="greater" unicode="&#x3e;" 
d="M550 229l-461 -218l-29 65l384 180l-384 181l30 67l460 -219v-56z" />
    <glyph glyph-name="lessequal" unicode="&#x2264;" 
d="M550 177l-29 -65l-461 219v55l461 219l29 -66l-384 -181zM550 0h-490v72h490v-72z" />
    <glyph glyph-name="greaterequal" unicode="&#x2265;" 
d="M550 331l-461 -219l-29 65l384 181l-384 181l30 66l460 -219v-55zM550 0h-490v72h490v-72z" />
    <glyph glyph-name="logicalnot" unicode="&#xac;" 
d="M551 154h-79v140h-413v72h492v-212z" />
    <glyph glyph-name="degree" unicode="&#xb0;" horiz-adv-x="608" 
d="M453 534c0 -82 -66 -148 -148 -148s-149 66 -149 148s67 148 149 148s148 -66 148 -148zM394 534c0 51 -39 90 -89 90s-90 -39 -90 -90s40 -90 90 -90s89 39 89 90z" />
    <glyph glyph-name="afii61289" unicode="&#x2113;" horiz-adv-x="500" 
d="M249 269c-29 -150 -33 -173 -33 -208c0 -17 6 -25 18 -25c17 0 34 18 51 54c6 14 11 18 19 18s13 -5 13 -15c0 -15 -10 -37 -26 -60c-25 -32 -48 -47 -76 -47c-42 0 -67 33 -67 88c0 28 1 45 10 127c-30 -28 -43 -38 -49 -38c-7 0 -14 8 -14 16c0 7 5 14 20 27
c8 7 39 39 50 52c55 287 117 420 197 420c38 0 63 -32 63 -81c0 -54 -25 -128 -64 -192c-24 -38 -57 -79 -112 -136zM260 333c81 91 125 181 125 260c0 26 -9 44 -23 44c-15 0 -32 -18 -41 -44c-19 -53 -41 -145 -61 -260z" />
    <glyph glyph-name="estimated" unicode="&#x212e;" horiz-adv-x="798" 
d="M769 311h-599c-3 0 -6 -1 -6 -4v-181c0 -8 4 -15 9 -21c57 -60 137 -98 227 -98c95 0 180 43 238 110h54c-67 -78 -174 -130 -293 -130c-204 0 -370 149 -370 333c0 183 166 332 370 332s370 -149 370 -332v-9zM634 335v181c0 9 -4 16 -10 22c-57 58 -137 94 -224 94
c-89 0 -169 -38 -226 -97c-6 -6 -10 -14 -10 -23v-177c0 -3 3 -5 6 -5h459c3 0 5 2 5 5z" />
    <glyph glyph-name="infinity" unicode="&#x221e;" horiz-adv-x="845" 
d="M759 279c0 -80 -66 -147 -148 -147c-69 0 -130 48 -188 103c-57 -55 -119 -104 -188 -104c-81 0 -149 67 -149 145c0 83 64 146 147 146c74 0 139 -46 190 -99c51 53 113 100 191 100c83 0 145 -62 145 -144zM693 282c0 43 -36 79 -84 79c-62 0 -108 -48 -142 -82
c30 -27 87 -78 144 -78c45 0 82 35 82 81zM379 279c-35 35 -81 80 -143 80c-48 0 -83 -34 -83 -78c0 -45 37 -82 82 -82c58 0 113 52 144 80z" />
    <glyph glyph-name="partialdiff" unicode="&#x2202;" horiz-adv-x="615" 
d="M529 351c0 -226 -86 -364 -231 -364c-127 0 -212 102 -212 255c0 150 83 255 216 255c71 0 124 -37 131 -42c-9 117 -73 203 -177 203c-55 0 -112 -32 -122 -37l-35 60c8 5 78 52 161 52c162 0 269 -137 269 -382zM443 340l-1 34c-6 5 -58 51 -136 51
c-82 0 -135 -71 -135 -183c0 -111 51 -183 127 -183c112 0 145 139 145 281z" />
    <glyph glyph-name="integral" unicode="&#x222b;" horiz-adv-x="613" 
d="M528 706l-26 -63c-9 4 -36 16 -66 16c-20 0 -43 -4 -60 -21c-22 -22 -27 -52 -27 -91v-594c0 -53 -7 -101 -48 -142c-26 -26 -69 -40 -111 -40c-55 0 -99 23 -104 27l26 63c9 -4 36 -16 66 -16c20 0 43 4 60 21c22 22 27 52 27 91v594c0 53 7 101 48 142
c26 26 69 40 111 40c55 0 99 -23 104 -27z" />
    <glyph glyph-name="radical" unicode="&#x221a;" horiz-adv-x="808" 
d="M723 709l-267 -709h-78l-151 392l-118 -40l-23 66l191 66l143 -373l229 624z" />
    <glyph glyph-name="Delta" unicode="&#x394;" horiz-adv-x="707" 
d="M622 0h-536l232 667h73zM512 72l-159 467l-161 -467h320z" />
    <glyph glyph-name="uni2126" unicode="&#x2126;" horiz-adv-x="823" 
d="M738 0h-260v68c83 33 152 123 152 269c0 162 -88 270 -218 270s-219 -108 -219 -270c0 -146 70 -236 153 -269v-68h-260v75h142c-63 39 -126 133 -126 272c0 196 127 333 310 333c182 0 309 -137 309 -333c0 -134 -58 -231 -125 -272h142v-75z" />
    <glyph glyph-name="uni2206" unicode="&#x2206;" horiz-adv-x="707" 
d="M622 0h-536l232 667h73zM512 72l-159 467l-161 -467h320z" />
    <glyph glyph-name="uni00B5" unicode="&#xb5;" horiz-adv-x="525" 
d="M458 0h-76v36c-8 -5 -69 -49 -151 -49c-49 0 -75 17 -86 28v-138h-78v607h85v-275c0 -61 1 -101 26 -126c13 -13 38 -24 68 -24c62 0 123 39 127 42v383h85v-484z" />
    <glyph glyph-name="mu" unicode="&#x3bc;" horiz-adv-x="525" 
d="M458 0h-76v36c-8 -5 -69 -49 -151 -49c-49 0 -75 17 -86 28v-138h-78v607h85v-275c0 -61 1 -101 26 -126c13 -13 38 -24 68 -24c62 0 123 39 127 42v383h85v-484z" />
    <glyph glyph-name="product" unicode="&#x220f;" horiz-adv-x="800" 
d="M714 593h-78v-593h-90v593h-292v-593h-90v593h-78v74h628v-74z" />
    <glyph glyph-name="pi" unicode="&#x3c0;" horiz-adv-x="673" 
d="M587 4c-8 -2 -28 -9 -62 -9c-31 0 -58 9 -77 28c-28 27 -28 76 -28 130v259h-178v-412h-85v412h-71v72h494v-72h-75v-264c0 -43 3 -59 14 -69s26 -12 37 -12s23 1 31 2v-65z" />
    <glyph glyph-name="summation" unicode="&#x2211;" horiz-adv-x="558" 
d="M472 0h-386v60l178 280l-178 267v60h386v-76h-271l159 -247l-168 -268h280v-76z" />
    <glyph glyph-name="lozenge" unicode="&#x25ca;" horiz-adv-x="664" 
d="M578 335l-216 -335h-61l-215 335l215 332h60zM492 335l-161 244l-156 -244l157 -251z" />
    <glyph glyph-name="Omega" unicode="&#x3a9;" horiz-adv-x="823" 
d="M738 0h-260v68c83 33 152 123 152 269c0 162 -88 270 -218 270s-219 -108 -219 -270c0 -146 70 -236 153 -269v-68h-260v75h142c-63 39 -126 133 -126 272c0 196 127 333 310 333c182 0 309 -137 309 -333c0 -134 -58 -231 -125 -272h142v-75z" />
    <glyph glyph-name="Foundry" unicode="&#xf8ff;" horiz-adv-x="906" 
d="M859 388c0 -223 -178 -402 -406 -402c-227 0 -406 180 -406 402c0 224 180 403 406 403c228 0 406 -180 406 -403zM781 388c0 178 -147 327 -328 327c-179 0 -328 -148 -328 -326c0 -170 123 -276 232 -310v224h-78v66h78v55c0 50 5 101 44 140c25 25 60 39 107 39
c64 0 104 -30 108 -34l-31 -53c-5 3 -34 19 -67 19c-26 0 -46 -7 -59 -21c-23 -24 -22 -62 -22 -89v-56h142v-66h-142v-238c4 -1 11 -2 16 -2c181 0 328 147 328 325z" />
    <glyph glyph-name="Eth" unicode="&#xd0;" horiz-adv-x="699" 
d="M648 338c0 -101 -34 -187 -95 -248c-84 -84 -183 -90 -307 -90h-146v311h-100v72h100v284h147c129 0 226 -5 306 -85c59 -59 95 -147 95 -244zM557 340c0 68 -15 136 -71 192c-58 58 -124 63 -239 63h-58v-212h193v-72h-193v-238h83c89 0 161 10 218 68
c45 46 67 118 67 199z" />
    <glyph glyph-name="Amacron" unicode="&#x100;" horiz-adv-x="607" 
d="M594 0h-94l-61 174h-275l-61 -174h-90l242 667h95zM414 247l-113 325l-112 -325h225zM462 731h-318v64h318v-64z" />
    <glyph glyph-name="Abreve" unicode="&#x102;" horiz-adv-x="607" 
d="M594 0h-94l-61 174h-275l-61 -174h-90l242 667h95zM414 247l-113 325l-112 -325h225zM440 862c-6 -83 -58 -135 -138 -135s-133 52 -139 135h64c6 -42 31 -63 75 -63s68 21 74 63h64z" />
    <glyph glyph-name="Aogonek" unicode="&#x104;" horiz-adv-x="607" 
d="M350 667l244 -667c-30 -23 -65 -43 -65 -88c0 -36 22 -59 58 -59c32 0 67 18 73 21l19 -40c-4 -3 -45 -30 -101 -30c-63 0 -103 42 -103 108c0 46 26 75 48 88h-23l-61 174h-275l-61 -174h-90l242 667h95zM414 247l-113 325l-112 -325h225z" />
    <glyph glyph-name="Cacute" unicode="&#x106;" horiz-adv-x="620" 
d="M596 57c-7 -8 -89 -70 -224 -70c-179 0 -320 126 -320 341c0 223 149 353 333 353c132 0 197 -54 205 -62l-39 -62c-8 5 -67 45 -161 45c-136 0 -246 -99 -246 -266c0 -163 92 -269 239 -269c96 0 167 48 174 52zM513 801l-220 -85l-27 50l212 107z" />
    <glyph glyph-name="Ccaron" unicode="&#x10c;" horiz-adv-x="620" 
d="M596 57c-7 -8 -89 -70 -224 -70c-179 0 -320 126 -320 341c0 223 149 353 333 353c132 0 197 -54 205 -62l-39 -62c-8 5 -67 45 -161 45c-136 0 -246 -99 -246 -266c0 -163 92 -269 239 -269c96 0 167 48 174 52zM545 824l-159 -108l-158 110l33 47l125 -70l126 70z" />
    <glyph glyph-name="Dcaron" unicode="&#x10e;" horiz-adv-x="681" 
d="M629 338c0 -101 -34 -187 -95 -248c-84 -84 -183 -90 -307 -90h-146v667h147c129 0 226 -5 306 -85c59 -59 95 -147 95 -244zM538 340c0 68 -15 136 -71 192c-58 58 -124 63 -239 63h-58v-522h83c89 0 161 10 218 68c45 46 67 118 67 199zM453 824l-159 -108l-158 110
l33 47l125 -70l126 70z" />
    <glyph glyph-name="Ecaron" unicode="&#x11a;" horiz-adv-x="509" 
d="M458 0h-377v667h369v-74h-281v-210h264v-72h-264v-235h289v-76zM419 824l-159 -108l-158 110l33 47l125 -70l126 70z" />
    <glyph glyph-name="Emacron" unicode="&#x112;" horiz-adv-x="509" 
d="M458 0h-377v667h369v-74h-281v-210h264v-72h-264v-235h289v-76zM425 731h-318v64h318v-64z" />
    <glyph glyph-name="Edotaccent" unicode="&#x116;" horiz-adv-x="509" 
d="M458 0h-377v667h369v-74h-281v-210h264v-72h-264v-235h289v-76zM320 775c0 -30 -24 -53 -54 -53s-53 23 -53 53s23 53 53 53s54 -23 54 -53z" />
    <glyph glyph-name="Eogonek" unicode="&#x118;" horiz-adv-x="509" 
d="M81 0v667h369v-74h-281v-210h264v-72h-264v-235h289v-76c-30 -23 -65 -43 -65 -88c0 -36 22 -59 58 -59c32 0 67 18 73 21l19 -40c-4 -3 -45 -30 -101 -30c-63 0 -103 42 -103 108c0 46 26 75 48 88h-306z" />
    <glyph glyph-name="Gbreve" unicode="&#x11e;" horiz-adv-x="672" 
d="M606 49c-5 -4 -88 -63 -232 -63c-181 0 -322 127 -322 342c0 223 149 353 333 353c132 0 197 -54 205 -62l-39 -62c-7 5 -67 45 -161 45c-136 0 -246 -99 -246 -266c0 -164 91 -272 240 -272c87 0 129 26 135 29v166h-143v71h230v-281zM525 862
c-6 -83 -58 -135 -138 -135s-133 52 -139 135h64c6 -42 31 -63 75 -63s68 21 74 63h64z" />
    <glyph glyph-name="Imacron" unicode="&#x12a;" horiz-adv-x="252" 
d="M171 0h-90v667h90v-667zM285 731h-318v64h318v-64z" />
    <glyph glyph-name="Iogonek" unicode="&#x12e;" horiz-adv-x="252" 
d="M81 0v667h90v-667c-30 -23 -65 -43 -65 -88c0 -36 22 -59 58 -59c32 0 67 18 73 21l19 -40c-4 -3 -45 -30 -101 -30c-63 0 -103 42 -103 108c0 46 26 75 48 88h-19z" />
    <glyph glyph-name="Lacute" unicode="&#x139;" horiz-adv-x="486" 
d="M448 0h-367v667h90v-591h277v-76zM346 801l-220 -85l-27 50l212 107z" />
    <glyph glyph-name="Lcaron" unicode="&#x13d;" horiz-adv-x="486" 
d="M448 0h-367v667h90v-591h277v-76zM391 667c0 -127 -91 -202 -105 -215l-52 44c16 19 64 69 64 171h93z" />
    <glyph glyph-name="Nacute" unicode="&#x143;" horiz-adv-x="646" 
d="M565 0h-89l-315 531l2 -531h-82v667h89l315 -533l-2 533h82v-667zM447 801l-220 -85l-27 50l212 107z" />
    <glyph glyph-name="Ncaron" unicode="&#x147;" horiz-adv-x="646" 
d="M565 0h-89l-315 531l2 -531h-82v667h89l315 -533l-2 533h82v-667zM482 824l-159 -108l-158 110l33 47l125 -70l126 70z" />
    <glyph glyph-name="Omacron" unicode="&#x14c;" horiz-adv-x="714" 
d="M662 337c0 -208 -125 -350 -307 -350c-176 0 -303 143 -303 345c0 206 126 348 308 348c178 0 302 -142 302 -343zM570 340c0 159 -89 264 -216 264s-210 -107 -210 -270c0 -162 93 -270 215 -270c139 0 211 119 211 276zM518 731h-318v64h318v-64z" />
    <glyph glyph-name="Ohungarumlaut" unicode="&#x150;" horiz-adv-x="714" 
d="M662 337c0 -208 -125 -350 -307 -350c-176 0 -303 143 -303 345c0 206 126 348 308 348c178 0 302 -142 302 -343zM570 340c0 159 -89 264 -216 264s-210 -107 -210 -270c0 -162 93 -270 215 -270c139 0 211 119 211 276zM516 883l-72 -170l-64 22l56 178zM377 883
l-71 -170l-65 22l56 178z" />
    <glyph glyph-name="Racute" unicode="&#x154;" horiz-adv-x="566" 
d="M540 0h-94l-77 174c-46 103 -68 112 -158 112h-42v-286h-88v667h148c89 0 158 1 212 -53c33 -33 52 -77 52 -133c0 -46 -13 -85 -41 -115c-24 -26 -63 -48 -107 -53c22 -1 44 -14 57 -27c20 -20 34 -52 52 -93zM404 481c0 36 -14 65 -29 80c-36 36 -83 35 -137 35h-69
v-239h31c64 0 129 -2 171 40c21 21 33 52 33 84zM399 801l-220 -85l-27 50l212 107z" />
    <glyph glyph-name="Rcaron" unicode="&#x158;" horiz-adv-x="566" 
d="M540 0h-94l-77 174c-46 103 -68 112 -158 112h-42v-286h-88v667h148c89 0 158 1 212 -53c33 -33 52 -77 52 -133c0 -46 -13 -85 -41 -115c-24 -26 -63 -48 -107 -53c22 -1 44 -14 57 -27c20 -20 34 -52 52 -93zM404 481c0 36 -14 65 -29 80c-36 36 -83 35 -137 35h-69
v-239h31c64 0 129 -2 171 40c21 21 33 52 33 84zM427 824l-159 -108l-158 110l33 47l125 -70l126 70z" />
    <glyph glyph-name="Sacute" unicode="&#x15a;" horiz-adv-x="524" 
d="M467 181c0 -110 -81 -195 -219 -195c-118 0 -197 64 -205 72l43 62c12 -8 77 -57 158 -57c82 0 130 49 130 110c0 73 -85 109 -157 144c-85 41 -155 85 -155 183c0 106 86 180 209 180s184 -61 190 -68l-45 -58c-8 7 -61 50 -139 50c-73 0 -125 -36 -125 -96
c0 -63 59 -83 125 -117c59 -30 190 -79 190 -210zM407 801l-220 -85l-27 50l212 107z" />
    <glyph glyph-name="Scedilla" unicode="&#x15e;" horiz-adv-x="524" 
d="M358 -140c0 -58 -50 -90 -98 -90c-39 0 -65 14 -74 22l18 38c5 -3 25 -13 50 -13c40 0 49 25 49 41c0 23 -17 39 -42 39c-18 0 -34 -8 -41 -13l-28 17l16 88c-96 11 -158 62 -165 69l43 62c12 -8 77 -57 158 -57c82 0 130 49 130 110c0 73 -85 109 -157 144
c-85 41 -155 85 -155 183c0 106 86 180 209 180s184 -61 190 -68l-45 -58c-8 7 -61 50 -139 50c-73 0 -125 -36 -125 -96c0 -63 59 -83 125 -117c59 -30 190 -79 190 -210c0 -108 -78 -191 -211 -195l-7 -46c4 2 13 4 23 4c51 0 86 -34 86 -84z" />
    <glyph glyph-name="Scommaaccent" unicode="&#x218;" horiz-adv-x="524" 
d="M467 181c0 -110 -81 -195 -219 -195c-118 0 -197 64 -205 72l43 62c12 -8 77 -57 158 -57c82 0 130 49 130 110c0 73 -85 109 -157 144c-85 41 -155 85 -155 183c0 106 86 180 209 180s184 -61 190 -68l-45 -58c-8 7 -61 50 -139 50c-73 0 -125 -36 -125 -96
c0 -63 59 -83 125 -117c59 -30 190 -79 190 -210zM305 -68c0 -127 -91 -202 -105 -215l-52 44c16 19 64 69 64 171h93z" />
    <glyph glyph-name="Tcaron" unicode="&#x164;" horiz-adv-x="541" 
d="M511 593h-195v-593h-90v593h-196v74h481v-74zM429 824l-159 -108l-158 110l33 47l125 -70l126 70z" />
    <glyph glyph-name="Umacron" unicode="&#x16a;" horiz-adv-x="629" 
d="M557 328c0 -124 4 -211 -60 -275c-37 -37 -95 -66 -182 -66c-71 0 -139 22 -185 68c-60 60 -58 136 -58 202v410h90v-420c0 -51 -2 -101 38 -141c27 -27 69 -42 118 -42s86 17 110 41c45 45 41 96 41 209v353h88v-339zM474 731h-318v64h318v-64z" />
    <glyph glyph-name="Uring" unicode="&#x16e;" horiz-adv-x="629" 
d="M557 328c0 -124 4 -211 -60 -275c-37 -37 -95 -66 -182 -66c-71 0 -139 22 -185 68c-60 60 -58 136 -58 202v410h90v-420c0 -51 -2 -101 38 -141c27 -27 69 -42 118 -42s86 17 110 41c45 45 41 96 41 209v353h88v-339zM417 818c0 -56 -46 -102 -102 -102
s-102 46 -102 102c0 57 47 101 102 101c57 0 102 -46 102 -101zM368 818c0 30 -24 53 -53 53s-53 -24 -53 -53s24 -53 53 -53c30 0 53 24 53 53z" />
    <glyph glyph-name="Uhungarumlaut" unicode="&#x170;" horiz-adv-x="629" 
d="M557 328c0 -124 4 -211 -60 -275c-37 -37 -95 -66 -182 -66c-71 0 -139 22 -185 68c-60 60 -58 136 -58 202v410h90v-420c0 -51 -2 -101 38 -141c27 -27 69 -42 118 -42s86 17 110 41c45 45 41 96 41 209v353h88v-339zM463 883l-72 -170l-64 22l56 178zM324 883l-71 -170
l-65 22l56 178z" />
    <glyph glyph-name="Uogonek" unicode="&#x172;" horiz-adv-x="629" 
d="M506 -166c-4 -3 -45 -30 -101 -30c-63 0 -103 42 -103 108c0 35 16 63 34 76c-11 -1 -15 -1 -21 -1c-71 0 -139 22 -185 68c-60 60 -58 136 -58 202v410h90v-420c0 -51 -2 -101 38 -141c27 -27 69 -42 118 -42s86 17 110 41c45 45 41 96 41 209v353h88v-339
c0 -124 4 -211 -60 -275c-57 -57 -141 -72 -141 -141c0 -36 22 -59 58 -59c32 0 67 18 73 21z" />
    <glyph glyph-name="Zacute" unicode="&#x179;" horiz-adv-x="552" 
d="M506 0h-461v64l347 529h-329v74h435v-67l-342 -524h350v-76zM419 801l-220 -85l-27 50l212 107z" />
    <glyph glyph-name="Zdotaccent" unicode="&#x17b;" horiz-adv-x="552" 
d="M506 0h-461v64l347 529h-329v74h435v-67l-342 -524h350v-76zM330 775c0 -30 -24 -53 -54 -53s-53 23 -53 53s23 53 53 53s54 -23 54 -53z" />
    <glyph glyph-name="amacron" unicode="&#x101;" horiz-adv-x="479" 
d="M419 0h-76v36c-6 -3 -65 -46 -148 -46c-94 0 -156 61 -156 150c0 160 201 164 276 164h22v31c0 27 -1 49 -20 68s-50 25 -85 25c-71 0 -126 -34 -133 -38l-31 57c5 5 68 50 172 50c53 0 106 -15 140 -49c36 -36 39 -77 39 -144v-304zM337 95v145h-25
c-77 0 -139 -11 -170 -42c-15 -15 -22 -32 -22 -56c0 -49 35 -83 96 -83c60 0 110 31 121 36zM402 591h-318v64h318v-64z" />
    <glyph glyph-name="abreve" unicode="&#x103;" horiz-adv-x="479" 
d="M419 0h-76v36c-6 -3 -65 -46 -148 -46c-94 0 -156 61 -156 150c0 160 201 164 276 164h22v31c0 27 -1 49 -20 68s-50 25 -85 25c-71 0 -126 -34 -133 -38l-31 57c5 5 68 50 172 50c53 0 106 -15 140 -49c36 -36 39 -77 39 -144v-304zM337 95v145h-25
c-77 0 -139 -11 -170 -42c-15 -15 -22 -32 -22 -56c0 -49 35 -83 96 -83c60 0 110 31 121 36zM380 692c-6 -83 -58 -135 -138 -135s-133 52 -139 135h64c6 -42 31 -63 75 -63s68 21 74 63h64z" />
    <glyph glyph-name="aogonek" unicode="&#x105;" horiz-adv-x="479" 
d="M419 304v-304c-30 -23 -65 -43 -65 -88c0 -36 22 -59 58 -59c32 0 67 18 73 21l19 -40c-4 -3 -45 -30 -101 -30c-63 0 -103 42 -103 108c0 46 26 75 48 88v40c-6 -5 -69 -50 -153 -50c-94 0 -156 61 -156 150c0 160 201 164 276 164h22v31c0 27 -1 49 -20 68
s-50 25 -85 25c-71 0 -126 -34 -133 -38l-31 57c5 5 68 50 172 50c53 0 106 -15 140 -49c36 -36 39 -77 39 -144zM337 95v145h-25c-77 0 -139 -11 -170 -42c-15 -15 -22 -32 -22 -56c0 -49 35 -83 96 -83c60 0 110 31 121 36z" />
    <glyph glyph-name="cacute" unicode="&#x107;" horiz-adv-x="475" 
d="M449 43c-3 -4 -72 -54 -172 -54c-139 0 -235 97 -235 245c0 154 103 263 246 263c91 0 149 -46 154 -52l-36 -55c-9 6 -51 35 -116 35c-99 0 -162 -84 -162 -183c0 -107 62 -179 157 -179c73 0 125 36 129 38zM417 631l-220 -85l-27 50l212 107z" />
    <glyph glyph-name="ccaron" unicode="&#x10d;" horiz-adv-x="475" 
d="M449 43c-3 -4 -72 -54 -172 -54c-139 0 -235 97 -235 245c0 154 103 263 246 263c91 0 149 -46 154 -52l-36 -55c-9 6 -51 35 -116 35c-99 0 -162 -84 -162 -183c0 -107 62 -179 157 -179c73 0 125 36 129 38zM447 655l-159 -108l-158 110l33 47l125 -70l126 70z" />
    <glyph glyph-name="dcaron" unicode="&#x10f;" horiz-adv-x="642" 
d="M468 0h-76v38c-7 -6 -54 -49 -136 -49c-129 0 -214 101 -214 247c0 156 102 261 236 261c62 0 100 -26 105 -29v253h85v-721zM383 103v290c-8 6 -41 32 -97 32c-93 0 -158 -71 -158 -189c0 -106 61 -175 143 -175c66 0 109 40 112 42zM655 721c0 -127 -91 -202 -105 -215
l-52 44c16 19 64 69 64 171h93z" />
    <glyph glyph-name="dcroat" unicode="&#x111;" horiz-adv-x="535" 
d="M468 0h-76v38c-7 -6 -54 -49 -136 -49c-129 0 -214 101 -214 247c0 156 102 261 236 261c62 0 100 -26 105 -29v103h-149v70h149v80h85v-80h85v-70h-85v-571zM383 103v290c-8 6 -41 32 -97 32c-93 0 -158 -71 -158 -189c0 -106 61 -175 143 -175c66 0 109 40 112 42z" />
    <glyph glyph-name="ecaron" unicode="&#x11b;" horiz-adv-x="508" 
d="M466 255c0 -10 -2 -27 -2 -36h-337c-1 -83 47 -158 152 -158c76 0 128 33 137 38l32 -58c-8 -6 -74 -52 -176 -52c-147 0 -230 106 -230 250c0 154 90 258 225 258c122 0 199 -90 199 -242zM384 286c0 56 -26 143 -116 143c-76 0 -133 -56 -140 -143h256zM429 655
l-159 -108l-158 110l33 47l125 -70l126 70z" />
    <glyph glyph-name="emacron" unicode="&#x113;" horiz-adv-x="508" 
d="M466 255c0 -10 -2 -27 -2 -36h-337c-1 -83 47 -158 152 -158c76 0 128 33 137 38l32 -58c-8 -6 -74 -52 -176 -52c-147 0 -230 106 -230 250c0 154 90 258 225 258c122 0 199 -90 199 -242zM384 286c0 56 -26 143 -116 143c-76 0 -133 -56 -140 -143h256zM431 591h-318
v64h318v-64z" />
    <glyph glyph-name="edotaccent" unicode="&#x117;" horiz-adv-x="508" 
d="M466 255c0 -10 -2 -27 -2 -36h-337c-1 -83 47 -158 152 -158c76 0 128 33 137 38l32 -58c-8 -6 -74 -52 -176 -52c-147 0 -230 106 -230 250c0 154 90 258 225 258c122 0 199 -90 199 -242zM384 286c0 56 -26 143 -116 143c-76 0 -133 -56 -140 -143h256zM320 623
c0 -30 -24 -53 -54 -53s-53 23 -53 53s23 53 53 53s54 -23 54 -53z" />
    <glyph glyph-name="eogonek" unicode="&#x119;" horiz-adv-x="508" 
d="M425 -166c-4 -3 -45 -30 -101 -30c-63 0 -103 42 -103 108c0 36 17 65 36 78c-137 5 -215 111 -215 249c0 154 90 258 225 258c122 0 199 -90 199 -242c0 -10 -2 -27 -2 -36h-337c-1 -83 47 -158 152 -158c76 0 128 33 137 38l32 -58c-69 -49 -173 -46 -173 -129
c0 -36 22 -59 58 -59c32 0 67 18 73 21zM384 286c0 56 -26 143 -116 143c-76 0 -133 -56 -140 -143h256z" />
    <glyph glyph-name="gbreve" unicode="&#x11f;" horiz-adv-x="536" 
d="M469 -2c0 -79 -6 -128 -48 -170c-38 -38 -89 -57 -164 -57c-116 0 -188 57 -194 64l37 57c7 -4 67 -49 149 -49c53 0 83 14 103 33c30 28 32 63 32 126v35c-8 -5 -58 -38 -132 -38c-130 0 -210 106 -210 239c0 148 101 259 247 259c91 0 169 -40 180 -45v-454zM384 110
v295c-7 3 -44 20 -97 20c-94 0 -159 -73 -159 -184c0 -104 59 -171 139 -171c61 0 111 36 117 40zM424 692c-6 -83 -58 -135 -138 -135s-133 52 -139 135h64c6 -42 31 -63 75 -63s68 21 74 63h64z" />
    <glyph glyph-name="imacron" unicode="&#x12b;" horiz-adv-x="218" 
d="M152 0h-85v484h85v-484zM268 591h-318v64h318v-64z" />
    <glyph glyph-name="iogonek" unicode="&#x12f;" horiz-adv-x="218" 
d="M109 690c29 0 52 -23 52 -52s-23 -52 -52 -52s-52 23 -52 52s23 52 52 52zM81 0h-14v484h85v-484c-30 -23 -65 -43 -65 -88c0 -36 22 -59 58 -59c32 0 67 18 73 21l19 -40c-4 -3 -45 -30 -101 -30c-63 0 -103 42 -103 108c0 46 26 75 48 88z" />
    <glyph glyph-name="lacute" unicode="&#x13a;" horiz-adv-x="219" 
d="M331 849l-220 -85l-27 50l212 107zM152 0h-85v721h85v-721z" />
    <glyph glyph-name="lcaron" unicode="&#x13e;" horiz-adv-x="332" 
d="M152 0h-85v721h85v-721zM339 721c0 -127 -91 -202 -105 -215l-52 44c16 19 64 69 64 171h93z" />
    <glyph glyph-name="nacute" unicode="&#x144;" horiz-adv-x="518" 
d="M458 0h-85v275c0 61 -1 101 -26 126c-13 13 -38 24 -68 24c-62 0 -123 -39 -127 -42v-383h-85v484h76v-36c8 5 69 49 151 49c67 0 101 -27 116 -42c46 -46 48 -96 48 -174v-281zM405 631l-220 -85l-27 50l212 107z" />
    <glyph glyph-name="ncaron" unicode="&#x148;" horiz-adv-x="518" 
d="M458 0h-85v275c0 61 -1 101 -26 126c-13 13 -38 24 -68 24c-62 0 -123 -39 -127 -42v-383h-85v484h76v-36c8 5 69 49 151 49c67 0 101 -27 116 -42c46 -46 48 -96 48 -174v-281zM435 655l-159 -108l-158 110l33 47l125 -70l126 70z" />
    <glyph glyph-name="omacron" unicode="&#x14d;" horiz-adv-x="540" 
d="M498 242c0 -152 -91 -253 -231 -253c-135 0 -225 100 -225 253c0 152 91 255 232 255c135 0 224 -100 224 -255zM413 241c0 111 -61 186 -144 186c-87 0 -142 -73 -142 -182c0 -111 62 -185 145 -185c90 0 141 71 141 181zM433 591h-318v64h318v-64z" />
    <glyph glyph-name="ohungarumlaut" unicode="&#x151;" horiz-adv-x="540" 
d="M498 242c0 -152 -91 -253 -231 -253c-135 0 -225 100 -225 253c0 152 91 255 232 255c135 0 224 -100 224 -255zM413 241c0 111 -61 186 -144 186c-87 0 -142 -73 -142 -182c0 -111 62 -185 145 -185c90 0 141 71 141 181zM444 704l-72 -170l-64 22l56 178zM305 704
l-71 -170l-65 22l56 178z" />
    <glyph glyph-name="racute" unicode="&#x155;" horiz-adv-x="379" 
d="M331 631l-220 -85l-27 50l212 107zM351 488l-20 -68c-6 1 -21 3 -36 3c-95 0 -135 -69 -143 -79v-344h-85v484h76v-63c5 6 58 76 156 76c36 0 49 -8 52 -9z" />
    <glyph glyph-name="rcaron" unicode="&#x159;" horiz-adv-x="379" 
d="M351 488l-20 -68c-6 1 -21 3 -36 3c-95 0 -135 -69 -143 -79v-344h-85v484h76v-63c5 6 58 76 156 76c36 0 49 -8 52 -9zM365 655l-159 -108l-158 110l33 47l125 -70l126 70z" />
    <glyph glyph-name="sacute" unicode="&#x15b;" horiz-adv-x="413" 
d="M373 135c0 -94 -82 -148 -177 -148c-96 0 -160 43 -166 48l32 59c10 -6 59 -37 129 -37c52 0 93 29 93 72c0 99 -239 77 -239 231c0 82 70 137 169 137c94 0 148 -39 153 -43l-32 -57c-6 4 -56 33 -115 33s-89 -29 -89 -65c0 -93 242 -76 242 -230zM351 631l-220 -85
l-27 50l212 107z" />
    <glyph glyph-name="scedilla" unicode="&#x15f;" horiz-adv-x="413" 
d="M303 -130c0 -58 -50 -90 -98 -90c-39 0 -65 14 -74 22l18 38c5 -3 25 -13 50 -13c40 0 49 25 49 41c0 23 -17 39 -42 39c-18 0 -34 -8 -41 -13l-28 17l14 79c-71 10 -116 41 -121 45l32 59c10 -6 59 -37 129 -37c52 0 93 29 93 72c0 99 -239 77 -239 231
c0 82 70 137 169 137c94 0 148 -39 153 -43l-32 -57c-6 4 -56 33 -115 33s-89 -29 -89 -65c0 -93 242 -76 242 -230c0 -93 -80 -146 -173 -148l-6 -37c4 2 13 4 23 4c51 0 86 -34 86 -84z" />
    <glyph glyph-name="scommaaccent" unicode="&#x219;" horiz-adv-x="413" 
d="M373 135c0 -94 -82 -148 -177 -148c-96 0 -160 43 -166 48l32 59c10 -6 59 -37 129 -37c52 0 93 29 93 72c0 99 -239 77 -239 231c0 82 70 137 169 137c94 0 148 -39 153 -43l-32 -57c-6 4 -56 33 -115 33s-89 -29 -89 -65c0 -93 242 -76 242 -230zM251 -68
c0 -127 -91 -202 -105 -215l-52 44c16 19 64 69 64 171h93z" />
    <glyph glyph-name="tcaron" unicode="&#x165;" horiz-adv-x="372" 
d="M351 14c-6 -3 -44 -26 -104 -26c-44 0 -83 11 -109 37c-35 35 -32 84 -32 142v247h-85v70h85v136h85v-136h149v-70h-149v-261c0 -49 2 -92 71 -92c39 0 63 12 67 13zM403 745c0 -127 -91 -202 -105 -215l-52 44c16 19 64 69 64 171h93z" />
    <glyph glyph-name="umacron" unicode="&#x16b;" horiz-adv-x="518" 
d="M451 0h-76v36c-8 -5 -69 -49 -151 -49c-50 0 -95 17 -118 40c-46 46 -46 98 -46 176v281h85v-275c0 -61 1 -101 26 -126c13 -13 38 -24 68 -24c62 0 123 39 127 42v383h85v-484zM414 591h-318v64h318v-64z" />
    <glyph glyph-name="uring" unicode="&#x16f;" horiz-adv-x="518" 
d="M451 0h-76v36c-8 -5 -69 -49 -151 -49c-50 0 -95 17 -118 40c-46 46 -46 98 -46 176v281h85v-275c0 -61 1 -101 26 -126c13 -13 38 -24 68 -24c62 0 123 39 127 42v383h85v-484zM358 639c0 -56 -46 -102 -102 -102s-102 46 -102 102c0 57 47 101 102 101
c57 0 102 -46 102 -101zM309 639c0 30 -24 53 -53 53s-53 -24 -53 -53s24 -53 53 -53c30 0 53 24 53 53z" />
    <glyph glyph-name="uhungarumlaut" unicode="&#x171;" horiz-adv-x="518" 
d="M451 0h-76v36c-8 -5 -69 -49 -151 -49c-50 0 -95 17 -118 40c-46 46 -46 98 -46 176v281h85v-275c0 -61 1 -101 26 -126c13 -13 38 -24 68 -24c62 0 123 39 127 42v383h85v-484zM414 704l-72 -170l-64 22l56 178zM275 704l-71 -170l-65 22l56 178z" />
    <glyph glyph-name="uogonek" unicode="&#x173;" horiz-adv-x="518" 
d="M375 0v36c-8 -5 -69 -49 -151 -49c-50 0 -95 17 -118 40c-46 46 -46 98 -46 176v281h85v-275c0 -61 1 -101 26 -126c13 -13 38 -24 68 -24c62 0 123 39 127 42v383h85v-484c-30 -23 -65 -43 -65 -88c0 -36 22 -59 58 -59c32 0 67 18 73 21l19 -40c-4 -3 -45 -30 -101 -30
c-63 0 -103 42 -103 108c0 46 26 75 48 88h-5z" />
    <glyph glyph-name="zacute" unicode="&#x17a;" horiz-adv-x="485" 
d="M430 0h-385v62l270 351h-259v71h364v-64l-266 -348h276v-72zM366 631l-220 -85l-27 50l212 107z" />
    <glyph glyph-name="zdotaccent" unicode="&#x17c;" horiz-adv-x="485" 
d="M430 0h-385v62l270 351h-259v71h364v-64l-266 -348h276v-72zM292 623c0 -30 -24 -53 -54 -53s-53 23 -53 53s23 53 53 53s54 -23 54 -53z" />
    <glyph glyph-name="Tcommaaccent" unicode="&#x162;" horiz-adv-x="541" 
d="M511 593h-195v-593h-90v593h-196v74h481v-74zM318 -68c0 -127 -91 -202 -105 -215l-52 44c16 19 64 69 64 171h93z" />
    <glyph glyph-name="Kcommaaccent" unicode="&#x136;" horiz-adv-x="565" 
d="M553 0h-109l-274 316v-316h-89v667h89v-313l269 313h100l-283 -326zM346 -68c0 -127 -91 -202 -105 -215l-52 44c16 19 64 69 64 171h93z" />
    <glyph glyph-name="Lcommaaccent" unicode="&#x13b;" horiz-adv-x="486" 
d="M448 0h-367v667h90v-591h277v-76zM322 -68c0 -127 -91 -202 -105 -215l-52 44c16 19 64 69 64 171h93z" />
    <glyph glyph-name="Ncommaaccent" unicode="&#x145;" horiz-adv-x="646" 
d="M565 0h-89l-315 531l2 -531h-82v667h89l315 -533l-2 533h82v-667zM370 -68c0 -127 -91 -202 -105 -215l-52 44c16 19 64 69 64 171h93z" />
    <glyph glyph-name="Eng" unicode="&#x14a;" horiz-adv-x="647" 
d="M476 0l-315 531l2 -531h-82v667h89l315 -533l-2 533h82v-662c0 -64 3 -133 -46 -182c-26 -26 -67 -43 -116 -43c-77 0 -128 36 -133 40l32 64c18 -10 52 -26 87 -26c28 0 47 7 60 19c28 26 27 70 27 110v13z" />
    <glyph glyph-name="Rcommaaccent" unicode="&#x156;" horiz-adv-x="566" 
d="M540 0h-94l-77 174c-46 103 -68 112 -158 112h-42v-286h-88v667h148c89 0 158 1 212 -53c33 -33 52 -77 52 -133c0 -46 -13 -85 -41 -115c-24 -26 -63 -48 -107 -53c22 -1 44 -14 57 -27c20 -20 34 -52 52 -93zM404 481c0 36 -14 65 -29 80c-36 36 -83 35 -137 35h-69
v-239h31c64 0 129 -2 171 40c21 21 33 52 33 84zM346 -68c0 -127 -91 -202 -105 -215l-52 44c16 19 64 69 64 171h93z" />
    <glyph glyph-name="Oslashacute" unicode="&#x1fe;" horiz-adv-x="714" 
d="M470 801l-220 -85l-27 50l212 107zM662 337c0 -208 -125 -350 -307 -350c-48 0 -92 11 -131 30l-51 -89l-63 35l54 94c-70 61 -112 158 -112 275c0 206 126 348 308 348c72 0 122 -23 139 -33l53 89l64 -36l-58 -96c65 -61 104 -155 104 -267zM570 340
c0 128 -56 188 -56 188l-250 -440s33 -24 95 -24c139 0 211 119 211 276zM460 576c0 0 -39 28 -106 28c-127 0 -210 -107 -210 -270c0 -134 66 -200 66 -200z" />
    <glyph glyph-name="Gcommaaccent" unicode="&#x122;" horiz-adv-x="672" 
d="M606 49c-5 -4 -88 -63 -232 -63c-181 0 -322 127 -322 342c0 223 149 353 333 353c132 0 197 -54 205 -62l-39 -62c-7 5 -67 45 -161 45c-136 0 -246 -99 -246 -266c0 -164 91 -272 240 -272c87 0 129 26 135 29v166h-143v71h230v-281zM422 -68
c0 -127 -91 -202 -105 -215l-52 44c16 19 64 69 64 171h93z" />
    <glyph glyph-name="tcommaaccent" unicode="&#x163;" horiz-adv-x="372" 
d="M351 14c-6 -3 -44 -26 -104 -26c-44 0 -83 11 -109 37c-35 35 -32 84 -32 142v247h-85v70h85v136h85v-136h149v-70h-149v-261c0 -49 2 -92 71 -92c39 0 63 12 67 13zM206 -68c0 -127 -91 -202 -105 -215l-52 44c16 19 64 69 64 171h93z" />
    <glyph glyph-name="kcommaaccent" unicode="&#x137;" horiz-adv-x="493" 
d="M476 0h-105l-219 253v-253h-85v721h85v-443l206 206h108l-224 -217zM299 -68c0 -127 -91 -202 -105 -215l-52 44c16 19 64 69 64 171h93z" />
    <glyph glyph-name="lcommaaccent" unicode="&#x13c;" horiz-adv-x="219" 
d="M152 0h-85v721h85v-721zM156 -68c0 -127 -91 -202 -105 -215l-52 44c16 19 64 69 64 171h93z" />
    <glyph glyph-name="ncommaaccent" unicode="&#x146;" horiz-adv-x="518" 
d="M458 0h-85v275c0 61 -1 101 -26 126c-13 13 -38 24 -68 24c-62 0 -123 -39 -127 -42v-383h-85v484h76v-36c8 5 69 49 151 49c67 0 101 -27 116 -42c46 -46 48 -96 48 -174v-281zM308 -68c0 -127 -91 -202 -105 -215l-52 44c16 19 64 69 64 171h93z" />
    <glyph glyph-name="rcommaaccent" unicode="&#x157;" horiz-adv-x="379" 
d="M351 488l-20 -68c-6 1 -21 3 -36 3c-95 0 -135 -69 -143 -79v-344h-85v484h76v-63c5 6 58 76 156 76c36 0 49 -8 52 -9zM157 -68c0 -127 -91 -202 -105 -215l-52 44c16 19 64 69 64 171h93z" />
    <glyph glyph-name="gcommaaccent" unicode="&#x123;" horiz-adv-x="536" 
d="M469 -2c0 -79 -6 -128 -48 -170c-38 -38 -89 -57 -164 -57c-116 0 -188 57 -194 64l37 57c7 -4 67 -49 149 -49c53 0 83 14 103 33c30 28 32 63 32 126v35c-8 -5 -58 -38 -132 -38c-130 0 -210 106 -210 239c0 148 101 259 247 259c91 0 169 -40 180 -45v-454zM384 110
v295c-7 3 -44 20 -97 20c-94 0 -159 -73 -159 -184c0 -104 59 -171 139 -171c61 0 111 36 117 40zM247 562c0 127 91 202 105 215l52 -44c-16 -19 -64 -69 -64 -171h-93z" />
    <glyph glyph-name="eng" unicode="&#x14b;" horiz-adv-x="518" 
d="M458 281v-326c0 -66 -8 -108 -44 -144c-28 -28 -72 -40 -112 -40c-42 0 -73 15 -79 18l21 63c9 -3 27 -10 50 -10c36 0 50 14 57 21c17 17 22 44 22 84v328c0 61 -1 101 -26 126c-13 13 -38 24 -68 24c-62 0 -123 -39 -127 -42v-383h-85v484h76v-36c8 5 69 49 151 49
c67 0 101 -27 116 -42c46 -46 48 -96 48 -174z" />
    <glyph glyph-name="Amacronsmall" unicode="&#xf66e;" horiz-adv-x="518" 
d="M507 0h-92l-49 132h-219l-49 -132h-87l203 520h89zM340 200l-84 227l-85 -227h169zM417 591h-318v64h318v-64z" />
    <glyph glyph-name="Abrevesmall" unicode="&#xf66d;" horiz-adv-x="518" 
d="M507 0h-92l-49 132h-219l-49 -132h-87l203 520h89zM340 200l-84 227l-85 -227h169zM395 703c-6 -83 -58 -135 -138 -135s-133 52 -139 135h64c6 -42 31 -63 75 -63s68 21 74 63h64z" />
    <glyph glyph-name="Aogoneksmall" unicode="&#xf66f;" horiz-adv-x="518" 
d="M340 200l-84 227l-85 -227h169zM415 0l-49 132h-219l-49 -132h-87l203 520h89l204 -520c-30 -23 -65 -43 -65 -88c0 -36 22 -59 58 -59c32 0 67 18 73 21l19 -40c-4 -3 -45 -30 -101 -30c-63 0 -103 42 -103 108c0 46 26 75 48 88h-21z" />
    <glyph glyph-name="Cacutesmall" unicode="&#xf671;" horiz-adv-x="509" 
d="M489 49c-11 -12 -77 -60 -184 -60c-144 0 -258 99 -258 266c0 174 121 275 268 275c98 0 157 -42 169 -54l-37 -59c-20 12 -61 39 -128 39c-102 0 -181 -73 -181 -195c0 -121 65 -197 175 -197c76 0 129 37 139 43zM440 644l-220 -85l-27 50l212 107z" />
    <glyph glyph-name="Ccaronsmall" unicode="&#xf673;" horiz-adv-x="509" 
d="M489 49c-11 -12 -77 -60 -184 -60c-144 0 -258 99 -258 266c0 174 121 275 268 275c98 0 157 -42 169 -54l-37 -59c-20 12 -61 39 -128 39c-102 0 -181 -73 -181 -195c0 -121 65 -197 175 -197c76 0 129 37 139 43zM475 667l-159 -108l-158 110l33 47l125 -70l126 70z
" />
    <glyph glyph-name="Dcaronsmall" unicode="&#xf675;" horiz-adv-x="584" 
d="M537 264c0 -78 -30 -147 -81 -194c-71 -66 -155 -70 -256 -70h-127v520h128c105 0 187 -3 255 -66c50 -46 81 -115 81 -190zM447 265c0 59 -20 104 -47 131c-38 38 -76 55 -191 55h-48v-381h58c70 0 130 3 178 51c35 35 50 90 50 144zM407 667l-159 -108l-158 110l33 47
l125 -70l126 70z" />
    <glyph glyph-name="Dcroatsmall" unicode="&#xf676;" horiz-adv-x="617" 
d="M573 264c0 -78 -30 -147 -81 -194c-71 -66 -155 -70 -256 -70h-127v237h-80v66h80v217h128c105 0 187 -3 255 -66c50 -46 81 -115 81 -190zM483 265c0 59 -20 104 -47 131c-38 38 -76 55 -191 55h-48v-148h153v-66h-153v-167h58c70 0 131 4 178 51c35 35 50 90 50 144z
" />
    <glyph glyph-name="Ecaronsmall" unicode="&#xf678;" horiz-adv-x="442" 
d="M392 0h-319v520h312v-70h-226v-145h213v-69h-213v-164h233v-72zM387 667l-159 -108l-158 110l33 47l125 -70l126 70z" />
    <glyph glyph-name="Emacronsmall" unicode="&#xf67a;" horiz-adv-x="442" 
d="M388 591h-318v64h318v-64zM392 0h-319v520h312v-70h-226v-145h213v-69h-213v-164h233v-72z" />
    <glyph glyph-name="Edotaccentsmall" unicode="&#xf679;" horiz-adv-x="442" 
d="M392 0h-319v520h312v-70h-226v-145h213v-69h-213v-164h233v-72zM275 635c0 -30 -24 -53 -54 -53s-53 23 -53 53s23 53 53 53s54 -23 54 -53z" />
    <glyph glyph-name="Eogoneksmall" unicode="&#xf67c;" horiz-adv-x="442" 
d="M321 0h-248v520h312v-70h-226v-145h213v-69h-213v-164h233v-72c-30 -23 -65 -43 -65 -88c0 -36 22 -59 58 -59c32 0 67 18 73 21l19 -40c-4 -3 -45 -30 -101 -30c-63 0 -103 42 -103 108c0 46 26 75 48 88z" />
    <glyph glyph-name="Gbrevesmall" unicode="&#xf67d;" horiz-adv-x="553" 
d="M454 703c-6 -83 -58 -135 -138 -135s-133 52 -139 135h64c6 -42 31 -63 75 -63s68 21 74 63h64zM496 41c-8 -6 -75 -52 -189 -52c-146 0 -260 99 -260 267c0 174 120 275 268 275c99 0 157 -40 170 -53l-37 -58c-9 6 -56 37 -129 37c-103 0 -185 -73 -185 -195
c0 -121 69 -199 181 -199c32 0 69 4 98 19v114h-112v69h195v-224z" />
    <glyph glyph-name="Imacronsmall" unicode="&#xf685;" horiz-adv-x="233" 
d="M276 591h-318v64h318v-64zM160 0h-87v520h87v-520z" />
    <glyph glyph-name="Iogoneksmall" unicode="&#xf686;" horiz-adv-x="233" 
d="M73 0v520h87v-520c-30 -23 -65 -43 -65 -88c0 -36 22 -59 58 -59c32 0 67 18 73 21l19 -40c-4 -3 -45 -30 -101 -30c-63 0 -103 42 -103 108c0 46 26 75 48 88h-16z" />
    <glyph glyph-name="Lacutesmall" unicode="&#xf68a;" horiz-adv-x="417" 
d="M384 0h-311v520h87v-448h224v-72zM336 644l-220 -85l-27 50l212 107z" />
    <glyph glyph-name="Lcaronsmall" unicode="&#xf68b;" horiz-adv-x="417" 
d="M384 0h-311v520h87v-448h224v-72zM360 520c0 -127 -91 -202 -105 -215l-52 44c16 19 64 69 64 171h93z" />
    <glyph glyph-name="Nacutesmall" unicode="&#xf68e;" horiz-adv-x="548" 
d="M481 0h-83l-246 385l2 -385h-81v520h83l246 -386l-2 386h81v-520zM397 644l-220 -85l-27 50l212 107z" />
    <glyph glyph-name="Ncaronsmall" unicode="&#xf68f;" horiz-adv-x="548" 
d="M481 0h-83l-246 385l2 -385h-81v520h83l246 -386l-2 386h81v-520zM436 667l-159 -108l-158 110l33 47l125 -70l126 70z" />
    <glyph glyph-name="Omacronsmall" unicode="&#xf693;" horiz-adv-x="609" 
d="M467 591h-318v64h318v-64zM562 263c0 -161 -105 -273 -259 -273c-149 0 -256 112 -256 269c0 160 106 271 260 271c151 0 255 -110 255 -267zM472 265c0 117 -71 193 -170 193s-165 -76 -165 -197c0 -119 73 -198 169 -198c109 0 166 85 166 202z" />
    <glyph glyph-name="Ohungarumlautsmall" unicode="&#xf692;" horiz-adv-x="609" 
d="M562 263c0 -161 -105 -273 -259 -273c-149 0 -256 112 -256 269c0 160 106 271 260 271c151 0 255 -110 255 -267zM472 265c0 117 -71 193 -170 193s-165 -76 -165 -197c0 -119 73 -198 169 -198c109 0 166 85 166 202zM470 738l-72 -170l-64 22l56 178zM331 738
l-71 -170l-65 22l56 178z" />
    <glyph glyph-name="Racutesmall" unicode="&#xf695;" horiz-adv-x="481" 
d="M458 0h-91l-64 135c-36 77 -52 83 -122 83h-22v-218h-86v520h122c61 0 129 4 177 -44c32 -32 44 -66 44 -104c0 -36 -13 -67 -36 -90c-18 -18 -41 -32 -82 -38c50 -4 69 -55 86 -90zM330 372c0 28 -10 44 -22 56c-27 27 -68 25 -104 25h-45v-169h26c49 0 93 2 122 31
c15 15 23 35 23 57zM355 644l-220 -85l-27 50l212 107z" />
    <glyph glyph-name="Rcaronsmall" unicode="&#xf696;" horiz-adv-x="481" 
d="M458 0h-91l-64 135c-36 77 -52 83 -122 83h-22v-218h-86v520h122c61 0 129 4 177 -44c32 -32 44 -66 44 -104c0 -36 -13 -67 -36 -90c-18 -18 -41 -32 -82 -38c50 -4 69 -55 86 -90zM330 372c0 28 -10 44 -22 56c-27 27 -68 25 -104 25h-45v-169h26c49 0 93 2 122 31
c15 15 23 35 23 57zM381 667l-159 -108l-158 110l33 47l125 -70l126 70z" />
    <glyph glyph-name="Sacutesmall" unicode="&#xf698;" horiz-adv-x="441" 
d="M390 147c0 -89 -66 -158 -181 -158c-93 0 -163 50 -173 62l42 57c11 -8 61 -46 128 -46c64 0 95 36 95 77c0 103 -246 91 -246 247c0 86 71 145 172 145s152 -49 162 -60l-44 -54c-32 24 -70 41 -113 41c-57 0 -90 -27 -90 -66c0 -41 41 -57 102 -87
c57 -28 146 -71 146 -158zM352 644l-220 -85l-27 50l212 107z" />
    <glyph glyph-name="Scedillasmall" unicode="&#xf699;" horiz-adv-x="441" 
d="M322 -130c0 -58 -50 -90 -98 -90c-39 0 -65 14 -74 22l18 38c5 -3 25 -13 50 -13c40 0 49 25 49 41c0 23 -17 39 -42 39c-18 0 -34 -8 -41 -13l-28 17l15 81c-69 9 -125 47 -135 59l42 57c11 -8 61 -46 128 -46c64 0 95 36 95 77c0 103 -246 91 -246 247
c0 86 71 145 172 145s152 -49 162 -60l-44 -54c-32 24 -70 41 -113 41c-57 0 -90 -27 -90 -66c0 -41 41 -57 102 -87c57 -28 146 -71 146 -158c0 -86 -62 -154 -171 -158l-6 -39c4 2 13 4 23 4c51 0 86 -34 86 -84z" />
    <glyph glyph-name="Scommaaccentsmall" unicode="&#xf69b;" horiz-adv-x="441" 
d="M390 147c0 -89 -66 -158 -181 -158c-93 0 -163 50 -173 62l42 57c11 -8 61 -46 128 -46c64 0 95 36 95 77c0 103 -246 91 -246 247c0 86 71 145 172 145s152 -49 162 -60l-44 -54c-32 24 -70 41 -113 41c-57 0 -90 -27 -90 -66c0 -41 41 -57 102 -87
c57 -28 146 -71 146 -158zM260 -68c0 -127 -91 -202 -105 -215l-52 44c16 19 64 69 64 171h93z" />
    <glyph glyph-name="Tcaronsmall" unicode="&#xf69d;" horiz-adv-x="463" 
d="M435 450h-159v-450h-88v450h-160v70h407v-70zM391 667l-159 -108l-158 110l33 47l125 -70l126 70z" />
    <glyph glyph-name="Umacronsmall" unicode="&#xf6a1;" horiz-adv-x="542" 
d="M430 591h-318v64h318v-64zM476 243c0 -104 -6 -155 -49 -198c-33 -33 -83 -55 -156 -55c-61 0 -119 17 -156 54c-51 51 -49 97 -49 158v318h88v-325c0 -37 0 -74 29 -102c21 -20 54 -30 91 -30c35 0 65 11 83 28c28 27 31 57 32 93v57v279h87v-277z" />
    <glyph glyph-name="Uringsmall" unicode="&#xf6a3;" horiz-adv-x="542" 
d="M476 243c0 -104 -6 -155 -49 -198c-33 -33 -83 -55 -156 -55c-61 0 -119 17 -156 54c-51 51 -49 97 -49 158v318h88v-325c0 -37 0 -74 29 -102c21 -20 54 -30 91 -30c35 0 65 11 83 28c28 27 31 57 32 93v57v279h87v-277zM373 670c0 -56 -46 -102 -102 -102
s-102 46 -102 102c0 57 47 101 102 101c57 0 102 -46 102 -101zM324 670c0 30 -24 53 -53 53s-53 -24 -53 -53s24 -53 53 -53c30 0 53 24 53 53z" />
    <glyph glyph-name="Uhungarumlautsmall" unicode="&#xf6a0;" horiz-adv-x="542" 
d="M476 243c0 -104 -6 -155 -49 -198c-33 -33 -83 -55 -156 -55c-61 0 -119 17 -156 54c-51 51 -49 97 -49 158v318h88v-325c0 -37 0 -74 29 -102c21 -20 54 -30 91 -30c35 0 65 11 83 28c28 27 31 57 32 93v57v279h87v-277zM430 738l-72 -170l-64 22l56 178zM291 738
l-71 -170l-65 22l56 178z" />
    <glyph glyph-name="Uogoneksmall" unicode="&#xf6a2;" horiz-adv-x="542" 
d="M461 -166c-4 -3 -45 -30 -101 -30c-63 0 -103 42 -103 108c0 37 17 65 38 79c-13 -1 -17 -1 -24 -1c-61 0 -119 17 -156 54c-51 51 -49 97 -49 158v318h88v-325c0 -37 0 -74 29 -102c21 -20 54 -30 91 -30c35 0 65 11 83 28c28 27 31 57 32 93v336h87v-277
c0 -104 -6 -155 -49 -198c-66 -66 -116 -77 -116 -133c0 -36 22 -59 58 -59c32 0 67 18 73 21z" />
    <glyph glyph-name="Zacutesmall" unicode="&#xf6ab;" horiz-adv-x="485" 
d="M436 0h-390v58l276 392h-261v70h368v-60l-271 -388h278v-72zM369 644l-220 -85l-27 50l212 107z" />
    <glyph glyph-name="Zdotaccentsmall" unicode="&#xf6ac;" horiz-adv-x="485" 
d="M436 0h-390v58l276 392h-261v70h368v-60l-271 -388h278v-72zM297 635c0 -30 -24 -53 -54 -53s-53 23 -53 53s23 53 53 53s54 -23 54 -53z" />
    <glyph glyph-name="Aringacute" unicode="&#x1fa;" horiz-adv-x="607" 
d="M419 1014l-220 -85l-27 50l212 107zM594 0h-94l-61 174h-275l-61 -174h-90l242 667h95zM414 247l-113 325l-112 -325h225zM403 818c0 -56 -46 -102 -102 -102s-102 46 -102 102c0 57 47 101 102 101c57 0 102 -46 102 -101zM354 818c0 30 -24 53 -53 53s-53 -24 -53 -53
s24 -53 53 -53c30 0 53 24 53 53z" />
    <glyph glyph-name="AEacute" unicode="&#x1fc;" horiz-adv-x="869" 
d="M818 0h-377v175h-234l-95 -175h-95l381 667h412v-74h-281v-210h264v-72h-264v-235h289v-76zM441 250v351l-194 -351h194zM705 814l-220 -85l-27 50l212 107z" />
    <glyph glyph-name="Ccircumflex" unicode="&#x108;" horiz-adv-x="620" 
d="M596 57c-7 -8 -89 -70 -224 -70c-179 0 -320 126 -320 341c0 223 149 353 333 353c132 0 197 -54 205 -62l-39 -62c-8 5 -67 45 -161 45c-136 0 -246 -99 -246 -266c0 -163 92 -269 239 -269c96 0 167 48 174 52zM544 763l-33 -47l-125 70l-126 -70l-33 49l159 108z" />
    <glyph glyph-name="Ldot" unicode="&#x13f;" horiz-adv-x="486" 
d="M366 349c0 -32 -25 -58 -57 -58s-58 26 -58 58s26 57 58 57s57 -25 57 -57zM448 0h-367v667h90v-591h277v-76z" />
    <glyph glyph-name="Jcircumflex" unicode="&#x134;" horiz-adv-x="376" 
d="M303 212c0 -64 3 -133 -46 -182c-26 -26 -67 -43 -116 -43c-77 0 -128 36 -133 40l32 64c18 -10 52 -26 87 -26c28 0 46 7 59 19c28 26 27 70 27 110v473h90v-455zM416 763l-33 -47l-125 70l-126 -70l-33 49l159 108z" />
    <glyph glyph-name="Ibreve" unicode="&#x12c;" horiz-adv-x="252" 
d="M171 0h-90v667h90v-667zM265 862c-6 -83 -58 -135 -138 -135s-133 52 -139 135h64c6 -42 31 -63 75 -63s68 21 74 63h64z" />
    <glyph glyph-name="Itilde" unicode="&#x128;" horiz-adv-x="252" 
d="M171 0h-90v667h90v-667zM288 773c-23 -23 -64 -54 -108 -54c-41 0 -72 25 -109 25c-24 0 -47 -15 -67 -28l-39 49c28 24 63 52 107 52c41 0 73 -25 109 -25c27 0 52 16 69 30z" />
    <glyph glyph-name="Hbar" unicode="&#x126;" horiz-adv-x="686" 
d="M586 0h-90v311h-306v-311h-90v491h-100v72h100v104h90v-104h306v104h90v-104h100v-72h-100v-491zM190 387h306v104h-306v-104z" />
    <glyph glyph-name="Hcircumflex" unicode="&#x124;" horiz-adv-x="648" 
d="M567 0h-90v311h-306v-311h-90v667h90v-280h306v280h90v-667zM483 763l-33 -47l-125 70l-126 -70l-33 49l159 108z" />
    <glyph glyph-name="Gdotaccent" unicode="&#x120;" horiz-adv-x="672" 
d="M606 49c-5 -4 -88 -63 -232 -63c-181 0 -322 127 -322 342c0 223 149 353 333 353c132 0 197 -54 205 -62l-39 -62c-7 5 -67 45 -161 45c-136 0 -246 -99 -246 -266c0 -164 91 -272 240 -272c87 0 129 26 135 29v166h-143v71h230v-281zM441 775c0 -30 -24 -53 -54 -53
s-53 23 -53 53s23 53 53 53s54 -23 54 -53z" />
    <glyph glyph-name="Gcircumflex" unicode="&#x11c;" horiz-adv-x="672" 
d="M606 49c-5 -4 -88 -63 -232 -63c-181 0 -322 127 -322 342c0 223 149 353 333 353c132 0 197 -54 205 -62l-39 -62c-7 5 -67 45 -161 45c-136 0 -246 -99 -246 -266c0 -164 91 -272 240 -272c87 0 129 26 135 29v166h-143v71h230v-281zM544 763l-33 -47l-125 70l-126 -70
l-33 49l159 108z" />
    <glyph glyph-name="Ebreve" unicode="&#x114;" horiz-adv-x="509" 
d="M458 0h-377v667h369v-74h-281v-210h264v-72h-264v-235h289v-76zM403 862c-6 -83 -58 -135 -138 -135s-133 52 -139 135h64c6 -42 31 -63 75 -63s68 21 74 63h64z" />
    <glyph glyph-name="Cdotaccent" unicode="&#x10a;" horiz-adv-x="620" 
d="M596 57c-7 -8 -89 -70 -224 -70c-179 0 -320 126 -320 341c0 223 149 353 333 353c132 0 197 -54 205 -62l-39 -62c-8 5 -67 45 -161 45c-136 0 -246 -99 -246 -266c0 -163 92 -269 239 -269c96 0 167 48 174 52zM441 775c0 -30 -24 -53 -54 -53s-53 23 -53 53
s23 53 53 53s54 -23 54 -53z" />
    <glyph glyph-name="Dcroat" unicode="&#x110;" horiz-adv-x="699" 
d="M648 338c0 -101 -34 -187 -95 -248c-84 -84 -183 -90 -307 -90h-146v311h-100v72h100v284h147c129 0 226 -5 306 -85c59 -59 95 -147 95 -244zM557 340c0 68 -15 136 -71 192c-58 58 -124 63 -239 63h-58v-212h193v-72h-193v-238h83c89 0 161 10 218 68
c45 46 67 118 67 199z" />
    <glyph glyph-name="Obreve" unicode="&#x14e;" horiz-adv-x="714" 
d="M662 337c0 -208 -125 -350 -307 -350c-176 0 -303 143 -303 345c0 206 126 348 308 348c178 0 302 -142 302 -343zM570 340c0 159 -89 264 -216 264s-210 -107 -210 -270c0 -162 93 -270 215 -270c139 0 211 119 211 276zM499 862c-6 -83 -58 -135 -138 -135
s-133 52 -139 135h64c6 -42 31 -63 75 -63s68 21 74 63h64z" />
    <glyph glyph-name="Scircumflex" unicode="&#x15c;" horiz-adv-x="524" 
d="M467 181c0 -110 -81 -195 -219 -195c-118 0 -197 64 -205 72l43 62c12 -8 77 -57 158 -57c82 0 130 49 130 110c0 73 -85 109 -157 144c-85 41 -155 85 -155 183c0 106 86 180 209 180s184 -61 190 -68l-45 -58c-8 7 -61 50 -139 50c-73 0 -125 -36 -125 -96
c0 -63 59 -83 125 -117c59 -30 190 -79 190 -210zM430 763l-33 -47l-125 70l-126 -70l-33 49l159 108z" />
    <glyph glyph-name="Tbar" unicode="&#x166;" horiz-adv-x="541" 
d="M429 313h-113v-313h-90v313h-115v73h115v207h-196v74h481v-74h-195v-207h113v-73z" />
    <glyph glyph-name="Utilde" unicode="&#x168;" horiz-adv-x="629" 
d="M557 328c0 -124 4 -211 -60 -275c-37 -37 -95 -66 -182 -66c-71 0 -139 22 -185 68c-60 60 -58 136 -58 202v410h90v-420c0 -51 -2 -101 38 -141c27 -27 69 -42 118 -42s86 17 110 41c45 45 41 96 41 209v353h88v-339zM476 773c-23 -23 -64 -54 -108 -54
c-41 0 -72 25 -109 25c-24 0 -47 -15 -67 -28l-39 49c28 24 63 52 107 52c41 0 73 -25 109 -25c27 0 52 16 69 30z" />
    <glyph glyph-name="Ubreve" unicode="&#x16c;" horiz-adv-x="629" 
d="M557 328c0 -124 4 -211 -60 -275c-37 -37 -95 -66 -182 -66c-71 0 -139 22 -185 68c-60 60 -58 136 -58 202v410h90v-420c0 -51 -2 -101 38 -141c27 -27 69 -42 118 -42s86 17 110 41c45 45 41 96 41 209v353h88v-339zM454 862c-6 -83 -58 -135 -138 -135
s-133 52 -139 135h64c6 -42 31 -63 75 -63s68 21 74 63h64z" />
    <glyph glyph-name="Wacute" unicode="&#x1e82;" horiz-adv-x="894" 
d="M855 667l-162 -667h-108l-136 575l-141 -575h-108l-161 667h90l127 -574l142 574h107l139 -574l128 574h83zM573 801l-220 -85l-27 50l212 107z" />
    <glyph glyph-name="Wgrave" unicode="&#x1e80;" horiz-adv-x="894" 
d="M855 667l-162 -667h-108l-136 575l-141 -575h-108l-161 667h90l127 -574l142 574h107l139 -574l128 574h83zM573 766l-27 -50l-220 85l35 72z" />
    <glyph glyph-name="Wcircumflex" unicode="&#x174;" horiz-adv-x="894" 
d="M855 667l-162 -667h-108l-136 575l-141 -575h-108l-161 667h90l127 -574l142 574h107l139 -574l128 574h83zM608 763l-33 -47l-125 70l-126 -70l-33 49l159 108z" />
    <glyph glyph-name="Wdieresis" unicode="&#x1e84;" horiz-adv-x="894" 
d="M855 667l-162 -667h-108l-136 575l-141 -575h-108l-161 667h90l127 -574l142 574h107l139 -574l128 574h83zM586 775c0 -30 -24 -53 -54 -53s-53 23 -53 53s23 53 53 53s54 -23 54 -53zM420 775c0 -30 -24 -53 -54 -53s-53 23 -53 53s23 53 53 53s54 -23 54 -53z" />
    <glyph glyph-name="Ygrave" unicode="&#x1ef2;" horiz-adv-x="563" 
d="M537 667l-211 -403v-264h-89v264l-211 403h95l166 -325l164 325h86zM411 766l-27 -50l-220 85l35 72z" />
    <glyph glyph-name="Ycircumflex" unicode="&#x176;" horiz-adv-x="563" 
d="M537 667l-211 -403v-264h-89v264l-211 403h95l166 -325l164 325h86zM445 763l-33 -47l-125 70l-126 -70l-33 49l159 108z" />
    <glyph glyph-name="cdotaccent" unicode="&#x10b;" horiz-adv-x="475" 
d="M449 43c-3 -4 -72 -54 -172 -54c-139 0 -235 97 -235 245c0 154 103 263 246 263c91 0 149 -46 154 -52l-36 -55c-9 6 -51 35 -116 35c-99 0 -162 -84 -162 -183c0 -107 62 -179 157 -179c73 0 125 36 129 38zM341 623c0 -30 -24 -53 -54 -53s-53 23 -53 53s23 53 53 53
s54 -23 54 -53z" />
    <glyph glyph-name="ccircumflex" unicode="&#x109;" horiz-adv-x="475" 
d="M449 43c-3 -4 -72 -54 -172 -54c-139 0 -235 97 -235 245c0 154 103 263 246 263c91 0 149 -46 154 -52l-36 -55c-9 6 -51 35 -116 35c-99 0 -162 -84 -162 -183c0 -107 62 -179 157 -179c73 0 125 36 129 38zM447 594l-33 -47l-125 70l-126 -70l-33 49l159 108z" />
    <glyph glyph-name="aeacute" unicode="&#x1fd;" horiz-adv-x="804" 
d="M762 255c0 -10 -2 -27 -2 -36h-337c-1 -83 47 -158 152 -158c76 0 128 33 137 38l32 -58c-8 -6 -74 -52 -176 -52s-150 50 -165 66c-35 -30 -98 -66 -193 -66c-97 0 -168 53 -168 147c0 156 208 159 271 159h25v21c0 40 -1 66 -20 86c-13 14 -39 26 -84 26
c-72 0 -125 -34 -132 -38l-32 57c5 4 69 50 173 50c62 0 102 -17 129 -40c15 -13 23 -25 27 -33c8 10 59 73 164 73c122 0 199 -90 199 -242zM680 286c0 56 -26 143 -116 143c-76 0 -133 -56 -140 -143h256zM367 107c-5 8 -29 52 -27 123h-30c-88 0 -188 -11 -188 -93
c0 -51 47 -77 99 -77c68 0 121 28 146 47zM601 631l-220 -85l-27 50l212 107z" />
    <glyph glyph-name="aringacute" unicode="&#x1fb;" horiz-adv-x="479" 
d="M363 845l-220 -85l-27 50l212 107zM419 0h-76v36c-6 -3 -65 -46 -148 -46c-94 0 -156 61 -156 150c0 160 201 164 276 164h22v31c0 27 -1 49 -20 68s-50 25 -85 25c-71 0 -126 -34 -133 -38l-31 57c5 5 68 50 172 50c53 0 106 -15 140 -49c36 -36 39 -77 39 -144v-304z
M337 95v145h-25c-77 0 -139 -11 -170 -42c-15 -15 -22 -32 -22 -56c0 -49 35 -83 96 -83c60 0 110 31 121 36zM341 639c0 -56 -46 -102 -102 -102s-102 46 -102 102c0 57 47 101 102 101c57 0 102 -46 102 -101zM292 639c0 30 -24 53 -53 53s-53 -24 -53 -53s24 -53 53 -53
c30 0 53 24 53 53z" />
    <glyph glyph-name="ebreve" unicode="&#x115;" horiz-adv-x="508" 
d="M466 255c0 -10 -2 -27 -2 -36h-337c-1 -83 47 -158 152 -158c76 0 128 33 137 38l32 -58c-8 -6 -74 -52 -176 -52c-147 0 -230 106 -230 250c0 154 90 258 225 258c122 0 199 -90 199 -242zM384 286c0 56 -26 143 -116 143c-76 0 -133 -56 -140 -143h256zM405 692
c-6 -83 -58 -135 -138 -135s-133 52 -139 135h64c6 -42 31 -63 75 -63s68 21 74 63h64z" />
    <glyph glyph-name="gcircumflex" unicode="&#x11d;" horiz-adv-x="536" 
d="M469 -2c0 -79 -6 -128 -48 -170c-38 -38 -89 -57 -164 -57c-116 0 -188 57 -194 64l37 57c7 -4 67 -49 149 -49c53 0 83 14 103 33c30 28 32 63 32 126v35c-8 -5 -58 -38 -132 -38c-130 0 -210 106 -210 239c0 148 101 259 247 259c91 0 169 -40 180 -45v-454zM384 110
v295c-7 3 -44 20 -97 20c-94 0 -159 -73 -159 -184c0 -104 59 -171 139 -171c61 0 111 36 117 40zM449 594l-33 -47l-125 70l-126 -70l-33 49l159 108z" />
    <glyph glyph-name="gdotaccent" unicode="&#x121;" horiz-adv-x="536" 
d="M469 -2c0 -79 -6 -128 -48 -170c-38 -38 -89 -57 -164 -57c-116 0 -188 57 -194 64l37 57c7 -4 67 -49 149 -49c53 0 83 14 103 33c30 28 32 63 32 126v35c-8 -5 -58 -38 -132 -38c-130 0 -210 106 -210 239c0 148 101 259 247 259c91 0 169 -40 180 -45v-454zM384 110
v295c-7 3 -44 20 -97 20c-94 0 -159 -73 -159 -184c0 -104 59 -171 139 -171c61 0 111 36 117 40zM343 623c0 -30 -24 -53 -54 -53s-53 23 -53 53s23 53 53 53s54 -23 54 -53z" />
    <glyph glyph-name="hcircumflex" unicode="&#x125;" horiz-adv-x="519" 
d="M458 0h-85v275c0 61 -1 101 -26 126c-13 13 -38 24 -68 24c-62 0 -123 -39 -127 -42v-383h-85v721h85v-267c5 4 69 43 142 43c67 0 101 -27 116 -42c46 -46 48 -96 48 -174v-281zM269 831l-33 -47l-125 70l-126 -70l-33 49l159 108z" />
    <glyph glyph-name="hbar" unicode="&#x127;" horiz-adv-x="519" 
d="M301 571h-149v-117c5 4 69 43 142 43c67 0 101 -27 116 -42c46 -46 48 -96 48 -174v-281h-85v275c0 61 -1 101 -26 126c-13 13 -38 24 -68 24c-62 0 -123 -39 -127 -42v-383h-85v571h-85v70h85v80h85v-80h149v-70z" />
    <glyph glyph-name="itilde" unicode="&#x129;" horiz-adv-x="218" 
d="M152 0h-85v484h85v-484zM271 627c-23 -23 -64 -54 -108 -54c-41 0 -72 25 -109 25c-24 0 -47 -15 -67 -28l-39 49c28 24 63 52 107 52c41 0 73 -25 109 -25c27 0 52 16 69 30z" />
    <glyph glyph-name="ibreve" unicode="&#x12d;" horiz-adv-x="218" 
d="M152 0h-85v484h85v-484zM248 692c-6 -83 -58 -135 -138 -135s-133 52 -139 135h64c6 -42 31 -63 75 -63s68 21 74 63h64z" />
    <glyph glyph-name="jcircumflex" unicode="&#x135;" horiz-adv-x="218" 
d="M152 -45c0 -66 -8 -108 -44 -144c-28 -28 -72 -40 -112 -40c-42 0 -73 15 -79 18l21 63c9 -3 27 -10 50 -10c36 0 50 14 57 21c17 17 22 44 22 84v537h85v-529zM269 594l-33 -47l-125 70l-126 -70l-33 49l159 108z" />
    <glyph glyph-name="ldot" unicode="&#x140;" horiz-adv-x="458" 
d="M152 0h-85v721h85v-721zM391 346c0 -32 -25 -58 -57 -58s-58 26 -58 58s26 57 58 57s57 -25 57 -57z" />
    <glyph glyph-name="ycircumflex" unicode="&#x177;" horiz-adv-x="514" 
d="M489 484l-192 -508c-33 -86 -56 -127 -88 -159c-26 -26 -70 -46 -126 -46s-93 20 -98 22l24 64c7 -2 32 -14 70 -14c31 0 57 10 75 28c28 28 44 70 64 121l-201 492h92l154 -392l140 392h86zM416 594l-33 -47l-125 70l-126 -70l-33 49l159 108z" />
    <glyph glyph-name="ygrave" unicode="&#x1ef3;" horiz-adv-x="514" 
d="M489 484l-192 -508c-33 -86 -56 -127 -88 -159c-26 -26 -70 -46 -126 -46s-93 20 -98 22l24 64c7 -2 32 -14 70 -14c31 0 57 10 75 28c28 28 44 70 64 121l-201 492h92l154 -392l140 392h86zM387 596l-27 -50l-220 85l35 72z" />
    <glyph glyph-name="wdieresis" unicode="&#x1e85;" horiz-adv-x="753" 
d="M715 484l-139 -484h-96l-110 397l-110 -397h-94l-134 484h84l102 -395l109 395h94l108 -395l105 395h81zM507 623c0 -30 -24 -53 -54 -53s-53 23 -53 53s23 53 53 53s54 -23 54 -53zM341 623c0 -30 -24 -53 -54 -53s-53 23 -53 53s23 53 53 53s54 -23 54 -53z" />
    <glyph glyph-name="wcircumflex" unicode="&#x175;" horiz-adv-x="753" 
d="M715 484l-139 -484h-96l-110 397l-110 -397h-94l-134 484h84l102 -395l109 395h94l108 -395l105 395h81zM530 594l-33 -47l-125 70l-126 -70l-33 49l159 108z" />
    <glyph glyph-name="wgrave" unicode="&#x1e81;" horiz-adv-x="753" 
d="M715 484l-139 -484h-96l-110 397l-110 -397h-94l-134 484h84l102 -395l109 395h94l108 -395l105 395h81zM500 596l-27 -50l-220 85l35 72z" />
    <glyph glyph-name="wacute" unicode="&#x1e83;" horiz-adv-x="753" 
d="M715 484l-139 -484h-96l-110 397l-110 -397h-94l-134 484h84l102 -395l109 395h94l108 -395l105 395h81zM494 631l-220 -85l-27 50l212 107z" />
    <glyph glyph-name="ubreve" unicode="&#x16d;" horiz-adv-x="518" 
d="M451 0h-76v36c-8 -5 -69 -49 -151 -49c-50 0 -95 17 -118 40c-46 46 -46 98 -46 176v281h85v-275c0 -61 1 -101 26 -126c13 -13 38 -24 68 -24c62 0 123 39 127 42v383h85v-484zM395 692c-6 -83 -58 -135 -138 -135s-133 52 -139 135h64c6 -42 31 -63 75 -63s68 21 74 63
h64z" />
    <glyph glyph-name="utilde" unicode="&#x169;" horiz-adv-x="518" 
d="M451 0h-76v36c-8 -5 -69 -49 -151 -49c-50 0 -95 17 -118 40c-46 46 -46 98 -46 176v281h85v-275c0 -61 1 -101 26 -126c13 -13 38 -24 68 -24c62 0 123 39 127 42v383h85v-484zM417 627c-23 -23 -64 -54 -108 -54c-41 0 -72 25 -109 25c-24 0 -47 -15 -67 -28l-39 49
c28 24 63 52 107 52c41 0 73 -25 109 -25c27 0 52 16 69 30z" />
    <glyph glyph-name="tbar" unicode="&#x167;" horiz-adv-x="372" 
d="M340 247h-149v-94c0 -49 2 -92 71 -92c39 0 63 12 67 13l22 -60c-6 -3 -44 -26 -104 -26c-44 0 -83 11 -109 37c-35 35 -32 84 -32 142v80h-85v64h85v103h-85v70h85v136h85v-136h149v-70h-149v-103h149v-64z" />
    <glyph glyph-name="scircumflex" unicode="&#x15d;" horiz-adv-x="413" 
d="M373 135c0 -94 -82 -148 -177 -148c-96 0 -160 43 -166 48l32 59c10 -6 59 -37 129 -37c52 0 93 29 93 72c0 99 -239 77 -239 231c0 82 70 137 169 137c94 0 148 -39 153 -43l-32 -57c-6 4 -56 33 -115 33s-89 -29 -89 -65c0 -93 242 -76 242 -230zM373 594l-33 -47
l-125 70l-126 -70l-33 49l159 108z" />
    <glyph glyph-name="oslashacute" unicode="&#x1ff;" horiz-adv-x="540" 
d="M396 631l-220 -85l-27 50l212 107zM498 242c0 -152 -91 -253 -231 -253c-57 0 -89 17 -89 17l-40 -65l-56 32l40 67c-51 44 -80 115 -80 202c0 152 91 255 232 255c61 0 97 -20 102 -23l40 65l56 -34l-44 -69c50 -46 70 -122 70 -194zM413 241c0 80 -26 114 -29 118
l-168 -287s19 -12 56 -12c90 0 141 71 141 181zM338 407c-6 4 -27 20 -69 20c-87 0 -142 -73 -142 -182c0 -87 39 -133 39 -133z" />
    <glyph glyph-name="obreve" unicode="&#x14f;" horiz-adv-x="540" 
d="M498 242c0 -152 -91 -253 -231 -253c-135 0 -225 100 -225 253c0 152 91 255 232 255c135 0 224 -100 224 -255zM413 241c0 111 -61 186 -144 186c-87 0 -142 -73 -142 -182c0 -111 62 -185 145 -185c90 0 141 71 141 181zM413 692c-6 -83 -58 -135 -138 -135
s-133 52 -139 135h64c6 -42 31 -63 75 -63s68 21 74 63h64z" />
    <glyph glyph-name="Aringacutesmall" horiz-adv-x="518" 
d="M370 864l-220 -85l-27 50l212 107zM507 0h-92l-49 132h-219l-49 -132h-87l203 520h89zM340 200l-84 227l-85 -227h169zM352 670c0 -56 -46 -102 -102 -102s-102 46 -102 102c0 57 47 101 102 101c57 0 102 -46 102 -101zM303 670c0 30 -24 53 -53 53s-53 -24 -53 -53
s24 -53 53 -53c30 0 53 24 53 53z" />
    <glyph glyph-name="AEacutesmall" unicode="&#xf670;" horiz-adv-x="731" 
d="M681 0h-316v133h-184l-79 -133h-91l321 520h343v-69h-225v-147h212v-68h-212v-166h231v-70zM365 201v248l-146 -248h146zM628 644l-220 -85l-27 50l212 107z" />
    <glyph glyph-name="Ccircumflexsmall" unicode="&#xf672;" horiz-adv-x="509" 
d="M489 49c-11 -12 -77 -60 -184 -60c-144 0 -258 99 -258 266c0 174 121 275 268 275c98 0 157 -42 169 -54l-37 -59c-20 12 -61 39 -128 39c-102 0 -181 -73 -181 -195c0 -121 65 -197 175 -197c76 0 129 37 139 43zM473 606l-33 -47l-125 70l-126 -70l-33 49l159 108z
" />
    <glyph glyph-name="Cdotaccentsmall" unicode="&#xf674;" horiz-adv-x="509" 
d="M489 49c-11 -12 -77 -60 -184 -60c-144 0 -258 99 -258 266c0 174 121 275 268 275c98 0 157 -42 169 -54l-37 -59c-20 12 -61 39 -128 39c-102 0 -181 -73 -181 -195c0 -121 65 -197 175 -197c76 0 129 37 139 43zM367 635c0 -30 -24 -53 -54 -53s-53 23 -53 53
s23 53 53 53s54 -23 54 -53z" />
    <glyph glyph-name="Engsmall" unicode="&#xf67b;" horiz-adv-x="548" 
d="M481 520v-599c0 -40 -9 -78 -39 -107c-23 -22 -57 -34 -97 -34c-63 0 -106 27 -116 35l31 60c14 -8 40 -21 67 -21c21 0 37 7 47 16c21 20 20 53 20 84v52l-242 379l2 -385h-81v520h83l246 -386l-2 386h81z" />
    <glyph glyph-name="Ncommaaccentsmall" unicode="&#xf690;" horiz-adv-x="548" 
d="M481 0h-83l-246 385l2 -385h-81v520h83l246 -386l-2 386h81v-520zM324 -68c0 -127 -91 -202 -105 -215l-52 44c16 19 64 69 64 171h93z" />
    <glyph glyph-name="Obrevesmall" unicode="&#xf691;" horiz-adv-x="609" 
d="M445 703c-6 -83 -58 -135 -138 -135s-133 52 -139 135h64c6 -42 31 -63 75 -63s68 21 74 63h64zM562 263c0 -161 -105 -273 -259 -273c-149 0 -256 112 -256 269c0 160 106 271 260 271c151 0 255 -110 255 -267zM472 265c0 117 -71 193 -170 193s-165 -76 -165 -197
c0 -119 73 -198 169 -198c109 0 166 85 166 202z" />
    <glyph glyph-name="Ycircumflexsmall" unicode="&#xf6a9;" horiz-adv-x="484" 
d="M463 520l-178 -313v-207h-87v207l-177 313h93l132 -241l132 241h85zM402 606l-33 -47l-125 70l-126 -70l-33 49l159 108z" />
    <glyph glyph-name="Ygravesmall" unicode="&#xf6aa;" horiz-adv-x="484" 
d="M463 520l-178 -313v-207h-87v207l-177 313h93l132 -241l132 241h85zM370 609l-27 -50l-220 85l35 72z" />
    <glyph glyph-name="Ldotsmall" unicode="&#xf68d;" horiz-adv-x="417" 
d="M384 0h-311v520h87v-448h224v-72zM326 272c0 -30 -24 -53 -54 -53s-53 23 -53 53s23 53 53 53s54 -23 54 -53z" />
    <glyph glyph-name="Wdieresissmall" unicode="&#xf6a7;" horiz-adv-x="766" 
d="M730 520l-138 -520h-101l-107 414l-111 -414h-100l-137 520h90l99 -413l112 413h99l109 -412l101 412h84zM521 635c0 -30 -24 -53 -54 -53s-53 23 -53 53s23 53 53 53s54 -23 54 -53zM355 635c0 -30 -24 -53 -54 -53s-53 23 -53 53s23 53 53 53s54 -23 54 -53z" />
    <glyph glyph-name="Wgravesmall" unicode="&#xf6a8;" horiz-adv-x="766" 
d="M730 520l-138 -520h-101l-107 414l-111 -414h-100l-137 520h90l99 -413l112 413h99l109 -412l101 412h84zM508 609l-27 -50l-220 85l35 72z" />
    <glyph glyph-name="Wcircumflexsmall" unicode="&#xf6a6;" horiz-adv-x="766" 
d="M730 520l-138 -520h-101l-107 414l-111 -414h-100l-137 520h90l99 -413l112 413h99l109 -412l101 412h84zM544 606l-33 -47l-125 70l-126 -70l-33 49l159 108z" />
    <glyph glyph-name="Lcommaaccentsmall" unicode="&#xf68c;" horiz-adv-x="417" 
d="M384 0h-311v520h87v-448h224v-72zM284 -68c0 -127 -91 -202 -105 -215l-52 44c16 19 64 69 64 171h93z" />
    <glyph glyph-name="Wacutesmall" unicode="&#xf6a5;" horiz-adv-x="766" 
d="M730 520l-138 -520h-101l-107 414l-111 -414h-100l-137 520h90l99 -413l112 413h99l109 -412l101 412h84zM508 631l-220 -85l-27 50l212 107z" />
    <glyph glyph-name="Kcommaaccentsmall" unicode="&#xf689;" horiz-adv-x="492" 
d="M483 0h-108l-215 243v-243h-87v520h87v-242l213 242h97l-226 -254zM304 -68c0 -127 -91 -202 -105 -215l-52 44c16 19 64 69 64 171h93z" />
    <glyph glyph-name="Jcircumflexsmall" unicode="&#xf688;" horiz-adv-x="327" 
d="M261 131c-1 -40 -9 -78 -39 -107c-23 -22 -57 -34 -97 -34c-63 0 -106 27 -116 35l31 60c14 -8 40 -21 67 -21c21 0 37 7 47 16c21 20 20 53 20 84v356h87v-352v-37zM376 606l-33 -47l-125 70l-126 -70l-33 49l159 108z" />
    <glyph glyph-name="Ubrevesmall" unicode="&#xf69f;" horiz-adv-x="542" 
d="M476 243c0 -104 -6 -155 -49 -198c-33 -33 -83 -55 -156 -55c-61 0 -119 17 -156 54c-51 51 -49 97 -49 158v318h88v-325c0 -37 0 -74 29 -102c21 -20 54 -30 91 -30c35 0 65 11 83 28c28 27 31 57 32 93v57v279h87v-277zM410 703c-6 -83 -58 -135 -138 -135
s-133 52 -139 135h64c6 -42 31 -63 75 -63s68 21 74 63h64z" />
    <glyph glyph-name="Utildesmall" unicode="&#xf6a4;" horiz-adv-x="542" 
d="M431 627c-23 -23 -64 -54 -108 -54c-41 0 -72 25 -109 25c-24 0 -47 -15 -67 -28l-39 49c28 24 63 52 107 52c41 0 73 -25 109 -25c27 0 52 16 69 30zM476 243c0 -104 -6 -155 -49 -198c-33 -33 -83 -55 -156 -55c-61 0 -119 17 -156 54c-51 51 -49 97 -49 158v318h88
v-325c0 -37 0 -74 29 -102c21 -20 54 -30 91 -30c35 0 65 11 83 28c28 27 31 57 32 93v57v279h87v-277z" />
    <glyph glyph-name="Idotaccentsmall" unicode="&#xf6ad;" horiz-adv-x="233" 
d="M171 635c0 -30 -24 -53 -54 -53s-53 23 -53 53s23 53 53 53s54 -23 54 -53zM160 0h-87v520h87v-520z" />
    <glyph glyph-name="Ibrevesmall" unicode="&#xf683;" horiz-adv-x="233" 
d="M255 703c-6 -83 -58 -135 -138 -135s-133 52 -139 135h64c6 -42 31 -63 75 -63s68 21 74 63h64zM160 0h-87v520h87v-520z" />
    <glyph glyph-name="Itildesmall" unicode="&#xf687;" horiz-adv-x="233" 
d="M278 627c-23 -23 -64 -54 -108 -54c-41 0 -72 25 -109 25c-24 0 -47 -15 -67 -28l-39 49c28 24 63 52 107 52c41 0 73 -25 109 -25c27 0 52 16 69 30zM160 0h-87v520h87v-520z" />
    <glyph glyph-name="Tbarsmall" unicode="&#xf69c;" horiz-adv-x="463" 
d="M88 237v70h100v143h-160v70h407v-70h-159v-143h100v-70h-100v-237h-88v237h-100z" />
    <glyph glyph-name="Tcommaaccentsmall" unicode="&#xf69e;" horiz-adv-x="463" 
d="M435 450h-159v-450h-88v450h-160v70h407v-70zM279 -68c0 -127 -91 -202 -105 -215l-52 44c16 19 64 69 64 171h93z" />
    <glyph glyph-name="Hbarsmall" unicode="&#xf681;" horiz-adv-x="555" 
d="M-7 382v66h80v72h87v-72h235v72h87v-72h80v-66h-80v-382h-87v236h-235v-236h-87v382h-80zM160 308h235v74h-235v-74z" />
    <glyph glyph-name="Hcircumflexsmall" unicode="&#xf682;" horiz-adv-x="555" 
d="M482 0h-87v236h-235v-236h-87v520h87v-212h235v212h87v-520zM435 606l-33 -47l-125 70l-126 -70l-33 49l159 108z" />
    <glyph glyph-name="Gcommaaccentsmall" unicode="&#xf67f;" horiz-adv-x="553" 
d="M496 41c-8 -6 -75 -52 -189 -52c-146 0 -260 99 -260 267c0 174 120 275 268 275c99 0 157 -40 170 -53l-37 -58c-9 6 -56 37 -129 37c-103 0 -185 -73 -185 -195c0 -121 69 -199 181 -199c32 0 69 4 98 19v114h-112v69h195v-224zM354 -68c0 -127 -91 -202 -105 -215
l-52 44c16 19 64 69 64 171h93z" />
    <glyph glyph-name="Gdotaccentsmall" unicode="&#xf680;" horiz-adv-x="553" 
d="M496 41c-8 -6 -75 -52 -189 -52c-146 0 -260 99 -260 267c0 174 120 275 268 275c99 0 157 -40 170 -53l-37 -58c-9 6 -56 37 -129 37c-103 0 -185 -73 -185 -195c0 -121 69 -199 181 -199c32 0 69 4 98 19v114h-112v69h195v-224zM369 635c0 -30 -24 -53 -54 -53
s-53 23 -53 53s23 53 53 53s54 -23 54 -53z" />
    <glyph glyph-name="Gcircumflexsmall" unicode="&#xf67e;" horiz-adv-x="553" 
d="M496 41c-8 -6 -75 -52 -189 -52c-146 0 -260 99 -260 267c0 174 120 275 268 275c99 0 157 -40 170 -53l-37 -58c-9 6 -56 37 -129 37c-103 0 -185 -73 -185 -195c0 -121 69 -199 181 -199c32 0 69 4 98 19v114h-112v69h195v-224zM473 606l-33 -47l-125 70l-126 -70
l-33 49l159 108z" />
    <glyph glyph-name="Scircumflexsmall" unicode="&#xf69a;" horiz-adv-x="441" 
d="M390 147c0 -89 -66 -158 -181 -158c-93 0 -163 50 -173 62l42 57c11 -8 61 -46 128 -46c64 0 95 36 95 77c0 103 -246 91 -246 247c0 86 71 145 172 145s152 -49 162 -60l-44 -54c-32 24 -70 41 -113 41c-57 0 -90 -27 -90 -66c0 -41 41 -57 102 -87
c57 -28 146 -71 146 -158zM385 606l-33 -47l-125 70l-126 -70l-33 49l159 108z" />
    <glyph glyph-name="Rcommaaccentsmall" unicode="&#xf697;" horiz-adv-x="481" 
d="M458 0h-91l-64 135c-36 77 -52 83 -122 83h-22v-218h-86v520h122c61 0 129 4 177 -44c32 -32 44 -66 44 -104c0 -36 -13 -67 -36 -90c-18 -18 -41 -32 -82 -38c50 -4 69 -55 86 -90zM330 372c0 28 -10 44 -22 56c-27 27 -68 25 -104 25h-45v-169h26c49 0 93 2 122 31
c15 15 23 35 23 57zM299 -68c0 -127 -91 -202 -105 -215l-52 44c16 19 64 69 64 171h93z" />
    <glyph glyph-name="Ebrevesmall" unicode="&#xf677;" horiz-adv-x="442" 
d="M367 703c-6 -83 -58 -135 -138 -135s-133 52 -139 135h64c6 -42 31 -63 75 -63s68 21 74 63h64zM392 0h-319v520h312v-70h-226v-145h213v-69h-213v-164h233v-72z" />
    <glyph glyph-name="Oslashacutesmall" unicode="&#xf694;" horiz-adv-x="609" 
d="M423 644l-220 -85l-27 50l212 107zM562 263c0 -161 -105 -273 -259 -273c-46 0 -77 10 -106 21l-43 -70l-58 34l43 72c-58 48 -92 123 -92 212c0 160 106 271 260 271c40 0 77 -7 110 -22l41 68l59 -35l-42 -70c55 -49 87 -121 87 -208zM472 265c0 54 -15 100 -41 133
l-195 -320c15 -9 50 -15 70 -15c109 0 166 85 166 202zM378 442c-8 5 -37 16 -76 16c-99 0 -165 -76 -165 -197c0 -81 32 -126 46 -141z" />
    <glyph glyph-name="uni021A" unicode="&#x21a;" horiz-adv-x="541" 
d="M511 593h-195v-593h-90v593h-196v74h481v-74zM318 -68c0 -127 -91 -202 -105 -215l-52 44c16 19 64 69 64 171h93z" />
    <glyph glyph-name="uni021B" unicode="&#x21b;" horiz-adv-x="372" 
d="M351 14c-6 -3 -44 -26 -104 -26c-44 0 -83 11 -109 37c-35 35 -32 84 -32 142v247h-85v70h85v136h85v-136h149v-70h-149v-261c0 -49 2 -92 71 -92c39 0 63 12 67 13zM206 -68c0 -127 -91 -202 -105 -215l-52 44c16 19 64 69 64 171h93z" />
    <glyph glyph-name="afii10017" unicode="&#x410;" horiz-adv-x="607" 
d="M594 0h-94l-61 174h-275l-61 -174h-90l242 667h95zM414 247l-113 325l-112 -325h225z" />
    <glyph glyph-name="afii10018" unicode="&#x411;" horiz-adv-x="571" 
d="M253 0h-172v667h371v-74h-281v-191h63c97 0 176 -2 235 -65c24 -26 48 -72 48 -139c0 -57 -18 -108 -52 -143c-51 -53 -128 -55 -212 -55zM426 197c0 122 -88 131 -194 131h-61v-254h67c69 0 188 -9 188 123z" />
    <glyph glyph-name="afii10019" unicode="&#x412;" horiz-adv-x="571" 
d="M517 193c0 -53 -18 -99 -50 -131c-64 -64 -148 -62 -268 -62h-118v667h184c68 0 131 -3 179 -51c36 -36 52 -78 52 -128c0 -104 -76 -141 -107 -146c67 -10 128 -55 128 -149zM406 486c0 30 -9 56 -26 74c-36 39 -99 36 -154 36h-58v-224h51c55 0 118 2 156 37
c20 18 31 43 31 77zM426 191c0 26 -8 53 -30 75c-40 40 -105 37 -173 37h-55v-230h74c78 0 119 6 155 42c19 19 29 50 29 76z" />
    <glyph glyph-name="afii10020" unicode="&#x413;" horiz-adv-x="478" 
d="M81 0v667h367v-74h-277v-593h-90z" />
    <glyph glyph-name="afii10021" unicode="&#x414;" horiz-adv-x="670" 
d="M48 -123v200c24 1 41 7 54 20c18 17 29 40 41 93l110 477h308v-590h59v-200h-86v125h-400v-125h-86zM177 77h294v516h-145l-91 -399c-13 -55 -29 -104 -58 -117z" />
    <glyph glyph-name="afii10022" unicode="&#x415;" horiz-adv-x="509" 
d="M458 0h-377v667h369v-74h-281v-210h264v-72h-264v-235h289v-76z" />
    <glyph glyph-name="afii10024" unicode="&#x416;" horiz-adv-x="881" 
d="M486 316v-316h-89v316l-276 -316h-109l295 339l-286 328h105l271 -313v313h89v-313l269 313h100l-283 -326l297 -341h-109z" />
    <glyph glyph-name="afii10025" unicode="&#x417;" horiz-adv-x="532" 
d="M480 188c0 -124 -103 -201 -244 -201c-143 0 -204 61 -212 70l43 59c6 -4 62 -53 158 -53c100 0 164 47 164 122c0 114 -114 120 -200 120h-25v74h26c60 0 116 1 159 43c19 19 29 43 29 73c0 63 -54 110 -137 110c-92 0 -153 -52 -159 -58l-44 56c3 4 76 78 211 78
c130 0 217 -74 217 -181c0 -70 -45 -145 -126 -156c88 -9 140 -70 140 -156z" />
    <glyph glyph-name="afii10026" unicode="&#x418;" horiz-adv-x="646" 
d="M484 534l-315 -534h-88v667h82l-1 -534l315 534h88v-667h-82z" />
    <glyph glyph-name="afii10027" unicode="&#x419;" horiz-adv-x="646" 
d="M169 0l315 534l-1 -534h82v667h-88l-315 -534l1 534h-82v-667h88zM460 864c0 -83 -58 -133 -138 -133s-138 50 -139 133h64c1 -42 31 -65 75 -65s74 23 74 65h64z" />
    <glyph glyph-name="afii10028" unicode="&#x41a;" horiz-adv-x="565" 
d="M553 0h-109l-274 316v-316h-89v667h89v-313l269 313h100l-283 -326z" />
    <glyph glyph-name="afii10029" unicode="&#x41b;" horiz-adv-x="638" 
d="M557 0h-90v593h-163l-97 -434c-25 -112 -58 -166 -194 -166v72c72 0 90 35 109 120l109 482h326v-667z" />
    <glyph glyph-name="afii10030" unicode="&#x41c;" horiz-adv-x="871" 
d="M801 0h-88l-55 539l-189 -539h-74l-193 539l-51 -539h-81l71 667h99l197 -545l191 545h99z" />
    <glyph glyph-name="afii10031" unicode="&#x41d;" horiz-adv-x="648" 
d="M567 0h-90v311h-306v-311h-90v667h90v-280h306v280h90v-667z" />
    <glyph glyph-name="afii10032" unicode="&#x41e;" horiz-adv-x="714" 
d="M662 337c0 -208 -125 -350 -307 -350c-176 0 -303 143 -303 345c0 206 126 348 308 348c178 0 302 -142 302 -343zM570 340c0 159 -89 264 -216 264s-210 -107 -210 -270c0 -162 93 -270 215 -270c139 0 211 119 211 276z" />
    <glyph glyph-name="afii10033" unicode="&#x41f;" horiz-adv-x="648" 
d="M567 0h-90v593h-306v-593h-90v667h486v-667z" />
    <glyph glyph-name="afii10034" unicode="&#x420;" horiz-adv-x="558" 
d="M506 470c0 -54 -17 -107 -55 -145c-64 -64 -137 -60 -234 -60h-47v-265h-89v667h167c82 0 152 -4 202 -54c37 -37 56 -88 56 -143zM416 471c0 36 -13 71 -37 95c-31 31 -85 30 -138 30h-71v-258h45c71 0 127 -2 163 34c23 23 38 51 38 99z" />
    <glyph glyph-name="afii10035" unicode="&#x421;" horiz-adv-x="620" 
d="M596 57c-7 -8 -89 -70 -224 -70c-179 0 -320 126 -320 341c0 223 149 353 333 353c132 0 197 -54 205 -62l-39 -62c-8 5 -67 45 -161 45c-136 0 -246 -99 -246 -266c0 -163 92 -269 239 -269c96 0 167 48 174 52z" />
    <glyph glyph-name="afii10036" unicode="&#x422;" horiz-adv-x="541" 
d="M511 593h-195v-593h-90v593h-196v74h481v-74z" />
    <glyph glyph-name="afii10037" unicode="&#x423;" horiz-adv-x="588" 
d="M565 667l-205 -440c-71 -146 -97 -233 -234 -233c-56 0 -95 20 -99 22l24 64c7 -2 33 -13 71 -13c80 0 107 72 151 167l-219 433h95l170 -344l158 344h88z" />
    <glyph glyph-name="afii10038" unicode="&#x424;" horiz-adv-x="701" 
d="M653 334c0 -155 -105 -250 -263 -259v-75h-80v75c-157 6 -262 102 -262 261c0 151 102 248 262 256v75h80v-75c157 -7 263 -101 263 -258zM135 334c0 -121 75 -185 175 -191v383c-104 -6 -175 -71 -175 -192zM567 332c0 125 -76 185 -177 194v-383c112 7 177 69 177 189z
" />
    <glyph glyph-name="afii10039" unicode="&#x425;" horiz-adv-x="581" 
d="M554 0h-99l-167 276l-166 -276h-95l214 346l-200 321h101l150 -253l151 253h94l-199 -321z" />
    <glyph glyph-name="afii10040" unicode="&#x426;" horiz-adv-x="676" 
d="M540 0h-459v667h90v-591h306v591h90v-591h59v-199h-86v123z" />
    <glyph glyph-name="afii10041" unicode="&#x427;" horiz-adv-x="637" 
d="M312 270c-73 0 -136 21 -182 68c-50 50 -59 107 -59 214v115h89v-137c0 -50 0 -102 39 -140c27 -27 68 -42 119 -42c97 0 143 36 148 39v280h90v-667h-90v305c-9 -5 -65 -35 -154 -35z" />
    <glyph glyph-name="afii10042" unicode="&#x428;" horiz-adv-x="838" 
d="M757 0h-676v667h90v-591h200v591h90v-591h206v591h90v-667z" />
    <glyph glyph-name="afii10043" unicode="&#x429;" horiz-adv-x="866" 
d="M730 0h-649v667h90v-591h200v591h90v-591h206v591h90v-591h59v-199h-86v123z" />
    <glyph glyph-name="afii10044" unicode="&#x42a;" horiz-adv-x="694" 
d="M551 197c0 122 -88 131 -194 131h-61v-254h67c69 0 188 -9 188 123zM378 0h-172v593h-176v74h266v-265h63c97 0 176 -2 235 -65c24 -26 48 -72 48 -139c0 -57 -18 -108 -52 -143c-51 -53 -128 -55 -212 -55z" />
    <glyph glyph-name="afii10045" unicode="&#x42b;" horiz-adv-x="786" 
d="M705 0h-90v667h90v-667zM426 197c0 -132 -119 -123 -188 -123h-67v254h61c106 0 194 -9 194 -131zM81 0h172c84 0 161 2 212 55c34 35 52 86 52 143c0 67 -24 113 -48 139c-59 63 -138 65 -235 65h-63v265h-90v-667z" />
    <glyph glyph-name="afii10046" unicode="&#x42c;" horiz-adv-x="569" 
d="M426 197c0 122 -88 131 -194 131h-61v-254h67c69 0 188 -9 188 123zM253 0h-172v667h90v-265h63c97 0 176 -2 235 -65c24 -26 48 -72 48 -139c0 -57 -18 -108 -52 -143c-51 -53 -128 -55 -212 -55z" />
    <glyph glyph-name="afii10047" unicode="&#x42d;" horiz-adv-x="621" 
d="M24 57l40 62c6 -3 77 -52 173 -52c139 0 226 95 238 233h-320v72h320c-13 137 -110 230 -242 230c-95 0 -153 -41 -160 -46l-40 63c10 9 77 62 205 62c185 0 331 -130 331 -353c0 -215 -141 -341 -321 -341c-134 0 -216 62 -224 70z" />
    <glyph glyph-name="afii10048" unicode="&#x42e;" horiz-adv-x="974" 
d="M922 337c0 -208 -125 -350 -307 -350c-170 0 -294 133 -303 324h-141v-311h-90v667h90v-280h144c20 176 139 293 305 293c178 0 302 -142 302 -343zM830 340c0 159 -89 264 -216 264s-210 -107 -210 -270c0 -162 93 -270 215 -270c139 0 211 119 211 276z" />
    <glyph glyph-name="afii10049" unicode="&#x42f;" horiz-adv-x="569" 
d="M164 481c0 -110 95 -124 193 -124h43v239h-69c-73 0 -167 -2 -167 -115zM201 174l-78 -174h-97l93 207c32 72 54 102 103 106c-92 15 -147 80 -147 170c0 53 20 98 53 131c54 54 122 53 211 53h149v-667h-88v286h-41c-90 0 -112 -8 -158 -112z" />
    <glyph glyph-name="afii10050" unicode="&#x490;" horiz-adv-x="478" 
d="M364 667v125h84v-199h-277v-593h-90v667h283z" />
    <glyph glyph-name="afii10055" unicode="&#x406;" horiz-adv-x="252" 
d="M171 0h-90v667h90v-667z" />
    <glyph glyph-name="afii10051" unicode="&#x402;" horiz-adv-x="701" 
d="M634 132c0 -270 -41 -362 -215 -362c-33 0 -67 9 -80 16l20 67c14 -5 37 -8 54 -8c118 0 129 81 129 280c0 119 -11 164 -30 188c-18 24 -46 33 -85 33c-68 0 -128 -33 -146 -45v-301h-90v593h-161v74h426v-74h-175v-213c38 21 93 44 158 44c71 0 116 -20 145 -53
c27 -32 50 -89 50 -239z" />
    <glyph glyph-name="afii10099" unicode="&#x452;" horiz-adv-x="558" 
d="M497 -45c0 -66 -8 -108 -44 -144c-28 -28 -72 -40 -112 -40c-42 0 -73 15 -79 18l21 63c9 -3 27 -10 50 -10c36 0 50 14 57 21c17 17 22 44 22 84v328c0 61 -1 101 -26 126c-13 13 -38 24 -68 24c-62 0 -123 -39 -127 -42v-383h-85v577h-85v70h85v74h85v-74h156v-70h-156
v-123c5 4 69 43 142 43c67 0 101 -27 116 -42c46 -46 48 -96 48 -174v-326z" />
    <glyph glyph-name="afii10052" unicode="&#x403;" horiz-adv-x="478" 
d="M81 667h367v-74h-277v-593h-90v667zM391 801l-220 -85l-27 50l212 107z" />
    <glyph glyph-name="afii10100" unicode="&#x453;" horiz-adv-x="401" 
d="M351 631l-220 -85l-27 50l212 107zM152 0h-85v484h320v-70h-235v-414z" />
    <glyph glyph-name="afii10103" unicode="&#x456;" horiz-adv-x="218" 
d="M161 638c0 -29 -23 -52 -52 -52s-52 23 -52 52s23 52 52 52s52 -23 52 -52zM152 0h-85v484h85v-484z" />
    <glyph glyph-name="afii10098" unicode="&#x491;" horiz-adv-x="401" 
d="M67 484h241v125h79v-195h-235v-414h-85v484z" />
    <glyph glyph-name="afii10057" unicode="&#x408;" horiz-adv-x="376" 
d="M303 212c0 -64 3 -133 -46 -182c-26 -26 -67 -43 -116 -43c-77 0 -128 36 -133 40l32 64c18 -10 52 -26 87 -26c28 0 46 7 59 19c28 26 27 70 27 110v473h90v-455z" />
    <glyph glyph-name="afii10053" unicode="&#x404;" horiz-adv-x="620" 
d="M596 57c-7 -8 -89 -70 -224 -70c-179 0 -320 126 -320 341c0 223 149 353 333 353c128 0 196 -53 205 -62l-39 -63c-8 5 -66 46 -161 46c-132 0 -231 -93 -244 -230h320v-72h-320c11 -138 99 -233 237 -233c97 0 167 49 174 52z" />
    <glyph glyph-name="afii10101" unicode="&#x454;" horiz-adv-x="475" 
d="M449 43c-3 -4 -72 -54 -172 -54c-139 0 -235 97 -235 245c0 154 103 263 246 263c91 0 149 -46 154 -52l-36 -55c-9 6 -51 35 -116 35c-87 0 -146 -65 -159 -147h228v-65h-230c11 -91 70 -150 156 -150c73 0 125 36 129 38z" />
    <glyph glyph-name="afii10056" unicode="&#x407;" horiz-adv-x="252" 
d="M171 0h-90v667h90v-667zM262 775c0 -30 -24 -53 -54 -53s-53 23 -53 53s23 53 53 53s54 -23 54 -53zM96 775c0 -30 -24 -53 -54 -53s-53 23 -53 53s23 53 53 53s54 -23 54 -53z" />
    <glyph glyph-name="afii10104" unicode="&#x457;" horiz-adv-x="218" 
d="M152 0h-85v484h85v-484zM246 623c0 -30 -24 -53 -54 -53s-53 23 -53 53s23 53 53 53s54 -23 54 -53zM80 623c0 -30 -24 -53 -54 -53s-53 23 -53 53s23 53 53 53s54 -23 54 -53z" />
    <glyph glyph-name="afii10058" unicode="&#x409;" horiz-adv-x="955" 
d="M467 0v593h-163l-97 -434c-25 -112 -58 -166 -194 -166v72c72 0 90 35 109 120l109 482h326v-280h69c97 0 177 -3 230 -58c25 -26 47 -68 47 -132c0 -56 -18 -107 -52 -142c-51 -53 -128 -55 -212 -55h-172zM812 195c0 116 -92 117 -185 117h-70v-238h67
c88 0 188 0 188 121z" />
    <glyph glyph-name="afii10106" unicode="&#x459;" horiz-adv-x="749" 
d="M632 142c0 80 -55 77 -143 77h-54v-150h76c69 0 119 0 121 73zM435 484v-196h72c96 0 210 -3 210 -147c0 -117 -83 -141 -192 -141h-174v414h-131l-70 -303c-19 -85 -52 -117 -153 -118v67c49 0 65 16 78 76l80 348h280z" />
    <glyph glyph-name="afii10059" unicode="&#x40a;" horiz-adv-x="965" 
d="M822 195c0 116 -92 117 -185 117h-70v-238h67c88 0 188 0 188 121zM913 197c0 -56 -18 -107 -52 -142c-51 -53 -128 -55 -212 -55h-172v312h-306v-312h-90v667h90v-280h306v280h90v-280h69c97 0 177 -3 230 -58c25 -26 47 -68 47 -132z" />
    <glyph glyph-name="afii10107" unicode="&#x45a;" horiz-adv-x="771" 
d="M654 142c0 80 -55 77 -143 77h-54v-150h76c69 0 119 0 121 73zM547 0h-174v217h-221v-217h-85v484h85v-196h221v196h84v-196h72c96 0 210 -3 210 -147c0 -117 -83 -141 -192 -141z" />
    <glyph glyph-name="afii10105" unicode="&#x458;" horiz-adv-x="218" 
d="M161 638c0 -29 -23 -52 -52 -52s-52 23 -52 52s23 52 52 52s52 -23 52 -52zM152 -45c0 -66 -8 -108 -44 -144c-28 -28 -72 -40 -112 -40c-42 0 -73 15 -79 18l21 63c9 -3 27 -10 50 -10c36 0 50 14 57 21c17 17 22 44 22 84v537h85v-529z" />
    <glyph glyph-name="afii10054" unicode="&#x405;" horiz-adv-x="524" 
d="M467 181c0 -110 -81 -195 -219 -195c-118 0 -197 64 -205 72l43 62c12 -8 77 -57 158 -57c82 0 130 49 130 110c0 73 -85 109 -157 144c-85 41 -155 85 -155 183c0 106 86 180 209 180s184 -61 190 -68l-45 -58c-8 7 -61 50 -139 50c-73 0 -125 -36 -125 -96
c0 -63 59 -83 125 -117c59 -30 190 -79 190 -210z" />
    <glyph glyph-name="afii10060" unicode="&#x40b;" horiz-adv-x="687" 
d="M281 0h-90v593h-161v74h426v-74h-175v-207c10 5 62 38 156 38c140 0 189 -77 189 -190v-234h-88v213c0 75 -16 133 -112 133c-87 0 -135 -35 -145 -42v-304z" />
    <glyph glyph-name="afii10108" unicode="&#x45b;" horiz-adv-x="558" 
d="M497 0h-85v275c0 61 -1 101 -26 126c-13 13 -38 24 -68 24c-62 0 -123 -39 -127 -42v-383h-85v577h-85v70h85v74h85v-74h156v-70h-156v-123c5 4 69 43 142 43c67 0 101 -27 116 -42c46 -46 48 -96 48 -174v-281z" />
    <glyph glyph-name="afii10061" unicode="&#x40c;" horiz-adv-x="565" 
d="M553 0h-109l-274 316v-316h-89v667h89v-313l269 313h100l-283 -326zM429 801l-220 -85l-27 50l212 107z" />
    <glyph glyph-name="afii10109" unicode="&#x45c;" horiz-adv-x="493" 
d="M377 631l-220 -85l-27 50l212 107zM476 0h-106l-218 233v-233h-85v484h85v-218l212 218h102l-230 -229z" />
    <glyph glyph-name="afii10102" unicode="&#x455;" horiz-adv-x="413" 
d="M373 135c0 -94 -82 -148 -177 -148c-96 0 -160 43 -166 48l32 59c10 -6 59 -37 129 -37c52 0 93 29 93 72c0 99 -239 77 -239 231c0 82 70 137 169 137c94 0 148 -39 153 -43l-32 -57c-6 4 -56 33 -115 33s-89 -29 -89 -65c0 -93 242 -76 242 -230z" />
    <glyph glyph-name="afii10062" unicode="&#x40e;" horiz-adv-x="588" 
d="M448 864c0 -83 -58 -133 -138 -133s-138 50 -139 133h64c1 -42 31 -65 75 -65s74 23 74 65h64zM565 667l-205 -440c-71 -146 -97 -233 -234 -233c-56 0 -95 20 -99 22l24 64c7 -2 33 -13 71 -13c80 0 107 72 151 167l-219 433h95l170 -344l158 344h88z" />
    <glyph glyph-name="afii10110" unicode="&#x45e;" horiz-adv-x="514" 
d="M489 484l-192 -508c-44 -116 -80 -205 -214 -205c-56 0 -93 20 -98 22l24 64c7 -2 32 -13 70 -13c82 0 106 64 139 148l-201 492h92l154 -392l140 392h86zM402 692c0 -83 -58 -133 -138 -133s-138 50 -139 133h64c1 -42 31 -65 75 -65s74 23 74 65h64z" />
    <glyph glyph-name="afii10145" unicode="&#x40f;" horiz-adv-x="648" 
d="M567 0h-199v-123h-86v123h-201v667h90v-591h306v591h90v-667z" />
    <glyph glyph-name="afii10193" unicode="&#x45f;" horiz-adv-x="525" 
d="M373 484h85v-484h-155v-123h-80v123h-156v484h85v-411h221v411z" />
    <glyph glyph-name="afii10023" unicode="&#x401;" horiz-adv-x="509" 
d="M458 0h-377v667h369v-74h-281v-210h264v-72h-264v-235h289v-76zM395 775c0 -30 -24 -53 -54 -53s-53 23 -53 53s23 53 53 53s54 -23 54 -53zM229 775c0 -30 -24 -53 -54 -53s-53 23 -53 53s23 53 53 53s54 -23 54 -53z" />
    <glyph glyph-name="afii10071" unicode="&#x451;" horiz-adv-x="508" 
d="M466 255c0 -10 -2 -27 -2 -36h-337c-1 -83 47 -158 152 -158c76 0 128 33 137 38l32 -58c-8 -6 -74 -52 -176 -52c-147 0 -230 106 -230 250c0 154 90 258 225 258c122 0 199 -90 199 -242zM384 286c0 56 -26 143 -116 143c-76 0 -133 -56 -140 -143h256zM401 623
c0 -30 -24 -53 -54 -53s-53 23 -53 53s23 53 53 53s54 -23 54 -53zM235 623c0 -30 -24 -53 -54 -53s-53 23 -53 53s23 53 53 53s54 -23 54 -53z" />
    <glyph glyph-name="afii10097" unicode="&#x44f;" horiz-adv-x="479" 
d="M162 342c0 -71 61 -78 116 -78h50v153h-72c-55 0 -94 -17 -94 -75zM185 128l-57 -128h-90l75 163c19 42 39 60 66 66c-58 5 -98 47 -98 117c0 136 115 138 193 138h138v-484h-84v199h-41c-58 -1 -76 -13 -102 -71z" />
    <glyph glyph-name="afii10065" unicode="&#x430;" horiz-adv-x="479" 
d="M419 0h-76v36c-6 -3 -65 -46 -148 -46c-94 0 -156 61 -156 150c0 160 201 164 276 164h22v31c0 27 -1 49 -20 68s-50 25 -85 25c-71 0 -126 -34 -133 -38l-31 57c5 5 68 50 172 50c53 0 106 -15 140 -49c36 -36 39 -77 39 -144v-304zM337 95v145h-25
c-77 0 -139 -11 -170 -42c-15 -15 -22 -32 -22 -56c0 -49 35 -83 96 -83c60 0 110 31 121 36z" />
    <glyph glyph-name="afii10066" unicode="&#x431;" horiz-adv-x="512" 
d="M127 290c0 -172 47 -230 128 -230c76 0 129 51 129 178c0 113 -47 187 -128 187c-53 0 -100 -27 -125 -47c-2 -16 -4 -48 -4 -88zM42 300c0 181 25 266 88 324c63 57 155 62 275 87l17 -63c-104 -41 -261 -12 -286 -195c15 15 64 44 129 44c136 0 205 -103 205 -255
c0 -149 -75 -253 -217 -253c-132 0 -211 79 -211 311z" />
    <glyph glyph-name="afii10067" unicode="&#x432;" horiz-adv-x="463" 
d="M329 353c0 59 -49 65 -119 65h-60v-138h81c52 2 98 10 98 73zM341 141c0 63 -43 74 -99 74h-92v-146h61c82 0 130 8 130 72zM338 252c28 -6 83 -21 83 -109c0 -119 -88 -143 -183 -143h-171v484h166c88 0 174 -22 174 -131c0 -83 -51 -97 -69 -101z" />
    <glyph glyph-name="afii10068" unicode="&#x433;" horiz-adv-x="401" 
d="M152 0h-85v484h320v-70h-235v-414z" />
    <glyph glyph-name="afii10069" unicode="&#x434;" horiz-adv-x="546" 
d="M31 -123v196c18 1 35 4 45 13c23 20 34 84 49 144l58 254h272v-411h55v-196h-80v125h-319v-125h-80zM145 73h225v341h-121l-44 -193c-14 -58 -29 -140 -60 -148z" />
    <glyph glyph-name="afii10070" unicode="&#x435;" horiz-adv-x="508" 
d="M466 255c0 -10 -2 -27 -2 -36h-337c-1 -83 47 -158 152 -158c76 0 128 33 137 38l32 -58c-8 -6 -74 -52 -176 -52c-147 0 -230 106 -230 250c0 154 90 258 225 258c122 0 199 -90 199 -242zM384 286c0 56 -26 143 -116 143c-76 0 -133 -56 -140 -143h256z" />
    <glyph glyph-name="afii10072" unicode="&#x436;" horiz-adv-x="771" 
d="M430 233v-233h-85v233l-222 -233h-106l244 253l-230 231h105l209 -215v215h85v-218l212 218h102l-230 -229l240 -255h-106z" />
    <glyph glyph-name="afii10073" unicode="&#x437;" horiz-adv-x="420" 
d="M378 137c0 -100 -87 -147 -186 -147c-97 0 -150 42 -166 59l40 50c17 -15 60 -43 121 -43c54 0 95 22 106 59c2 12 2 22 0 33c-5 52 -54 70 -125 70h-36v60h42c48 0 118 12 118 80c0 46 -41 75 -95 75c-60 0 -111 -37 -123 -48l-38 49c14 15 71 63 162 63
c100 0 171 -50 171 -137c0 -53 -34 -95 -80 -111c49 -14 89 -53 89 -112z" />
    <glyph glyph-name="afii10074" unicode="&#x438;" horiz-adv-x="526" 
d="M378 355l-230 -355h-81v484h81l-1 -354l231 354h81v-484h-82z" />
    <glyph glyph-name="afii10075" unicode="&#x439;" horiz-adv-x="526" 
d="M401 692c0 -83 -58 -133 -138 -133s-138 50 -139 133h64c1 -42 31 -65 75 -65s74 23 74 65h64zM148 0l230 355l-1 -355h82v484h-81l-231 -354l1 354h-81v-484h81z" />
    <glyph glyph-name="afii10076" unicode="&#x43a;" horiz-adv-x="493" 
d="M476 0h-106l-218 233v-233h-85v484h85v-218l212 218h102l-230 -229z" />
    <glyph glyph-name="afii10077" unicode="&#x43b;" horiz-adv-x="502" 
d="M350 414h-130l-70 -303c-19 -85 -52 -117 -153 -118v67c49 0 65 16 78 76l80 348h280v-484h-85v414z" />
    <glyph glyph-name="afii10078" unicode="&#x43c;" horiz-adv-x="650" 
d="M590 0h-79l-38 341l-121 -341h-56l-123 341l-37 -341h-76l56 484h81l128 -357l127 357h82z" />
    <glyph glyph-name="afii10079" unicode="&#x43d;" horiz-adv-x="525" 
d="M152 217v-217h-85v484h85v-196h221v196h85v-484h-85v217h-221z" />
    <glyph glyph-name="afii10080" unicode="&#x43e;" horiz-adv-x="540" 
d="M498 242c0 -152 -91 -253 -231 -253c-135 0 -225 100 -225 253c0 152 91 255 232 255c135 0 224 -100 224 -255zM413 241c0 111 -61 186 -144 186c-87 0 -142 -73 -142 -182c0 -111 62 -185 145 -185c90 0 141 71 141 181z" />
    <glyph glyph-name="afii10081" unicode="&#x43f;" horiz-adv-x="525" 
d="M152 0h-85v484h391v-484h-85v414h-221v-414z" />
    <glyph glyph-name="afii10082" unicode="&#x440;" horiz-adv-x="535" 
d="M493 250c0 -156 -102 -261 -236 -261c-62 0 -100 26 -105 29v-232h-85v698h76v-36c7 6 54 49 136 49c129 0 214 -101 214 -247zM407 250c0 106 -61 175 -143 175c-66 0 -109 -40 -112 -42v-290c8 -6 41 -32 97 -32c93 0 158 71 158 189z" />
    <glyph glyph-name="afii10083" unicode="&#x441;" horiz-adv-x="475" 
d="M449 43c-3 -4 -72 -54 -172 -54c-139 0 -235 97 -235 245c0 154 103 263 246 263c91 0 149 -46 154 -52l-36 -55c-9 6 -51 35 -116 35c-99 0 -162 -84 -162 -183c0 -107 62 -179 157 -179c73 0 125 36 129 38z" />
    <glyph glyph-name="afii10084" unicode="&#x442;" horiz-adv-x="433" 
d="M259 0h-85v414h-160v70h405v-70h-160v-414z" />
    <glyph glyph-name="afii10085" unicode="&#x443;" horiz-adv-x="514" 
d="M489 484l-192 -508c-33 -86 -56 -127 -88 -159c-26 -26 -70 -46 -126 -46s-93 20 -98 22l24 64c7 -2 32 -14 70 -14c31 0 57 10 75 28c28 28 44 70 64 121l-201 492h92l154 -392l140 392h86z" />
    <glyph glyph-name="afii10086" unicode="&#x444;" horiz-adv-x="676" 
d="M634 240c0 -154 -110 -240 -256 -251v-203h-78v203c-146 9 -258 93 -258 252c0 155 109 242 258 254v226h78v-226c143 -10 256 -94 256 -255zM128 244c0 -114 78 -176 172 -186v369c-99 -8 -172 -73 -172 -183zM547 240c0 111 -78 174 -169 187v-369
c100 10 169 70 169 182z" />
    <glyph glyph-name="afii10087" unicode="&#x445;" horiz-adv-x="507" 
d="M478 0h-99l-131 189l-131 -189h-94l177 246l-166 238h100l120 -175l119 175h92l-163 -236z" />
    <glyph glyph-name="afii10088" unicode="&#x446;" horiz-adv-x="549" 
d="M373 484h85v-411h55v-196h-80v123h-366v484h85v-411h221v411z" />
    <glyph glyph-name="afii10089" unicode="&#x447;" horiz-adv-x="525" 
d="M373 293v191h85v-484h-85v223c-6 -4 -55 -34 -131 -34c-146 0 -175 98 -175 211v84h85v-84c0 -88 16 -138 102 -138c68 0 116 29 119 31z" />
    <glyph glyph-name="afii10090" unicode="&#x448;" horiz-adv-x="713" 
d="M646 0h-579v484h85v-411h162v411h85v-411h162v411h85v-484z" />
    <glyph glyph-name="afii10091" unicode="&#x449;" horiz-adv-x="737" 
d="M152 484v-411h162v411h85v-411h162v411h85v-411h55v-196h-80v123h-554v484h85z" />
    <glyph glyph-name="afii10092" unicode="&#x44a;" horiz-adv-x="564" 
d="M166 0v413h-154v71h238v-174h50c55 0 126 5 178 -37c27 -20 54 -57 54 -121c0 -84 -54 -137 -138 -148c-30 -4 -61 -4 -94 -4h-134zM447 152c0 87 -62 90 -152 90h-45v-173h65c60 0 132 -1 132 83z" />
    <glyph glyph-name="afii10093" unicode="&#x44b;" horiz-adv-x="654" 
d="M587 0h-85v484h85v-484zM348 152c0 -84 -72 -83 -132 -83h-65v173h45c90 0 152 -3 152 -90zM433 152c0 64 -27 101 -54 121c-52 42 -123 37 -178 37h-50v174h-84v-484h134c33 0 64 0 94 4c84 11 138 64 138 148z" />
    <glyph glyph-name="afii10094" unicode="&#x44c;" horiz-adv-x="465" 
d="M348 152c0 87 -62 90 -152 90h-45v-173h65c60 0 132 -1 132 83zM433 152c0 -84 -54 -137 -138 -148c-30 -4 -61 -4 -94 -4h-134v484h84v-174h50c55 0 126 5 178 -37c27 -20 54 -57 54 -121z" />
    <glyph glyph-name="afii10095" unicode="&#x44d;" horiz-adv-x="475" 
d="M26 43l35 58c4 -2 56 -38 129 -38c86 0 145 59 156 150h-230v65h228c-13 82 -72 147 -159 147c-65 0 -107 -29 -116 -35l-36 55c5 6 63 52 154 52c143 0 246 -109 246 -263c0 -148 -96 -245 -235 -245c-100 0 -169 50 -172 54z" />
    <glyph glyph-name="afii10096" unicode="&#x44e;" horiz-adv-x="749" 
d="M707 242c0 -152 -91 -253 -231 -253c-128 0 -215 89 -225 228h-99v-217h-85v484h85v-196h102c16 126 103 209 229 209c135 0 224 -100 224 -255zM622 241c0 111 -61 186 -144 186c-87 0 -142 -73 -142 -182c0 -111 62 -185 145 -185c90 0 141 71 141 181z" />
    <glyph glyph-name="uni0400" unicode="&#x400;" horiz-adv-x="509" 
d="M458 0h-377v667h369v-74h-281v-210h264v-72h-264v-235h289v-76zM383 766l-27 -50l-220 85l35 72z" />
    <glyph glyph-name="uni040D" unicode="&#x40d;" horiz-adv-x="646" 
d="M484 534l-315 -534h-88v667h82l-1 -534l315 534h88v-667h-82zM446 766l-27 -50l-220 85l35 72z" />
    <glyph glyph-name="uni0450" unicode="&#x450;" horiz-adv-x="508" 
d="M466 255c0 -10 -2 -27 -2 -36h-337c-1 -83 47 -158 152 -158c76 0 128 33 137 38l32 -58c-8 -6 -74 -52 -176 -52c-147 0 -230 106 -230 250c0 154 90 258 225 258c122 0 199 -90 199 -242zM384 286c0 56 -26 143 -116 143c-76 0 -133 -56 -140 -143h256zM382 596
l-27 -50l-220 85l35 72z" />
    <glyph glyph-name="uni045D" unicode="&#x45d;" horiz-adv-x="526" 
d="M378 355l-230 -355h-81v484h81l-1 -354l231 354h81v-484h-82zM386 596l-27 -50l-220 85l35 72z" />
    </font>
</defs>
</svg>
