<?xml version="1.0" standalone="no"?>
<!DOCTYPE svg PUBLIC "-//W3C//DTD SVG 1.1//EN" "http://www.w3.org/Graphics/SVG/1.1/DTD/svg11.dtd" >
<svg xmlns="http://www.w3.org/2000/svg" xmlns:xlink="http://www.w3.org/1999/xlink" version="1.1">
<metadata>
Created by FontForge 20190801 at Thu Apr 30 13:21:43 2009
 By Jimmy Wärting
Copyright (c) 2009 by The Foundry. All rights reserved.
</metadata>
<defs>
<font id="FoundrySterlingOT3-ExtraBold" horiz-adv-x="421" >
  <font-face 
    font-family="Foundry Sterling OT3"
    font-weight="800"
    font-stretch="normal"
    units-per-em="1000"
    panose-1="2 0 9 0 4 0 0 2 0 4"
    ascent="765"
    descent="-235"
    x-height="496"
    cap-height="667"
    bbox="-280 -367 1409 1176"
    underline-thickness="50"
    underline-position="-100"
    stemh="132"
    stemv="161"
    unicode-range="U+0020-FFF3"
  />
<missing-glyph horiz-adv-x="787" 
d="M532 1v538h-277v-538h277zM97 -127v794h593v-794h-593z" />
    <glyph glyph-name="fi" unicode="fi" horiz-adv-x="660" 
d="M602 0h-160v371h-152v-371h-160v371h-88v125h88v10c0 120 29 156 54 181c18 18 59 53 154 53c92 0 146 -45 150 -49l-58 -99c-7 4 -38 22 -72 22c-65 0 -68 -50 -68 -96v-22h312v-496z" />
    <glyph glyph-name="fl" unicode="fl" horiz-adv-x="660" 
d="M602 0h-160v371h-152v-371h-160v371h-88v125h88v10c0 87 10 137 55 182c32 32 79 52 136 52c52 0 83 -16 94 -21l-39 -115c-5 2 -13 6 -28 6c-55 0 -58 -49 -58 -90v-24h152v228h160v-724z" />
    <glyph glyph-name="IJsmall" unicode="&#xf769;&#xf76a;" horiz-adv-x="680" 
d="M226 0h-162v532h162v-532zM621 200c0 -62 -1 -122 -48 -169c-27 -27 -74 -46 -136 -46c-76 0 -130 36 -136 41l51 101c8 -3 31 -14 57 -14c18 0 28 4 36 12c10 10 14 19 14 67v340h162v-332z" />
    <glyph glyph-name="ij" unicode="ij" horiz-adv-x="543" 
d="M220 636c0 -47 -37 -85 -84 -85s-85 38 -85 85s38 84 85 84s84 -37 84 -84zM215 0h-160v496h160v-496zM492 636c0 -47 -37 -85 -84 -85s-85 38 -85 85s38 84 85 84s84 -37 84 -84zM489 -8c0 -52 2 -120 -54 -176c-29 -29 -74 -51 -138 -51c-73 0 -124 32 -124 32l42 106
c11 -4 28 -12 55 -12c23 0 35 6 43 14c12 12 16 24 16 71v520h160v-504z" />
    <glyph glyph-name="IJ" unicode="IJ" horiz-adv-x="729" 
d="M231 0h-164v667h164v-667zM668 227c0 -71 -2 -139 -55 -192c-31 -31 -85 -52 -155 -52c-86 0 -147 41 -154 47l55 110c10 -4 42 -19 77 -19c24 0 39 6 49 17c13 14 19 25 19 90v439h164v-440z" />
    <glyph glyph-name="f_j" unicode="fj" horiz-adv-x="660" 
d="M602 -8c0 -52 2 -120 -54 -176c-29 -29 -74 -51 -138 -51c-73 0 -124 32 -124 32l42 106c11 -4 28 -12 55 -12c23 0 35 6 43 14c12 12 16 24 16 71v395h-152v-371h-160v371h-88v125h88v10c0 120 29 156 54 181c18 18 59 53 154 53c92 0 146 -45 150 -49l-58 -99
c-7 4 -38 22 -72 22c-65 0 -68 -50 -68 -96v-22h312v-504z" />
    <glyph glyph-name="f_f" unicode="ff" horiz-adv-x="796" 
d="M800 691l-58 -99c-7 4 -38 22 -72 22c-65 0 -68 -50 -68 -96v-22h136v-125h-136v-371h-160v371h-152v-371h-160v371h-88v125h88v10c0 87 10 137 55 182c32 32 79 52 136 52c52 0 83 -16 94 -21l-39 -115c-5 2 -13 6 -28 6c-55 0 -58 -49 -58 -90v-24h152v10
c0 120 29 156 54 181c18 18 59 53 154 53c92 0 146 -45 150 -49z" />
    <glyph glyph-name="f_f_i" unicode="ffi" horiz-adv-x="972" 
d="M914 0h-160v371h-152v-371h-160v371h-152v-371h-160v371h-88v125h88v10c0 87 10 137 55 182c32 32 79 52 136 52c52 0 83 -16 94 -21l-39 -115c-5 2 -13 6 -28 6c-55 0 -58 -49 -58 -90v-24h152v10c0 120 29 156 54 181c18 18 59 53 154 53c92 0 146 -45 150 -49l-58 -99
c-7 4 -38 22 -72 22c-65 0 -68 -50 -68 -96v-22h312v-496z" />
    <glyph glyph-name="f_f_l" unicode="ffl" horiz-adv-x="972" 
d="M914 0h-160v371h-152v-371h-160v371h-152v-371h-160v371h-88v125h88v10c0 87 10 137 55 182c32 32 79 52 136 52c52 0 83 -16 94 -21l-39 -115c-5 2 -13 6 -28 6c-55 0 -58 -49 -58 -90v-24h152v10c0 87 10 137 55 182c32 32 79 52 136 52c52 0 83 -16 94 -21l-39 -115
c-5 2 -13 6 -28 6c-55 0 -58 -49 -58 -90v-24h152v228h160v-724z" />
    <glyph glyph-name="f_t" unicode="ft" horiz-adv-x="797" 
d="M290 496h152v137h160v-137h135v-125h-135v-179c0 -34 2 -78 58 -78c29 0 49 7 59 11l40 -105c-3 -3 -56 -35 -135 -35c-48 0 -102 13 -137 48c-45 45 -45 95 -45 170v168h-152v-371h-160v371h-88v125h88v10c0 87 10 137 55 182c32 32 79 52 136 52c52 0 83 -16 94 -21
l-39 -115c-5 2 -13 6 -28 6c-55 0 -58 -49 -58 -90v-24z" />
    <glyph glyph-name=".notdef" horiz-adv-x="787" 
d="M532 1v538h-277v-538h277zM97 -127v794h593v-794h-593z" />
    <glyph glyph-name="Eth" unicode="&#xd0;" horiz-adv-x="758" 
d="M715 340c0 -85 -30 -176 -89 -235c-104 -104 -242 -105 -371 -105h-142v273h-100v132h100v262h184c145 0 242 -4 329 -91c57 -57 89 -145 89 -236zM550 342c0 66 -17 113 -51 147c-48 48 -96 51 -180 51h-44v-135h159v-132h-159v-144h68c135 0 207 75 207 213z" />
    <glyph glyph-name="eth" unicode="&#xf0;" horiz-adv-x="563" 
d="M525 285c0 -182 -89 -299 -241 -299c-138 0 -245 101 -245 258c0 147 91 250 238 250c33 0 57 -8 65 -12c-12 27 -28 52 -48 66l-130 -50l-33 83l82 31c-9 9 -57 25 -123 27l17 105c91 -3 200 -39 241 -77l102 38l33 -82l-67 -25c65 -66 109 -187 109 -313zM371 289
c0 27 0 36 -3 55c-19 14 -42 21 -69 21c-65 0 -104 -43 -104 -123c0 -78 39 -123 89 -123c85 0 87 111 87 170z" />
    <glyph glyph-name="Lslash" unicode="&#x141;" horiz-adv-x="628" 
d="M574 0h-417v212l-53 -40l-86 108l139 103v284h166v-170l89 68l84 -108l-173 -130v-194h251v-133z" />
    <glyph glyph-name="lslash" unicode="&#x142;" horiz-adv-x="467" 
d="M448 458l-132 -99v-359h-160v245l-53 -40l-85 107l138 104v308h160v-197l48 37z" />
    <glyph glyph-name="Scaron" unicode="&#x160;" horiz-adv-x="561" 
d="M514 200c0 -130 -103 -217 -252 -217c-137 0 -216 58 -235 77l69 107c14 -8 72 -50 156 -50c55 0 98 20 98 73c0 17 -5 29 -19 43c-31 31 -167 64 -234 130c-27 26 -49 59 -49 120c0 119 104 201 243 201c127 0 204 -59 217 -71l-70 -103c-13 8 -69 46 -140 46
c-53 0 -87 -21 -87 -60c0 -23 10 -32 19 -40c33 -33 161 -60 234 -133c31 -30 50 -73 50 -123zM466 867l-181 -135l-183 143l54 71l129 -72l129 71z" />
    <glyph glyph-name="scaron" unicode="&#x161;" horiz-adv-x="469" 
d="M423 145c0 -81 -72 -160 -193 -160c-117 0 -192 47 -198 53l50 100c14 -7 69 -39 126 -39c45 0 60 23 60 43c0 13 -2 19 -13 30c-26 26 -117 46 -165 94c-20 20 -38 46 -38 85c0 93 81 160 205 160c98 0 155 -36 166 -45l-49 -94c-8 5 -61 34 -113 34
c-36 0 -56 -14 -56 -38c0 -67 218 -55 218 -223zM406 682l-181 -135l-183 143l54 71l129 -72l129 71z" />
    <glyph glyph-name="Yacute" unicode="&#xdd;" horiz-adv-x="638" 
d="M611 667l-216 -400v-267h-159v267l-209 400h166l131 -275l138 275h149zM455 832l-247 -100l-50 84l235 131z" />
    <glyph glyph-name="yacute" unicode="&#xfd;" horiz-adv-x="610" 
d="M583 496l-197 -491c-55 -138 -73 -161 -99 -187c-18 -18 -59 -53 -153 -53c-80 0 -131 33 -135 36l48 110c7 -3 40 -19 79 -19c30 0 48 9 63 24c22 22 40 78 42 86l-210 494h170l120 -331l114 331h158zM446 645l-247 -100l-50 84l235 131z" />
    <glyph glyph-name="Thorn" unicode="&#xde;" horiz-adv-x="601" 
d="M559 348c0 -86 -39 -136 -61 -157c-62 -62 -133 -70 -218 -70h-52v-121h-162v667h162v-113h38c104 0 181 -6 239 -63c35 -35 54 -85 54 -143zM395 340c0 30 -10 53 -22 65c-19 19 -46 21 -93 21h-52v-175h47c62 0 83 8 97 22s23 39 23 67z" />
    <glyph glyph-name="thorn" unicode="&#xfe;" horiz-adv-x="590" 
d="M551 255c0 -162 -117 -270 -237 -270c-52 0 -84 16 -96 21v-225h-160v943h148v-254c13 12 52 40 121 40c137 0 224 -105 224 -255zM392 252c0 84 -46 131 -104 131c-40 0 -61 -18 -70 -23v-226c4 -3 29 -21 68 -21c60 0 106 53 106 139z" />
    <glyph glyph-name="CR" horiz-adv-x="528" 
 />
    <glyph glyph-name="Zcaron" unicode="&#x17d;" horiz-adv-x="581" 
d="M538 0h-495v115l297 421h-283v131h470v-121l-287 -413h298v-133zM464 867l-181 -135l-183 143l54 71l129 -72l129 71z" />
    <glyph glyph-name="zcaron" unicode="&#x17e;" horiz-adv-x="554" 
d="M496 0h-443v107l243 264h-230v125h418v-117l-231 -249h243v-130zM454 682l-181 -135l-183 143l54 71l129 -72l129 71z" />
    <glyph glyph-name="onehalf" unicode="&#xbd;" horiz-adv-x="862" 
d="M688 653l-452 -700l-78 53l452 698zM297 324h-91v238l-71 -46l-43 63l134 88h71v-343zM778 0h-249v65c104 82 154 130 154 172c0 23 -18 39 -43 39c-29 0 -50 -16 -76 -39l-44 53c36 44 81 61 127 61c66 0 121 -44 121 -114c0 -77 -71 -133 -114 -163h124v-74z" />
    <glyph glyph-name="onequarter" unicode="&#xbc;" horiz-adv-x="862" 
d="M688 653l-452 -700l-78 53l452 698zM297 324h-91v238l-71 -46l-43 63l134 88h71v-343zM811 61h-51v-61h-79v61h-169v56l165 226h83v-217h51v-65zM681 126v121l-82 -121h82z" />
    <glyph glyph-name="threequarters" unicode="&#xbe;" horiz-adv-x="862" 
d="M811 61h-51v-61h-79v61h-169v56l165 226h83v-217h51v-65zM681 126v121l-82 -121h82zM688 653l-452 -700l-78 53l452 698zM343 428c0 -69 -51 -115 -142 -115c-77 0 -116 37 -122 42l41 61c9 -5 36 -26 74 -26c40 0 55 18 55 38c0 40 -47 35 -67 35h-21v69h13
c23 0 69 -1 69 34c0 15 -16 32 -44 32c-34 0 -63 -24 -71 -30l-45 53c36 45 87 53 129 53c68 0 120 -40 120 -102c0 -25 -10 -64 -45 -73c41 -2 56 -46 56 -71z" />
    <glyph glyph-name="brokenbar" unicode="&#xa6;" horiz-adv-x="291" 
d="M231 361h-162v306h162v-306zM231 -127h-162v306h162v-306z" />
    <glyph glyph-name="minus" unicode="&#x2212;" horiz-adv-x="662" 
d="M608 202h-554v128h554v-128z" />
    <glyph glyph-name="multiply" unicode="&#xd7;" horiz-adv-x="662" 
d="M601 91l-95 -95l-175 177l-176 -177l-94 95l177 175l-177 176l94 94l176 -177l175 177l95 -94l-177 -176z" />
    <glyph glyph-name="space" unicode=" " horiz-adv-x="237" 
 />
    <glyph glyph-name="exclam" unicode="!" horiz-adv-x="409" 
d="M295 667l-24 -450h-131l-24 450h179zM297 85c0 -51 -41 -93 -92 -93s-93 42 -93 93s42 92 93 92s92 -41 92 -92z" />
    <glyph glyph-name="quotedbl" unicode="&#x22;" horiz-adv-x="444" 
d="M401 667l-22 -261h-121l-22 261h165zM208 667l-22 -261h-121l-22 261h165z" />
    <glyph glyph-name="numbersign" unicode="#" horiz-adv-x="620" 
d="M550 520l-14 -99h-84l-11 -77h86l-14 -99h-85l-23 -164h-93l23 164h-83l-23 -164h-93l23 164h-88l13 99h90l10 77h-90l14 99h90l21 147h93l-21 -147h81l21 147h93l-21 -147h85zM359 421h-82l-11 -77h83z" />
    <glyph glyph-name="dollar" unicode="$" horiz-adv-x="661" 
d="M573 203c0 -127 -101 -194 -200 -208v-111h-106v108c-104 8 -175 55 -195 73l71 105c14 -8 73 -49 160 -49c57 0 101 20 101 72c0 17 -5 28 -19 42c-32 30 -172 62 -241 127c-27 26 -51 58 -51 118c0 122 112 176 174 189v114h106v-107c117 -8 181 -57 194 -69l-72 -101
c-13 8 -71 46 -144 46c-55 0 -90 -21 -90 -59c0 -23 11 -31 20 -39c34 -32 166 -60 241 -131c32 -30 51 -71 51 -120z" />
    <glyph glyph-name="percent" unicode="%" horiz-adv-x="862" 
d="M688 653l-452 -700l-78 53l452 698zM365 495c0 -107 -58 -180 -156 -180s-153 74 -153 183c0 101 58 176 152 176c97 0 157 -75 157 -179zM274 492c0 75 -29 106 -63 106c-35 0 -64 -31 -64 -101c0 -74 27 -105 61 -105c62 0 66 66 66 100zM806 172
c0 -107 -58 -180 -156 -180s-153 74 -153 183c0 101 58 176 152 176c97 0 157 -75 157 -179zM715 169c0 75 -29 106 -63 106c-35 0 -64 -31 -64 -101c0 -74 27 -105 61 -105c62 0 66 66 66 100z" />
    <glyph glyph-name="ampersand" unicode="&#x26;" horiz-adv-x="713" 
d="M659 -1c0 0 -25 -4 -41 -4c-31 0 -88 8 -131 53c-16 -12 -85 -61 -198 -61c-139 0 -246 91 -246 213c0 79 56 150 129 180c-29 34 -62 78 -62 127c0 103 97 173 212 173c89 0 134 -38 150 -54c17 -17 41 -52 41 -104c0 -107 -84 -144 -141 -172l113 -119
c17 24 36 93 36 130h128c-4 -115 -53 -196 -68 -216c13 -11 27 -25 78 -31v-115zM377 521c0 22 -17 43 -53 43c-43 0 -65 -25 -65 -53c0 -19 9 -36 38 -73c56 28 80 49 80 83zM401 135l-152 160c-48 -31 -59 -58 -59 -92c0 -51 42 -98 114 -98c41 0 81 14 97 30z" />
    <glyph glyph-name="quotesingle" unicode="'" horiz-adv-x="251" 
d="M208 667l-22 -261h-121l-22 261h165z" />
    <glyph glyph-name="parenleft" unicode="(" horiz-adv-x="468" 
d="M417 -36l-74 -102s-280 105 -280 433c0 317 257 432 280 439l74 -102c-19 -11 -188 -114 -188 -333c0 -226 181 -330 188 -335z" />
    <glyph glyph-name="parenright" unicode=")" horiz-adv-x="468" 
d="M405 295c0 -328 -280 -433 -280 -433l-74 102c7 5 188 109 188 335c0 219 -169 322 -188 333l74 102c23 -7 280 -122 280 -439z" />
    <glyph glyph-name="asterisk" unicode="*" horiz-adv-x="427" 
d="M380 504l-91 -30l70 -90l-77 -55l-68 80l-69 -80l-76 55l69 90l-91 30l30 91l87 -26v98h99v-98l88 26z" />
    <glyph glyph-name="plus" unicode="+" horiz-adv-x="662" 
d="M608 202h-211v-212h-132v212h-211v128h211v213h132v-213h211v-128z" />
    <glyph glyph-name="comma" unicode="," horiz-adv-x="321" 
d="M283 129c0 -175 -147 -266 -159 -274l-80 77c15 13 88 82 88 179c0 15 -1 28 -2 43h152c1 -5 1 -17 1 -25z" />
    <glyph glyph-name="hyphen" unicode="-" horiz-adv-x="498" 
d="M428 202h-358v128h358v-128z" />
    <glyph glyph-name="period" unicode="." horiz-adv-x="303" 
d="M244 85c0 -51 -41 -93 -92 -93s-93 42 -93 93s42 92 93 92s92 -41 92 -92z" />
    <glyph glyph-name="slash" unicode="/" horiz-adv-x="525" 
d="M458 667l-308 -833l-111 39l307 833z" />
    <glyph glyph-name="zero" unicode="0" horiz-adv-x="661" 
d="M618 337c0 -215 -110 -354 -289 -354c-176 0 -286 140 -286 351c0 207 114 350 288 350s287 -143 287 -347zM456 333c0 147 -51 219 -124 219c-76 0 -127 -76 -127 -219c0 -145 48 -217 123 -217c76 0 128 72 128 217z" />
    <glyph glyph-name="one" unicode="1" horiz-adv-x="661" 
d="M471 0h-162v483l-148 -96l-73 108l256 172h127v-667z" />
    <glyph glyph-name="two" unicode="2" horiz-adv-x="661" 
d="M577 0h-480v118c81 68 144 120 213 190c55 55 98 109 98 157c0 49 -43 85 -95 85c-70 0 -131 -53 -153 -72l-81 94c13 16 101 112 248 112c132 0 238 -88 238 -208c0 -76 -46 -141 -127 -223c-43 -43 -92 -86 -130 -120h269v-133z" />
    <glyph glyph-name="three" unicode="3" horiz-adv-x="661" 
d="M569 198c0 -125 -91 -215 -266 -215c-131 0 -204 55 -221 71l66 97c42 -27 90 -46 140 -46c87 0 125 40 125 92c0 28 -7 43 -19 56c-30 31 -95 29 -126 29h-27v118h7c47 0 98 -2 135 35c11 11 18 25 18 48c0 44 -43 78 -103 78c-48 0 -97 -21 -136 -50l-69 84
c57 65 152 89 233 89c126 0 223 -77 223 -188c0 -87 -54 -140 -108 -149c93 -13 128 -84 128 -149z" />
    <glyph glyph-name="four" unicode="4" horiz-adv-x="661" 
d="M637 118h-99v-118h-153v118h-329v110l320 439h162v-422h99v-127zM385 245v236l-160 -236h160z" />
    <glyph glyph-name="five" unicode="5" horiz-adv-x="661" 
d="M571 236c0 -147 -107 -253 -283 -253c-134 0 -202 61 -213 73l73 99c39 -27 85 -41 132 -41c76 0 131 38 131 107c0 56 -37 111 -124 111c-53 0 -94 -27 -105 -36l-52 32v339h410v-131h-261v-102c9 6 35 17 73 17c130 0 219 -97 219 -215z" />
    <glyph glyph-name="six" unicode="6" horiz-adv-x="661" 
d="M597 232c0 -145 -105 -247 -259 -247c-170 0 -276 133 -276 337c0 216 112 362 303 362c141 0 210 -59 219 -68l-65 -96c-44 27 -90 44 -142 44c-104 0 -167 -57 -176 -175c15 21 71 74 162 74c137 0 234 -97 234 -231zM451 228c0 65 -46 107 -108 107
c-67 0 -112 -45 -112 -107c0 -68 47 -112 112 -112c63 0 108 45 108 112z" />
    <glyph glyph-name="seven" unicode="7" horiz-adv-x="661" 
d="M588 543l-255 -543h-173l256 534h-341v133h513v-124z" />
    <glyph glyph-name="eight" unicode="8" horiz-adv-x="661" 
d="M596 192c0 -130 -106 -208 -265 -208s-267 79 -267 209c0 70 39 135 111 156c-62 21 -89 79 -89 138c0 119 98 195 243 195c146 0 246 -76 246 -194c0 -68 -34 -121 -89 -139c72 -23 110 -83 110 -157zM430 483c0 48 -32 79 -100 79c-65 0 -99 -36 -99 -78
c0 -44 35 -80 102 -80c63 0 97 35 97 79zM449 198c0 50 -43 88 -118 88c-82 0 -119 -41 -119 -87c0 -54 37 -93 120 -93c77 0 117 35 117 92z" />
    <glyph glyph-name="nine" unicode="9" horiz-adv-x="661" 
d="M596 347c0 -216 -112 -362 -303 -362c-141 0 -210 59 -219 68l65 96c44 -27 90 -44 142 -44c104 0 167 57 176 175c-15 -21 -71 -74 -162 -74c-137 0 -234 97 -234 231c0 145 105 247 259 247c170 0 276 -133 276 -337zM427 441c0 68 -49 112 -114 112
c-63 0 -106 -45 -106 -112c0 -65 44 -107 106 -107c67 0 114 45 114 107z" />
    <glyph glyph-name="colon" unicode=":" horiz-adv-x="303" 
d="M244 405c0 -51 -41 -93 -92 -93s-93 42 -93 93s42 92 93 92s92 -41 92 -92zM244 85c0 -51 -41 -93 -92 -93s-93 42 -93 93s42 92 93 92s92 -41 92 -92z" />
    <glyph glyph-name="semicolon" unicode=";" horiz-adv-x="335" 
d="M276 405c0 -51 -41 -93 -92 -93s-93 42 -93 93s42 92 93 92s92 -41 92 -92zM276 129c0 -175 -147 -266 -159 -274l-80 77c15 13 88 82 88 179c0 15 -1 28 -2 43h152c1 -5 1 -17 1 -25z" />
    <glyph glyph-name="less" unicode="&#x3c;" horiz-adv-x="662" 
d="M604 112l-51 -117l-494 220v103l494 221l51 -123l-337 -150z" />
    <glyph glyph-name="equal" unicode="=" horiz-adv-x="662" 
d="M608 299h-554v128h554v-128zM608 106h-554v128h554v-128z" />
    <glyph glyph-name="greater" unicode="&#x3e;" horiz-adv-x="662" 
d="M604 215l-494 -220l-51 117l337 154l-337 150l51 123l494 -221v-103z" />
    <glyph glyph-name="question" unicode="?" horiz-adv-x="553" 
d="M512 493c0 -50 -19 -89 -47 -117c-41 -42 -117 -76 -132 -91c-10 -10 -16 -16 -17 -68h-138c-1 2 -6 31 -6 47c0 43 10 72 33 95c32 32 89 53 125 89c4 4 19 19 19 45c0 36 -28 60 -86 60c-73 0 -144 -50 -151 -55l-66 100c5 4 106 86 234 86c137 0 232 -74 232 -191z
M337 85c0 -51 -41 -93 -92 -93s-93 42 -93 93s42 92 93 92s92 -41 92 -92z" />
    <glyph glyph-name="at" unicode="@" horiz-adv-x="823" 
d="M779 411c0 -148 -126 -248 -292 -248c-10 0 -26 2 -33 3l7 37c-18 -13 -53 -43 -105 -43c-80 0 -131 60 -131 139c0 128 106 225 244 225c67 0 125 -27 128 -29l-48 -247c15 2 59 14 93 54c25 29 38 64 38 107c0 107 -92 184 -236 184c-176 0 -300 -119 -300 -286
c0 -144 104 -232 258 -232c107 0 197 58 212 67l47 -72c-13 -9 -111 -86 -272 -86c-195 0 -349 133 -349 325c0 213 176 375 405 375c187 0 334 -115 334 -273zM489 440c-6 0 -14 1 -20 1c-80 0 -146 -64 -146 -141c0 -33 21 -54 47 -54c18 0 50 4 89 40z" />
    <glyph glyph-name="A" unicode="A" horiz-adv-x="684" 
d="M666 0h-170l-38 122h-234l-39 -122h-167l241 667h164zM418 245l-79 250l-77 -250h156z" />
    <glyph glyph-name="B" unicode="B" horiz-adv-x="615" 
d="M568 201c0 -65 -24 -109 -51 -135c-62 -62 -146 -66 -227 -66h-224v667h234c80 0 149 -7 198 -56c41 -40 49 -82 49 -123c0 -120 -91 -145 -112 -148c35 -3 133 -29 133 -139zM388 470c0 65 -50 71 -91 71h-76v-146h57c54 0 110 5 110 75zM404 207c0 13 -5 35 -19 49
c-22 22 -46 24 -91 24h-73v-150h80c48 0 68 8 82 22c15 15 21 33 21 55z" />
    <glyph glyph-name="C" unicode="C" horiz-adv-x="663" 
d="M639 71c-2 -2 -86 -88 -257 -88c-199 0 -339 138 -339 342c0 222 153 359 360 359c143 0 213 -60 230 -77l-70 -107c-7 5 -66 45 -146 45c-122 0 -208 -88 -208 -211c0 -116 71 -210 193 -210c86 0 152 45 170 56z" />
    <glyph glyph-name="D" unicode="D" horiz-adv-x="711" 
d="M668 340c0 -85 -30 -176 -89 -235c-104 -104 -242 -105 -371 -105h-142v667h184c145 0 242 -4 329 -91c57 -57 89 -145 89 -236zM503 342c0 66 -17 113 -51 147c-48 48 -96 51 -180 51h-44v-411h68c135 0 207 75 207 213z" />
    <glyph glyph-name="E" unicode="E" horiz-adv-x="542" 
d="M496 0h-430v667h422v-131h-258v-133h242v-128h-242v-142h266v-133z" />
    <glyph glyph-name="F" unicode="F" horiz-adv-x="531" 
d="M483 536h-253v-133h241v-128h-241v-275h-164v667h417v-131z" />
    <glyph glyph-name="G" unicode="G" horiz-adv-x="706" 
d="M643 56c-8 -5 -85 -73 -251 -73c-204 0 -349 132 -349 345c0 222 153 356 360 356c153 0 220 -63 235 -78l-71 -106c-17 11 -67 48 -156 48c-117 0 -202 -79 -202 -211c0 -149 95 -218 200 -218c48 0 79 9 89 12v96h-121v119h266v-290z" />
    <glyph glyph-name="H" unicode="H" horiz-adv-x="681" 
d="M615 0h-164v279h-221v-279h-164v667h164v-255h221v255h164v-667z" />
    <glyph glyph-name="I" unicode="I" horiz-adv-x="296" 
d="M230 0h-164v667h164v-667z" />
    <glyph glyph-name="J" unicode="J" horiz-adv-x="432" 
d="M371 227c0 -71 -2 -139 -55 -192c-31 -31 -85 -52 -155 -52c-86 0 -147 41 -154 47l55 110c10 -4 42 -19 77 -19c24 0 39 6 49 17c13 14 19 25 19 90v439h164v-440z" />
    <glyph glyph-name="K" unicode="K" horiz-adv-x="644" 
d="M626 0h-194l-202 305v-305h-164v667h164v-310l209 310h175l-222 -323z" />
    <glyph glyph-name="L" unicode="L" horiz-adv-x="537" 
d="M483 0h-417v667h166v-534h251v-133z" />
    <glyph glyph-name="M" unicode="M" horiz-adv-x="882" 
d="M835 0h-153l-39 444l-139 -444h-136l-146 445l-30 -445h-145l65 667h177l155 -459l145 459h177z" />
    <glyph glyph-name="N" unicode="N" horiz-adv-x="680" 
d="M614 0h-134l-269 408l4 -408h-149v667h144l259 -403l-3 403h148v-667z" />
    <glyph glyph-name="O" unicode="O" horiz-adv-x="756" 
d="M713 340c0 -217 -140 -357 -333 -357c-204 0 -337 148 -337 360c0 201 134 341 333 341c206 0 337 -147 337 -344zM547 341c0 121 -68 210 -175 210c-99 0 -163 -91 -163 -223c0 -135 75 -209 173 -209c140 0 165 135 165 222z" />
    <glyph glyph-name="P" unicode="P" horiz-adv-x="614" 
d="M559 461c0 -86 -39 -136 -61 -157c-62 -62 -133 -70 -218 -70h-52v-234h-162v667h200c104 0 181 -6 239 -63c35 -35 54 -85 54 -143zM395 453c0 30 -10 53 -22 65c-19 19 -46 21 -93 21h-52v-175h47c62 0 83 8 97 22s23 39 23 67z" />
    <glyph glyph-name="Q" unicode="Q" horiz-adv-x="749" 
d="M716 -121c-11 -3 -55 -18 -141 -18c-119 0 -220 45 -286 134c-22 1 -246 59 -246 348c0 201 134 341 333 341c206 0 337 -147 337 -344c0 -129 -49 -215 -98 -264c-59 -58 -108 -67 -148 -76c0 0 31 -33 144 -33c42 0 81 9 86 10zM547 341c0 121 -68 210 -175 210
c-99 0 -163 -91 -163 -223c0 -134 75 -209 173 -209c140 0 165 136 165 222z" />
    <glyph glyph-name="R" unicode="R" horiz-adv-x="612" 
d="M589 0h-174l-66 147c-8 18 -27 65 -49 87c-18 18 -40 17 -63 17h-9v-251h-162v667h181c86 0 171 6 238 -61c29 -29 55 -72 55 -131c0 -91 -57 -160 -174 -172c40 -2 67 -16 89 -38c30 -30 47 -73 68 -119zM384 461c0 19 -5 42 -20 57c-21 21 -52 23 -97 23h-39v-167h47
c39 0 109 2 109 87z" />
    <glyph glyph-name="S" unicode="S" horiz-adv-x="561" 
d="M514 200c0 -130 -103 -217 -252 -217c-137 0 -216 58 -235 77l69 107c14 -8 72 -50 156 -50c55 0 98 20 98 73c0 17 -5 29 -19 43c-31 31 -167 64 -234 130c-27 26 -49 59 -49 120c0 119 104 201 243 201c127 0 204 -59 217 -71l-70 -103c-13 8 -69 46 -140 46
c-53 0 -87 -21 -87 -60c0 -23 10 -32 19 -40c33 -33 161 -60 234 -133c31 -30 50 -73 50 -123z" />
    <glyph glyph-name="T" unicode="T" horiz-adv-x="571" 
d="M546 536h-177v-536h-166v536h-178v131h521v-131z" />
    <glyph glyph-name="U" unicode="U" horiz-adv-x="669" 
d="M608 272c0 -116 -18 -164 -66 -212c-23 -22 -78 -77 -209 -77c-73 0 -148 19 -207 78c-58 58 -65 133 -65 230v376h165v-411c0 -34 3 -74 30 -101c17 -17 46 -28 81 -28c43 0 66 15 83 32c26 26 28 60 28 137v371h160v-395z" />
    <glyph glyph-name="V" unicode="V" horiz-adv-x="658" 
d="M638 667l-233 -667h-156l-229 667h165l145 -471l146 471h162z" />
    <glyph glyph-name="W" unicode="W" horiz-adv-x="958" 
d="M919 667l-158 -667h-175l-103 472l-114 -472h-175l-155 667h159l88 -490l120 490h161l112 -490l94 490h146z" />
    <glyph glyph-name="X" unicode="X" horiz-adv-x="650" 
d="M622 0h-174l-124 220l-127 -220h-169l217 344l-203 323h176l116 -206l121 206h164l-205 -320z" />
    <glyph glyph-name="Y" unicode="Y" horiz-adv-x="638" 
d="M611 667l-216 -400v-267h-159v267l-209 400h166l131 -275l138 275h149z" />
    <glyph glyph-name="Z" unicode="Z" horiz-adv-x="581" 
d="M538 0h-495v115l297 421h-283v131h470v-121l-287 -413h298v-133z" />
    <glyph glyph-name="bracketleft" unicode="[" horiz-adv-x="465" 
d="M389 -127h-292v794h292v-128h-134v-538h134v-128z" />
    <glyph glyph-name="backslash" unicode="\" horiz-adv-x="525" 
d="M486 -127l-111 -39l-308 833l112 39z" />
    <glyph glyph-name="bracketright" unicode="]" horiz-adv-x="465" 
d="M368 -127h-292v128h134v538h-134v128h292v-794z" />
    <glyph glyph-name="asciicircum" unicode="^" horiz-adv-x="659" 
d="M595 238h-141l-120 265l-121 -265h-148l208 429h119z" />
    <glyph glyph-name="underscore" unicode="_" horiz-adv-x="534" 
d="M537 -127h-540v128h540v-128z" />
    <glyph glyph-name="grave" unicode="`" horiz-adv-x="443" 
d="M370 629l-50 -84l-247 100l62 115z" />
    <glyph glyph-name="a" unicode="a" horiz-adv-x="523" 
d="M472 0h-132v42c-11 -9 -62 -53 -140 -53c-100 0 -161 67 -161 162c0 183 221 183 273 183h11c0 16 1 32 -12 45c-8 8 -24 16 -59 16c-70 0 -132 -31 -138 -34l-48 95c8 6 76 54 194 54c76 0 133 -19 172 -58c43 -43 40 -101 40 -162v-290zM325 131v101
c-38 0 -108 2 -137 -27c-9 -9 -17 -22 -17 -42c0 -48 36 -60 62 -60c54 0 87 25 92 28z" />
    <glyph glyph-name="b" unicode="b" horiz-adv-x="586" 
d="M547 261c0 -166 -102 -276 -277 -276c-104 0 -202 38 -212 42v697h160v-244c6 3 51 31 117 31c114 0 212 -92 212 -250zM389 260c0 85 -45 125 -101 125c-38 0 -64 -18 -70 -22v-242s23 -9 58 -9c61 0 113 48 113 148z" />
    <glyph glyph-name="c" unicode="c" horiz-adv-x="510" 
d="M494 50c-3 -2 -71 -65 -195 -65c-161 0 -260 116 -260 261c0 152 118 265 268 265c111 0 172 -52 179 -62l-63 -97c-4 3 -45 30 -93 30c-78 0 -130 -57 -130 -133c0 -79 39 -135 121 -135c59 0 109 34 112 36z" />
    <glyph glyph-name="d" unicode="d" horiz-adv-x="590" 
d="M532 0h-132v38c-7 -7 -52 -52 -137 -52c-137 0 -224 105 -224 255c0 162 117 270 237 270c52 0 84 -16 96 -21v234h160v-724zM372 137v226c-4 3 -29 21 -68 21c-60 0 -106 -53 -106 -139c0 -84 46 -131 104 -131c40 0 61 18 70 23z" />
    <glyph glyph-name="e" unicode="e" horiz-adv-x="551" 
d="M512 246c0 -21 -2 -34 -2 -46h-328c0 -35 31 -101 127 -101c67 0 118 30 127 35l47 -94c-6 -6 -87 -55 -187 -55c-186 0 -257 135 -257 260c0 152 99 266 244 266c149 0 229 -105 229 -265zM372 306c0 19 -8 96 -86 96c-83 0 -100 -82 -101 -96h187z" />
    <glyph glyph-name="f" unicode="f" horiz-adv-x="484" 
d="M488 691l-58 -99c-7 4 -38 22 -72 22c-65 0 -68 -50 -68 -96v-22h136v-125h-136v-371h-160v371h-88v125h88v10c0 120 29 156 54 181c18 18 59 53 154 53c92 0 146 -45 150 -49z" />
    <glyph glyph-name="g" unicode="g" horiz-adv-x="587" 
d="M529 12c0 -62 4 -120 -55 -178c-25 -25 -81 -69 -191 -69c-143 0 -220 64 -231 74l63 99c7 -5 70 -45 149 -45c76 0 108 34 108 101v38c-6 -4 -40 -33 -107 -33c-160 0 -226 128 -226 245c0 147 105 267 272 267c112 0 203 -48 218 -56v-443zM372 149v222
c-10 5 -31 13 -64 13c-61 0 -111 -49 -111 -133c0 -82 48 -125 102 -125c44 0 71 22 73 23z" />
    <glyph glyph-name="h" unicode="h" horiz-adv-x="566" 
d="M515 0h-160v268c0 54 -2 79 -17 94c-5 5 -17 15 -44 15c-36 0 -69 -23 -76 -28v-349h-160v724h160v-248c3 2 55 35 116 35c52 0 97 -15 128 -46c55 -55 53 -129 53 -193v-272z" />
    <glyph glyph-name="i" unicode="i" horiz-adv-x="271" 
d="M220 636c0 -47 -37 -85 -84 -85s-85 38 -85 85s38 84 85 84s84 -37 84 -84zM215 0h-160v496h160v-496z" />
    <glyph glyph-name="j" unicode="j" horiz-adv-x="271" 
d="M220 636c0 -47 -37 -85 -84 -85s-85 38 -85 85s38 84 85 84s84 -37 84 -84zM217 -8c0 -52 2 -120 -54 -176c-29 -29 -74 -51 -138 -51c-73 0 -124 32 -124 32l42 106c11 -4 28 -12 55 -12c23 0 35 6 43 14c12 12 16 24 16 71v520h160v-504z" />
    <glyph glyph-name="k" unicode="k" horiz-adv-x="561" 
d="M557 0h-185l-154 223v-223h-160v724h160v-402l152 174h185l-201 -221z" />
    <glyph glyph-name="l" unicode="l" horiz-adv-x="276" 
d="M218 0h-160v724h160v-724z" />
    <glyph glyph-name="m" unicode="m" horiz-adv-x="840" 
d="M789 0h-160v275c0 49 2 100 -56 100c-35 0 -67 -23 -74 -28c4 -16 5 -22 5 -90v-257h-160v275c0 49 1 100 -57 100c-33 0 -63 -19 -69 -23v-352h-160v496h132v-36c9 9 57 51 127 51c79 0 114 -43 124 -54c9 7 75 54 163 54c69 0 109 -26 132 -49c58 -58 53 -151 53 -250
v-212z" />
    <glyph glyph-name="n" unicode="n" horiz-adv-x="566" 
d="M515 0h-160v268c0 54 -2 79 -17 94c-5 5 -17 15 -44 15c-36 0 -69 -23 -76 -28v-349h-160v496h132v-40c5 5 67 55 147 55c40 0 87 -8 125 -46c55 -55 53 -129 53 -193v-272z" />
    <glyph glyph-name="o" unicode="o" horiz-adv-x="601" 
d="M562 256c0 -159 -111 -271 -269 -271c-150 0 -254 109 -254 259c0 154 112 267 266 267c150 0 257 -110 257 -255zM402 247c0 82 -39 136 -103 136c-61 0 -100 -50 -100 -133c0 -84 42 -136 106 -136c62 0 97 50 97 133z" />
    <glyph glyph-name="p" unicode="p" horiz-adv-x="590" 
d="M551 255c0 -162 -117 -270 -237 -270c-52 0 -84 16 -96 21v-225h-160v715h132v-38c7 7 52 52 137 52c137 0 224 -105 224 -255zM392 252c0 84 -46 131 -104 131c-40 0 -61 -18 -70 -23v-226c4 -3 29 -21 68 -21c60 0 106 53 106 139z" />
    <glyph glyph-name="q" unicode="q" horiz-adv-x="587" 
d="M529 -219h-160v238c-4 -3 -46 -34 -103 -34c-162 0 -227 128 -227 253c0 151 104 273 272 273c112 0 203 -48 218 -56v-674zM369 135v236c-10 5 -29 13 -61 13c-60 0 -111 -48 -111 -139c0 -90 48 -133 102 -133c43 0 68 22 70 23z" />
    <glyph glyph-name="r" unicode="r" horiz-adv-x="429" 
d="M417 496l-36 -120c-3 1 -17 4 -30 4c-70 0 -115 -40 -133 -68v-312h-160v496h132v-66c3 5 64 81 166 81c38 0 59 -14 61 -15z" />
    <glyph glyph-name="s" unicode="s" horiz-adv-x="469" 
d="M423 145c0 -81 -72 -160 -193 -160c-117 0 -192 47 -198 53l50 100c14 -7 69 -39 126 -39c45 0 60 23 60 43c0 13 -2 19 -13 30c-26 26 -117 46 -165 94c-20 20 -38 46 -38 85c0 93 81 160 205 160c98 0 155 -36 166 -45l-49 -94c-8 5 -61 34 -113 34
c-36 0 -56 -14 -56 -38c0 -67 218 -55 218 -223z" />
    <glyph glyph-name="t" unicode="t" horiz-adv-x="460" 
d="M422 20c-3 -3 -56 -35 -135 -35c-48 0 -102 13 -137 48c-45 45 -45 95 -45 170v168h-86v125h86v137h160v-137h135v-125h-135v-179c0 -34 2 -78 58 -78c29 0 49 7 59 11z" />
    <glyph glyph-name="u" unicode="u" horiz-adv-x="566" 
d="M508 0h-130v44c-4 -4 -67 -59 -146 -59c-52 0 -94 14 -128 48c-55 55 -53 129 -53 193v270h160v-267c0 -54 2 -79 17 -94c5 -5 17 -15 44 -15c36 0 68 23 76 28v348h160v-496z" />
    <glyph glyph-name="v" unicode="v" horiz-adv-x="553" 
d="M537 496l-189 -496h-150l-186 496h165l104 -319l102 319h154z" />
    <glyph glyph-name="w" unicode="w" horiz-adv-x="797" 
d="M763 496l-133 -496h-163l-81 306l-74 -306h-157l-142 496h152l78 -320l82 320h135l82 -320l75 320h146z" />
    <glyph glyph-name="x" unicode="x" horiz-adv-x="597" 
d="M577 0h-180l-101 151l-99 -151h-172l187 246l-179 250h180l94 -134l85 134h166l-171 -246z" />
    <glyph glyph-name="y" unicode="y" horiz-adv-x="610" 
d="M583 496l-197 -491c-55 -138 -73 -161 -99 -187c-18 -18 -59 -53 -153 -53c-80 0 -131 33 -135 36l48 110c7 -3 40 -19 79 -19c30 0 48 9 63 24c22 22 40 78 42 86l-210 494h170l120 -331l114 331h158z" />
    <glyph glyph-name="z" unicode="z" horiz-adv-x="554" 
d="M496 0h-443v107l243 264h-230v125h418v-117l-231 -249h243v-130z" />
    <glyph glyph-name="braceleft" unicode="{" horiz-adv-x="452" 
d="M399 -127h-53c-66 0 -149 3 -200 54c-37 37 -40 85 -40 149v81c0 62 -8 71 -53 79v103c45 8 53 17 53 79v46c0 64 3 112 40 149c55 55 145 54 200 54h53v-123c-55 -3 -104 -4 -122 -22c-14 -14 -14 -34 -14 -100c0 -46 -4 -132 -66 -133c64 0 66 -98 66 -136v-31
c0 -61 -2 -89 14 -105c18 -18 64 -18 122 -21v-123z" />
    <glyph glyph-name="bar" unicode="|" horiz-adv-x="300" 
d="M231 -127h-162v794h162v-794z" />
    <glyph glyph-name="braceright" unicode="}" horiz-adv-x="452" 
d="M399 236c-45 -8 -53 -17 -53 -79v-81c0 -64 -3 -112 -40 -149c-51 -51 -134 -54 -200 -54h-53v123c58 3 104 3 122 21c16 16 14 44 14 105v31c0 38 2 136 66 136c-62 1 -66 87 -66 133c0 66 0 86 -14 100c-18 18 -67 19 -122 22v123h53c55 0 145 1 200 -54
c37 -37 40 -85 40 -149v-46c0 -62 8 -71 53 -79v-103z" />
    <glyph glyph-name="asciitilde" unicode="~" horiz-adv-x="661" 
d="M581 278c-5 -11 -56 -94 -148 -94c-82 0 -145 57 -203 57c-42 0 -67 -40 -71 -46l-79 54c5 14 51 96 153 96c86 0 142 -57 198 -57c34 0 56 27 75 49z" />
    <glyph glyph-name="Adieresis" unicode="&#xc4;" horiz-adv-x="684" 
d="M666 0h-170l-38 122h-234l-39 -122h-167l241 667h164zM418 245l-79 250l-77 -250h156zM522 819c0 -43 -36 -78 -79 -78s-78 35 -78 78s35 79 78 79s79 -36 79 -79zM312 819c0 -43 -36 -78 -79 -78s-78 35 -78 78s35 79 78 79s79 -36 79 -79z" />
    <glyph glyph-name="Aring" unicode="&#xc5;" horiz-adv-x="684" 
d="M666 0h-170l-38 122h-234l-39 -122h-167l241 667h164zM418 245l-79 250l-77 -250h156zM455 845c0 -63 -50 -114 -113 -114s-114 51 -114 114c0 62 51 113 114 113c62 0 113 -50 113 -113zM387 846c0 25 -21 46 -46 46s-46 -21 -46 -46s21 -46 46 -46s46 21 46 46z" />
    <glyph glyph-name="Ccedilla" unicode="&#xc7;" horiz-adv-x="663" 
d="M639 71c-2 -2 -86 -88 -257 -88l-4 -28c6 1 12 3 20 3c56 0 96 -36 96 -91c0 -64 -54 -102 -108 -102c-42 0 -75 16 -85 26l23 47s23 -15 54 -15c40 0 50 26 50 42c0 22 -20 38 -45 38c-21 0 -37 -10 -42 -14l-33 19l12 80c-141 19 -277 133 -277 337
c0 222 153 359 360 359c143 0 213 -60 230 -77l-70 -107c-7 5 -66 45 -146 45c-122 0 -208 -88 -208 -211c0 -116 71 -210 193 -210c86 0 152 45 170 56z" />
    <glyph glyph-name="Eacute" unicode="&#xc9;" horiz-adv-x="542" 
d="M496 0h-430v667h422v-131h-258v-133h242v-128h-242v-142h266v-133zM444 832l-247 -100l-50 84l235 131z" />
    <glyph glyph-name="Ntilde" unicode="&#xd1;" horiz-adv-x="680" 
d="M614 0h-134l-269 408l4 -408h-149v667h144l259 -403l-3 403h148v-667zM523 820c-17 -20 -70 -85 -132 -85c-47 0 -75 32 -108 32c-24 0 -49 -25 -66 -39l-64 64c8 10 64 85 132 85c44 0 73 -31 107 -31c28 0 48 21 67 38z" />
    <glyph glyph-name="Odieresis" unicode="&#xd6;" horiz-adv-x="756" 
d="M713 340c0 -217 -140 -357 -333 -357c-204 0 -337 148 -337 360c0 201 134 341 333 341c206 0 337 -147 337 -344zM547 341c0 121 -68 210 -175 210c-99 0 -163 -91 -163 -223c0 -135 75 -209 173 -209c140 0 165 135 165 222zM564 819c0 -43 -36 -78 -79 -78
s-78 35 -78 78s35 79 78 79s79 -36 79 -79zM354 819c0 -43 -36 -78 -79 -78s-78 35 -78 78s35 79 78 79s79 -36 79 -79z" />
    <glyph glyph-name="Udieresis" unicode="&#xdc;" horiz-adv-x="669" 
d="M608 272c0 -116 -18 -164 -66 -212c-23 -22 -78 -77 -209 -77c-73 0 -148 19 -207 78c-58 58 -65 133 -65 230v376h165v-411c0 -34 3 -74 30 -101c17 -17 46 -28 81 -28c43 0 66 15 83 32c26 26 28 60 28 137v371h160v-395zM517 819c0 -43 -36 -78 -79 -78s-78 35 -78 78
s35 79 78 79s79 -36 79 -79zM307 819c0 -43 -36 -78 -79 -78s-78 35 -78 78s35 79 78 79s79 -36 79 -79z" />
    <glyph glyph-name="aacute" unicode="&#xe1;" horiz-adv-x="523" 
d="M472 0h-132v42c-11 -9 -62 -53 -140 -53c-100 0 -161 67 -161 162c0 183 221 183 273 183h11c0 16 1 32 -12 45c-8 8 -24 16 -59 16c-70 0 -132 -31 -138 -34l-48 95c8 6 76 54 194 54c76 0 133 -19 172 -58c43 -43 40 -101 40 -162v-290zM325 131v101
c-38 0 -108 2 -137 -27c-9 -9 -17 -22 -17 -42c0 -48 36 -60 62 -60c54 0 87 25 92 28zM422 645l-247 -100l-50 84l235 131z" />
    <glyph glyph-name="agrave" unicode="&#xe0;" horiz-adv-x="523" 
d="M472 0h-132v42c-11 -9 -62 -53 -140 -53c-100 0 -161 67 -161 162c0 183 221 183 273 183h11c0 16 1 32 -12 45c-8 8 -24 16 -59 16c-70 0 -132 -31 -138 -34l-48 95c8 6 76 54 194 54c76 0 133 -19 172 -58c43 -43 40 -101 40 -162v-290zM325 131v101
c-38 0 -108 2 -137 -27c-9 -9 -17 -22 -17 -42c0 -48 36 -60 62 -60c54 0 87 25 92 28zM418 629l-50 -84l-247 100l62 115z" />
    <glyph glyph-name="acircumflex" unicode="&#xe2;" horiz-adv-x="523" 
d="M472 0h-132v42c-11 -9 -62 -53 -140 -53c-100 0 -161 67 -161 162c0 183 221 183 273 183h11c0 16 1 32 -12 45c-8 8 -24 16 -59 16c-70 0 -132 -31 -138 -34l-48 95c8 6 76 54 194 54c76 0 133 -19 172 -58c43 -43 40 -101 40 -162v-290zM325 131v101
c-38 0 -108 2 -137 -27c-9 -9 -17 -22 -17 -42c0 -48 36 -60 62 -60c54 0 87 25 92 28zM447 618l-54 -71l-129 72l-129 -71l-52 78l181 135z" />
    <glyph glyph-name="adieresis" unicode="&#xe4;" horiz-adv-x="523" 
d="M472 0h-132v42c-11 -9 -62 -53 -140 -53c-100 0 -161 67 -161 162c0 183 221 183 273 183h11c0 16 1 32 -12 45c-8 8 -24 16 -59 16c-70 0 -132 -31 -138 -34l-48 95c8 6 76 54 194 54c76 0 133 -19 172 -58c43 -43 40 -101 40 -162v-290zM325 131v101
c-38 0 -108 2 -137 -27c-9 -9 -17 -22 -17 -42c0 -48 36 -60 62 -60c54 0 87 25 92 28zM440 647c0 -43 -36 -78 -79 -78s-78 35 -78 78s35 79 78 79s79 -36 79 -79zM230 647c0 -43 -36 -78 -79 -78s-78 35 -78 78s35 79 78 79s79 -36 79 -79z" />
    <glyph glyph-name="atilde" unicode="&#xe3;" horiz-adv-x="523" 
d="M472 0h-132v42c-11 -9 -62 -53 -140 -53c-100 0 -161 67 -161 162c0 183 221 183 273 183h11c0 16 1 32 -12 45c-8 8 -24 16 -59 16c-70 0 -132 -31 -138 -34l-48 95c8 6 76 54 194 54c76 0 133 -19 172 -58c43 -43 40 -101 40 -162v-290zM325 131v101
c-38 0 -108 2 -137 -27c-9 -9 -17 -22 -17 -42c0 -48 36 -60 62 -60c54 0 87 25 92 28zM452 662c-17 -20 -70 -85 -132 -85c-47 0 -75 32 -108 32c-24 0 -49 -25 -66 -39l-64 64c8 10 64 85 132 85c44 0 73 -31 107 -31c28 0 48 21 67 38z" />
    <glyph glyph-name="aring" unicode="&#xe5;" horiz-adv-x="523" 
d="M472 0h-132v42c-11 -9 -62 -53 -140 -53c-100 0 -161 67 -161 162c0 183 221 183 273 183h11c0 16 1 32 -12 45c-8 8 -24 16 -59 16c-70 0 -132 -31 -138 -34l-48 95c8 6 76 54 194 54c76 0 133 -19 172 -58c43 -43 40 -101 40 -162v-290zM325 131v101
c-38 0 -108 2 -137 -27c-9 -9 -17 -22 -17 -42c0 -48 36 -60 62 -60c54 0 87 25 92 28zM374 662c0 -63 -50 -114 -113 -114s-114 51 -114 114c0 62 51 113 114 113c62 0 113 -50 113 -113zM306 663c0 25 -21 46 -46 46s-46 -21 -46 -46s21 -46 46 -46s46 21 46 46z" />
    <glyph glyph-name="ccedilla" unicode="&#xe7;" horiz-adv-x="510" 
d="M494 50c-3 -2 -71 -65 -195 -65l-5 -30c6 1 12 3 20 3c56 0 96 -36 96 -91c0 -64 -54 -102 -108 -102c-42 0 -75 16 -85 26l23 47s23 -15 54 -15c40 0 50 26 50 42c0 22 -20 38 -45 38c-21 0 -37 -10 -42 -14l-33 19l13 83c-105 21 -198 110 -198 255
c0 152 118 265 268 265c111 0 172 -52 179 -62l-63 -97c-4 3 -45 30 -93 30c-78 0 -130 -57 -130 -133c0 -79 39 -135 121 -135c59 0 109 34 112 36z" />
    <glyph glyph-name="eacute" unicode="&#xe9;" horiz-adv-x="551" 
d="M512 246c0 -21 -2 -34 -2 -46h-328c0 -35 31 -101 127 -101c67 0 118 30 127 35l47 -94c-6 -6 -87 -55 -187 -55c-186 0 -257 135 -257 260c0 152 99 266 244 266c149 0 229 -105 229 -265zM372 306c0 19 -8 96 -86 96c-83 0 -100 -82 -101 -96h187zM417 645l-247 -100
l-50 84l235 131z" />
    <glyph glyph-name="egrave" unicode="&#xe8;" horiz-adv-x="551" 
d="M512 246c0 -21 -2 -34 -2 -46h-328c0 -35 31 -101 127 -101c67 0 118 30 127 35l47 -94c-6 -6 -87 -55 -187 -55c-186 0 -257 135 -257 260c0 152 99 266 244 266c149 0 229 -105 229 -265zM372 306c0 19 -8 96 -86 96c-83 0 -100 -82 -101 -96h187zM435 629l-50 -84
l-247 100l62 115z" />
    <glyph glyph-name="ecircumflex" unicode="&#xea;" horiz-adv-x="551" 
d="M512 246c0 -21 -2 -34 -2 -46h-328c0 -35 31 -101 127 -101c67 0 118 30 127 35l47 -94c-6 -6 -87 -55 -187 -55c-186 0 -257 135 -257 260c0 152 99 266 244 266c149 0 229 -105 229 -265zM372 306c0 19 -8 96 -86 96c-83 0 -100 -82 -101 -96h187zM470 618l-54 -71
l-129 72l-129 -71l-52 78l181 135z" />
    <glyph glyph-name="edieresis" unicode="&#xeb;" horiz-adv-x="551" 
d="M512 246c0 -21 -2 -34 -2 -46h-328c0 -35 31 -101 127 -101c67 0 118 30 127 35l47 -94c-6 -6 -87 -55 -187 -55c-186 0 -257 135 -257 260c0 152 99 266 244 266c149 0 229 -105 229 -265zM372 306c0 19 -8 96 -86 96c-83 0 -100 -82 -101 -96h187zM466 647
c0 -43 -36 -78 -79 -78s-78 35 -78 78s35 79 78 79s79 -36 79 -79zM256 647c0 -43 -36 -78 -79 -78s-78 35 -78 78s35 79 78 79s79 -36 79 -79z" />
    <glyph glyph-name="iacute" unicode="&#xed;" horiz-adv-x="271" 
d="M215 0h-160v496h160v-496zM284 645l-247 -100l-50 84l235 131z" />
    <glyph glyph-name="igrave" unicode="&#xec;" horiz-adv-x="271" 
d="M215 0h-160v496h160v-496zM284 629l-50 -84l-247 100l62 115z" />
    <glyph glyph-name="icircumflex" unicode="&#xee;" horiz-adv-x="271" 
d="M215 0h-160v496h160v-496zM318 618l-54 -71l-129 72l-129 -71l-52 78l181 135z" />
    <glyph glyph-name="idieresis" unicode="&#xef;" horiz-adv-x="271" 
d="M319 647c0 -43 -36 -78 -79 -78s-78 35 -78 78s35 79 78 79s79 -36 79 -79zM109 647c0 -43 -36 -78 -79 -78s-78 35 -78 78s35 79 78 79s79 -36 79 -79zM215 0h-160v496h160v-496z" />
    <glyph glyph-name="ntilde" unicode="&#xf1;" horiz-adv-x="566" 
d="M515 0h-160v268c0 54 -2 79 -17 94c-5 5 -17 15 -44 15c-36 0 -69 -23 -76 -28v-349h-160v496h132v-40c5 5 67 55 147 55c40 0 87 -8 125 -46c55 -55 53 -129 53 -193v-272zM479 662c-17 -20 -70 -85 -132 -85c-47 0 -75 32 -108 32c-24 0 -49 -25 -66 -39l-64 64
c8 10 64 85 132 85c44 0 73 -31 107 -31c28 0 48 21 67 38z" />
    <glyph glyph-name="oacute" unicode="&#xf3;" horiz-adv-x="601" 
d="M562 256c0 -159 -111 -271 -269 -271c-150 0 -254 109 -254 259c0 154 112 267 266 267c150 0 257 -110 257 -255zM402 247c0 82 -39 136 -103 136c-61 0 -100 -50 -100 -133c0 -84 42 -136 106 -136c62 0 97 50 97 133zM452 645l-247 -100l-50 84l235 131z" />
    <glyph glyph-name="ograve" unicode="&#xf2;" horiz-adv-x="601" 
d="M562 256c0 -159 -111 -271 -269 -271c-150 0 -254 109 -254 259c0 154 112 267 266 267c150 0 257 -110 257 -255zM402 247c0 82 -39 136 -103 136c-61 0 -100 -50 -100 -133c0 -84 42 -136 106 -136c62 0 97 50 97 133zM458 629l-50 -84l-247 100l62 115z" />
    <glyph glyph-name="ocircumflex" unicode="&#xf4;" horiz-adv-x="601" 
d="M562 256c0 -159 -111 -271 -269 -271c-150 0 -254 109 -254 259c0 154 112 267 266 267c150 0 257 -110 257 -255zM402 247c0 82 -39 136 -103 136c-61 0 -100 -50 -100 -133c0 -84 42 -136 106 -136c62 0 97 50 97 133zM493 618l-54 -71l-129 72l-129 -71l-52 78
l181 135z" />
    <glyph glyph-name="odieresis" unicode="&#xf6;" horiz-adv-x="601" 
d="M562 256c0 -159 -111 -271 -269 -271c-150 0 -254 109 -254 259c0 154 112 267 266 267c150 0 257 -110 257 -255zM402 247c0 82 -39 136 -103 136c-61 0 -100 -50 -100 -133c0 -84 42 -136 106 -136c62 0 97 50 97 133zM489 647c0 -43 -36 -78 -79 -78s-78 35 -78 78
s35 79 78 79s79 -36 79 -79zM279 647c0 -43 -36 -78 -79 -78s-78 35 -78 78s35 79 78 79s79 -36 79 -79z" />
    <glyph glyph-name="otilde" unicode="&#xf5;" horiz-adv-x="601" 
d="M562 256c0 -159 -111 -271 -269 -271c-150 0 -254 109 -254 259c0 154 112 267 266 267c150 0 257 -110 257 -255zM402 247c0 82 -39 136 -103 136c-61 0 -100 -50 -100 -133c0 -84 42 -136 106 -136c62 0 97 50 97 133zM475 662c-17 -20 -70 -85 -132 -85
c-47 0 -75 32 -108 32c-24 0 -49 -25 -66 -39l-64 64c8 10 64 85 132 85c44 0 73 -31 107 -31c28 0 48 21 67 38z" />
    <glyph glyph-name="uacute" unicode="&#xfa;" horiz-adv-x="566" 
d="M508 0h-130v44c-4 -4 -67 -59 -146 -59c-52 0 -94 14 -128 48c-55 55 -53 129 -53 193v270h160v-267c0 -54 2 -79 17 -94c5 -5 17 -15 44 -15c36 0 68 23 76 28v348h160v-496zM443 645l-247 -100l-50 84l235 131z" />
    <glyph glyph-name="ugrave" unicode="&#xf9;" horiz-adv-x="566" 
d="M508 0h-130v44c-4 -4 -67 -59 -146 -59c-52 0 -94 14 -128 48c-55 55 -53 129 -53 193v270h160v-267c0 -54 2 -79 17 -94c5 -5 17 -15 44 -15c36 0 68 23 76 28v348h160v-496zM431 629l-50 -84l-247 100l62 115z" />
    <glyph glyph-name="ucircumflex" unicode="&#xfb;" horiz-adv-x="566" 
d="M508 0h-130v44c-4 -4 -67 -59 -146 -59c-52 0 -94 14 -128 48c-55 55 -53 129 -53 193v270h160v-267c0 -54 2 -79 17 -94c5 -5 17 -15 44 -15c36 0 68 23 76 28v348h160v-496zM452 618l-54 -71l-129 72l-129 -71l-52 78l181 135z" />
    <glyph glyph-name="udieresis" unicode="&#xfc;" horiz-adv-x="566" 
d="M508 0h-130v44c-4 -4 -67 -59 -146 -59c-52 0 -94 14 -128 48c-55 55 -53 129 -53 193v270h160v-267c0 -54 2 -79 17 -94c5 -5 17 -15 44 -15c36 0 68 23 76 28v348h160v-496zM448 647c0 -43 -36 -78 -79 -78s-78 35 -78 78s35 79 78 79s79 -36 79 -79zM238 647
c0 -43 -36 -78 -79 -78s-78 35 -78 78s35 79 78 79s79 -36 79 -79z" />
    <glyph glyph-name="dagger" unicode="&#x2020;" horiz-adv-x="669" 
d="M585 323h-177l-11 -450h-129l-11 450h-172v133h170l-6 211h168l-7 -211h175v-133z" />
    <glyph glyph-name="degree" unicode="&#xb0;" horiz-adv-x="657" 
d="M488 531c0 -88 -72 -160 -160 -160s-159 72 -159 160s71 159 159 159s160 -71 160 -159zM397 531c0 41 -31 73 -69 73s-69 -32 -69 -73s31 -72 69 -72s69 31 69 72z" />
    <glyph glyph-name="cent" unicode="&#xa2;" horiz-adv-x="661" 
d="M566 55c-3 -2 -58 -51 -145 -61v-108h-100v108c-113 17 -210 109 -210 257c0 163 129 247 210 259v111h100v-108c78 -8 130 -49 137 -59l-63 -97c-4 3 -45 30 -93 30c-78 0 -130 -57 -130 -133c0 -79 39 -135 121 -135c59 0 109 34 112 36z" />
    <glyph glyph-name="sterling" unicode="&#xa3;" horiz-adv-x="661" 
d="M605 598l-80 -95c-10 9 -60 47 -120 47c-59 0 -99 -38 -99 -103c0 -31 6 -66 7 -70h184v-128h-169c1 -5 1 -12 1 -13c0 -29 -11 -81 -41 -103h304v-133h-518v122c88 12 97 77 97 115c0 6 -2 12 -2 12h-92v128h78c-2 23 -4 47 -4 70c0 148 91 237 248 237
c133 0 200 -79 206 -86z" />
    <glyph glyph-name="section" unicode="&#xa7;" horiz-adv-x="661" 
d="M541 295c0 -49 -27 -101 -92 -136c32 -17 68 -66 68 -120c0 -108 -79 -186 -223 -186c-114 0 -179 53 -184 57l58 98c9 -5 65 -36 119 -36c63 0 87 24 87 57c0 15 -9 27 -18 35c-27 23 -122 38 -178 88c-27 25 -49 62 -49 112c0 60 43 105 95 129c-53 33 -80 68 -80 119
c0 99 70 174 216 174c105 0 163 -46 169 -51l-55 -92c-10 6 -54 30 -102 30c-60 0 -82 -22 -82 -49c0 -13 7 -23 17 -32c32 -28 136 -42 192 -92c26 -23 42 -57 42 -105zM414 276c0 9 -1 19 -14 32c-16 16 -68 37 -90 45c-11 -5 -56 -22 -56 -65c0 -16 6 -26 14 -34
c16 -16 45 -28 86 -43c9 5 60 26 60 65z" />
    <glyph glyph-name="bullet" unicode="&#x2022;" horiz-adv-x="409" 
d="M331 287c0 -70 -56 -127 -126 -127s-127 57 -127 127s57 126 127 126s126 -56 126 -126z" />
    <glyph glyph-name="paragraph" unicode="&#xb6;" horiz-adv-x="742" 
d="M698 553h-91v-680h-115v680h-86v-680h-115v386c-46 1 -137 2 -193 58c-30 30 -58 72 -58 152c0 56 20 102 56 138c54 54 130 60 260 60h342v-114z" />
    <glyph glyph-name="germandbls" unicode="&#xdf;" horiz-adv-x="596" 
d="M568 162c0 -108 -89 -172 -199 -172c-63 0 -108 20 -120 25l39 119c10 -3 34 -13 65 -13c42 0 62 20 62 46c0 20 -10 34 -20 44c-45 45 -134 67 -134 142c0 81 97 109 97 196c0 30 -25 60 -61 60c-29 0 -45 -12 -55 -23c-31 -35 -29 -103 -29 -124v-462h-155v526
c0 72 27 118 58 149c38 39 99 65 173 65c132 0 220 -78 220 -193c0 -106 -86 -119 -86 -178c0 -58 145 -65 145 -207z" />
    <glyph glyph-name="registered" unicode="&#xae;" horiz-adv-x="541" 
d="M495 459c0 -125 -100 -224 -225 -224s-225 99 -225 224s100 225 225 225s225 -100 225 -225zM437 459c0 93 -74 165 -167 165s-167 -72 -167 -165s74 -164 167 -164s167 71 167 164zM367 351h-58l-22 49c-3 6 -10 22 -17 29c-6 6 -13 6 -21 6h-3v-84h-54v223h60
c29 0 59 2 81 -20c10 -10 18 -24 18 -44c0 -31 -20 -54 -59 -58c13 -1 23 -5 30 -12c10 -10 16 -25 23 -40zM298 505c0 6 -1 14 -6 19c-7 7 -18 8 -33 8h-13v-56h16c13 0 36 0 36 29z" />
    <glyph glyph-name="copyright" unicode="&#xa9;" horiz-adv-x="781" 
d="M741 333c0 -193 -157 -350 -350 -350s-351 157 -351 350s157 351 351 351c195 0 350 -163 350 -351zM643 333c0 139 -113 252 -252 252s-253 -113 -253 -252s114 -251 253 -251s252 112 252 251zM535 193c-2 -1 -53 -43 -134 -43c-118 0 -190 83 -190 188
c0 110 86 191 196 191c80 0 113 -35 121 -41l-36 -55c-5 3 -26 22 -70 22c-75 0 -112 -64 -112 -112c0 -63 32 -119 109 -119c36 0 75 23 80 26z" />
    <glyph glyph-name="trademark" unicode="&#x2122;" horiz-adv-x="884" 
d="M839 313h-94l-18 195l-61 -195h-81l-64 195l-14 -195h-90l35 355h104l73 -217l69 217h104zM358 585h-104v-273h-99v273h-104v82h307v-82z" />
    <glyph glyph-name="acute" unicode="&#xb4;" horiz-adv-x="443" 
d="M370 645l-247 -100l-50 84l235 131z" />
    <glyph glyph-name="dieresis" unicode="&#xa8;" horiz-adv-x="443" 
d="M405 647c0 -43 -36 -78 -79 -78s-78 35 -78 78s35 79 78 79s79 -36 79 -79zM195 647c0 -43 -36 -78 -79 -78s-78 35 -78 78s35 79 78 79s79 -36 79 -79z" />
    <glyph glyph-name="notequal" unicode="&#x2260;" horiz-adv-x="662" 
d="M608 106h-309l-65 -98l-85 55l31 43h-126v128h199l40 65h-239v128h318l58 96l85 -54l-27 -42h120v-128h-197l-40 -65h237v-128z" />
    <glyph glyph-name="AE" unicode="&#xc6;" horiz-adv-x="941" 
d="M897 0h-430v126h-222l-68 -126h-170l397 667h485v-131h-258v-133h242v-128h-242v-142h266v-133zM467 259v277l-150 -277h150z" />
    <glyph glyph-name="Oslash" unicode="&#xd8;" horiz-adv-x="755" 
d="M713 340c0 -217 -140 -357 -333 -357c-51 0 -87 9 -112 17l-48 -86l-113 62l50 86c-71 65 -114 156 -114 281c0 201 134 341 333 341c58 0 105 -13 115 -17l48 84l114 -60l-49 -88c60 -52 109 -142 109 -263zM547 341c0 121 -68 210 -175 210c-99 0 -163 -91 -163 -223
c0 -135 75 -209 173 -209c140 0 165 135 165 222z" />
    <glyph glyph-name="infinity" unicode="&#x221e;" horiz-adv-x="833" 
d="M770 284c0 -90 -74 -162 -167 -162c-96 0 -173 82 -183 91c-10 -9 -92 -96 -190 -96c-90 0 -167 74 -167 158c0 92 72 160 167 160c97 0 174 -77 187 -89c14 14 83 93 191 93c95 0 162 -64 162 -155zM659 283c0 31 -26 55 -62 55c-49 0 -95 -50 -101 -56
c7 -5 62 -52 105 -52c32 0 58 19 58 53zM343 280c-10 9 -57 53 -108 53c-36 0 -60 -22 -60 -54c0 -31 27 -54 58 -54c52 0 101 48 110 55z" />
    <glyph glyph-name="plusminus" unicode="&#xb1;" horiz-adv-x="662" 
d="M608 363h-211v-196h-132v196h-211v128h211v194h132v-194h211v-128zM608 0h-554v127h554v-127z" />
    <glyph glyph-name="lessequal" unicode="&#x2264;" horiz-adv-x="662" 
d="M604 273l-51 -117l-494 220v103l494 221l51 -123l-337 -150zM603 0h-544v127h544v-127z" />
    <glyph glyph-name="greaterequal" unicode="&#x2265;" horiz-adv-x="662" 
d="M604 376l-494 -220l-51 117l337 154l-337 150l51 123l494 -221v-103zM604 0h-544v127h544v-127z" />
    <glyph glyph-name="yen" unicode="&#xa5;" horiz-adv-x="661" 
d="M622 667l-154 -267h85v-104h-143v-71h141v-102h-141v-123h-158v123h-151v102h151v71h-153v104h91l-151 267h169l132 -272l130 272h152z" />
    <glyph glyph-name="mu" unicode="&#x3bc;" horiz-adv-x="572" 
d="M515 0h-130v44c-3 -3 -56 -56 -126 -56c-25 0 -58 9 -67 18v-133h-134v623h160v-267c0 -54 2 -79 17 -94c5 -5 17 -15 44 -15c36 0 68 23 76 28v348h160v-496z" />
    <glyph glyph-name="partialdiff" unicode="&#x2202;" horiz-adv-x="628" 
d="M565 337c0 -214 -90 -354 -255 -354c-145 0 -247 107 -247 254c0 148 96 274 237 274c56 0 89 -22 92 -22c-3 30 -27 118 -128 118c-57 0 -120 -40 -130 -46l-63 106c13 10 96 73 203 73c177 0 291 -119 291 -403zM406 316c0 17 -1 31 -3 44c-6 3 -35 21 -79 21
c-62 0 -103 -52 -103 -135c0 -81 37 -132 87 -132c58 0 98 62 98 202z" />
    <glyph glyph-name="summation" unicode="&#x2211;" horiz-adv-x="581" 
d="M519 0h-456v108l163 229l-163 221v109h456v-131h-241l136 -190l-152 -215h257v-131z" />
    <glyph glyph-name="product" unicode="&#x220f;" horiz-adv-x="780" 
d="M717 536h-81v-536h-164v536h-164v-536h-164v536h-81v131h654v-131z" />
    <glyph glyph-name="pi" unicode="&#x3c0;" horiz-adv-x="698" 
d="M629 5c-11 -3 -56 -17 -104 -17c-52 0 -83 11 -103 31c-25 25 -34 53 -34 134v218h-92v-371h-160v371h-67v125h552v-125h-72v-175c0 -31 -2 -55 12 -69c6 -6 17 -10 33 -10c12 0 26 2 35 4v-116z" />
    <glyph glyph-name="integral" unicode="&#x222b;" horiz-adv-x="584" 
d="M515 710l-42 -109c-7 3 -22 9 -40 9c-15 0 -32 -3 -44 -15c-10 -10 -17 -20 -17 -61v-550c0 -72 -5 -123 -53 -171c-35 -35 -95 -48 -138 -48c-57 0 -107 24 -112 30l42 109c7 -3 22 -9 40 -9c15 0 31 2 44 15c10 10 17 20 17 61v550c0 72 5 123 53 171
c35 35 95 48 138 48c57 0 107 -24 112 -30z" />
    <glyph glyph-name="ordfeminine" unicode="&#xaa;" horiz-adv-x="465" 
d="M386 306h-102v28c-28 -23 -63 -37 -100 -37c-75 0 -121 51 -121 122c0 136 164 137 203 137h6c0 11 -1 21 -9 29c-5 5 -16 11 -41 11c-34 0 -71 -11 -102 -26l-38 74c8 6 59 42 146 42c56 0 99 -15 128 -44c33 -33 30 -78 30 -121v-215zM275 405v73c-28 0 -79 1 -100 -20
c-7 -7 -12 -15 -12 -30c0 -35 26 -44 45 -44c24 0 47 7 67 21z" />
    <glyph glyph-name="ordmasculine" unicode="&#xba;" horiz-adv-x="465" 
d="M427 494c0 -118 -82 -202 -200 -202c-112 0 -189 81 -189 193c0 115 83 199 198 199c112 0 191 -82 191 -190zM305 487c0 60 -29 98 -74 98c-43 0 -71 -36 -71 -96c0 -61 31 -97 76 -97c44 0 69 34 69 95z" />
    <glyph glyph-name="Omega" unicode="&#x3a9;" horiz-adv-x="836" 
d="M773 0h-308v103c13 4 127 37 127 227c0 137 -70 219 -174 219s-174 -82 -174 -219c0 -186 109 -222 127 -227v-103h-308v133h110c-10 7 -94 62 -94 217c0 199 135 334 339 334s339 -135 339 -334c0 -149 -75 -202 -92 -217h108v-133z" />
    <glyph glyph-name="ae" unicode="&#xe6;" horiz-adv-x="842" 
d="M803 246c0 -21 -2 -34 -2 -46h-328c0 -35 31 -101 127 -101c67 0 118 30 127 35l47 -94c-6 -6 -87 -55 -187 -55c-113 0 -163 55 -181 73c-11 -10 -82 -73 -190 -73c-119 0 -177 71 -177 166c0 183 221 177 273 177h18c-2 48 -26 67 -78 67c-70 0 -132 -31 -138 -34
l-48 95c8 6 76 54 194 54c99 0 137 -38 154 -57c21 21 80 58 160 58c149 0 229 -105 229 -265zM663 306c0 19 -8 96 -86 96c-83 0 -100 -82 -101 -96h187zM352 143c-4 8 -17 30 -17 87c-73 0 -121 0 -146 -25c-9 -9 -18 -21 -18 -42c0 -43 31 -63 68 -63c55 0 98 31 113 43z
" />
    <glyph glyph-name="oslash" unicode="&#xf8;" horiz-adv-x="601" 
d="M562 256c0 -159 -111 -271 -269 -271c-26 0 -58 3 -77 11l-44 -76l-95 51l45 77c-33 25 -83 90 -83 196c0 154 111 267 266 267c37 0 65 -7 80 -12l45 76l93 -54l-46 -73c44 -35 85 -103 85 -192zM402 247c0 82 -39 136 -103 136c-61 0 -100 -50 -100 -133
c0 -84 42 -136 106 -136c62 0 97 50 97 133z" />
    <glyph glyph-name="questiondown" unicode="&#xbf;" horiz-adv-x="553" 
d="M406 418c0 -51 -42 -92 -93 -92s-92 41 -92 92s41 93 92 93s93 -42 93 -93zM512 -95c-5 -4 -106 -86 -234 -86c-137 0 -232 74 -232 191c0 50 19 89 47 117c41 42 117 76 132 91c10 10 16 16 17 68h138c1 -2 6 -31 6 -47c0 -43 -10 -72 -33 -95c-32 -32 -89 -53 -125 -89
c-4 -4 -19 -19 -19 -45c0 -36 28 -60 86 -60c73 0 144 50 151 55z" />
    <glyph glyph-name="exclamdown" unicode="&#xa1;" horiz-adv-x="409" 
d="M297 418c0 -51 -42 -92 -93 -92s-92 41 -92 92s41 93 92 93s93 -42 93 -93zM293 -164h-179l24 450h131z" />
    <glyph glyph-name="logicalnot" unicode="&#xac;" horiz-adv-x="662" 
d="M602 183h-141v152h-401v130h542v-282z" />
    <glyph glyph-name="radical" unicode="&#x221a;" horiz-adv-x="830" 
d="M767 699l-264 -699h-151l-129 336l-120 -41l-40 118l255 87l114 -302l202 547z" />
    <glyph glyph-name="florin" unicode="&#x192;" horiz-adv-x="661" 
d="M629 644l-44 -112c-13 5 -48 19 -74 19c-62 0 -65 -43 -82 -125l-10 -49h142l-28 -128h-142l-47 -256c-11 -59 -26 -131 -67 -172c-36 -36 -84 -56 -141 -56c-77 0 -139 37 -148 43l47 117c11 -4 43 -18 69 -18c24 0 40 7 48 15c11 11 16 16 29 82l49 245h-123l26 128
h125l15 79c20 105 33 142 63 172c38 38 83 56 143 56c80 0 142 -36 150 -40z" />
    <glyph glyph-name="approxequal" unicode="&#x2248;" horiz-adv-x="662" 
d="M581 377c-5 -11 -56 -94 -148 -94c-82 0 -145 57 -203 57c-42 0 -67 -40 -71 -46l-79 54c5 14 51 96 153 96c86 0 142 -57 198 -57c34 0 56 27 75 49zM581 184c-5 -11 -56 -94 -148 -94c-82 0 -145 57 -203 57c-42 0 -67 -40 -71 -46l-79 54c5 14 51 96 153 96
c86 0 142 -57 198 -57c34 0 56 27 75 49z" />
    <glyph glyph-name="Delta" unicode="&#x394;" horiz-adv-x="729" 
d="M666 0h-603l229 667h143zM478 125l-119 351l-118 -351h237z" />
    <glyph glyph-name="guillemotleft" unicode="&#xab;" horiz-adv-x="578" 
d="M519 100l-85 -52l-161 196l161 198l85 -62l-85 -136zM305 100l-85 -52l-161 196l161 198l85 -62l-85 -136z" />
    <glyph glyph-name="guillemotright" unicode="&#xbb;" horiz-adv-x="578" 
d="M519 244l-161 -196l-85 52l85 144l-85 136l85 62zM305 244l-161 -196l-85 52l85 144l-85 136l85 62z" />
    <glyph glyph-name="ellipsis" unicode="&#x2026;" horiz-adv-x="919" 
d="M860 85c0 -51 -41 -93 -92 -93s-93 42 -93 93s42 92 93 92s92 -41 92 -92zM552 85c0 -51 -41 -93 -92 -93s-93 42 -93 93s42 92 93 92s92 -41 92 -92zM244 85c0 -51 -41 -93 -92 -93s-93 42 -93 93s42 92 93 92s92 -41 92 -92z" />
    <glyph glyph-name="Agrave" unicode="&#xc0;" horiz-adv-x="684" 
d="M666 0h-170l-38 122h-234l-39 -122h-167l241 667h164zM418 245l-79 250l-77 -250h156zM486 816l-50 -84l-247 100l62 115z" />
    <glyph glyph-name="Atilde" unicode="&#xc3;" horiz-adv-x="684" 
d="M666 0h-170l-38 122h-234l-39 -122h-167l241 667h164zM418 245l-79 250l-77 -250h156zM522 820c-17 -20 -70 -85 -132 -85c-47 0 -75 32 -108 32c-24 0 -49 -25 -66 -39l-64 64c8 10 64 85 132 85c44 0 73 -31 107 -31c28 0 48 21 67 38z" />
    <glyph glyph-name="Otilde" unicode="&#xd5;" horiz-adv-x="756" 
d="M713 340c0 -217 -140 -357 -333 -357c-204 0 -337 148 -337 360c0 201 134 341 333 341c206 0 337 -147 337 -344zM547 341c0 121 -68 210 -175 210c-99 0 -163 -91 -163 -223c0 -135 75 -209 173 -209c140 0 165 135 165 222zM560 820c-17 -20 -70 -85 -132 -85
c-47 0 -75 32 -108 32c-24 0 -49 -25 -66 -39l-64 64c8 10 64 85 132 85c44 0 73 -31 107 -31c28 0 48 21 67 38z" />
    <glyph glyph-name="OE" unicode="&#x152;" horiz-adv-x="899" 
d="M853 0h-392c-145 0 -242 4 -329 91c-57 57 -89 145 -89 236c0 85 30 176 89 235c104 104 242 105 371 105h342v-131h-233v-133h217v-128h-217v-142h241v-133zM451 127v411h-36c-135 0 -207 -75 -207 -213c0 -66 17 -113 51 -147c48 -48 96 -51 180 -51h12z" />
    <glyph glyph-name="oe" unicode="&#x153;" horiz-adv-x="933" 
d="M894 246c0 -21 -2 -34 -2 -46h-328c0 -35 31 -101 127 -101c67 0 118 30 127 35l47 -94c-6 -6 -87 -55 -187 -55c-124 0 -178 60 -191 79c-16 -19 -78 -79 -194 -79c-150 0 -254 109 -254 259c0 154 112 267 266 267c108 0 172 -58 186 -76c10 15 67 76 174 76
c149 0 229 -105 229 -265zM754 306c0 19 -8 96 -86 96c-83 0 -100 -82 -101 -96h187zM402 247c0 82 -39 136 -103 136c-61 0 -100 -50 -100 -133c0 -84 42 -136 106 -136c62 0 97 50 97 133z" />
    <glyph glyph-name="endash" unicode="&#x2013;" horiz-adv-x="680" 
d="M610 202h-540v128h540v-128z" />
    <glyph glyph-name="emdash" unicode="&#x2014;" horiz-adv-x="988" 
d="M918 202h-848v128h848v-128z" />
    <glyph glyph-name="quotedblleft" unicode="&#x201c;" horiz-adv-x="549" 
d="M507 612c-7 -6 -8 -7 -16 -15c-75 -75 -71 -151 -71 -187h-153c0 77 13 141 95 223c22 22 52 44 64 51zM282 612c-7 -6 -8 -7 -16 -15c-75 -75 -71 -151 -71 -187h-153c0 77 13 141 95 223c22 22 52 44 64 51z" />
    <glyph glyph-name="quotedblright" unicode="&#x201d;" horiz-adv-x="549" 
d="M507 667c0 -77 -13 -141 -95 -223c-22 -22 -52 -44 -64 -51l-81 72c7 6 8 7 16 15c75 75 71 151 71 187h153zM282 667c0 -77 -13 -141 -95 -223c-22 -22 -52 -44 -64 -51l-81 72c7 6 8 7 16 15c75 75 71 151 71 187h153z" />
    <glyph glyph-name="quoteleft" unicode="&#x2018;" horiz-adv-x="324" 
d="M282 612c-7 -6 -8 -7 -16 -15c-75 -75 -71 -151 -71 -187h-153c0 77 13 141 95 223c22 22 52 44 64 51z" />
    <glyph glyph-name="quoteright" unicode="&#x2019;" horiz-adv-x="324" 
d="M282 667c0 -77 -13 -141 -95 -223c-22 -22 -52 -44 -64 -51l-81 72c7 6 8 7 16 15c75 75 71 151 71 187h153z" />
    <glyph glyph-name="divide" unicode="&#xf7;" horiz-adv-x="662" 
d="M422 456c0 -50 -40 -90 -90 -90s-90 40 -90 90s40 90 90 90s90 -40 90 -90zM608 202h-554v128h554v-128zM422 76c0 -50 -40 -90 -90 -90s-90 40 -90 90s40 90 90 90s90 -40 90 -90z" />
    <glyph glyph-name="lozenge" unicode="&#x25ca;" horiz-adv-x="660" 
d="M597 332l-218 -332h-103l-213 332l213 335h103zM460 332l-132 199l-126 -199l126 -191z" />
    <glyph glyph-name="ydieresis" unicode="&#xff;" horiz-adv-x="610" 
d="M583 496l-197 -491c-55 -138 -73 -161 -99 -187c-18 -18 -59 -53 -153 -53c-80 0 -131 33 -135 36l48 110c7 -3 40 -19 79 -19c30 0 48 9 63 24c22 22 40 78 42 86l-210 494h170l120 -331l114 331h158zM494 647c0 -43 -36 -78 -79 -78s-78 35 -78 78s35 79 78 79
s79 -36 79 -79zM284 647c0 -43 -36 -78 -79 -78s-78 35 -78 78s35 79 78 79s79 -36 79 -79z" />
    <glyph glyph-name="Ydieresis" unicode="&#x178;" horiz-adv-x="638" 
d="M611 667l-216 -400v-267h-159v267l-209 400h166l131 -275l138 275h149zM507 819c0 -43 -36 -78 -79 -78s-78 35 -78 78s35 79 78 79s79 -36 79 -79zM297 819c0 -43 -36 -78 -79 -78s-78 35 -78 78s35 79 78 79s79 -36 79 -79z" />
    <glyph glyph-name="fraction" unicode="&#x2044;" horiz-adv-x="-30" 
d="M250 653l-452 -700l-78 53l452 698z" />
    <glyph glyph-name="Euro" unicode="&#x20ac;" horiz-adv-x="661" 
d="M640 66c-8 -9 -79 -83 -225 -83c-224 0 -272 189 -276 218h-80v104h71c-1 11 -1 22 -1 28c0 1 0 19 1 29h-71v104h78c4 21 49 218 277 218c147 0 217 -82 222 -89l-77 -87c-12 9 -58 49 -135 49c-106 0 -125 -76 -129 -91h184v-104h-197c-1 -10 -1 -26 -1 -29
c0 -5 0 -17 1 -28h197v-104h-182c1 -7 12 -89 131 -89c80 0 129 43 135 47z" />
    <glyph glyph-name="guilsinglleft" unicode="&#x2039;" horiz-adv-x="364" 
d="M305 100l-85 -52l-161 196l161 198l85 -62l-85 -136z" />
    <glyph glyph-name="guilsinglright" unicode="&#x203a;" horiz-adv-x="364" 
d="M305 244l-161 -196l-85 52l85 144l-85 136l85 62z" />
    <glyph glyph-name="daggerdbl" unicode="&#x2021;" horiz-adv-x="669" 
d="M585 323h-179l-1 -74h175v-133h-177l-5 -243h-130l-5 243h-173v133h171l-1 74h-175v133h170l-6 211h168l-6 -211h174v-133z" />
    <glyph glyph-name="periodcentered" unicode="&#xb7;" horiz-adv-x="303" 
d="M244 257c0 -51 -41 -93 -92 -93s-93 42 -93 93s42 92 93 92s92 -41 92 -92z" />
    <glyph glyph-name="quotesinglbase" unicode="&#x201a;" horiz-adv-x="324" 
d="M282 154c0 -77 -13 -141 -95 -223c-22 -22 -52 -44 -64 -51l-81 72c7 6 8 7 16 15c75 75 71 151 71 187h153z" />
    <glyph glyph-name="quotedblbase" unicode="&#x201e;" horiz-adv-x="549" 
d="M507 154c0 -77 -13 -141 -95 -223c-22 -22 -52 -44 -64 -51l-81 72c7 6 8 7 16 15c75 75 71 151 71 187h153zM282 154c0 -77 -13 -141 -95 -223c-22 -22 -52 -44 -64 -51l-81 72c7 6 8 7 16 15c75 75 71 151 71 187h153z" />
    <glyph glyph-name="perthousand" unicode="&#x2030;" horiz-adv-x="1227" 
d="M688 653l-452 -700l-78 53l452 698zM365 495c0 -107 -58 -180 -156 -180s-153 74 -153 183c0 101 58 176 152 176c97 0 157 -75 157 -179zM274 492c0 75 -29 106 -63 106c-35 0 -64 -31 -64 -101c0 -74 27 -105 61 -105c62 0 66 66 66 100zM806 172
c0 -107 -58 -180 -156 -180s-153 74 -153 183c0 101 58 176 152 176c97 0 157 -75 157 -179zM715 169c0 75 -29 106 -63 106c-35 0 -64 -31 -64 -101c0 -74 27 -105 61 -105c62 0 66 66 66 100zM1171 172c0 -107 -58 -180 -156 -180s-153 74 -153 183c0 101 58 176 152 176
c97 0 157 -75 157 -179zM1080 169c0 75 -29 106 -63 106c-35 0 -64 -31 -64 -101c0 -74 27 -105 61 -105c62 0 66 66 66 100z" />
    <glyph glyph-name="Acircumflex" unicode="&#xc2;" horiz-adv-x="684" 
d="M666 0h-170l-38 122h-234l-39 -122h-167l241 667h164zM418 245l-79 250l-77 -250h156zM526 802l-54 -71l-129 72l-129 -71l-52 78l181 135z" />
    <glyph glyph-name="Ecircumflex" unicode="&#xca;" horiz-adv-x="542" 
d="M496 0h-430v667h422v-131h-258v-133h242v-128h-242v-142h266v-133zM454 802l-54 -71l-129 72l-129 -71l-52 78l181 135z" />
    <glyph glyph-name="Aacute" unicode="&#xc1;" horiz-adv-x="684" 
d="M666 0h-170l-38 122h-234l-39 -122h-167l241 667h164zM418 245l-79 250l-77 -250h156zM471 832l-247 -100l-50 84l235 131z" />
    <glyph glyph-name="Edieresis" unicode="&#xcb;" horiz-adv-x="542" 
d="M496 0h-430v667h422v-131h-258v-133h242v-128h-242v-142h266v-133zM467 819c0 -43 -36 -78 -79 -78s-78 35 -78 78s35 79 78 79s79 -36 79 -79zM257 819c0 -43 -36 -78 -79 -78s-78 35 -78 78s35 79 78 79s79 -36 79 -79z" />
    <glyph glyph-name="Egrave" unicode="&#xc8;" horiz-adv-x="542" 
d="M496 0h-430v667h422v-131h-258v-133h242v-128h-242v-142h266v-133zM418 816l-50 -84l-247 100l62 115z" />
    <glyph glyph-name="Iacute" unicode="&#xcd;" horiz-adv-x="296" 
d="M296 832l-247 -100l-50 84l235 131zM230 0h-164v667h164v-667z" />
    <glyph glyph-name="Icircumflex" unicode="&#xce;" horiz-adv-x="296" 
d="M330 802l-54 -71l-129 72l-129 -71l-52 78l181 135zM230 0h-164v667h164v-667z" />
    <glyph glyph-name="Idieresis" unicode="&#xcf;" horiz-adv-x="296" 
d="M332 819c0 -44 -36 -78 -79 -78s-78 34 -78 78c0 43 35 79 78 79s79 -36 79 -79zM122 819c0 -44 -36 -78 -79 -78s-78 34 -78 78c0 43 35 79 78 79s79 -36 79 -79zM230 0h-164v667h164v-667z" />
    <glyph glyph-name="Igrave" unicode="&#xcc;" horiz-adv-x="296" 
d="M297 816l-50 -84l-247 100l62 115zM230 0h-164v667h164v-667z" />
    <glyph glyph-name="Oacute" unicode="&#xd3;" horiz-adv-x="756" 
d="M713 340c0 -217 -140 -357 -333 -357c-204 0 -337 148 -337 360c0 201 134 341 333 341c206 0 337 -147 337 -344zM547 341c0 121 -68 210 -175 210c-99 0 -163 -91 -163 -223c0 -135 75 -209 173 -209c140 0 165 135 165 222zM522 832l-247 -100l-50 84l235 131z" />
    <glyph glyph-name="Ocircumflex" unicode="&#xd4;" horiz-adv-x="756" 
d="M713 340c0 -217 -140 -357 -333 -357c-204 0 -337 148 -337 360c0 201 134 341 333 341c206 0 337 -147 337 -344zM547 341c0 121 -68 210 -175 210c-99 0 -163 -91 -163 -223c0 -135 75 -209 173 -209c140 0 165 135 165 222zM568 802l-54 -71l-129 72l-129 -71l-52 78
l181 135z" />
    <glyph glyph-name="Foundry" unicode="&#xf8ff;" horiz-adv-x="904" 
d="M857 388c0 -225 -181 -402 -406 -402s-406 177 -406 402s181 403 406 403s406 -178 406 -403zM737 389c0 159 -128 285 -286 285c-159 0 -287 -127 -287 -285c0 -143 93 -216 156 -254v167h-64v93h64v19c0 98 24 128 44 148c15 15 47 43 125 43c75 0 120 -37 123 -40
l-46 -81c-6 3 -32 18 -60 18c-53 0 -55 -41 -55 -79v-28h108v-93h-108v-198c160 0 286 126 286 285z" />
    <glyph glyph-name="Ograve" unicode="&#xd2;" horiz-adv-x="756" 
d="M713 340c0 -217 -140 -357 -333 -357c-204 0 -337 148 -337 360c0 201 134 341 333 341c206 0 337 -147 337 -344zM547 341c0 121 -68 210 -175 210c-99 0 -163 -91 -163 -223c0 -135 75 -209 173 -209c140 0 165 135 165 222zM539 816l-50 -84l-247 100l62 115z" />
    <glyph glyph-name="Uacute" unicode="&#xda;" horiz-adv-x="669" 
d="M608 272c0 -116 -18 -164 -66 -212c-23 -22 -78 -77 -209 -77c-73 0 -148 19 -207 78c-58 58 -65 133 -65 230v376h165v-411c0 -34 3 -74 30 -101c17 -17 46 -28 81 -28c43 0 66 15 83 32c26 26 28 60 28 137v371h160v-395zM487 832l-247 -100l-50 84l235 131z" />
    <glyph glyph-name="Ucircumflex" unicode="&#xdb;" horiz-adv-x="669" 
d="M608 272c0 -116 -18 -164 -66 -212c-23 -22 -78 -77 -209 -77c-73 0 -148 19 -207 78c-58 58 -65 133 -65 230v376h165v-411c0 -34 3 -74 30 -101c17 -17 46 -28 81 -28c43 0 66 15 83 32c26 26 28 60 28 137v371h160v-395zM521 802l-54 -71l-129 72l-129 -71l-52 78
l181 135z" />
    <glyph glyph-name="Ugrave" unicode="&#xd9;" horiz-adv-x="669" 
d="M608 272c0 -116 -18 -164 -66 -212c-23 -22 -78 -77 -209 -77c-73 0 -148 19 -207 78c-58 58 -65 133 -65 230v376h165v-411c0 -34 3 -74 30 -101c17 -17 46 -28 81 -28c43 0 66 15 83 32c26 26 28 60 28 137v371h160v-395zM482 816l-50 -84l-247 100l62 115z" />
    <glyph glyph-name="dotlessi" unicode="&#x131;" horiz-adv-x="271" 
d="M215 0h-160v496h160v-496z" />
    <glyph glyph-name="circumflex" unicode="&#x2c6;" horiz-adv-x="443" 
d="M404 618l-54 -71l-129 72l-129 -71l-52 78l181 135z" />
    <glyph glyph-name="tilde" unicode="&#x2dc;" horiz-adv-x="443" 
d="M406 662c-17 -20 -70 -85 -132 -85c-47 0 -75 32 -108 32c-24 0 -49 -25 -66 -39l-64 64c8 10 64 85 132 85c44 0 73 -31 107 -31c28 0 48 21 67 38z" />
    <glyph glyph-name="macron" unicode="&#xaf;" horiz-adv-x="443" 
d="M401 583h-358v128h358v-128z" />
    <glyph glyph-name="breve" unicode="&#x2d8;" horiz-adv-x="443" 
d="M381 736c-1 -101 -62 -166 -159 -166s-159 65 -160 166h107c3 -43 22 -63 53 -63c32 0 50 20 53 63h106z" />
    <glyph glyph-name="dotaccent" unicode="&#x2d9;" horiz-adv-x="443" 
d="M300 647c0 -43 -36 -78 -79 -78s-78 35 -78 78s35 79 78 79s79 -36 79 -79z" />
    <glyph glyph-name="ring" unicode="&#x2da;" horiz-adv-x="443" 
d="M335 662c0 -63 -50 -114 -113 -114s-114 51 -114 114c0 62 51 113 114 113c62 0 113 -50 113 -113zM267 663c0 25 -21 46 -46 46s-46 -21 -46 -46s21 -46 46 -46s46 21 46 46z" />
    <glyph glyph-name="cedilla" unicode="&#xb8;" horiz-adv-x="443" 
d="M318 -133c0 -64 -54 -102 -108 -102c-42 0 -75 16 -85 26l23 47s23 -15 54 -15c40 0 50 26 50 42c0 22 -20 38 -45 38c-21 0 -37 -10 -42 -14l-33 19l14 93h63l-7 -46c6 1 12 3 20 3c56 0 96 -36 96 -91z" />
    <glyph glyph-name="hungarumlaut" unicode="&#x2dd;" horiz-adv-x="443" 
d="M403 711l-82 -176l-107 36l61 185zM230 711l-82 -176l-107 36l61 185z" />
    <glyph glyph-name="ogonek" unicode="&#x2db;" horiz-adv-x="443" 
d="M331 -169c-7 -4 -54 -34 -110 -34c-66 0 -109 45 -109 114c0 58 41 83 58 89h87c-37 -23 -73 -49 -73 -89c0 -29 18 -50 47 -50c31 0 66 19 74 23z" />
    <glyph glyph-name="caron" unicode="&#x2c7;" horiz-adv-x="443" 
d="M404 682l-181 -135l-183 143l54 71l129 -72l129 71z" />
    <glyph glyph-name="onethird" unicode="&#x2153;" horiz-adv-x="862" 
d="M688 653l-452 -700l-78 53l452 698zM297 324h-91v238l-71 -46l-43 63l134 88h71v-343zM784 105c0 -69 -51 -115 -142 -115c-77 0 -116 37 -122 42l41 61c9 -5 36 -26 74 -26c40 0 55 18 55 38c0 40 -47 35 -67 35h-21v69h13c23 0 69 -1 69 34c0 15 -16 32 -44 32
c-34 0 -63 -24 -71 -30l-45 53c36 45 87 53 129 53c68 0 120 -40 120 -102c0 -25 -10 -64 -45 -73c41 -2 56 -46 56 -71z" />
    <glyph glyph-name="twothirds" unicode="&#x2154;" horiz-adv-x="862" 
d="M688 653l-452 -700l-78 53l452 698zM784 105c0 -69 -51 -115 -142 -115c-77 0 -116 37 -122 42l41 61c9 -5 36 -26 74 -26c40 0 55 18 55 38c0 40 -47 35 -67 35h-21v69h13c23 0 69 -1 69 34c0 15 -16 32 -44 32c-34 0 -63 -24 -71 -30l-45 53c36 45 87 53 129 53
c68 0 120 -40 120 -102c0 -25 -10 -64 -45 -73c41 -2 56 -46 56 -71zM341 323h-249v65c104 82 154 130 154 172c0 23 -18 39 -43 39c-29 0 -50 -16 -76 -39l-44 53c36 44 81 61 127 61c66 0 121 -44 121 -114c0 -77 -71 -133 -114 -163h124v-74z" />
    <glyph glyph-name="oneeighth" unicode="&#x215b;" horiz-adv-x="862" 
d="M688 653l-452 -700l-78 53l452 698zM297 324h-91v238l-71 -46l-43 63l134 88h71v-343zM795 104c0 -73 -60 -113 -143 -113c-81 0 -144 41 -144 113c0 40 22 64 50 75c-21 10 -39 29 -39 66c0 65 58 106 133 106s133 -41 133 -105c0 -42 -26 -58 -45 -64
c28 -11 55 -36 55 -78zM696 244c0 20 -15 34 -45 34c-26 0 -43 -14 -43 -34c0 -24 16 -34 46 -34c27 0 42 10 42 34zM706 105c0 22 -18 39 -53 39c-38 0 -54 -16 -54 -39c0 -24 18 -41 53 -41c36 0 54 17 54 41z" />
    <glyph glyph-name="threeeighths" unicode="&#x215c;" horiz-adv-x="862" 
d="M688 653l-452 -700l-78 53l452 698zM795 104c0 -73 -60 -113 -143 -113c-81 0 -144 41 -144 113c0 40 22 64 50 75c-21 10 -39 29 -39 66c0 65 58 106 133 106s133 -41 133 -105c0 -42 -26 -58 -45 -64c28 -11 55 -36 55 -78zM696 244c0 20 -15 34 -45 34
c-26 0 -43 -14 -43 -34c0 -24 16 -34 46 -34c27 0 42 10 42 34zM706 105c0 22 -18 39 -53 39c-38 0 -54 -16 -54 -39c0 -24 18 -41 53 -41c36 0 54 17 54 41zM343 428c0 -69 -51 -115 -142 -115c-77 0 -116 37 -122 42l41 61c9 -5 36 -26 74 -26c40 0 55 18 55 38
c0 40 -47 35 -67 35h-21v69h13c23 0 69 -1 69 34c0 15 -16 32 -44 32c-34 0 -63 -24 -71 -30l-45 53c36 45 87 53 129 53c68 0 120 -40 120 -102c0 -25 -10 -64 -45 -73c41 -2 56 -46 56 -71z" />
    <glyph glyph-name="fiveeighths" unicode="&#x215d;" horiz-adv-x="862" 
d="M688 653l-452 -700l-78 53l452 698zM795 104c0 -73 -60 -113 -143 -113c-81 0 -144 41 -144 113c0 40 22 64 50 75c-21 10 -39 29 -39 66c0 65 58 106 133 106s133 -41 133 -105c0 -42 -26 -58 -45 -64c28 -11 55 -36 55 -78zM696 244c0 20 -15 34 -45 34
c-26 0 -43 -14 -43 -34c0 -24 16 -34 46 -34c27 0 42 10 42 34zM706 105c0 22 -18 39 -53 39c-38 0 -54 -16 -54 -39c0 -24 18 -41 53 -41c36 0 54 17 54 41zM336 441c0 -81 -52 -126 -145 -126c-75 0 -115 40 -117 45l41 58c8 -8 40 -27 73 -27s54 13 54 42
c0 28 -15 47 -57 47c-25 0 -51 -13 -55 -17l-30 20v184h217v-77h-134v-44c6 2 18 5 33 5c68 0 120 -41 120 -110z" />
    <glyph glyph-name="seveneighths" unicode="&#x215e;" horiz-adv-x="862" 
d="M688 653l-452 -700l-78 53l452 698zM795 104c0 -73 -60 -113 -143 -113c-81 0 -144 41 -144 113c0 40 22 64 50 75c-21 10 -39 29 -39 66c0 65 58 106 133 106s133 -41 133 -105c0 -42 -26 -58 -45 -64c28 -11 55 -36 55 -78zM696 244c0 20 -15 34 -45 34
c-26 0 -43 -14 -43 -34c0 -24 16 -34 46 -34c27 0 42 10 42 34zM706 105c0 22 -18 39 -53 39c-38 0 -54 -16 -54 -39c0 -24 18 -41 53 -41c36 0 54 17 54 41zM342 603l-129 -280h-99l135 270h-162v74h255v-64z" />
    <glyph glyph-name="uni2206" unicode="&#x2206;" horiz-adv-x="729" 
d="M666 0h-603l229 667h143zM478 125l-119 351l-118 -351h237z" />
    <glyph glyph-name="uni00B5" unicode="&#xb5;" horiz-adv-x="572" 
d="M515 0h-130v44c-3 -3 -56 -56 -126 -56c-25 0 -58 9 -67 18v-133h-134v623h160v-267c0 -54 2 -79 17 -94c5 -5 17 -15 44 -15c36 0 68 23 76 28v348h160v-496z" />
    <glyph glyph-name="uni2126" unicode="&#x2126;" horiz-adv-x="836" 
d="M773 0h-308v103c13 4 127 37 127 227c0 137 -70 219 -174 219s-174 -82 -174 -219c0 -186 109 -222 127 -227v-103h-308v133h110c-10 7 -94 62 -94 217c0 199 135 334 339 334s339 -135 339 -334c0 -149 -75 -202 -92 -217h108v-133z" />
    <glyph glyph-name="afii61352" unicode="&#x2116;" horiz-adv-x="1120" 
d="M1082 494c0 -118 -82 -202 -200 -202c-112 0 -189 81 -189 193c0 115 83 199 198 199c112 0 191 -82 191 -190zM960 487c0 60 -29 98 -74 98c-43 0 -71 -36 -71 -96c0 -61 31 -97 76 -97c44 0 69 34 69 95zM614 0h-134l-269 408l4 -408h-149v667h144l259 -403l-3 403h148
v-667z" />
    <glyph glyph-name="franc" unicode="&#x20a3;" horiz-adv-x="840" 
d="M483 536h-253v-121h199v-128h-199v-287h-164v667h417v-131zM828 415l-36 -120c-3 1 -17 4 -30 4c-70 0 -115 -40 -133 -68v-231h-160v415h132v-66c3 5 64 81 166 81c38 0 59 -14 61 -15z" />
    <glyph glyph-name="lira" unicode="&#x20a4;" horiz-adv-x="658" 
d="M76 464h75c4 130 90 220 247 220c133 0 200 -79 206 -86l-80 -95c-10 9 -60 47 -120 47c-59 0 -94 -38 -98 -86h168v-102h-165c0 -8 7 -33 15 -57h150v-102h-150c-6 -36 -24 -61 -37 -70h304v-133h-518v122c83 10 92 73 94 81h-91v102h96c-9 32 -12 57 -12 57h-84v102z
" />
    <glyph glyph-name="peseta" unicode="&#x20a7;" horiz-adv-x="1455" 
d="M559 461c0 -86 -39 -136 -61 -157c-62 -62 -133 -70 -218 -70h-52v-234h-162v667h200c104 0 181 -6 239 -63c35 -35 54 -85 54 -143zM395 453c0 30 -10 53 -22 65c-19 19 -46 21 -93 21h-52v-175h47c62 0 83 8 97 22s23 39 23 67zM1001 20c-3 -3 -56 -35 -135 -35
c-48 0 -102 13 -137 48c-45 45 -45 95 -45 170v168h-86v125h86v137h160v-137h135v-125h-135v-179c0 -34 2 -78 58 -78c29 0 49 7 59 11zM1409 145c0 -81 -72 -160 -193 -160c-117 0 -192 47 -198 53l50 100c14 -7 69 -39 126 -39c45 0 60 23 60 43c0 13 -2 19 -13 30
c-26 26 -117 46 -165 94c-20 20 -38 46 -38 85c0 93 81 160 205 160c98 0 155 -36 166 -45l-49 -94c-8 5 -61 34 -113 34c-36 0 -56 -14 -56 -38c0 -67 218 -55 218 -223z" />
    <glyph glyph-name="currency" unicode="&#xa4;" horiz-adv-x="616" 
d="M611 112l-92 -92l-75 75c-43 -20 -93 -31 -148 -31c-54 0 -103 9 -145 27l-70 -71l-93 92l64 63c-31 45 -48 101 -48 167c0 58 16 108 43 150l-59 58l93 93l66 -67c42 19 91 29 145 29c60 0 113 -13 156 -33l71 71l92 -93l-67 -65c26 -41 40 -90 40 -145
c0 -62 -16 -115 -43 -158zM426 338c0 89 -55 148 -137 148c-72 0 -127 -60 -127 -156c0 -94 60 -145 135 -145c99 0 129 78 129 153z" />
    <glyph glyph-name="zerosuperior" unicode="&#x2070;" 
d="M365 495c0 -107 -58 -180 -156 -180s-153 74 -153 183c0 101 58 176 152 176c97 0 157 -75 157 -179zM274 492c0 75 -29 106 -63 106c-35 0 -64 -31 -64 -101c0 -74 27 -105 61 -105c62 0 66 66 66 100z" />
    <glyph glyph-name="onesuperior" unicode="&#xb9;" 
d="M297 324h-91v238l-71 -46l-43 63l134 88h71v-343z" />
    <glyph glyph-name="twosuperior" unicode="&#xb2;" 
d="M337 323h-249v65c104 82 154 130 154 172c0 23 -18 39 -43 39c-29 0 -50 -16 -76 -39l-44 53c36 44 81 61 127 61c66 0 121 -44 121 -114c0 -77 -71 -133 -114 -163h124v-74z" />
    <glyph glyph-name="threesuperior" unicode="&#xb3;" 
d="M343 428c0 -69 -51 -115 -142 -115c-77 0 -116 37 -122 42l41 61c9 -5 36 -26 74 -26c40 0 55 18 55 38c0 40 -47 35 -67 35h-21v69h13c23 0 69 -1 69 34c0 15 -16 32 -44 32c-34 0 -63 -24 -71 -30l-45 53c36 45 87 53 129 53c68 0 120 -40 120 -102
c0 -25 -10 -64 -45 -73c41 -2 56 -46 56 -71z" />
    <glyph glyph-name="foursuperior" unicode="&#x2074;" 
d="M370 385h-51v-61h-79v61h-169v56l165 226h83v-217h51v-65zM240 450v121l-82 -121h82z" />
    <glyph glyph-name="fivesuperior" unicode="&#x2075;" 
d="M336 441c0 -81 -52 -126 -145 -126c-75 0 -115 40 -117 45l41 58c8 -8 40 -27 73 -27s54 13 54 42c0 28 -15 47 -57 47c-25 0 -51 -13 -55 -17l-30 20v184h217v-77h-134v-44c6 2 18 5 33 5c68 0 120 -41 120 -110z" />
    <glyph glyph-name="sixsuperior" unicode="&#x2076;" 
d="M346 441c0 -77 -55 -126 -134 -126c-84 0 -146 61 -146 173c0 119 67 186 161 186c72 0 110 -33 112 -37l-35 -58c-2 1 -33 21 -73 21c-52 0 -73 -32 -80 -71c14 16 40 32 75 32c70 0 120 -49 120 -120zM261 439c0 28 -22 47 -47 47c-27 0 -50 -18 -50 -45
c0 -33 22 -52 50 -52s47 20 47 50z" />
    <glyph glyph-name="sevensuperior" unicode="&#x2077;" 
d="M342 603l-129 -280h-99l135 270h-162v74h255v-64z" />
    <glyph glyph-name="eightsuperior" unicode="&#x2078;" 
d="M354 427c0 -73 -60 -113 -143 -113c-81 0 -144 41 -144 113c0 40 22 64 50 75c-21 10 -39 29 -39 66c0 65 58 106 133 106s133 -41 133 -105c0 -42 -26 -58 -45 -64c28 -11 55 -36 55 -78zM255 567c0 20 -15 34 -45 34c-26 0 -43 -14 -43 -34c0 -24 16 -34 46 -34
c27 0 42 10 42 34zM265 428c0 22 -18 39 -53 39c-38 0 -54 -16 -54 -39c0 -24 18 -41 53 -41c36 0 54 17 54 41z" />
    <glyph glyph-name="ninesuperior" unicode="&#x2079;" 
d="M355 496c0 -120 -65 -182 -160 -182c-73 0 -110 32 -113 35l36 61c3 -1 33 -21 72 -21c53 0 75 29 81 69c-17 -20 -47 -31 -75 -31c-70 0 -119 46 -119 117c0 79 53 130 134 130c82 0 144 -63 144 -178zM257 545c0 33 -21 53 -50 53c-26 0 -48 -20 -48 -53
c0 -27 23 -45 48 -45c29 0 50 16 50 45z" />
    <glyph glyph-name="parenleftsuperior" unicode="&#x207d;" horiz-adv-x="279" 
d="M56 494c0 157 129 222 146 227l44 -60c-17 -10 -98 -60 -98 -167c0 -104 85 -159 96 -166l-43 -57c-12 4 -145 64 -145 223z" />
    <glyph glyph-name="parenrightsuperior" unicode="&#x207e;" horiz-adv-x="279" 
d="M223 498c0 -157 -129 -222 -146 -227l-44 60c17 10 98 60 98 167c0 104 -85 159 -96 166l43 57c12 -4 145 -64 145 -223z" />
    <glyph glyph-name="zeroinferior" unicode="&#x2080;" 
d="M365 172c0 -107 -58 -180 -156 -180s-153 74 -153 183c0 101 58 176 152 176c97 0 157 -75 157 -179zM274 169c0 75 -29 106 -63 106c-35 0 -64 -31 -64 -101c0 -74 27 -105 61 -105c62 0 66 66 66 100z" />
    <glyph glyph-name="oneinferior" unicode="&#x2081;" 
d="M297 0h-91v238l-71 -46l-43 63l134 88h71v-343z" />
    <glyph glyph-name="twoinferior" unicode="&#x2082;" 
d="M337 0h-249v65c104 82 154 130 154 172c0 23 -18 39 -43 39c-29 0 -50 -16 -76 -39l-44 53c36 44 81 61 127 61c66 0 121 -44 121 -114c0 -77 -71 -133 -114 -163h124v-74z" />
    <glyph glyph-name="threeinferior" unicode="&#x2083;" 
d="M343 105c0 -69 -51 -115 -142 -115c-77 0 -116 37 -122 42l41 61c9 -5 36 -26 74 -26c40 0 55 18 55 38c0 40 -47 35 -67 35h-21v69h13c23 0 69 -1 69 34c0 15 -16 32 -44 32c-34 0 -63 -24 -71 -30l-45 53c36 45 87 53 129 53c68 0 120 -40 120 -102
c0 -25 -10 -64 -45 -73c41 -2 56 -46 56 -71z" />
    <glyph glyph-name="fourinferior" unicode="&#x2084;" 
d="M370 61h-51v-61h-79v61h-169v56l165 226h83v-217h51v-65zM240 126v121l-82 -121h82z" />
    <glyph glyph-name="fiveinferior" unicode="&#x2085;" 
d="M336 117c0 -81 -52 -126 -145 -126c-75 0 -115 40 -117 45l41 58c8 -8 40 -27 73 -27s54 13 54 42c0 28 -15 47 -57 47c-25 0 -51 -13 -55 -17l-30 20v184h217v-77h-134v-44c6 2 18 5 33 5c68 0 120 -41 120 -110z" />
    <glyph glyph-name="sixinferior" unicode="&#x2086;" 
d="M346 117c0 -77 -55 -126 -134 -126c-84 0 -146 61 -146 173c0 119 67 186 161 186c72 0 110 -33 112 -37l-35 -58c-2 1 -33 21 -73 21c-52 0 -73 -32 -80 -71c14 16 40 32 75 32c70 0 120 -49 120 -120zM261 115c0 28 -22 47 -47 47c-27 0 -50 -18 -50 -45
c0 -33 22 -52 50 -52s47 20 47 50z" />
    <glyph glyph-name="seveninferior" unicode="&#x2087;" 
d="M342 279l-129 -279h-99l135 269h-162v74h255v-64z" />
    <glyph glyph-name="eightinferior" unicode="&#x2088;" 
d="M354 104c0 -73 -60 -113 -143 -113c-81 0 -144 41 -144 113c0 40 22 64 50 75c-21 10 -39 29 -39 66c0 65 58 106 133 106s133 -41 133 -105c0 -42 -26 -58 -45 -64c28 -11 55 -36 55 -78zM255 244c0 20 -15 34 -45 34c-26 0 -43 -14 -43 -34c0 -24 16 -34 46 -34
c27 0 42 10 42 34zM265 105c0 22 -18 39 -53 39c-38 0 -54 -16 -54 -39c0 -24 18 -41 53 -41c36 0 54 17 54 41z" />
    <glyph glyph-name="nineinferior" unicode="&#x2089;" 
d="M355 173c0 -120 -65 -182 -160 -182c-73 0 -110 32 -113 35l36 61c3 -1 33 -21 72 -21c53 0 75 29 81 69c-17 -20 -47 -31 -75 -31c-70 0 -119 46 -119 117c0 79 53 130 134 130c82 0 144 -63 144 -178zM257 222c0 33 -21 53 -50 53c-26 0 -48 -20 -48 -53
c0 -27 23 -45 48 -45c29 0 50 16 50 45z" />
    <glyph glyph-name="parenleftinferior" unicode="&#x208d;" horiz-adv-x="279" 
d="M56 174c0 157 129 222 146 227l44 -60c-17 -10 -98 -60 -98 -167c0 -104 85 -159 96 -166l-43 -57c-12 4 -145 64 -145 223z" />
    <glyph glyph-name="parenrightinferior" unicode="&#x208e;" horiz-adv-x="279" 
d="M223 174c0 -157 -129 -222 -146 -227l-44 60c17 10 98 60 98 167c0 104 -85 159 -96 166l43 57c12 -4 145 -64 145 -223z" />
    <glyph glyph-name="Euro.fitted" unicode="&#xe002;" horiz-adv-x="592" 
d="M600 66c-8 -9 -79 -83 -225 -83c-224 0 -272 189 -276 218h-80v104h71c-1 11 -1 22 -1 28c0 1 0 19 1 29h-71v104h78c4 21 49 218 277 218c147 0 217 -82 222 -89l-77 -87c-12 9 -58 49 -135 49c-106 0 -125 -76 -129 -91h184v-104h-197c-1 -10 -1 -26 -1 -29
c0 -5 0 -17 1 -28h197v-104h-182c1 -7 12 -89 131 -89c80 0 129 43 135 47z" />
    <glyph glyph-name="dollar.fitted" horiz-adv-x="558" 
d="M523 203c0 -127 -101 -194 -200 -208v-111h-106v108c-104 8 -175 55 -195 73l71 105c14 -8 73 -49 160 -49c57 0 101 20 101 72c0 17 -5 28 -19 42c-32 30 -172 62 -241 127c-27 26 -51 58 -51 118c0 122 112 176 174 189v114h106v-107c117 -8 181 -57 194 -69l-72 -101
c-13 8 -71 46 -144 46c-55 0 -90 -21 -90 -59c0 -23 11 -31 20 -39c34 -32 166 -60 241 -131c32 -30 51 -71 51 -120z" />
    <glyph glyph-name="cent.fitted" horiz-adv-x="498" 
d="M485 55c-3 -2 -58 -51 -145 -61v-108h-100v108c-113 17 -210 109 -210 257c0 163 129 247 210 259v111h100v-108c78 -8 130 -49 137 -59l-63 -97c-4 3 -45 30 -93 30c-78 0 -130 -57 -130 -133c0 -79 39 -135 121 -135c59 0 109 34 112 36z" />
    <glyph glyph-name="sterling.fitted" horiz-adv-x="562" 
d="M549 598l-80 -95c-10 9 -60 47 -120 47c-59 0 -99 -38 -99 -103c0 -31 6 -66 7 -70h184v-128h-169c1 -5 1 -12 1 -13c0 -29 -11 -81 -41 -103h304v-133h-518v122c88 12 97 77 97 115c0 6 -2 12 -2 12h-92v128h78c-2 23 -4 47 -4 70c0 148 91 237 248 237
c133 0 200 -79 206 -86z" />
    <glyph glyph-name="florin.fitted" horiz-adv-x="593" 
d="M598 644l-44 -112c-13 5 -48 19 -74 19c-62 0 -65 -43 -82 -125l-10 -49h142l-28 -128h-142l-47 -256c-11 -59 -26 -131 -67 -172c-36 -36 -84 -56 -141 -56c-77 0 -139 37 -148 43l47 117c11 -4 43 -18 69 -18c24 0 40 7 48 15c11 11 16 16 29 82l49 245h-123l26 128
h125l15 79c20 105 33 142 63 172c38 38 83 56 143 56c80 0 142 -36 150 -40z" />
    <glyph glyph-name="yen.fitted" horiz-adv-x="604" 
d="M594 667l-154 -267h85v-104h-143v-71h141v-102h-141v-123h-158v123h-151v102h151v71h-153v104h91l-151 267h169l132 -272l130 272h152z" />
    <glyph glyph-name="zero.fitted" unicode="&#xf639;" horiz-adv-x="659" 
d="M618 337c0 -215 -110 -354 -289 -354c-176 0 -286 140 -286 351c0 207 114 350 288 350s287 -143 287 -347zM456 333c0 147 -51 219 -124 219c-76 0 -127 -76 -127 -219c0 -145 48 -217 123 -217c76 0 128 72 128 217z" />
    <glyph glyph-name="one.fitted" unicode="&#xf6dc;" horiz-adv-x="446" 
d="M380 0h-162v483l-148 -96l-73 108l256 172h127v-667z" />
    <glyph glyph-name="two.fitted" unicode="&#xf63a;" horiz-adv-x="562" 
d="M518 0h-480v118c81 68 144 120 213 190c55 55 98 109 98 157c0 49 -43 85 -95 85c-70 0 -131 -53 -153 -72l-81 94c13 16 101 112 248 112c132 0 238 -88 238 -208c0 -76 -46 -141 -127 -223c-43 -43 -92 -86 -130 -120h269v-133z" />
    <glyph glyph-name="three.fitted" unicode="&#xf63b;" horiz-adv-x="568" 
d="M524 198c0 -125 -91 -215 -266 -215c-131 0 -204 55 -221 71l66 97c42 -27 90 -46 140 -46c87 0 125 40 125 92c0 28 -7 43 -19 56c-30 31 -95 29 -126 29h-27v118h7c47 0 98 -2 135 35c11 11 18 25 18 48c0 44 -43 78 -103 78c-48 0 -97 -21 -136 -50l-69 84
c57 65 152 89 233 89c126 0 223 -77 223 -188c0 -87 -54 -140 -108 -149c93 -13 128 -84 128 -149z" />
    <glyph glyph-name="four.fitted" unicode="&#xf63c;" horiz-adv-x="608" 
d="M602 118h-99v-118h-153v118h-329v110l320 439h162v-422h99v-127zM350 245v236l-160 -236h160z" />
    <glyph glyph-name="five.fitted" unicode="&#xf63d;" horiz-adv-x="579" 
d="M538 236c0 -147 -107 -253 -283 -253c-134 0 -202 61 -213 73l73 99c39 -27 85 -41 132 -41c76 0 131 38 131 107c0 56 -37 111 -124 111c-53 0 -94 -27 -105 -36l-52 32v339h410v-131h-261v-102c9 6 35 17 73 17c130 0 219 -97 219 -215z" />
    <glyph glyph-name="six.fitted" unicode="&#xf63e;" horiz-adv-x="611" 
d="M578 232c0 -145 -105 -247 -259 -247c-170 0 -276 133 -276 337c0 216 112 362 303 362c141 0 210 -59 219 -68l-65 -96c-44 27 -90 44 -142 44c-104 0 -167 -57 -176 -175c15 21 71 74 162 74c137 0 234 -97 234 -231zM432 228c0 65 -46 107 -108 107
c-67 0 -112 -45 -112 -107c0 -68 47 -112 112 -112c63 0 108 45 108 112z" />
    <glyph glyph-name="seven.fitted" unicode="&#xf63f;" horiz-adv-x="542" 
d="M525 543l-255 -543h-173l256 534h-341v133h513v-124z" />
    <glyph glyph-name="eight.fitted" unicode="&#xf640;" horiz-adv-x="615" 
d="M574 192c0 -130 -106 -208 -265 -208s-267 79 -267 209c0 70 39 135 111 156c-62 21 -89 79 -89 138c0 119 98 195 243 195c146 0 246 -76 246 -194c0 -68 -34 -121 -89 -139c72 -23 110 -83 110 -157zM408 483c0 48 -32 79 -100 79c-65 0 -99 -36 -99 -78
c0 -44 35 -80 102 -80c63 0 97 35 97 79zM427 198c0 50 -43 88 -118 88c-82 0 -119 -41 -119 -87c0 -54 37 -93 120 -93c77 0 117 35 117 92z" />
    <glyph glyph-name="nine.fitted" unicode="&#xf641;" horiz-adv-x="611" 
d="M567 347c0 -216 -112 -362 -303 -362c-141 0 -210 59 -219 68l65 96c44 -27 90 -44 142 -44c104 0 167 57 176 175c-15 -21 -71 -74 -162 -74c-137 0 -234 97 -234 231c0 145 105 247 259 247c170 0 276 -133 276 -337zM398 441c0 68 -49 112 -114 112
c-63 0 -106 -45 -106 -112c0 -65 44 -107 106 -107c67 0 114 45 114 107z" />
    <glyph glyph-name="Euro.taboldstyle" unicode="&#xf64e;" horiz-adv-x="661" 
d="M637 66c-8 -9 -79 -83 -225 -83c-224 0 -272 189 -276 218h-80v104h71c-1 11 -1 22 -1 28c0 1 0 19 1 29h-71v104h78c4 21 49 218 277 218c147 0 217 -82 222 -89l-77 -87c-12 9 -58 49 -135 49c-106 0 -125 -76 -129 -91h184v-104h-197c-1 -10 -1 -26 -1 -29
c0 -5 0 -17 1 -28h197v-104h-182c1 -7 12 -89 131 -89c80 0 129 43 135 47z" />
    <glyph glyph-name="dollar.taboldstyle" unicode="&#xf653;" horiz-adv-x="661" 
d="M575 203c0 -127 -101 -194 -200 -208v-111h-106v108c-104 8 -175 55 -195 73l71 105c14 -8 73 -49 160 -49c57 0 101 20 101 72c0 17 -5 28 -19 42c-32 30 -172 62 -241 127c-27 26 -51 58 -51 118c0 122 112 176 174 189v114h106v-107c117 -8 181 -57 194 -69l-72 -101
c-13 8 -71 46 -144 46c-55 0 -90 -21 -90 -59c0 -23 11 -31 20 -39c34 -32 166 -60 241 -131c32 -30 51 -71 51 -120z" />
    <glyph glyph-name="cent.taboldstyle" unicode="&#xf654;" horiz-adv-x="661" 
d="M566 55c-3 -2 -58 -51 -145 -61v-108h-100v108c-113 17 -210 109 -210 257c0 163 129 247 210 259v111h100v-108c78 -8 130 -49 137 -59l-63 -97c-4 3 -45 30 -93 30c-78 0 -130 -57 -130 -133c0 -79 39 -135 121 -135c59 0 109 34 112 36z" />
    <glyph glyph-name="sterling.taboldstyle" unicode="&#xf651;" horiz-adv-x="661" 
d="M594 598l-80 -95c-10 9 -60 47 -120 47c-59 0 -99 -38 -99 -103c0 -31 6 -66 7 -70h184v-128h-169c1 -5 1 -12 1 -13c0 -29 -11 -81 -41 -103h304v-133h-518v122c88 12 97 77 97 115c0 6 -2 12 -2 12h-92v128h78c-2 23 -4 47 -4 70c0 148 91 237 248 237
c133 0 200 -79 206 -86z" />
    <glyph glyph-name="florin.taboldstyle" unicode="&#xf64f;" horiz-adv-x="661" 
d="M651 644l-44 -112c-13 5 -48 19 -74 19c-62 0 -65 -43 -82 -125l-10 -49h142l-28 -128h-142l-47 -256c-11 -59 -26 -131 -67 -172c-36 -36 -84 -56 -141 -56c-77 0 -139 37 -148 43l47 117c11 -4 43 -18 69 -18c24 0 40 7 48 15c11 11 16 16 29 82l49 245h-123l26 128
h125l15 79c20 105 33 142 63 172c38 38 83 56 143 56c80 0 142 -36 150 -40z" />
    <glyph glyph-name="yen.taboldstyle" unicode="&#xf652;" horiz-adv-x="661" 
d="M622 667l-154 -267h85v-104h-143v-71h141v-102h-141v-123h-158v123h-151v102h151v71h-153v104h91l-151 267h169l132 -272l130 272h152z" />
    <glyph glyph-name="zero.taboldstyle" unicode="&#xf643;" horiz-adv-x="661" 
d="M619 270c0 -173 -121 -285 -287 -285c-174 0 -290 119 -290 287c0 161 116 272 286 272c176 0 291 -117 291 -274zM459 270c0 89 -53 152 -134 152c-72 0 -123 -62 -123 -162c0 -99 57 -152 131 -152c104 0 126 92 126 162z" />
    <glyph glyph-name="one.taboldstyle" unicode="&#xf644;" horiz-adv-x="661" 
d="M467 0h-161v364l-127 -83l-72 98l234 153h126v-532z" />
    <glyph glyph-name="two.taboldstyle" unicode="&#xf645;" horiz-adv-x="661" 
d="M534 0h-412v107c14 11 130 101 181 152c36 36 67 67 67 104c0 42 -35 57 -64 57c-45 0 -96 -38 -120 -59l-79 89c8 11 83 94 211 94c105 0 205 -58 205 -180c0 -72 -45 -115 -60 -130c-45 -45 -104 -87 -133 -109h204v-125z" />
    <glyph glyph-name="three.taboldstyle" unicode="&#xf646;" horiz-adv-x="661" 
d="M539 75c0 -121 -88 -208 -256 -208c-126 0 -195 54 -208 66l63 93c37 -24 82 -41 130 -41c84 0 121 39 121 89c0 27 -6 42 -18 54c-29 30 -92 28 -122 28h-26v114h7c46 0 95 -3 130 33c11 11 17 25 17 47c0 42 -41 75 -99 75c-60 0 -104 -34 -121 -48l-70 81
c55 62 140 86 218 86c122 0 215 -75 215 -182c0 -84 -52 -134 -104 -143c90 -12 123 -81 123 -144z" />
    <glyph glyph-name="four.taboldstyle" unicode="&#xf647;" horiz-adv-x="661" 
d="M608 15h-103v-139h-155v139h-300v102l289 415h166v-399h103v-118zM350 133v221l-143 -221h143z" />
    <glyph glyph-name="five.taboldstyle" unicode="&#xf648;" horiz-adv-x="661" 
d="M570 114c0 -143 -104 -246 -275 -246c-130 0 -196 60 -207 71l71 96c38 -26 82 -40 128 -40c74 0 127 37 127 104c0 54 -36 108 -120 108c-52 0 -92 -26 -102 -35l-50 31v329h397v-124h-253v-102c9 6 34 16 71 16c126 0 213 -94 213 -208z" />
    <glyph glyph-name="six.taboldstyle" unicode="&#xf649;" horiz-adv-x="661" 
d="M598 223c0 -140 -102 -240 -251 -240c-165 0 -268 129 -268 327c0 210 108 352 294 352c136 0 203 -57 212 -66l-63 -94c-43 26 -86 43 -137 43c-100 0 -162 -54 -171 -170c14 21 69 72 157 72c133 0 227 -94 227 -224zM456 219c0 63 -44 104 -104 104
c-65 0 -109 -44 -109 -104c0 -66 46 -108 109 -108c61 0 104 43 104 108z" />
    <glyph glyph-name="seven.taboldstyle" unicode="&#xf64a;" horiz-adv-x="661" 
d="M562 412l-250 -536h-168l254 526h-318v130h482v-120z" />
    <glyph glyph-name="eight.taboldstyle" unicode="&#xf64b;" horiz-adv-x="661" 
d="M581 186c0 -126 -101 -202 -252 -202s-254 77 -254 203c0 68 38 132 106 152c-59 21 -85 75 -85 133c0 115 93 190 231 190c139 0 234 -75 234 -189c0 -65 -33 -116 -85 -134c69 -22 105 -81 105 -153zM423 469c0 45 -30 76 -95 76c-62 0 -94 -35 -94 -76
c0 -43 34 -77 97 -77c60 0 92 34 92 77zM441 192c0 49 -41 85 -112 85c-78 0 -113 -39 -113 -84c0 -52 35 -90 114 -90c73 0 111 34 111 89z" />
    <glyph glyph-name="nine.taboldstyle" unicode="&#xf64c;" horiz-adv-x="661" 
d="M582 217c0 -210 -108 -352 -294 -352c-137 0 -203 58 -212 66l63 94c43 -26 86 -43 137 -43c101 0 162 56 171 170c-14 -21 -69 -72 -157 -72c-133 0 -227 94 -227 224c0 140 102 240 251 240c165 0 268 -129 268 -327zM418 308c0 66 -48 108 -111 108
c-61 0 -102 -43 -102 -108c0 -63 42 -104 102 -104c65 0 111 44 111 104z" />
    <glyph glyph-name="germandblssmall" horiz-adv-x="960" 
d="M442 161c0 -107 -90 -176 -216 -176c-123 0 -195 58 -205 67l65 94c14 -9 59 -43 132 -43c48 0 72 18 72 51c0 55 -133 55 -212 134c-20 20 -37 50 -37 93c0 99 91 163 208 163c112 0 175 -45 188 -57l-60 -92c-10 6 -62 35 -121 35c-41 0 -64 -15 -64 -39
c0 -52 134 -56 210 -132c30 -30 40 -67 40 -98zM920 161c0 -107 -90 -176 -216 -176c-123 0 -195 58 -205 67l65 94c14 -9 59 -43 132 -43c48 0 72 18 72 51c0 55 -133 55 -212 134c-20 20 -37 50 -37 93c0 99 91 163 208 163c112 0 175 -45 188 -57l-60 -92
c-10 6 -62 35 -121 35c-41 0 -64 -15 -64 -39c0 -52 134 -56 210 -132c30 -30 40 -67 40 -98z" />
    <glyph glyph-name="germandbls.small" horiz-adv-x="960" 
d="M442 161c0 -107 -90 -176 -216 -176c-123 0 -195 58 -205 67l65 94c14 -9 59 -43 132 -43c48 0 72 18 72 51c0 55 -133 55 -212 134c-20 20 -37 50 -37 93c0 99 91 163 208 163c112 0 175 -45 188 -57l-60 -92c-10 6 -62 35 -121 35c-41 0 -64 -15 -64 -39
c0 -52 134 -56 210 -132c30 -30 40 -67 40 -98zM920 161c0 -107 -90 -176 -216 -176c-123 0 -195 58 -205 67l65 94c14 -9 59 -43 132 -43c48 0 72 18 72 51c0 55 -133 55 -212 134c-20 20 -37 50 -37 93c0 99 91 163 208 163c112 0 175 -45 188 -57l-60 -92
c-10 6 -62 35 -121 35c-41 0 -64 -15 -64 -39c0 -52 134 -56 210 -132c30 -30 40 -67 40 -98z" />
    <glyph glyph-name="Idotaccent" unicode="&#x130;" horiz-adv-x="296" 
d="M230 0h-164v667h164v-667zM226 819c0 -44 -36 -78 -79 -78s-78 34 -78 78c0 43 35 79 78 79s79 -36 79 -79z" />
    <glyph glyph-name="Asmall" unicode="&#xf761;" horiz-adv-x="569" 
d="M557 0h-155l-30 94h-180l-28 -94h-152l191 532h160zM336 207l-56 178l-53 -178h109z" />
    <glyph glyph-name="Bsmall" unicode="&#xf762;" horiz-adv-x="532" 
d="M495 166c0 -53 -20 -90 -46 -113c-57 -51 -135 -53 -201 -53h-184v532h197c65 0 129 -4 175 -49c35 -35 44 -66 44 -102c0 -92 -78 -104 -88 -107c11 -2 103 -20 103 -108zM331 370c0 48 -36 52 -66 52h-55v-106h41c40 0 80 3 80 54zM343 168c0 9 -4 26 -14 36
c-16 16 -33 18 -66 18h-53v-110h58c35 0 50 6 60 16c11 11 15 24 15 40z" />
    <glyph glyph-name="Csmall" unicode="&#xf763;" horiz-adv-x="564" 
d="M540 59c-19 -14 -96 -74 -218 -74c-156 0 -282 102 -282 275c0 179 131 284 298 284c108 0 186 -56 201 -71l-66 -97c-12 8 -59 42 -121 42c-88 0 -150 -64 -150 -153c0 -84 51 -151 139 -151c70 0 130 42 138 47z" />
    <glyph glyph-name="Dsmall" unicode="&#xf764;" horiz-adv-x="631" 
d="M591 271c0 -67 -24 -140 -76 -188c-89 -83 -208 -83 -311 -83h-140v532h174c117 0 202 -3 277 -73c49 -46 76 -116 76 -188zM428 272c0 48 -13 81 -37 104c-34 33 -68 36 -137 36h-31v-291h50c103 0 155 52 155 151z" />
    <glyph glyph-name="Esmall" unicode="&#xf765;" horiz-adv-x="484" 
d="M434 0h-370v532h363v-123h-206v-79h193v-121h-193v-84h213v-125z" />
    <glyph glyph-name="Fsmall" unicode="&#xf766;" horiz-adv-x="471" 
d="M422 409h-196v-79h186v-121h-186v-209h-162v532h358v-123z" />
    <glyph glyph-name="Gsmall" unicode="&#xf767;" horiz-adv-x="603" 
d="M546 47c-14 -8 -90 -62 -214 -62c-169 0 -292 105 -292 276c0 177 130 283 301 283c124 0 187 -57 198 -68l-66 -96c-19 12 -58 38 -125 38c-88 0 -150 -57 -150 -150c0 -103 69 -160 148 -160c32 0 61 8 69 11v72h-100v99h231v-243z" />
    <glyph glyph-name="Hsmall" unicode="&#xf768;" horiz-adv-x="600" 
d="M536 0h-162v210h-148v-210h-162v532h162v-197h148v197h162v-532z" />
    <glyph glyph-name="Ismall" unicode="&#xf769;" horiz-adv-x="290" 
d="M226 0h-162v532h162v-532z" />
    <glyph glyph-name="Jsmall" unicode="&#xf76a;" horiz-adv-x="390" 
d="M331 200c0 -62 -1 -122 -48 -169c-27 -27 -74 -46 -136 -46c-76 0 -130 36 -136 41l51 101c8 -3 31 -14 57 -14c18 0 28 4 36 12c10 10 14 19 14 67v340h162v-332z" />
    <glyph glyph-name="Ksmall" unicode="&#xf76b;" horiz-adv-x="594" 
d="M575 0h-186l-163 237v-237h-162v532h162v-242l171 242h168l-190 -258z" />
    <glyph glyph-name="Lsmall" unicode="&#xf76c;" horiz-adv-x="473" 
d="M422 0h-358v532h162v-407h196v-125z" />
    <glyph glyph-name="Msmall" unicode="&#xf76d;" horiz-adv-x="789" 
d="M735 0h-141l-35 326l-113 -326h-111l-119 326l-28 -326h-134l61 532h161l120 -328l113 328h161z" />
    <glyph glyph-name="Nsmall" unicode="&#xf76e;" horiz-adv-x="595" 
d="M531 0h-127l-199 282l4 -282h-145v532h135l191 -277l-3 277h144v-532z" />
    <glyph glyph-name="Osmall" unicode="&#xf76f;" horiz-adv-x="657" 
d="M617 270c0 -173 -121 -285 -287 -285c-174 0 -290 119 -290 287c0 161 116 272 286 272c176 0 291 -117 291 -274zM457 270c0 89 -53 152 -134 152c-72 0 -123 -62 -123 -162c0 -99 57 -152 131 -152c104 0 126 92 126 162z" />
    <glyph glyph-name="Psmall" unicode="&#xf770;" horiz-adv-x="535" 
d="M489 360c0 -68 -31 -106 -50 -125c-52 -52 -116 -59 -188 -59h-27v-176h-160v532h174c79 0 154 -3 203 -52c30 -30 48 -70 48 -120zM335 356c0 23 -8 40 -17 49c-15 15 -34 16 -70 16h-24v-133h20c47 0 62 6 73 17c10 10 18 30 18 51z" />
    <glyph glyph-name="Qsmall" unicode="&#xf771;" horiz-adv-x="661" 
d="M621 -100c-10 -3 -50 -16 -127 -16c-107 0 -195 41 -251 112c-33 4 -203 66 -203 276c0 161 116 272 286 272c176 0 291 -117 291 -274c0 -207 -164 -268 -200 -273c5 -3 38 -18 109 -18c38 0 73 8 78 9zM457 270c0 89 -53 152 -134 152c-72 0 -123 -62 -123 -162
c0 -99 57 -152 131 -152c104 0 126 92 126 162z" />
    <glyph glyph-name="Rsmall" unicode="&#xf772;" horiz-adv-x="533" 
d="M515 0h-162l-61 130c-18 38 -30 59 -70 59v-189h-158v532h168c69 0 145 4 199 -50c26 -26 45 -59 45 -107c0 -65 -46 -118 -126 -130c57 -5 80 -74 100 -114zM331 361c0 14 -4 32 -15 43c-16 16 -40 18 -74 18h-20v-127h26c30 0 83 1 83 66z" />
    <glyph glyph-name="Ssmall" unicode="&#xf773;" horiz-adv-x="482" 
d="M442 161c0 -107 -90 -176 -216 -176c-123 0 -195 58 -205 67l65 94c14 -9 59 -43 132 -43c48 0 72 18 72 51c0 55 -133 55 -212 134c-20 20 -37 50 -37 93c0 99 91 163 208 163c112 0 175 -45 188 -57l-60 -92c-10 6 -62 35 -121 35c-41 0 -64 -15 -64 -39
c0 -52 134 -56 210 -132c30 -30 40 -67 40 -98z" />
    <glyph glyph-name="Tsmall" unicode="&#xf774;" horiz-adv-x="498" 
d="M473 409h-143v-409h-162v409h-143v123h448v-123z" />
    <glyph glyph-name="Usmall" unicode="&#xf775;" horiz-adv-x="589" 
d="M530 218c0 -90 -15 -131 -58 -171c-20 -19 -68 -62 -179 -62c-61 0 -125 15 -176 63c-52 49 -58 112 -58 185v299h162v-330c0 -23 2 -51 20 -69c11 -11 31 -19 55 -19c29 0 45 11 56 22c18 18 19 41 19 93v303h159v-314z" />
    <glyph glyph-name="Vsmall" unicode="&#xf776;" horiz-adv-x="592" 
d="M568 532l-200 -532h-147l-197 532h160l113 -345l115 345h156z" />
    <glyph glyph-name="Wsmall" unicode="&#xf777;" horiz-adv-x="828" 
d="M794 532l-139 -532h-148l-91 342l-97 -342h-148l-137 532h153l70 -352l101 352h125l96 -353l75 353h140z" />
    <glyph glyph-name="Xsmall" unicode="&#xf778;" horiz-adv-x="571" 
d="M551 0h-167l-99 160l-102 -160h-163l186 274l-175 258h169l93 -149l96 149h160l-176 -256z" />
    <glyph glyph-name="Ysmall" unicode="&#xf779;" horiz-adv-x="562" 
d="M543 532l-185 -317v-215h-162v215l-177 317h164l102 -203l110 203h148z" />
    <glyph glyph-name="Zsmall" unicode="&#xf77a;" horiz-adv-x="528" 
d="M478 0h-426v102l227 307h-218v123h408v-105l-219 -302h228v-125z" />
    <glyph glyph-name="Aacutesmall" unicode="&#xf7e1;" horiz-adv-x="569" 
d="M557 0h-155l-30 94h-180l-28 -94h-152l191 532h160zM336 207l-56 178l-53 -178h109zM430 685l-247 -100l-50 84l235 131z" />
    <glyph glyph-name="Agravesmall" unicode="&#xf7e0;" horiz-adv-x="569" 
d="M557 0h-155l-30 94h-180l-28 -94h-152l191 532h160zM336 207l-56 178l-53 -178h109zM440 669l-50 -84l-247 100l62 115z" />
    <glyph glyph-name="Acircumflexsmall" unicode="&#xf7e2;" horiz-adv-x="569" 
d="M557 0h-155l-30 94h-180l-28 -94h-152l191 532h160zM336 207l-56 178l-53 -178h109zM468 656l-54 -71l-129 72l-129 -71l-52 78l181 135z" />
    <glyph glyph-name="Atildesmall" unicode="&#xf7e3;" horiz-adv-x="569" 
d="M557 0h-155l-30 94h-180l-28 -94h-152l191 532h160zM336 207l-56 178l-53 -178h109zM468 689c-17 -20 -70 -85 -132 -85c-47 0 -75 32 -108 32c-24 0 -49 -25 -66 -39l-64 64c8 10 64 85 132 85c44 0 73 -31 107 -31c28 0 48 21 67 38z" />
    <glyph glyph-name="Adieresissmall" unicode="&#xf7e4;" horiz-adv-x="569" 
d="M557 0h-155l-30 94h-180l-28 -94h-152l191 532h160zM336 207l-56 178l-53 -178h109zM465 685c0 -43 -36 -78 -79 -78s-78 35 -78 78s35 79 78 79s79 -36 79 -79zM255 685c0 -43 -36 -78 -79 -78s-78 35 -78 78s35 79 78 79s79 -36 79 -79z" />
    <glyph glyph-name="Aringsmall" unicode="&#xf7e5;" horiz-adv-x="569" 
d="M557 0h-155l-30 94h-180l-28 -94h-152l191 532h160zM336 207l-56 178l-53 -178h109zM395 700c0 -63 -50 -114 -113 -114s-114 51 -114 114c0 62 51 113 114 113c62 0 113 -50 113 -113zM327 701c0 25 -21 46 -46 46s-46 -21 -46 -46s21 -46 46 -46s46 21 46 46z" />
    <glyph glyph-name="AEsmall" unicode="&#xf7e6;" horiz-adv-x="821" 
d="M771 0h-370v99h-178l-57 -99h-154l339 532h413v-123h-206v-79h193v-121h-193v-84h213v-125zM401 213v196l-112 -196h112z" />
    <glyph glyph-name="Ccedillasmall" unicode="&#xf7e7;" horiz-adv-x="564" 
d="M540 59c-18 -14 -89 -68 -197 -73l-5 -31c6 1 12 3 20 3c56 0 96 -36 96 -91c0 -64 -54 -102 -108 -102c-42 0 -75 16 -85 26l23 47s23 -15 54 -15c40 0 50 26 50 42c0 22 -20 38 -45 38c-21 0 -37 -10 -42 -14l-33 19l12 80c-137 15 -240 116 -240 272
c0 179 131 284 298 284c108 0 186 -56 201 -71l-66 -97c-12 8 -59 42 -121 42c-88 0 -150 -64 -150 -153c0 -84 51 -151 139 -151c70 0 130 42 138 47z" />
    <glyph glyph-name="Ethsmall" unicode="&#xf7f0;" horiz-adv-x="624" 
d="M584 271c0 -67 -24 -140 -76 -188c-89 -83 -208 -83 -311 -83h-140v217h-83v107h83v208h174c117 0 202 -3 277 -73c49 -46 76 -116 76 -188zM421 272c0 48 -13 81 -37 104c-34 33 -68 36 -137 36h-31v-88h110v-107h-110v-96h50c103 0 155 52 155 151z" />
    <glyph glyph-name="Eacutesmall" unicode="&#xf7e9;" horiz-adv-x="484" 
d="M434 0h-370v532h363v-123h-206v-79h193v-121h-193v-84h213v-125zM399 685l-247 -100l-50 84l235 131z" />
    <glyph glyph-name="Egravesmall" unicode="&#xf7e8;" horiz-adv-x="484" 
d="M434 0h-370v532h363v-123h-206v-79h193v-121h-193v-84h213v-125zM402 669l-50 -84l-247 100l62 115z" />
    <glyph glyph-name="Ecircumflexsmall" unicode="&#xf7ea;" horiz-adv-x="484" 
d="M434 0h-370v532h363v-123h-206v-79h193v-121h-193v-84h213v-125zM428 656l-54 -71l-129 72l-129 -71l-52 78l181 135z" />
    <glyph glyph-name="Edieresissmall" unicode="&#xf7eb;" horiz-adv-x="484" 
d="M436 0h-370v532h363v-123h-206v-79h193v-121h-193v-84h213v-125zM431 685c0 -43 -36 -78 -79 -78s-78 35 -78 78s35 79 78 79s79 -36 79 -79zM221 685c0 -43 -36 -78 -79 -78s-78 35 -78 78s35 79 78 79s79 -36 79 -79z" />
    <glyph glyph-name="Iacutesmall" unicode="&#xf7ed;" horiz-adv-x="290" 
d="M226 0h-162v532h162v-532zM293 685l-247 -100l-50 84l235 131z" />
    <glyph glyph-name="Igravesmall" unicode="&#xf7ec;" horiz-adv-x="290" 
d="M226 0h-162v532h162v-532zM294 669l-50 -84l-247 100l62 115z" />
    <glyph glyph-name="Icircumflexsmall" unicode="&#xf7ee;" horiz-adv-x="290" 
d="M226 0h-162v532h162v-532zM328 656l-54 -71l-129 72l-129 -71l-52 78l181 135z" />
    <glyph glyph-name="Idieresissmall" unicode="&#xf7ef;" horiz-adv-x="290" 
d="M226 0h-162v532h162v-532zM328 685c0 -43 -36 -78 -79 -78s-78 35 -78 78s35 79 78 79s79 -36 79 -79zM118 685c0 -43 -36 -78 -79 -78s-78 35 -78 78s35 79 78 79s79 -36 79 -79z" />
    <glyph glyph-name="dotlessismall" horiz-adv-x="290" 
d="M226 0h-162v532h162v-532z" />
    <glyph glyph-name="Lslashsmall" unicode="&#xf6f9;" horiz-adv-x="526" 
d="M475 0h-358v152l-51 -39l-83 110l134 97v212h162v-110l62 46l78 -111l-140 -100v-132h196v-125z" />
    <glyph glyph-name="Ntildesmall" unicode="&#xf7f1;" horiz-adv-x="595" 
d="M531 0h-127l-199 282l4 -282h-145v532h135l191 -277l-3 277h144v-532zM480 689c-17 -20 -70 -85 -132 -85c-47 0 -75 32 -108 32c-24 0 -49 -25 -66 -39l-64 64c8 10 64 85 132 85c44 0 73 -31 107 -31c28 0 48 21 67 38z" />
    <glyph glyph-name="Oacutesmall" unicode="&#xf7f3;" horiz-adv-x="657" 
d="M617 270c0 -173 -121 -285 -287 -285c-174 0 -290 119 -290 287c0 161 116 272 286 272c176 0 291 -117 291 -274zM457 270c0 89 -53 152 -134 152c-72 0 -123 -62 -123 -162c0 -99 57 -152 131 -152c104 0 126 92 126 162zM476 685l-247 -100l-50 84l235 131z" />
    <glyph glyph-name="Ogravesmall" unicode="&#xf7f2;" horiz-adv-x="657" 
d="M617 270c0 -173 -121 -285 -287 -285c-174 0 -290 119 -290 287c0 161 116 272 286 272c176 0 291 -117 291 -274zM457 270c0 89 -53 152 -134 152c-72 0 -123 -62 -123 -162c0 -99 57 -152 131 -152c104 0 126 92 126 162zM482 669l-50 -84l-247 100l62 115z" />
    <glyph glyph-name="Ocircumflexsmall" unicode="&#xf7f4;" horiz-adv-x="657" 
d="M617 270c0 -173 -121 -285 -287 -285c-174 0 -290 119 -290 287c0 161 116 272 286 272c176 0 291 -117 291 -274zM457 270c0 89 -53 152 -134 152c-72 0 -123 -62 -123 -162c0 -99 57 -152 131 -152c104 0 126 92 126 162zM510 656l-54 -71l-129 72l-129 -71l-52 78
l181 135z" />
    <glyph glyph-name="Otildesmall" unicode="&#xf7f5;" horiz-adv-x="657" 
d="M617 270c0 -173 -121 -285 -287 -285c-174 0 -290 119 -290 287c0 161 116 272 286 272c176 0 291 -117 291 -274zM457 270c0 89 -53 152 -134 152c-72 0 -123 -62 -123 -162c0 -99 57 -152 131 -152c104 0 126 92 126 162zM513 689c-17 -20 -70 -85 -132 -85
c-47 0 -75 32 -108 32c-24 0 -49 -25 -66 -39l-64 64c8 10 64 85 132 85c44 0 73 -31 107 -31c28 0 48 21 67 38z" />
    <glyph glyph-name="Odieresissmall" unicode="&#xf7f6;" horiz-adv-x="657" 
d="M617 270c0 -173 -121 -285 -287 -285c-174 0 -290 119 -290 287c0 161 116 272 286 272c176 0 291 -117 291 -274zM457 270c0 89 -53 152 -134 152c-72 0 -123 -62 -123 -162c0 -99 57 -152 131 -152c104 0 126 92 126 162zM513 685c0 -43 -36 -78 -79 -78s-78 35 -78 78
s35 79 78 79s79 -36 79 -79zM303 685c0 -43 -36 -78 -79 -78s-78 35 -78 78s35 79 78 79s79 -36 79 -79z" />
    <glyph glyph-name="Oslashsmall" unicode="&#xf7f8;" horiz-adv-x="657" 
d="M617 270c0 -173 -121 -285 -287 -285c-36 0 -75 7 -92 12l-41 -70l-110 61l44 66c-20 18 -91 86 -91 218c0 161 116 272 286 272c47 0 80 -8 90 -11l34 62l110 -62l-34 -57c16 -12 91 -78 91 -206zM457 270c0 89 -53 152 -134 152c-72 0 -123 -62 -123 -162
c0 -99 57 -152 131 -152c104 0 126 92 126 162z" />
    <glyph glyph-name="OEsmall" unicode="&#xf6fa;" horiz-adv-x="800" 
d="M750 0h-357c-117 0 -202 3 -277 73c-49 46 -76 116 -76 188c0 67 24 140 76 188c89 83 208 83 311 83h316v-123h-206v-79h193v-121h-193v-84h213v-125zM380 120v291h-22c-103 0 -155 -52 -155 -151c0 -48 13 -81 37 -104c34 -33 68 -36 137 -36h3z" />
    <glyph glyph-name="Thornsmall" unicode="&#xf7fe;" horiz-adv-x="535" 
d="M489 275c0 -68 -31 -106 -50 -125c-52 -52 -116 -59 -188 -59h-27v-91h-160v532h160v-85h14c79 0 154 -3 203 -52c30 -30 48 -70 48 -120zM335 271c0 23 -8 40 -17 49c-15 15 -34 16 -70 16h-24v-133h20c47 0 62 6 73 17c10 10 18 30 18 51z" />
    <glyph glyph-name="Scaronsmall" unicode="&#xf6fd;" horiz-adv-x="482" 
d="M442 161c0 -107 -90 -176 -216 -176c-123 0 -195 58 -205 67l65 94c14 -9 59 -43 132 -43c48 0 72 18 72 51c0 55 -133 55 -212 134c-20 20 -37 50 -37 93c0 99 91 163 208 163c112 0 175 -45 188 -57l-60 -92c-10 6 -62 35 -121 35c-41 0 -64 -15 -64 -39
c0 -52 134 -56 210 -132c30 -30 40 -67 40 -98zM428 720l-181 -135l-183 143l54 71l129 -72l129 71z" />
    <glyph glyph-name="Uacutesmall" unicode="&#xf7fa;" horiz-adv-x="589" 
d="M530 218c0 -90 -15 -131 -58 -171c-20 -19 -68 -62 -179 -62c-61 0 -125 15 -176 63c-52 49 -58 112 -58 185v299h162v-330c0 -23 2 -51 20 -69c11 -11 31 -19 55 -19c29 0 45 11 56 22c18 18 19 41 19 93v303h159v-314zM446 685l-247 -100l-50 84l235 131z" />
    <glyph glyph-name="Ugravesmall" unicode="&#xf7f9;" horiz-adv-x="589" 
d="M530 218c0 -90 -15 -131 -58 -171c-20 -19 -68 -62 -179 -62c-61 0 -125 15 -176 63c-52 49 -58 112 -58 185v299h162v-330c0 -23 2 -51 20 -69c11 -11 31 -19 55 -19c29 0 45 11 56 22c18 18 19 41 19 93v303h159v-314zM443 669l-50 -84l-247 100l62 115z" />
    <glyph glyph-name="Ucircumflexsmall" unicode="&#xf7fb;" horiz-adv-x="589" 
d="M530 218c0 -90 -15 -131 -58 -171c-20 -19 -68 -62 -179 -62c-61 0 -125 15 -176 63c-52 49 -58 112 -58 185v299h162v-330c0 -23 2 -51 20 -69c11 -11 31 -19 55 -19c29 0 45 11 56 22c18 18 19 41 19 93v303h159v-314zM484 656l-54 -71l-129 72l-129 -71l-52 78
l181 135z" />
    <glyph glyph-name="Udieresissmall" unicode="&#xf7fc;" horiz-adv-x="589" 
d="M530 218c0 -90 -15 -131 -58 -171c-20 -19 -68 -62 -179 -62c-61 0 -125 15 -176 63c-52 49 -58 112 -58 185v299h162v-330c0 -23 2 -51 20 -69c11 -11 31 -19 55 -19c29 0 45 11 56 22c18 18 19 41 19 93v303h159v-314zM483 685c0 -43 -36 -78 -79 -78s-78 35 -78 78
s35 79 78 79s79 -36 79 -79zM273 685c0 -43 -36 -78 -79 -78s-78 35 -78 78s35 79 78 79s79 -36 79 -79z" />
    <glyph glyph-name="Yacutesmall" unicode="&#xf7fd;" horiz-adv-x="562" 
d="M543 532l-185 -317v-215h-162v215l-177 317h164l102 -203l110 203h148zM433 685l-247 -100l-50 84l235 131z" />
    <glyph glyph-name="Ydieresissmall" unicode="&#xf7ff;" horiz-adv-x="562" 
d="M543 532l-185 -317v-215h-162v215l-177 317h164l102 -203l110 203h148zM469 687c0 -43 -36 -78 -79 -78s-78 35 -78 78s35 79 78 79s79 -36 79 -79zM259 687c0 -43 -36 -78 -79 -78s-78 35 -78 78s35 79 78 79s79 -36 79 -79z" />
    <glyph glyph-name="Zcaronsmall" unicode="&#xf6ff;" horiz-adv-x="528" 
d="M478 0h-426v102l227 307h-218v123h408v-105l-219 -302h228v-125zM435 720l-181 -135l-183 143l54 71l129 -72l129 71z" />
    <glyph glyph-name="Eurooldstyle" horiz-adv-x="649" 
d="M649 66c-8 -9 -79 -83 -225 -83c-224 0 -272 189 -276 218h-80v104h71c-1 11 -1 22 -1 28c0 1 0 19 1 29h-71v104h78c4 21 49 218 277 218c147 0 217 -82 222 -89l-77 -87c-12 9 -58 49 -135 49c-106 0 -125 -76 -129 -91h184v-104h-197c-1 -10 -1 -26 -1 -29
c0 -5 0 -17 1 -28h197v-104h-182c1 -7 12 -89 131 -89c80 0 129 43 135 47z" />
    <glyph glyph-name="dollaroldstyle" horiz-adv-x="556" 
d="M516 203c0 -127 -101 -194 -200 -208v-111h-106v108c-104 8 -175 55 -195 73l71 105c14 -8 73 -49 160 -49c57 0 101 20 101 72c0 17 -5 28 -19 42c-32 30 -172 62 -241 127c-27 26 -51 58 -51 118c0 122 112 176 174 189v114h106v-107c117 -8 181 -57 194 -69l-72 -101
c-13 8 -71 46 -144 46c-55 0 -90 -21 -90 -59c0 -23 11 -31 20 -39c34 -32 166 -60 241 -131c32 -30 51 -71 51 -120z" />
    <glyph glyph-name="centoldstyle" horiz-adv-x="525" 
d="M505 55c-3 -2 -58 -51 -145 -61v-108h-100v108c-113 17 -210 109 -210 257c0 163 129 247 210 259v111h100v-108c78 -8 130 -49 137 -59l-63 -97c-4 3 -45 30 -93 30c-78 0 -130 -57 -130 -133c0 -79 39 -135 121 -135c59 0 109 34 112 36z" />
    <glyph glyph-name="sterlingoldstyle" horiz-adv-x="616" 
d="M601 598l-80 -95c-10 9 -60 47 -120 47c-59 0 -99 -38 -99 -103c0 -31 6 -66 7 -70h184v-128h-169c1 -5 1 -12 1 -13c0 -29 -11 -81 -41 -103h304v-133h-518v122c88 12 97 77 97 115c0 6 -2 12 -2 12h-92v128h78c-2 23 -4 47 -4 70c0 148 91 237 248 237
c133 0 200 -79 206 -86z" />
    <glyph glyph-name="florinoldstyle" horiz-adv-x="571" 
d="M581 644l-44 -112c-13 5 -48 19 -74 19c-62 0 -65 -43 -82 -125l-10 -49h142l-28 -128h-142l-47 -256c-11 -59 -26 -131 -67 -172c-36 -36 -84 -56 -141 -56c-77 0 -139 37 -148 43l47 117c11 -4 43 -18 69 -18c24 0 40 7 48 15c11 11 16 16 29 82l49 245h-123l26 128
h125l15 79c20 105 33 142 63 172c38 38 83 56 143 56c80 0 142 -36 150 -40z" />
    <glyph glyph-name="yenoldstyle" horiz-adv-x="608" 
d="M603 667l-154 -267h85v-104h-143v-71h141v-102h-141v-123h-158v123h-151v102h151v71h-153v104h91l-151 267h169l132 -272l130 272h152z" />
    <glyph glyph-name="zerooldstyle" unicode="&#xf730;" horiz-adv-x="663" 
d="M620 270c0 -173 -121 -285 -287 -285c-174 0 -290 119 -290 287c0 161 116 272 286 272c176 0 291 -117 291 -274zM460 270c0 89 -53 152 -134 152c-72 0 -123 -62 -123 -162c0 -99 57 -152 131 -152c104 0 126 92 126 162z" />
    <glyph glyph-name="oneoldstyle" unicode="&#xf731;" horiz-adv-x="439" 
d="M370 0h-161v364l-127 -83l-72 98l234 153h126v-532z" />
    <glyph glyph-name="twooldstyle" unicode="&#xf732;" horiz-adv-x="485" 
d="M437 0h-412v107c14 11 130 101 181 152c36 36 67 67 67 104c0 42 -35 57 -64 57c-45 0 -96 -38 -120 -59l-79 89c8 11 83 94 211 94c105 0 205 -58 205 -180c0 -72 -45 -115 -60 -130c-45 -45 -104 -87 -133 -109h204v-125z" />
    <glyph glyph-name="threeoldstyle" unicode="&#xf733;" horiz-adv-x="481" 
d="M443 75c0 -121 -88 -208 -256 -208c-126 0 -195 54 -208 66l63 93c37 -24 82 -41 130 -41c84 0 121 39 121 89c0 27 -6 42 -18 54c-29 30 -92 28 -122 28h-26v114h7c46 0 95 -3 130 33c11 11 17 25 17 47c0 42 -41 75 -99 75c-60 0 -104 -34 -121 -48l-70 81
c55 62 140 86 218 86c122 0 215 -75 215 -182c0 -84 -52 -134 -104 -143c90 -12 123 -81 123 -144z" />
    <glyph glyph-name="fouroldstyle" unicode="&#xf734;" horiz-adv-x="593" 
d="M578 15h-103v-139h-155v139h-300v102l289 415h166v-399h103v-118zM320 133v221l-143 -221h143z" />
    <glyph glyph-name="fiveoldstyle" unicode="&#xf735;" horiz-adv-x="532" 
d="M497 114c0 -143 -104 -246 -275 -246c-130 0 -196 60 -207 71l71 96c38 -26 82 -40 128 -40c74 0 127 37 127 104c0 54 -36 108 -120 108c-52 0 -92 -26 -102 -35l-50 31v329h397v-124h-253v-102c9 6 34 16 71 16c126 0 213 -94 213 -208z" />
    <glyph glyph-name="sixoldstyle" unicode="&#xf736;" horiz-adv-x="605" 
d="M562 223c0 -140 -102 -240 -251 -240c-165 0 -268 129 -268 327c0 210 108 352 294 352c136 0 203 -57 212 -66l-63 -94c-43 26 -86 43 -137 43c-100 0 -162 -54 -171 -170c14 21 69 72 157 72c133 0 227 -94 227 -224zM420 219c0 63 -44 104 -104 104
c-65 0 -109 -44 -109 -104c0 -66 46 -108 109 -108c61 0 104 43 104 108z" />
    <glyph glyph-name="sevenoldstyle" unicode="&#xf737;" horiz-adv-x="520" 
d="M490 412l-250 -536h-168l254 526h-318v130h482v-120z" />
    <glyph glyph-name="eightoldstyle" unicode="&#xf738;" horiz-adv-x="592" 
d="M549 186c0 -126 -101 -202 -252 -202s-254 77 -254 203c0 68 38 132 106 152c-59 21 -85 75 -85 133c0 115 93 190 231 190c139 0 234 -75 234 -189c0 -65 -33 -116 -85 -134c69 -22 105 -81 105 -153zM391 469c0 45 -30 76 -95 76c-62 0 -94 -35 -94 -76
c0 -43 34 -77 97 -77c60 0 92 34 92 77zM409 192c0 49 -41 85 -112 85c-78 0 -113 -39 -113 -84c0 -52 35 -90 114 -90c73 0 111 34 111 89z" />
    <glyph glyph-name="nineoldstyle" unicode="&#xf739;" horiz-adv-x="605" 
d="M562 217c0 -210 -108 -352 -294 -352c-137 0 -203 58 -212 66l63 94c43 -26 86 -43 137 -43c101 0 162 56 171 170c-14 -21 -69 -72 -157 -72c-133 0 -227 94 -227 224c0 140 102 240 251 240c165 0 268 -129 268 -327zM398 308c0 66 -48 108 -111 108
c-61 0 -102 -43 -102 -108c0 -63 42 -104 102 -104c65 0 111 44 111 104z" />
    <glyph glyph-name="ampersandsmall" unicode="&#xf726;" horiz-adv-x="621" 
d="M567 -7c0 0 -21 -4 -35 -4c-26 0 -74 7 -111 43c-14 -10 -73 -49 -169 -49c-118 0 -209 73 -209 172c0 64 48 122 110 146c-25 27 -53 63 -53 103c0 83 82 140 180 140c76 0 114 -31 128 -44s35 -42 35 -84c0 -87 -72 -116 -120 -139l96 -97c18 24 30 74 31 106h108
c-2 -92 -44 -159 -57 -175c11 -9 23 -20 66 -25v-93zM327 415c0 18 -14 35 -45 35c-36 0 -55 -20 -55 -43c0 -15 7 -29 32 -59c47 23 68 39 68 67zM348 103l-130 129c-40 -25 -50 -46 -50 -74c0 -41 36 -80 97 -80c35 0 69 12 83 25z" />
    <glyph glyph-name=".null" horiz-adv-x="0" 
 />
    <glyph glyph-name="Acute" unicode="&#xf6c9;" horiz-adv-x="443" 
d="M370 832l-247 -100l-50 84l235 131z" />
    <glyph glyph-name="Grave" unicode="&#xf6ce;" horiz-adv-x="443" 
d="M320 732l-247 100l62 115l235 -131z" />
    <glyph glyph-name="Circumflex" unicode="&#xeff7;" horiz-adv-x="443" 
d="M404 802l-54 -71l-129 72l-129 -71l-52 78l181 135z" />
    <glyph glyph-name="Tilde" unicode="&#xeff5;" horiz-adv-x="443" 
d="M406 820c-17 -20 -70 -85 -132 -85c-47 0 -75 32 -108 32c-24 0 -49 -25 -66 -39l-64 64c8 10 64 85 132 85c44 0 73 -31 107 -31c28 0 48 21 67 38z" />
    <glyph glyph-name="Dieresis" unicode="&#xf6cb;" horiz-adv-x="443" 
d="M405 819c0 -43 -36 -78 -79 -78s-78 35 -78 78s35 79 78 79s79 -36 79 -79zM195 819c0 -43 -36 -78 -79 -78s-78 35 -78 78s35 79 78 79s79 -36 79 -79z" />
    <glyph glyph-name="Macron" unicode="&#xf6d0;" horiz-adv-x="443" 
d="M401 743h-358v128h358v-128z" />
    <glyph glyph-name="Breve" unicode="&#xefee;" horiz-adv-x="443" 
d="M381 897c-1 -101 -62 -166 -159 -166s-159 65 -160 166h107c3 -43 22 -63 53 -63c32 0 50 20 53 63h106z" />
    <glyph glyph-name="Ring" unicode="&#xfff3;" horiz-adv-x="443" 
d="M335 845c0 -63 -50 -114 -113 -114s-114 51 -114 114c0 62 51 113 114 113c62 0 113 -50 113 -113zM267 846c0 25 -21 46 -46 46s-46 -21 -46 -46s21 -46 46 -46s46 21 46 46z" />
    <glyph glyph-name="Caron" unicode="&#xf6ca;" horiz-adv-x="443" 
d="M404 867l-181 -135l-183 143l54 71l129 -72l129 71z" />
    <glyph glyph-name="Hungarumlaut" unicode="&#xf6cf;" horiz-adv-x="443" 
d="M403 900l-82 -176l-107 36l61 185zM230 900l-82 -176l-107 36l61 185z" />
    <glyph glyph-name="Dotaccent" unicode="&#xefed;" horiz-adv-x="443" 
d="M300 819c0 -44 -36 -78 -79 -78s-78 34 -78 78c0 43 35 79 78 79s79 -36 79 -79z" />
    <glyph glyph-name="commaaccent" horiz-adv-x="443" 
d="M188 -93h153c4 -110 -48 -200 -159 -274l-81 72c64 56 90 117 87 202z" />
    <glyph glyph-name="Commaaccent" horiz-adv-x="443" 
d="M188 -93h153c4 -110 -48 -200 -159 -274l-81 72c64 56 90 117 87 202z" />
    <glyph glyph-name="Cedilla" unicode="&#xeff2;" horiz-adv-x="443" 
d="M318 -133c0 -64 -54 -102 -108 -102c-42 0 -75 16 -85 26l23 47s23 -15 54 -15c40 0 50 26 50 42c0 22 -20 38 -45 38c-21 0 -37 -10 -42 -14l-33 19l14 93h63l-7 -46c6 1 12 3 20 3c56 0 96 -36 96 -91z" />
    <glyph glyph-name="Ogonek" unicode="&#xeff1;" horiz-adv-x="443" 
d="M331 -169c-7 -4 -54 -34 -110 -34c-66 0 -109 45 -109 114c0 58 41 83 58 89h87c-37 -23 -73 -49 -73 -89c0 -29 18 -50 47 -50c31 0 66 19 74 23z" />
    <glyph glyph-name="figuredash" unicode="&#x2012;" horiz-adv-x="662" 
d="M608 202h-554v128h554v-128z" />
    <glyph glyph-name="afii61289" unicode="&#x2113;" horiz-adv-x="500" 
d="M249 269c-29 -150 -33 -173 -33 -208c0 -17 6 -25 18 -25c17 0 34 18 51 54c6 14 11 18 19 18s13 -5 13 -15c0 -15 -10 -37 -26 -60c-25 -32 -48 -47 -76 -47c-42 0 -67 33 -67 88c0 28 1 45 10 127c-30 -28 -43 -38 -49 -38c-7 0 -14 8 -14 16c0 7 5 14 20 27
c8 7 39 39 50 52c55 287 117 420 197 420c38 0 63 -32 63 -81c0 -54 -25 -128 -64 -192c-24 -38 -57 -79 -112 -136zM260 333c81 91 125 181 125 260c0 26 -9 44 -23 44c-15 0 -32 -18 -41 -44c-19 -53 -41 -145 -61 -260z" />
    <glyph glyph-name="estimated" unicode="&#x212e;" horiz-adv-x="798" 
d="M769 311h-599c-3 0 -6 -1 -6 -4v-181c0 -8 4 -15 9 -21c57 -60 137 -98 227 -98c95 0 180 43 238 110h54c-67 -78 -174 -130 -293 -130c-204 0 -370 149 -370 333c0 183 166 332 370 332s370 -149 370 -332v-9zM634 335v181c0 9 -4 16 -10 22c-57 58 -137 94 -224 94
c-89 0 -169 -38 -226 -97c-6 -6 -10 -14 -10 -23v-177c0 -3 3 -5 6 -5h459c3 0 5 2 5 5z" />
    <glyph glyph-name="zero.numr" unicode="&#xf661;" 
d="M365 495c0 -107 -58 -180 -156 -180s-153 74 -153 183c0 101 58 176 152 176c97 0 157 -75 157 -179zM274 492c0 75 -29 106 -63 106c-35 0 -64 -31 -64 -101c0 -74 27 -105 61 -105c62 0 66 66 66 100z" />
    <glyph glyph-name="one.numr" unicode="&#xf662;" 
d="M297 324h-91v238l-71 -46l-43 63l134 88h71v-343z" />
    <glyph glyph-name="two.numr" unicode="&#xf663;" 
d="M337 323h-249v65c104 82 154 130 154 172c0 23 -18 39 -43 39c-29 0 -50 -16 -76 -39l-44 53c36 44 81 61 127 61c66 0 121 -44 121 -114c0 -77 -71 -133 -114 -163h124v-74z" />
    <glyph glyph-name="three.numr" unicode="&#xf664;" 
d="M343 428c0 -69 -51 -115 -142 -115c-77 0 -116 37 -122 42l41 61c9 -5 36 -26 74 -26c40 0 55 18 55 38c0 40 -47 35 -67 35h-21v69h13c23 0 69 -1 69 34c0 15 -16 32 -44 32c-34 0 -63 -24 -71 -30l-45 53c36 45 87 53 129 53c68 0 120 -40 120 -102
c0 -25 -10 -64 -45 -73c41 -2 56 -46 56 -71z" />
    <glyph glyph-name="four.numr" unicode="&#xf665;" 
d="M370 385h-51v-61h-79v61h-169v56l165 226h83v-217h51v-65zM240 450v121l-82 -121h82z" />
    <glyph glyph-name="five.numr" unicode="&#xf666;" 
d="M336 441c0 -81 -52 -126 -145 -126c-75 0 -115 40 -117 45l41 58c8 -8 40 -27 73 -27s54 13 54 42c0 28 -15 47 -57 47c-25 0 -51 -13 -55 -17l-30 20v184h217v-77h-134v-44c6 2 18 5 33 5c68 0 120 -41 120 -110z" />
    <glyph glyph-name="six.numr" unicode="&#xf667;" 
d="M346 441c0 -77 -55 -126 -134 -126c-84 0 -146 61 -146 173c0 119 67 186 161 186c72 0 110 -33 112 -37l-35 -58c-2 1 -33 21 -73 21c-52 0 -73 -32 -80 -71c14 16 40 32 75 32c70 0 120 -49 120 -120zM261 439c0 28 -22 47 -47 47c-27 0 -50 -18 -50 -45
c0 -33 22 -52 50 -52s47 20 47 50z" />
    <glyph glyph-name="seven.numr" unicode="&#xf668;" 
d="M342 603l-129 -280h-99l135 270h-162v74h255v-64z" />
    <glyph glyph-name="eight.numr" unicode="&#xf669;" 
d="M354 427c0 -73 -60 -113 -143 -113c-81 0 -144 41 -144 113c0 40 22 64 50 75c-21 10 -39 29 -39 66c0 65 58 106 133 106s133 -41 133 -105c0 -42 -26 -58 -45 -64c28 -11 55 -36 55 -78zM255 567c0 20 -15 34 -45 34c-26 0 -43 -14 -43 -34c0 -24 16 -34 46 -34
c27 0 42 10 42 34zM265 428c0 22 -18 39 -53 39c-38 0 -54 -16 -54 -39c0 -24 18 -41 53 -41c36 0 54 17 54 41z" />
    <glyph glyph-name="nine.numr" unicode="&#xf66a;" 
d="M355 496c0 -120 -65 -182 -160 -182c-73 0 -110 32 -113 35l36 61c3 -1 33 -21 72 -21c53 0 75 29 81 69c-17 -20 -47 -31 -75 -31c-70 0 -119 46 -119 117c0 79 53 130 134 130c82 0 144 -63 144 -178zM257 545c0 33 -21 53 -50 53c-26 0 -48 -20 -48 -53
c0 -27 23 -45 48 -45c29 0 50 16 50 45z" />
    <glyph glyph-name="parenleft.numr" unicode="&#xf631;" horiz-adv-x="279" 
d="M56 494c0 157 129 222 146 227l44 -60c-17 -10 -98 -60 -98 -167c0 -104 85 -159 96 -166l-43 -57c-12 4 -145 64 -145 223z" />
    <glyph glyph-name="parenright.numr" unicode="&#xf632;" horiz-adv-x="279" 
d="M223 498c0 -157 -129 -222 -146 -227l-44 60c17 10 98 60 98 167c0 104 -85 159 -96 166l43 57c12 -4 145 -64 145 -223z" />
    <glyph glyph-name="zero.dnom" unicode="&#xf655;" 
d="M365 172c0 -107 -58 -180 -156 -180s-153 74 -153 183c0 101 58 176 152 176c97 0 157 -75 157 -179zM274 169c0 75 -29 106 -63 106c-35 0 -64 -31 -64 -101c0 -74 27 -105 61 -105c62 0 66 66 66 100z" />
    <glyph glyph-name="one.dnom" unicode="&#xf656;" 
d="M297 0h-91v238l-71 -46l-43 63l134 88h71v-343z" />
    <glyph glyph-name="two.dnom" unicode="&#xf657;" 
d="M337 0h-249v65c104 82 154 130 154 172c0 23 -18 39 -43 39c-29 0 -50 -16 -76 -39l-44 53c36 44 81 61 127 61c66 0 121 -44 121 -114c0 -77 -71 -133 -114 -163h124v-74z" />
    <glyph glyph-name="three.dnom" unicode="&#xf658;" 
d="M343 105c0 -69 -51 -115 -142 -115c-77 0 -116 37 -122 42l41 61c9 -5 36 -26 74 -26c40 0 55 18 55 38c0 40 -47 35 -67 35h-21v69h13c23 0 69 -1 69 34c0 15 -16 32 -44 32c-34 0 -63 -24 -71 -30l-45 53c36 45 87 53 129 53c68 0 120 -40 120 -102
c0 -25 -10 -64 -45 -73c41 -2 56 -46 56 -71z" />
    <glyph glyph-name="four.dnom" unicode="&#xf659;" 
d="M370 61h-51v-61h-79v61h-169v56l165 226h83v-217h51v-65zM240 126v121l-82 -121h82z" />
    <glyph glyph-name="five.dnom" unicode="&#xf65a;" 
d="M336 117c0 -81 -52 -126 -145 -126c-75 0 -115 40 -117 45l41 58c8 -8 40 -27 73 -27s54 13 54 42c0 28 -15 47 -57 47c-25 0 -51 -13 -55 -17l-30 20v184h217v-77h-134v-44c6 2 18 5 33 5c68 0 120 -41 120 -110z" />
    <glyph glyph-name="six.dnom" unicode="&#xf65b;" 
d="M346 117c0 -77 -55 -126 -134 -126c-84 0 -146 61 -146 173c0 119 67 186 161 186c72 0 110 -33 112 -37l-35 -58c-2 1 -33 21 -73 21c-52 0 -73 -32 -80 -71c14 16 40 32 75 32c70 0 120 -49 120 -120zM261 115c0 28 -22 47 -47 47c-27 0 -50 -18 -50 -45
c0 -33 22 -52 50 -52s47 20 47 50z" />
    <glyph glyph-name="seven.dnom" unicode="&#xf65c;" 
d="M342 279l-129 -279h-99l135 269h-162v74h255v-64z" />
    <glyph glyph-name="eight.dnom" unicode="&#xf65d;" 
d="M354 104c0 -73 -60 -113 -143 -113c-81 0 -144 41 -144 113c0 40 22 64 50 75c-21 10 -39 29 -39 66c0 65 58 106 133 106s133 -41 133 -105c0 -42 -26 -58 -45 -64c28 -11 55 -36 55 -78zM255 244c0 20 -15 34 -45 34c-26 0 -43 -14 -43 -34c0 -24 16 -34 46 -34
c27 0 42 10 42 34zM265 105c0 22 -18 39 -53 39c-38 0 -54 -16 -54 -39c0 -24 18 -41 53 -41c36 0 54 17 54 41z" />
    <glyph glyph-name="nine.dnom" unicode="&#xf65e;" 
d="M355 173c0 -120 -65 -182 -160 -182c-73 0 -110 32 -113 35l36 61c3 -1 33 -21 72 -21c53 0 75 29 81 69c-17 -20 -47 -31 -75 -31c-70 0 -119 46 -119 117c0 79 53 130 134 130c82 0 144 -63 144 -178zM257 222c0 33 -21 53 -50 53c-26 0 -48 -20 -48 -53
c0 -27 23 -45 48 -45c29 0 50 16 50 45z" />
    <glyph glyph-name="parenleft.dnom" unicode="&#xf62c;" horiz-adv-x="279" 
d="M56 174c0 157 129 222 146 227l44 -60c-17 -10 -98 -60 -98 -167c0 -104 85 -159 96 -166l-43 -57c-12 4 -145 64 -145 223z" />
    <glyph glyph-name="parenright.dnom" unicode="&#xf62d;" horiz-adv-x="279" 
d="M223 174c0 -157 -129 -222 -146 -227l-44 60c17 10 98 60 98 167c0 104 -85 159 -96 166l43 57c12 -4 145 -64 145 -223z" />
    <glyph glyph-name="amacron" unicode="&#x101;" horiz-adv-x="523" 
d="M472 0h-132v42c-11 -9 -62 -53 -140 -53c-100 0 -161 67 -161 162c0 183 221 183 273 183h11c0 16 1 32 -12 45c-8 8 -24 16 -59 16c-70 0 -132 -31 -138 -34l-48 95c8 6 76 54 194 54c76 0 133 -19 172 -58c43 -43 40 -101 40 -162v-290zM325 131v101
c-38 0 -108 2 -137 -27c-9 -9 -17 -22 -17 -42c0 -48 36 -60 62 -60c54 0 87 25 92 28zM457 583h-358v128h358v-128z" />
    <glyph glyph-name="abreve" unicode="&#x103;" horiz-adv-x="523" 
d="M472 0h-132v42c-11 -9 -62 -53 -140 -53c-100 0 -161 67 -161 162c0 183 221 183 273 183h11c0 16 1 32 -12 45c-8 8 -24 16 -59 16c-70 0 -132 -31 -138 -34l-48 95c8 6 76 54 194 54c76 0 133 -19 172 -58c43 -43 40 -101 40 -162v-290zM325 131v101
c-38 0 -108 2 -137 -27c-9 -9 -17 -22 -17 -42c0 -48 36 -60 62 -60c54 0 87 25 92 28zM428 736c-1 -101 -62 -166 -159 -166s-159 65 -160 166h107c3 -43 22 -63 53 -63c32 0 50 20 53 63h106z" />
    <glyph glyph-name="aogonek" unicode="&#x105;" horiz-adv-x="523" 
d="M325 131v101c-38 0 -108 2 -137 -27c-9 -9 -17 -22 -17 -42c0 -48 36 -60 62 -60c54 0 87 25 92 28zM340 0v42c-11 -9 -62 -53 -140 -53c-100 0 -161 67 -161 162c0 183 221 183 273 183h11c0 16 1 32 -12 45c-8 8 -24 16 -59 16c-70 0 -132 -31 -138 -34l-48 95
c8 6 76 54 194 54c76 0 133 -19 172 -58c43 -43 40 -101 40 -162v-290c-37 -23 -73 -49 -73 -89c0 -29 18 -50 47 -50c31 0 66 19 74 23l26 -53c-7 -4 -54 -34 -110 -34c-66 0 -109 45 -109 114c0 58 41 83 58 89h-45z" />
    <glyph glyph-name="cacute" unicode="&#x107;" horiz-adv-x="510" 
d="M494 50c-3 -2 -71 -65 -195 -65c-161 0 -260 116 -260 261c0 152 118 265 268 265c111 0 172 -52 179 -62l-63 -97c-4 3 -45 30 -93 30c-78 0 -130 -57 -130 -133c0 -79 39 -135 121 -135c59 0 109 34 112 36zM462 645l-247 -100l-50 84l235 131z" />
    <glyph glyph-name="ccaron" unicode="&#x10d;" horiz-adv-x="510" 
d="M494 50c-3 -2 -71 -65 -195 -65c-161 0 -260 116 -260 261c0 152 118 265 268 265c111 0 172 -52 179 -62l-63 -97c-4 3 -45 30 -93 30c-78 0 -130 -57 -130 -133c0 -79 39 -135 121 -135c59 0 109 34 112 36zM487 682l-181 -135l-183 143l54 71l129 -72l129 71z" />
    <glyph glyph-name="dcaron" unicode="&#x10f;" horiz-adv-x="819" 
d="M532 0h-132v38c-7 -7 -52 -52 -137 -52c-137 0 -224 105 -224 255c0 162 117 270 237 270c52 0 84 -16 96 -21v234h160v-724zM372 137v226c-4 3 -29 21 -68 21c-60 0 -106 -53 -106 -139c0 -84 46 -131 104 -131c40 0 61 18 70 23zM665 724h153
c4 -110 -48 -200 -159 -274l-81 72c64 56 90 117 87 202z" />
    <glyph glyph-name="dcroat" unicode="&#x111;" horiz-adv-x="590" 
d="M237 549v125h135v50h160v-50h86v-125h-86v-549h-132v38c-7 -7 -52 -52 -137 -52c-137 0 -224 105 -224 255c0 162 117 270 237 270c52 0 84 -16 96 -21v59h-135zM372 137v226c-4 3 -29 21 -68 21c-60 0 -106 -53 -106 -139c0 -84 46 -131 104 -131c39 0 63 18 70 23z" />
    <glyph glyph-name="ecaron" unicode="&#x11b;" horiz-adv-x="551" 
d="M512 246c0 -21 -2 -34 -2 -46h-328c0 -35 31 -101 127 -101c67 0 118 30 127 35l47 -94c-6 -6 -87 -55 -187 -55c-186 0 -257 135 -257 260c0 152 99 266 244 266c149 0 229 -105 229 -265zM372 306c0 19 -8 96 -86 96c-83 0 -100 -82 -101 -96h187zM466 682l-181 -135
l-183 143l54 71l129 -72l129 71z" />
    <glyph glyph-name="emacron" unicode="&#x113;" horiz-adv-x="551" 
d="M512 246c0 -21 -2 -34 -2 -46h-328c0 -35 31 -101 127 -101c67 0 118 30 127 35l47 -94c-6 -6 -87 -55 -187 -55c-186 0 -257 135 -257 260c0 152 99 266 244 266c149 0 229 -105 229 -265zM372 306c0 19 -8 96 -86 96c-83 0 -100 -82 -101 -96h187zM469 583h-358v128
h358v-128z" />
    <glyph glyph-name="edotaccent" unicode="&#x117;" horiz-adv-x="551" 
d="M512 246c0 -21 -2 -34 -2 -46h-328c0 -35 31 -101 127 -101c67 0 118 30 127 35l47 -94c-6 -6 -87 -55 -187 -55c-186 0 -257 135 -257 260c0 152 99 266 244 266c149 0 229 -105 229 -265zM372 306c0 19 -8 96 -86 96c-83 0 -100 -82 -101 -96h187zM363 647
c0 -43 -36 -78 -79 -78s-78 35 -78 78s35 79 78 79s79 -36 79 -79z" />
    <glyph glyph-name="eogonek" unicode="&#x119;" horiz-adv-x="551" 
d="M456 -169c-7 -4 -54 -34 -110 -34c-66 0 -109 45 -109 114c0 38 18 65 37 75c-169 9 -235 140 -235 259c0 152 99 266 244 266c149 0 229 -105 229 -265c0 -21 -2 -34 -2 -46h-328c0 -35 31 -101 127 -101c67 0 118 30 127 35l47 -94c-68 -47 -174 -52 -174 -129
c0 -29 18 -50 47 -50c31 0 66 19 74 23zM372 306c0 19 -8 96 -86 96c-83 0 -100 -82 -101 -96h187z" />
    <glyph glyph-name="gbreve" unicode="&#x11f;" horiz-adv-x="587" 
d="M529 12c0 -62 4 -120 -55 -178c-25 -25 -81 -69 -191 -69c-143 0 -220 64 -231 74l63 99c7 -5 70 -45 149 -45c76 0 108 34 108 101v38c-6 -4 -40 -33 -107 -33c-160 0 -226 128 -226 245c0 147 105 267 272 267c112 0 203 -48 218 -56v-443zM372 149v222
c-10 5 -31 13 -64 13c-61 0 -111 -49 -111 -133c0 -82 48 -125 102 -125c44 0 71 22 73 23zM471 736c-1 -101 -62 -166 -159 -166s-159 65 -160 166h107c3 -43 22 -63 53 -63c32 0 50 20 53 63h106z" />
    <glyph glyph-name="imacron" unicode="&#x12b;" horiz-adv-x="271" 
d="M215 0h-160v496h160v-496zM315 583h-358v128h358v-128z" />
    <glyph glyph-name="lacute" unicode="&#x13a;" horiz-adv-x="276" 
d="M218 0h-160v724h160v-724zM385 873l-247 -100l-50 84l235 131z" />
    <glyph glyph-name="lcaron" unicode="&#x13e;" horiz-adv-x="505" 
d="M218 0h-160v724h160v-724zM351 724h153c4 -110 -48 -200 -159 -274l-81 72c64 56 90 117 87 202z" />
    <glyph glyph-name="nacute" unicode="&#x144;" horiz-adv-x="566" 
d="M515 0h-160v268c0 54 -2 79 -17 94c-5 5 -17 15 -44 15c-36 0 -69 -23 -76 -28v-349h-160v496h132v-40c5 5 67 55 147 55c40 0 87 -8 125 -46c55 -55 53 -129 53 -193v-272zM444 645l-247 -100l-50 84l235 131z" />
    <glyph glyph-name="ncaron" unicode="&#x148;" horiz-adv-x="566" 
d="M515 0h-160v268c0 54 -2 79 -17 94c-5 5 -17 15 -44 15c-36 0 -69 -23 -76 -28v-349h-160v496h132v-40c5 5 67 55 147 55c40 0 87 -8 125 -46c55 -55 53 -129 53 -193v-272zM478 682l-181 -135l-183 143l54 71l129 -72l129 71z" />
    <glyph glyph-name="omacron" unicode="&#x14d;" horiz-adv-x="601" 
d="M562 256c0 -159 -111 -271 -269 -271c-150 0 -254 109 -254 259c0 154 112 267 266 267c150 0 257 -110 257 -255zM402 247c0 82 -39 136 -103 136c-61 0 -100 -50 -100 -133c0 -84 42 -136 106 -136c62 0 97 50 97 133zM485 583h-358v128h358v-128z" />
    <glyph glyph-name="ohungarumlaut" unicode="&#x151;" horiz-adv-x="601" 
d="M562 256c0 -159 -111 -271 -269 -271c-150 0 -254 109 -254 259c0 154 112 267 266 267c150 0 257 -110 257 -255zM402 247c0 82 -39 136 -103 136c-61 0 -100 -50 -100 -133c0 -84 42 -136 106 -136c62 0 97 50 97 133zM518 711l-82 -176l-107 36l61 185zM345 711
l-82 -176l-107 36l61 185z" />
    <glyph glyph-name="racute" unicode="&#x155;" horiz-adv-x="429" 
d="M417 496l-36 -120c-3 1 -17 4 -30 4c-70 0 -115 -40 -133 -68v-312h-160v496h132v-66c3 5 64 81 166 81c38 0 59 -14 61 -15zM390 645l-247 -100l-50 84l235 131z" />
    <glyph glyph-name="rcaron" unicode="&#x159;" horiz-adv-x="429" 
d="M417 496l-36 -120c-3 1 -17 4 -30 4c-70 0 -115 -40 -133 -68v-312h-160v496h132v-66c3 5 64 81 166 81c38 0 59 -14 61 -15zM416 682l-181 -135l-183 143l54 71l129 -72l129 71z" />
    <glyph glyph-name="sacute" unicode="&#x15b;" horiz-adv-x="469" 
d="M423 145c0 -81 -72 -160 -193 -160c-117 0 -192 47 -198 53l50 100c14 -7 69 -39 126 -39c45 0 60 23 60 43c0 13 -2 19 -13 30c-26 26 -117 46 -165 94c-20 20 -38 46 -38 85c0 93 81 160 205 160c98 0 155 -36 166 -45l-49 -94c-8 5 -61 34 -113 34
c-36 0 -56 -14 -56 -38c0 -67 218 -55 218 -223zM407 645l-247 -100l-50 84l235 131z" />
    <glyph glyph-name="scedilla" unicode="&#x15f;" horiz-adv-x="469" 
d="M345 -133c0 -64 -54 -102 -108 -102c-42 0 -75 16 -85 26l23 47s23 -15 54 -15c40 0 50 26 50 42c0 22 -20 38 -45 38c-21 0 -37 -10 -42 -14l-33 19l13 81c-83 11 -135 44 -140 49l50 100c14 -7 69 -39 126 -39c45 0 60 23 60 43c0 13 -2 19 -13 30
c-26 26 -117 46 -165 94c-20 20 -38 46 -38 85c0 93 81 160 205 160c98 0 155 -36 166 -45l-49 -94c-8 5 -61 34 -113 34c-36 0 -56 -14 -56 -38c0 -67 218 -55 218 -223c0 -80 -70 -158 -189 -160l-5 -30c6 1 12 3 20 3c56 0 96 -36 96 -91z" />
    <glyph glyph-name="scommaaccent" unicode="&#x219;" horiz-adv-x="469" 
d="M423 145c0 -81 -72 -160 -193 -160c-117 0 -192 47 -198 53l50 100c14 -7 69 -39 126 -39c45 0 60 23 60 43c0 13 -2 19 -13 30c-26 26 -117 46 -165 94c-20 20 -38 46 -38 85c0 93 81 160 205 160c98 0 155 -36 166 -45l-49 -94c-8 5 -61 34 -113 34
c-36 0 -56 -14 -56 -38c0 -67 218 -55 218 -223zM160 -93h153c4 -110 -48 -200 -159 -274l-81 72c64 56 90 117 87 202z" />
    <glyph glyph-name="tcaron" unicode="&#x165;" horiz-adv-x="555" 
d="M422 20c-3 -3 -56 -35 -135 -35c-48 0 -102 13 -137 48c-45 45 -45 95 -45 170v168h-86v125h86v137h160v-137h135v-125h-135v-179c0 -34 2 -78 58 -78c29 0 49 7 59 11zM401 835h153c4 -110 -48 -200 -159 -274l-81 72c64 56 90 117 87 202z" />
    <glyph glyph-name="umacron" unicode="&#x16b;" horiz-adv-x="566" 
d="M508 0h-130v44c-4 -4 -67 -59 -146 -59c-52 0 -94 14 -128 48c-55 55 -53 129 -53 193v270h160v-267c0 -54 2 -79 17 -94c5 -5 17 -15 44 -15c36 0 68 23 76 28v348h160v-496zM459 583h-358v128h358v-128z" />
    <glyph glyph-name="uring" unicode="&#x16f;" horiz-adv-x="566" 
d="M508 0h-130v44c-4 -4 -67 -59 -146 -59c-52 0 -94 14 -128 48c-55 55 -53 129 -53 193v270h160v-267c0 -54 2 -79 17 -94c5 -5 17 -15 44 -15c36 0 68 23 76 28v348h160v-496zM390 662c0 -63 -50 -114 -113 -114s-114 51 -114 114c0 62 51 113 114 113
c62 0 113 -50 113 -113zM322 663c0 25 -21 46 -46 46s-46 -21 -46 -46s21 -46 46 -46s46 21 46 46z" />
    <glyph glyph-name="uhungarumlaut" unicode="&#x171;" horiz-adv-x="566" 
d="M508 0h-130v44c-4 -4 -67 -59 -146 -59c-52 0 -94 14 -128 48c-55 55 -53 129 -53 193v270h160v-267c0 -54 2 -79 17 -94c5 -5 17 -15 44 -15c36 0 68 23 76 28v348h160v-496zM482 711l-82 -176l-107 36l61 185zM309 711l-82 -176l-107 36l61 185z" />
    <glyph glyph-name="uogonek" unicode="&#x173;" horiz-adv-x="566" 
d="M378 0v44c-4 -4 -67 -59 -146 -59c-52 0 -94 14 -128 48c-55 55 -53 129 -53 193v270h160v-267c0 -54 2 -79 17 -94c5 -5 17 -15 44 -15c36 0 68 23 76 28v348h160v-496c-37 -23 -73 -49 -73 -89c0 -29 18 -50 47 -50c31 0 66 19 74 23l26 -53c-7 -4 -54 -34 -110 -34
c-66 0 -109 45 -109 114c0 58 41 83 58 89h-43z" />
    <glyph glyph-name="zacute" unicode="&#x17a;" horiz-adv-x="554" 
d="M496 0h-443v107l243 264h-230v125h418v-117l-231 -249h243v-130zM428 645l-247 -100l-50 84l235 131z" />
    <glyph glyph-name="zdotaccent" unicode="&#x17c;" horiz-adv-x="554" 
d="M496 0h-443v107l243 264h-230v125h418v-117l-231 -249h243v-130zM356 647c0 -43 -36 -78 -79 -78s-78 35 -78 78s35 79 78 79s79 -36 79 -79z" />
    <glyph glyph-name="Amacron" unicode="&#x100;" horiz-adv-x="684" 
d="M666 0h-170l-38 122h-234l-39 -122h-167l241 667h164zM418 245l-79 250l-77 -250h156zM518 743h-358v128h358v-128z" />
    <glyph glyph-name="Abreve" unicode="&#x102;" horiz-adv-x="684" 
d="M666 0h-170l-38 122h-234l-39 -122h-167l241 667h164zM418 245l-79 250l-77 -250h156zM499 897c-1 -101 -62 -166 -159 -166s-159 65 -160 166h107c3 -43 22 -63 53 -63c32 0 50 20 53 63h106z" />
    <glyph glyph-name="Aogonek" unicode="&#x104;" horiz-adv-x="684" 
d="M418 245l-79 250l-77 -250h156zM496 0l-38 122h-234l-39 -122h-167l241 667h164l243 -667c-37 -23 -73 -49 -73 -89c0 -29 18 -50 47 -50c31 0 66 19 74 23l26 -53c-7 -4 -54 -34 -110 -34c-66 0 -109 45 -109 114c0 58 41 83 58 89h-83z" />
    <glyph glyph-name="Cacute" unicode="&#x106;" horiz-adv-x="663" 
d="M639 71c-2 -2 -86 -88 -257 -88c-199 0 -339 138 -339 342c0 222 153 359 360 359c143 0 213 -60 230 -77l-70 -107c-7 5 -66 45 -146 45c-122 0 -208 -88 -208 -211c0 -116 71 -210 193 -210c86 0 152 45 170 56zM557 832l-247 -100l-50 84l235 131z" />
    <glyph glyph-name="Ccaron" unicode="&#x10c;" horiz-adv-x="663" 
d="M639 71c-2 -2 -86 -88 -257 -88c-199 0 -339 138 -339 342c0 222 153 359 360 359c143 0 213 -60 230 -77l-70 -107c-7 5 -66 45 -146 45c-122 0 -208 -88 -208 -211c0 -116 71 -210 193 -210c86 0 152 45 170 56zM584 867l-181 -135l-183 143l54 71l129 -72l129 71z" />
    <glyph glyph-name="Dcaron" unicode="&#x10e;" horiz-adv-x="711" 
d="M668 340c0 -85 -30 -176 -89 -235c-104 -104 -242 -105 -371 -105h-142v667h184c145 0 242 -4 329 -91c57 -57 89 -145 89 -236zM503 342c0 66 -17 113 -51 147c-48 48 -96 51 -180 51h-44v-411h68c135 0 207 75 207 213zM492 867l-181 -135l-183 143l54 71l129 -72
l129 71z" />
    <glyph glyph-name="Ecaron" unicode="&#x11a;" horiz-adv-x="542" 
d="M496 0h-430v667h422v-131h-258v-133h242v-128h-242v-142h266v-133zM457 867l-181 -135l-183 143l54 71l129 -72l129 71z" />
    <glyph glyph-name="Emacron" unicode="&#x112;" horiz-adv-x="542" 
d="M496 0h-430v667h422v-131h-258v-133h242v-128h-242v-142h266v-133zM457 743h-358v128h358v-128z" />
    <glyph glyph-name="Edotaccent" unicode="&#x116;" horiz-adv-x="542" 
d="M496 0h-430v667h422v-131h-258v-133h242v-128h-242v-142h266v-133zM354 819c0 -44 -36 -78 -79 -78s-78 34 -78 78c0 43 35 79 78 79s79 -36 79 -79z" />
    <glyph glyph-name="Eogonek" unicode="&#x118;" horiz-adv-x="542" 
d="M409 0h-343v667h422v-131h-258v-133h242v-128h-242v-142h266v-133c-37 -23 -73 -49 -73 -89c0 -29 18 -50 47 -50c31 0 66 19 74 23l26 -53c-7 -4 -54 -34 -110 -34c-66 0 -109 45 -109 114c0 58 41 83 58 89z" />
    <glyph glyph-name="Gbreve" unicode="&#x11e;" horiz-adv-x="706" 
d="M643 56c-8 -5 -85 -73 -251 -73c-204 0 -349 132 -349 345c0 222 153 356 360 356c153 0 220 -63 235 -78l-71 -106c-17 11 -67 48 -156 48c-117 0 -202 -79 -202 -211c0 -149 95 -218 200 -218c48 0 79 9 89 12v96h-121v119h266v-290zM562 897
c-1 -101 -62 -166 -159 -166s-159 65 -160 166h107c3 -43 22 -63 53 -63c32 0 50 20 53 63h106z" />
    <glyph glyph-name="Imacron" unicode="&#x12a;" horiz-adv-x="296" 
d="M230 0h-164v667h164v-667zM327 743h-358v128h358v-128z" />
    <glyph glyph-name="Iogonek" unicode="&#x12e;" horiz-adv-x="296" 
d="M66 0v667h164v-667c-37 -23 -73 -49 -73 -89c0 -29 18 -50 47 -50c31 0 66 19 74 23l26 -53c-7 -4 -54 -34 -110 -34c-66 0 -109 45 -109 114c0 58 41 83 58 89h-77z" />
    <glyph glyph-name="Lacute" unicode="&#x139;" horiz-adv-x="537" 
d="M483 0h-417v667h166v-534h251v-133zM396 832l-247 -100l-50 84l235 131z" />
    <glyph glyph-name="Lcaron" unicode="&#x13d;" horiz-adv-x="537" 
d="M483 0h-417v667h166v-534h251v-133zM363 667h153c4 -110 -48 -200 -159 -274l-81 72c64 56 90 117 87 202z" />
    <glyph glyph-name="Nacute" unicode="&#x143;" horiz-adv-x="680" 
d="M614 0h-134l-269 408l4 -408h-149v667h144l259 -403l-3 403h148v-667zM489 832l-247 -100l-50 84l235 131z" />
    <glyph glyph-name="Ncaron" unicode="&#x147;" horiz-adv-x="680" 
d="M614 0h-134l-269 408l4 -408h-149v667h144l259 -403l-3 403h148v-667zM527 867l-181 -135l-183 143l54 71l129 -72l129 71z" />
    <glyph glyph-name="Omacron" unicode="&#x14c;" horiz-adv-x="756" 
d="M713 340c0 -217 -140 -357 -333 -357c-204 0 -337 148 -337 360c0 201 134 341 333 341c206 0 337 -147 337 -344zM547 341c0 121 -68 210 -175 210c-99 0 -163 -91 -163 -223c0 -135 75 -209 173 -209c140 0 165 135 165 222zM558 743h-358v128h358v-128z" />
    <glyph glyph-name="Ohungarumlaut" unicode="&#x150;" horiz-adv-x="756" 
d="M713 340c0 -217 -140 -357 -333 -357c-204 0 -337 148 -337 360c0 201 134 341 333 341c206 0 337 -147 337 -344zM547 341c0 121 -68 210 -175 210c-99 0 -163 -91 -163 -223c0 -135 75 -209 173 -209c140 0 165 135 165 222zM604 900l-82 -176l-107 36l61 185zM431 900
l-82 -176l-107 36l61 185z" />
    <glyph glyph-name="Racute" unicode="&#x154;" horiz-adv-x="612" 
d="M441 832l-247 -100l-50 84l235 131zM589 0h-174l-66 147c-8 18 -27 65 -49 87c-18 18 -40 17 -63 17h-9v-251h-162v667h181c86 0 171 6 238 -61c29 -29 55 -72 55 -131c0 -91 -57 -160 -174 -172c40 -2 67 -16 89 -38c30 -30 47 -73 68 -119zM384 461c0 19 -5 42 -20 57
c-21 21 -52 23 -97 23h-39v-167h47c39 0 109 2 109 87z" />
    <glyph glyph-name="Rcaron" unicode="&#x158;" horiz-adv-x="612" 
d="M589 0h-174l-66 147c-8 18 -27 65 -49 87c-18 18 -40 17 -63 17h-9v-251h-162v667h181c86 0 171 6 238 -61c29 -29 55 -72 55 -131c0 -91 -57 -160 -174 -172c40 -2 67 -16 89 -38c30 -30 47 -73 68 -119zM384 461c0 19 -5 42 -20 57c-21 21 -52 23 -97 23h-39v-167h47
c39 0 109 2 109 87zM456 867l-181 -135l-183 143l54 71l129 -72l129 71z" />
    <glyph glyph-name="Sacute" unicode="&#x15a;" horiz-adv-x="561" 
d="M514 200c0 -130 -103 -217 -252 -217c-137 0 -216 58 -235 77l69 107c14 -8 72 -50 156 -50c55 0 98 20 98 73c0 17 -5 29 -19 43c-31 31 -167 64 -234 130c-27 26 -49 59 -49 120c0 119 104 201 243 201c127 0 204 -59 217 -71l-70 -103c-13 8 -69 46 -140 46
c-53 0 -87 -21 -87 -60c0 -23 10 -32 19 -40c33 -33 161 -60 234 -133c31 -30 50 -73 50 -123zM444 832l-247 -100l-50 84l235 131z" />
    <glyph glyph-name="Scedilla" unicode="&#x15e;" horiz-adv-x="561" 
d="M378 -133c0 -64 -54 -102 -108 -102c-42 0 -75 16 -85 26l23 47s23 -15 54 -15c40 0 50 26 50 42c0 22 -20 38 -45 38c-21 0 -37 -10 -42 -14l-33 19l12 79c-102 13 -161 57 -177 73l69 107c14 -8 72 -50 156 -50c55 0 98 20 98 73c0 17 -5 29 -19 43
c-31 31 -167 64 -234 130c-27 26 -49 59 -49 120c0 119 104 201 243 201c127 0 204 -59 217 -71l-70 -103c-13 8 -69 46 -140 46c-53 0 -87 -21 -87 -60c0 -23 10 -32 19 -40c33 -33 161 -60 234 -133c31 -30 50 -73 50 -123c0 -129 -101 -215 -248 -217l-4 -28
c6 1 12 3 20 3c56 0 96 -36 96 -91z" />
    <glyph glyph-name="Scommaaccent" unicode="&#x218;" horiz-adv-x="561" 
d="M514 200c0 -130 -103 -217 -252 -217c-137 0 -216 58 -235 77l69 107c14 -8 72 -50 156 -50c55 0 98 20 98 73c0 17 -5 29 -19 43c-31 31 -167 64 -234 130c-27 26 -49 59 -49 120c0 119 104 201 243 201c127 0 204 -59 217 -71l-70 -103c-13 8 -69 46 -140 46
c-53 0 -87 -21 -87 -60c0 -23 10 -32 19 -40c33 -33 161 -60 234 -133c31 -30 50 -73 50 -123zM188 -93h153c4 -110 -48 -200 -159 -274l-81 72c64 56 90 117 87 202z" />
    <glyph glyph-name="Tcaron" unicode="&#x164;" horiz-adv-x="571" 
d="M546 536h-177v-536h-166v536h-178v131h521v-131zM467 867l-181 -135l-183 143l54 71l129 -72l129 71z" />
    <glyph glyph-name="Umacron" unicode="&#x16a;" horiz-adv-x="669" 
d="M608 272c0 -116 -18 -164 -66 -212c-23 -22 -78 -77 -209 -77c-73 0 -148 19 -207 78c-58 58 -65 133 -65 230v376h165v-411c0 -34 3 -74 30 -101c17 -17 46 -28 81 -28c43 0 66 15 83 32c26 26 28 60 28 137v371h160v-395zM514 743h-358v128h358v-128z" />
    <glyph glyph-name="Uring" unicode="&#x16e;" horiz-adv-x="669" 
d="M608 272c0 -116 -18 -164 -66 -212c-23 -22 -78 -77 -209 -77c-73 0 -148 19 -207 78c-58 58 -65 133 -65 230v376h165v-411c0 -34 3 -74 30 -101c17 -17 46 -28 81 -28c43 0 66 15 83 32c26 26 28 60 28 137v371h160v-395zM449 845c0 -63 -50 -114 -113 -114
s-114 51 -114 114c0 62 51 113 114 113c62 0 113 -50 113 -113zM381 846c0 25 -21 46 -46 46s-46 -21 -46 -46s21 -46 46 -46s46 21 46 46z" />
    <glyph glyph-name="Uhungarumlaut" unicode="&#x170;" horiz-adv-x="669" 
d="M608 272c0 -116 -18 -164 -66 -212c-23 -22 -78 -77 -209 -77c-73 0 -148 19 -207 78c-58 58 -65 133 -65 230v376h165v-411c0 -34 3 -74 30 -101c17 -17 46 -28 81 -28c43 0 66 15 83 32c26 26 28 60 28 137v371h160v-395zM533 900l-82 -176l-107 36l61 185zM360 900
l-82 -176l-107 36l61 185z" />
    <glyph glyph-name="Uogonek" unicode="&#x172;" horiz-adv-x="669" 
d="M522 -169c-7 -4 -54 -34 -110 -34c-66 0 -109 45 -109 114c0 41 19 61 35 72c-78 0 -153 19 -212 78c-58 58 -65 133 -65 230v376h165v-411c0 -34 3 -74 30 -101c17 -17 46 -28 81 -28c43 0 66 15 83 32c26 26 28 60 28 137v371h160v-395c0 -116 -18 -164 -66 -212
c-75 -75 -167 -76 -167 -149c0 -29 18 -50 47 -50c31 0 66 19 74 23z" />
    <glyph glyph-name="Zacute" unicode="&#x179;" horiz-adv-x="581" 
d="M538 0h-495v115l297 421h-283v131h470v-121l-287 -413h298v-133zM439 832l-247 -100l-50 84l235 131z" />
    <glyph glyph-name="Zdotaccent" unicode="&#x17b;" horiz-adv-x="581" 
d="M538 0h-495v115l297 421h-283v131h470v-121l-287 -413h298v-133zM370 819c0 -44 -36 -78 -79 -78s-78 34 -78 78c0 43 35 79 78 79s79 -36 79 -79z" />
    <glyph glyph-name="Dcroat" unicode="&#x110;" horiz-adv-x="758" 
d="M715 340c0 -85 -30 -176 -89 -235c-104 -104 -242 -105 -371 -105h-142v273h-100v132h100v262h184c145 0 242 -4 329 -91c57 -57 89 -145 89 -236zM550 342c0 66 -17 113 -51 147c-48 48 -96 51 -180 51h-44v-135h159v-132h-159v-144h68c135 0 207 75 207 213z" />
    <glyph glyph-name="Aringacute" unicode="&#x1fa;" horiz-adv-x="684" 
d="M666 0h-170l-38 122h-234l-39 -122h-167l241 667h164zM418 245l-79 250l-77 -250h156zM455 833c0 -63 -50 -114 -113 -114s-114 51 -114 114c0 62 51 113 114 113c62 0 113 -50 113 -113zM387 834c0 25 -21 46 -46 46s-46 -21 -46 -46s21 -46 46 -46s46 21 46 46z
M488 1061l-247 -100l-50 84l235 131z" />
    <glyph glyph-name="Cdotaccent" unicode="&#x10a;" horiz-adv-x="663" 
d="M639 71c-2 -2 -86 -88 -257 -88c-199 0 -339 138 -339 342c0 222 153 359 360 359c143 0 213 -60 230 -77l-70 -107c-7 5 -66 45 -146 45c-122 0 -208 -88 -208 -211c0 -116 71 -210 193 -210c86 0 152 45 170 56zM485 819c0 -43 -36 -78 -79 -78s-78 35 -78 78
s35 79 78 79s79 -36 79 -79z" />
    <glyph glyph-name="Ccircumflex" unicode="&#x108;" horiz-adv-x="663" 
d="M639 71c-2 -2 -86 -88 -257 -88c-199 0 -339 138 -339 342c0 222 153 359 360 359c143 0 213 -60 230 -77l-70 -107c-7 5 -66 45 -146 45c-122 0 -208 -88 -208 -211c0 -116 71 -210 193 -210c86 0 152 45 170 56zM583 802l-54 -71l-129 72l-129 -71l-52 78l181 135z" />
    <glyph glyph-name="AEacute" unicode="&#x1fc;" horiz-adv-x="941" 
d="M897 0h-430v126h-222l-68 -126h-170l397 667h485v-131h-258v-133h242v-128h-242v-142h266v-133zM467 259v277l-150 -277h150zM796 832l-247 -100l-50 84l235 131z" />
    <glyph glyph-name="Ebreve" unicode="&#x114;" horiz-adv-x="542" 
d="M496 0h-430v667h422v-131h-258v-133h242v-128h-242v-142h266v-133zM430 897c-1 -101 -62 -166 -159 -166s-159 65 -160 166h107c3 -43 22 -63 53 -63c32 0 50 20 53 63h106z" />
    <glyph glyph-name="Gdotaccent" unicode="&#x120;" horiz-adv-x="706" 
d="M643 56c-8 -5 -85 -73 -251 -73c-204 0 -349 132 -349 345c0 222 153 356 360 356c153 0 220 -63 235 -78l-71 -106c-17 11 -67 48 -156 48c-117 0 -202 -79 -202 -211c0 -149 95 -218 200 -218c48 0 79 9 89 12v96h-121v119h266v-290zM485 819c0 -43 -36 -78 -79 -78
s-78 35 -78 78s35 79 78 79s79 -36 79 -79z" />
    <glyph glyph-name="Gcommaaccent" unicode="&#x122;" horiz-adv-x="706" 
d="M643 56c-8 -5 -85 -73 -251 -73c-204 0 -349 132 -349 345c0 222 153 356 360 356c153 0 220 -63 235 -78l-71 -106c-17 11 -67 48 -156 48c-117 0 -202 -79 -202 -211c0 -149 95 -218 200 -218c48 0 79 9 89 12v96h-121v119h266v-290zM318 -93h153
c4 -110 -48 -200 -159 -274l-81 72c64 56 90 117 87 202z" />
    <glyph glyph-name="Gcircumflex" unicode="&#x11c;" horiz-adv-x="706" 
d="M643 56c-8 -5 -85 -73 -251 -73c-204 0 -349 132 -349 345c0 222 153 356 360 356c153 0 220 -63 235 -78l-71 -106c-17 11 -67 48 -156 48c-117 0 -202 -79 -202 -211c0 -149 95 -218 200 -218c48 0 79 9 89 12v96h-121v119h266v-290zM583 802l-54 -71l-129 72l-129 -71
l-52 78l181 135z" />
    <glyph glyph-name="Hcircumflex" unicode="&#x124;" horiz-adv-x="681" 
d="M615 0h-164v279h-221v-279h-164v667h164v-255h221v255h164v-667zM522 802l-54 -71l-129 72l-129 -71l-52 78l181 135z" />
    <glyph glyph-name="Hbar" unicode="&#x126;" horiz-adv-x="775" 
d="M662 0h-164v279h-221v-279h-164v479h-100v126h100v62h164v-62h221v62h164v-62h100v-126h-100v-479zM277 412h221v67h-221v-67z" />
    <glyph glyph-name="Kcommaaccent" unicode="&#x136;" horiz-adv-x="644" 
d="M626 0h-194l-202 305v-305h-164v667h164v-310l209 310h175l-222 -323zM252 -93h153c4 -110 -48 -200 -159 -274l-81 72c64 56 90 117 87 202z" />
    <glyph glyph-name="Jcircumflex" unicode="&#x134;" horiz-adv-x="432" 
d="M371 227c0 -71 -2 -139 -55 -192c-31 -31 -85 -52 -155 -52c-86 0 -147 41 -154 47l55 110c10 -4 42 -19 77 -19c24 0 39 6 49 17c13 14 19 25 19 90v439h164v-440zM471 802l-54 -71l-129 72l-129 -71l-52 78l181 135z" />
    <glyph glyph-name="Ibreve" unicode="&#x12c;" horiz-adv-x="296" 
d="M230 0h-164v667h164v-667zM308 897c-1 -101 -62 -166 -159 -166s-159 65 -160 166h107c3 -43 22 -63 53 -63c32 0 50 20 53 63h106z" />
    <glyph glyph-name="Itilde" unicode="&#x128;" horiz-adv-x="296" 
d="M230 0h-164v667h164v-667zM333 820c-17 -20 -70 -85 -132 -85c-47 0 -75 32 -108 32c-24 0 -49 -25 -66 -39l-64 64c8 10 64 85 132 85c44 0 73 -31 107 -31c28 0 48 21 67 38z" />
    <glyph glyph-name="Lcommaaccent" unicode="&#x13b;" horiz-adv-x="537" 
d="M483 0h-417v667h166v-534h251v-133zM197 -93h153c4 -110 -48 -200 -159 -274l-81 72c64 56 90 117 87 202z" />
    <glyph glyph-name="Ldot" unicode="&#x13f;" horiz-adv-x="537" 
d="M483 0h-417v667h166v-534h251v-133zM457 372c0 -51 -41 -93 -92 -93s-93 42 -93 93s42 92 93 92s92 -41 92 -92z" />
    <glyph glyph-name="Obreve" unicode="&#x14e;" horiz-adv-x="756" 
d="M713 340c0 -217 -140 -357 -333 -357c-204 0 -337 148 -337 360c0 201 134 341 333 341c206 0 337 -147 337 -344zM547 341c0 121 -68 210 -175 210c-99 0 -163 -91 -163 -223c0 -135 75 -209 173 -209c140 0 165 135 165 222zM535 897c-1 -101 -62 -166 -159 -166
s-159 65 -160 166h107c3 -43 22 -63 53 -63c32 0 50 20 53 63h106z" />
    <glyph glyph-name="Oslashacute" unicode="&#x1fe;" horiz-adv-x="756" 
d="M522 832l-247 -100l-50 84l235 131zM713 340c0 -217 -140 -357 -333 -357c-51 0 -87 9 -112 17l-48 -86l-113 62l50 86c-71 65 -114 156 -114 281c0 201 134 341 333 341c58 0 105 -13 115 -17l48 84l114 -60l-49 -88c60 -52 109 -142 109 -263zM547 341
c0 121 -68 210 -175 210c-99 0 -163 -91 -163 -223c0 -135 75 -209 173 -209c140 0 165 135 165 222z" />
    <glyph glyph-name="Ncommaaccent" unicode="&#x145;" horiz-adv-x="680" 
d="M614 0h-134l-269 408l4 -408h-149v667h144l259 -403l-3 403h148v-667zM267 -93h153c4 -110 -48 -200 -159 -274l-81 72c64 56 90 117 87 202z" />
    <glyph glyph-name="Rcommaaccent" unicode="&#x156;" horiz-adv-x="612" 
d="M589 0h-174l-66 147c-8 18 -27 65 -49 87c-18 18 -40 17 -63 17h-9v-251h-162v667h181c86 0 171 6 238 -61c29 -29 55 -72 55 -131c0 -91 -57 -160 -174 -172c40 -2 67 -16 89 -38c30 -30 47 -73 68 -119zM384 461c0 19 -5 42 -20 57c-21 21 -52 23 -97 23h-39v-167h47
c39 0 109 2 109 87zM247 -93h153c4 -110 -48 -200 -159 -274l-81 72c64 56 90 117 87 202z" />
    <glyph glyph-name="Scircumflex" unicode="&#x15c;" horiz-adv-x="561" 
d="M514 200c0 -130 -103 -217 -252 -217c-137 0 -216 58 -235 77l69 107c14 -8 72 -50 156 -50c55 0 98 20 98 73c0 17 -5 29 -19 43c-31 31 -167 64 -234 130c-27 26 -49 59 -49 120c0 119 104 201 243 201c127 0 204 -59 217 -71l-70 -103c-13 8 -69 46 -140 46
c-53 0 -87 -21 -87 -60c0 -23 10 -32 19 -40c33 -33 161 -60 234 -133c31 -30 50 -73 50 -123zM474 802l-54 -71l-129 72l-129 -71l-52 78l181 135z" />
    <glyph glyph-name="Ubreve" unicode="&#x16c;" horiz-adv-x="669" 
d="M608 272c0 -116 -18 -164 -66 -212c-23 -22 -78 -77 -209 -77c-73 0 -148 19 -207 78c-58 58 -65 133 -65 230v376h165v-411c0 -34 3 -74 30 -101c17 -17 46 -28 81 -28c43 0 66 15 83 32c26 26 28 60 28 137v371h160v-395zM494 897c-1 -101 -62 -166 -159 -166
s-159 65 -160 166h107c3 -43 22 -63 53 -63c32 0 50 20 53 63h106z" />
    <glyph glyph-name="Utilde" unicode="&#x168;" horiz-adv-x="669" 
d="M608 272c0 -116 -18 -164 -66 -212c-23 -22 -78 -77 -209 -77c-73 0 -148 19 -207 78c-58 58 -65 133 -65 230v376h165v-411c0 -34 3 -74 30 -101c17 -17 46 -28 81 -28c43 0 66 15 83 32c26 26 28 60 28 137v371h160v-395zM522 820c-17 -20 -70 -85 -132 -85
c-47 0 -75 32 -108 32c-24 0 -49 -25 -66 -39l-64 64c8 10 64 85 132 85c44 0 73 -31 107 -31c28 0 48 21 67 38z" />
    <glyph glyph-name="Tbar" unicode="&#x166;" horiz-adv-x="571" 
d="M464 281h-95v-281h-166v281h-97v128h97v127h-178v131h521v-131h-177v-127h95v-128z" />
    <glyph glyph-name="Tcommaaccent" unicode="&#x162;" horiz-adv-x="571" 
d="M546 536h-177v-536h-166v536h-178v131h521v-131zM210 -93h153c4 -110 -48 -200 -159 -274l-81 72c64 56 90 117 87 202z" />
    <glyph glyph-name="Wgrave" unicode="&#x1e80;" horiz-adv-x="958" 
d="M919 667l-158 -667h-175l-103 472l-114 -472h-175l-155 667h159l88 -490l120 490h161l112 -490l94 490h146zM632 816l-50 -84l-247 100l62 115z" />
    <glyph glyph-name="Wacute" unicode="&#x1e82;" horiz-adv-x="958" 
d="M919 667l-158 -667h-175l-103 472l-114 -472h-175l-155 667h159l88 -490l120 490h161l112 -490l94 490h146zM632 832l-247 -100l-50 84l235 131z" />
    <glyph glyph-name="Wcircumflex" unicode="&#x174;" horiz-adv-x="958" 
d="M919 667l-158 -667h-175l-103 472l-114 -472h-175l-155 667h159l88 -490l120 490h161l112 -490l94 490h146zM665 802l-54 -71l-129 72l-129 -71l-52 78l181 135z" />
    <glyph glyph-name="Wdieresis" unicode="&#x1e84;" horiz-adv-x="958" 
d="M919 667l-158 -667h-175l-103 472l-114 -472h-175l-155 667h159l88 -490l120 490h161l112 -490l94 490h146zM669 819c0 -43 -36 -78 -79 -78s-78 35 -78 78s35 79 78 79s79 -36 79 -79zM459 819c0 -43 -36 -78 -79 -78s-78 35 -78 78s35 79 78 79s79 -36 79 -79z" />
    <glyph glyph-name="Ygrave" unicode="&#x1ef2;" horiz-adv-x="638" 
d="M611 667l-216 -400v-267h-159v267l-209 400h166l131 -275l138 275h149zM475 816l-50 -84l-247 100l62 115z" />
    <glyph glyph-name="Ycircumflex" unicode="&#x176;" horiz-adv-x="638" 
d="M611 667l-216 -400v-267h-159v267l-209 400h166l131 -275l138 275h149zM506 803l-54 -71l-129 72l-129 -71l-52 78l181 135z" />
    <glyph glyph-name="Eng" unicode="&#x14a;" horiz-adv-x="680" 
d="M614 667v-658c0 -71 -2 -139 -55 -192c-31 -31 -85 -52 -155 -52c-86 0 -147 41 -154 47l50 99c10 -6 43 -22 89 -22c24 0 42 6 52 17c13 14 19 25 19 90v36l-249 376l4 -408h-149v667h144l259 -403l-3 403h148z" />
    <glyph glyph-name="aringacute" unicode="&#x1fb;" horiz-adv-x="523" 
d="M422 890l-247 -100l-50 84l235 131zM472 0h-132v42c-11 -9 -62 -53 -140 -53c-100 0 -161 67 -161 162c0 183 221 183 273 183h11c0 16 1 32 -12 45c-8 8 -24 16 -59 16c-70 0 -132 -31 -138 -34l-48 95c8 6 76 54 194 54c76 0 133 -19 172 -58c43 -43 40 -101 40 -162
v-290zM325 131v101c-38 0 -108 2 -137 -27c-9 -9 -17 -22 -17 -42c0 -48 36 -60 62 -60c54 0 87 25 92 28zM374 662c0 -63 -50 -114 -113 -114s-114 51 -114 114c0 62 51 113 114 113c62 0 113 -50 113 -113zM306 663c0 25 -21 46 -46 46s-46 -21 -46 -46s21 -46 46 -46
s46 21 46 46z" />
    <glyph glyph-name="aeacute" unicode="&#x1fd;" horiz-adv-x="842" 
d="M803 246c0 -21 -2 -34 -2 -46h-328c0 -35 31 -101 127 -101c67 0 118 30 127 35l47 -94c-6 -6 -87 -55 -187 -55c-113 0 -163 55 -181 73c-11 -10 -82 -73 -190 -73c-119 0 -177 71 -177 166c0 183 221 177 273 177h18c-2 48 -26 67 -78 67c-70 0 -132 -31 -138 -34
l-48 95c8 6 76 54 194 54c99 0 137 -38 154 -57c21 21 80 58 160 58c149 0 229 -105 229 -265zM663 306c0 19 -8 96 -86 96c-83 0 -100 -82 -101 -96h187zM352 143c-4 8 -17 30 -17 87c-73 0 -121 0 -146 -25c-9 -9 -18 -21 -18 -42c0 -43 31 -63 68 -63c55 0 98 31 113 43z
M661 645l-247 -100l-50 84l235 131z" />
    <glyph glyph-name="cdotaccent" unicode="&#x10b;" horiz-adv-x="510" 
d="M494 50c-3 -2 -71 -65 -195 -65c-161 0 -260 116 -260 261c0 152 118 265 268 265c111 0 172 -52 179 -62l-63 -97c-4 3 -45 30 -93 30c-78 0 -130 -57 -130 -133c0 -79 39 -135 121 -135c59 0 109 34 112 36zM386 647c0 -43 -36 -78 -79 -78s-78 35 -78 78s35 79 78 79
s79 -36 79 -79z" />
    <glyph glyph-name="ccircumflex" unicode="&#x109;" horiz-adv-x="510" 
d="M494 50c-3 -2 -71 -65 -195 -65c-161 0 -260 116 -260 261c0 152 118 265 268 265c111 0 172 -52 179 -62l-63 -97c-4 3 -45 30 -93 30c-78 0 -130 -57 -130 -133c0 -79 39 -135 121 -135c59 0 109 34 112 36zM486 618l-54 -71l-129 72l-129 -71l-52 78l181 135z" />
    <glyph glyph-name="ebreve" unicode="&#x115;" horiz-adv-x="551" 
d="M512 246c0 -21 -2 -34 -2 -46h-328c0 -35 31 -101 127 -101c67 0 118 30 127 35l47 -94c-6 -6 -87 -55 -187 -55c-186 0 -257 135 -257 260c0 152 99 266 244 266c149 0 229 -105 229 -265zM372 306c0 19 -8 96 -86 96c-83 0 -100 -82 -101 -96h187zM443 736
c-1 -101 -62 -166 -159 -166s-159 65 -160 166h107c3 -43 22 -63 53 -63c32 0 50 20 53 63h106z" />
    <glyph glyph-name="gcircumflex" unicode="&#x11d;" horiz-adv-x="587" 
d="M529 12c0 -62 4 -120 -55 -178c-25 -25 -81 -69 -191 -69c-143 0 -220 64 -231 74l63 99c7 -5 70 -45 149 -45c76 0 108 34 108 101v38c-6 -4 -40 -33 -107 -33c-160 0 -226 128 -226 245c0 147 105 267 272 267c112 0 203 -48 218 -56v-443zM372 149v222
c-10 5 -31 13 -64 13c-61 0 -111 -49 -111 -133c0 -82 48 -125 102 -125c44 0 71 22 73 23zM497 618l-54 -71l-129 72l-129 -71l-52 78l181 135z" />
    <glyph glyph-name="gdotaccent" unicode="&#x121;" horiz-adv-x="587" 
d="M529 12c0 -62 4 -120 -55 -178c-25 -25 -81 -69 -191 -69c-143 0 -220 64 -231 74l63 99c7 -5 70 -45 149 -45c76 0 108 34 108 101v38c-6 -4 -40 -33 -107 -33c-160 0 -226 128 -226 245c0 147 105 267 272 267c112 0 203 -48 218 -56v-443zM372 149v222
c-10 5 -31 13 -64 13c-61 0 -111 -49 -111 -133c0 -82 48 -125 102 -125c44 0 71 22 73 23zM395 647c0 -43 -36 -78 -79 -78s-78 35 -78 78s35 79 78 79s79 -36 79 -79z" />
    <glyph glyph-name="gcommaaccent" unicode="&#x123;" horiz-adv-x="587" 
d="M529 12c0 -62 4 -120 -55 -178c-25 -25 -81 -69 -191 -69c-143 0 -220 64 -231 74l63 99c7 -5 70 -45 149 -45c76 0 108 34 108 101v38c-6 -4 -40 -33 -107 -33c-160 0 -226 128 -226 245c0 147 105 267 272 267c112 0 203 -48 218 -56v-443zM372 149v222
c-10 5 -31 13 -64 13c-61 0 -111 -49 -111 -133c0 -82 48 -125 102 -125c44 0 71 22 73 23zM473 769c-7 -6 -8 -7 -16 -15c-75 -75 -71 -151 -71 -187h-153c0 77 13 141 95 223c22 22 52 44 64 51z" />
    <glyph glyph-name="hcircumflex" unicode="&#x125;" horiz-adv-x="566" 
d="M515 0h-160v268c0 54 -2 79 -17 94c-5 5 -17 15 -44 15c-36 0 -69 -23 -76 -28v-349h-160v724h160v-248c3 2 55 35 116 35c52 0 97 -15 128 -46c55 -55 53 -129 53 -193v-272zM321 846l-54 -71l-129 72l-129 -71l-52 78l181 135z" />
    <glyph glyph-name="hbar" unicode="&#x127;" horiz-adv-x="566" 
d="M353 549h-135v-73c3 2 55 35 116 35c52 0 97 -15 128 -46c55 -55 53 -129 53 -193v-272h-160v268c0 54 -2 79 -17 94c-5 5 -17 15 -44 15c-36 0 -69 -23 -76 -28v-349h-160v549h-86v125h86v50h160v-50h135v-125z" />
    <glyph glyph-name="itilde" unicode="&#x129;" horiz-adv-x="271" 
d="M215 0h-160v496h160v-496zM321 662c-17 -20 -70 -85 -132 -85c-47 0 -75 32 -108 32c-24 0 -49 -25 -66 -39l-64 64c8 10 64 85 132 85c44 0 73 -31 107 -31c28 0 48 21 67 38z" />
    <glyph glyph-name="ldot" unicode="&#x140;" horiz-adv-x="556" 
d="M218 0h-160v724h160v-724zM498 346c0 -51 -41 -93 -92 -93s-93 42 -93 93s42 92 93 92s92 -41 92 -92z" />
    <glyph glyph-name="lcommaaccent" unicode="&#x13c;" horiz-adv-x="276" 
d="M218 0h-160v724h160v-724zM62 -93h153c4 -110 -48 -200 -159 -274l-81 72c64 56 90 117 87 202z" />
    <glyph glyph-name="kcommaaccent" unicode="&#x137;" horiz-adv-x="561" 
d="M557 0h-185l-154 223v-223h-160v724h160v-402l152 174h185l-201 -221zM211 -93h153c4 -110 -48 -200 -159 -274l-81 72c64 56 90 117 87 202z" />
    <glyph glyph-name="jcircumflex" unicode="&#x135;" horiz-adv-x="271" 
d="M217 496v-504c0 -52 2 -120 -54 -176c-29 -29 -74 -51 -138 -51c-73 0 -124 32 -124 32l42 106c11 -4 28 -12 55 -12c23 0 35 6 43 14c12 12 16 24 16 71v520h160zM320 618l-54 -71l-129 72l-129 -71l-52 78l181 135z" />
    <glyph glyph-name="iogonek" unicode="&#x12f;" horiz-adv-x="271" 
d="M220 636c0 -47 -37 -85 -84 -85s-85 38 -85 85s38 84 85 84s84 -37 84 -84zM55 0v496h160v-496c-37 -23 -73 -49 -73 -89c0 -29 18 -50 47 -50c31 0 66 19 74 23l26 -53c-7 -4 -54 -34 -110 -34c-66 0 -109 45 -109 114c0 58 41 83 58 89h-73z" />
    <glyph glyph-name="ibreve" unicode="&#x12d;" horiz-adv-x="271" 
d="M215 0h-160v496h160v-496zM295 736c-1 -101 -62 -166 -159 -166s-159 65 -160 166h107c3 -43 22 -63 53 -63c32 0 50 20 53 63h106z" />
    <glyph glyph-name="ncommaaccent" unicode="&#x146;" horiz-adv-x="566" 
d="M515 0h-160v268c0 54 -2 79 -17 94c-5 5 -17 15 -44 15c-36 0 -69 -23 -76 -28v-349h-160v496h132v-40c5 5 67 55 147 55c40 0 87 -8 125 -46c55 -55 53 -129 53 -193v-272zM210 -93h153c4 -110 -48 -200 -159 -274l-81 72c64 56 90 117 87 202z" />
    <glyph glyph-name="oslashacute" unicode="&#x1ff;" horiz-adv-x="601" 
d="M452 645l-247 -100l-50 84l235 131zM562 256c0 -159 -111 -271 -269 -271c-26 0 -58 3 -77 11l-44 -76l-95 51l45 77c-33 25 -83 90 -83 196c0 154 111 267 266 267c37 0 65 -7 80 -12l45 76l93 -54l-46 -73c44 -35 85 -103 85 -192zM402 247c0 82 -39 136 -103 136
c-61 0 -100 -50 -100 -133c0 -84 42 -136 106 -136c62 0 97 50 97 133z" />
    <glyph glyph-name="rcommaaccent" unicode="&#x157;" horiz-adv-x="429" 
d="M417 496l-36 -120c-3 1 -17 4 -30 4c-70 0 -115 -40 -133 -68v-312h-160v496h132v-66c3 5 64 81 166 81c38 0 59 -14 61 -15zM62 -93h153c4 -110 -48 -200 -159 -274l-81 72c64 56 90 117 87 202z" />
    <glyph glyph-name="scircumflex" unicode="&#x15d;" horiz-adv-x="469" 
d="M423 145c0 -81 -72 -160 -193 -160c-117 0 -192 47 -198 53l50 100c14 -7 69 -39 126 -39c45 0 60 23 60 43c0 13 -2 19 -13 30c-26 26 -117 46 -165 94c-20 20 -38 46 -38 85c0 93 81 160 205 160c98 0 155 -36 166 -45l-49 -94c-8 5 -61 34 -113 34
c-36 0 -56 -14 -56 -38c0 -67 218 -55 218 -223zM440 618l-54 -71l-129 72l-129 -71l-52 78l181 135z" />
    <glyph glyph-name="obreve" unicode="&#x14f;" horiz-adv-x="601" 
d="M562 256c0 -159 -111 -271 -269 -271c-150 0 -254 109 -254 259c0 154 112 267 266 267c150 0 257 -110 257 -255zM402 247c0 82 -39 136 -103 136c-61 0 -100 -50 -100 -133c0 -84 42 -136 106 -136c62 0 97 50 97 133zM464 736c-1 -101 -62 -166 -159 -166
s-159 65 -160 166h107c3 -43 22 -63 53 -63c32 0 50 20 53 63h106z" />
    <glyph glyph-name="tcommaaccent" unicode="&#x163;" horiz-adv-x="460" 
d="M422 20c-3 -3 -56 -35 -135 -35c-48 0 -102 13 -137 48c-45 45 -45 95 -45 170v168h-86v125h86v137h160v-137h135v-125h-135v-179c0 -34 2 -78 58 -78c29 0 49 7 59 11zM114 -93h153c4 -110 -48 -200 -159 -274l-81 72c64 56 90 117 87 202z" />
    <glyph glyph-name="wacute" unicode="&#x1e83;" horiz-adv-x="797" 
d="M763 496l-133 -496h-163l-81 306l-74 -306h-157l-142 496h152l78 -320l82 320h135l82 -320l75 320h146zM535 645l-247 -100l-50 84l235 131z" />
    <glyph glyph-name="wgrave" unicode="&#x1e81;" horiz-adv-x="797" 
d="M763 496l-133 -496h-163l-81 306l-74 -306h-157l-142 496h152l78 -320l82 320h135l82 -320l75 320h146zM545 629l-50 -84l-247 100l62 115z" />
    <glyph glyph-name="ubreve" unicode="&#x16d;" horiz-adv-x="566" 
d="M508 0h-130v44c-4 -4 -67 -59 -146 -59c-52 0 -94 14 -128 48c-55 55 -53 129 -53 193v270h160v-267c0 -54 2 -79 17 -94c5 -5 17 -15 44 -15c36 0 68 23 76 28v348h160v-496zM439 736c-1 -101 -62 -166 -159 -166s-159 65 -160 166h107c3 -43 22 -63 53 -63
c32 0 50 20 53 63h106z" />
    <glyph glyph-name="utilde" unicode="&#x169;" horiz-adv-x="566" 
d="M508 0h-130v44c-4 -4 -67 -59 -146 -59c-52 0 -94 14 -128 48c-55 55 -53 129 -53 193v270h160v-267c0 -54 2 -79 17 -94c5 -5 17 -15 44 -15c36 0 68 23 76 28v348h160v-496zM468 662c-17 -20 -70 -85 -132 -85c-47 0 -75 32 -108 32c-24 0 -49 -25 -66 -39l-64 64
c8 10 64 85 132 85c44 0 73 -31 107 -31c28 0 48 21 67 38z" />
    <glyph glyph-name="ycircumflex" unicode="&#x177;" horiz-adv-x="610" 
d="M583 496l-197 -491c-55 -138 -73 -161 -99 -187c-18 -18 -59 -53 -153 -53c-80 0 -131 33 -135 36l48 110c7 -3 40 -19 79 -19c30 0 48 9 63 24c22 22 40 78 42 86l-210 494h170l120 -331l114 331h158zM488 618l-54 -71l-129 72l-129 -71l-52 78l181 135z" />
    <glyph glyph-name="tbar" unicode="&#x167;" horiz-adv-x="460" 
d="M400 201h-135v-9c0 -34 2 -78 58 -78c29 0 49 7 59 11l40 -105c-3 -3 -56 -35 -135 -35c-48 0 -102 13 -137 48c-45 44 -45 99 -45 168h-86v125h86v45h-86v125h86v137h160v-137h135v-125h-135v-45h135v-125z" />
    <glyph glyph-name="wcircumflex" unicode="&#x175;" horiz-adv-x="797" 
d="M763 496l-133 -496h-163l-81 306l-74 -306h-157l-142 496h152l78 -320l82 320h135l82 -320l75 320h146zM569 618l-54 -71l-129 72l-129 -71l-52 78l181 135z" />
    <glyph glyph-name="wdieresis" unicode="&#x1e85;" horiz-adv-x="797" 
d="M763 496l-133 -496h-163l-81 306l-74 -306h-157l-142 496h152l78 -320l82 320h135l82 -320l75 320h146zM572 647c0 -43 -36 -78 -79 -78s-78 35 -78 78s35 79 78 79s79 -36 79 -79zM362 647c0 -43 -36 -78 -79 -78s-78 35 -78 78s35 79 78 79s79 -36 79 -79z" />
    <glyph glyph-name="ygrave" unicode="&#x1ef3;" horiz-adv-x="610" 
d="M583 496l-197 -491c-55 -138 -73 -161 -99 -187c-18 -18 -59 -53 -153 -53c-80 0 -131 33 -135 36l48 110c7 -3 40 -19 79 -19c30 0 48 9 63 24c22 22 40 78 42 86l-210 494h170l120 -331l114 331h158zM460 629l-50 -84l-247 100l62 115z" />
    <glyph glyph-name="Amacronsmall" unicode="&#xf66e;" horiz-adv-x="569" 
d="M557 0h-155l-30 94h-180l-28 -94h-152l191 532h160zM336 207l-56 178l-53 -178h109zM461 611h-358v128h358v-128z" />
    <glyph glyph-name="Abrevesmall" unicode="&#xf66d;" horiz-adv-x="569" 
d="M557 0h-155l-30 94h-180l-28 -94h-152l191 532h160zM336 207l-56 178l-53 -178h109zM440 756c-1 -101 -62 -166 -159 -166s-159 65 -160 166h107c3 -43 22 -63 53 -63c32 0 50 20 53 63h106z" />
    <glyph glyph-name="Aogoneksmall" unicode="&#xf66f;" horiz-adv-x="569" 
d="M336 207l-56 178l-53 -178h109zM402 0l-30 94h-180l-28 -94h-152l191 532h160l194 -532c-37 -23 -73 -49 -73 -89c0 -29 18 -50 47 -50c31 0 66 19 74 23l26 -53c-7 -4 -54 -34 -110 -34c-66 0 -109 45 -109 114c0 58 41 83 58 89h-68z" />
    <glyph glyph-name="Cacutesmall" unicode="&#xf671;" horiz-adv-x="564" 
d="M540 59c-19 -14 -96 -74 -218 -74c-156 0 -282 102 -282 275c0 179 131 284 298 284c108 0 186 -56 201 -71l-66 -97c-12 8 -59 42 -121 42c-88 0 -150 -64 -150 -153c0 -84 51 -151 139 -151c70 0 130 42 138 47zM485 685l-247 -100l-50 84l235 131z" />
    <glyph glyph-name="Ccaronsmall" unicode="&#xf673;" horiz-adv-x="564" 
d="M540 59c-19 -14 -96 -74 -218 -74c-156 0 -282 102 -282 275c0 179 131 284 298 284c108 0 186 -56 201 -71l-66 -97c-12 8 -59 42 -121 42c-88 0 -150 -64 -150 -153c0 -84 51 -151 139 -151c70 0 130 42 138 47zM517 720l-181 -135l-183 143l54 71l129 -72l129 71z" />
    <glyph glyph-name="Dcaronsmall" unicode="&#xf675;" horiz-adv-x="631" 
d="M591 271c0 -67 -24 -140 -76 -188c-89 -83 -208 -83 -311 -83h-140v532h174c117 0 202 -3 277 -73c49 -46 76 -116 76 -188zM428 272c0 48 -13 81 -37 104c-34 33 -68 36 -137 36h-31v-291h50c103 0 155 52 155 151zM466 720l-181 -135l-183 143l54 71l129 -72l129 71z
" />
    <glyph glyph-name="Ecaronsmall" unicode="&#xf678;" horiz-adv-x="484" 
d="M434 0h-370v532h363v-123h-206v-79h193v-121h-193v-84h213v-125zM427 720l-181 -135l-183 143l54 71l129 -72l129 71z" />
    <glyph glyph-name="Emacronsmall" unicode="&#xf67a;" horiz-adv-x="484" 
d="M424 611h-358v128h358v-128zM434 0h-370v532h363v-123h-206v-79h193v-121h-193v-84h213v-125z" />
    <glyph glyph-name="Edotaccentsmall" unicode="&#xf679;" horiz-adv-x="484" 
d="M434 0h-370v532h363v-123h-206v-79h193v-121h-193v-84h213v-125zM326 685c0 -43 -36 -78 -79 -78s-78 35 -78 78s35 79 78 79s79 -36 79 -79z" />
    <glyph glyph-name="Eogoneksmall" unicode="&#xf67c;" horiz-adv-x="484" 
d="M347 0h-283v532h363v-123h-206v-79h193v-121h-193v-84h213v-125c-37 -23 -73 -49 -73 -89c0 -29 18 -50 47 -50c31 0 66 19 74 23l26 -53c-7 -4 -54 -34 -110 -34c-66 0 -109 45 -109 114c0 58 41 83 58 89z" />
    <glyph glyph-name="Gbrevesmall" unicode="&#xf67d;" horiz-adv-x="603" 
d="M546 47c-14 -8 -90 -62 -214 -62c-169 0 -292 105 -292 276c0 177 130 283 301 283c124 0 187 -57 198 -68l-66 -96c-19 12 -58 38 -125 38c-88 0 -150 -57 -150 -150c0 -103 69 -160 148 -160c32 0 61 8 69 11v72h-100v99h231v-243zM500 756c-1 -101 -62 -166 -159 -166
s-159 65 -160 166h107c3 -43 22 -63 53 -63c32 0 50 20 53 63h106z" />
    <glyph glyph-name="Imacronsmall" unicode="&#xf685;" horiz-adv-x="290" 
d="M226 0h-162v532h162v-532zM324 593h-358v128h358v-128z" />
    <glyph glyph-name="Iogoneksmall" unicode="&#xf686;" horiz-adv-x="290" 
d="M64 0v532h162v-532c-37 -23 -73 -49 -73 -89c0 -29 18 -50 47 -50c31 0 66 19 74 23l26 -53c-7 -4 -54 -34 -110 -34c-66 0 -109 45 -109 114c0 58 41 83 58 89h-75z" />
    <glyph glyph-name="Lacutesmall" unicode="&#xf68a;" horiz-adv-x="473" 
d="M422 0h-358v532h162v-407h196v-125zM391 685l-247 -100l-50 84l235 131z" />
    <glyph glyph-name="Lcaronsmall" unicode="&#xf68b;" horiz-adv-x="473" 
d="M422 0h-358v532h162v-407h196v-125zM347 532h153c4 -110 -48 -200 -159 -274l-81 72c64 56 90 117 87 202z" />
    <glyph glyph-name="Nacutesmall" unicode="&#xf68e;" horiz-adv-x="595" 
d="M531 0h-127l-199 282l4 -282h-145v532h135l191 -277l-3 277h144v-532zM446 685l-247 -100l-50 84l235 131z" />
    <glyph glyph-name="Ncaronsmall" unicode="&#xf68f;" horiz-adv-x="595" 
d="M531 0h-127l-199 282l4 -282h-145v532h135l191 -277l-3 277h144v-532zM477 720l-181 -135l-183 143l54 71l129 -72l129 71z" />
    <glyph glyph-name="Omacronsmall" unicode="&#xf693;" horiz-adv-x="657" 
d="M617 270c0 -173 -121 -285 -287 -285c-174 0 -290 119 -290 287c0 161 116 272 286 272c176 0 291 -117 291 -274zM457 270c0 89 -53 152 -134 152c-72 0 -123 -62 -123 -162c0 -99 57 -152 131 -152c104 0 126 92 126 162zM510 611h-358v128h358v-128z" />
    <glyph glyph-name="Ohungarumlautsmall" unicode="&#xf692;" horiz-adv-x="657" 
d="M617 270c0 -173 -121 -285 -287 -285c-174 0 -290 119 -290 287c0 161 116 272 286 272c176 0 291 -117 291 -274zM457 270c0 89 -53 152 -134 152c-72 0 -123 -62 -123 -162c0 -99 57 -152 131 -152c104 0 126 92 126 162zM540 761l-82 -176l-107 36l61 185zM367 761
l-82 -176l-107 36l61 185z" />
    <glyph glyph-name="Racutesmall" unicode="&#xf695;" horiz-adv-x="533" 
d="M515 0h-162l-61 130c-18 38 -30 59 -70 59v-189h-158v532h168c69 0 145 4 199 -50c26 -26 45 -59 45 -107c0 -65 -46 -118 -126 -130c57 -5 80 -74 100 -114zM331 361c0 14 -4 32 -15 43c-16 16 -40 18 -74 18h-20v-127h26c30 0 83 1 83 66zM415 685l-247 -100l-50 84
l235 131z" />
    <glyph glyph-name="Rcaronsmall" unicode="&#xf696;" horiz-adv-x="533" 
d="M515 0h-162l-61 130c-18 38 -30 59 -70 59v-189h-158v532h168c69 0 145 4 199 -50c26 -26 45 -59 45 -107c0 -65 -46 -118 -126 -130c57 -5 80 -74 100 -114zM331 361c0 14 -4 32 -15 43c-16 16 -40 18 -74 18h-20v-127h26c30 0 83 1 83 66zM430 720l-181 -135l-183 143
l54 71l129 -72l129 71z" />
    <glyph glyph-name="Sacutesmall" unicode="&#xf698;" horiz-adv-x="482" 
d="M442 161c0 -107 -90 -176 -216 -176c-123 0 -195 58 -205 67l65 94c14 -9 59 -43 132 -43c48 0 72 18 72 51c0 55 -133 55 -212 134c-20 20 -37 50 -37 93c0 99 91 163 208 163c112 0 175 -45 188 -57l-60 -92c-10 6 -62 35 -121 35c-41 0 -64 -15 -64 -39
c0 -52 134 -56 210 -132c30 -30 40 -67 40 -98zM400 685l-247 -100l-50 84l235 131z" />
    <glyph glyph-name="Scedillasmall" unicode="&#xf699;" horiz-adv-x="482" 
d="M348 -133c0 -64 -54 -102 -108 -102c-42 0 -75 16 -85 26l23 47s23 -15 54 -15c40 0 50 26 50 42c0 22 -20 38 -45 38c-21 0 -37 -10 -42 -14l-33 19l13 81c-90 11 -145 55 -154 63l65 94c14 -9 59 -43 132 -43c48 0 72 18 72 51c0 55 -133 55 -212 134
c-20 20 -37 50 -37 93c0 99 91 163 208 163c112 0 175 -45 188 -57l-60 -92c-10 6 -62 35 -121 35c-41 0 -64 -15 -64 -39c0 -52 134 -56 210 -132c30 -30 40 -67 40 -98c0 -104 -84 -172 -205 -176l-5 -30c6 1 12 3 20 3c56 0 96 -36 96 -91z" />
    <glyph glyph-name="Scommaaccentsmall" unicode="&#xf69b;" horiz-adv-x="482" 
d="M442 161c0 -107 -90 -176 -216 -176c-123 0 -195 58 -205 67l65 94c14 -9 59 -43 132 -43c48 0 72 18 72 51c0 55 -133 55 -212 134c-20 20 -37 50 -37 93c0 99 91 163 208 163c112 0 175 -45 188 -57l-60 -92c-10 6 -62 35 -121 35c-41 0 -64 -15 -64 -39
c0 -52 134 -56 210 -132c30 -30 40 -67 40 -98zM163 -93h153c4 -110 -48 -200 -159 -274l-81 72c64 56 90 117 87 202z" />
    <glyph glyph-name="Tcaronsmall" unicode="&#xf69d;" horiz-adv-x="498" 
d="M473 409h-143v-409h-162v409h-143v123h448v-123zM431 720l-181 -135l-183 143l54 71l129 -72l129 71z" />
    <glyph glyph-name="Umacronsmall" unicode="&#xf6a1;" horiz-adv-x="589" 
d="M530 218c0 -90 -15 -131 -58 -171c-20 -19 -68 -62 -179 -62c-61 0 -125 15 -176 63c-52 49 -58 112 -58 185v299h162v-330c0 -23 2 -51 20 -69c11 -11 31 -19 55 -19c29 0 45 11 56 22c18 18 19 41 19 93v303h159v-314zM474 611h-358v128h358v-128z" />
    <glyph glyph-name="Uringsmall" unicode="&#xf6a3;" horiz-adv-x="589" 
d="M530 218c0 -90 -15 -131 -58 -171c-20 -19 -68 -62 -179 -62c-61 0 -125 15 -176 63c-52 49 -58 112 -58 185v299h162v-330c0 -23 2 -51 20 -69c11 -11 31 -19 55 -19c29 0 45 11 56 22c18 18 19 41 19 93v303h159v-314zM409 700c0 -63 -50 -114 -113 -114
s-114 51 -114 114c0 62 51 113 114 113c62 0 113 -50 113 -113zM341 701c0 25 -21 46 -46 46s-46 -21 -46 -46s21 -46 46 -46s46 21 46 46z" />
    <glyph glyph-name="Uhungarumlautsmall" unicode="&#xf6a0;" horiz-adv-x="589" 
d="M530 218c0 -90 -15 -131 -58 -171c-20 -19 -68 -62 -179 -62c-61 0 -125 15 -176 63c-52 49 -58 112 -58 185v299h162v-330c0 -23 2 -51 20 -69c11 -11 31 -19 55 -19c29 0 45 11 56 22c18 18 19 41 19 93v303h159v-314zM497 761l-82 -176l-107 36l61 185zM324 761
l-82 -176l-107 36l61 185z" />
    <glyph glyph-name="Uogoneksmall" unicode="&#xf6a2;" horiz-adv-x="589" 
d="M492 -169c-7 -4 -54 -34 -110 -34c-66 0 -109 45 -109 114c0 37 16 63 42 75c-11 -1 -16 -1 -22 -1c-61 0 -125 15 -176 63c-52 49 -58 112 -58 185v299h162v-330c0 -23 2 -51 20 -69c11 -11 31 -19 55 -19c29 0 45 11 56 22c18 18 19 41 19 93v303h159v-324
c0 -224 -185 -195 -185 -297c0 -29 18 -50 47 -50c31 0 66 19 74 23z" />
    <glyph glyph-name="Zacutesmall" unicode="&#xf6ab;" horiz-adv-x="528" 
d="M478 0h-426v102l227 307h-218v123h408v-105l-219 -302h228v-125zM413 685l-247 -100l-50 84l235 131z" />
    <glyph glyph-name="Zdotaccentsmall" unicode="&#xf6ac;" horiz-adv-x="528" 
d="M478 0h-426v102l227 307h-218v123h408v-105l-219 -302h228v-125zM343 685c0 -43 -36 -78 -79 -78s-78 35 -78 78s35 79 78 79s79 -36 79 -79z" />
    <glyph glyph-name="eng" unicode="&#x14b;" horiz-adv-x="566" 
d="M515 272v-280c0 -52 2 -120 -54 -176c-29 -29 -74 -51 -138 -51c-73 0 -124 32 -124 32l42 106c11 -4 28 -12 55 -12c23 0 35 6 43 14c12 12 16 24 16 71v292c0 54 -2 79 -17 94c-5 5 -17 15 -44 15c-36 0 -69 -23 -76 -28v-349h-160v496h132v-40c5 5 67 55 147 55
c40 0 87 -8 125 -46c55 -55 53 -129 53 -193z" />
    <glyph glyph-name="Aringacutesmall" horiz-adv-x="569" 
d="M557 0h-155l-30 94h-180l-28 -94h-152l191 532h160zM336 207l-56 178l-53 -178h109zM395 700c0 -63 -50 -114 -113 -114s-114 51 -114 114c0 62 51 113 114 113c62 0 113 -50 113 -113zM327 701c0 25 -21 46 -46 46s-46 -21 -46 -46s21 -46 46 -46s46 21 46 46zM430 928
l-247 -100l-50 84l235 131z" />
    <glyph glyph-name="AEacutesmall" unicode="&#xf670;" horiz-adv-x="821" 
d="M771 0h-370v99h-178l-57 -99h-154l339 532h413v-123h-206v-79h193v-121h-193v-84h213v-125zM401 213v196l-112 -196h112zM725 685l-247 -100l-50 84l235 131z" />
    <glyph glyph-name="Ccircumflexsmall" unicode="&#xf672;" horiz-adv-x="564" 
d="M540 59c-19 -14 -96 -74 -218 -74c-156 0 -282 102 -282 275c0 179 131 284 298 284c108 0 186 -56 201 -71l-66 -97c-12 8 -59 42 -121 42c-88 0 -150 -64 -150 -153c0 -84 51 -151 139 -151c70 0 130 42 138 47zM521 656l-54 -71l-129 72l-129 -71l-52 78l181 135z" />
    <glyph glyph-name="Cdotaccentsmall" unicode="&#xf674;" horiz-adv-x="564" 
d="M540 59c-19 -14 -96 -74 -218 -74c-156 0 -282 102 -282 275c0 179 131 284 298 284c108 0 186 -56 201 -71l-66 -97c-12 8 -59 42 -121 42c-88 0 -150 -64 -150 -153c0 -84 51 -151 139 -151c70 0 130 42 138 47zM416 685c0 -43 -36 -78 -79 -78s-78 35 -78 78
s35 79 78 79s79 -36 79 -79z" />
    <glyph glyph-name="Ebrevesmall" unicode="&#xf677;" horiz-adv-x="484" 
d="M434 0h-370v532h363v-123h-206v-79h193v-121h-193v-84h213v-125zM401 756c-1 -101 -62 -166 -159 -166s-159 65 -160 166h107c3 -43 22 -63 53 -63c32 0 50 20 53 63h106z" />
    <glyph glyph-name="Gcircumflexsmall" unicode="&#xf67e;" horiz-adv-x="603" 
d="M546 47c-14 -8 -90 -62 -214 -62c-169 0 -292 105 -292 276c0 177 130 283 301 283c124 0 187 -57 198 -68l-66 -96c-19 12 -58 38 -125 38c-88 0 -150 -57 -150 -150c0 -103 69 -160 148 -160c32 0 61 8 69 11v72h-100v99h231v-243zM521 656l-54 -71l-129 72l-129 -71
l-52 78l181 135z" />
    <glyph glyph-name="Gdotaccentsmall" unicode="&#xf680;" horiz-adv-x="603" 
d="M546 47c-14 -8 -90 -62 -214 -62c-169 0 -292 105 -292 276c0 177 130 283 301 283c124 0 187 -57 198 -68l-66 -96c-19 12 -58 38 -125 38c-88 0 -150 -57 -150 -150c0 -103 69 -160 148 -160c32 0 61 8 69 11v72h-100v99h231v-243zM416 685c0 -43 -36 -78 -79 -78
s-78 35 -78 78s35 79 78 79s79 -36 79 -79z" />
    <glyph glyph-name="Gcommaaccentsmall" unicode="&#xf67f;" horiz-adv-x="603" 
d="M546 47c-14 -8 -90 -62 -214 -62c-169 0 -292 105 -292 276c0 177 130 283 301 283c124 0 187 -57 198 -68l-66 -96c-19 12 -58 38 -125 38c-88 0 -150 -57 -150 -150c0 -103 69 -160 148 -160c32 0 61 8 69 11v72h-100v99h231v-243zM257 -93h153
c4 -110 -48 -200 -159 -274l-81 72c64 56 90 117 87 202z" />
    <glyph glyph-name="Hcircumflexsmall" unicode="&#xf682;" horiz-adv-x="600" 
d="M536 0h-162v210h-148v-210h-162v532h162v-197h148v197h162v-532zM482 656l-54 -71l-129 72l-129 -71l-52 78l181 135z" />
    <glyph glyph-name="Hbarsmall" unicode="&#xf681;" horiz-adv-x="600" 
d="M536 0h-162v210h-148v-210h-162v383h-83v107h83v42h162v-42h148v42h162v-42h83v-107h-83v-383zM226 335h148v48h-148v-48z" />
    <glyph glyph-name="Itildesmall" unicode="&#xf687;" horiz-adv-x="290" 
d="M226 0h-162v532h162v-532zM330 689c-17 -20 -70 -85 -132 -85c-47 0 -75 32 -108 32c-24 0 -49 -25 -66 -39l-64 64c8 10 64 85 132 85c44 0 73 -31 107 -31c28 0 48 21 67 38z" />
    <glyph glyph-name="Ibrevesmall" unicode="&#xf683;" horiz-adv-x="290" 
d="M226 0h-162v532h162v-532zM305 756c-1 -101 -62 -166 -159 -166s-159 65 -160 166h107c3 -43 22 -63 53 -63c32 0 50 20 53 63h106z" />
    <glyph glyph-name="Idotaccentsmall" unicode="&#xf6ad;" horiz-adv-x="290" 
d="M226 0h-162v532h162v-532zM224 685c0 -43 -36 -78 -79 -78s-78 35 -78 78s35 79 78 79s79 -36 79 -79z" />
    <glyph glyph-name="Jcircumflexsmall" unicode="&#xf688;" horiz-adv-x="390" 
d="M331 200c0 -62 -1 -122 -48 -169c-27 -27 -74 -46 -136 -46c-76 0 -130 36 -136 41l51 101c8 -3 31 -14 57 -14c18 0 28 4 36 12c10 10 14 19 14 67v340h162v-332zM433 656l-54 -71l-129 72l-129 -71l-52 78l181 135z" />
    <glyph glyph-name="Kcommaaccentsmall" unicode="&#xf689;" horiz-adv-x="594" 
d="M575 0h-186l-163 237v-237h-162v532h162v-242l171 242h168l-190 -258zM234 -93h153c4 -110 -48 -200 -159 -274l-81 72c64 56 90 117 87 202z" />
    <glyph glyph-name="Lcommaaccentsmall" unicode="&#xf68c;" horiz-adv-x="473" 
d="M422 0h-358v532h162v-407h196v-125zM162 -93h153c4 -110 -48 -200 -159 -274l-81 72c64 56 90 117 87 202z" />
    <glyph glyph-name="Ldotsmall" unicode="&#xf68d;" horiz-adv-x="473" 
d="M422 0h-358v532h162v-407h196v-125zM423 288c0 -43 -36 -78 -79 -78s-78 35 -78 78s35 79 78 79s79 -36 79 -79z" />
    <glyph glyph-name="Ncommaaccentsmall" unicode="&#xf690;" horiz-adv-x="595" 
d="M531 0h-127l-199 282l4 -282h-145v532h135l191 -277l-3 277h144v-532zM236 -93h153c4 -110 -48 -200 -159 -274l-81 72c64 56 90 117 87 202z" />
    <glyph glyph-name="Engsmall" unicode="&#xf67b;" horiz-adv-x="595" 
d="M531 -20c0 -62 -1 -122 -48 -169c-27 -27 -74 -46 -136 -46c-67 0 -118 29 -124 33l49 99c8 -3 31 -14 57 -14c18 0 28 4 36 12c10 10 14 19 14 67v44l-174 276l4 -282h-145v532h135l191 -307l-3 307h144v-552z" />
    <glyph glyph-name="Obrevesmall" unicode="&#xf691;" horiz-adv-x="657" 
d="M617 270c0 -173 -121 -285 -287 -285c-174 0 -290 119 -290 287c0 161 116 272 286 272c176 0 291 -117 291 -274zM457 270c0 89 -53 152 -134 152c-72 0 -123 -62 -123 -162c0 -99 57 -152 131 -152c104 0 126 92 126 162zM481 756c-1 -101 -62 -166 -159 -166
s-159 65 -160 166h107c3 -43 22 -63 53 -63c32 0 50 20 53 63h106z" />
    <glyph glyph-name="Oslashacutesmall" unicode="&#xf694;" horiz-adv-x="657" 
d="M617 270c0 -173 -121 -285 -287 -285c-36 0 -75 7 -92 12l-41 -70l-110 61l44 66c-20 18 -91 86 -91 218c0 161 116 272 286 272c47 0 80 -8 90 -11l34 62l110 -62l-34 -57c16 -12 91 -78 91 -206zM457 270c0 89 -53 152 -134 152c-72 0 -123 -62 -123 -162
c0 -99 57 -152 131 -152c104 0 126 92 126 162zM476 685l-247 -100l-50 84l235 131z" />
    <glyph glyph-name="Rcommaaccentsmall" unicode="&#xf697;" horiz-adv-x="533" 
d="M515 0h-162l-61 130c-18 38 -30 59 -70 59v-189h-158v532h168c69 0 145 4 199 -50c26 -26 45 -59 45 -107c0 -65 -46 -118 -126 -130c57 -5 80 -74 100 -114zM331 361c0 14 -4 32 -15 43c-16 16 -40 18 -74 18h-20v-127h26c30 0 83 1 83 66zM210 -93h153
c4 -110 -48 -200 -159 -274l-81 72c64 56 90 117 87 202z" />
    <glyph glyph-name="Scircumflexsmall" unicode="&#xf69a;" horiz-adv-x="482" 
d="M442 161c0 -107 -90 -176 -216 -176c-123 0 -195 58 -205 67l65 94c14 -9 59 -43 132 -43c48 0 72 18 72 51c0 55 -133 55 -212 134c-20 20 -37 50 -37 93c0 99 91 163 208 163c112 0 175 -45 188 -57l-60 -92c-10 6 -62 35 -121 35c-41 0 -64 -15 -64 -39
c0 -52 134 -56 210 -132c30 -30 40 -67 40 -98zM431 656l-54 -71l-129 72l-129 -71l-52 78l181 135z" />
    <glyph glyph-name="Tcommaaccentsmall" unicode="&#xf69e;" horiz-adv-x="498" 
d="M473 409h-143v-409h-162v409h-143v123h448v-123zM173 -93h153c4 -110 -48 -200 -159 -274l-81 72c64 56 90 117 87 202z" />
    <glyph glyph-name="Tbarsmall" unicode="&#xf69c;" horiz-adv-x="498" 
d="M428 182h-98v-182h-162v182h-98v118h98v109h-143v123h448v-123h-143v-109h98v-118z" />
    <glyph glyph-name="Utildesmall" unicode="&#xf6a4;" horiz-adv-x="589" 
d="M530 218c0 -90 -15 -131 -58 -171c-20 -19 -68 -62 -179 -62c-61 0 -125 15 -176 63c-52 49 -58 112 -58 185v299h162v-330c0 -23 2 -51 20 -69c11 -11 31 -19 55 -19c29 0 45 11 56 22c18 18 19 41 19 93v303h159v-314zM479 689c-17 -20 -70 -85 -132 -85
c-47 0 -75 32 -108 32c-24 0 -49 -25 -66 -39l-64 64c8 10 64 85 132 85c44 0 73 -31 107 -31c28 0 48 21 67 38z" />
    <glyph glyph-name="Ubrevesmall" unicode="&#xf69f;" horiz-adv-x="589" 
d="M530 218c0 -90 -15 -131 -58 -171c-20 -19 -68 -62 -179 -62c-61 0 -125 15 -176 63c-52 49 -58 112 -58 185v299h162v-330c0 -23 2 -51 20 -69c11 -11 31 -19 55 -19c29 0 45 11 56 22c18 18 19 41 19 93v303h159v-314zM454 756c-1 -101 -62 -166 -159 -166
s-159 65 -160 166h107c3 -43 22 -63 53 -63c32 0 50 20 53 63h106z" />
    <glyph glyph-name="Wacutesmall" unicode="&#xf6a5;" horiz-adv-x="828" 
d="M794 532l-139 -532h-148l-91 342l-97 -342h-148l-137 532h153l70 -352l101 352h125l96 -353l75 353h140zM565 685l-247 -100l-50 84l235 131z" />
    <glyph glyph-name="Wgravesmall" unicode="&#xf6a8;" horiz-adv-x="828" 
d="M794 532l-139 -532h-148l-91 342l-97 -342h-148l-137 532h153l70 -352l101 352h125l96 -353l75 353h140zM570 669l-50 -84l-247 100l62 115z" />
    <glyph glyph-name="Wcircumflexsmall" unicode="&#xf6a6;" horiz-adv-x="828" 
d="M794 532l-139 -532h-148l-91 342l-97 -342h-148l-137 532h153l70 -352l101 352h125l96 -353l75 353h140zM599 656l-54 -71l-129 72l-129 -71l-52 78l181 135z" />
    <glyph glyph-name="Wdieresissmall" unicode="&#xf6a7;" horiz-adv-x="828" 
d="M794 532l-139 -532h-148l-91 342l-97 -342h-148l-137 532h153l70 -352l101 352h125l96 -353l75 353h140zM600 685c0 -43 -36 -78 -79 -78s-78 35 -78 78s35 79 78 79s79 -36 79 -79zM390 685c0 -43 -36 -78 -79 -78s-78 35 -78 78s35 79 78 79s79 -36 79 -79z" />
    <glyph glyph-name="Ygravesmall" unicode="&#xf6aa;" horiz-adv-x="562" 
d="M543 532l-185 -317v-215h-162v215l-177 317h164l102 -203l110 203h148zM444 669l-50 -84l-247 100l62 115z" />
    <glyph glyph-name="Ycircumflexsmall" unicode="&#xf6a9;" horiz-adv-x="562" 
d="M543 532l-185 -317v-215h-162v215l-177 317h164l102 -203l110 203h148zM470 656l-54 -71l-129 72l-129 -71l-52 78l181 135z" />
    <glyph glyph-name="Dcroatsmall" unicode="&#xf676;" horiz-adv-x="624" 
d="M584 271c0 -67 -24 -140 -76 -188c-89 -83 -208 -83 -311 -83h-140v217h-83v107h83v208h174c117 0 202 -3 277 -73c49 -46 76 -116 76 -188zM421 272c0 48 -13 81 -37 104c-34 33 -68 36 -137 36h-31v-88h110v-107h-110v-96h50c103 0 155 52 155 151z" />
    <glyph glyph-name="uni021A" unicode="&#x21a;" horiz-adv-x="571" 
d="M546 536h-177v-536h-166v536h-178v131h521v-131zM210 -93h153c4 -110 -48 -200 -159 -274l-81 72c64 56 90 117 87 202z" />
    <glyph glyph-name="uni021B" unicode="&#x21b;" horiz-adv-x="460" 
d="M422 20c-3 -3 -56 -35 -135 -35c-48 0 -102 13 -137 48c-45 45 -45 95 -45 170v168h-86v125h86v137h160v-137h135v-125h-135v-179c0 -34 2 -78 58 -78c29 0 49 7 59 11zM114 -93h153c4 -110 -48 -200 -159 -274l-81 72c64 56 90 117 87 202z" />
    <glyph glyph-name="afii10017" unicode="&#x410;" horiz-adv-x="684" 
d="M666 0h-170l-38 122h-234l-39 -122h-167l241 667h164zM418 245l-79 250l-77 -250h156z" />
    <glyph glyph-name="afii10018" unicode="&#x411;" horiz-adv-x="615" 
d="M221 409h87c104 0 260 -23 260 -206c0 -64 -23 -109 -51 -137c-64 -64 -150 -66 -233 -66h-218v667h426v-131h-271v-127zM404 206c0 74 -58 74 -123 74h-60v-150h78c50 0 105 4 105 76z" />
    <glyph glyph-name="afii10019" unicode="&#x412;" horiz-adv-x="615" 
d="M568 201c0 -65 -24 -109 -51 -135c-62 -62 -146 -66 -227 -66h-224v667h234c80 0 149 -7 198 -56c41 -40 49 -82 49 -123c0 -120 -91 -145 -112 -148c35 -3 133 -29 133 -139zM388 470c0 65 -50 71 -91 71h-76v-146h57c54 0 110 5 110 75zM404 207c0 13 -5 35 -19 49
c-22 22 -46 24 -91 24h-73v-150h80c48 0 68 8 82 22c15 15 21 33 21 55z" />
    <glyph glyph-name="afii10020" unicode="&#x413;" horiz-adv-x="505" 
d="M230 0h-164v667h414v-131h-250v-536z" />
    <glyph glyph-name="afii10021" unicode="&#x414;" horiz-adv-x="733" 
d="M50 -127v258c33 2 51 8 68 23c18 15 28 44 39 90l94 423h373v-535h69v-259h-148v129h-348v-129h-147zM243 132h217v404h-79l-50 -233c-27 -129 -52 -158 -88 -171z" />
    <glyph glyph-name="afii10022" unicode="&#x415;" horiz-adv-x="542" 
d="M496 0h-430v667h422v-131h-258v-133h242v-128h-242v-142h266v-133z" />
    <glyph glyph-name="afii10024" unicode="&#x416;" horiz-adv-x="1012" 
d="M424 667h164v-310l219 310h175l-232 -323l244 -344h-194l-212 305v-305h-164v305l-212 -305h-194l244 344l-232 323h175l219 -310v310z" />
    <glyph glyph-name="afii10025" unicode="&#x417;" horiz-adv-x="606" 
d="M559 201c0 -127 -109 -218 -282 -218c-160 0 -229 64 -234 70l65 108c14 -9 66 -47 153 -47c85 0 132 37 132 85c0 77 -82 79 -139 79h-59v127h60c49 0 125 1 125 76c0 39 -39 71 -108 71c-87 0 -141 -46 -149 -52l-71 96c3 2 74 88 248 88c127 0 239 -78 239 -191
c0 -59 -36 -135 -99 -146c78 -11 119 -82 119 -146z" />
    <glyph glyph-name="afii10026" unicode="&#x418;" horiz-adv-x="678" 
d="M467 419l-266 -419h-135v667h149l-4 -403l256 403h145v-667h-148z" />
    <glyph glyph-name="afii10027" unicode="&#x419;" horiz-adv-x="678" 
d="M497 907c-1 -101 -62 -166 -159 -166s-159 65 -160 166h107c3 -43 22 -63 53 -63c32 0 50 20 53 63h106zM467 419l-3 -419h148v667h-145l-256 -403l4 403h-149v-667h135z" />
    <glyph glyph-name="afii10028" unicode="&#x41a;" horiz-adv-x="644" 
d="M626 0h-194l-202 305v-305h-164v667h164v-310l209 310h175l-222 -323z" />
    <glyph glyph-name="afii10029" unicode="&#x41b;" horiz-adv-x="704" 
d="M638 0h-164v536h-112l-83 -331c-31 -123 -51 -213 -209 -213c-22 0 -46 3 -52 4v124c70 3 85 24 106 109l108 438h406v-667z" />
    <glyph glyph-name="afii10030" unicode="&#x41c;" horiz-adv-x="882" 
d="M835 0h-153l-39 444l-139 -444h-136l-146 445l-30 -445h-145l65 667h177l155 -459l145 459h177z" />
    <glyph glyph-name="afii10031" unicode="&#x41d;" horiz-adv-x="681" 
d="M615 0h-164v279h-221v-279h-164v667h164v-255h221v255h164v-667z" />
    <glyph glyph-name="afii10032" unicode="&#x41e;" horiz-adv-x="756" 
d="M713 340c0 -217 -140 -357 -333 -357c-204 0 -337 148 -337 360c0 201 134 341 333 341c206 0 337 -147 337 -344zM547 341c0 121 -68 210 -175 210c-99 0 -163 -91 -163 -223c0 -135 75 -209 173 -209c140 0 165 135 165 222z" />
    <glyph glyph-name="afii10033" unicode="&#x41f;" horiz-adv-x="681" 
d="M615 0h-164v536h-221v-536h-164v667h549v-667z" />
    <glyph glyph-name="afii10034" unicode="&#x420;" horiz-adv-x="614" 
d="M559 461c0 -86 -39 -136 -61 -157c-62 -62 -133 -70 -218 -70h-52v-234h-162v667h200c104 0 181 -6 239 -63c35 -35 54 -85 54 -143zM395 453c0 30 -10 53 -22 65c-19 19 -46 21 -93 21h-52v-175h47c62 0 83 8 97 22s23 39 23 67z" />
    <glyph glyph-name="afii10035" unicode="&#x421;" horiz-adv-x="663" 
d="M639 71c-2 -2 -86 -88 -257 -88c-199 0 -339 138 -339 342c0 222 153 359 360 359c143 0 213 -60 230 -77l-70 -107c-7 5 -66 45 -146 45c-122 0 -208 -88 -208 -211c0 -116 71 -210 193 -210c86 0 152 45 170 56z" />
    <glyph glyph-name="afii10036" unicode="&#x422;" horiz-adv-x="571" 
d="M546 536h-177v-536h-166v536h-178v131h521v-131z" />
    <glyph glyph-name="afii10037" unicode="&#x423;" horiz-adv-x="643" 
d="M273 247l-221 420h166l132 -272l124 272h149l-214 -460c-63 -135 -101 -216 -245 -216c-82 0 -132 33 -136 35l47 109c7 -3 36 -18 75 -18c67 0 93 67 123 130z" />
    <glyph glyph-name="afii10038" unicode="&#x424;" horiz-adv-x="765" 
d="M727 336c0 -173 -120 -249 -270 -258v-78h-149v78c-154 9 -268 85 -268 257c0 163 116 242 268 252v80h149v-80c158 -12 270 -92 270 -251zM189 328c0 -105 66 -137 119 -141v293c-55 -3 -119 -42 -119 -152zM578 329c0 99 -55 148 -121 151v-293c76 5 121 61 121 142z
" />
    <glyph glyph-name="afii10039" unicode="&#x425;" horiz-adv-x="650" 
d="M622 0h-174l-124 220l-127 -220h-169l217 344l-203 323h176l116 -206l121 206h164l-205 -320z" />
    <glyph glyph-name="afii10040" unicode="&#x426;" horiz-adv-x="729" 
d="M541 0h-475v667h164v-536h221v536h164v-536h74v-258h-148v127z" />
    <glyph glyph-name="afii10041" unicode="&#x427;" horiz-adv-x="670" 
d="M225 667v-149c0 -34 3 -73 30 -100c16 -16 42 -27 85 -27c60 0 91 16 100 21v255h164v-667h-164v265c-20 -10 -66 -18 -108 -18c-72 0 -147 20 -206 78c-64 64 -65 148 -65 245v97h164z" />
    <glyph glyph-name="afii10042" unicode="&#x428;" horiz-adv-x="870" 
d="M804 0h-738v667h164v-536h123v536h164v-536h123v536h164v-667z" />
    <glyph glyph-name="afii10043" unicode="&#x429;" horiz-adv-x="918" 
d="M730 0h-664v667h164v-536h123v536h164v-536h123v536h164v-536h74v-258h-148v127z" />
    <glyph glyph-name="afii10044" unicode="&#x42a;" horiz-adv-x="752" 
d="M400 0h-199v536h-176v131h340v-235h47c109 0 207 -19 255 -82c25 -35 37 -78 37 -135c0 -70 -17 -113 -43 -142c-58 -66 -164 -73 -261 -73zM539 214c0 82 -60 93 -123 93h-51v-180h57c90 0 117 25 117 87z" />
    <glyph glyph-name="afii10045" unicode="&#x42b;" horiz-adv-x="891" 
d="M825 0h-164v667h164v-667zM265 0c97 0 203 7 261 73c26 29 43 72 43 142c0 57 -12 100 -37 135c-48 63 -146 82 -255 82h-47v235h-164v-667h199zM404 214c0 -62 -27 -87 -117 -87h-57v180h51c63 0 123 -11 123 -93z" />
    <glyph glyph-name="afii10046" unicode="&#x42c;" horiz-adv-x="619" 
d="M265 0h-199v667h164v-235h47c109 0 207 -19 255 -82c25 -35 39 -78 39 -135c0 -70 -19 -113 -45 -142c-58 -66 -164 -73 -261 -73zM404 214c0 82 -60 93 -123 93h-51v-180h57c90 0 117 25 117 87z" />
    <glyph glyph-name="afii10047" unicode="&#x42d;" horiz-adv-x="661" 
d="M24 71l67 109c13 -7 84 -56 169 -56c111 0 186 77 195 157h-290v125h283c-10 62 -69 142 -185 142c-98 0 -150 -48 -158 -53l-70 106c5 6 75 83 235 83c204 0 348 -134 348 -356c0 -224 -157 -345 -348 -345c-159 0 -238 80 -246 88z" />
    <glyph glyph-name="afii10048" unicode="&#x42e;" horiz-adv-x="1050" 
d="M1007 340c0 -217 -140 -357 -333 -357c-183 0 -309 119 -333 296h-111v-279h-164v667h164v-255h112c27 163 152 272 328 272c206 0 337 -147 337 -344zM841 341c0 121 -68 210 -175 210c-99 0 -163 -91 -163 -223c0 -135 75 -209 173 -209c140 0 165 135 165 222z" />
    <glyph glyph-name="afii10049" unicode="&#x42f;" horiz-adv-x="612" 
d="M197 0h-174l66 146c21 46 38 89 68 119c22 22 49 37 78 39c-106 14 -163 80 -163 171c0 59 26 102 55 131c67 67 152 61 238 61h181v-667h-162v251h-9c-23 0 -45 1 -63 -17c-22 -22 -41 -69 -49 -87zM228 461c0 -79 70 -87 109 -87h47v167h-39c-45 0 -76 -2 -97 -23
c-15 -15 -20 -38 -20 -57z" />
    <glyph glyph-name="afii10050" unicode="&#x490;" horiz-adv-x="505" 
d="M327 667v148h153v-279h-250v-536h-164v667h261z" />
    <glyph glyph-name="afii10055" unicode="&#x406;" horiz-adv-x="296" 
d="M230 0h-164v667h164v-667z" />
    <glyph glyph-name="afii10051" unicode="&#x402;" horiz-adv-x="719" 
d="M662 148c0 -268 -48 -384 -235 -384c-39 0 -94 14 -117 32l37 107c9 -4 36 -13 63 -13c81 0 92 90 92 255c0 52 2 110 -7 140c-9 29 -34 41 -77 41c-44 0 -77 -21 -83 -25v-301h-166v536h-144v131h477v-131h-167v-109c20 13 64 30 118 30c91 0 143 -26 172 -70
c44 -65 37 -162 37 -239z" />
    <glyph glyph-name="afii10099" unicode="&#x452;" horiz-adv-x="612" 
d="M561 -8c0 -52 2 -120 -54 -176c-29 -29 -74 -51 -138 -51c-73 0 -124 32 -124 32l42 106c11 -4 28 -12 55 -12c23 0 35 6 43 14c12 12 16 24 16 71v292c0 54 -2 79 -17 94c-5 5 -17 15 -44 15c-36 0 -69 -23 -76 -28v-349h-160v544h-85v117h85v63h160v-63h129v-117h-129
v-68c3 2 55 35 116 35c52 0 97 -15 128 -46c55 -55 53 -129 53 -193v-280z" />
    <glyph glyph-name="afii10052" unicode="&#x403;" horiz-adv-x="505" 
d="M66 0h164v536h250v131h-414v-667zM431 832l-247 -100l-50 84l235 131z" />
    <glyph glyph-name="afii10100" unicode="&#x453;" horiz-adv-x="427" 
d="M218 0h-160v496h351v-125h-191v-371zM379 645l-247 -100l-50 84l235 131z" />
    <glyph glyph-name="afii10103" unicode="&#x456;" horiz-adv-x="271" 
d="M220 636c0 -47 -37 -85 -84 -85s-85 38 -85 85s38 84 85 84s84 -37 84 -84zM215 0h-160v496h160v-496z" />
    <glyph glyph-name="afii10098" unicode="&#x491;" horiz-adv-x="427" 
d="M58 496h214v157h137v-282h-191v-371h-160v496z" />
    <glyph glyph-name="afii10057" unicode="&#x408;" horiz-adv-x="432" 
d="M371 227c0 -71 -2 -139 -55 -192c-31 -31 -85 -52 -155 -52c-86 0 -147 41 -154 47l55 110c10 -4 42 -19 77 -19c24 0 39 6 49 17c13 14 19 25 19 90v439h164v-440z" />
    <glyph glyph-name="afii10053" unicode="&#x404;" horiz-adv-x="663" 
d="M496 281h-290c13 -91 93 -157 196 -157c86 0 152 45 170 56l67 -109c-2 -2 -86 -88 -257 -88c-199 0 -339 138 -339 342c0 222 153 359 360 359c143 0 213 -60 230 -77l-70 -107c-7 5 -66 45 -146 45c-96 0 -182 -57 -205 -139h284v-125z" />
    <glyph glyph-name="afii10101" unicode="&#x454;" horiz-adv-x="508" 
d="M492 50c-2 -2 -71 -65 -194 -65c-160 0 -259 115 -259 260c0 153 117 265 267 265c110 0 169 -52 177 -64l-58 -90c-7 5 -51 34 -102 34c-89 0 -121 -61 -125 -86h179v-104h-182c5 -39 34 -93 124 -93c59 0 113 35 116 36z" />
    <glyph glyph-name="afii10056" unicode="&#x407;" horiz-adv-x="296" 
d="M332 819c0 -44 -36 -78 -79 -78s-78 34 -78 78c0 43 35 79 78 79s79 -36 79 -79zM122 819c0 -44 -36 -78 -79 -78s-78 34 -78 78c0 43 35 79 78 79s79 -36 79 -79zM230 0h-164v667h164v-667z" />
    <glyph glyph-name="afii10104" unicode="&#x457;" horiz-adv-x="271" 
d="M319 647c0 -43 -36 -78 -79 -78s-78 35 -78 78s35 79 78 79s79 -36 79 -79zM109 647c0 -43 -36 -78 -79 -78s-78 35 -78 78s35 79 78 79s79 -36 79 -79zM215 0h-160v496h160v-496z" />
    <glyph glyph-name="afii10058" unicode="&#x409;" horiz-adv-x="1024" 
d="M638 127h46c89 0 128 18 128 87c0 84 -60 96 -128 96h-46v-183zM638 667v-231h43c164 0 295 -39 295 -221c0 -70 -17 -113 -42 -142c-58 -66 -165 -73 -261 -73c15 0 -207 0 -199 0v536h-122l-79 -364c-20 -92 -35 -189 -220 -183c-12 2 -29 4 -35 5v126
c63 0 86 18 106 109l98 438h416z" />
    <glyph glyph-name="afii10106" unicode="&#x459;" horiz-adv-x="855" 
d="M363 0v371h-87l-64 -246c-26 -98 -69 -141 -212 -131v107c45 1 60 11 73 62l85 333h365v-171h68c83 1 232 -4 232 -161c0 -160 -145 -164 -268 -164h-192zM669 163c0 41 -28 53 -81 53h-65v-107h56c64 0 90 11 90 54z" />
    <glyph glyph-name="afii10059" unicode="&#x40a;" horiz-adv-x="1010" 
d="M615 412h87c104 0 260 -26 260 -209c0 -64 -23 -109 -51 -137c-64 -64 -150 -66 -233 -66h-227v279h-221v-279h-164v667h164v-255h221v255h164v-255zM798 205c0 74 -58 74 -123 74h-60v-150h78c50 0 105 4 105 76z" />
    <glyph glyph-name="afii10107" unicode="&#x45a;" horiz-adv-x="847" 
d="M547 0h-192v210h-137v-210h-160v496h160v-171h137v171h160v-171h68c83 1 232 -4 232 -161c0 -160 -145 -164 -268 -164zM661 163c0 41 -28 53 -81 53h-65v-107h56c64 0 90 11 90 54z" />
    <glyph glyph-name="afii10105" unicode="&#x458;" horiz-adv-x="271" 
d="M220 636c0 -47 -37 -85 -84 -85s-85 38 -85 85s38 84 85 84s84 -37 84 -84zM217 -8c0 -52 2 -120 -54 -176c-29 -29 -74 -51 -138 -51c-73 0 -124 32 -124 32l42 106c11 -4 28 -12 55 -12c23 0 35 6 43 14c12 12 16 24 16 71v520h160v-504z" />
    <glyph glyph-name="afii10054" unicode="&#x405;" horiz-adv-x="561" 
d="M514 200c0 -130 -103 -217 -252 -217c-137 0 -216 58 -235 77l69 107c14 -8 72 -50 156 -50c55 0 98 20 98 73c0 17 -5 29 -19 43c-31 31 -167 64 -234 130c-27 26 -49 59 -49 120c0 119 104 201 243 201c127 0 204 -59 217 -71l-70 -103c-13 8 -69 46 -140 46
c-53 0 -87 -21 -87 -60c0 -23 10 -32 19 -40c33 -33 161 -60 234 -133c31 -30 50 -73 50 -123z" />
    <glyph glyph-name="afii10060" unicode="&#x40b;" horiz-adv-x="715" 
d="M335 0h-166v536h-144v131h477v-131h-167v-109c24 14 63 31 125 31c128 0 205 -61 205 -211v-247h-160v202c0 72 0 124 -84 124c-17 0 -54 -4 -86 -25v-301z" />
    <glyph glyph-name="afii10108" unicode="&#x45b;" horiz-adv-x="612" 
d="M561 0h-160v268c0 54 -2 79 -17 94c-5 5 -17 15 -44 15c-36 0 -69 -23 -76 -28v-349h-160v544h-85v117h85v63h160v-63h129v-117h-129v-68c3 2 55 35 116 35c52 0 97 -15 128 -46c55 -55 53 -129 53 -193v-272z" />
    <glyph glyph-name="afii10061" unicode="&#x40c;" horiz-adv-x="644" 
d="M626 0h-194l-202 305v-305h-164v667h164v-310l209 310h175l-222 -323zM471 832l-247 -100l-50 84l235 131z" />
    <glyph glyph-name="afii10109" unicode="&#x45c;" horiz-adv-x="571" 
d="M567 0h-184l-165 202v-202h-160v496h160v-194l163 194h176l-203 -240zM442 645l-247 -100l-50 84l235 131z" />
    <glyph glyph-name="afii10102" unicode="&#x455;" horiz-adv-x="469" 
d="M423 145c0 -81 -72 -160 -193 -160c-117 0 -192 47 -198 53l50 100c14 -7 69 -39 126 -39c45 0 60 23 60 43c0 13 -2 19 -13 30c-26 26 -117 46 -165 94c-20 20 -38 46 -38 85c0 93 81 160 205 160c98 0 155 -36 166 -45l-49 -94c-8 5 -61 34 -113 34
c-36 0 -56 -14 -56 -38c0 -67 218 -55 218 -223z" />
    <glyph glyph-name="afii10062" unicode="&#x40e;" horiz-adv-x="643" 
d="M277 255l-225 412h166l131 -270l125 270h149l-214 -460c-63 -135 -101 -216 -245 -216c-82 0 -132 33 -136 35l47 109c7 -3 36 -18 75 -18c67 0 97 75 127 138zM499 907c-1 -101 -62 -166 -159 -166s-159 65 -160 166h107c3 -43 22 -63 53 -63c32 0 50 20 53 63h106z" />
    <glyph glyph-name="afii10110" unicode="&#x45e;" horiz-adv-x="610" 
d="M583 496l-197 -491c-55 -138 -73 -161 -99 -187c-18 -18 -59 -53 -153 -53c-80 0 -131 33 -135 36l48 110c7 -3 40 -19 79 -19c30 0 48 9 63 24c22 22 40 78 42 86l-210 494h170l120 -331l114 331h158zM464 736c-1 -101 -62 -166 -159 -166s-159 65 -160 166h107
c3 -43 22 -63 53 -63c32 0 50 20 53 63h106z" />
    <glyph glyph-name="afii10145" unicode="&#x40f;" horiz-adv-x="681" 
d="M615 0h-200v-127h-148v127h-201v667h164v-536h221v536h164v-667z" />
    <glyph glyph-name="afii10193" unicode="&#x45f;" horiz-adv-x="573" 
d="M355 496h160v-496h-160v-127h-137v127h-160v496h160v-371h137v371z" />
    <glyph glyph-name="afii10023" unicode="&#x401;" horiz-adv-x="542" 
d="M496 0h-430v667h422v-131h-258v-133h242v-128h-242v-142h266v-133zM467 819c0 -43 -36 -78 -79 -78s-78 35 -78 78s35 79 78 79s79 -36 79 -79zM257 819c0 -43 -36 -78 -79 -78s-78 35 -78 78s35 79 78 79s79 -36 79 -79z" />
    <glyph glyph-name="afii10071" unicode="&#x451;" horiz-adv-x="551" 
d="M512 246c0 -21 -2 -34 -2 -46h-328c0 -35 31 -101 127 -101c67 0 118 30 127 35l47 -94c-6 -6 -87 -55 -187 -55c-186 0 -257 135 -257 260c0 152 99 266 244 266c149 0 229 -105 229 -265zM372 306c0 19 -8 96 -86 96c-83 0 -100 -82 -101 -96h187zM466 647
c0 -43 -36 -78 -79 -78s-78 35 -78 78s35 79 78 79s79 -36 79 -79zM256 647c0 -43 -36 -78 -79 -78s-78 35 -78 78s35 79 78 79s79 -36 79 -79z" />
    <glyph glyph-name="afii10097" unicode="&#x44f;" horiz-adv-x="537" 
d="M199 0h-160l85 178c4 8 21 51 56 56c-57 7 -85 59 -85 111c0 146 117 151 197 151h187v-496h-147v180h-9c-36 0 -46 -8 -63 -46zM233 333c0 -40 33 -53 68 -53h31v111h-38c-31 0 -61 -7 -61 -58z" />
    <glyph glyph-name="afii10065" unicode="&#x430;" horiz-adv-x="523" 
d="M472 0h-132v42c-11 -9 -62 -53 -140 -53c-100 0 -161 67 -161 162c0 183 221 183 273 183h11c0 16 1 32 -12 45c-8 8 -24 16 -59 16c-70 0 -132 -31 -138 -34l-48 95c8 6 76 54 194 54c76 0 133 -19 172 -58c43 -43 40 -101 40 -162v-290zM325 131v101
c-38 0 -108 2 -137 -27c-9 -9 -17 -22 -17 -42c0 -48 36 -60 62 -60c54 0 87 25 92 28z" />
    <glyph glyph-name="afii10066" unicode="&#x431;" horiz-adv-x="587" 
d="M39 311c0 377 145 373 393 421l30 -107c-108 -46 -237 -10 -255 -158c22 21 62 43 116 43c158 0 225 -115 225 -258c0 -158 -115 -267 -255 -267c-150 0 -254 114 -254 326zM197 274c0 -109 40 -161 96 -161c44 0 96 24 96 126c0 89 -31 143 -90 143
c-36 0 -86 -29 -99 -42c-2 -15 -3 -38 -3 -66z" />
    <glyph glyph-name="afii10067" unicode="&#x432;" horiz-adv-x="514" 
d="M403 256c18 -2 79 -19 79 -104c0 -126 -93 -152 -193 -152h-231v496h216c94 0 192 -21 192 -146c0 -60 -40 -88 -63 -94zM335 155c0 25 -14 43 -65 43h-65v-89h44c67 0 86 7 86 46zM324 347c0 35 -29 44 -69 44h-50v-93h42c47 -1 77 5 77 49z" />
    <glyph glyph-name="afii10068" unicode="&#x433;" horiz-adv-x="427" 
d="M218 0h-160v496h351v-125h-191v-371z" />
    <glyph glyph-name="afii10069" unicode="&#x434;" horiz-adv-x="657" 
d="M45 -127v251c70 8 76 15 100 109l58 263h352v-371h66v-252h-137v129h-302v-129h-137zM219 125h182v246h-74l-34 -153c-15 -69 -38 -85 -74 -93z" />
    <glyph glyph-name="afii10070" unicode="&#x435;" horiz-adv-x="551" 
d="M512 246c0 -21 -2 -34 -2 -46h-328c0 -35 31 -101 127 -101c67 0 118 30 127 35l47 -94c-6 -6 -87 -55 -187 -55c-186 0 -257 135 -257 260c0 152 99 266 244 266c149 0 229 -105 229 -265zM372 306c0 19 -8 96 -86 96c-83 0 -100 -82 -101 -96h187z" />
    <glyph glyph-name="afii10072" unicode="&#x436;" horiz-adv-x="856" 
d="M668 0l-165 202v-202h-150v202l-165 -202h-184l218 257l-213 239h181l163 -194v194h150v-194l163 194h176l-203 -240l213 -256h-184z" />
    <glyph glyph-name="afii10073" unicode="&#x437;" horiz-adv-x="464" 
d="M425 146c0 -120 -113 -153 -217 -153s-167 42 -192 66l58 84c26 -18 68 -43 129 -43c37 0 75 15 75 54c0 47 -50 48 -83 48h-47v96h53c27 0 77 3 77 57c0 34 -32 53 -74 53c-63 0 -107 -35 -121 -47l-58 77c18 21 81 72 184 72c110 0 204 -36 204 -151
c0 -79 -52 -105 -79 -107c30 -3 91 -23 91 -106z" />
    <glyph glyph-name="afii10074" unicode="&#x438;" horiz-adv-x="573" 
d="M377 273l-189 -273h-130v496h143l-4 -271l187 271h131v-496h-142z" />
    <glyph glyph-name="afii10075" unicode="&#x439;" horiz-adv-x="573" 
d="M458 736c-1 -101 -62 -166 -159 -166s-159 65 -160 166h107c3 -43 22 -63 53 -63c32 0 50 20 53 63h106zM377 273l-4 -273h142v496h-131l-187 -271l4 271h-143v-496h130z" />
    <glyph glyph-name="afii10076" unicode="&#x43a;" horiz-adv-x="571" 
d="M567 0h-184l-165 202v-202h-160v496h160v-194l163 194h176l-203 -240z" />
    <glyph glyph-name="afii10077" unicode="&#x43b;" horiz-adv-x="581" 
d="M363 371h-87l-64 -246c-26 -98 -69 -141 -212 -131v107c45 1 60 11 73 62l85 333h365v-496h-160v371z" />
    <glyph glyph-name="afii10078" unicode="&#x43c;" horiz-adv-x="670" 
d="M622 0h-130l-32 277l-91 -277h-70l-91 277l-32 -277h-128l66 496h134l87 -267l88 267h134z" />
    <glyph glyph-name="afii10079" unicode="&#x43d;" horiz-adv-x="573" 
d="M355 200h-137v-200h-160v496h160v-171h137v171h160v-496h-160v200z" />
    <glyph glyph-name="afii10080" unicode="&#x43e;" horiz-adv-x="601" 
d="M562 256c0 -159 -111 -271 -269 -271c-150 0 -254 109 -254 259c0 154 112 267 266 267c150 0 257 -110 257 -255zM402 247c0 82 -39 136 -103 136c-61 0 -100 -50 -100 -133c0 -84 42 -136 106 -136c62 0 97 50 97 133z" />
    <glyph glyph-name="afii10081" unicode="&#x43f;" horiz-adv-x="573" 
d="M218 0h-160v496h457v-496h-160v371h-137v-371z" />
    <glyph glyph-name="afii10082" unicode="&#x440;" horiz-adv-x="590" 
d="M551 255c0 -162 -117 -270 -237 -270c-52 0 -84 16 -96 21v-225h-160v715h132v-38c7 7 52 52 137 52c137 0 224 -105 224 -255zM392 252c0 84 -46 131 -104 131c-40 0 -61 -18 -70 -23v-226c4 -3 29 -21 68 -21c60 0 106 53 106 139z" />
    <glyph glyph-name="afii10083" unicode="&#x441;" horiz-adv-x="510" 
d="M494 50c-3 -2 -71 -65 -195 -65c-161 0 -260 116 -260 261c0 152 118 265 268 265c111 0 172 -52 179 -62l-63 -97c-4 3 -45 30 -93 30c-78 0 -130 -57 -130 -133c0 -79 39 -135 121 -135c59 0 109 34 112 36z" />
    <glyph glyph-name="afii10084" unicode="&#x442;" horiz-adv-x="487" 
d="M324 0h-160v371h-146v125h451v-125h-145v-371z" />
    <glyph glyph-name="afii10085" unicode="&#x443;" horiz-adv-x="610" 
d="M583 496l-197 -491c-55 -138 -73 -161 -99 -187c-18 -18 -59 -53 -153 -53c-80 0 -131 33 -135 36l48 110c7 -3 40 -19 79 -19c30 0 48 9 63 24c22 22 40 78 42 86l-210 494h170l120 -331l114 331h158z" />
    <glyph glyph-name="afii10086" unicode="&#x444;" horiz-adv-x="751" 
d="M712 253c0 -197 -141 -249 -267 -264v-208h-139v208c-122 13 -267 59 -267 255c0 192 142 247 267 262v218h139v-218c123 -14 267 -64 267 -253zM195 250c0 -119 69 -142 111 -147v291c-47 -2 -111 -34 -111 -144zM557 244c0 116 -70 145 -112 150v-291
c46 5 112 29 112 141z" />
    <glyph glyph-name="afii10087" unicode="&#x445;" horiz-adv-x="597" 
d="M577 0h-180l-101 151l-99 -151h-172l187 246l-179 250h180l94 -134l85 134h166l-171 -246z" />
    <glyph glyph-name="afii10088" unicode="&#x446;" horiz-adv-x="621" 
d="M355 496h160v-371h70v-252h-137v127h-390v496h160v-371h137v371z" />
    <glyph glyph-name="afii10089" unicode="&#x447;" horiz-adv-x="574" 
d="M516 0h-160v194c-4 -4 -55 -27 -116 -27c-52 0 -94 14 -128 48c-55 55 -53 129 -53 193v88h160v-85c0 -54 2 -79 17 -94c5 -5 17 -15 44 -15c36 0 68 13 76 18v176h160v-496z" />
    <glyph glyph-name="afii10090" unicode="&#x448;" horiz-adv-x="770" 
d="M712 0h-654v496h160v-371h90v371h154v-371h90v371h160v-496z" />
    <glyph glyph-name="afii10091" unicode="&#x449;" horiz-adv-x="818" 
d="M58 496h160v-371h90v371h154v-371h90v371h160v-371h70v-252h-137v127h-587v496z" />
    <glyph glyph-name="afii10092" unicode="&#x44a;" horiz-adv-x="658" 
d="M166 371h-148v125h308v-171h68c83 1 232 -4 232 -161c0 -160 -145 -164 -268 -164h-192v371zM472 163c0 41 -28 53 -81 53h-65v-107h56c64 0 90 11 90 54z" />
    <glyph glyph-name="afii10093" unicode="&#x44b;" horiz-adv-x="805" 
d="M747 0h-160v496h160v-496zM58 496h160v-171h68c83 1 232 -4 232 -161c0 -160 -145 -164 -268 -164h-192v496zM364 163c0 41 -28 53 -81 53h-65v-107h56c64 0 90 11 90 54z" />
    <glyph glyph-name="afii10094" unicode="&#x44c;" horiz-adv-x="550" 
d="M58 496h160v-171h68c83 1 232 -4 232 -161c0 -160 -145 -164 -268 -164h-192v496zM364 163c0 41 -28 53 -81 53h-65v-107h56c64 0 90 11 90 54z" />
    <glyph glyph-name="afii10095" unicode="&#x44d;" horiz-adv-x="508" 
d="M16 50l57 93c3 -1 57 -36 116 -36c90 0 119 54 124 93h-182v104h179c-4 25 -36 86 -125 86c-51 0 -95 -29 -102 -34l-58 90c8 12 67 64 177 64c150 0 267 -112 267 -265c0 -145 -99 -260 -259 -260c-123 0 -192 63 -194 65z" />
    <glyph glyph-name="afii10096" unicode="&#x44e;" horiz-adv-x="837" 
d="M798 256c0 -159 -111 -271 -269 -271c-131 0 -226 82 -249 203h-62v-188h-160v496h160v-183h65c28 117 128 198 258 198c150 0 257 -110 257 -255zM638 247c0 82 -39 136 -103 136c-61 0 -100 -50 -100 -133c0 -84 42 -136 106 -136c62 0 97 50 97 133z" />
    <glyph glyph-name="uni0400" unicode="&#x400;" horiz-adv-x="542" 
d="M496 0h-430v667h422v-131h-258v-133h242v-128h-242v-142h266v-133zM418 816l-50 -84l-247 100l62 115z" />
    <glyph glyph-name="uni040D" unicode="&#x40d;" horiz-adv-x="678" 
d="M467 419l-266 -419h-135v667h149l-4 -403l256 403h145v-667h-148zM487 816l-50 -84l-247 100l62 115z" />
    </font>
</defs>
</svg>
