<?xml version="1.0" standalone="no"?>
<!DOCTYPE svg PUBLIC "-//W3C//DTD SVG 1.1//EN" "http://www.w3.org/Graphics/SVG/1.1/DTD/svg11.dtd" >
<svg xmlns="http://www.w3.org/2000/svg" xmlns:xlink="http://www.w3.org/1999/xlink" version="1.1">
<metadata>
Created by FontForge 20190801 at Thu Apr 30 12:47:47 2009
 By Jimmy Wärting
Copyright (c) 2009 by The Foundry. All rights reserved.
</metadata>
<defs>
<font id="FoundrySterlingOT3-Demi" horiz-adv-x="401" >
  <font-face 
    font-family="Foundry Sterling OT3"
    font-weight="600"
    font-stretch="normal"
    units-per-em="1000"
    panose-1="2 0 7 0 4 0 0 2 0 4"
    ascent="765"
    descent="-235"
    x-height="488"
    cap-height="667"
    bbox="-285 -317 1316 1119"
    underline-thickness="50"
    underline-position="-100"
    stemh="92"
    stemv="112"
    unicode-range="U+0020-FFF3"
  />
<missing-glyph horiz-adv-x="646" 
d="M456 -32v606h-266v-606h266zM76 -125v792h494v-792h-494z" />
    <glyph glyph-name="fi" unicode="fi" horiz-adv-x="573" 
d="M509 0h-110v398h-175v-398h-110v398h-82v90h82v42c0 68 8 118 50 160c28 28 68 45 125 45c77 0 125 -38 128 -42l-42 -72c-5 3 -36 22 -71 22c-20 0 -41 -4 -56 -19c-23 -23 -24 -55 -24 -93v-43h285v-488z" />
    <glyph glyph-name="fl" unicode="fl" horiz-adv-x="573" 
d="M509 0h-110v398h-175v-398h-110v398h-82v90h82v44c0 71 10 118 50 158c28 28 70 45 120 45c48 0 76 -15 84 -19l-28 -81c-3 1 -18 8 -41 8c-18 0 -39 -5 -53 -20c-21 -22 -22 -58 -22 -92v-43h175v235h110v-723z" />
    <glyph glyph-name="f_f" unicode="ff" horiz-adv-x="698" 
d="M702 693l-42 -72c-5 3 -36 22 -71 22c-20 0 -41 -4 -56 -19c-23 -23 -24 -55 -24 -93v-43h148v-90h-148v-398h-110v398h-175v-398h-110v398h-82v90h82v44c0 71 10 118 50 158c28 28 70 45 120 45c48 0 76 -15 84 -19l-28 -81c-3 1 -18 8 -41 8c-18 0 -39 -5 -53 -20
c-21 -22 -22 -58 -22 -92v-43h175v42c0 68 8 118 50 160c28 28 68 45 125 45c77 0 125 -38 128 -42z" />
    <glyph glyph-name="f_f_i" unicode="ffi" horiz-adv-x="858" 
d="M794 0h-110v398h-175v-398h-110v398h-175v-398h-110v398h-82v90h82v44c0 71 10 118 50 158c28 28 70 45 120 45c48 0 76 -15 84 -19l-28 -81c-3 1 -18 8 -41 8c-18 0 -39 -5 -53 -20c-21 -22 -22 -58 -22 -92v-43h175v42c0 68 8 118 50 160c28 28 68 45 125 45
c77 0 125 -38 128 -42l-42 -72c-5 3 -36 22 -71 22c-20 0 -41 -4 -56 -19c-23 -23 -24 -55 -24 -93v-43h285v-488z" />
    <glyph glyph-name="f_f_l" unicode="ffl" horiz-adv-x="858" 
d="M794 0h-110v398h-175v-398h-110v398h-175v-398h-110v398h-82v90h82v44c0 71 10 118 50 158c28 28 70 45 120 45c48 0 76 -15 84 -19l-28 -81c-3 1 -18 8 -41 8c-18 0 -39 -5 -53 -20c-21 -22 -22 -58 -22 -92v-43h175v44c0 71 10 118 50 158c28 28 70 45 120 45
c48 0 76 -15 84 -19l-28 -81c-3 1 -18 8 -41 8c-18 0 -39 -5 -53 -20c-21 -22 -22 -58 -22 -92v-43h175v235h110v-723z" />
    <glyph glyph-name="f_j" unicode="fj" horiz-adv-x="573" 
d="M509 -34c0 -67 -7 -113 -48 -154c-30 -30 -80 -43 -121 -43c-48 0 -88 19 -93 23l28 79c8 -3 27 -11 49 -11c27 0 43 9 54 20c14 14 21 34 21 78v440h-175v-398h-110v398h-82v90h82v42c0 68 8 118 50 160c28 28 68 45 125 45c77 0 125 -38 128 -42l-42 -72
c-5 3 -36 22 -71 22c-20 0 -41 -4 -56 -19c-23 -23 -24 -55 -24 -93v-43h285v-522z" />
    <glyph glyph-name="f_t" unicode="ft" horiz-adv-x="708" 
d="M399 488v137h110v-137h144v-90h-144v-230c0 -44 2 -88 66 -88c35 0 59 11 65 13l28 -77c-5 -3 -47 -29 -114 -29c-44 0 -89 12 -118 41c-39 39 -37 87 -37 150v220h-175v-398h-110v398h-82v90h82v44c0 71 10 118 50 158c28 28 70 45 120 45c48 0 76 -15 84 -19l-28 -81
c-3 1 -18 8 -41 8c-18 0 -39 -5 -53 -20c-21 -22 -22 -58 -22 -92v-43h175z" />
    <glyph glyph-name="IJ" unicode="IJ" horiz-adv-x="662" 
d="M192 0h-116v667h116v-667zM593 217c0 -66 1 -135 -49 -185c-28 -28 -73 -46 -129 -46c-81 0 -135 39 -140 43l40 81c13 -7 47 -24 83 -24c26 0 43 6 55 18c23 22 24 55 24 103v460h116v-450z" />
    <glyph glyph-name="ij" unicode="ij" horiz-adv-x="474" 
d="M183 634c0 -36 -28 -64 -64 -64s-65 28 -65 64s29 65 65 65s64 -29 64 -65zM174 0h-110v488h110v-488zM420 634c0 -36 -29 -64 -65 -64s-64 28 -64 64s28 65 64 65s65 -29 65 -65zM411 -34c0 -67 -7 -113 -48 -154c-30 -30 -80 -43 -121 -43c-48 0 -88 19 -93 23l28 79
c8 -3 27 -11 49 -11c27 0 43 9 54 20c14 14 21 34 21 78v530h110v-522z" />
    <glyph glyph-name="IJsmall" unicode="&#xf769;&#xf76a;" horiz-adv-x="600" 
d="M183 0h-113v524h113v-524zM537 182c0 -61 0 -114 -41 -155c-24 -24 -64 -40 -112 -40c-70 0 -117 33 -122 38l39 74c6 -3 34 -20 66 -20c19 0 32 6 40 14c15 15 17 36 17 75v356h113v-342z" />
    <glyph glyph-name=".notdef" horiz-adv-x="646" 
d="M456 -32v606h-266v-606h266zM76 -125v792h494v-792h-494z" />
    <glyph glyph-name="Eth" unicode="&#xd0;" horiz-adv-x="722" 
d="M673 339c0 -95 -33 -184 -93 -244c-91 -91 -203 -95 -328 -95h-147v298h-100v92h100v277h171c122 0 219 -2 304 -87c58 -58 93 -146 93 -241zM557 342c0 69 -17 128 -64 175c-57 57 -123 59 -219 59h-53v-186h177v-92h-177v-205h79c84 0 149 16 197 67
c40 42 60 106 60 182z" />
    <glyph glyph-name="eth" unicode="&#xf0;" horiz-adv-x="535" 
d="M494 307c0 -196 -85 -320 -229 -320c-132 0 -224 105 -224 258c0 150 86 250 222 250c30 0 56 -6 99 -25c-11 53 -47 95 -66 110l-127 -54l-30 67l87 37c-23 14 -79 29 -136 35l8 79c92 -8 173 -34 227 -71l105 44l30 -65l-69 -30c75 -72 103 -195 103 -315zM381 302
c0 24 -2 42 -4 63c-28 22 -65 37 -102 37c-77 0 -123 -62 -123 -162c0 -98 49 -158 114 -158c94 0 115 118 115 220z" />
    <glyph glyph-name="Lslash" unicode="&#x141;" horiz-adv-x="561" 
d="M518 0h-384v247l-66 -50l-62 79l128 95v296h116v-219l102 77l61 -78l-163 -122v-229h268v-96z" />
    <glyph glyph-name="lslash" unicode="&#x142;" horiz-adv-x="377" 
d="M371 451l-128 -96v-355h-110v280l-65 -50l-62 76l127 97v320h110v-246l67 52z" />
    <glyph glyph-name="Scaron" unicode="&#x160;" horiz-adv-x="535" 
d="M481 191c0 -121 -85 -206 -229 -206c-126 0 -208 68 -214 75l52 80c13 -8 76 -56 156 -56c76 0 118 39 118 98c0 68 -74 90 -138 118c-52 23 -168 65 -168 193c0 113 90 189 219 189c124 0 194 -67 198 -71l-54 -74c-5 4 -60 50 -136 50c-67 0 -114 -35 -114 -85
c0 -51 37 -67 123 -104c95 -41 187 -86 187 -207zM446 831l-164 -117l-164 121l39 55l125 -71l125 70z" />
    <glyph glyph-name="scaron" unicode="&#x161;" horiz-adv-x="443" 
d="M393 140c0 -96 -78 -153 -186 -153c-104 0 -172 47 -178 52l39 72c10 -5 62 -38 128 -38c56 0 85 26 85 60c0 38 -39 51 -105 79c-54 23 -129 55 -129 144c0 88 74 146 181 146c101 0 155 -42 158 -44l-38 -70c-5 3 -58 33 -113 33s-78 -27 -78 -55c0 -35 37 -50 87 -71
c68 -28 149 -59 149 -155zM390 664l-164 -117l-164 121l39 55l125 -71l125 70z" />
    <glyph glyph-name="Yacute" unicode="&#xdd;" horiz-adv-x="587" 
d="M560 667l-210 -402v-265h-113v265l-210 402h119l154 -307l152 307h108zM415 804l-225 -90l-34 62l216 116z" />
    <glyph glyph-name="yacute" unicode="&#xfd;" horiz-adv-x="546" 
d="M518 488l-193 -502c-35 -92 -58 -134 -92 -168c-24 -24 -66 -49 -135 -49c-54 0 -97 21 -110 27l32 80c7 -3 34 -16 73 -16c31 0 54 10 71 27c26 26 42 72 56 109l-203 492h117l143 -368l132 368h109zM395 635l-225 -90l-34 62l216 116z" />
    <glyph glyph-name="Thorn" unicode="&#xde;" horiz-adv-x="577" 
d="M524 345c0 -68 -27 -119 -57 -149c-63 -63 -135 -63 -227 -63h-50v-133h-114v667h114v-122h64c90 0 162 -4 215 -57c36 -36 55 -87 55 -143zM407 343c0 36 -12 65 -31 84c-26 26 -69 27 -123 27h-63v-228h47c72 0 112 3 138 29c19 19 32 48 32 88z" />
    <glyph glyph-name="thorn" unicode="&#xfe;" horiz-adv-x="555" 
d="M513 252c0 -158 -107 -264 -237 -264c-59 0 -97 21 -102 24v-227h-110v938h106v-261c6 5 51 40 125 40c131 0 218 -103 218 -250zM402 250c0 100 -58 160 -130 160c-55 0 -95 -31 -98 -34v-271c6 -4 38 -26 86 -26c82 0 142 62 142 171z" />
    <glyph glyph-name="CR" horiz-adv-x="518" 
 />
    <glyph glyph-name="Zcaron" unicode="&#x17d;" horiz-adv-x="562" 
d="M517 0h-472v82l324 491h-309v94h448v-85l-318 -486h327v-96zM433 832l-164 -117l-164 121l39 55l125 -71l125 70z" />
    <glyph glyph-name="zcaron" unicode="&#x17e;" horiz-adv-x="508" 
d="M451 0h-404v77l259 321h-251v90h387v-80l-255 -316h264v-92zM412 664l-164 -117l-164 121l39 55l125 -71l125 70z" />
    <glyph glyph-name="brokenbar" unicode="&#xa6;" horiz-adv-x="267" 
d="M191 363h-115v304h115v-304zM191 -125h-115v306h115v-306z" />
    <glyph glyph-name="minus" unicode="&#x2212;" horiz-adv-x="628" 
d="M576 214h-524v92h524v-92z" />
    <glyph glyph-name="multiply" unicode="&#xd7;" horiz-adv-x="628" 
d="M562 77l-66 -65l-183 183l-182 -183l-66 65l183 183l-183 182l66 66l182 -183l183 183l66 -66l-183 -182z" />
    <glyph glyph-name="space" unicode=" " horiz-adv-x="238" 
 />
    <glyph glyph-name="exclam" unicode="!" horiz-adv-x="355" 
d="M241 667l-17 -477h-92l-18 477h127zM248 63c0 -39 -31 -70 -70 -70s-70 31 -70 70s31 70 70 70s70 -31 70 -70z" />
    <glyph glyph-name="quotedbl" unicode="&#x22;" horiz-adv-x="373" 
d="M324 667l-14 -245h-92l-14 245h120zM169 667l-14 -245h-92l-14 245h120z" />
    <glyph glyph-name="numbersign" unicode="#" horiz-adv-x="593" 
d="M523 519l-10 -77h-88l-14 -96h88l-10 -77h-88l-24 -164h-76l24 164h-89l-24 -164h-76l24 164h-89l10 77h89l14 96h-90l10 77h90l21 148h76l-21 -148h89l21 148h76l-21 -148h88zM349 442h-89l-14 -96h89z" />
    <glyph glyph-name="dollar" unicode="$" horiz-adv-x="627" 
d="M528 194c0 -119 -86 -183 -178 -197v-103h-83v99c-113 7 -190 65 -196 72l54 79c13 -8 79 -55 161 -55c78 0 121 38 121 96c0 67 -76 88 -142 116c-53 22 -173 64 -173 189c0 111 90 169 175 181v91h83v-89c105 -7 167 -64 171 -68l-55 -72c-5 4 -62 49 -140 49
c-69 0 -118 -34 -118 -83c0 -50 38 -66 127 -102c98 -40 193 -84 193 -203z" />
    <glyph glyph-name="ampersand" unicode="&#x26;" horiz-adv-x="689" 
d="M638 0l-16 -1c-64 0 -103 11 -151 61c-10 -9 -81 -72 -198 -72c-127 0 -224 88 -224 204c0 61 27 106 53 132c25 25 48 41 80 57c-36 46 -66 87 -66 138c0 94 84 161 191 161c102 0 174 -59 174 -148c0 -110 -125 -163 -149 -175l139 -155c16 21 45 89 47 160h95
c-1 -112 -51 -202 -72 -230c40 -40 64 -43 97 -45v-87zM378 530c0 40 -25 65 -71 65c-51 0 -84 -31 -84 -73c0 -24 9 -46 53 -99c79 36 102 67 102 107zM404 127l-164 187c-59 -31 -84 -70 -84 -119c0 -64 52 -114 126 -114c70 0 111 38 122 46z" />
    <glyph glyph-name="quotesingle" unicode="'" horiz-adv-x="218" 
d="M169 667l-14 -245h-92l-14 245h120z" />
    <glyph glyph-name="parenleft" unicode="(" horiz-adv-x="415" 
d="M368 -67l-58 -71c-57 39 -241 175 -241 435c0 259 187 402 241 436l58 -71c-52 -41 -180 -162 -180 -365c0 -204 127 -320 180 -364z" />
    <glyph glyph-name="parenright" unicode=")" horiz-adv-x="415" 
d="M346 297c0 -260 -184 -396 -241 -435l-58 71c53 44 180 160 180 364c0 203 -128 324 -180 365l58 71c54 -34 241 -177 241 -436z" />
    <glyph glyph-name="asterisk" unicode="*" horiz-adv-x="437" 
d="M386 522l-107 -34l75 -100l-64 -45l-71 96l-72 -96l-63 45l74 100l-107 34l25 74l102 -36v107h81v-107l102 36z" />
    <glyph glyph-name="plus" unicode="+" horiz-adv-x="628" 
d="M564 214h-204v-204h-93v204h-203v92h203v204h93v-204h204v-92z" />
    <glyph glyph-name="comma" unicode="," horiz-adv-x="293" 
d="M228 91c0 -112 -71 -188 -127 -228l-62 57c29 36 72 90 72 165v30h116c1 -14 1 -19 1 -24z" />
    <glyph glyph-name="hyphen" unicode="-" horiz-adv-x="494" 
d="M416 214h-338v92h338v-92z" />
    <glyph glyph-name="period" unicode="." horiz-adv-x="264" 
d="M202 63c0 -39 -31 -70 -70 -70s-70 31 -70 70s31 70 70 70s70 -31 70 -70z" />
    <glyph glyph-name="slash" unicode="/" horiz-adv-x="488" 
d="M429 667l-305 -822l-84 31l305 822z" />
    <glyph glyph-name="zero" unicode="0" horiz-adv-x="627" 
d="M580 336c0 -215 -98 -350 -267 -350c-168 0 -266 135 -266 350c0 209 101 346 265 346c167 0 268 -136 268 -346zM466 333c0 167 -58 255 -151 255c-96 0 -154 -88 -154 -256c0 -165 56 -252 150 -252c97 0 155 87 155 253z" />
    <glyph glyph-name="one" unicode="1" horiz-adv-x="627" 
d="M416 0h-114v533l-153 -102l-54 81l231 155h90v-667z" />
    <glyph glyph-name="two" unicode="2" horiz-adv-x="627" 
d="M528 0h-449v86c54 44 148 132 196 180c80 80 126 141 126 208c0 69 -45 112 -116 112c-79 0 -147 -62 -154 -68l-59 68c3 4 81 96 225 96c126 0 219 -77 219 -204c0 -102 -62 -176 -136 -250c-69 -69 -141 -128 -146 -132h294v-96z" />
    <glyph glyph-name="three" unicode="3" horiz-adv-x="627" 
d="M519 193c0 -125 -94 -207 -242 -207c-138 0 -203 65 -209 73l53 73c6 -4 61 -51 144 -51c91 0 140 44 140 109c0 33 -14 57 -30 72c-33 30 -83 34 -143 34h-21v92h15c53 0 105 0 144 40c15 15 24 35 24 62c0 55 -45 97 -117 97c-77 0 -136 -51 -143 -57l-55 66
c3 4 74 86 214 86c124 0 212 -75 212 -184c0 -66 -41 -142 -113 -153c82 -9 127 -77 127 -152z" />
    <glyph glyph-name="four" unicode="4" horiz-adv-x="627" 
d="M569 140h-85v-140h-108v140h-324v82l319 445h113v-434h85v-93zM376 233v293l-204 -293h204z" />
    <glyph glyph-name="five" unicode="5" horiz-adv-x="627" 
d="M527 224c0 -146 -99 -238 -255 -238c-133 0 -199 65 -203 70l54 73c9 -6 63 -47 142 -47c90 0 148 49 148 132c0 73 -45 133 -148 133c-61 0 -105 -28 -110 -31l-39 24v327h388v-94h-282v-149c5 2 35 14 83 14c135 0 222 -87 222 -214z" />
    <glyph glyph-name="six" unicode="6" horiz-adv-x="627" 
d="M562 226c0 -139 -96 -240 -238 -240c-169 0 -255 146 -255 333c0 202 91 363 280 363c129 0 192 -60 197 -65l-49 -74c-7 5 -60 46 -138 46c-131 0 -179 -102 -185 -216c-1 -11 0 -14 0 -22c28 64 103 100 172 100c130 0 216 -96 216 -225zM456 222
c0 79 -47 134 -124 134c-81 0 -135 -60 -135 -137c0 -81 55 -138 132 -138s127 61 127 141z" />
    <glyph glyph-name="seven" unicode="7" horiz-adv-x="627" 
d="M538 579l-265 -579h-123l268 571h-356v96h476v-88z" />
    <glyph glyph-name="eight" unicode="8" horiz-adv-x="627" 
d="M560 187c0 -125 -97 -201 -244 -201c-149 0 -249 76 -249 201c0 77 45 146 121 161c-68 19 -100 79 -100 144c0 115 91 190 225 190c135 0 227 -74 227 -188c0 -71 -37 -128 -99 -146c78 -19 119 -80 119 -161zM433 490c0 57 -43 101 -119 101c-73 0 -119 -45 -119 -100
c0 -59 46 -103 121 -103c72 0 117 43 117 102zM452 191c0 66 -49 110 -137 110c-90 0 -139 -44 -139 -109c0 -67 50 -115 141 -115c87 0 135 47 135 114z" />
    <glyph glyph-name="nine" unicode="9" horiz-adv-x="627" 
d="M558 349c0 -202 -90 -363 -279 -363c-129 0 -193 60 -198 65l50 74c7 -5 60 -47 138 -47c131 0 178 103 184 217c1 11 1 13 1 21c-28 -64 -104 -99 -173 -99c-130 0 -216 96 -216 225c0 139 96 240 238 240c169 0 255 -146 255 -333zM431 449c0 81 -56 138 -133 138
s-127 -61 -127 -141c0 -79 47 -134 124 -134c81 0 136 60 136 137z" />
    <glyph glyph-name="colon" unicode=":" horiz-adv-x="264" 
d="M202 424c0 -39 -31 -70 -70 -70s-70 31 -70 70s31 70 70 70s70 -31 70 -70zM202 63c0 -39 -31 -70 -70 -70s-70 31 -70 70s31 70 70 70s70 -31 70 -70z" />
    <glyph glyph-name="semicolon" unicode=";" horiz-adv-x="293" 
d="M232 424c0 -39 -31 -70 -70 -70s-70 31 -70 70s31 70 70 70s70 -31 70 -70zM228 91c0 -112 -71 -188 -127 -228l-62 57c29 36 72 90 72 165v30h116c1 -14 1 -19 1 -24z" />
    <glyph glyph-name="less" unicode="&#x3c;" horiz-adv-x="628" 
d="M569 88l-37 -83l-473 220v71l473 219l37 -85l-369 -170z" />
    <glyph glyph-name="equal" unicode="=" horiz-adv-x="628" 
d="M576 294h-524v92h524v-92zM576 134h-524v92h524v-92z" />
    <glyph glyph-name="greater" unicode="&#x3e;" horiz-adv-x="628" 
d="M569 225l-473 -220l-37 83l369 172l-369 170l37 85l473 -219v-71z" />
    <glyph glyph-name="question" unicode="?" horiz-adv-x="523" 
d="M466 499c0 -62 -24 -99 -53 -128c-36 -36 -105 -73 -122 -90c-14 -14 -18 -32 -18 -82v-9h-97c-1 10 -4 34 -4 54c0 44 7 67 28 88c32 32 82 55 118 91c18 18 32 39 32 74c0 54 -40 92 -109 92c-71 0 -137 -46 -144 -51l-47 72c5 4 94 72 208 72c122 0 208 -71 208 -183z
M294 63c0 -39 -31 -70 -70 -70s-70 31 -70 70s31 70 70 70s70 -31 70 -70z" />
    <glyph glyph-name="at" unicode="@" horiz-adv-x="798" 
d="M751 411c0 -146 -115 -243 -275 -243c-7 0 -18 1 -27 2l7 43c-8 -6 -52 -46 -109 -46c-72 0 -120 54 -120 129c0 124 101 221 231 221c61 0 109 -20 116 -23l-51 -260c17 3 63 8 107 52c30 30 47 75 47 123c0 115 -98 198 -243 198c-179 0 -308 -126 -308 -301
c0 -152 110 -248 264 -248c116 0 199 58 209 64l37 -56c-8 -5 -96 -79 -255 -79c-190 0 -334 131 -334 321c0 211 168 369 388 369c180 0 316 -112 316 -266zM489 451c-10 2 -19 4 -30 4c-84 0 -156 -73 -156 -156c0 -38 23 -68 56 -68c41 0 81 35 96 48z" />
    <glyph glyph-name="A" unicode="A" horiz-adv-x="633" 
d="M619 0h-120l-53 156h-262l-53 -156h-117l243 667h119zM415 247l-101 297l-100 -297h201z" />
    <glyph glyph-name="B" unicode="B" horiz-adv-x="584" 
d="M534 197c0 -57 -20 -103 -50 -133c-64 -64 -148 -64 -255 -64h-153v667h201c72 0 135 -4 183 -52c37 -37 51 -79 51 -128c0 -111 -81 -139 -101 -145c49 -10 124 -45 124 -145zM398 481c0 26 -9 48 -23 64c-31 34 -86 31 -134 31h-54v-194h48c48 0 103 2 136 32
c17 16 27 38 27 67zM417 196c0 23 -7 46 -27 66c-35 35 -92 32 -152 32h-51v-202h68c69 0 105 6 136 37c17 17 26 44 26 67z" />
    <glyph glyph-name="C" unicode="C" horiz-adv-x="636" 
d="M612 60c-8 -8 -92 -74 -233 -74c-186 0 -330 127 -330 342c0 222 152 354 343 354c135 0 209 -63 216 -71l-51 -78c-8 6 -68 50 -159 50c-128 0 -230 -91 -230 -246c0 -151 86 -250 223 -250c93 0 163 47 172 52z" />
    <glyph glyph-name="D" unicode="D" horiz-adv-x="693" 
d="M644 339c0 -95 -33 -184 -93 -244c-91 -91 -203 -95 -328 -95h-147v667h171c122 0 219 -2 304 -87c58 -58 93 -146 93 -241zM528 342c0 69 -17 128 -64 175c-57 57 -123 59 -219 59h-53v-483h79c84 0 149 16 197 67c40 42 60 106 60 182z" />
    <glyph glyph-name="E" unicode="E" horiz-adv-x="520" 
d="M471 0h-395v667h387v-94h-273v-182h256v-92h-256v-203h281v-96z" />
    <glyph glyph-name="F" unicode="F" horiz-adv-x="499" 
d="M456 573h-265v-182h250v-93h-250v-298h-115v667h380v-94z" />
    <glyph glyph-name="G" unicode="G" horiz-adv-x="686" 
d="M620 42c-16 -8 -103 -57 -243 -57c-185 0 -328 128 -328 343c0 223 151 354 342 354c138 0 211 -63 216 -69l-50 -78c-7 5 -65 48 -160 48c-128 0 -230 -91 -230 -246c0 -151 84 -253 228 -253c70 0 110 18 115 20v143h-134v89h244v-294z" />
    <glyph glyph-name="H" unicode="H" horiz-adv-x="659" 
d="M583 0h-116v300h-275v-300h-116v667h116v-271h275v271h116v-667z" />
    <glyph glyph-name="I" unicode="I" horiz-adv-x="268" 
d="M192 0h-116v667h116v-667z" />
    <glyph glyph-name="J" unicode="J" horiz-adv-x="394" 
d="M325 217c0 -66 1 -135 -49 -185c-28 -28 -73 -46 -129 -46c-81 0 -135 39 -140 43l40 81c13 -7 47 -24 83 -24c26 0 43 6 55 18c23 22 24 55 24 103v460h116v-450z" />
    <glyph glyph-name="K" unicode="K" horiz-adv-x="590" 
d="M578 0h-139l-247 314v-314h-116v667h116v-312l245 312h128l-263 -325z" />
    <glyph glyph-name="L" unicode="L" horiz-adv-x="503" 
d="M460 0h-384v667h116v-571h268v-96z" />
    <glyph glyph-name="M" unicode="M" horiz-adv-x="869" 
d="M806 0h-111l-46 504l-171 -504h-95l-176 504l-41 -504h-103l65 667h126l182 -514l175 514h126z" />
    <glyph glyph-name="N" unicode="N" horiz-adv-x="658" 
d="M582 0h-105l-298 488l3 -488h-106v667h109l294 -487l-3 487h106v-667z" />
    <glyph glyph-name="O" unicode="O" horiz-adv-x="730" 
d="M681 338c0 -212 -130 -352 -316 -352c-185 0 -316 143 -316 349c0 205 130 347 318 347c187 0 314 -143 314 -344zM562 340c0 144 -81 246 -201 246c-117 0 -193 -104 -193 -254c0 -151 85 -248 199 -248c139 0 195 125 195 256z" />
    <glyph glyph-name="P" unicode="P" horiz-adv-x="577" 
d="M524 467c0 -68 -27 -119 -57 -149c-63 -63 -135 -63 -227 -63h-50v-255h-114v667h178c90 0 162 -4 215 -57c36 -36 55 -87 55 -143zM407 465c0 36 -12 65 -31 84c-26 26 -69 27 -123 27h-63v-228h47c72 0 112 3 138 29c19 19 32 48 32 88z" />
    <glyph glyph-name="Q" unicode="Q" horiz-adv-x="726" 
d="M681 -124c-4 -1 -52 -14 -118 -14c-113 0 -201 36 -269 133c-119 21 -245 134 -245 341c0 205 129 346 317 346c187 0 315 -143 315 -344c0 -122 -42 -209 -98 -265c-62 -62 -138 -73 -156 -75c17 -18 57 -50 163 -50c37 0 72 5 77 6zM562 340c0 144 -81 246 -201 246
c-117 0 -193 -104 -193 -254c0 -151 85 -248 199 -248c139 0 195 125 195 256z" />
    <glyph glyph-name="R" unicode="R" horiz-adv-x="581" 
d="M557 0h-122l-80 178c-42 94 -65 97 -137 97h-28v-275h-114v667h160c89 0 162 2 219 -55c32 -32 54 -77 54 -134c0 -45 -13 -87 -44 -118c-25 -25 -59 -44 -104 -50c24 -2 39 -11 59 -31c26 -26 40 -64 57 -101zM394 475c0 31 -12 59 -25 72c-31 31 -72 28 -125 28h-54
v-210h44c56 0 99 3 130 34c19 19 30 48 30 76z" />
    <glyph glyph-name="S" unicode="S" horiz-adv-x="535" 
d="M481 191c0 -121 -85 -206 -229 -206c-126 0 -208 68 -214 75l52 80c13 -8 76 -56 156 -56c76 0 118 39 118 98c0 68 -74 90 -138 118c-52 23 -168 65 -168 193c0 113 90 189 219 189c124 0 194 -67 198 -71l-54 -74c-5 4 -60 50 -136 50c-67 0 -114 -35 -114 -85
c0 -51 37 -67 123 -104c95 -41 187 -86 187 -207z" />
    <glyph glyph-name="T" unicode="T" horiz-adv-x="552" 
d="M523 573h-189v-573h-116v573h-189v94h494v-94z" />
    <glyph glyph-name="U" unicode="U" horiz-adv-x="643" 
d="M574 310c0 -122 -4 -196 -62 -254c-32 -32 -90 -70 -191 -70c-72 0 -142 21 -192 71c-60 60 -60 136 -60 219v391h116v-417c0 -46 -1 -91 34 -126c24 -24 62 -38 106 -38c37 0 72 11 98 37c40 40 37 86 37 187v357h114v-357z" />
    <glyph glyph-name="V" unicode="V" horiz-adv-x="626" 
d="M604 667l-233 -667h-118l-231 667h118l174 -538l177 538h113z" />
    <glyph glyph-name="W" unicode="W" horiz-adv-x="903" 
d="M864 667l-159 -667h-127l-124 538l-130 -538h-128l-157 667h114l110 -533l131 533h126l126 -533l113 533h105z" />
    <glyph glyph-name="X" unicode="X" horiz-adv-x="606" 
d="M578 0h-125l-152 252l-153 -252h-120l215 343l-201 324h127l138 -238l140 238h119l-201 -323z" />
    <glyph glyph-name="Y" unicode="Y" horiz-adv-x="587" 
d="M560 667l-210 -402v-265h-113v265l-210 402h119l154 -307l152 307h108z" />
    <glyph glyph-name="Z" unicode="Z" horiz-adv-x="562" 
d="M517 0h-472v82l324 491h-309v94h448v-85l-318 -486h327v-96z" />
    <glyph glyph-name="bracketleft" unicode="[" horiz-adv-x="362" 
d="M323 -125h-247v792h247v-93h-133v-606h133v-93z" />
    <glyph glyph-name="backslash" unicode="\" horiz-adv-x="488" 
d="M448 -124l-84 -31l-305 822l84 31z" />
    <glyph glyph-name="bracketright" unicode="]" horiz-adv-x="362" 
d="M286 -125h-247v93h133v606h-133v93h247v-792z" />
    <glyph glyph-name="asciicircum" unicode="^" horiz-adv-x="626" 
d="M555 246h-103l-137 300l-137 -300h-107l202 421h83z" />
    <glyph glyph-name="underscore" unicode="_" horiz-adv-x="503" 
d="M505 -125h-507v93h507v-93z" />
    <glyph glyph-name="grave" unicode="`" horiz-adv-x="405" 
d="M332 607l-34 -62l-225 90l43 88z" />
    <glyph glyph-name="a" unicode="a" horiz-adv-x="494" 
d="M437 0h-96v36c-7 -5 -64 -46 -144 -46c-96 0 -157 63 -157 154c0 167 207 171 275 171h18v19c0 31 -3 48 -16 61c-14 14 -34 22 -79 22c-66 0 -125 -34 -132 -38l-38 71c8 7 71 53 179 53c73 0 117 -17 152 -52c38 -38 38 -86 38 -151v-300zM333 108v129h-23
c-69 0 -124 -10 -152 -38c-13 -13 -19 -29 -19 -50c0 -50 39 -74 86 -74c57 0 100 29 108 33z" />
    <glyph glyph-name="b" unicode="b" horiz-adv-x="552" 
d="M511 255c0 -160 -101 -268 -255 -268c-95 0 -180 33 -192 37v699h110v-258c5 3 53 37 125 37c121 0 212 -94 212 -247zM400 254c0 103 -56 157 -123 157c-53 0 -97 -31 -103 -35v-286c7 -2 32 -13 81 -13c89 0 145 70 145 177z" />
    <glyph glyph-name="c" unicode="c" horiz-adv-x="487" 
d="M464 45c-3 -3 -71 -57 -179 -57c-147 0 -244 103 -244 250c0 154 108 264 254 264c97 0 156 -48 162 -56l-45 -69c-8 5 -49 34 -110 34c-95 0 -150 -81 -150 -165c0 -97 53 -166 145 -166c68 0 120 35 124 37z" />
    <glyph glyph-name="d" unicode="d" horiz-adv-x="554" 
d="M490 0h-96v35c-7 -5 -56 -47 -135 -47c-131 0 -218 103 -218 250c0 155 105 264 237 264c63 0 97 -22 102 -25v246h110v-723zM380 113v271c-9 6 -39 26 -86 26c-82 0 -142 -61 -142 -170c0 -100 58 -161 130 -161c53 0 89 28 98 34z" />
    <glyph glyph-name="e" unicode="e" horiz-adv-x="523" 
d="M482 250c0 -16 -2 -31 -2 -39h-331c0 -59 37 -135 139 -135c68 0 120 30 134 37l38 -72c-5 -3 -75 -53 -181 -53c-153 0 -238 109 -238 253c0 153 93 261 231 261c133 0 210 -96 210 -252zM378 293c0 42 -17 125 -104 125c-68 0 -116 -51 -125 -125h229z" />
    <glyph glyph-name="f" unicode="f" horiz-adv-x="413" 
d="M417 693l-42 -72c-5 3 -36 22 -71 22c-20 0 -41 -4 -56 -19c-23 -23 -24 -55 -24 -93v-43h148v-90h-148v-398h-110v398h-82v90h82v42c0 68 8 118 50 160c28 28 68 45 125 45c77 0 125 -38 128 -42z" />
    <glyph glyph-name="g" unicode="g" horiz-adv-x="553" 
d="M489 3c0 -74 -3 -125 -50 -173c-34 -34 -86 -61 -173 -61c-127 0 -201 61 -208 69l46 72c7 -4 69 -49 150 -49c46 0 74 12 93 28c30 26 33 64 33 112v33c-8 -4 -51 -34 -123 -34c-140 0 -216 113 -216 240c0 147 103 262 256 262c98 0 179 -43 192 -49v-450zM380 122v272
c-7 3 -40 18 -85 18c-82 0 -143 -64 -143 -167c0 -98 57 -156 128 -156c52 0 96 30 100 33z" />
    <glyph glyph-name="h" unicode="h" horiz-adv-x="533" 
d="M477 0h-110v267c0 63 -1 98 -23 120c-9 9 -30 21 -61 21c-55 0 -102 -31 -109 -36v-372h-110v723h110v-262s60 41 131 41c60 0 99 -22 122 -45c51 -51 50 -113 50 -184v-273z" />
    <glyph glyph-name="i" unicode="i" horiz-adv-x="237" 
d="M183 634c0 -36 -28 -64 -64 -64s-65 28 -65 64s29 65 65 65s64 -29 64 -65zM174 0h-110v488h110v-488z" />
    <glyph glyph-name="j" unicode="j" horiz-adv-x="237" 
d="M183 634c0 -36 -29 -64 -65 -64s-64 28 -64 64s28 65 64 65s65 -29 65 -65zM174 -34c0 -67 -7 -113 -48 -154c-30 -30 -80 -43 -121 -43c-48 0 -88 19 -93 23l28 79c8 -3 27 -11 49 -11c27 0 43 9 54 20c14 14 21 34 21 78v530h110v-522z" />
    <glyph glyph-name="k" unicode="k" horiz-adv-x="519" 
d="M505 0h-133l-198 246v-246h-110v723h110v-444l193 209h132l-211 -222z" />
    <glyph glyph-name="l" unicode="l" horiz-adv-x="238" 
d="M174 0h-110v723h110v-723z" />
    <glyph glyph-name="m" unicode="m" horiz-adv-x="815" 
d="M758 0h-110v276c0 33 1 83 -20 108c-13 16 -32 24 -60 24c-51 0 -99 -32 -109 -38c7 -20 7 -50 7 -111v-259h-109v269c0 53 0 95 -23 119c-11 12 -29 20 -55 20c-50 0 -98 -29 -105 -34v-374h-110v488h96v-36c8 6 67 50 143 50c69 0 104 -35 120 -55c24 16 83 55 162 55
c55 0 97 -20 121 -44c52 -52 52 -118 52 -214v-244z" />
    <glyph glyph-name="n" unicode="n" horiz-adv-x="534" 
d="M477 0h-110v267c0 63 -1 98 -23 120c-9 9 -30 21 -61 21c-55 0 -102 -31 -109 -36v-372h-110v488h96v-36c8 6 69 50 145 50c60 0 99 -22 122 -45c51 -51 50 -113 50 -184v-273z" />
    <glyph glyph-name="o" unicode="o" horiz-adv-x="563" 
d="M522 247c0 -154 -99 -259 -245 -259c-140 0 -236 103 -236 255c0 153 99 259 245 259c140 0 236 -103 236 -255zM411 243c0 101 -55 168 -131 168c-78 0 -128 -65 -128 -164c0 -101 56 -168 132 -168c80 0 127 64 127 164z" />
    <glyph glyph-name="p" unicode="p" horiz-adv-x="555" 
d="M513 252c0 -158 -107 -264 -237 -264c-59 0 -97 21 -102 24v-227h-110v703h97v-33c6 5 52 47 134 47c131 0 218 -103 218 -250zM402 250c0 100 -58 160 -130 160c-55 0 -95 -31 -98 -34v-271c6 -4 38 -26 86 -26c82 0 142 62 142 171z" />
    <glyph glyph-name="q" unicode="q" horiz-adv-x="553" 
d="M489 -215h-110v241c-6 -4 -47 -38 -123 -38c-124 0 -215 100 -215 246c0 157 102 268 254 268c102 0 185 -39 194 -43v-674zM379 114v282c-7 2 -37 15 -85 15c-85 0 -142 -69 -142 -175c0 -102 62 -157 127 -157c58 0 98 33 100 35z" />
    <glyph glyph-name="r" unicode="r" 
d="M373 491l-25 -85c-5 1 -22 3 -33 3c-89 0 -130 -59 -141 -75v-334h-110v488h96v-62c4 7 61 76 159 76c35 0 51 -10 54 -11z" />
    <glyph glyph-name="s" unicode="s" horiz-adv-x="443" 
d="M393 140c0 -96 -78 -153 -186 -153c-104 0 -172 47 -178 52l39 72c10 -5 62 -38 128 -38c56 0 85 26 85 60c0 38 -39 51 -105 79c-54 23 -129 55 -129 144c0 88 74 146 181 146c101 0 155 -42 158 -44l-38 -70c-5 3 -58 33 -113 33s-78 -27 -78 -55c0 -35 37 -50 87 -71
c68 -28 149 -59 149 -155z" />
    <glyph glyph-name="t" unicode="t" horiz-adv-x="415" 
d="M375 16c-5 -3 -47 -29 -114 -29c-44 0 -89 12 -118 41c-39 39 -37 87 -37 150v220h-85v90h85v137h110v-137h144v-90h-144v-230c0 -44 2 -88 66 -88c35 0 59 11 65 13z" />
    <glyph glyph-name="u" unicode="u" horiz-adv-x="534" 
d="M470 0h-96v37c-8 -6 -69 -50 -145 -50c-60 0 -98 21 -122 45c-51 51 -50 113 -50 184v272h110v-266c0 -63 1 -98 23 -120c10 -10 29 -21 63 -21c57 0 102 33 107 36v371h110v-488z" />
    <glyph glyph-name="v" unicode="v" horiz-adv-x="522" 
d="M501 488l-188 -488h-110l-187 488h115l132 -368l131 368h107z" />
    <glyph glyph-name="w" unicode="w" horiz-adv-x="769" 
d="M730 488l-137 -488h-118l-99 367l-97 -367h-115l-133 488h106l91 -370l99 370h107l98 -370l95 370h103z" />
    <glyph glyph-name="x" unicode="x" horiz-adv-x="537" 
d="M510 0h-125l-122 175l-120 -175h-120l178 246l-168 242h126l112 -159l108 159h116l-164 -239z" />
    <glyph glyph-name="y" unicode="y" horiz-adv-x="546" 
d="M519 488l-193 -502c-35 -92 -58 -134 -92 -168c-24 -24 -66 -49 -135 -49c-54 0 -97 21 -110 27l32 80c7 -3 34 -16 73 -16c31 0 54 10 71 27c26 26 42 72 56 109l-203 492h117l143 -368l132 368h109z" />
    <glyph glyph-name="z" unicode="z" horiz-adv-x="508" 
d="M451 0h-404v77l259 321h-251v90h387v-80l-255 -316h264v-92z" />
    <glyph glyph-name="braceleft" unicode="{" horiz-adv-x="400" 
d="M347 -125h-64c-53 0 -108 9 -146 47c-30 30 -36 68 -36 139v99c0 49 -1 79 -51 83v88c47 6 51 25 51 83v67c0 71 6 109 36 139c38 38 93 47 146 47h64v-89h-33c-45 0 -72 -4 -86 -18c-15 -15 -15 -40 -15 -98v-51c0 -41 -3 -87 -25 -109c-10 -10 -22 -14 -33 -15
c11 -1 23 -5 32 -14c23 -23 26 -68 26 -109v-85c0 -58 0 -82 15 -97c14 -14 41 -18 86 -19l33 -1v-87z" />
    <glyph glyph-name="bar" unicode="|" horiz-adv-x="267" 
d="M191 -125h-115v792h115v-792z" />
    <glyph glyph-name="braceright" unicode="}" horiz-adv-x="400" 
d="M347 243c-50 -4 -51 -34 -51 -83v-99c0 -71 -6 -109 -36 -139c-38 -38 -93 -47 -146 -47h-64v87l33 1c45 1 72 5 86 19c15 15 15 39 15 97v85c0 41 3 86 26 109c9 9 21 13 32 14c-11 1 -23 5 -33 15c-22 22 -25 68 -25 109v51c0 58 0 83 -15 98c-14 14 -41 18 -86 18h-33
v89h64c53 0 108 -9 146 -47c30 -30 36 -68 36 -139v-67c0 -58 4 -77 51 -83v-88z" />
    <glyph glyph-name="asciitilde" unicode="~" horiz-adv-x="627" 
d="M548 267c-18 -25 -62 -77 -129 -77c-60 0 -109 31 -159 47c-16 5 -31 9 -46 9c-37 0 -60 -27 -75 -43l-60 44c8 13 46 79 136 79c83 0 139 -55 202 -55c34 0 55 24 75 45z" />
    <glyph glyph-name="Adieresis" unicode="&#xc4;" horiz-adv-x="633" 
d="M619 0h-120l-53 156h-262l-53 -156h-117l243 667h119zM415 247l-101 297l-100 -297h201zM466 779c0 -34 -27 -62 -61 -62s-62 28 -62 62s28 62 62 62s61 -28 61 -62zM285 779c0 -34 -27 -62 -61 -62s-62 28 -62 62s28 62 62 62s61 -28 61 -62z" />
    <glyph glyph-name="Aring" unicode="&#xc5;" horiz-adv-x="633" 
d="M619 0h-120l-53 156h-262l-53 -156h-117l243 667h119zM415 247l-101 297l-100 -297h201zM420 821c0 -58 -47 -106 -105 -106s-106 48 -106 106c0 59 48 106 106 106c59 0 105 -48 105 -106zM364 821c0 28 -23 50 -50 50s-49 -23 -49 -50s22 -49 49 -49c28 0 50 22 50 49z
" />
    <glyph glyph-name="Ccedilla" unicode="&#xc7;" horiz-adv-x="636" 
d="M612 60c-8 -8 -92 -74 -233 -74h-9l-6 -42c5 2 13 3 22 3c53 0 90 -34 90 -85c0 -59 -51 -93 -102 -93c-40 0 -70 16 -79 24l20 41c3 -2 24 -14 52 -14c40 0 49 24 49 40c0 22 -17 37 -42 37c-19 0 -36 -8 -42 -12l-31 17l16 89c-155 25 -268 147 -268 337
c0 223 152 354 343 354c135 0 209 -63 216 -71l-51 -78c-8 6 -68 50 -159 50c-128 0 -230 -91 -230 -246c0 -151 86 -250 223 -250c93 0 163 47 172 52z" />
    <glyph glyph-name="Eacute" unicode="&#xc9;" horiz-adv-x="520" 
d="M471 0h-395v667h387v-94h-273v-182h256v-92h-256v-203h281v-96zM406 804l-225 -90l-34 62l216 116z" />
    <glyph glyph-name="Ntilde" unicode="&#xd1;" horiz-adv-x="658" 
d="M582 0h-105l-298 488l3 -488h-106v667h109l294 -487l-3 487h106v-667zM493 787c-15 -16 -63 -68 -117 -68c-43 0 -73 29 -109 29c-25 0 -53 -24 -66 -33l-49 54c17 16 63 66 117 66c43 0 72 -28 108 -28c29 0 56 23 68 34z" />
    <glyph glyph-name="Odieresis" unicode="&#xd6;" horiz-adv-x="730" 
d="M681 338c0 -212 -130 -352 -316 -352c-185 0 -316 143 -316 349c0 205 130 347 318 347c187 0 314 -143 314 -344zM562 340c0 144 -81 246 -201 246c-117 0 -193 -104 -193 -254c0 -151 85 -248 199 -248c139 0 195 125 195 256zM518 779c0 -34 -27 -62 -61 -62
s-62 28 -62 62s28 62 62 62s61 -28 61 -62zM337 779c0 -34 -27 -62 -61 -62s-62 28 -62 62s28 62 62 62s61 -28 61 -62z" />
    <glyph glyph-name="Udieresis" unicode="&#xdc;" horiz-adv-x="643" 
d="M574 310c0 -122 -4 -196 -62 -254c-32 -32 -90 -70 -191 -70c-72 0 -142 21 -192 71c-60 60 -60 136 -60 219v391h116v-417c0 -46 -1 -91 34 -126c24 -24 62 -38 106 -38c37 0 72 11 98 37c40 40 37 86 37 187v357h114v-357zM473 779c0 -34 -27 -62 -61 -62
s-62 28 -62 62s28 62 62 62s61 -28 61 -62zM292 779c0 -34 -27 -62 -61 -62s-62 28 -62 62s28 62 62 62s61 -28 61 -62z" />
    <glyph glyph-name="aacute" unicode="&#xe1;" horiz-adv-x="494" 
d="M437 0h-96v36c-7 -5 -64 -46 -144 -46c-96 0 -157 63 -157 154c0 167 207 171 275 171h18v19c0 31 -3 48 -16 61c-14 14 -34 22 -79 22c-66 0 -125 -34 -132 -38l-38 71c8 7 71 53 179 53c73 0 117 -17 152 -52c38 -38 38 -86 38 -151v-300zM333 108v129h-23
c-69 0 -124 -10 -152 -38c-13 -13 -19 -29 -19 -50c0 -50 39 -74 86 -74c57 0 100 29 108 33zM380 635l-225 -90l-34 62l216 116z" />
    <glyph glyph-name="agrave" unicode="&#xe0;" horiz-adv-x="494" 
d="M437 0h-96v36c-7 -5 -64 -46 -144 -46c-96 0 -157 63 -157 154c0 167 207 171 275 171h18v19c0 31 -3 48 -16 61c-14 14 -34 22 -79 22c-66 0 -125 -34 -132 -38l-38 71c8 7 71 53 179 53c73 0 117 -17 152 -52c38 -38 38 -86 38 -151v-300zM333 108v129h-23
c-69 0 -124 -10 -152 -38c-13 -13 -19 -29 -19 -50c0 -50 39 -74 86 -74c57 0 100 29 108 33zM380 607l-34 -62l-225 90l43 88z" />
    <glyph glyph-name="acircumflex" unicode="&#xe2;" horiz-adv-x="494" 
d="M437 0h-96v36c-7 -5 -64 -46 -144 -46c-96 0 -157 63 -157 154c0 167 207 171 275 171h18v19c0 31 -3 48 -16 61c-14 14 -34 22 -79 22c-66 0 -125 -34 -132 -38l-38 71c8 7 71 53 179 53c73 0 117 -17 152 -52c38 -38 38 -86 38 -151v-300zM333 108v129h-23
c-69 0 -124 -10 -152 -38c-13 -13 -19 -29 -19 -50c0 -50 39 -74 86 -74c57 0 100 29 108 33zM410 602l-39 -55l-125 71l-125 -70l-39 58l164 117z" />
    <glyph glyph-name="adieresis" unicode="&#xe4;" horiz-adv-x="494" 
d="M437 0h-96v36c-7 -5 -64 -46 -144 -46c-96 0 -157 63 -157 154c0 167 207 171 275 171h18v19c0 31 -3 48 -16 61c-14 14 -34 22 -79 22c-66 0 -125 -34 -132 -38l-38 71c8 7 71 53 179 53c73 0 117 -17 152 -52c38 -38 38 -86 38 -151v-300zM333 108v129h-23
c-69 0 -124 -10 -152 -38c-13 -13 -19 -29 -19 -50c0 -50 39 -74 86 -74c57 0 100 29 108 33zM399 631c0 -34 -27 -62 -61 -62s-62 28 -62 62s28 62 62 62s61 -28 61 -62zM218 631c0 -34 -27 -62 -61 -62s-62 28 -62 62s28 62 62 62s61 -28 61 -62z" />
    <glyph glyph-name="atilde" unicode="&#xe3;" horiz-adv-x="494" 
d="M437 0h-96v36c-7 -5 -64 -46 -144 -46c-96 0 -157 63 -157 154c0 167 207 171 275 171h18v19c0 31 -3 48 -16 61c-14 14 -34 22 -79 22c-66 0 -125 -34 -132 -38l-38 71c8 7 71 53 179 53c73 0 117 -17 152 -52c38 -38 38 -86 38 -151v-300zM333 108v129h-23
c-69 0 -124 -10 -152 -38c-13 -13 -19 -29 -19 -50c0 -50 39 -74 86 -74c57 0 100 29 108 33zM422 641c-15 -16 -63 -68 -117 -68c-43 0 -73 29 -109 29c-25 0 -53 -24 -66 -33l-49 54c17 16 63 66 117 66c43 0 72 -28 108 -28c29 0 56 23 68 34z" />
    <glyph glyph-name="aring" unicode="&#xe5;" horiz-adv-x="494" 
d="M437 0h-96v36c-7 -5 -64 -46 -144 -46c-96 0 -157 63 -157 154c0 167 207 171 275 171h18v19c0 31 -3 48 -16 61c-14 14 -34 22 -79 22c-66 0 -125 -34 -132 -38l-38 71c8 7 71 53 179 53c73 0 117 -17 152 -52c38 -38 38 -86 38 -151v-300zM333 108v129h-23
c-69 0 -124 -10 -152 -38c-13 -13 -19 -29 -19 -50c0 -50 39 -74 86 -74c57 0 100 29 108 33zM352 646c0 -58 -47 -106 -105 -106s-106 48 -106 106c0 59 48 106 106 106c59 0 105 -48 105 -106zM296 646c0 28 -23 50 -50 50s-49 -23 -49 -50s22 -49 49 -49
c28 0 50 22 50 49z" />
    <glyph glyph-name="ccedilla" unicode="&#xe7;" horiz-adv-x="487" 
d="M464 45c-3 -3 -71 -57 -179 -57h-6l-5 -35c5 2 13 3 22 3c53 0 90 -34 90 -85c0 -59 -51 -93 -102 -93c-40 0 -70 16 -79 24l20 41c3 -2 24 -14 52 -14c40 0 49 24 49 40c0 22 -17 37 -42 37c-19 0 -36 -8 -42 -12l-31 17l14 83c-113 24 -184 118 -184 244
c0 154 108 264 254 264c97 0 156 -48 162 -56l-45 -69c-8 5 -49 34 -110 34c-95 0 -150 -81 -150 -165c0 -97 53 -166 145 -166c68 0 120 35 124 37z" />
    <glyph glyph-name="eacute" unicode="&#xe9;" horiz-adv-x="523" 
d="M482 250c0 -16 -2 -31 -2 -39h-331c0 -59 37 -135 139 -135c68 0 120 30 134 37l38 -72c-5 -3 -75 -53 -181 -53c-153 0 -238 109 -238 253c0 153 93 261 231 261c133 0 210 -96 210 -252zM378 293c0 42 -17 125 -104 125c-68 0 -116 -51 -125 -125h229zM391 635
l-225 -90l-34 62l216 116z" />
    <glyph glyph-name="egrave" unicode="&#xe8;" horiz-adv-x="523" 
d="M482 250c0 -16 -2 -31 -2 -39h-331c0 -59 37 -135 139 -135c68 0 120 30 134 37l38 -72c-5 -3 -75 -53 -181 -53c-153 0 -238 109 -238 253c0 153 93 261 231 261c133 0 210 -96 210 -252zM378 293c0 42 -17 125 -104 125c-68 0 -116 -51 -125 -125h229zM397 607l-34 -62
l-225 90l43 88z" />
    <glyph glyph-name="ecircumflex" unicode="&#xea;" horiz-adv-x="523" 
d="M482 250c0 -16 -2 -31 -2 -39h-331c0 -59 37 -135 139 -135c68 0 120 30 134 37l38 -72c-5 -3 -75 -53 -181 -53c-153 0 -238 109 -238 253c0 153 93 261 231 261c133 0 210 -96 210 -252zM378 293c0 42 -17 125 -104 125c-68 0 -116 -51 -125 -125h229zM435 602l-39 -55
l-125 71l-125 -70l-39 58l164 117z" />
    <glyph glyph-name="edieresis" unicode="&#xeb;" horiz-adv-x="523" 
d="M482 250c0 -16 -2 -31 -2 -39h-331c0 -59 37 -135 139 -135c68 0 120 30 134 37l38 -72c-5 -3 -75 -53 -181 -53c-153 0 -238 109 -238 253c0 153 93 261 231 261c133 0 210 -96 210 -252zM378 293c0 42 -17 125 -104 125c-68 0 -116 -51 -125 -125h229zM422 631
c0 -34 -27 -62 -61 -62s-62 28 -62 62s28 62 62 62s61 -28 61 -62zM241 631c0 -34 -27 -62 -61 -62s-62 28 -62 62s28 62 62 62s61 -28 61 -62z" />
    <glyph glyph-name="iacute" unicode="&#xed;" horiz-adv-x="237" 
d="M248 635l-225 -90l-34 62l216 116zM174 0h-110v488h110v-488z" />
    <glyph glyph-name="igrave" unicode="&#xec;" horiz-adv-x="237" 
d="M248 607l-34 -62l-225 90l43 88zM173 0h-110v488h110v-488z" />
    <glyph glyph-name="icircumflex" unicode="&#xee;" horiz-adv-x="237" 
d="M174 0h-110v488h110v-488zM283 602l-39 -55l-125 71l-125 -70l-39 58l164 117z" />
    <glyph glyph-name="idieresis" unicode="&#xef;" horiz-adv-x="237" 
d="M271 631c0 -34 -27 -62 -61 -62s-62 28 -62 62s28 62 62 62s61 -28 61 -62zM90 631c0 -34 -27 -62 -61 -62s-62 28 -62 62s28 62 62 62s61 -28 61 -62zM174 0h-110v488h110v-488z" />
    <glyph glyph-name="ntilde" unicode="&#xf1;" horiz-adv-x="534" 
d="M477 0h-110v267c0 63 -1 98 -23 120c-9 9 -30 21 -61 21c-55 0 -102 -31 -109 -36v-372h-110v488h96v-36c8 6 69 50 145 50c60 0 99 -22 122 -45c51 -51 50 -113 50 -184v-273zM445 641c-15 -16 -63 -68 -117 -68c-43 0 -73 29 -109 29c-25 0 -53 -24 -66 -33l-49 54
c17 16 63 66 117 66c43 0 72 -28 108 -28c29 0 56 23 68 34z" />
    <glyph glyph-name="oacute" unicode="&#xf3;" horiz-adv-x="563" 
d="M522 247c0 -154 -99 -259 -245 -259c-140 0 -236 103 -236 255c0 153 99 259 245 259c140 0 236 -103 236 -255zM411 243c0 101 -55 168 -131 168c-78 0 -128 -65 -128 -164c0 -101 56 -168 132 -168c80 0 127 64 127 164zM412 635l-225 -90l-34 62l216 116z" />
    <glyph glyph-name="ograve" unicode="&#xf2;" horiz-adv-x="563" 
d="M522 247c0 -154 -99 -259 -245 -259c-140 0 -236 103 -236 255c0 153 99 259 245 259c140 0 236 -103 236 -255zM411 243c0 101 -55 168 -131 168c-78 0 -128 -65 -128 -164c0 -101 56 -168 132 -168c80 0 127 64 127 164zM410 607l-34 -62l-225 90l43 88z" />
    <glyph glyph-name="ocircumflex" unicode="&#xf4;" horiz-adv-x="563" 
d="M522 247c0 -154 -99 -259 -245 -259c-140 0 -236 103 -236 255c0 153 99 259 245 259c140 0 236 -103 236 -255zM411 243c0 101 -55 168 -131 168c-78 0 -128 -65 -128 -164c0 -101 56 -168 132 -168c80 0 127 64 127 164zM450 602l-39 -55l-125 71l-125 -70l-39 58
l164 117z" />
    <glyph glyph-name="odieresis" unicode="&#xf6;" horiz-adv-x="563" 
d="M522 247c0 -154 -99 -259 -245 -259c-140 0 -236 103 -236 255c0 153 99 259 245 259c140 0 236 -103 236 -255zM411 243c0 101 -55 168 -131 168c-78 0 -128 -65 -128 -164c0 -101 56 -168 132 -168c80 0 127 64 127 164zM435 631c0 -34 -27 -62 -61 -62s-62 28 -62 62
s28 62 62 62s61 -28 61 -62zM254 631c0 -34 -27 -62 -61 -62s-62 28 -62 62s28 62 62 62s61 -28 61 -62z" />
    <glyph glyph-name="otilde" unicode="&#xf5;" horiz-adv-x="563" 
d="M522 247c0 -154 -99 -259 -245 -259c-140 0 -236 103 -236 255c0 153 99 259 245 259c140 0 236 -103 236 -255zM411 243c0 101 -55 168 -131 168c-78 0 -128 -65 -128 -164c0 -101 56 -168 132 -168c80 0 127 64 127 164zM447 641c-15 -16 -63 -68 -117 -68
c-43 0 -73 29 -109 29c-25 0 -53 -24 -66 -33l-49 54c17 16 63 66 117 66c43 0 72 -28 108 -28c29 0 56 23 68 34z" />
    <glyph glyph-name="uacute" unicode="&#xfa;" horiz-adv-x="534" 
d="M470 0h-96v37c-8 -6 -69 -50 -145 -50c-60 0 -98 21 -122 45c-51 51 -50 113 -50 184v272h110v-266c0 -63 1 -98 23 -120c10 -10 29 -21 63 -21c57 0 102 33 107 36v371h110v-488zM399 635l-225 -90l-34 62l216 116z" />
    <glyph glyph-name="ugrave" unicode="&#xf9;" horiz-adv-x="534" 
d="M387 607l-34 -62l-225 90l43 88zM470 0h-96v37c-8 -6 -69 -50 -145 -50c-60 0 -98 21 -122 45c-51 51 -50 113 -50 184v272h110v-266c0 -63 1 -98 23 -120c10 -10 29 -21 63 -21c57 0 102 33 107 36v371h110v-488z" />
    <glyph glyph-name="ucircumflex" unicode="&#xfb;" horiz-adv-x="534" 
d="M470 0h-96v37c-8 -6 -69 -50 -145 -50c-60 0 -98 21 -122 45c-51 51 -50 113 -50 184v272h110v-266c0 -63 1 -98 23 -120c10 -10 29 -21 63 -21c57 0 102 33 107 36v371h110v-488zM423 602l-39 -55l-125 71l-125 -70l-39 58l164 117z" />
    <glyph glyph-name="udieresis" unicode="&#xfc;" horiz-adv-x="534" 
d="M470 0h-96v37c-8 -6 -69 -50 -145 -50c-60 0 -98 21 -122 45c-51 51 -50 113 -50 184v272h110v-266c0 -63 1 -98 23 -120c10 -10 29 -21 63 -21c57 0 102 33 107 36v371h110v-488zM410 631c0 -34 -27 -62 -61 -62c-35 0 -62 28 -62 62s27 62 62 62c34 0 61 -28 61 -62z
M229 631c0 -34 -27 -62 -61 -62c-35 0 -62 28 -62 62s27 62 62 62c34 0 61 -28 61 -62z" />
    <glyph glyph-name="dagger" unicode="&#x2020;" horiz-adv-x="611" 
d="M534 343h-176l-8 -468h-90l-9 468h-174v96h172l-4 228h119l-4 -228h174v-96z" />
    <glyph glyph-name="degree" unicode="&#xb0;" horiz-adv-x="625" 
d="M464 533c0 -84 -68 -152 -152 -152s-151 68 -151 152s67 151 151 151s152 -67 152 -151zM392 534c0 46 -36 83 -80 83s-79 -37 -79 -83s35 -82 79 -82s80 36 80 82z" />
    <glyph glyph-name="cent" unicode="&#xa2;" horiz-adv-x="627" 
d="M544 55c-2 -3 -58 -45 -138 -54v-105h-83v105c-123 18 -202 115 -202 247c0 135 83 236 202 259v98h83v-95c75 -7 127 -47 131 -54l-45 -69c-8 5 -49 34 -110 34c-95 0 -151 -81 -151 -165c0 -97 54 -166 146 -166c68 0 120 35 124 37z" />
    <glyph glyph-name="sterling" unicode="&#xa3;" horiz-adv-x="627" 
d="M585 607l-54 -67c-13 9 -61 48 -128 48c-77 0 -126 -50 -126 -140c0 -41 6 -76 7 -87h194v-89h-184c1 -7 2 -27 2 -38c0 -55 -13 -110 -48 -138h324v-96h-482v87c71 14 96 61 96 136c0 20 -2 39 -3 49h-91v89h82c-4 29 -7 58 -7 87c0 146 87 234 230 234
c121 0 182 -67 188 -75z" />
    <glyph glyph-name="section" unicode="&#xa7;" horiz-adv-x="622" 
d="M511 287c0 -59 -30 -107 -96 -138c49 -28 74 -70 74 -123c0 -98 -73 -172 -199 -172c-107 0 -170 50 -178 56l43 73c8 -5 66 -41 129 -41c72 0 103 35 103 75c0 18 -7 33 -20 46c-39 39 -133 49 -192 106c-26 25 -44 59 -44 100c0 54 22 105 97 133
c-40 27 -76 62 -76 124c0 90 69 157 184 157c100 0 154 -47 160 -52l-41 -68c-7 4 -57 36 -113 36c-63 0 -88 -28 -88 -63c0 -17 7 -31 18 -42c38 -37 146 -57 199 -110c26 -26 40 -55 40 -97zM414 272c0 13 -4 27 -18 41c-20 21 -69 42 -96 53c-32 -11 -72 -35 -72 -81
c0 -18 6 -30 17 -41c20 -20 57 -38 97 -54c30 13 72 42 72 82z" />
    <glyph glyph-name="bullet" unicode="&#x2022;" horiz-adv-x="479" 
d="M343 270c0 -58 -46 -104 -104 -104c-57 0 -104 46 -104 104c0 57 47 104 104 104c58 0 104 -47 104 -104z" />
    <glyph glyph-name="paragraph" unicode="&#xb6;" horiz-adv-x="704" 
d="M640 573h-71v-698h-95v698h-76v-698h-95v384c-46 1 -137 2 -193 58c-30 30 -58 72 -58 152c0 56 20 102 56 138c54 54 130 60 260 60h272v-94z" />
    <glyph glyph-name="germandbls" unicode="&#xdf;" horiz-adv-x="562" 
d="M521 163c0 -109 -80 -174 -188 -174c-69 0 -108 21 -118 27l33 84c9 -3 35 -17 74 -17c59 0 90 32 90 76c0 20 -8 34 -19 48c-28 35 -80 58 -114 93c-18 18 -26 40 -26 62c0 78 108 105 108 195c0 48 -31 85 -87 85c-27 0 -49 -8 -67 -27c-32 -33 -35 -91 -35 -152v-463
h-108v481c0 84 12 151 56 195c37 37 88 59 152 59c118 0 199 -72 199 -178c0 -121 -103 -150 -103 -183c0 -6 3 -11 9 -17c33 -34 144 -72 144 -194z" />
    <glyph glyph-name="registered" unicode="&#xae;" horiz-adv-x="539" 
d="M492 459c0 -124 -98 -221 -222 -221s-223 97 -223 221s99 223 223 223s222 -99 222 -223zM441 459c0 95 -76 170 -171 170s-171 -75 -171 -170s76 -168 171 -168s171 73 171 168zM371 342h-45l-25 55c-17 37 -24 41 -56 41h-9v-96h-44v239h67c32 0 57 0 76 -19
c12 -12 19 -28 19 -48c0 -16 -5 -30 -15 -41c-9 -9 -22 -17 -38 -19c8 0 15 -4 20 -9c7 -7 12 -19 19 -34zM308 511c0 9 -3 16 -7 20c-9 9 -22 10 -36 10h-29v-63h19c17 0 33 0 44 11c6 6 9 14 9 22z" />
    <glyph glyph-name="copyright" unicode="&#xa9;" horiz-adv-x="784" 
d="M738 333c0 -190 -155 -345 -345 -345s-346 155 -346 345s156 346 346 346c193 0 345 -161 345 -346zM661 333c0 149 -121 268 -268 268c-148 0 -269 -122 -269 -268c0 -148 121 -267 269 -267s268 119 268 267zM531 191c-4 -5 -55 -42 -130 -42c-108 0 -180 76 -180 185
c0 114 80 195 188 195c72 0 110 -33 117 -40l-31 -48c-17 11 -40 26 -80 26c-74 0 -116 -63 -116 -127c0 -73 41 -128 113 -128c46 0 81 23 90 28z" />
    <glyph glyph-name="trademark" unicode="&#x2122;" horiz-adv-x="799" 
d="M758 313h-72l-21 228l-78 -228h-59l-80 228l-19 -228h-68l35 354h77l87 -245l84 245h77zM321 604h-102v-291h-75v291h-103v63h280v-63z" />
    <glyph glyph-name="acute" unicode="&#xb4;" horiz-adv-x="405" 
d="M332 635l-225 -90l-34 62l216 116z" />
    <glyph glyph-name="dieresis" unicode="&#xa8;" horiz-adv-x="405" 
d="M355 631c0 -34 -27 -62 -61 -62s-62 28 -62 62s28 62 62 62s61 -28 61 -62zM174 631c0 -34 -27 -62 -61 -62s-62 28 -62 62s28 62 62 62s61 -28 61 -62z" />
    <glyph glyph-name="notequal" unicode="&#x2260;" horiz-adv-x="628" 
d="M575 134h-289l-70 -110l-65 41l43 69h-141v92h195l41 68h-236v92h291l68 106l65 -41l-40 -65h138v-92h-193l-41 -68h234v-92z" />
    <glyph glyph-name="AE" unicode="&#xc6;" horiz-adv-x="894" 
d="M845 0h-395v158h-230l-86 -158h-120l386 667h437v-94h-273v-182h256v-92h-256v-203h281v-96zM450 254v323l-179 -323h179z" />
    <glyph glyph-name="Oslash" unicode="&#xd8;" horiz-adv-x="730" 
d="M681 338c0 -212 -130 -352 -316 -352c-56 0 -94 12 -126 25l-49 -88l-81 44l54 92c-69 55 -114 159 -114 276c0 205 130 347 318 347c51 0 94 -10 130 -26l49 86l81 -44l-52 -93c67 -61 106 -155 106 -267zM562 340c0 98 -38 155 -45 163l-227 -402c7 -5 42 -17 77 -17
c139 0 195 125 195 256zM449 565c-19 10 -48 21 -88 21c-117 0 -193 -104 -193 -254c0 -95 34 -155 50 -172z" />
    <glyph glyph-name="infinity" unicode="&#x221e;" horiz-adv-x="841" 
d="M763 282c0 -84 -70 -153 -156 -153c-82 0 -151 65 -185 97c-33 -32 -104 -100 -187 -100c-85 0 -156 69 -156 150c0 86 67 151 155 151c85 0 155 -61 187 -93c32 33 98 96 190 96c88 0 152 -62 152 -148zM680 283c0 39 -32 69 -76 69c-57 0 -106 -51 -126 -71
c19 -17 77 -68 129 -68c40 0 73 29 73 70zM365 280c-23 22 -71 69 -128 69c-44 0 -74 -30 -74 -69s33 -70 72 -70c54 0 110 52 130 70z" />
    <glyph glyph-name="plusminus" unicode="&#xb1;" horiz-adv-x="628" 
d="M564 334h-204v-201h-93v201h-203v92h203v202h93v-202h204v-92zM564 0h-500v90h500v-90z" />
    <glyph glyph-name="lessequal" unicode="&#x2264;" horiz-adv-x="628" 
d="M569 210l-37 -83l-473 220v71l473 219l37 -85l-369 -170zM568 0h-509v90h509v-90z" />
    <glyph glyph-name="greaterequal" unicode="&#x2265;" horiz-adv-x="628" 
d="M569 347l-473 -220l-37 83l369 172l-369 170l37 85l473 -219v-71zM569 0h-509v90h509v-90z" />
    <glyph glyph-name="yen" unicode="&#xa5;" horiz-adv-x="627" 
d="M578 667l-171 -305h106v-76h-144v-62h143v-75h-143v-149h-111v149h-148v75h148v62h-149v76h107l-167 305h119l150 -296l152 296h108z" />
    <glyph glyph-name="mu" unicode="&#x3bc;" horiz-adv-x="541" 
d="M477 0h-96v37c-8 -6 -69 -50 -145 -50c-44 0 -65 18 -75 26v-138h-97v613h110v-266c0 -63 1 -98 23 -120c10 -10 29 -21 63 -21c57 0 102 33 107 36v371h110v-488z" />
    <glyph glyph-name="partialdiff" unicode="&#x2202;" horiz-adv-x="620" 
d="M541 347c0 -222 -87 -361 -239 -361c-133 0 -223 104 -223 255c0 150 86 261 225 261c65 0 111 -29 116 -32c-5 86 -59 170 -162 170c-56 0 -115 -34 -125 -40l-44 76c10 7 84 59 174 59c169 0 278 -130 278 -388zM429 331c0 9 -1 34 -2 41c-6 4 -49 37 -113 37
c-76 0 -125 -64 -125 -166c0 -100 46 -164 112 -164c89 0 128 104 128 252z" />
    <glyph glyph-name="summation" unicode="&#x2211;" horiz-adv-x="566" 
d="M488 0h-409v77l173 262l-173 250v78h409v-96h-261l151 -226l-163 -249h273v-96z" />
    <glyph glyph-name="product" unicode="&#x220f;" horiz-adv-x="794" 
d="M715 573h-78v-573h-116v573h-248v-573h-116v573h-78v94h636v-94z" />
    <glyph glyph-name="pi" unicode="&#x3c0;" horiz-adv-x="678" 
d="M599 5c-9 -3 -37 -12 -76 -12c-38 0 -66 10 -85 28c-33 32 -30 89 -30 142v235h-150v-398h-110v398h-69v90h513v-90h-74v-231c0 -37 0 -59 11 -71c9 -10 22 -12 37 -12c9 0 24 2 33 3v-82z" />
    <glyph glyph-name="integral" unicode="&#x222b;" horiz-adv-x="599" 
d="M521 707l-31 -78c-9 3 -31 13 -57 13c-19 0 -39 -3 -55 -19c-17 -17 -23 -38 -23 -82v-576c0 -61 -7 -110 -50 -153c-29 -29 -80 -43 -121 -43c-54 0 -100 23 -105 28l31 78c9 -3 31 -13 57 -13c19 0 39 3 55 19c17 17 23 38 23 82v576c0 61 7 110 50 153
c29 29 80 43 121 43c54 0 100 -23 105 -28z" />
    <glyph glyph-name="ordfeminine" unicode="&#xaa;" horiz-adv-x="439" 
d="M360 307h-75v24c-30 -20 -67 -32 -103 -32c-72 0 -117 48 -117 116c0 126 155 128 204 128h10v12c0 23 -3 35 -11 43c-9 9 -23 15 -56 15c-34 0 -69 -11 -98 -28l-29 56c8 7 54 41 134 41c54 0 87 -13 113 -39c22 -22 27 -49 28 -79v-34v-223zM279 390v91h-14
c-50 0 -91 -7 -110 -27c-9 -9 -13 -20 -13 -35c0 -35 27 -52 61 -52c28 0 52 9 76 23z" />
    <glyph glyph-name="ordmasculine" unicode="&#xba;" horiz-adv-x="441" 
d="M400 492c0 -115 -74 -192 -183 -192c-104 0 -176 77 -176 190c0 114 74 192 183 192c104 0 176 -77 176 -190zM313 490c0 73 -40 121 -94 121c-55 0 -91 -47 -91 -119c0 -73 40 -121 94 -121c57 0 91 46 91 119z" />
    <glyph glyph-name="Omega" unicode="&#x3a9;" horiz-adv-x="829" 
d="M750 0h-276v83c46 19 144 83 144 252c0 153 -83 251 -204 251s-204 -98 -204 -251c0 -169 98 -233 145 -252v-83h-276v95h130c-37 23 -114 102 -114 253c0 197 129 334 319 334c189 0 319 -137 319 -334c0 -147 -75 -230 -113 -253h130v-95z" />
    <glyph glyph-name="ae" unicode="&#xe6;" horiz-adv-x="817" 
d="M776 250c0 -16 -2 -31 -2 -39h-331c0 -59 37 -135 139 -135c68 0 120 30 134 37l38 -72c-5 -3 -75 -53 -181 -53c-107 0 -156 52 -169 67c-38 -33 -103 -67 -194 -67c-94 0 -169 50 -169 155c0 168 210 155 273 155h20c0 22 1 73 -20 94c-15 15 -31 25 -75 25
c-66 0 -125 -34 -132 -38l-38 71c8 7 71 53 179 53c54 0 121 -15 158 -66c6 6 59 65 160 65c133 0 210 -96 210 -252zM672 293c0 42 -17 125 -104 125c-68 0 -116 -51 -125 -125h229zM361 117c-10 18 -25 53 -24 103h-28c-87 0 -169 -5 -169 -75c0 -51 45 -71 88 -71
c66 0 119 32 133 43z" />
    <glyph glyph-name="oslash" unicode="&#xf8;" horiz-adv-x="563" 
d="M522 247c0 -154 -99 -259 -245 -259c-49 0 -80 12 -86 15l-40 -69l-70 39l41 70c-46 41 -81 107 -81 200c0 153 99 259 245 259c48 0 77 -11 94 -18l39 67l69 -40l-41 -70c49 -46 75 -114 75 -194zM416 243c0 52 -12 91 -23 105l-156 -267c12 -5 27 -9 47 -9
c83 0 132 67 132 171zM334 406c-13 7 -31 12 -54 12c-81 0 -133 -68 -133 -171c0 -52 11 -84 29 -113z" />
    <glyph glyph-name="questiondown" unicode="&#xbf;" horiz-adv-x="523" 
d="M369 432c0 -39 -31 -70 -70 -70s-70 31 -70 70s31 70 70 70s70 -31 70 -70zM473 -115c-5 -4 -94 -72 -208 -72c-122 0 -208 71 -208 183c0 62 24 99 53 128c36 36 105 73 122 90c14 14 18 32 18 82v9h97c1 -10 4 -34 4 -54c0 -44 -7 -67 -28 -88
c-32 -32 -82 -55 -118 -91c-18 -18 -32 -39 -32 -74c0 -54 40 -92 109 -92c71 0 137 46 144 51z" />
    <glyph glyph-name="exclamdown" unicode="&#xa1;" horiz-adv-x="355" 
d="M248 432c0 -39 -31 -70 -70 -70s-70 31 -70 70s31 70 70 70s70 -31 70 -70zM241 -172h-127l18 477h92z" />
    <glyph glyph-name="logicalnot" unicode="&#xac;" horiz-adv-x="628" 
d="M568 163h-100v144h-408v93h508v-237z" />
    <glyph glyph-name="radical" unicode="&#x221a;" horiz-adv-x="816" 
d="M738 706l-266 -706h-102l-145 373l-118 -40l-28 84l212 73l133 -350l220 599z" />
    <glyph glyph-name="florin" unicode="&#x192;" horiz-adv-x="627" 
d="M580 650l-31 -81c-10 4 -43 17 -73 17c-61 0 -74 -34 -93 -124l-21 -101h146l-19 -91h-147l-55 -280c-11 -57 -25 -134 -64 -173c-31 -31 -73 -48 -122 -48c-67 0 -114 28 -122 33l33 82c9 -4 38 -17 70 -17c24 0 42 7 53 18c19 19 27 52 40 117l55 268h-126l19 91h127
l22 112c14 73 27 125 61 159c36 36 80 50 126 50c65 0 114 -28 121 -32z" />
    <glyph glyph-name="approxequal" unicode="&#x2248;" horiz-adv-x="627" 
d="M548 354c-18 -25 -62 -77 -129 -77c-60 0 -109 31 -159 47c-16 5 -31 9 -46 9c-37 0 -60 -27 -75 -43l-60 44c8 13 46 79 136 79c83 0 139 -55 202 -55c34 0 55 24 75 45zM548 186c-18 -25 -62 -77 -129 -77c-60 0 -109 31 -159 47c-16 5 -31 9 -46 9
c-37 0 -60 -27 -75 -43l-60 44c8 13 46 79 136 79c83 0 139 -55 202 -55c34 0 55 24 75 45z" />
    <glyph glyph-name="Delta" unicode="&#x394;" horiz-adv-x="715" 
d="M636 0h-557l231 667h96zM497 92l-142 417l-143 -417h285z" />
    <glyph glyph-name="guillemotleft" unicode="&#xab;" horiz-adv-x="517" 
d="M455 91l-68 -40l-145 194l145 194l68 -46l-86 -148zM275 91l-68 -40l-145 194l145 194l68 -46l-86 -148z" />
    <glyph glyph-name="guillemotright" unicode="&#xbb;" horiz-adv-x="517" 
d="M455 245l-145 -194l-68 40l86 154l-86 148l68 46zM275 245l-145 -194l-68 40l86 154l-86 148l68 46z" />
    <glyph glyph-name="ellipsis" unicode="&#x2026;" horiz-adv-x="794" 
d="M732 63c0 -39 -31 -70 -70 -70s-70 31 -70 70s31 70 70 70s70 -31 70 -70zM467 63c0 -39 -31 -70 -70 -70s-70 31 -70 70s31 70 70 70s70 -31 70 -70zM202 63c0 -39 -31 -70 -70 -70s-70 31 -70 70s31 70 70 70s70 -31 70 -70z" />
    <glyph glyph-name="Agrave" unicode="&#xc0;" horiz-adv-x="633" 
d="M619 0h-120l-53 156h-262l-53 -156h-117l243 667h119zM415 247l-101 297l-100 -297h201zM444 776l-34 -62l-225 90l43 88z" />
    <glyph glyph-name="Atilde" unicode="&#xc3;" horiz-adv-x="633" 
d="M619 0h-120l-53 156h-262l-53 -156h-117l243 667h119zM415 247l-101 297l-100 -297h201zM484 787c-15 -16 -63 -68 -117 -68c-43 0 -73 29 -109 29c-25 0 -53 -24 -66 -33l-49 54c17 16 63 66 117 66c43 0 72 -28 108 -28c29 0 56 23 68 34z" />
    <glyph glyph-name="Otilde" unicode="&#xd5;" horiz-adv-x="730" 
d="M681 338c0 -212 -130 -352 -316 -352c-185 0 -316 143 -316 349c0 205 130 347 318 347c187 0 314 -143 314 -344zM562 340c0 144 -81 246 -201 246c-117 0 -193 -104 -193 -254c0 -151 85 -248 199 -248c139 0 195 125 195 256zM532 787c-15 -16 -63 -68 -117 -68
c-43 0 -73 29 -109 29c-25 0 -53 -24 -66 -33l-49 54c17 16 63 66 117 66c43 0 72 -28 108 -28c29 0 56 23 68 34z" />
    <glyph glyph-name="OE" unicode="&#x152;" horiz-adv-x="901" 
d="M852 0h-406c-122 0 -219 2 -304 87c-58 58 -93 146 -93 241s33 184 93 244c91 91 203 95 328 95h374v-94h-273v-182h256v-92h-256v-203h281v-96zM457 91v483h-35c-84 0 -149 -16 -197 -67c-40 -42 -60 -106 -60 -182c0 -69 17 -128 64 -175c57 -57 123 -59 219 -59h9z
" />
    <glyph glyph-name="oe" unicode="&#x153;" horiz-adv-x="899" 
d="M858 250c0 -16 -2 -31 -2 -39h-331c0 -59 37 -135 139 -135c68 0 120 30 134 37l38 -72c-5 -3 -75 -53 -181 -53c-122 0 -174 67 -188 86c-14 -17 -71 -86 -190 -86c-140 0 -236 103 -236 255c0 153 99 259 245 259c119 0 173 -72 184 -87c13 15 66 87 178 87
c133 0 210 -96 210 -252zM754 293c0 42 -17 125 -104 125c-68 0 -116 -51 -125 -125h229zM411 243c0 101 -55 168 -131 168c-78 0 -128 -65 -128 -164c0 -101 56 -168 132 -168c80 0 127 64 127 164z" />
    <glyph glyph-name="endash" unicode="&#x2013;" horiz-adv-x="662" 
d="M584 214h-506v92h506v-92z" />
    <glyph glyph-name="emdash" unicode="&#x2014;" horiz-adv-x="992" 
d="M914 214h-836v92h836v-92z" />
    <glyph glyph-name="quotedblleft" unicode="&#x201c;" horiz-adv-x="439" 
d="M400 627c-14 -15 -72 -64 -72 -179h-117c0 97 40 155 85 200c11 11 29 27 41 35zM228 627c-14 -15 -72 -64 -72 -179h-117c0 97 40 155 85 200c11 11 29 27 41 35z" />
    <glyph glyph-name="quotedblright" unicode="&#x201d;" horiz-adv-x="439" 
d="M400 667c0 -97 -40 -155 -85 -200c-11 -11 -29 -27 -41 -35l-63 56c14 15 72 64 72 179h117zM228 667c0 -97 -40 -155 -85 -200c-11 -11 -29 -27 -41 -35l-63 56c14 15 72 64 72 179h117z" />
    <glyph glyph-name="quoteleft" unicode="&#x2018;" horiz-adv-x="267" 
d="M228 627c-14 -15 -72 -64 -72 -179h-117c0 97 40 155 85 200c11 11 29 27 41 35z" />
    <glyph glyph-name="quoteright" unicode="&#x2019;" horiz-adv-x="267" 
d="M228 667c0 -97 -40 -155 -85 -200c-11 -11 -29 -27 -41 -35l-63 56c14 15 72 64 72 179h117z" />
    <glyph glyph-name="divide" unicode="&#xf7;" horiz-adv-x="628" 
d="M384 454c0 -39 -31 -70 -70 -70s-70 31 -70 70s31 70 70 70s70 -31 70 -70zM576 214h-524v92h524v-92zM384 63c0 -39 -31 -70 -70 -70s-70 31 -70 70s31 70 70 70s70 -31 70 -70z" />
    <glyph glyph-name="lozenge" unicode="&#x25ca;" horiz-adv-x="663" 
d="M585 334l-218 -334h-74l-214 334l214 333h74zM478 334l-148 223l-142 -223l142 -225z" />
    <glyph glyph-name="ydieresis" unicode="&#xff;" horiz-adv-x="546" 
d="M519 488l-193 -502c-35 -92 -58 -134 -92 -168c-24 -24 -66 -49 -135 -49c-54 0 -97 21 -110 27l32 80c7 -3 34 -16 73 -16c31 0 54 10 71 27c26 26 42 72 56 109l-203 492h117l143 -368l132 368h109zM430 631c0 -34 -27 -62 -61 -62s-62 28 -62 62s28 62 62 62
s61 -28 61 -62zM249 631c0 -34 -27 -62 -61 -62s-62 28 -62 62s28 62 62 62s61 -28 61 -62z" />
    <glyph glyph-name="Ydieresis" unicode="&#x178;" horiz-adv-x="587" 
d="M560 667l-210 -402v-265h-113v265l-210 402h119l154 -307l152 307h108zM452 779c0 -34 -27 -62 -61 -62s-62 28 -62 62s28 62 62 62s61 -28 61 -62zM271 779c0 -34 -27 -62 -61 -62s-62 28 -62 62s28 62 62 62s61 -28 61 -62z" />
    <glyph glyph-name="fraction" unicode="&#x2044;" horiz-adv-x="-45" 
d="M240 662l-464 -703l-61 41l464 703z" />
    <glyph glyph-name="Euro" unicode="&#x20ac;" horiz-adv-x="627" 
d="M592 58c-6 -6 -73 -72 -199 -72c-211 0 -254 202 -256 241h-72v76h66c0 6 -1 19 -1 33c0 13 0 15 1 29h-66v76h71c2 28 43 241 257 241c121 0 188 -69 192 -75l-52 -65c-11 9 -58 50 -132 50c-135 0 -154 -132 -156 -151h230v-76h-238c-1 -14 -1 -16 -1 -29
c0 -14 1 -27 1 -33h238v-76h-229c1 -15 15 -149 155 -149c77 0 131 43 138 48z" />
    <glyph glyph-name="guilsinglleft" unicode="&#x2039;" horiz-adv-x="337" 
d="M275 91l-68 -40l-145 194l145 194l68 -46l-86 -148z" />
    <glyph glyph-name="guilsinglright" unicode="&#x203a;" horiz-adv-x="337" 
d="M275 245l-145 -194l-68 40l86 154l-86 148l68 46z" />
    <glyph glyph-name="daggerdbl" unicode="&#x2021;" horiz-adv-x="611" 
d="M534 342l-177 1l-2 -106h176v-96h-177l-5 -266h-89l-5 266h-175v96h174l-2 106h-175v96h172l-4 228h119l-4 -228h174v-97z" />
    <glyph glyph-name="periodcentered" unicode="&#xb7;" horiz-adv-x="264" 
d="M202 255c0 -39 -31 -70 -70 -70s-70 31 -70 70s31 70 70 70s70 -31 70 -70z" />
    <glyph glyph-name="quotesinglbase" unicode="&#x201a;" horiz-adv-x="267" 
d="M228 115c0 -97 -40 -155 -85 -200c-11 -11 -29 -27 -41 -35l-63 56c14 15 72 64 72 179h117z" />
    <glyph glyph-name="quotedblbase" unicode="&#x201e;" horiz-adv-x="439" 
d="M400 115c0 -97 -40 -155 -85 -200c-11 -11 -29 -27 -41 -35l-63 56c14 15 72 64 72 179h117zM228 115c0 -97 -40 -155 -85 -200c-11 -11 -29 -27 -41 -35l-63 56c14 15 72 64 72 179h117z" />
    <glyph glyph-name="Acircumflex" unicode="&#xc2;" horiz-adv-x="633" 
d="M619 0h-120l-53 156h-262l-53 -156h-117l243 667h119zM415 247l-101 297l-100 -297h201zM479 769l-39 -55l-125 71l-125 -70l-39 58l164 117z" />
    <glyph glyph-name="Ecircumflex" unicode="&#xca;" horiz-adv-x="520" 
d="M471 0h-395v667h387v-94h-273v-182h256v-92h-256v-203h281v-96zM427 769l-39 -55l-125 71l-125 -70l-39 58l164 117z" />
    <glyph glyph-name="Aacute" unicode="&#xc1;" horiz-adv-x="633" 
d="M619 0h-120l-53 156h-262l-53 -156h-117l243 667h119zM415 247l-101 297l-100 -297h201zM429 804l-225 -90l-34 62l216 116z" />
    <glyph glyph-name="Edieresis" unicode="&#xcb;" horiz-adv-x="520" 
d="M419 779c0 -34 -27 -62 -61 -62s-62 28 -62 62s28 62 62 62s61 -28 61 -62zM238 779c0 -34 -27 -62 -61 -62s-62 28 -62 62s28 62 62 62s61 -28 61 -62zM471 0h-395v667h387v-94h-273v-182h256v-92h-256v-203h281v-96z" />
    <glyph glyph-name="Egrave" unicode="&#xc8;" horiz-adv-x="520" 
d="M471 0h-395v667h387v-94h-273v-182h256v-92h-256v-203h281v-96zM392 776l-34 -62l-225 90l43 88z" />
    <glyph glyph-name="Iacute" unicode="&#xcd;" horiz-adv-x="268" 
d="M192 0h-116v667h116v-667zM263 804l-225 -90l-34 62l216 116z" />
    <glyph glyph-name="Icircumflex" unicode="&#xce;" horiz-adv-x="268" 
d="M192 0h-116v667h116v-667zM298 769l-39 -55l-125 71l-125 -70l-39 58l164 117z" />
    <glyph glyph-name="Idieresis" unicode="&#xcf;" horiz-adv-x="268" 
d="M192 0h-116v667h116v-667zM286 779c0 -34 -27 -62 -61 -62s-62 28 -62 62s28 62 62 62s61 -28 61 -62zM105 779c0 -34 -27 -62 -61 -62s-62 28 -62 62s28 62 62 62s61 -28 61 -62z" />
    <glyph glyph-name="Igrave" unicode="&#xcc;" horiz-adv-x="268" 
d="M192 0h-116v667h116v-667zM264 776l-34 -62l-225 90l43 88z" />
    <glyph glyph-name="Oacute" unicode="&#xd3;" horiz-adv-x="730" 
d="M681 338c0 -212 -130 -352 -316 -352c-185 0 -316 143 -316 349c0 205 130 347 318 347c187 0 314 -143 314 -344zM562 340c0 144 -81 246 -201 246c-117 0 -193 -104 -193 -254c0 -151 85 -248 199 -248c139 0 195 125 195 256zM484 804l-225 -90l-34 62l216 116z" />
    <glyph glyph-name="Ocircumflex" unicode="&#xd4;" horiz-adv-x="730" 
d="M681 338c0 -212 -130 -352 -316 -352c-185 0 -316 143 -316 349c0 205 130 347 318 347c187 0 314 -143 314 -344zM562 340c0 144 -81 246 -201 246c-117 0 -193 -104 -193 -254c0 -151 85 -248 199 -248c139 0 195 125 195 256zM527 769l-39 -55l-125 71l-125 -70
l-39 58l164 117z" />
    <glyph glyph-name="Foundry" unicode="&#xf8ff;" horiz-adv-x="906" 
d="M859 388c0 -224 -180 -402 -406 -402s-406 178 -406 402c0 225 181 403 406 403c226 0 406 -179 406 -403zM767 389c0 171 -140 313 -314 313c-173 0 -315 -141 -315 -313c0 -161 113 -256 207 -291v202h-73v76h73v38c0 61 7 106 45 144c25 25 61 40 113 40
c70 0 113 -35 115 -38l-38 -64c-5 3 -32 19 -64 19c-18 0 -37 -4 -50 -17c-20 -20 -22 -49 -22 -83v-39h133v-76h-133v-222c2 0 6 -1 8 -1c175 0 315 141 315 312z" />
    <glyph glyph-name="Ograve" unicode="&#xd2;" horiz-adv-x="730" 
d="M681 338c0 -212 -130 -352 -316 -352c-185 0 -316 143 -316 349c0 205 130 347 318 347c187 0 314 -143 314 -344zM562 340c0 144 -81 246 -201 246c-117 0 -193 -104 -193 -254c0 -151 85 -248 199 -248c139 0 195 125 195 256zM497 776l-34 -62l-225 90l43 88z" />
    <glyph glyph-name="Uacute" unicode="&#xda;" horiz-adv-x="643" 
d="M574 310c0 -122 -4 -196 -62 -254c-32 -32 -90 -70 -191 -70c-72 0 -142 21 -192 71c-60 60 -60 136 -60 219v391h116v-417c0 -46 -1 -91 34 -126c24 -24 62 -38 106 -38c37 0 72 11 98 37c40 40 37 86 37 187v357h114v-357zM451 804l-225 -90l-34 62l216 116z" />
    <glyph glyph-name="Ucircumflex" unicode="&#xdb;" horiz-adv-x="643" 
d="M574 310c0 -122 -4 -196 -62 -254c-32 -32 -90 -70 -191 -70c-72 0 -142 21 -192 71c-60 60 -60 136 -60 219v391h116v-417c0 -46 -1 -91 34 -126c24 -24 62 -38 106 -38c37 0 72 11 98 37c40 40 37 86 37 187v357h114v-357zM484 769l-39 -55l-125 71l-125 -70l-39 58
l164 117z" />
    <glyph glyph-name="Ugrave" unicode="&#xd9;" horiz-adv-x="643" 
d="M574 310c0 -122 -4 -196 -62 -254c-32 -32 -90 -70 -191 -70c-72 0 -142 21 -192 71c-60 60 -60 136 -60 219v391h116v-417c0 -46 -1 -91 34 -126c24 -24 62 -38 106 -38c37 0 72 11 98 37c40 40 37 86 37 187v357h114v-357zM444 776l-34 -62l-225 90l43 88z" />
    <glyph glyph-name="dotlessi" unicode="&#x131;" horiz-adv-x="237" 
d="M174 0h-110v488h110v-488z" />
    <glyph glyph-name="circumflex" unicode="&#x2c6;" horiz-adv-x="405" 
d="M367 602l-39 -55l-125 71l-125 -70l-39 58l164 117z" />
    <glyph glyph-name="tilde" unicode="&#x2dc;" horiz-adv-x="405" 
d="M373 641c-15 -16 -63 -68 -117 -68c-43 0 -73 29 -109 29c-25 0 -53 -24 -66 -33l-49 54c17 16 63 66 117 66c43 0 72 -28 108 -28c29 0 56 23 68 34z" />
    <glyph glyph-name="macron" unicode="&#xaf;" horiz-adv-x="405" 
d="M370 594h-336v74h336v-74z" />
    <glyph glyph-name="breve" unicode="&#x2d8;" horiz-adv-x="405" 
d="M346 707c-5 -89 -59 -145 -143 -145s-139 56 -144 145h77c5 -43 28 -63 67 -63s61 20 66 63h77z" />
    <glyph glyph-name="dotaccent" unicode="&#x2d9;" horiz-adv-x="405" 
d="M264 631c0 -34 -27 -62 -61 -62s-62 28 -62 62s28 62 62 62s61 -28 61 -62z" />
    <glyph glyph-name="ring" unicode="&#x2da;" horiz-adv-x="405" 
d="M308 646c0 -58 -47 -106 -105 -106s-106 48 -106 106c0 59 48 106 106 106c59 0 105 -48 105 -106zM252 646c0 28 -23 50 -50 50s-49 -23 -49 -50s22 -49 49 -49c28 0 50 22 50 49z" />
    <glyph glyph-name="cedilla" unicode="&#xb8;" horiz-adv-x="405" 
d="M293 -129c0 -59 -51 -93 -102 -93c-40 0 -70 16 -79 24l20 41c3 -2 24 -14 52 -14c40 0 49 24 49 40c0 22 -17 37 -42 37c-19 0 -36 -8 -42 -12l-31 17l15 89h55l-7 -47c5 2 13 3 22 3c53 0 90 -34 90 -85z" />
    <glyph glyph-name="hungarumlaut" unicode="&#x2dd;" horiz-adv-x="405" 
d="M354 708l-75 -172l-79 27l58 180zM206 708l-75 -172l-80 27l58 180z" />
    <glyph glyph-name="ogonek" unicode="&#x2db;" horiz-adv-x="405" 
d="M307 -167c-4 -3 -48 -32 -104 -32c-64 0 -107 43 -107 110c0 46 30 76 55 89h76c-30 -23 -69 -45 -69 -89c0 -34 22 -56 55 -56c31 0 66 18 73 22z" />
    <glyph glyph-name="caron" unicode="&#x2c7;" horiz-adv-x="405" 
d="M367 664l-164 -117l-164 121l39 55l125 -71l125 70z" />
    <glyph glyph-name=".null" horiz-adv-x="0" 
 />
    <glyph glyph-name="uni2206" unicode="&#x2206;" horiz-adv-x="715" 
d="M636 0h-557l231 667h96zM497 92l-142 417l-143 -417h285z" />
    <glyph glyph-name="uni00B5" unicode="&#xb5;" horiz-adv-x="541" 
d="M477 0h-96v37c-8 -6 -69 -50 -145 -50c-44 0 -65 18 -75 26v-138h-97v613h110v-266c0 -63 1 -98 23 -120c10 -10 29 -21 63 -21c57 0 102 33 107 36v371h110v-488z" />
    <glyph glyph-name="uni2126" unicode="&#x2126;" horiz-adv-x="829" 
d="M750 0h-276v83c46 19 144 83 144 252c0 153 -83 251 -204 251s-204 -98 -204 -251c0 -169 98 -233 145 -252v-83h-276v95h130c-37 23 -114 102 -114 253c0 197 129 334 319 334c189 0 319 -137 319 -334c0 -147 -75 -230 -113 -253h130v-95z" />
    <glyph glyph-name="currency" unicode="&#xa4;" horiz-adv-x="605" 
d="M583 116l-66 -66l-64 65c-43 -29 -96 -44 -157 -44c-60 0 -112 15 -154 42l-63 -63l-65 66l60 61c-29 41 -46 95 -46 159c0 62 16 116 45 158l-59 60l65 65l62 -63c42 28 95 43 157 43c60 0 114 -16 156 -44l63 64l66 -65l-63 -62c28 -41 44 -93 44 -154
c0 -64 -16 -117 -45 -160zM452 340c0 107 -66 174 -159 174c-91 0 -153 -68 -153 -180c0 -113 69 -177 159 -177c104 0 153 78 153 183z" />
    <glyph glyph-name="afii61352" unicode="&#x2116;" horiz-adv-x="1063" 
d="M1022 492c0 -115 -74 -192 -183 -192c-104 0 -176 77 -176 190c0 114 74 192 183 192c104 0 176 -77 176 -190zM935 490c0 73 -40 121 -94 121c-55 0 -91 -47 -91 -119c0 -73 40 -121 94 -121c57 0 91 46 91 119zM582 0h-105l-298 488l3 -488h-106v667h109l294 -487
l-3 487h106v-667z" />
    <glyph glyph-name="franc" unicode="&#x20a3;" horiz-adv-x="806" 
d="M456 573h-265v-158h229v-93h-229v-322h-115v667h380v-94zM778 418l-25 -85c-5 1 -22 3 -33 3c-89 0 -130 -59 -141 -75v-261h-110v415h96v-62c4 7 61 76 159 76c35 0 51 -10 54 -11z" />
    <glyph glyph-name="lira" unicode="&#x20a4;" horiz-adv-x="627" 
d="M81 303h90c-4 23 -7 52 -8 61h-82v76h75c0 151 83 242 230 242c121 0 182 -67 188 -75l-54 -67c-13 9 -61 48 -128 48c-88 0 -126 -61 -126 -148h186v-76h-179c1 -13 4 -43 7 -61h172v-76h-167c-2 -71 -24 -114 -49 -131h325v-96h-482v87c69 13 97 60 96 140h-94v76z" />
    <glyph glyph-name="peseta" unicode="&#x20a7;" horiz-adv-x="1366" 
d="M523 468c0 -78 -34 -126 -57 -149c-62 -62 -133 -64 -222 -64h-55v-255h-113v667h176c91 0 163 -3 217 -57c36 -36 54 -86 54 -142zM407 464c0 37 -13 67 -30 85c-27 26 -67 27 -123 27h-65v-229h51c75 0 111 5 136 29c19 19 31 49 31 88zM915 16c-5 -4 -48 -29 -114 -29
c-44 0 -88 11 -117 40c-32 32 -37 69 -38 121v249h-84v91h84v136h110v-136h144v-91h-144v-222c0 -48 0 -95 66 -95c33 0 57 11 65 13zM1316 140c0 -95 -73 -153 -187 -153c-105 0 -176 48 -181 52l39 73c8 -4 65 -40 129 -40s89 27 89 60c0 91 -236 55 -236 224
c0 88 74 145 182 145c99 0 155 -42 156 -44l-37 -69c-5 4 -60 33 -113 33s-79 -26 -79 -54c0 -89 238 -59 238 -227z" />
    <glyph glyph-name="zerosuperior" unicode="&#x2070;" 
d="M350 498c0 -110 -56 -179 -151 -179c-92 0 -148 68 -148 174c0 110 56 180 150 180c91 0 149 -70 149 -175zM278 496c0 78 -31 117 -76 117c-46 0 -78 -41 -78 -120c0 -76 29 -115 75 -115c60 0 79 58 79 118z" />
    <glyph glyph-name="onesuperior" unicode="&#xb9;" 
d="M266 325h-71v258l-75 -48l-35 51l126 81h55v-342z" />
    <glyph glyph-name="twosuperior" unicode="&#xb2;" 
d="M315 325h-229v52c71 59 154 133 154 187c0 30 -18 50 -50 50c-31 0 -56 -22 -74 -37l-35 42c23 29 66 54 116 54c64 0 113 -41 113 -107c0 -71 -62 -127 -127 -182h132v-59z" />
    <glyph glyph-name="threesuperior" unicode="&#xb3;" 
d="M319 426c0 -67 -51 -109 -127 -109c-71 0 -105 34 -114 44l35 44c7 -5 34 -28 72 -28c42 0 63 20 63 47c0 39 -36 47 -78 47h-18v56h15c28 0 75 1 75 45c0 22 -18 41 -50 41c-38 0 -65 -24 -71 -30l-36 42c22 26 65 48 115 48c64 0 112 -38 112 -97
c0 -28 -17 -66 -52 -75c39 -6 59 -42 59 -75z" />
    <glyph glyph-name="foursuperior" unicode="&#x2074;" 
d="M339 394h-44v-69h-69v69h-166v48l167 225h68v-215h44v-58zM226 452v121l-86 -121h86z" />
    <glyph glyph-name="fivesuperior" unicode="&#x2075;" 
d="M319 439c0 -75 -52 -120 -134 -120c-69 0 -107 38 -109 41l33 45c7 -6 39 -27 73 -27c41 0 66 19 66 57c0 32 -21 58 -67 58c-27 0 -49 -13 -57 -17l-26 16v175h204v-60h-137v-63c7 2 19 5 36 5c70 0 118 -43 118 -110z" />
    <glyph glyph-name="sixsuperior" unicode="&#x2076;" 
d="M329 441c0 -73 -51 -124 -126 -124c-86 0 -133 72 -133 171c0 104 48 185 146 185c65 0 103 -34 105 -38l-30 -45c-4 3 -33 25 -71 25c-58 0 -79 -45 -84 -93c16 19 42 35 79 35c68 0 114 -49 114 -116zM263 439c0 35 -22 60 -56 60c-37 0 -60 -27 -60 -62
c0 -36 24 -61 58 -61c35 0 58 27 58 63z" />
    <glyph glyph-name="sevensuperior" unicode="&#x2077;" 
d="M324 618l-133 -293h-75l135 283h-170v59h243v-49z" />
    <glyph glyph-name="eightsuperior" unicode="&#x2078;" 
d="M332 423c0 -65 -53 -106 -130 -106c-78 0 -131 40 -131 106c0 38 20 68 50 81c-25 12 -41 36 -41 70c0 61 50 99 120 99c71 0 122 -38 122 -98c0 -37 -21 -60 -43 -72c31 -11 53 -38 53 -80zM253 573c0 27 -20 45 -52 45s-52 -18 -52 -45c0 -28 21 -46 53 -46
c31 0 51 18 51 46zM263 424c0 32 -23 50 -62 50c-40 0 -62 -19 -62 -50s22 -50 63 -50c39 0 61 19 61 50z" />
    <glyph glyph-name="ninesuperior" unicode="&#x2079;" 
d="M332 503c0 -104 -48 -186 -146 -186c-66 0 -103 35 -106 38l31 46c3 -3 33 -25 70 -25c58 0 78 44 83 93c-16 -22 -47 -35 -77 -35c-68 0 -114 48 -114 116c0 71 50 123 125 123c89 0 134 -74 134 -170zM255 552c0 37 -25 63 -59 63c-35 0 -57 -28 -57 -64
c0 -35 21 -60 55 -60c36 0 61 27 61 61z" />
    <glyph glyph-name="parenleftsuperior" unicode="&#x207d;" horiz-adv-x="238" 
d="M51 494c0 132 95 204 125 225l35 -45c-23 -20 -87 -81 -87 -178c0 -98 65 -161 88 -180l-35 -45c-29 19 -126 92 -126 223z" />
    <glyph glyph-name="parenrightsuperior" unicode="&#x207e;" horiz-adv-x="238" 
d="M187 494c0 -132 -96 -202 -126 -223l-35 45c23 19 88 81 88 178c0 98 -65 161 -89 180l36 45c29 -19 126 -94 126 -225z" />
    <glyph glyph-name="zeroinferior" unicode="&#x2080;" 
d="M350 173c0 -110 -56 -179 -151 -179c-92 0 -148 68 -148 174c0 110 56 180 150 180c91 0 149 -70 149 -175zM278 171c0 78 -31 117 -76 117c-46 0 -78 -41 -78 -120c0 -76 29 -115 75 -115c60 0 79 58 79 118z" />
    <glyph glyph-name="oneinferior" unicode="&#x2081;" 
d="M266 0h-71v258l-75 -48l-35 51l126 81h55v-342z" />
    <glyph glyph-name="twoinferior" unicode="&#x2082;" 
d="M315 0h-229v52c70 59 154 133 154 188c0 29 -18 49 -50 49c-31 0 -56 -22 -74 -37l-35 42c23 29 66 55 116 55c64 0 113 -43 113 -108c0 -71 -62 -125 -127 -182h132v-59z" />
    <glyph glyph-name="threeinferior" unicode="&#x2083;" 
d="M319 101c0 -67 -51 -109 -127 -109c-71 0 -105 33 -114 44l35 44c7 -5 34 -28 72 -28c42 0 63 20 63 47c0 39 -36 47 -78 47h-18v56h15c28 0 75 1 75 45c0 22 -18 41 -50 41c-38 0 -65 -24 -71 -30l-36 42c22 26 65 48 115 48c64 0 112 -39 112 -97
c0 -29 -17 -66 -52 -75c39 -6 59 -42 59 -75z" />
    <glyph glyph-name="fourinferior" unicode="&#x2084;" 
d="M339 69h-44v-69h-69v69h-166v49l167 224h68v-215h44v-58zM226 127v121l-86 -121h86z" />
    <glyph glyph-name="fiveinferior" unicode="&#x2085;" 
d="M319 114c0 -75 -52 -120 -134 -120c-69 0 -107 38 -109 41l33 46c7 -7 39 -28 73 -28c41 0 66 20 66 56c0 33 -21 59 -67 59c-27 0 -49 -13 -57 -17l-26 16v175h204v-60h-137v-63c7 2 19 6 36 6c70 0 118 -44 118 -111z" />
    <glyph glyph-name="sixinferior" unicode="&#x2086;" 
d="M329 116c0 -73 -51 -124 -126 -124c-86 0 -133 72 -133 171c0 104 48 185 146 185c65 0 103 -34 105 -38l-30 -45c-4 3 -33 25 -71 25c-58 0 -79 -45 -84 -93c16 19 42 35 79 35c68 0 114 -49 114 -116zM263 114c0 35 -22 60 -56 60c-37 0 -60 -27 -60 -62
c0 -36 24 -61 58 -61c35 0 58 27 58 63z" />
    <glyph glyph-name="seveninferior" unicode="&#x2087;" 
d="M324 294l-133 -294h-75l135 284h-170v58h243v-48z" />
    <glyph glyph-name="eightinferior" unicode="&#x2088;" 
d="M332 98c0 -65 -53 -106 -130 -106c-78 0 -131 40 -131 106c0 38 20 68 50 80c-25 13 -41 37 -41 71c0 60 50 99 120 99c71 0 122 -38 122 -98c0 -37 -21 -60 -43 -72c31 -11 53 -38 53 -80zM253 248c0 27 -20 45 -52 45s-52 -18 -52 -45c0 -29 21 -46 53 -46
c31 0 51 17 51 46zM263 99c0 32 -23 50 -62 50c-40 0 -62 -19 -62 -50s22 -50 63 -50c39 0 61 19 61 50z" />
    <glyph glyph-name="nineinferior" unicode="&#x2089;" 
d="M332 178c0 -104 -48 -186 -146 -186c-66 0 -103 35 -106 38l31 46c3 -3 33 -25 70 -25c58 0 78 44 83 93c-16 -22 -47 -35 -77 -35c-68 0 -114 48 -114 116c0 71 50 123 125 123c89 0 134 -74 134 -170zM255 227c0 37 -25 63 -59 63c-35 0 -57 -28 -57 -64
c0 -35 21 -60 55 -60c36 0 61 26 61 61z" />
    <glyph glyph-name="parenleftinferior" unicode="&#x208d;" horiz-adv-x="238" 
d="M51 170c0 132 95 204 125 225l35 -45c-23 -20 -87 -81 -87 -179c0 -97 65 -160 88 -179l-35 -45c-29 19 -126 92 -126 223z" />
    <glyph glyph-name="parenrightinferior" unicode="&#x208e;" horiz-adv-x="238" 
d="M187 170c0 -132 -96 -202 -126 -223l-35 45c23 19 88 81 88 178c0 98 -65 161 -89 180l36 45c29 -19 126 -94 126 -225z" />
    <glyph glyph-name="figuredash" unicode="&#x2012;" horiz-adv-x="628" 
d="M576 214h-524v92h524v-92z" />
    <glyph glyph-name="onehalf" unicode="&#xbd;" horiz-adv-x="790" 
d="M655 662l-464 -703l-61 41l464 703zM266 325h-71v258l-75 -48l-35 51l126 81h55v-342zM704 0h-229v52c70 59 154 133 154 188c0 29 -18 49 -50 49c-31 0 -56 -22 -74 -37l-35 42c23 29 66 55 116 55c64 0 113 -43 113 -108c0 -71 -62 -125 -127 -182h132v-59z" />
    <glyph glyph-name="onethird" unicode="&#x2153;" horiz-adv-x="790" 
d="M655 662l-464 -703l-61 41l464 703zM266 325h-71v258l-75 -48l-35 51l126 81h55v-342zM708 101c0 -67 -51 -109 -127 -109c-71 0 -105 33 -114 44l35 44c7 -5 34 -28 72 -28c42 0 63 20 63 47c0 39 -36 47 -78 47h-18v56h15c28 0 75 1 75 45c0 22 -18 41 -50 41
c-38 0 -65 -24 -71 -30l-36 42c22 26 65 48 115 48c64 0 112 -39 112 -97c0 -29 -17 -66 -52 -75c39 -6 59 -42 59 -75z" />
    <glyph glyph-name="twothirds" unicode="&#x2154;" horiz-adv-x="790" 
d="M317 325h-229v52c71 59 154 133 154 187c0 30 -18 50 -50 50c-31 0 -56 -22 -74 -37l-36 42c24 29 67 54 117 54c64 0 113 -41 113 -107c0 -70 -63 -128 -127 -182h132v-59zM655 662l-464 -703l-61 41l464 703zM708 101c0 -67 -51 -109 -127 -109c-71 0 -105 33 -114 44
l35 44c7 -5 34 -28 72 -28c42 0 63 20 63 47c0 39 -36 47 -78 47h-18v56h15c28 0 75 1 75 45c0 22 -18 41 -50 41c-38 0 -65 -24 -71 -30l-36 42c22 26 65 48 115 48c64 0 112 -39 112 -97c0 -29 -17 -66 -52 -75c39 -6 59 -42 59 -75z" />
    <glyph glyph-name="onequarter" unicode="&#xbc;" horiz-adv-x="790" 
d="M266 325h-71v258l-75 -48l-35 51l126 81h55v-342zM655 662l-464 -703l-61 41l464 703zM728 69h-44v-69h-69v69h-166v49l167 224h68v-215h44v-58zM615 127v121l-86 -121h86z" />
    <glyph glyph-name="threequarters" unicode="&#xbe;" horiz-adv-x="790" 
d="M655 662l-464 -703l-61 41l464 703zM728 69h-44v-69h-69v69h-166v49l167 224h68v-215h44v-58zM615 127v121l-86 -121h86zM319 426c0 -67 -51 -109 -127 -109c-71 0 -105 34 -114 44l35 44c7 -5 34 -28 72 -28c42 0 63 20 63 47c0 39 -36 47 -78 47h-18v56h15
c28 0 75 1 75 45c0 22 -18 41 -50 41c-38 0 -65 -24 -71 -30l-36 42c22 26 65 48 115 48c64 0 112 -38 112 -97c0 -28 -17 -66 -52 -75c39 -6 59 -42 59 -75z" />
    <glyph glyph-name="oneeighth" unicode="&#x215b;" horiz-adv-x="790" 
d="M266 325h-71v258l-75 -48l-35 51l126 81h55v-342zM655 662l-464 -703l-61 41l464 703zM721 98c0 -65 -53 -106 -130 -106c-78 0 -131 40 -131 106c0 38 20 68 50 80c-25 13 -41 37 -41 71c0 60 50 99 120 99c71 0 122 -38 122 -98c0 -37 -21 -60 -43 -72
c31 -11 53 -38 53 -80zM642 248c0 27 -20 45 -52 45s-52 -18 -52 -45c0 -29 21 -46 53 -46c31 0 51 17 51 46zM652 99c0 32 -23 50 -62 50c-40 0 -62 -19 -62 -50s22 -50 63 -50c39 0 61 19 61 50z" />
    <glyph glyph-name="threeeighths" unicode="&#x215c;" horiz-adv-x="790" 
d="M655 662l-464 -703l-61 41l464 703zM721 98c0 -65 -53 -106 -130 -106c-78 0 -131 40 -131 106c0 38 20 68 50 80c-25 13 -41 37 -41 71c0 60 50 99 120 99c71 0 122 -38 122 -98c0 -37 -21 -60 -43 -72c31 -11 53 -38 53 -80zM642 248c0 27 -20 45 -52 45
s-52 -18 -52 -45c0 -29 21 -46 53 -46c31 0 51 17 51 46zM652 99c0 32 -23 50 -62 50c-40 0 -62 -19 -62 -50s22 -50 63 -50c39 0 61 19 61 50zM319 426c0 -67 -51 -109 -127 -109c-71 0 -105 34 -114 44l35 44c7 -5 34 -28 72 -28c42 0 63 20 63 47c0 39 -36 47 -78 47h-18
v56h15c28 0 75 1 75 45c0 22 -18 41 -50 41c-38 0 -65 -24 -71 -30l-36 42c22 26 65 48 115 48c64 0 112 -38 112 -97c0 -28 -17 -66 -52 -75c39 -6 59 -42 59 -75z" />
    <glyph glyph-name="fiveeighths" unicode="&#x215d;" horiz-adv-x="790" 
d="M655 662l-464 -703l-61 41l464 703zM721 98c0 -65 -53 -106 -130 -106c-78 0 -131 40 -131 106c0 38 20 68 50 80c-25 13 -41 37 -41 71c0 60 50 99 120 99c71 0 122 -38 122 -98c0 -37 -21 -60 -43 -72c31 -11 53 -38 53 -80zM642 248c0 27 -20 45 -52 45
s-52 -18 -52 -45c0 -29 21 -46 53 -46c31 0 51 17 51 46zM652 99c0 32 -23 50 -62 50c-40 0 -62 -19 -62 -50s22 -50 63 -50c39 0 61 19 61 50zM319 439c0 -75 -52 -120 -134 -120c-69 0 -107 38 -109 41l33 45c7 -6 39 -27 73 -27c41 0 66 19 66 57c0 32 -21 58 -67 58
c-27 0 -49 -13 -57 -17l-26 16v175h204v-60h-137v-63c7 2 19 5 36 5c70 0 118 -43 118 -110z" />
    <glyph glyph-name="seveneighths" unicode="&#x215e;" horiz-adv-x="790" 
d="M324 618l-133 -293h-75l135 283h-170v59h243v-49zM721 98c0 -65 -53 -106 -130 -106c-78 0 -131 40 -131 106c0 38 20 68 50 80c-25 13 -41 37 -41 71c0 60 50 99 120 99c71 0 122 -38 122 -98c0 -37 -21 -60 -43 -72c31 -11 53 -38 53 -80zM642 248c0 27 -20 45 -52 45
s-52 -18 -52 -45c0 -29 21 -46 53 -46c31 0 51 17 51 46zM652 99c0 32 -23 50 -62 50c-40 0 -62 -19 -62 -50s22 -50 63 -50c39 0 61 19 61 50zM655 662l-464 -703l-61 41l464 703z" />
    <glyph glyph-name="percent" unicode="%" horiz-adv-x="790" 
d="M655 662l-464 -703l-61 41l464 703zM739 173c0 -110 -56 -179 -151 -179c-92 0 -148 68 -148 174c0 110 56 180 150 180c91 0 149 -70 149 -175zM667 171c0 78 -31 117 -76 117c-46 0 -78 -41 -78 -120c0 -76 29 -115 75 -115c60 0 79 58 79 118zM350 498
c0 -110 -56 -179 -151 -179c-92 0 -148 68 -148 174c0 110 56 180 150 180c91 0 149 -70 149 -175zM278 496c0 78 -31 117 -76 117c-46 0 -78 -41 -78 -120c0 -76 29 -115 75 -115c60 0 79 58 79 118z" />
    <glyph glyph-name="perthousand" unicode="&#x2030;" horiz-adv-x="1148" 
d="M658 662l-464 -703l-61 41l464 703zM745 173c0 -110 -56 -179 -151 -179c-92 0 -148 68 -148 174c0 110 56 180 150 180c91 0 149 -70 149 -175zM673 171c0 78 -31 117 -76 117c-46 0 -78 -41 -78 -120c0 -76 29 -115 75 -115c60 0 79 58 79 118zM350 498
c0 -110 -56 -179 -151 -179c-92 0 -148 68 -148 174c0 110 56 180 150 180c91 0 149 -70 149 -175zM278 496c0 78 -31 117 -76 117c-46 0 -78 -41 -78 -120c0 -76 29 -115 75 -115c60 0 79 58 79 118zM1097 173c0 -110 -56 -179 -151 -179c-92 0 -148 68 -148 174
c0 110 56 180 150 180c91 0 149 -70 149 -175zM1025 171c0 78 -31 117 -76 117c-46 0 -78 -41 -78 -120c0 -76 29 -115 75 -115c60 0 79 58 79 118z" />
    <glyph glyph-name="Euro.fitted" unicode="&#xe002;" horiz-adv-x="566" 
d="M551 58c-6 -6 -73 -72 -199 -72c-211 0 -254 202 -256 241h-72v76h66c0 6 -1 19 -1 33c0 13 0 15 1 29h-66v76h71c2 28 43 241 257 241c121 0 188 -69 192 -75l-52 -65c-11 9 -58 50 -132 50c-135 0 -154 -132 -156 -151h230v-76h-238c-1 -14 -1 -16 -1 -29
c0 -14 1 -27 1 -33h238v-76h-229c1 -15 15 -149 155 -149c77 0 131 43 138 48z" />
    <glyph glyph-name="dollar.fitted" horiz-adv-x="551" 
d="M498 194c0 -119 -86 -183 -178 -197v-103h-83v99c-113 7 -190 65 -196 72l54 79c13 -8 79 -55 161 -55c78 0 121 38 121 96c0 67 -76 88 -142 116c-53 22 -173 64 -173 189c0 111 90 169 175 181v91h83v-89c105 -7 167 -64 171 -68l-55 -72c-5 4 -62 49 -140 49
c-69 0 -118 -34 -118 -83c0 -50 38 -66 127 -102c98 -40 193 -84 193 -203z" />
    <glyph glyph-name="cent.fitted" horiz-adv-x="479" 
d="M458 55c-2 -3 -58 -45 -138 -54v-105h-83v105c-123 18 -202 115 -202 247c0 135 83 236 202 259v98h83v-95c75 -7 127 -47 131 -54l-45 -69c-8 5 -49 34 -110 34c-95 0 -151 -81 -151 -165c0 -97 54 -166 146 -166c68 0 120 35 124 37z" />
    <glyph glyph-name="sterling.fitted" horiz-adv-x="534" 
d="M519 607l-54 -67c-13 9 -61 48 -128 48c-77 0 -126 -50 -126 -140c0 -41 6 -76 7 -87h194v-89h-184c1 -7 2 -27 2 -38c0 -55 -13 -110 -48 -138h324v-96h-482v87c71 14 96 61 96 136c0 20 -2 39 -3 49h-91v89h82c-4 29 -7 58 -7 87c0 146 87 234 230 234
c121 0 182 -67 188 -75z" />
    <glyph glyph-name="florin.fitted" horiz-adv-x="567" 
d="M564 650l-31 -81c-10 4 -43 17 -73 17c-61 0 -74 -34 -93 -124l-21 -101h146l-19 -91h-147l-55 -280c-11 -57 -25 -134 -64 -173c-31 -31 -73 -48 -122 -48c-67 0 -114 28 -122 33l33 82c9 -4 38 -17 70 -17c24 0 42 7 53 18c19 19 27 52 40 117l55 268h-126l19 91h127
l22 112c14 73 27 125 61 159c36 36 80 50 126 50c65 0 114 -28 121 -32z" />
    <glyph glyph-name="yen.fitted" horiz-adv-x="565" 
d="M547 667l-171 -305h106v-76h-144v-62h143v-75h-143v-149h-111v149h-148v75h148v62h-149v76h107l-167 305h119l150 -296l152 296h108z" />
    <glyph glyph-name="zero.fitted" unicode="&#xf639;" horiz-adv-x="631" 
d="M582 336c0 -215 -98 -350 -267 -350c-168 0 -266 135 -266 350c0 209 101 346 265 346c167 0 268 -136 268 -346zM468 333c0 167 -58 255 -151 255c-96 0 -154 -88 -154 -256c0 -165 56 -252 150 -252c97 0 155 87 155 253z" />
    <glyph glyph-name="one.fitted" unicode="&#xf6dc;" horiz-adv-x="413" 
d="M337 0h-114v533l-153 -102l-54 81l231 155h90v-667z" />
    <glyph glyph-name="two.fitted" unicode="&#xf63a;" horiz-adv-x="523" 
d="M474 0h-449v86c54 44 148 132 196 180c80 80 126 141 126 208c0 69 -45 112 -116 112c-79 0 -147 -62 -154 -68l-59 68c3 4 81 96 225 96c126 0 219 -77 219 -204c0 -102 -62 -176 -136 -250c-69 -69 -141 -128 -146 -132h294v-96z" />
    <glyph glyph-name="three.fitted" unicode="&#xf63b;" horiz-adv-x="518" 
d="M469 193c0 -125 -94 -207 -242 -207c-138 0 -203 65 -209 73l53 73c6 -4 61 -51 144 -51c91 0 140 44 140 109c0 33 -14 57 -30 72c-33 30 -83 34 -143 34h-21v92h15c53 0 105 0 144 40c15 15 24 35 24 62c0 55 -45 97 -117 97c-77 0 -136 -51 -143 -57l-55 66
c3 4 74 86 214 86c124 0 212 -75 212 -184c0 -66 -41 -142 -113 -153c82 -9 127 -77 127 -152z" />
    <glyph glyph-name="four.fitted" unicode="&#xf63c;" horiz-adv-x="577" 
d="M544 140h-85v-140h-108v140h-324v82l319 445h113v-434h85v-93zM351 233v293l-204 -293h204z" />
    <glyph glyph-name="five.fitted" unicode="&#xf63d;" horiz-adv-x="540" 
d="M491 224c0 -146 -99 -238 -255 -238c-133 0 -199 65 -203 70l54 73c9 -6 63 -47 142 -47c90 0 148 49 148 132c0 73 -45 133 -148 133c-61 0 -105 -28 -110 -31l-39 24v327h388v-94h-282v-149c5 2 35 14 83 14c135 0 222 -87 222 -214z" />
    <glyph glyph-name="six.fitted" unicode="&#xf63e;" horiz-adv-x="581" 
d="M542 226c0 -139 -96 -240 -238 -240c-169 0 -255 146 -255 333c0 202 91 363 280 363c129 0 192 -60 197 -65l-49 -74c-7 5 -60 46 -138 46c-131 0 -179 -102 -185 -216c-1 -11 0 -14 0 -22c28 64 103 100 172 100c130 0 216 -96 216 -225zM436 222
c0 79 -47 134 -124 134c-81 0 -135 -60 -135 -137c0 -81 55 -138 132 -138s127 61 127 141z" />
    <glyph glyph-name="seven.fitted" unicode="&#xf63f;" horiz-adv-x="520" 
d="M497 579l-265 -579h-123l268 571h-356v96h476v-88z" />
    <glyph glyph-name="eight.fitted" unicode="&#xf640;" horiz-adv-x="591" 
d="M542 187c0 -125 -97 -201 -244 -201c-149 0 -249 76 -249 201c0 77 45 146 121 161c-68 19 -100 79 -100 144c0 115 91 190 225 190c135 0 227 -74 227 -188c0 -71 -37 -128 -99 -146c78 -19 119 -80 119 -161zM415 490c0 57 -43 101 -119 101c-73 0 -119 -45 -119 -100
c0 -59 46 -103 121 -103c72 0 117 43 117 102zM434 191c0 66 -49 110 -137 110c-90 0 -139 -44 -139 -109c0 -67 50 -115 141 -115c87 0 135 47 135 114z" />
    <glyph glyph-name="nine.fitted" unicode="&#xf641;" horiz-adv-x="581" 
d="M532 349c0 -202 -90 -363 -279 -363c-129 0 -193 60 -198 65l50 74c7 -5 60 -47 138 -47c131 0 178 103 184 217c1 11 1 13 1 21c-28 -64 -104 -99 -173 -99c-130 0 -216 96 -216 225c0 139 96 240 238 240c169 0 255 -146 255 -333zM405 449c0 81 -56 138 -133 138
s-127 -61 -127 -141c0 -79 47 -134 124 -134c81 0 136 60 136 137z" />
    <glyph glyph-name="Euro.taboldstyle" unicode="&#xf64e;" horiz-adv-x="627" 
d="M577 58c-6 -6 -73 -72 -199 -72c-211 0 -254 202 -256 241h-72v76h66c0 6 -1 19 -1 33c0 13 0 15 1 29h-66v76h71c2 28 43 241 257 241c121 0 188 -69 192 -75l-52 -65c-11 9 -58 50 -132 50c-135 0 -154 -132 -156 -151h230v-76h-238c-1 -14 -1 -16 -1 -29
c0 -14 1 -27 1 -33h238v-76h-229c1 -15 15 -149 155 -149c77 0 131 43 138 48z" />
    <glyph glyph-name="dollar.taboldstyle" unicode="&#xf653;" horiz-adv-x="627" 
d="M551 194c0 -119 -86 -183 -178 -197v-103h-83v99c-113 7 -190 65 -196 72l54 79c13 -8 79 -55 161 -55c78 0 121 38 121 96c0 67 -76 88 -142 116c-53 22 -173 64 -173 189c0 111 90 169 175 181v91h83v-89c105 -7 167 -64 171 -68l-55 -72c-5 4 -62 49 -140 49
c-69 0 -118 -34 -118 -83c0 -50 38 -66 127 -102c98 -40 193 -84 193 -203z" />
    <glyph glyph-name="cent.taboldstyle" unicode="&#xf654;" horiz-adv-x="627" 
d="M533 55c-2 -3 -58 -45 -138 -54v-105h-83v105c-123 18 -202 115 -202 247c0 135 83 236 202 259v98h83v-95c75 -7 127 -47 131 -54l-45 -69c-8 5 -49 34 -110 34c-95 0 -151 -81 -151 -165c0 -97 54 -166 146 -166c68 0 120 35 124 37z" />
    <glyph glyph-name="sterling.taboldstyle" unicode="&#xf651;" horiz-adv-x="627" 
d="M562 607l-54 -67c-13 9 -61 48 -128 48c-77 0 -126 -50 -126 -140c0 -41 6 -76 7 -87h194v-89h-184c1 -7 2 -27 2 -38c0 -55 -13 -110 -48 -138h324v-96h-482v87c71 14 96 61 96 136c0 20 -2 39 -3 49h-91v89h82c-4 29 -7 58 -7 87c0 146 87 234 230 234
c121 0 182 -67 188 -75z" />
    <glyph glyph-name="florin.taboldstyle" unicode="&#xf64f;" horiz-adv-x="627" 
d="M614 650l-31 -81c-10 4 -43 17 -73 17c-61 0 -74 -34 -93 -124l-21 -101h146l-19 -91h-147l-55 -280c-11 -57 -25 -134 -64 -173c-31 -31 -73 -48 -122 -48c-67 0 -114 28 -122 33l33 82c9 -4 38 -17 70 -17c24 0 42 7 53 18c19 19 27 52 40 117l55 268h-126l19 91h127
l22 112c14 73 27 125 61 159c36 36 80 50 126 50c65 0 114 -28 121 -32z" />
    <glyph glyph-name="yen.taboldstyle" unicode="&#xf652;" horiz-adv-x="627" 
d="M578 667l-171 -305h106v-76h-144v-62h143v-75h-143v-149h-111v149h-148v75h148v62h-149v76h107l-167 305h119l150 -296l152 296h108z" />
    <glyph glyph-name="zero.taboldstyle" unicode="&#xf643;" horiz-adv-x="627" 
d="M583 264c0 -167 -111 -277 -269 -277s-269 113 -269 275c0 161 110 273 270 273c159 0 268 -113 268 -271zM469 265c0 106 -66 184 -159 184c-90 0 -151 -78 -151 -189s69 -186 157 -186c104 0 153 87 153 191z" />
    <glyph glyph-name="one.taboldstyle" unicode="&#xf644;" horiz-adv-x="627" 
d="M416 0h-112v402l-125 -81l-52 72l202 131h87v-524z" />
    <glyph glyph-name="two.taboldstyle" unicode="&#xf645;" horiz-adv-x="627" 
d="M498 0h-387v77c11 8 132 103 196 169c37 38 69 77 69 123s-36 77 -86 77c-60 0 -108 -44 -123 -58l-57 63c7 9 69 85 189 85c113 0 188 -70 188 -164c0 -68 -40 -117 -82 -160c-52 -54 -123 -108 -141 -123h234v-89z" />
    <glyph glyph-name="three.taboldstyle" unicode="&#xf646;" horiz-adv-x="627" 
d="M502 71c0 -116 -90 -199 -230 -199c-124 0 -188 60 -198 72l53 68c11 -8 59 -51 136 -51c80 0 128 44 128 105c0 25 -10 48 -27 65c-28 28 -62 37 -134 37h-20v86h19c69 0 103 13 128 39c16 16 23 37 23 59c0 50 -39 94 -108 94s-123 -50 -131 -57l-57 64
c6 8 75 83 202 83c118 0 201 -75 201 -177c0 -59 -35 -128 -113 -145c85 -13 128 -72 128 -143z" />
    <glyph glyph-name="four.taboldstyle" unicode="&#xf647;" horiz-adv-x="627" 
d="M563 13h-88v-133h-108v133h-306v74l297 437h117v-426h88v-85zM367 98v293l-193 -293h193z" />
    <glyph glyph-name="five.taboldstyle" unicode="&#xf648;" horiz-adv-x="627" 
d="M526 98c0 -137 -93 -226 -242 -226c-119 0 -181 55 -188 62l52 70c6 -4 53 -43 131 -43c92 0 135 59 135 130c0 56 -34 127 -134 127c-61 0 -98 -27 -106 -33l-39 24v315h366v-88h-264v-147c8 4 35 15 79 15c127 0 210 -84 210 -206z" />
    <glyph glyph-name="six.taboldstyle" unicode="&#xf649;" horiz-adv-x="627" 
d="M546 216c0 -133 -90 -229 -224 -229c-160 0 -241 139 -241 317c0 192 85 347 266 347c120 0 175 -54 185 -64l-48 -71c-20 15 -68 46 -132 46c-133 0 -169 -125 -169 -225c26 63 97 93 159 93c123 0 204 -91 204 -214zM442 212c0 76 -43 130 -113 130
c-74 0 -124 -59 -124 -133c0 -78 50 -133 121 -133s116 59 116 136z" />
    <glyph glyph-name="seven.taboldstyle" unicode="&#xf64a;" horiz-adv-x="627" 
d="M525 440l-245 -560h-115l252 554h-339v90h447v-84z" />
    <glyph glyph-name="eight.taboldstyle" unicode="&#xf64b;" horiz-adv-x="627" 
d="M540 179c0 -120 -90 -192 -226 -192c-134 0 -227 73 -227 193c0 89 60 138 113 152c-46 15 -96 59 -96 137c0 109 85 181 209 181c125 0 210 -71 210 -179c0 -85 -53 -125 -95 -139c58 -18 112 -63 112 -153zM423 467c0 52 -40 96 -109 96c-68 0 -109 -45 -109 -95
c0 -54 40 -99 111 -99c67 0 107 45 107 98zM439 182c0 61 -44 106 -125 106c-83 0 -126 -45 -126 -105c0 -61 45 -109 127 -109c81 0 124 46 124 108z" />
    <glyph glyph-name="nine.taboldstyle" unicode="&#xf64c;" horiz-adv-x="627" 
d="M546 218c0 -192 -85 -347 -266 -347c-120 0 -175 54 -185 64l48 71c20 -15 68 -46 132 -46c133 0 169 125 169 225c-26 -63 -97 -93 -159 -93c-123 0 -204 91 -204 214c0 133 90 229 224 229c160 0 241 -139 241 -317zM422 313c0 78 -50 133 -121 133s-116 -59 -116 -136
c0 -76 43 -130 113 -130c74 0 124 59 124 133z" />
    <glyph glyph-name="germandblssmall" horiz-adv-x="905" 
d="M415 153c0 -97 -78 -166 -198 -166c-109 0 -175 54 -185 64l49 71c8 -5 65 -46 129 -46c65 0 93 32 93 69c0 17 -7 30 -16 39c-37 37 -140 47 -195 102c-19 19 -41 48 -41 98c0 92 79 151 187 151s165 -51 172 -59l-50 -69c-19 12 -59 42 -116 42c-54 0 -85 -27 -85 -58
c0 -13 3 -22 14 -33c31 -31 142 -46 204 -108c24 -24 38 -58 38 -97zM857 153c0 -97 -78 -166 -198 -166c-109 0 -175 54 -185 64l49 71c8 -5 65 -46 129 -46c65 0 93 32 93 69c0 17 -7 30 -16 39c-37 37 -140 47 -195 102c-19 19 -41 48 -41 98c0 92 79 151 187 151
s165 -51 172 -59l-50 -69c-19 12 -59 42 -116 42c-54 0 -85 -27 -85 -58c0 -13 3 -22 14 -33c31 -31 142 -46 204 -108c24 -24 38 -58 38 -97z" />
    <glyph glyph-name="afii61289" unicode="&#x2113;" horiz-adv-x="500" 
d="M249 269c-29 -150 -33 -173 -33 -208c0 -17 6 -25 18 -25c17 0 34 18 51 54c6 14 11 18 19 18s13 -5 13 -15c0 -15 -10 -37 -26 -60c-25 -32 -48 -47 -76 -47c-42 0 -67 33 -67 88c0 28 1 45 10 127c-30 -28 -43 -38 -49 -38c-7 0 -14 8 -14 16c0 7 5 14 20 27
c8 7 39 39 50 52c55 287 117 420 197 420c38 0 63 -32 63 -81c0 -54 -25 -128 -64 -192c-24 -38 -57 -79 -112 -136zM260 333c81 91 125 181 125 260c0 26 -9 44 -23 44c-15 0 -32 -18 -41 -44c-19 -53 -41 -145 -61 -260z" />
    <glyph glyph-name="estimated" unicode="&#x212e;" horiz-adv-x="798" 
d="M769 311h-599c-3 0 -6 -1 -6 -4v-181c0 -8 4 -15 9 -21c57 -60 137 -98 227 -98c95 0 180 43 238 110h54c-67 -78 -174 -130 -293 -130c-204 0 -370 149 -370 333c0 183 166 332 370 332s370 -149 370 -332v-9zM634 335v181c0 9 -4 16 -10 22c-57 58 -137 94 -224 94
c-89 0 -169 -38 -226 -97c-6 -6 -10 -14 -10 -23v-177c0 -3 3 -5 6 -5h459c3 0 5 2 5 5z" />
    <glyph glyph-name="Idotaccent" unicode="&#x130;" horiz-adv-x="268" 
d="M192 0h-116v667h116v-667zM195 779c0 -34 -27 -62 -61 -62s-62 28 -62 62s28 62 62 62s61 -28 61 -62z" />
    <glyph glyph-name="Asmall" unicode="&#xf761;" horiz-adv-x="546" 
d="M534 0h-116l-44 120h-208l-43 -120h-111l203 524h115zM344 202l-75 204l-74 -204h149z" />
    <glyph glyph-name="Bsmall" unicode="&#xf762;" horiz-adv-x="504" 
d="M457 158c0 -46 -17 -83 -43 -107c-53 -50 -122 -51 -209 -51h-135v524h169c61 0 119 -4 160 -45c32 -32 42 -62 42 -100c0 -87 -69 -106 -88 -110c22 -2 104 -22 104 -111zM332 373c0 18 -6 34 -16 45c-22 24 -61 22 -94 22h-45v-136h41c34 0 72 2 95 23
c12 11 19 26 19 46zM346 158c0 16 -4 32 -18 46c-24 24 -65 23 -107 23h-44v-142h56c48 0 73 4 95 26c12 12 18 31 18 47z" />
    <glyph glyph-name="Csmall" unicode="&#xf763;" horiz-adv-x="530" 
d="M509 54c-15 -12 -80 -67 -197 -67c-148 0 -268 99 -268 269c0 176 126 279 280 279c115 0 172 -55 180 -63l-50 -71c-11 8 -54 41 -124 41c-96 0 -171 -68 -171 -179c0 -109 65 -181 164 -181c75 0 133 41 139 45z" />
    <glyph glyph-name="Dsmall" unicode="&#xf764;" horiz-adv-x="593" 
d="M549 266c0 -85 -36 -149 -75 -188c-75 -75 -178 -78 -277 -78h-127v524h144c101 0 190 -2 261 -73c47 -47 74 -112 74 -185zM436 268c0 56 -17 97 -44 124c-42 42 -92 47 -163 47h-48v-354h52c72 0 121 15 157 51c32 32 46 80 46 132z" />
    <glyph glyph-name="Esmall" unicode="&#xf765;" horiz-adv-x="455" 
d="M405 0h-335v524h329v-87h-219v-124h206v-85h-206v-139h225v-89z" />
    <glyph glyph-name="Fsmall" unicode="&#xf766;" horiz-adv-x="439" 
d="M393 437h-212v-124h201v-85h-201v-228h-111v524h323v-87z" />
    <glyph glyph-name="Gsmall" unicode="&#xf767;" horiz-adv-x="566" 
d="M509 36c-12 -6 -81 -49 -194 -49c-152 0 -271 99 -271 269c0 176 125 279 279 279c115 0 173 -55 181 -63l-50 -71c-11 8 -55 41 -125 41c-96 0 -172 -68 -172 -179c0 -117 68 -182 169 -182c41 0 68 9 79 12v96h-109v85h213v-238z" />
    <glyph glyph-name="Hsmall" unicode="&#xf768;" horiz-adv-x="571" 
d="M501 0h-113v228h-205v-228h-113v524h113v-206h205v206h113v-524z" />
    <glyph glyph-name="Ismall" unicode="&#xf769;" horiz-adv-x="253" 
d="M183 0h-113v524h113v-524z" />
    <glyph glyph-name="Jsmall" unicode="&#xf76a;" horiz-adv-x="347" 
d="M284 182c0 -61 0 -114 -41 -155c-24 -24 -64 -40 -112 -40c-70 0 -117 33 -122 38l39 74c6 -3 34 -20 66 -20c19 0 32 6 40 14c15 15 17 36 17 75v356h113v-342z" />
    <glyph glyph-name="Ksmall" unicode="&#xf76b;" horiz-adv-x="527" 
d="M516 0h-139l-194 243v-243h-113v524h113v-244l195 244h127l-212 -256z" />
    <glyph glyph-name="Lsmall" unicode="&#xf76c;" horiz-adv-x="436" 
d="M396 0h-326v524h113v-435h213v-89z" />
    <glyph glyph-name="Msmall" unicode="&#xf76d;" horiz-adv-x="747" 
d="M691 0h-109l-34 356l-133 -356h-91l-134 355l-31 -355h-103l56 524h118l145 -376l140 376h117z" />
    <glyph glyph-name="Nsmall" unicode="&#xf76e;" horiz-adv-x="571" 
d="M501 0h-99l-230 354l3 -354h-105v524h105l224 -349l-3 349h105v-524z" />
    <glyph glyph-name="Osmall" unicode="&#xf76f;" horiz-adv-x="626" 
d="M582 264c0 -167 -111 -277 -269 -277s-269 113 -269 275c0 161 110 273 270 273c159 0 268 -113 268 -271zM466 265c0 105 -65 182 -157 182c-89 0 -149 -77 -149 -187s68 -184 155 -184c103 0 151 86 151 189z" />
    <glyph glyph-name="Psmall" unicode="&#xf770;" horiz-adv-x="498" 
d="M453 363c0 -62 -28 -98 -47 -117c-49 -49 -114 -53 -180 -53h-45v-193h-111v524h153c72 0 139 -3 184 -48c29 -29 46 -69 46 -113zM342 362c0 26 -9 43 -22 56c-21 21 -59 21 -89 21h-50v-162h34c54 0 85 3 104 22c13 13 23 33 23 63z" />
    <glyph glyph-name="Qsmall" unicode="&#xf771;" horiz-adv-x="631" 
d="M587 -99c-14 -4 -55 -12 -106 -12c-97 0 -172 28 -231 105c-92 17 -206 99 -206 268c0 161 110 273 270 273c159 0 268 -113 268 -271c0 -165 -106 -250 -198 -267c14 -12 50 -30 119 -30c34 0 57 5 70 7zM466 265c0 105 -65 182 -157 182c-89 0 -149 -77 -149 -187
s68 -184 155 -184c103 0 151 86 151 189z" />
    <glyph glyph-name="Rsmall" unicode="&#xf772;" horiz-adv-x="508" 
d="M487 0h-120l-65 138c-33 71 -50 72 -105 72h-17v-210h-110v524h139c65 0 137 3 188 -48c29 -29 44 -62 44 -105c0 -36 -11 -67 -34 -90c-18 -19 -43 -32 -82 -38c53 -5 75 -65 93 -102zM331 369c0 24 -9 38 -19 48c-23 23 -58 21 -89 21h-43v-145h26c42 0 80 1 105 26
c13 13 20 31 20 50z" />
    <glyph glyph-name="Ssmall" unicode="&#xf773;" horiz-adv-x="463" 
d="M415 153c0 -97 -78 -166 -198 -166c-109 0 -175 54 -185 64l49 71c8 -5 65 -46 129 -46c65 0 93 32 93 69c0 17 -7 30 -16 39c-37 37 -140 47 -195 102c-19 19 -41 48 -41 98c0 92 79 151 187 151s165 -51 172 -59l-50 -69c-19 12 -59 42 -116 42c-54 0 -85 -27 -85 -58
c0 -13 3 -22 14 -33c31 -31 142 -46 204 -108c24 -24 38 -58 38 -97z" />
    <glyph glyph-name="Tsmall" unicode="&#xf774;" horiz-adv-x="476" 
d="M449 437h-154v-437h-113v437h-155v87h422v-87z" />
    <glyph glyph-name="Usmall" unicode="&#xf775;" horiz-adv-x="556" 
d="M493 252c0 -109 -6 -163 -51 -208c-34 -34 -87 -57 -164 -57c-64 0 -126 18 -164 56c-53 53 -51 102 -51 166v315h113v-329c0 -32 0 -64 26 -90c18 -18 49 -26 80 -26s58 10 73 25c25 23 27 50 28 82v50v288h110v-272z" />
    <glyph glyph-name="Vsmall" unicode="&#xf776;" horiz-adv-x="549" 
d="M527 524l-198 -524h-111l-196 524h117l137 -397l140 397h111z" />
    <glyph glyph-name="Wsmall" unicode="&#xf777;" horiz-adv-x="780" 
d="M744 524l-136 -524h-119l-97 385l-103 -385h-119l-134 524h113l84 -380l102 380h118l99 -379l87 379h105z" />
    <glyph glyph-name="Xsmall" unicode="&#xf778;" horiz-adv-x="528" 
d="M506 0h-124l-120 186l-121 -186h-119l182 271l-171 253h125l108 -172l112 172h118l-172 -252z" />
    <glyph glyph-name="Ysmall" unicode="&#xf779;" horiz-adv-x="510" 
d="M489 524l-178 -315v-209h-112v209l-178 315h118l122 -225l120 225h108z" />
    <glyph glyph-name="Zsmall" unicode="&#xf77a;" horiz-adv-x="499" 
d="M451 0h-403v73l260 364h-247v87h382v-77l-254 -358h262v-89z" />
    <glyph glyph-name="Aacutesmall" unicode="&#xf7e1;" horiz-adv-x="546" 
d="M534 0h-116l-44 120h-208l-43 -120h-111l203 524h115zM344 202l-75 204l-74 -204h149zM396 660l-226 -90l-34 62l217 115z" />
    <glyph glyph-name="Agravesmall" unicode="&#xf7e0;" horiz-adv-x="546" 
d="M534 0h-116l-44 120h-208l-43 -120h-111l203 524h115zM344 202l-75 204l-74 -204h149zM405 632l-34 -62l-226 90l43 87z" />
    <glyph glyph-name="Acircumflexsmall" unicode="&#xf7e2;" horiz-adv-x="546" 
d="M534 0h-116l-44 120h-208l-43 -120h-111l203 524h115zM344 202l-75 204l-74 -204h149zM433 625l-39 -55l-125 71l-125 -70l-39 58l164 117z" />
    <glyph glyph-name="Atildesmall" unicode="&#xf7e3;" horiz-adv-x="546" 
d="M534 0h-116l-44 120h-208l-43 -120h-111l203 524h115zM344 202l-75 204l-74 -204h149zM442 651c-15 -16 -63 -68 -117 -68c-43 0 -73 29 -109 29c-25 0 -53 -24 -66 -33l-49 54c17 16 63 66 117 66c43 0 72 -28 108 -28c29 0 56 23 68 34z" />
    <glyph glyph-name="Adieresissmall" unicode="&#xf7e4;" horiz-adv-x="546" 
d="M534 0h-116l-44 120h-208l-43 -120h-111l203 524h115zM344 202l-75 204l-74 -204h149zM420 657c0 -34 -27 -62 -61 -62s-62 28 -62 62s28 62 62 62s61 -28 61 -62zM240 657c0 -34 -27 -62 -61 -62s-62 28 -62 62s28 62 62 62s61 -28 61 -62z" />
    <glyph glyph-name="Aringsmall" unicode="&#xf7e5;" horiz-adv-x="546" 
d="M534 0h-116l-44 120h-208l-43 -120h-111l203 524h115zM344 202l-75 204l-74 -204h149zM375 676c0 -58 -47 -106 -105 -106s-106 48 -106 106c0 59 48 106 106 106c59 0 105 -48 105 -106zM319 676c0 28 -23 50 -50 50s-49 -23 -49 -50s22 -49 49 -49c28 0 50 22 50 49z
" />
    <glyph glyph-name="AEsmall" unicode="&#xf7e6;" horiz-adv-x="763" 
d="M713 0h-335v122h-176l-69 -122h-113l314 524h373v-87h-219v-124h206v-85h-206v-139h225v-89zM378 205v229l-129 -229h129z" />
    <glyph glyph-name="Ccedillasmall" unicode="&#xf7e7;" horiz-adv-x="530" 
d="M509 54c-15 -12 -80 -67 -195 -67l-5 -34c5 2 13 3 22 3c53 0 90 -34 90 -85c0 -59 -51 -93 -102 -93c-40 0 -70 16 -79 24l20 41c3 -2 24 -14 52 -14c40 0 49 24 49 40c0 22 -17 37 -42 37c-19 0 -36 -8 -42 -12l-31 17l14 80c-123 21 -216 115 -216 265
c0 176 126 279 280 279c115 0 172 -55 180 -63l-50 -71c-11 8 -54 41 -124 41c-96 0 -171 -68 -171 -179c0 -109 65 -181 164 -181c75 0 133 41 139 45z" />
    <glyph glyph-name="Ethsmall" unicode="&#xf7f0;" horiz-adv-x="593" 
d="M589 266c0 -85 -36 -149 -75 -188c-75 -75 -178 -78 -277 -78h-127v230h-81v81h81v213h144c101 0 190 -2 261 -73c47 -47 74 -112 74 -185zM476 268c0 56 -17 97 -44 124c-42 42 -92 47 -163 47h-48v-128h132v-81h-132v-145h52c72 0 121 15 157 51c32 32 46 80 46 132z
" />
    <glyph glyph-name="Eacutesmall" unicode="&#xf7e9;" horiz-adv-x="455" 
d="M405 0h-335v524h329v-87h-219v-124h206v-85h-206v-139h225v-89zM367 660l-226 -90l-34 62l217 115z" />
    <glyph glyph-name="Egravesmall" unicode="&#xf7e8;" horiz-adv-x="455" 
d="M405 0h-335v524h329v-87h-219v-124h206v-85h-206v-139h225v-89zM369 632l-34 -62l-226 90l43 87z" />
    <glyph glyph-name="Ecircumflexsmall" unicode="&#xf7ea;" horiz-adv-x="455" 
d="M405 0h-335v524h329v-87h-219v-124h206v-85h-206v-139h225v-89zM399 625l-39 -55l-125 71l-125 -70l-39 58l164 117z" />
    <glyph glyph-name="Edieresissmall" unicode="&#xf7eb;" horiz-adv-x="455" 
d="M405 0h-335v524h329v-87h-219v-124h206v-85h-206v-139h225v-89zM387 657c0 -34 -27 -62 -61 -62s-62 28 -62 62s28 62 62 62s61 -28 61 -62zM207 657c0 -34 -27 -62 -61 -62s-62 28 -62 62s28 62 62 62s61 -28 61 -62z" />
    <glyph glyph-name="Iacutesmall" unicode="&#xf7ed;" horiz-adv-x="253" 
d="M183 0h-113v524h113v-524zM256 660l-226 -90l-34 62l217 115z" />
    <glyph glyph-name="Igravesmall" unicode="&#xf7ec;" horiz-adv-x="253" 
d="M183 0h-113v524h113v-524zM257 632l-34 -62l-226 90l43 87z" />
    <glyph glyph-name="Icircumflexsmall" unicode="&#xf7ee;" horiz-adv-x="253" 
d="M183 0h-113v524h113v-524zM290 625l-39 -55l-125 71l-125 -70l-39 58l164 117z" />
    <glyph glyph-name="Idieresissmall" unicode="&#xf7ef;" horiz-adv-x="253" 
d="M183 0h-113v524h113v-524zM278 657c0 -34 -27 -62 -61 -62s-62 28 -62 62s28 62 62 62s61 -28 61 -62zM98 657c0 -34 -27 -62 -61 -62s-62 28 -62 62s28 62 62 62s61 -28 61 -62z" />
    <glyph glyph-name="dotlessismall" horiz-adv-x="253" 
d="M183 0h-113v524h113v-524z" />
    <glyph glyph-name="Lslashsmall" unicode="&#xf6f9;" horiz-adv-x="479" 
d="M439 0h-326v183l-51 -36l-51 70l102 73v234h113v-164l77 54l48 -72l-125 -87v-166h213v-89z" />
    <glyph glyph-name="Ntildesmall" unicode="&#xf7f1;" horiz-adv-x="571" 
d="M501 0h-99l-230 354l3 -354h-105v524h105l224 -349l-3 349h105v-524zM451 651c-15 -16 -63 -68 -117 -68c-43 0 -73 29 -109 29c-25 0 -53 -24 -66 -33l-49 54c17 16 63 66 117 66c43 0 72 -28 108 -28c29 0 56 23 68 34z" />
    <glyph glyph-name="Oacutesmall" unicode="&#xf7f3;" horiz-adv-x="626" 
d="M582 264c0 -167 -111 -277 -269 -277s-269 113 -269 275c0 161 110 273 270 273c159 0 268 -113 268 -271zM466 265c0 105 -65 182 -157 182c-89 0 -149 -77 -149 -187s68 -184 155 -184c103 0 151 86 151 189zM439 660l-225 -90l-34 62l216 116z" />
    <glyph glyph-name="Ogravesmall" unicode="&#xf7f2;" horiz-adv-x="626" 
d="M582 264c0 -167 -111 -277 -269 -277s-269 113 -269 275c0 161 110 273 270 273c159 0 268 -113 268 -271zM466 265c0 105 -65 182 -157 182c-89 0 -149 -77 -149 -187s68 -184 155 -184c103 0 151 86 151 189zM449 632l-34 -62l-226 90l43 87z" />
    <glyph glyph-name="Ocircumflexsmall" unicode="&#xf7f4;" horiz-adv-x="626" 
d="M582 264c0 -167 -111 -277 -269 -277s-269 113 -269 275c0 161 110 273 270 273c159 0 268 -113 268 -271zM466 265c0 105 -65 182 -157 182c-89 0 -149 -77 -149 -187s68 -184 155 -184c103 0 151 86 151 189zM477 625l-39 -55l-125 71l-125 -70l-39 58l164 117z" />
    <glyph glyph-name="Otildesmall" unicode="&#xf7f5;" horiz-adv-x="626" 
d="M582 264c0 -167 -111 -277 -269 -277s-269 113 -269 275c0 161 110 273 270 273c159 0 268 -113 268 -271zM466 265c0 105 -65 182 -157 182c-89 0 -149 -77 -149 -187s68 -184 155 -184c103 0 151 86 151 189zM483 651c-15 -16 -63 -68 -117 -68c-43 0 -73 29 -109 29
c-25 0 -53 -24 -66 -33l-49 54c17 16 63 66 117 66c43 0 72 -28 108 -28c29 0 56 23 68 34z" />
    <glyph glyph-name="Odieresissmall" unicode="&#xf7f6;" horiz-adv-x="626" 
d="M582 264c0 -167 -111 -277 -269 -277s-269 113 -269 275c0 161 110 273 270 273c159 0 268 -113 268 -271zM466 265c0 105 -65 182 -157 182c-89 0 -149 -77 -149 -187s68 -184 155 -184c103 0 151 86 151 189zM465 657c0 -34 -27 -62 -61 -62s-62 28 -62 62s28 62 62 62
s61 -28 61 -62zM285 657c0 -34 -27 -62 -61 -62s-62 28 -62 62s28 62 62 62s61 -28 61 -62z" />
    <glyph glyph-name="Oslashsmall" unicode="&#xf7f8;" horiz-adv-x="626" 
d="M582 264c0 -167 -111 -277 -269 -277c-58 0 -93 15 -104 19l-41 -68l-75 42l43 68c-10 8 -92 73 -92 214c0 161 110 273 270 273c60 0 96 -16 103 -19l39 67l75 -42l-40 -67c8 -7 91 -72 91 -210zM466 265c0 70 -26 106 -33 115l-175 -293c5 -3 30 -11 57 -11
c103 0 151 86 151 189zM370 434c-4 2 -27 13 -61 13c-89 0 -149 -77 -149 -187c0 -77 32 -115 34 -117z" />
    <glyph glyph-name="OEsmall" unicode="&#xf6fa;" horiz-adv-x="760" 
d="M710 0h-331c-101 0 -190 2 -261 73c-47 47 -74 112 -74 185c0 85 36 149 75 188c75 75 178 78 277 78h308v-87h-221v-124h207v-85h-207v-139h227v-89zM373 85v354h-13c-72 0 -121 -15 -157 -51c-32 -32 -46 -80 -46 -132c0 -56 17 -97 44 -124c42 -42 92 -47 163 -47h9z
" />
    <glyph glyph-name="Thornsmall" unicode="&#xf7fe;" horiz-adv-x="498" 
d="M453 271c0 -62 -28 -98 -47 -117c-49 -49 -114 -53 -180 -53h-45v-101h-111v524h111v-92h42c72 0 139 -3 184 -48c29 -29 46 -69 46 -113zM342 270c0 26 -9 43 -22 56c-21 21 -59 21 -89 21h-50v-162h34c54 0 85 3 104 22c13 13 23 33 23 63z" />
    <glyph glyph-name="Scaronsmall" unicode="&#xf6fd;" horiz-adv-x="463" 
d="M415 153c0 -97 -78 -166 -198 -166c-109 0 -175 54 -185 64l49 71c8 -5 65 -46 129 -46c65 0 93 32 93 69c0 17 -7 30 -16 39c-37 37 -140 47 -195 102c-19 19 -41 48 -41 98c0 92 79 151 187 151s165 -51 172 -59l-50 -69c-19 12 -59 42 -116 42c-54 0 -85 -27 -85 -58
c0 -13 3 -22 14 -33c31 -31 142 -46 204 -108c24 -24 38 -58 38 -97zM401 687l-164 -117l-164 121l39 55l125 -71l125 70z" />
    <glyph glyph-name="Uacutesmall" unicode="&#xf7fa;" horiz-adv-x="556" 
d="M493 252c0 -109 -6 -163 -51 -208c-34 -34 -87 -57 -164 -57c-64 0 -126 18 -164 56c-53 53 -51 102 -51 166v315h113v-329c0 -32 0 -64 26 -90c18 -18 49 -26 80 -26s58 10 73 25c25 23 27 50 28 82v50v288h110v-272zM410 660l-225 -90l-34 62l216 116z" />
    <glyph glyph-name="Ugravesmall" unicode="&#xf7f9;" horiz-adv-x="556" 
d="M493 252c0 -109 -6 -163 -51 -208c-34 -34 -87 -57 -164 -57c-64 0 -126 18 -164 56c-53 53 -51 102 -51 166v315h113v-329c0 -32 0 -64 26 -90c18 -18 49 -26 80 -26s58 10 73 25c25 23 27 50 28 82v50v288h110v-272zM407 632l-34 -62l-225 90l43 88z" />
    <glyph glyph-name="Ucircumflexsmall" unicode="&#xf7fb;" horiz-adv-x="556" 
d="M446 625l-39 -55l-125 71l-125 -70l-39 58l164 117zM493 252c0 -109 -6 -163 -51 -208c-34 -34 -87 -57 -164 -57c-64 0 -126 18 -164 56c-53 53 -51 102 -51 166v315h113v-329c0 -32 0 -64 26 -90c18 -18 49 -26 80 -26s58 10 73 25c25 23 27 50 28 82v50v288h110v-272z
" />
    <glyph glyph-name="Udieresissmall" unicode="&#xf7fc;" horiz-adv-x="556" 
d="M493 252c0 -109 -6 -163 -51 -208c-34 -34 -87 -57 -164 -57c-64 0 -126 18 -164 56c-53 53 -51 102 -51 166v315h113v-329c0 -32 0 -64 26 -90c18 -18 49 -26 80 -26s58 10 73 25c25 23 27 50 28 82v50v288h110v-272zM433 657c0 -34 -27 -62 -61 -62s-62 28 -62 62
s28 62 62 62s61 -28 61 -62zM253 657c0 -34 -27 -62 -61 -62s-62 28 -62 62s28 62 62 62s61 -28 61 -62z" />
    <glyph glyph-name="Yacutesmall" unicode="&#xf7fd;" horiz-adv-x="510" 
d="M489 524l-178 -315v-209h-112v209l-178 315h118l122 -225l120 225h108zM392 660l-225 -90l-34 62l216 116z" />
    <glyph glyph-name="Ydieresissmall" unicode="&#xf7ff;" horiz-adv-x="510" 
d="M489 524l-178 -315v-209h-112v209l-178 315h118l122 -225l120 225h108zM412 657c0 -34 -27 -62 -61 -62s-62 28 -62 62s28 62 62 62s61 -28 61 -62zM232 657c0 -34 -27 -62 -61 -62s-62 28 -62 62s28 62 62 62s61 -28 61 -62z" />
    <glyph glyph-name="Zcaronsmall" unicode="&#xf6ff;" horiz-adv-x="499" 
d="M451 0h-403v73l260 364h-247v87h382v-77l-254 -358h262v-89zM416 687l-164 -117l-164 121l39 55l125 -71l125 70z" />
    <glyph glyph-name="germandbls.small" horiz-adv-x="905" 
d="M415 153c0 -97 -78 -166 -198 -166c-109 0 -175 54 -185 64l49 71c8 -5 65 -46 129 -46c65 0 93 32 93 69c0 17 -7 30 -16 39c-37 37 -140 47 -195 102c-19 19 -41 48 -41 98c0 92 79 151 187 151s165 -51 172 -59l-50 -69c-19 12 -59 42 -116 42c-54 0 -85 -27 -85 -58
c0 -13 3 -22 14 -33c31 -31 142 -46 204 -108c24 -24 38 -58 38 -97zM857 153c0 -97 -78 -166 -198 -166c-109 0 -175 54 -185 64l49 71c8 -5 65 -46 129 -46c65 0 93 32 93 69c0 17 -7 30 -16 39c-37 37 -140 47 -195 102c-19 19 -41 48 -41 98c0 92 79 151 187 151
s165 -51 172 -59l-50 -69c-19 12 -59 42 -116 42c-54 0 -85 -27 -85 -58c0 -13 3 -22 14 -33c31 -31 142 -46 204 -108c24 -24 38 -58 38 -97z" />
    <glyph glyph-name="ampersandsmall" unicode="&#xf726;" horiz-adv-x="597" 
d="M546 -2l-19 -1c-73 0 -102 23 -126 45c-7 -5 -62 -55 -161 -55c-107 0 -191 70 -191 166c0 44 19 80 42 103c22 22 43 35 67 44c-12 12 -53 53 -53 102c0 80 74 133 163 133c86 0 146 -45 146 -122c0 -86 -87 -116 -121 -132l108 -114c12 15 32 47 35 121h87
c2 -99 -42 -163 -58 -181c17 -16 36 -30 81 -30v-79zM320 412c0 22 -15 46 -53 46c-44 0 -62 -28 -62 -54c0 -23 18 -43 39 -67c14 7 76 30 76 75zM340 103l-127 137c-8 -5 -60 -28 -60 -84c0 -42 33 -82 97 -82c58 0 85 25 90 29z" />
    <glyph glyph-name="zerooldstyle" unicode="&#xf730;" horiz-adv-x="632" 
d="M585 264c0 -167 -111 -277 -269 -277s-269 113 -269 275c0 161 110 273 270 273c159 0 268 -113 268 -271zM471 265c0 106 -66 184 -159 184c-90 0 -151 -78 -151 -189s69 -186 157 -186c104 0 153 87 153 191z" />
    <glyph glyph-name="oneoldstyle" unicode="&#xf731;" horiz-adv-x="362" 
d="M289 0h-112v402l-125 -81l-52 72l202 131h87v-524z" />
    <glyph glyph-name="twooldstyle" unicode="&#xf732;" horiz-adv-x="442" 
d="M404 0h-387v77c11 8 132 103 196 169c37 38 69 77 69 123s-36 77 -86 77c-60 0 -108 -44 -123 -58l-57 63c7 9 69 85 189 85c113 0 188 -70 188 -164c0 -68 -40 -117 -82 -160c-52 -54 -123 -108 -141 -123h234v-89z" />
    <glyph glyph-name="threeoldstyle" unicode="&#xf733;" horiz-adv-x="453" 
d="M423 71c0 -116 -90 -199 -230 -199c-124 0 -188 60 -198 72l53 68c11 -8 59 -51 136 -51c80 0 128 44 128 105c0 25 -10 48 -27 65c-28 28 -62 37 -134 37h-20v86h19c69 0 103 13 128 39c16 16 23 37 23 59c0 50 -39 94 -108 94s-123 -50 -131 -57l-57 64
c6 8 75 83 202 83c118 0 201 -75 201 -177c0 -59 -35 -128 -113 -145c85 -13 128 -72 128 -143z" />
    <glyph glyph-name="fouroldstyle" unicode="&#xf734;" horiz-adv-x="517" 
d="M517 13h-88v-133h-108v133h-306v74l297 437h117v-426h88v-85zM321 98v293l-193 -293h193z" />
    <glyph glyph-name="fiveoldstyle" unicode="&#xf735;" horiz-adv-x="507" 
d="M465 98c0 -137 -93 -226 -242 -226c-119 0 -181 55 -188 62l52 70c6 -4 53 -43 131 -43c92 0 135 59 135 130c0 56 -34 127 -134 127c-61 0 -98 -27 -106 -33l-39 24v315h366v-88h-264v-147c8 4 35 15 79 15c127 0 210 -84 210 -206z" />
    <glyph glyph-name="sixoldstyle" unicode="&#xf736;" horiz-adv-x="554" 
d="M512 216c0 -133 -90 -229 -224 -229c-160 0 -241 139 -241 317c0 192 85 347 266 347c120 0 175 -54 185 -64l-48 -71c-20 15 -68 46 -132 46c-133 0 -169 -125 -169 -225c26 63 97 93 159 93c123 0 204 -91 204 -214zM408 212c0 76 -43 130 -113 130
c-74 0 -124 -59 -124 -133c0 -78 50 -133 121 -133s116 59 116 136z" />
    <glyph glyph-name="sevenoldstyle" unicode="&#xf737;" horiz-adv-x="468" 
d="M446 440l-245 -560h-115l252 554h-339v90h447v-84z" />
    <glyph glyph-name="eightoldstyle" unicode="&#xf738;" horiz-adv-x="547" 
d="M500 179c0 -120 -90 -192 -226 -192c-134 0 -227 73 -227 193c0 89 60 138 113 152c-46 15 -96 59 -96 137c0 109 85 181 209 181c125 0 210 -71 210 -179c0 -85 -53 -125 -95 -139c58 -18 112 -63 112 -153zM383 467c0 52 -40 96 -109 96c-68 0 -109 -45 -109 -95
c0 -54 40 -99 111 -99c67 0 107 45 107 98zM399 182c0 61 -44 106 -125 106c-83 0 -126 -45 -126 -105c0 -61 45 -109 127 -109c81 0 124 46 124 108z" />
    <glyph glyph-name="nineoldstyle" unicode="&#xf739;" horiz-adv-x="554" 
d="M507 218c0 -192 -85 -347 -266 -347c-120 0 -175 54 -185 64l48 71c20 -15 68 -46 132 -46c133 0 169 125 169 225c-26 -63 -97 -93 -159 -93c-123 0 -204 91 -204 214c0 133 90 229 224 229c160 0 241 -139 241 -317zM383 313c0 78 -50 133 -121 133s-116 -59 -116 -136
c0 -76 43 -130 113 -130c74 0 124 59 124 133z" />
    <glyph glyph-name="Eurooldstyle" horiz-adv-x="571" 
d="M574 58c-6 -6 -73 -72 -199 -72c-211 0 -254 202 -256 241h-72v76h66c0 6 -1 19 -1 33c0 13 0 15 1 29h-66v76h71c2 28 43 241 257 241c121 0 188 -69 192 -75l-52 -65c-11 9 -58 50 -132 50c-135 0 -154 -132 -156 -151h230v-76h-238c-1 -14 -1 -16 -1 -29
c0 -14 1 -27 1 -33h238v-76h-229c1 -15 15 -149 155 -149c77 0 131 43 138 48z" />
    <glyph glyph-name="dollaroldstyle" horiz-adv-x="495" 
d="M454 194c0 -119 -86 -183 -178 -197v-103h-83v99c-113 7 -190 65 -196 72l54 79c13 -8 79 -55 161 -55c78 0 121 38 121 96c0 67 -76 88 -142 116c-53 22 -173 64 -173 189c0 111 90 169 175 181v91h83v-89c105 -7 167 -64 171 -68l-55 -72c-5 4 -62 49 -140 49
c-69 0 -118 -34 -118 -83c0 -50 38 -66 127 -102c98 -40 193 -84 193 -203z" />
    <glyph glyph-name="centoldstyle" horiz-adv-x="470" 
d="M470 55c-2 -3 -58 -45 -138 -54v-105h-83v105c-123 18 -202 115 -202 247c0 135 83 236 202 259v98h83v-95c75 -7 127 -47 131 -54l-45 -69c-8 5 -49 34 -110 34c-95 0 -151 -81 -151 -165c0 -97 54 -166 146 -166c68 0 120 35 124 37z" />
    <glyph glyph-name="sterlingoldstyle" horiz-adv-x="539" 
d="M542 607l-54 -67c-13 9 -61 48 -128 48c-77 0 -126 -50 -126 -140c0 -41 6 -76 7 -87h194v-89h-184c1 -7 2 -27 2 -38c0 -55 -13 -110 -48 -138h324v-96h-482v87c71 14 96 61 96 136c0 20 -2 39 -3 49h-91v89h82c-4 29 -7 58 -7 87c0 146 87 234 230 234
c121 0 182 -67 188 -75z" />
    <glyph glyph-name="florinoldstyle" horiz-adv-x="475" 
d="M508 650l-31 -81c-10 4 -43 17 -73 17c-61 0 -74 -34 -93 -124l-21 -101h146l-19 -91h-147l-55 -280c-11 -57 -25 -134 -64 -173c-31 -31 -73 -48 -122 -48c-67 0 -114 28 -122 33l33 82c9 -4 38 -17 70 -17c24 0 42 7 53 18c19 19 27 52 40 117l55 268h-126l19 91h127
l22 112c14 73 27 125 61 159c36 36 80 50 126 50c65 0 114 -28 121 -32z" />
    <glyph glyph-name="yenoldstyle" horiz-adv-x="523" 
d="M526 667l-171 -305h106v-76h-144v-62h143v-75h-143v-149h-111v149h-148v75h148v62h-149v76h107l-167 305h119l150 -296l152 296h108z" />
    <glyph glyph-name="zero.numr" unicode="&#xf661;" 
d="M350 498c0 -110 -56 -179 -151 -179c-92 0 -148 68 -148 174c0 110 56 180 150 180c91 0 149 -70 149 -175zM278 496c0 78 -31 117 -76 117c-46 0 -78 -41 -78 -120c0 -76 29 -115 75 -115c60 0 79 58 79 118z" />
    <glyph glyph-name="one.numr" unicode="&#xf662;" 
d="M266 325h-71v258l-75 -48l-35 51l126 81h55v-342z" />
    <glyph glyph-name="two.numr" unicode="&#xf663;" 
d="M315 325h-229v52c71 59 154 133 154 187c0 30 -18 50 -50 50c-31 0 -56 -22 -74 -37l-35 42c23 29 66 54 116 54c64 0 113 -41 113 -107c0 -71 -62 -127 -127 -182h132v-59z" />
    <glyph glyph-name="three.numr" unicode="&#xf664;" 
d="M319 426c0 -67 -51 -109 -127 -109c-71 0 -105 34 -114 44l35 44c7 -5 34 -28 72 -28c42 0 63 20 63 47c0 39 -36 47 -78 47h-18v56h15c28 0 75 1 75 45c0 22 -18 41 -50 41c-38 0 -65 -24 -71 -30l-36 42c22 26 65 48 115 48c64 0 112 -38 112 -97
c0 -28 -17 -66 -52 -75c39 -6 59 -42 59 -75z" />
    <glyph glyph-name="four.numr" unicode="&#xf665;" 
d="M339 394h-44v-69h-69v69h-166v48l167 225h68v-215h44v-58zM226 452v121l-86 -121h86z" />
    <glyph glyph-name="five.numr" unicode="&#xf666;" 
d="M319 439c0 -75 -52 -120 -134 -120c-69 0 -107 38 -109 41l33 45c7 -6 39 -27 73 -27c41 0 66 19 66 57c0 32 -21 58 -67 58c-27 0 -49 -13 -57 -17l-26 16v175h204v-60h-137v-63c7 2 19 5 36 5c70 0 118 -43 118 -110z" />
    <glyph glyph-name="six.numr" unicode="&#xf667;" 
d="M329 441c0 -73 -51 -124 -126 -124c-86 0 -133 72 -133 171c0 104 48 185 146 185c65 0 103 -34 105 -38l-30 -45c-4 3 -33 25 -71 25c-58 0 -79 -45 -84 -93c16 19 42 35 79 35c68 0 114 -49 114 -116zM263 439c0 35 -22 60 -56 60c-37 0 -60 -27 -60 -62
c0 -36 24 -61 58 -61c35 0 58 27 58 63z" />
    <glyph glyph-name="seven.numr" unicode="&#xf668;" 
d="M324 618l-133 -293h-75l135 283h-170v59h243v-49z" />
    <glyph glyph-name="eight.numr" unicode="&#xf669;" 
d="M332 423c0 -65 -53 -106 -130 -106c-78 0 -131 40 -131 106c0 38 20 68 50 81c-25 12 -41 36 -41 70c0 61 50 99 120 99c71 0 122 -38 122 -98c0 -37 -21 -60 -43 -72c31 -11 53 -38 53 -80zM253 573c0 27 -20 45 -52 45s-52 -18 -52 -45c0 -28 21 -46 53 -46
c31 0 51 18 51 46zM263 424c0 32 -23 50 -62 50c-40 0 -62 -19 -62 -50s22 -50 63 -50c39 0 61 19 61 50z" />
    <glyph glyph-name="nine.numr" unicode="&#xf66a;" 
d="M332 503c0 -104 -48 -186 -146 -186c-66 0 -103 35 -106 38l31 46c3 -3 33 -25 70 -25c58 0 78 44 83 93c-16 -22 -47 -35 -77 -35c-68 0 -114 48 -114 116c0 71 50 123 125 123c89 0 134 -74 134 -170zM255 552c0 37 -25 63 -59 63c-35 0 -57 -28 -57 -64
c0 -35 21 -60 55 -60c36 0 61 27 61 61z" />
    <glyph glyph-name="parenleft.numr" unicode="&#xf631;" horiz-adv-x="238" 
d="M51 494c0 132 95 204 125 225l35 -45c-23 -20 -87 -81 -87 -178c0 -98 65 -161 88 -180l-35 -45c-29 19 -126 92 -126 223z" />
    <glyph glyph-name="parenright.numr" unicode="&#xf632;" horiz-adv-x="238" 
d="M187 494c0 -132 -96 -202 -126 -223l-35 45c23 19 88 81 88 178c0 98 -65 161 -89 180l36 45c29 -19 126 -94 126 -225z" />
    <glyph glyph-name="zero.dnom" unicode="&#xf655;" 
d="M350 173c0 -110 -56 -179 -151 -179c-92 0 -148 68 -148 174c0 110 56 180 150 180c91 0 149 -70 149 -175zM278 171c0 78 -31 117 -76 117c-46 0 -78 -41 -78 -120c0 -76 29 -115 75 -115c60 0 79 58 79 118z" />
    <glyph glyph-name="one.dnom" unicode="&#xf656;" 
d="M266 0h-71v258l-75 -48l-35 51l126 81h55v-342z" />
    <glyph glyph-name="two.dnom" unicode="&#xf657;" 
d="M315 0h-229v52c70 59 154 133 154 188c0 29 -18 49 -50 49c-31 0 -56 -22 -74 -37l-35 42c23 29 66 55 116 55c64 0 113 -43 113 -108c0 -71 -62 -125 -127 -182h132v-59z" />
    <glyph glyph-name="three.dnom" unicode="&#xf658;" 
d="M319 101c0 -67 -51 -109 -127 -109c-71 0 -105 33 -114 44l35 44c7 -5 34 -28 72 -28c42 0 63 20 63 47c0 39 -36 47 -78 47h-18v56h15c28 0 75 1 75 45c0 22 -18 41 -50 41c-38 0 -65 -24 -71 -30l-36 42c22 26 65 48 115 48c64 0 112 -39 112 -97
c0 -29 -17 -66 -52 -75c39 -6 59 -42 59 -75z" />
    <glyph glyph-name="four.dnom" unicode="&#xf659;" 
d="M339 69h-44v-69h-69v69h-166v49l167 224h68v-215h44v-58zM226 127v121l-86 -121h86z" />
    <glyph glyph-name="five.dnom" unicode="&#xf65a;" 
d="M319 114c0 -75 -52 -120 -134 -120c-69 0 -107 38 -109 41l33 46c7 -7 39 -28 73 -28c41 0 66 20 66 56c0 33 -21 59 -67 59c-27 0 -49 -13 -57 -17l-26 16v175h204v-60h-137v-63c7 2 19 6 36 6c70 0 118 -44 118 -111z" />
    <glyph glyph-name="six.dnom" unicode="&#xf65b;" 
d="M329 116c0 -73 -51 -124 -126 -124c-86 0 -133 72 -133 171c0 104 48 185 146 185c65 0 103 -34 105 -38l-30 -45c-4 3 -33 25 -71 25c-58 0 -79 -45 -84 -93c16 19 42 35 79 35c68 0 114 -49 114 -116zM263 114c0 35 -22 60 -56 60c-37 0 -60 -27 -60 -62
c0 -36 24 -61 58 -61c35 0 58 27 58 63z" />
    <glyph glyph-name="seven.dnom" unicode="&#xf65c;" 
d="M324 294l-133 -294h-75l135 284h-170v58h243v-48z" />
    <glyph glyph-name="eight.dnom" unicode="&#xf65d;" 
d="M332 98c0 -65 -53 -106 -130 -106c-78 0 -131 40 -131 106c0 38 20 68 50 80c-25 13 -41 37 -41 71c0 60 50 99 120 99c71 0 122 -38 122 -98c0 -37 -21 -60 -43 -72c31 -11 53 -38 53 -80zM253 248c0 27 -20 45 -52 45s-52 -18 -52 -45c0 -29 21 -46 53 -46
c31 0 51 17 51 46zM263 99c0 32 -23 50 -62 50c-40 0 -62 -19 -62 -50s22 -50 63 -50c39 0 61 19 61 50z" />
    <glyph glyph-name="nine.dnom" unicode="&#xf65e;" 
d="M332 178c0 -104 -48 -186 -146 -186c-66 0 -103 35 -106 38l31 46c3 -3 33 -25 70 -25c58 0 78 44 83 93c-16 -22 -47 -35 -77 -35c-68 0 -114 48 -114 116c0 71 50 123 125 123c89 0 134 -74 134 -170zM255 227c0 37 -25 63 -59 63c-35 0 -57 -28 -57 -64
c0 -35 21 -60 55 -60c36 0 61 26 61 61z" />
    <glyph glyph-name="parenleft.dnom" unicode="&#xf62c;" horiz-adv-x="238" 
d="M51 170c0 132 95 204 125 225l35 -45c-23 -20 -87 -81 -87 -179c0 -97 65 -160 88 -179l-35 -45c-29 19 -126 92 -126 223z" />
    <glyph glyph-name="parenright.dnom" unicode="&#xf62d;" horiz-adv-x="238" 
d="M187 170c0 -132 -96 -202 -126 -223l-35 45c23 19 88 81 88 178c0 98 -65 161 -89 180l36 45c29 -19 126 -94 126 -225z" />
    <glyph glyph-name="Acute" unicode="&#xf6c9;" horiz-adv-x="405" 
d="M332 804l-225 -90l-34 62l216 116z" />
    <glyph glyph-name="Grave" unicode="&#xf6ce;" horiz-adv-x="405" 
d="M298 714l-225 90l43 88l216 -116z" />
    <glyph glyph-name="Circumflex" unicode="&#xeff7;" horiz-adv-x="405" 
d="M367 769l-39 -55l-125 71l-125 -70l-39 58l164 117z" />
    <glyph glyph-name="Tilde" unicode="&#xeff5;" horiz-adv-x="405" 
d="M373 787c-15 -16 -63 -68 -117 -68c-43 0 -73 29 -109 29c-25 0 -53 -24 -66 -33l-49 54c17 16 63 66 117 66c43 0 72 -28 108 -28c29 0 56 23 68 34z" />
    <glyph glyph-name="Dieresis" unicode="&#xf6cb;" horiz-adv-x="405" 
d="M355 779c0 -34 -27 -62 -61 -62s-62 28 -62 62s28 62 62 62s61 -28 61 -62zM174 779c0 -34 -27 -62 -61 -62s-62 28 -62 62s28 62 62 62s61 -28 61 -62z" />
    <glyph glyph-name="Macron" unicode="&#xf6d0;" horiz-adv-x="405" 
d="M370 731h-336v74h336v-74z" />
    <glyph glyph-name="Breve" unicode="&#xefee;" horiz-adv-x="405" 
d="M346 875c-5 -89 -59 -145 -143 -145s-139 56 -144 145h77c5 -43 28 -63 67 -63s61 20 66 63h77z" />
    <glyph glyph-name="Ring" unicode="&#xfff3;" horiz-adv-x="405" 
d="M308 821c0 -58 -47 -106 -105 -106s-106 48 -106 106c0 59 48 106 106 106c59 0 105 -48 105 -106zM252 821c0 28 -23 50 -50 50s-49 -23 -49 -50s22 -49 49 -49c28 0 50 22 50 49z" />
    <glyph glyph-name="Caron" unicode="&#xf6ca;" horiz-adv-x="405" 
d="M367 832l-164 -117l-164 121l39 55l125 -71l125 70z" />
    <glyph glyph-name="Hungarumlaut" unicode="&#xf6cf;" horiz-adv-x="405" 
d="M354 881l-75 -172l-79 27l58 180zM206 881l-75 -172l-80 27l58 180z" />
    <glyph glyph-name="Dotaccent" unicode="&#xefed;" horiz-adv-x="405" 
d="M264 779c0 -34 -27 -62 -61 -62s-62 28 -62 62s28 62 62 62s61 -28 61 -62z" />
    <glyph glyph-name="Cedilla" unicode="&#xeff2;" horiz-adv-x="405" 
d="M291 -138c0 -59 -51 -93 -102 -93c-40 0 -70 16 -79 24l20 41c3 -2 24 -14 52 -14c40 0 49 24 49 40c0 22 -17 37 -42 37c-19 0 -36 -8 -42 -12l-31 17l17 98h55l-9 -56c5 2 13 3 22 3c53 0 90 -34 90 -85z" />
    <glyph glyph-name="Ogonek" unicode="&#xeff1;" horiz-adv-x="405" 
d="M307 -167c-4 -3 -48 -32 -104 -32c-64 0 -107 43 -107 110c0 46 30 76 55 89h76c-30 -23 -69 -45 -69 -89c0 -34 22 -56 55 -56c31 0 66 18 73 22z" />
    <glyph glyph-name="commaaccent" horiz-adv-x="405" 
d="M179 -82h117c1 -95 -40 -171 -126 -235l-63 56c49 48 71 102 72 179z" />
    <glyph glyph-name="Commaaccent" horiz-adv-x="405" 
d="M179 -82h117c1 -95 -40 -171 -126 -235l-63 56c49 48 71 102 72 179z" />
    <glyph glyph-name="Amacron" unicode="&#x100;" horiz-adv-x="633" 
d="M619 0h-120l-53 156h-262l-53 -156h-117l243 667h119zM415 247l-101 297l-100 -297h201zM485 731h-336v74h336v-74z" />
    <glyph glyph-name="Abreve" unicode="&#x102;" horiz-adv-x="633" 
d="M619 0h-120l-53 156h-262l-53 -156h-117l243 667h119zM415 247l-101 297l-100 -297h201zM458 875c-5 -89 -59 -145 -143 -145s-139 56 -144 145h77c5 -43 28 -63 67 -63s61 20 66 63h77z" />
    <glyph glyph-name="Aogonek" unicode="&#x104;" horiz-adv-x="633" 
d="M376 667l243 -667c-30 -23 -69 -45 -69 -89c0 -34 22 -56 55 -56c31 0 66 18 73 22l21 -44c-4 -3 -48 -32 -104 -32c-64 0 -107 43 -107 110c0 46 30 76 55 89h-44l-53 156h-262l-53 -156h-117l243 667h119zM415 247l-101 297l-100 -297h201z" />
    <glyph glyph-name="Cacute" unicode="&#x106;" horiz-adv-x="636" 
d="M612 60c-8 -8 -92 -74 -233 -74c-186 0 -330 127 -330 342c0 222 152 354 343 354c135 0 209 -63 216 -71l-51 -78c-8 6 -68 50 -159 50c-128 0 -230 -91 -230 -246c0 -151 86 -250 223 -250c93 0 163 47 172 52zM528 804l-225 -90l-34 62l216 116z" />
    <glyph glyph-name="Ccaron" unicode="&#x10c;" horiz-adv-x="636" 
d="M612 60c-8 -8 -92 -74 -233 -74c-186 0 -330 127 -330 342c0 222 152 354 343 354c135 0 209 -63 216 -71l-51 -78c-8 6 -68 50 -159 50c-128 0 -230 -91 -230 -246c0 -151 86 -250 223 -250c93 0 163 47 172 52zM557 832l-164 -117l-164 121l39 55l125 -71l125 70z" />
    <glyph glyph-name="Dcaron" unicode="&#x10e;" horiz-adv-x="693" 
d="M644 339c0 -95 -33 -184 -93 -244c-91 -91 -203 -95 -328 -95h-147v667h171c122 0 219 -2 304 -87c58 -58 93 -146 93 -241zM528 342c0 69 -17 128 -64 175c-57 57 -123 59 -219 59h-53v-483h79c84 0 149 16 197 67c40 42 60 106 60 182zM458 832l-164 -117l-164 121
l39 55l125 -71l125 70z" />
    <glyph glyph-name="Dcroat" unicode="&#x110;" horiz-adv-x="722" 
d="M673 339c0 -95 -33 -184 -93 -244c-91 -91 -203 -95 -328 -95h-147v298h-100v92h100v277h171c122 0 219 -2 304 -87c58 -58 93 -146 93 -241zM557 342c0 69 -17 128 -64 175c-57 57 -123 59 -219 59h-53v-186h177v-92h-177v-205h79c84 0 149 16 197 67
c40 42 60 106 60 182z" />
    <glyph glyph-name="Ecaron" unicode="&#x11a;" horiz-adv-x="520" 
d="M471 0h-395v667h387v-94h-273v-182h256v-92h-256v-203h281v-96zM433 832l-164 -117l-164 121l39 55l125 -71l125 70z" />
    <glyph glyph-name="Emacron" unicode="&#x112;" horiz-adv-x="520" 
d="M471 0h-395v667h387v-94h-273v-182h256v-92h-256v-203h281v-96zM436 731h-336v74h336v-74z" />
    <glyph glyph-name="Edotaccent" unicode="&#x116;" horiz-adv-x="520" 
d="M471 0h-395v667h387v-94h-273v-182h256v-92h-256v-203h281v-96zM326 779c0 -34 -27 -62 -61 -62s-62 28 -62 62s28 62 62 62s61 -28 61 -62z" />
    <glyph glyph-name="Eogonek" unicode="&#x118;" horiz-adv-x="520" 
d="M395 0h-319v667h387v-94h-273v-182h256v-92h-256v-203h281v-96c-30 -23 -69 -45 -69 -89c0 -34 22 -56 55 -56c31 0 66 18 73 22l21 -44c-4 -3 -48 -32 -104 -32c-64 0 -107 43 -107 110c0 46 30 76 55 89z" />
    <glyph glyph-name="Gbreve" unicode="&#x11e;" horiz-adv-x="686" 
d="M620 42c-16 -8 -103 -57 -243 -57c-185 0 -328 128 -328 343c0 223 151 354 342 354c138 0 211 -63 216 -69l-50 -78c-7 5 -65 48 -160 48c-128 0 -230 -91 -230 -246c0 -151 84 -253 228 -253c70 0 110 18 115 20v143h-134v89h244v-294zM536 875
c-5 -89 -59 -145 -143 -145s-139 56 -144 145h77c5 -43 28 -63 67 -63s61 20 66 63h77z" />
    <glyph glyph-name="Imacron" unicode="&#x12a;" horiz-adv-x="268" 
d="M192 0h-116v667h116v-667zM302 731h-336v74h336v-74z" />
    <glyph glyph-name="Iogonek" unicode="&#x12e;" horiz-adv-x="268" 
d="M76 0v667h116v-667c-30 -23 -69 -45 -69 -89c0 -34 22 -56 55 -56c31 0 66 18 73 22l21 -44c-4 -3 -48 -32 -104 -32c-64 0 -107 43 -107 110c0 46 30 76 55 89h-40z" />
    <glyph glyph-name="Lacute" unicode="&#x139;" horiz-adv-x="503" 
d="M460 0h-384v667h116v-571h268v-96zM359 804l-225 -90l-34 62l216 116z" />
    <glyph glyph-name="Lcaron" unicode="&#x13d;" horiz-adv-x="503" 
d="M460 0h-384v667h116v-571h268v-96zM319 667h117c1 -95 -40 -171 -126 -235l-63 56c49 48 71 102 72 179z" />
    <glyph glyph-name="Nacute" unicode="&#x143;" horiz-adv-x="658" 
d="M582 0h-105l-298 488l3 -488h-106v667h109l294 -487l-3 487h106v-667zM459 804l-225 -90l-34 62l216 116z" />
    <glyph glyph-name="Ncaron" unicode="&#x147;" horiz-adv-x="658" 
d="M582 0h-105l-298 488l3 -488h-106v667h109l294 -487l-3 487h106v-667zM493 832l-164 -117l-164 121l39 55l125 -71l125 70z" />
    <glyph glyph-name="Omacron" unicode="&#x14c;" horiz-adv-x="730" 
d="M681 338c0 -212 -130 -352 -316 -352c-185 0 -316 143 -316 349c0 205 130 347 318 347c187 0 314 -143 314 -344zM562 340c0 144 -81 246 -201 246c-117 0 -193 -104 -193 -254c0 -151 85 -248 199 -248c139 0 195 125 195 256zM536 731h-336v74h336v-74z" />
    <glyph glyph-name="Ohungarumlaut" unicode="&#x150;" horiz-adv-x="730" 
d="M681 338c0 -212 -130 -352 -316 -352c-185 0 -316 143 -316 349c0 205 130 347 318 347c187 0 314 -143 314 -344zM562 340c0 144 -81 246 -201 246c-117 0 -193 -104 -193 -254c0 -151 85 -248 199 -248c139 0 195 125 195 256zM559 881l-75 -172l-79 27l58 180z
M411 881l-75 -172l-80 27l58 180z" />
    <glyph glyph-name="Racute" unicode="&#x154;" horiz-adv-x="581" 
d="M557 0h-122l-80 178c-42 94 -65 97 -137 97h-28v-275h-114v667h160c89 0 162 2 219 -55c32 -32 54 -77 54 -134c0 -45 -13 -87 -44 -118c-25 -25 -59 -44 -104 -50c24 -2 39 -11 59 -31c26 -26 40 -64 57 -101zM394 475c0 31 -12 59 -25 72c-31 31 -72 28 -125 28h-54
v-210h44c56 0 99 3 130 34c19 19 30 48 30 76zM414 804l-225 -90l-34 62l216 116z" />
    <glyph glyph-name="Rcaron" unicode="&#x158;" horiz-adv-x="581" 
d="M557 0h-122l-80 178c-42 94 -65 97 -137 97h-28v-275h-114v667h160c89 0 162 2 219 -55c32 -32 54 -77 54 -134c0 -45 -13 -87 -44 -118c-25 -25 -59 -44 -104 -50c24 -2 39 -11 59 -31c26 -26 40 -64 57 -101zM394 475c0 31 -12 59 -25 72c-31 31 -72 28 -125 28h-54
v-210h44c56 0 99 3 130 34c19 19 30 48 30 76zM424 832l-164 -117l-164 121l39 55l125 -71l125 70z" />
    <glyph glyph-name="Sacute" unicode="&#x15a;" horiz-adv-x="535" 
d="M481 191c0 -121 -85 -206 -229 -206c-126 0 -208 68 -214 75l52 80c13 -8 76 -56 156 -56c76 0 118 39 118 98c0 68 -74 90 -138 118c-52 23 -168 65 -168 193c0 113 90 189 219 189c124 0 194 -67 198 -71l-54 -74c-5 4 -60 50 -136 50c-67 0 -114 -35 -114 -85
c0 -51 37 -67 123 -104c95 -41 187 -86 187 -207zM402 804l-225 -90l-34 62l216 116z" />
    <glyph glyph-name="Scedilla" unicode="&#x15e;" horiz-adv-x="535" 
d="M368 -138c0 -59 -51 -93 -102 -93c-40 0 -70 16 -79 24l20 41c3 -2 24 -14 52 -14c40 0 49 24 49 40c0 22 -17 37 -42 37c-19 0 -36 -8 -42 -12l-31 17l15 86c-101 13 -165 66 -170 72l52 80c13 -8 76 -56 156 -56c76 0 118 39 118 98c0 68 -74 90 -138 118
c-52 23 -168 65 -168 193c0 113 90 189 219 189c124 0 194 -67 198 -71l-54 -74c-5 4 -60 50 -136 50c-67 0 -114 -35 -114 -85c0 -51 37 -67 123 -104c95 -41 187 -86 187 -207c0 -118 -81 -202 -219 -206l-6 -41c5 2 13 3 22 3c53 0 90 -34 90 -85z" />
    <glyph glyph-name="Scommaaccent" unicode="&#x218;" horiz-adv-x="535" 
d="M481 191c0 -121 -85 -206 -229 -206c-126 0 -208 68 -214 75l52 80c13 -8 76 -56 156 -56c76 0 118 39 118 98c0 68 -74 90 -138 118c-52 23 -168 65 -168 193c0 113 90 189 219 189c124 0 194 -67 198 -71l-54 -74c-5 4 -60 50 -136 50c-67 0 -114 -35 -114 -85
c0 -51 37 -67 123 -104c95 -41 187 -86 187 -207zM199 -82h117c1 -95 -40 -171 -126 -235l-63 56c49 48 71 102 72 179z" />
    <glyph glyph-name="Tcaron" unicode="&#x164;" horiz-adv-x="552" 
d="M523 573h-189v-573h-116v573h-189v94h494v-94zM440 832l-164 -117l-164 121l39 55l125 -71l125 70z" />
    <glyph glyph-name="Umacron" unicode="&#x16a;" horiz-adv-x="643" 
d="M574 310c0 -122 -4 -196 -62 -254c-32 -32 -90 -70 -191 -70c-72 0 -142 21 -192 71c-60 60 -60 136 -60 219v391h116v-417c0 -46 -1 -91 34 -126c24 -24 62 -38 106 -38c37 0 72 11 98 37c40 40 37 86 37 187v357h114v-357zM490 731h-336v74h336v-74z" />
    <glyph glyph-name="Uring" unicode="&#x16e;" horiz-adv-x="643" 
d="M574 310c0 -122 -4 -196 -62 -254c-32 -32 -90 -70 -191 -70c-72 0 -142 21 -192 71c-60 60 -60 136 -60 219v391h116v-417c0 -46 -1 -91 34 -126c24 -24 62 -38 106 -38c37 0 72 11 98 37c40 40 37 86 37 187v357h114v-357zM427 821c0 -58 -47 -106 -105 -106
s-106 48 -106 106c0 59 48 106 106 106c59 0 105 -48 105 -106zM371 821c0 28 -23 50 -50 50s-49 -23 -49 -50s22 -49 49 -49c28 0 50 22 50 49z" />
    <glyph glyph-name="Uhungarumlaut" unicode="&#x170;" horiz-adv-x="643" 
d="M574 310c0 -122 -4 -196 -62 -254c-32 -32 -90 -70 -191 -70c-72 0 -142 21 -192 71c-60 60 -60 136 -60 219v391h116v-417c0 -46 -1 -91 34 -126c24 -24 62 -38 106 -38c37 0 72 11 98 37c40 40 37 86 37 187v357h114v-357zM485 881l-75 -172l-79 27l58 180zM337 881
l-75 -172l-80 27l58 180z" />
    <glyph glyph-name="Uogonek" unicode="&#x172;" horiz-adv-x="643" 
d="M574 310c0 -122 -4 -196 -62 -254s-146 -76 -146 -145c0 -34 22 -56 55 -56c31 0 66 18 73 22l21 -44c-4 -3 -48 -32 -104 -32c-64 0 -107 43 -107 110c0 34 16 60 40 76c-12 -1 -17 -1 -23 -1c-72 0 -142 21 -192 71c-60 60 -60 136 -60 219v391h116v-417
c0 -46 -1 -91 34 -126c24 -24 62 -38 106 -38c37 0 72 11 98 37c40 40 37 86 37 187v357h114v-357z" />
    <glyph glyph-name="Zacute" unicode="&#x179;" horiz-adv-x="562" 
d="M517 0h-472v82l324 491h-309v94h448v-85l-318 -486h327v-96zM411 804l-225 -90l-34 62l216 116z" />
    <glyph glyph-name="Zdotaccent" unicode="&#x17b;" horiz-adv-x="562" 
d="M517 0h-472v82l324 491h-309v94h448v-85l-318 -486h327v-96zM343 779c0 -34 -27 -62 -61 -62s-62 28 -62 62s28 62 62 62s61 -28 61 -62z" />
    <glyph glyph-name="amacron" unicode="&#x101;" horiz-adv-x="494" 
d="M437 0h-96v36c-7 -5 -64 -46 -144 -46c-96 0 -157 63 -157 154c0 167 207 171 275 171h18v19c0 31 -3 48 -16 61c-14 14 -34 22 -79 22c-66 0 -125 -34 -132 -38l-38 71c8 7 71 53 179 53c73 0 117 -17 152 -52c38 -38 38 -86 38 -151v-300zM333 108v129h-23
c-69 0 -124 -10 -152 -38c-13 -13 -19 -29 -19 -50c0 -50 39 -74 86 -74c57 0 100 29 108 33zM422 594h-336v74h336v-74z" />
    <glyph glyph-name="abreve" unicode="&#x103;" horiz-adv-x="494" 
d="M437 0h-96v36c-7 -5 -64 -46 -144 -46c-96 0 -157 63 -157 154c0 167 207 171 275 171h18v19c0 31 -3 48 -16 61c-14 14 -34 22 -79 22c-66 0 -125 -34 -132 -38l-38 71c8 7 71 53 179 53c73 0 117 -17 152 -52c38 -38 38 -86 38 -151v-300zM333 108v129h-23
c-69 0 -124 -10 -152 -38c-13 -13 -19 -29 -19 -50c0 -50 39 -74 86 -74c57 0 100 29 108 33zM392 707c-5 -89 -59 -145 -143 -145s-139 56 -144 145h77c5 -43 28 -63 67 -63s61 20 66 63h77z" />
    <glyph glyph-name="aogonek" unicode="&#x105;" horiz-adv-x="494" 
d="M333 108v129h-23c-69 0 -124 -10 -152 -38c-13 -13 -19 -29 -19 -50c0 -50 39 -74 86 -74c57 0 100 29 108 33zM341 0v36c-7 -5 -64 -46 -144 -46c-96 0 -157 63 -157 154c0 167 207 171 275 171h18v19c0 31 -3 48 -16 61c-14 14 -34 22 -79 22c-66 0 -125 -34 -132 -38
l-38 71c8 7 71 53 179 53c73 0 117 -17 152 -52c38 -38 38 -86 38 -151v-300c-30 -23 -69 -45 -69 -89c0 -34 22 -56 55 -56c31 0 66 18 73 22l21 -44c-4 -3 -48 -32 -104 -32c-64 0 -107 43 -107 110c0 46 30 76 55 89h-20z" />
    <glyph glyph-name="cacute" unicode="&#x107;" horiz-adv-x="487" 
d="M464 45c-3 -3 -71 -57 -179 -57c-147 0 -244 103 -244 250c0 154 108 264 254 264c97 0 156 -48 162 -56l-45 -69c-8 5 -49 34 -110 34c-95 0 -150 -81 -150 -165c0 -97 53 -166 145 -166c68 0 120 35 124 37zM430 635l-225 -90l-34 62l216 116z" />
    <glyph glyph-name="ccaron" unicode="&#x10d;" horiz-adv-x="487" 
d="M464 45c-3 -3 -71 -57 -179 -57c-147 0 -244 103 -244 250c0 154 108 264 254 264c97 0 156 -48 162 -56l-45 -69c-8 5 -49 34 -110 34c-95 0 -150 -81 -150 -165c0 -97 53 -166 145 -166c68 0 120 35 124 37zM459 664l-164 -117l-164 121l39 55l125 -71l125 70z" />
    <glyph glyph-name="dcaron" unicode="&#x10f;" horiz-adv-x="685" 
d="M490 0h-96v35c-7 -5 -56 -47 -135 -47c-131 0 -218 103 -218 250c0 155 105 264 237 264c63 0 97 -22 102 -25v246h110v-723zM380 113v271c-9 6 -39 26 -86 26c-82 0 -142 -61 -142 -170c0 -100 58 -161 130 -161c53 0 89 28 98 34zM601 723h117
c1 -95 -40 -171 -126 -235l-63 56c49 48 71 102 72 179z" />
    <glyph glyph-name="dcroat" unicode="&#x111;" horiz-adv-x="554" 
d="M490 562v-562h-96v35c-42 -32 -85 -47 -136 -47c-128 0 -217 102 -217 249c0 152 101 265 238 265c39 0 73 -9 101 -25v85h-144v90h144v71h110v-71h85v-90h-85zM380 113v271c-28 18 -54 26 -86 26c-86 0 -142 -66 -142 -169c0 -97 53 -162 131 -162c33 0 64 11 97 34z
" />
    <glyph glyph-name="emacron" unicode="&#x113;" horiz-adv-x="523" 
d="M482 250c0 -16 -2 -31 -2 -39h-331c0 -59 37 -135 139 -135c68 0 120 30 134 37l38 -72c-5 -3 -75 -53 -181 -53c-153 0 -238 109 -238 253c0 153 93 261 231 261c133 0 210 -96 210 -252zM378 293c0 42 -17 125 -104 125c-68 0 -116 -51 -125 -125h229zM445 594h-336v74
h336v-74z" />
    <glyph glyph-name="edotaccent" unicode="&#x117;" horiz-adv-x="523" 
d="M482 250c0 -16 -2 -31 -2 -39h-331c0 -59 37 -135 139 -135c68 0 120 30 134 37l38 -72c-5 -3 -75 -53 -181 -53c-153 0 -238 109 -238 253c0 153 93 261 231 261c133 0 210 -96 210 -252zM378 293c0 42 -17 125 -104 125c-68 0 -116 -51 -125 -125h229zM334 631
c0 -34 -27 -62 -61 -62s-62 28 -62 62s28 62 62 62s61 -28 61 -62z" />
    <glyph glyph-name="eogonek" unicode="&#x119;" horiz-adv-x="523" 
d="M449 -167c-4 -3 -48 -32 -104 -32c-64 0 -107 43 -107 110c0 35 17 62 39 77c-152 1 -236 110 -236 253c0 153 93 261 231 261c133 0 210 -96 210 -252c0 -16 -2 -31 -2 -39h-331c0 -59 37 -135 139 -135c68 0 120 30 134 37l38 -72c-61 -41 -160 -58 -160 -130
c0 -34 22 -56 55 -56c31 0 66 18 73 22zM378 293c0 42 -17 125 -104 125c-68 0 -116 -51 -125 -125h229z" />
    <glyph glyph-name="gbreve" unicode="&#x11f;" horiz-adv-x="553" 
d="M489 3c0 -74 -3 -125 -50 -173c-34 -34 -86 -61 -173 -61c-127 0 -201 61 -208 69l46 72c7 -4 69 -49 150 -49c46 0 74 12 93 28c30 26 33 64 33 112v33c-8 -4 -51 -34 -123 -34c-140 0 -216 113 -216 240c0 147 103 262 256 262c98 0 179 -43 192 -49v-450zM380 122v272
c-7 3 -40 18 -85 18c-82 0 -143 -64 -143 -167c0 -98 57 -156 128 -156c52 0 96 30 100 33zM443 707c-5 -89 -59 -145 -143 -145s-139 56 -144 145h77c5 -43 28 -63 67 -63s61 20 66 63h77z" />
    <glyph glyph-name="imacron" unicode="&#x12b;" horiz-adv-x="237" 
d="M174 0h-110v488h110v-488zM287 594h-336v74h336v-74z" />
    <glyph glyph-name="iogonek" unicode="&#x12f;" horiz-adv-x="237" 
d="M64 0v488h110v-488c-30 -23 -69 -45 -69 -89c0 -34 22 -56 55 -56c31 0 66 18 73 22l21 -44c-4 -3 -48 -32 -104 -32c-64 0 -107 43 -107 110c0 46 30 76 55 89h-34zM183 634c0 -36 -28 -64 -64 -64s-65 28 -65 64s29 65 65 65s64 -29 64 -65z" />
    <glyph glyph-name="lacute" unicode="&#x13a;" horiz-adv-x="238" 
d="M174 0h-110v723h110v-723zM344 846l-225 -90l-34 62l216 116z" />
    <glyph glyph-name="lcaron" unicode="&#x13e;" horiz-adv-x="369" 
d="M174 0h-110v723h110v-723zM285 723h117c1 -95 -40 -171 -126 -235l-63 56c49 48 71 102 72 179z" />
    <glyph glyph-name="nacute" unicode="&#x144;" horiz-adv-x="534" 
d="M477 0h-110v267c0 63 -1 98 -23 120c-9 9 -30 21 -61 21c-55 0 -102 -31 -109 -36v-372h-110v488h96v-36c8 6 69 50 145 50c60 0 99 -22 122 -45c51 -51 50 -113 50 -184v-273zM436 635l-225 -90l-34 62l216 116z" />
    <glyph glyph-name="ncaron" unicode="&#x148;" horiz-adv-x="534" 
d="M477 0h-110v267c0 63 -1 98 -23 120c-9 9 -30 21 -61 21c-55 0 -102 -31 -109 -36v-372h-110v488h96v-36c8 6 69 50 145 50c60 0 99 -22 122 -45c51 -51 50 -113 50 -184v-273zM446 664l-164 -117l-164 121l39 55l125 -71l125 70z" />
    <glyph glyph-name="omacron" unicode="&#x14d;" horiz-adv-x="563" 
d="M522 247c0 -154 -99 -259 -245 -259c-140 0 -236 103 -236 255c0 153 99 259 245 259c140 0 236 -103 236 -255zM411 243c0 101 -55 168 -131 168c-78 0 -128 -65 -128 -164c0 -101 56 -168 132 -168c80 0 127 64 127 164zM455 594h-336v74h336v-74z" />
    <glyph glyph-name="ohungarumlaut" unicode="&#x151;" horiz-adv-x="563" 
d="M522 247c0 -154 -99 -259 -245 -259c-140 0 -236 103 -236 255c0 153 99 259 245 259c140 0 236 -103 236 -255zM411 243c0 101 -55 168 -131 168c-78 0 -128 -65 -128 -164c0 -101 56 -168 132 -168c80 0 127 64 127 164zM464 708l-75 -172l-79 27l58 180zM316 708
l-75 -172l-80 27l58 180z" />
    <glyph glyph-name="racute" unicode="&#x155;" 
d="M373 491l-25 -85c-5 1 -22 3 -33 3c-89 0 -130 -59 -141 -75v-334h-110v488h96v-62c4 7 61 76 159 76c35 0 51 -10 54 -11zM338 635l-225 -90l-34 62l216 116z" />
    <glyph glyph-name="rcaron" unicode="&#x159;" 
d="M373 491l-25 -85c-5 1 -22 3 -33 3c-89 0 -130 -59 -141 -75v-334h-110v488h96v-62c4 7 61 76 159 76c35 0 51 -10 54 -11zM362 664l-164 -117l-164 121l39 55l125 -71l125 70z" />
    <glyph glyph-name="sacute" unicode="&#x15b;" horiz-adv-x="443" 
d="M393 140c0 -96 -78 -153 -186 -153c-104 0 -172 47 -178 52l39 72c10 -5 62 -38 128 -38c56 0 85 26 85 60c0 38 -39 51 -105 79c-54 23 -129 55 -129 144c0 88 74 146 181 146c101 0 155 -42 158 -44l-38 -70c-5 3 -58 33 -113 33s-78 -27 -78 -55c0 -35 37 -50 87 -71
c68 -28 149 -59 149 -155zM366 635l-225 -90l-34 62l216 116z" />
    <glyph glyph-name="scedilla" unicode="&#x15f;" horiz-adv-x="443" 
d="M323 -129c0 -59 -51 -93 -102 -93c-40 0 -70 16 -79 24l20 41c3 -2 24 -14 52 -14c40 0 49 24 49 40c0 22 -17 37 -42 37c-19 0 -36 -8 -42 -12l-31 17l14 79c-78 10 -128 45 -133 49l39 72c10 -5 62 -38 128 -38c56 0 85 26 85 60c0 38 -39 51 -105 79
c-54 23 -129 55 -129 144c0 88 74 146 181 146c101 0 155 -42 158 -44l-38 -70c-5 3 -58 33 -113 33s-78 -27 -78 -55c0 -35 37 -50 87 -71c68 -28 149 -59 149 -155c0 -94 -74 -150 -177 -153l-5 -34c5 2 13 3 22 3c53 0 90 -34 90 -85z" />
    <glyph glyph-name="scommaaccent" unicode="&#x219;" horiz-adv-x="443" 
d="M393 140c0 -96 -78 -153 -186 -153c-104 0 -172 47 -178 52l39 72c10 -5 62 -38 128 -38c56 0 85 26 85 60c0 38 -39 51 -105 79c-54 23 -129 55 -129 144c0 88 74 146 181 146c101 0 155 -42 158 -44l-38 -70c-5 3 -58 33 -113 33s-78 -27 -78 -55c0 -35 37 -50 87 -71
c68 -28 149 -59 149 -155zM154 -82h117c1 -95 -40 -171 -126 -235l-63 56c49 48 71 102 72 179z" />
    <glyph glyph-name="tcaron" unicode="&#x165;" horiz-adv-x="423" 
d="M375 16c-5 -3 -47 -29 -114 -29c-44 0 -89 12 -118 41c-39 39 -37 87 -37 150v220h-85v90h85v137h110v-137h144v-90h-144v-230c0 -44 2 -88 66 -88c35 0 59 11 65 13zM328 804h117c1 -95 -40 -171 -126 -235l-63 56c49 48 71 102 72 179z" />
    <glyph glyph-name="umacron" unicode="&#x16b;" horiz-adv-x="534" 
d="M470 0h-96v37c-8 -6 -69 -50 -145 -50c-60 0 -98 21 -122 45c-51 51 -50 113 -50 184v272h110v-266c0 -63 1 -98 23 -120c10 -10 29 -21 63 -21c57 0 102 33 107 36v371h110v-488zM431 594h-336v74h336v-74z" />
    <glyph glyph-name="uring" unicode="&#x16f;" horiz-adv-x="534" 
d="M470 0h-96v37c-8 -6 -69 -50 -145 -50c-60 0 -98 21 -122 45c-51 51 -50 113 -50 184v272h110v-266c0 -63 1 -98 23 -120c10 -10 29 -21 63 -21c57 0 102 33 107 36v371h110v-488zM369 646c0 -58 -47 -106 -105 -106s-106 48 -106 106c0 59 48 106 106 106
c59 0 105 -48 105 -106zM313 646c0 28 -23 50 -50 50s-49 -23 -49 -50s22 -49 49 -49c28 0 50 22 50 49z" />
    <glyph glyph-name="uhungarumlaut" unicode="&#x171;" horiz-adv-x="534" 
d="M470 0h-96v37c-8 -6 -69 -50 -145 -50c-60 0 -98 21 -122 45c-51 51 -50 113 -50 184v272h110v-266c0 -63 1 -98 23 -120c10 -10 29 -21 63 -21c57 0 102 33 107 36v371h110v-488zM441 708l-75 -172l-79 27l58 180zM293 708l-75 -172l-80 27l58 180z" />
    <glyph glyph-name="uogonek" unicode="&#x173;" horiz-adv-x="534" 
d="M374 0v37c-8 -6 -69 -50 -145 -50c-60 0 -98 21 -122 45c-51 51 -50 113 -50 184v272h110v-266c0 -63 1 -98 23 -120c10 -10 29 -21 63 -21c57 0 102 33 107 36v371h110v-488c-30 -23 -69 -45 -69 -89c0 -34 22 -56 55 -56c31 0 66 18 73 22l21 -44
c-4 -3 -48 -32 -104 -32c-64 0 -107 43 -107 110c0 46 30 76 55 89h-20z" />
    <glyph glyph-name="zacute" unicode="&#x17a;" horiz-adv-x="508" 
d="M451 0h-404v77l259 321h-251v90h387v-80l-255 -316h264v-92zM384 635l-225 -90l-34 62l216 116z" />
    <glyph glyph-name="zdotaccent" unicode="&#x17c;" horiz-adv-x="508" 
d="M451 0h-404v77l259 321h-251v90h387v-80l-255 -316h264v-92zM305 631c0 -34 -27 -62 -61 -62s-62 28 -62 62s28 62 62 62s61 -28 61 -62z" />
    <glyph glyph-name="Aringacute" unicode="&#x1fa;" horiz-adv-x="633" 
d="M619 0h-120l-53 156h-262l-53 -156h-117l243 667h119zM415 247l-101 297l-100 -297h201zM422 825c0 -58 -47 -106 -105 -106s-106 48 -106 106c0 59 48 106 106 106c59 0 105 -48 105 -106zM366 825c0 28 -23 50 -50 50s-49 -23 -49 -50s22 -49 49 -49c28 0 50 22 50 49z
M429 1031l-225 -90l-34 62l216 116z" />
    <glyph glyph-name="AEacute" unicode="&#x1fc;" horiz-adv-x="894" 
d="M845 0h-395v158h-230l-86 -158h-120l386 667h437v-94h-273v-182h256v-92h-256v-203h281v-96zM450 254v323l-179 -323h179zM732 804l-225 -90l-34 62l216 116z" />
    <glyph glyph-name="Ccircumflex" unicode="&#x108;" horiz-adv-x="636" 
d="M612 60c-8 -8 -92 -74 -233 -74c-186 0 -330 127 -330 342c0 222 152 354 343 354c135 0 209 -63 216 -71l-51 -78c-8 6 -68 50 -159 50c-128 0 -230 -91 -230 -246c0 -151 86 -250 223 -250c93 0 163 47 172 52zM557 769l-39 -55l-125 71l-125 -70l-39 58l164 117z" />
    <glyph glyph-name="Eng" unicode="&#x14a;" horiz-adv-x="658" 
d="M582 667v-667c0 -66 1 -135 -49 -185c-28 -28 -73 -46 -129 -46c-81 0 -135 39 -140 43l40 81c13 -7 42 -24 91 -24c26 0 45 6 57 18c23 22 24 55 24 103v10l-297 488l3 -488h-106v667h109l294 -487l-3 487h106z" />
    <glyph glyph-name="Ncommaaccent" unicode="&#x145;" horiz-adv-x="658" 
d="M582 0h-105l-298 488l3 -488h-106v667h109l294 -487l-3 487h106v-667zM276 -82h117c1 -95 -40 -171 -126 -235l-63 56c49 48 71 102 72 179z" />
    <glyph glyph-name="Ldot" unicode="&#x13f;" horiz-adv-x="503" 
d="M460 0h-384v667h116v-571h268v-96zM396 348c0 -39 -31 -70 -70 -70s-70 31 -70 70s31 70 70 70s70 -31 70 -70z" />
    <glyph glyph-name="Lcommaaccent" unicode="&#x13b;" horiz-adv-x="503" 
d="M460 0h-384v667h116v-571h268v-96zM228 -82h117c1 -95 -40 -171 -126 -235l-63 56c49 48 71 102 72 179z" />
    <glyph glyph-name="Kcommaaccent" unicode="&#x136;" horiz-adv-x="590" 
d="M578 0h-139l-247 314v-314h-116v667h116v-312l245 312h128l-263 -325zM252 -82h117c1 -95 -40 -171 -126 -235l-63 56c49 48 71 102 72 179z" />
    <glyph glyph-name="Jcircumflex" unicode="&#x134;" horiz-adv-x="394" 
d="M325 217c0 -66 1 -135 -49 -185c-28 -28 -73 -46 -129 -46c-81 0 -135 39 -140 43l40 81c13 -7 47 -24 83 -24c26 0 43 6 55 18c23 22 24 55 24 103v460h116v-450zM431 769l-39 -55l-125 71l-125 -70l-39 58l164 117z" />
    <glyph glyph-name="Ibreve" unicode="&#x12c;" horiz-adv-x="268" 
d="M192 0h-116v667h116v-667zM277 875c-5 -89 -59 -145 -143 -145s-139 56 -144 145h77c5 -43 28 -63 67 -63s61 20 66 63h77z" />
    <glyph glyph-name="Itilde" unicode="&#x128;" horiz-adv-x="268" 
d="M192 0h-116v667h116v-667zM305 787c-15 -16 -63 -68 -117 -68c-43 0 -73 29 -109 29c-25 0 -53 -24 -66 -33l-49 54c17 16 63 66 117 66c43 0 72 -28 108 -28c29 0 56 23 68 34z" />
    <glyph glyph-name="Hbar" unicode="&#x126;" horiz-adv-x="717" 
d="M612 0h-116v300h-275v-300h-116v488h-100v88h100v91h116v-91h275v91h116v-91h100v-88h-100v-488zM221 396h275v92h-275v-92z" />
    <glyph glyph-name="Hcircumflex" unicode="&#x124;" horiz-adv-x="659" 
d="M583 0h-116v300h-275v-300h-116v667h116v-271h275v271h116v-667zM494 769l-39 -55l-125 71l-125 -70l-39 58l164 117z" />
    <glyph glyph-name="Gcommaaccent" unicode="&#x122;" horiz-adv-x="686" 
d="M620 42c-16 -8 -103 -57 -243 -57c-185 0 -328 128 -328 343c0 223 151 354 342 354c138 0 211 -63 216 -69l-50 -78c-7 5 -65 48 -160 48c-128 0 -230 -91 -230 -246c0 -151 84 -253 228 -253c70 0 110 18 115 20v143h-134v89h244v-294zM320 -82h117
c1 -95 -40 -171 -126 -235l-63 56c49 48 71 102 72 179z" />
    <glyph glyph-name="Gdotaccent" unicode="&#x120;" horiz-adv-x="686" 
d="M620 42c-16 -8 -103 -57 -243 -57c-185 0 -328 128 -328 343c0 223 151 354 342 354c138 0 211 -63 216 -69l-50 -78c-7 5 -65 48 -160 48c-128 0 -230 -91 -230 -246c0 -151 84 -253 228 -253c70 0 110 18 115 20v143h-134v89h244v-294zM453 779c0 -34 -27 -62 -61 -62
s-62 28 -62 62s28 62 62 62s61 -28 61 -62z" />
    <glyph glyph-name="Gcircumflex" unicode="&#x11c;" horiz-adv-x="686" 
d="M620 42c-16 -8 -103 -57 -243 -57c-185 0 -328 128 -328 343c0 223 151 354 342 354c138 0 211 -63 216 -69l-50 -78c-7 5 -65 48 -160 48c-128 0 -230 -91 -230 -246c0 -151 84 -253 228 -253c70 0 110 18 115 20v143h-134v89h244v-294zM557 769l-39 -55l-125 71
l-125 -70l-39 58l164 117z" />
    <glyph glyph-name="Ebreve" unicode="&#x114;" horiz-adv-x="520" 
d="M471 0h-395v667h387v-94h-273v-182h256v-92h-256v-203h281v-96zM411 875c-5 -89 -59 -145 -143 -145s-139 56 -144 145h77c5 -43 28 -63 67 -63s61 20 66 63h77z" />
    <glyph glyph-name="Cdotaccent" unicode="&#x10a;" horiz-adv-x="636" 
d="M612 60c-8 -8 -92 -74 -233 -74c-186 0 -330 127 -330 342c0 222 152 354 343 354c135 0 209 -63 216 -71l-51 -78c-8 6 -68 50 -159 50c-128 0 -230 -91 -230 -246c0 -151 86 -250 223 -250c93 0 163 47 172 52zM453 779c0 -34 -27 -62 -61 -62s-62 28 -62 62
s28 62 62 62s61 -28 61 -62z" />
    <glyph glyph-name="Obreve" unicode="&#x14e;" horiz-adv-x="730" 
d="M681 338c0 -212 -130 -352 -316 -352c-185 0 -316 143 -316 349c0 205 130 347 318 347c187 0 314 -143 314 -344zM562 340c0 144 -81 246 -201 246c-117 0 -193 -104 -193 -254c0 -151 85 -248 199 -248c139 0 195 125 195 256zM510 875c-5 -89 -59 -145 -143 -145
s-139 56 -144 145h77c5 -43 28 -63 67 -63s61 20 66 63h77z" />
    <glyph glyph-name="Oslashacute" unicode="&#x1fe;" horiz-adv-x="730" 
d="M681 338c0 -212 -130 -352 -316 -352c-56 0 -94 12 -126 25l-49 -88l-81 44l54 92c-69 55 -114 159 -114 276c0 205 130 347 318 347c51 0 94 -10 130 -26l49 86l81 -44l-52 -93c67 -61 106 -155 106 -267zM562 340c0 98 -38 155 -45 163l-227 -402c7 -5 42 -17 77 -17
c139 0 195 125 195 256zM449 565c-19 10 -48 21 -88 21c-117 0 -193 -104 -193 -254c0 -95 34 -155 50 -172zM484 804l-225 -90l-34 62l216 116z" />
    <glyph glyph-name="Rcommaaccent" unicode="&#x156;" horiz-adv-x="581" 
d="M557 0h-122l-80 178c-42 94 -65 97 -137 97h-28v-275h-114v667h160c89 0 162 2 219 -55c32 -32 54 -77 54 -134c0 -45 -13 -87 -44 -118c-25 -25 -59 -44 -104 -50c24 -2 39 -11 59 -31c26 -26 40 -64 57 -101zM394 475c0 31 -12 59 -25 72c-31 31 -72 28 -125 28h-54
v-210h44c56 0 99 3 130 34c19 19 30 48 30 76zM247 -82h117c1 -95 -40 -171 -126 -235l-63 56c49 48 71 102 72 179z" />
    <glyph glyph-name="Scircumflex" unicode="&#x15c;" horiz-adv-x="535" 
d="M481 191c0 -121 -85 -206 -229 -206c-126 0 -208 68 -214 75l52 80c13 -8 76 -56 156 -56c76 0 118 39 118 98c0 68 -74 90 -138 118c-52 23 -168 65 -168 193c0 113 90 189 219 189c124 0 194 -67 198 -71l-54 -74c-5 4 -60 50 -136 50c-67 0 -114 -35 -114 -85
c0 -51 37 -67 123 -104c95 -41 187 -86 187 -207zM441 769l-39 -55l-125 71l-125 -70l-39 58l164 117z" />
    <glyph glyph-name="Tcommaaccent" unicode="&#x162;" horiz-adv-x="552" 
d="M523 573h-189v-573h-116v573h-189v94h494v-94zM217 -82h117c1 -95 -40 -171 -126 -235l-63 56c49 48 71 102 72 179z" />
    <glyph glyph-name="Tbar" unicode="&#x166;" horiz-adv-x="552" 
d="M444 303h-110v-303h-116v303h-110v90h110v180h-189v94h494v-94h-189v-180h110v-90z" />
    <glyph glyph-name="Utilde" unicode="&#x168;" horiz-adv-x="643" 
d="M574 310c0 -122 -4 -196 -62 -254c-32 -32 -90 -70 -191 -70c-72 0 -142 21 -192 71c-60 60 -60 136 -60 219v391h116v-417c0 -46 -1 -91 34 -126c24 -24 62 -38 106 -38c37 0 72 11 98 37c40 40 37 86 37 187v357h114v-357zM492 787c-15 -16 -63 -68 -117 -68
c-43 0 -73 29 -109 29c-25 0 -53 -24 -66 -33l-49 54c17 16 63 66 117 66c43 0 72 -28 108 -28c29 0 56 23 68 34z" />
    <glyph glyph-name="Ubreve" unicode="&#x16c;" horiz-adv-x="643" 
d="M574 310c0 -122 -4 -196 -62 -254c-32 -32 -90 -70 -191 -70c-72 0 -142 21 -192 71c-60 60 -60 136 -60 219v391h116v-417c0 -46 -1 -91 34 -126c24 -24 62 -38 106 -38c37 0 72 11 98 37c40 40 37 86 37 187v357h114v-357zM463 875c-5 -89 -59 -145 -143 -145
s-139 56 -144 145h77c5 -43 28 -63 67 -63s61 20 66 63h77z" />
    <glyph glyph-name="Wacute" unicode="&#x1e82;" horiz-adv-x="903" 
d="M864 667l-159 -667h-127l-124 538l-130 -538h-128l-157 667h114l110 -533l131 533h126l126 -533l113 533h105zM584 804l-225 -90l-34 62l216 116z" />
    <glyph glyph-name="Wgrave" unicode="&#x1e80;" horiz-adv-x="903" 
d="M864 667l-159 -667h-127l-124 538l-130 -538h-128l-157 667h114l110 -533l131 533h126l126 -533l113 533h105zM584 776l-34 -62l-225 90l43 88z" />
    <glyph glyph-name="Wcircumflex" unicode="&#x174;" horiz-adv-x="903" 
d="M864 667l-159 -667h-127l-124 538l-130 -538h-128l-157 667h114l110 -533l131 533h126l126 -533l113 533h105zM621 781l-39 -55l-125 71l-125 -70l-39 58l164 117z" />
    <glyph glyph-name="Wdieresis" unicode="&#x1e84;" horiz-adv-x="903" 
d="M864 667l-159 -667h-127l-124 538l-130 -538h-128l-157 667h114l110 -533l131 533h126l126 -533l113 533h105zM606 779c0 -34 -27 -62 -61 -62s-62 28 -62 62s28 62 62 62s61 -28 61 -62zM425 779c0 -34 -27 -62 -61 -62s-62 28 -62 62s28 62 62 62s61 -28 61 -62z" />
    <glyph glyph-name="Ygrave" unicode="&#x1ef2;" horiz-adv-x="587" 
d="M560 667l-210 -402v-265h-113v265l-210 402h119l154 -307l152 307h108zM430 786l-34 -62l-225 90l43 88z" />
    <glyph glyph-name="Ycircumflex" unicode="&#x176;" horiz-adv-x="587" 
d="M560 667l-210 -402v-265h-113v265l-210 402h119l154 -307l152 307h108zM463 769l-39 -55l-125 71l-125 -70l-39 58l164 117z" />
    <glyph glyph-name="cdotaccent" unicode="&#x10b;" horiz-adv-x="487" 
d="M464 45c-3 -3 -71 -57 -179 -57c-147 0 -244 103 -244 250c0 154 108 264 254 264c97 0 156 -48 162 -56l-45 -69c-8 5 -49 34 -110 34c-95 0 -150 -81 -150 -165c0 -97 53 -166 145 -166c68 0 120 35 124 37zM357 631c0 -34 -27 -62 -61 -62s-62 28 -62 62s28 62 62 62
s61 -28 61 -62z" />
    <glyph glyph-name="ccircumflex" unicode="&#x109;" horiz-adv-x="487" 
d="M464 45c-3 -3 -71 -57 -179 -57c-147 0 -244 103 -244 250c0 154 108 264 254 264c97 0 156 -48 162 -56l-45 -69c-8 5 -49 34 -110 34c-95 0 -150 -81 -150 -165c0 -97 53 -166 145 -166c68 0 120 35 124 37zM459 602l-39 -55l-125 71l-125 -70l-39 58l164 117z" />
    <glyph glyph-name="aeacute" unicode="&#x1fd;" horiz-adv-x="817" 
d="M776 250c0 -16 -2 -31 -2 -39h-331c0 -59 37 -135 139 -135c68 0 120 30 134 37l38 -72c-5 -3 -75 -53 -181 -53c-107 0 -156 52 -169 67c-38 -33 -103 -67 -194 -67c-94 0 -169 50 -169 155c0 168 210 155 273 155h20c0 22 1 73 -20 94c-15 15 -31 25 -75 25
c-66 0 -125 -34 -132 -38l-38 71c8 7 71 53 179 53c54 0 121 -15 158 -66c6 6 59 65 160 65c133 0 210 -96 210 -252zM672 293c0 42 -17 125 -104 125c-68 0 -116 -51 -125 -125h229zM361 117c-10 18 -25 53 -24 103h-28c-87 0 -169 -5 -169 -75c0 -51 45 -71 88 -71
c66 0 119 32 133 43zM631 635l-225 -90l-34 62l216 116z" />
    <glyph glyph-name="aringacute" unicode="&#x1fb;" horiz-adv-x="494" 
d="M437 0h-96v36c-7 -5 -64 -46 -144 -46c-96 0 -157 63 -157 154c0 167 207 171 275 171h18v19c0 31 -3 48 -16 61c-14 14 -34 22 -79 22c-66 0 -125 -34 -132 -38l-38 71c8 7 71 53 179 53c73 0 117 -17 152 -52c38 -38 38 -86 38 -151v-300zM333 108v129h-23
c-69 0 -124 -10 -152 -38c-13 -13 -19 -29 -19 -50c0 -50 39 -74 86 -74c57 0 100 29 108 33zM352 646c0 -58 -47 -106 -105 -106s-106 48 -106 106c0 59 48 106 106 106c59 0 105 -48 105 -106zM296 646c0 28 -23 50 -50 50s-49 -23 -49 -50s22 -49 49 -49
c28 0 50 22 50 49zM380 857l-225 -90l-34 62l216 116z" />
    <glyph glyph-name="eng" unicode="&#x14b;" horiz-adv-x="534" 
d="M477 273v-298c0 -67 -7 -113 -48 -154c-30 -30 -80 -43 -121 -43c-48 0 -88 19 -93 23l28 79c8 -3 27 -11 49 -11c27 0 43 9 54 20c14 14 21 34 21 78v300c0 63 -1 98 -23 120c-9 9 -30 21 -61 21c-55 0 -102 -31 -109 -36v-372h-110v488h96v-36c8 6 69 50 145 50
c60 0 99 -22 122 -45c51 -51 50 -113 50 -184z" />
    <glyph glyph-name="ncommaaccent" unicode="&#x146;" horiz-adv-x="534" 
d="M477 0h-110v267c0 63 -1 98 -23 120c-9 9 -30 21 -61 21c-55 0 -102 -31 -109 -36v-372h-110v488h96v-36c8 6 69 50 145 50c60 0 99 -22 122 -45c51 -51 50 -113 50 -184v-273zM209 -82h117c1 -95 -40 -171 -126 -235l-63 56c49 48 71 102 72 179z" />
    <glyph glyph-name="ldot" unicode="&#x140;" horiz-adv-x="502" 
d="M174 0h-110v723h110v-723zM440 348c0 -39 -31 -70 -70 -70s-70 31 -70 70s31 70 70 70s70 -31 70 -70z" />
    <glyph glyph-name="lcommaaccent" unicode="&#x13c;" horiz-adv-x="238" 
d="M174 0h-110v723h110v-723zM61 -82h117c1 -95 -40 -171 -126 -235l-63 56c49 48 71 102 72 179z" />
    <glyph glyph-name="kcommaaccent" unicode="&#x137;" horiz-adv-x="519" 
d="M505 0h-133l-198 246v-246h-110v723h110v-444l193 209h132l-211 -222zM209 -82h117c1 -95 -40 -171 -126 -235l-63 56c49 48 71 102 72 179z" />
    <glyph glyph-name="jcircumflex" unicode="&#x135;" horiz-adv-x="237" 
d="M174 -34c0 -67 -7 -113 -48 -154c-30 -30 -80 -43 -121 -43c-48 0 -88 19 -93 23l28 79c8 -3 27 -11 49 -11c27 0 43 9 54 20c14 14 21 34 21 78v530h110v-522zM283 602l-39 -55l-125 71l-125 -70l-39 58l164 117z" />
    <glyph glyph-name="ibreve" unicode="&#x12d;" horiz-adv-x="237" 
d="M174 0h-110v488h110v-488zM262 707c-5 -89 -59 -145 -143 -145s-139 56 -144 145h77c5 -43 28 -63 67 -63s61 20 66 63h77z" />
    <glyph glyph-name="itilde" unicode="&#x129;" horiz-adv-x="237" 
d="M174 0h-110v488h110v-488zM289 641c-15 -16 -63 -68 -117 -68c-43 0 -73 29 -109 29c-25 0 -53 -24 -66 -33l-49 54c17 16 63 66 117 66c43 0 72 -28 108 -28c29 0 56 23 68 34z" />
    <glyph glyph-name="hbar" unicode="&#x127;" horiz-adv-x="533" 
d="M318 562h-144v-101s60 41 131 41c60 0 99 -22 122 -45c51 -51 50 -113 50 -184v-273h-110v267c0 63 -1 98 -23 120c-9 9 -30 21 -61 21c-55 0 -102 -31 -109 -36v-372h-110v562h-85v90h85v71h110v-71h144v-90z" />
    <glyph glyph-name="hcircumflex" unicode="&#x125;" horiz-adv-x="533" 
d="M477 0h-110v267c0 63 -1 98 -23 120c-9 9 -30 21 -61 21c-55 0 -102 -31 -109 -36v-372h-110v723h110v-262s60 41 131 41c60 0 99 -22 122 -45c51 -51 50 -113 50 -184v-273zM283 837l-39 -55l-125 71l-125 -70l-39 58l164 117z" />
    <glyph glyph-name="gcommaaccent" unicode="&#x123;" horiz-adv-x="553" 
d="M489 3c0 -74 -3 -125 -50 -173c-34 -34 -86 -61 -173 -61c-127 0 -201 61 -208 69l46 72c7 -4 69 -49 150 -49c46 0 74 12 93 28c30 26 33 64 33 112v33c-8 -4 -51 -34 -123 -34c-140 0 -216 113 -216 240c0 147 103 262 256 262c98 0 179 -43 192 -49v-450zM380 122v272
c-7 3 -40 18 -85 18c-82 0 -143 -64 -143 -167c0 -98 57 -156 128 -156c52 0 96 30 100 33zM426 746c-14 -15 -72 -64 -72 -179h-117c0 97 40 155 85 200c11 11 29 27 41 35z" />
    <glyph glyph-name="gdotaccent" unicode="&#x121;" horiz-adv-x="553" 
d="M489 3c0 -74 -3 -125 -50 -173c-34 -34 -86 -61 -173 -61c-127 0 -201 61 -208 69l46 72c7 -4 69 -49 150 -49c46 0 74 12 93 28c30 26 33 64 33 112v33c-8 -4 -51 -34 -123 -34c-140 0 -216 113 -216 240c0 147 103 262 256 262c98 0 179 -43 192 -49v-450zM380 122v272
c-7 3 -40 18 -85 18c-82 0 -143 -64 -143 -167c0 -98 57 -156 128 -156c52 0 96 30 100 33zM363 631c0 -34 -27 -62 -61 -62s-62 28 -62 62s28 62 62 62s61 -28 61 -62z" />
    <glyph glyph-name="gcircumflex" unicode="&#x11d;" horiz-adv-x="553" 
d="M489 3c0 -74 -3 -125 -50 -173c-34 -34 -86 -61 -173 -61c-127 0 -201 61 -208 69l46 72c7 -4 69 -49 150 -49c46 0 74 12 93 28c30 26 33 64 33 112v33c-8 -4 -51 -34 -123 -34c-140 0 -216 113 -216 240c0 147 103 262 256 262c98 0 179 -43 192 -49v-450zM380 122v272
c-7 3 -40 18 -85 18c-82 0 -143 -64 -143 -167c0 -98 57 -156 128 -156c52 0 96 30 100 33zM462 602l-39 -55l-125 71l-125 -70l-39 58l164 117z" />
    <glyph glyph-name="ebreve" unicode="&#x115;" horiz-adv-x="523" 
d="M482 250c0 -16 -2 -31 -2 -39h-331c0 -59 37 -135 139 -135c68 0 120 30 134 37l38 -72c-5 -3 -75 -53 -181 -53c-153 0 -238 109 -238 253c0 153 93 261 231 261c133 0 210 -96 210 -252zM378 293c0 42 -17 125 -104 125c-68 0 -116 -51 -125 -125h229zM415 707
c-5 -89 -59 -145 -143 -145s-139 56 -144 145h77c5 -43 28 -63 67 -63s61 20 66 63h77z" />
    <glyph glyph-name="ecaron" unicode="&#x11b;" horiz-adv-x="523" 
d="M482 250c0 -16 -2 -31 -2 -39h-331c0 -59 37 -135 139 -135c68 0 120 30 134 37l38 -72c-5 -3 -75 -53 -181 -53c-153 0 -238 109 -238 253c0 153 93 261 231 261c133 0 210 -96 210 -252zM378 293c0 42 -17 125 -104 125c-68 0 -116 -51 -125 -125h229zM436 664
l-164 -117l-164 121l39 55l125 -71l125 70z" />
    <glyph glyph-name="obreve" unicode="&#x14f;" horiz-adv-x="563" 
d="M522 247c0 -154 -99 -259 -245 -259c-140 0 -236 103 -236 255c0 153 99 259 245 259c140 0 236 -103 236 -255zM411 243c0 101 -55 168 -131 168c-78 0 -128 -65 -128 -164c0 -101 56 -168 132 -168c80 0 127 64 127 164zM429 707c-5 -89 -59 -145 -143 -145
s-139 56 -144 145h77c5 -43 28 -63 67 -63s61 20 66 63h77z" />
    <glyph glyph-name="oslashacute" unicode="&#x1ff;" horiz-adv-x="563" 
d="M412 635l-225 -90l-34 62l216 116zM522 247c0 -154 -99 -259 -245 -259c-49 0 -80 12 -86 15l-40 -69l-70 39l41 70c-46 41 -81 107 -81 200c0 153 99 259 245 259c48 0 77 -11 94 -18l39 67l69 -40l-41 -70c49 -46 75 -114 75 -194zM416 243c0 52 -12 91 -23 105
l-156 -267c12 -5 27 -9 47 -9c83 0 132 67 132 171zM334 406c-13 7 -31 12 -54 12c-81 0 -133 -68 -133 -171c0 -52 11 -84 29 -113z" />
    <glyph glyph-name="rcommaaccent" unicode="&#x157;" 
d="M373 491l-25 -85c-5 1 -22 3 -33 3c-89 0 -130 -59 -141 -75v-334h-110v488h96v-62c4 7 61 76 159 76c35 0 51 -10 54 -11zM61 -82h117c1 -95 -40 -171 -126 -235l-63 56c49 48 71 102 72 179z" />
    <glyph glyph-name="scircumflex" unicode="&#x15d;" horiz-adv-x="443" 
d="M393 140c0 -96 -78 -153 -186 -153c-104 0 -172 47 -178 52l39 72c10 -5 62 -38 128 -38c56 0 85 26 85 60c0 38 -39 51 -105 79c-54 23 -129 55 -129 144c0 88 74 146 181 146c101 0 155 -42 158 -44l-38 -70c-5 3 -58 33 -113 33s-78 -27 -78 -55c0 -35 37 -50 87 -71
c68 -28 149 -59 149 -155zM393 602l-39 -55l-125 71l-125 -70l-39 58l164 117z" />
    <glyph glyph-name="tcommaaccent" unicode="&#x163;" horiz-adv-x="415" 
d="M375 16c-5 -3 -47 -29 -114 -29c-44 0 -89 12 -118 41c-39 39 -37 87 -37 150v220h-85v90h85v137h110v-137h144v-90h-144v-230c0 -44 2 -88 66 -88c35 0 59 11 65 13zM108 -82h117c1 -95 -40 -171 -126 -235l-63 56c49 48 71 102 72 179z" />
    <glyph glyph-name="tbar" unicode="&#x167;" horiz-adv-x="415" 
d="M360 225h-144v-57c0 -44 2 -88 66 -88c35 0 59 11 65 13l28 -77c-5 -3 -47 -29 -114 -29c-44 0 -89 12 -118 41c-39 39 -37 87 -37 150v47h-85v90h85v83h-85v90h85v137h110v-137h144v-90h-144v-83h144v-90z" />
    <glyph glyph-name="utilde" unicode="&#x169;" horiz-adv-x="534" 
d="M470 0h-96v37c-8 -6 -69 -50 -145 -50c-60 0 -98 21 -122 45c-51 51 -50 113 -50 184v272h110v-266c0 -63 1 -98 23 -120c10 -10 29 -21 63 -21c57 0 102 33 107 36v371h110v-488zM437 641c-15 -16 -63 -68 -117 -68c-43 0 -73 29 -109 29c-25 0 -53 -24 -66 -33l-49 54
c17 16 63 66 117 66c43 0 72 -28 108 -28c29 0 56 23 68 34z" />
    <glyph glyph-name="ubreve" unicode="&#x16d;" horiz-adv-x="534" 
d="M470 0h-96v37c-8 -6 -69 -50 -145 -50c-60 0 -98 21 -122 45c-51 51 -50 113 -50 184v272h110v-266c0 -63 1 -98 23 -120c10 -10 29 -21 63 -21c57 0 102 33 107 36v371h110v-488zM409 707c-5 -89 -59 -145 -143 -145s-139 56 -144 145h77c5 -43 28 -63 67 -63
s61 20 66 63h77z" />
    <glyph glyph-name="wacute" unicode="&#x1e83;" horiz-adv-x="769" 
d="M730 488l-137 -488h-118l-99 367l-97 -367h-115l-133 488h106l91 -370l99 370h107l98 -370l95 370h103zM506 635l-225 -90l-34 62l216 116z" />
    <glyph glyph-name="wgrave" unicode="&#x1e81;" horiz-adv-x="769" 
d="M730 488l-137 -488h-118l-99 367l-97 -367h-115l-133 488h106l91 -370l99 370h107l98 -370l95 370h103zM521 607l-34 -62l-225 90l43 88z" />
    <glyph glyph-name="wcircumflex" unicode="&#x175;" horiz-adv-x="769" 
d="M730 488l-137 -488h-118l-99 367l-97 -367h-115l-133 488h106l91 -370l99 370h107l98 -370l95 370h103zM540 602l-39 -55l-125 71l-125 -70l-39 58l164 117z" />
    <glyph glyph-name="wdieresis" unicode="&#x1e85;" horiz-adv-x="769" 
d="M730 488l-137 -488h-118l-99 367l-97 -367h-115l-133 488h106l91 -370l99 370h107l98 -370l95 370h103zM534 631c0 -34 -27 -62 -61 -62s-62 28 -62 62s28 62 62 62s61 -28 61 -62zM353 631c0 -34 -27 -62 -61 -62s-62 28 -62 62s28 62 62 62s61 -28 61 -62z" />
    <glyph glyph-name="ygrave" unicode="&#x1ef3;" horiz-adv-x="546" 
d="M519 488l-193 -502c-35 -92 -58 -134 -92 -168c-24 -24 -66 -49 -135 -49c-54 0 -97 21 -110 27l32 80c7 -3 34 -16 73 -16c31 0 54 10 71 27c26 26 42 72 56 109l-203 492h117l143 -368l132 368h109zM408 607l-34 -62l-225 90l43 88z" />
    <glyph glyph-name="ycircumflex" unicode="&#x177;" horiz-adv-x="546" 
d="M519 488l-193 -502c-35 -92 -58 -134 -92 -168c-24 -24 -66 -49 -135 -49c-54 0 -97 21 -110 27l32 80c7 -3 34 -16 73 -16c31 0 54 10 71 27c26 26 42 72 56 109l-203 492h117l143 -368l132 368h109zM435 602l-39 -55l-125 71l-125 -70l-39 58l164 117z" />
    <glyph glyph-name="Amacronsmall" unicode="&#xf66e;" horiz-adv-x="546" 
d="M534 0h-116l-44 120h-208l-43 -120h-111l203 524h115zM344 202l-75 204l-74 -204h149zM440 628h-336v74h336v-74z" />
    <glyph glyph-name="Abrevesmall" unicode="&#xf66d;" horiz-adv-x="546" 
d="M534 0h-116l-44 120h-208l-43 -120h-111l203 524h115zM344 202l-75 204l-74 -204h149zM413 715c-5 -89 -59 -145 -143 -145s-139 56 -144 145h77c5 -43 28 -63 67 -63s61 20 66 63h77z" />
    <glyph glyph-name="Aogoneksmall" unicode="&#xf66f;" horiz-adv-x="546" 
d="M344 202l-75 204l-74 -204h149zM418 0l-44 120h-208l-43 -120h-111l203 524h115l204 -524c-30 -23 -69 -45 -69 -89c0 -34 22 -56 55 -56c31 0 66 18 73 22l21 -44c-4 -3 -48 -32 -104 -32c-64 0 -107 43 -107 110c0 46 30 76 55 89h-40z" />
    <glyph glyph-name="Cacutesmall" unicode="&#xf671;" horiz-adv-x="530" 
d="M509 54c-15 -12 -80 -67 -197 -67c-148 0 -268 99 -268 269c0 176 126 279 280 279c115 0 172 -55 180 -63l-50 -71c-11 8 -54 41 -124 41c-96 0 -171 -68 -171 -179c0 -109 65 -181 164 -181c75 0 133 41 139 45zM454 661l-225 -90l-34 62l216 116z" />
    <glyph glyph-name="Ccaronsmall" unicode="&#xf673;" horiz-adv-x="530" 
d="M509 54c-15 -12 -80 -67 -197 -67c-148 0 -268 99 -268 269c0 176 126 279 280 279c115 0 172 -55 180 -63l-50 -71c-11 8 -54 41 -124 41c-96 0 -171 -68 -171 -179c0 -109 65 -181 164 -181c75 0 133 41 139 45zM488 687l-164 -117l-164 121l39 55l125 -71l125 70z" />
    <glyph glyph-name="Dcaronsmall" unicode="&#xf675;" horiz-adv-x="593" 
d="M549 266c0 -85 -36 -149 -75 -188c-75 -75 -178 -78 -277 -78h-127v524h144c101 0 190 -2 261 -73c47 -47 74 -112 74 -185zM436 268c0 56 -17 97 -44 124c-42 42 -92 47 -163 47h-48v-354h52c72 0 121 15 157 51c32 32 46 80 46 132zM418 687l-164 -117l-164 121l39 55
l125 -71l125 70z" />
    <glyph glyph-name="Ecaronsmall" unicode="&#xf678;" horiz-adv-x="455" 
d="M400 687l-164 -117l-164 121l39 55l125 -71l125 70zM405 0h-335v524h329v-87h-219v-124h206v-85h-206v-139h225v-89z" />
    <glyph glyph-name="Emacronsmall" unicode="&#xf67a;" horiz-adv-x="455" 
d="M402 628h-336v74h336v-74zM405 0h-335v524h329v-87h-219v-124h206v-85h-206v-139h225v-89z" />
    <glyph glyph-name="Edotaccentsmall" unicode="&#xf679;" horiz-adv-x="455" 
d="M405 0h-335v524h329v-87h-219v-124h206v-85h-206v-139h225v-89zM290 657c0 -34 -27 -62 -61 -62s-62 28 -62 62s28 62 62 62s61 -28 61 -62z" />
    <glyph glyph-name="Eogoneksmall" unicode="&#xf67c;" horiz-adv-x="455" 
d="M329 0h-259v524h329v-87h-219v-124h206v-85h-206v-139h225v-89c-30 -23 -69 -45 -69 -89c0 -34 22 -56 55 -56c31 0 66 18 73 22l21 -44c-4 -3 -48 -32 -104 -32c-64 0 -107 43 -107 110c0 46 30 76 55 89z" />
    <glyph glyph-name="Gbrevesmall" unicode="&#xf67d;" horiz-adv-x="566" 
d="M509 36c-12 -6 -81 -49 -194 -49c-152 0 -271 99 -271 269c0 176 125 279 279 279c115 0 173 -55 181 -63l-50 -71c-11 8 -55 41 -125 41c-96 0 -172 -68 -172 -179c0 -117 68 -182 169 -182c41 0 68 9 79 12v96h-109v85h213v-238zM466 715c-5 -89 -59 -145 -143 -145
s-139 56 -144 145h77c5 -43 28 -63 67 -63s61 20 66 63h77z" />
    <glyph glyph-name="Imacronsmall" unicode="&#xf685;" horiz-adv-x="253" 
d="M183 0h-113v524h113v-524zM294 628h-336v74h336v-74z" />
    <glyph glyph-name="Iogoneksmall" unicode="&#xf686;" horiz-adv-x="253" 
d="M70 0v524h113v-524c-30 -23 -69 -45 -69 -89c0 -34 22 -56 55 -56c31 0 66 18 73 22l21 -44c-4 -3 -48 -32 -104 -32c-64 0 -107 43 -107 110c0 46 30 76 55 89h-37z" />
    <glyph glyph-name="Lacutesmall" unicode="&#xf68a;" horiz-adv-x="436" 
d="M396 0h-326v524h113v-435h213v-89zM351 660l-225 -90l-34 62l216 116z" />
    <glyph glyph-name="Lcaronsmall" unicode="&#xf68b;" horiz-adv-x="436" 
d="M396 0h-326v524h113v-435h213v-89zM291 524h117c1 -95 -40 -171 -126 -235l-63 56c49 48 71 102 72 179z" />
    <glyph glyph-name="Nacutesmall" unicode="&#xf68e;" horiz-adv-x="571" 
d="M501 0h-99l-230 354l3 -354h-105v524h105l224 -349l-3 349h105v-524zM415 660l-225 -90l-34 62l216 116z" />
    <glyph glyph-name="Ncaronsmall" unicode="&#xf68f;" horiz-adv-x="571" 
d="M449 687l-164 -117l-164 121l39 55l125 -71l125 70zM501 0h-99l-230 354l3 -354h-105v524h105l224 -349l-3 349h105v-524z" />
    <glyph glyph-name="Omacronsmall" unicode="&#xf693;" horiz-adv-x="626" 
d="M582 264c0 -167 -111 -277 -269 -277s-269 113 -269 275c0 161 110 273 270 273c159 0 268 -113 268 -271zM466 265c0 105 -65 182 -157 182c-89 0 -149 -77 -149 -187s68 -184 155 -184c103 0 151 86 151 189zM484 628h-336v74h336v-74z" />
    <glyph glyph-name="Ohungarumlautsmall" unicode="&#xf692;" horiz-adv-x="626" 
d="M582 264c0 -167 -111 -277 -269 -277s-269 113 -269 275c0 161 110 273 270 273c159 0 268 -113 268 -271zM466 265c0 105 -65 182 -157 182c-89 0 -149 -77 -149 -187s68 -184 155 -184c103 0 151 86 151 189zM491 728l-75 -172l-79 27l58 180zM343 728l-75 -172l-80 27
l58 180z" />
    <glyph glyph-name="Racutesmall" unicode="&#xf695;" horiz-adv-x="508" 
d="M487 0h-120l-65 138c-33 71 -50 72 -105 72h-17v-210h-110v524h139c65 0 137 3 188 -48c29 -29 44 -62 44 -105c0 -36 -11 -67 -34 -90c-18 -19 -43 -32 -82 -38c53 -5 75 -65 93 -102zM331 369c0 24 -9 38 -19 48c-23 23 -58 21 -89 21h-43v-145h26c42 0 80 1 105 26
c13 13 20 31 20 50zM379 660l-225 -90l-34 62l216 116z" />
    <glyph glyph-name="Rcaronsmall" unicode="&#xf696;" horiz-adv-x="508" 
d="M487 0h-120l-65 138c-33 71 -50 72 -105 72h-17v-210h-110v524h139c65 0 137 3 188 -48c29 -29 44 -62 44 -105c0 -36 -11 -67 -34 -90c-18 -19 -43 -32 -82 -38c53 -5 75 -65 93 -102zM331 369c0 24 -9 38 -19 48c-23 23 -58 21 -89 21h-43v-145h26c42 0 80 1 105 26
c13 13 20 31 20 50zM394 687l-164 -117l-164 121l39 55l125 -71l125 70z" />
    <glyph glyph-name="Sacutesmall" unicode="&#xf698;" horiz-adv-x="463" 
d="M415 153c0 -97 -78 -166 -198 -166c-109 0 -175 54 -185 64l49 71c8 -5 65 -46 129 -46c65 0 93 32 93 69c0 17 -7 30 -16 39c-37 37 -140 47 -195 102c-19 19 -41 48 -41 98c0 92 79 151 187 151s165 -51 172 -59l-50 -69c-19 12 -59 42 -116 42c-54 0 -85 -27 -85 -58
c0 -13 3 -22 14 -33c31 -31 142 -46 204 -108c24 -24 38 -58 38 -97zM371 660l-225 -90l-34 62l216 116z" />
    <glyph glyph-name="Scedillasmall" unicode="&#xf699;" horiz-adv-x="405" 
d="M415 153c0 -93 -72 -161 -184 -165l-5 -35c5 2 13 3 22 3c53 0 90 -34 90 -85c0 -59 -51 -93 -102 -93c-40 0 -70 16 -79 24l20 41c3 -2 24 -14 52 -14c40 0 49 24 49 40c0 22 -17 37 -42 37c-19 0 -36 -8 -42 -12l-31 17l13 79c-80 9 -136 52 -144 61l49 71
c8 -5 65 -46 129 -46c65 0 93 32 93 69c0 17 -7 30 -16 39c-37 37 -140 47 -195 102c-19 19 -41 48 -41 98c0 92 79 151 187 151s165 -51 172 -59l-50 -69c-19 12 -59 42 -116 42c-54 0 -85 -27 -85 -58c0 -13 3 -22 14 -33c31 -31 142 -46 204 -108c24 -24 38 -58 38 -97z
" />
    <glyph glyph-name="Scommaaccentsmall" unicode="&#xf69b;" horiz-adv-x="463" 
d="M415 153c0 -97 -78 -166 -198 -166c-109 0 -175 54 -185 64l49 71c8 -5 65 -46 129 -46c65 0 93 32 93 69c0 17 -7 30 -16 39c-37 37 -140 47 -195 102c-19 19 -41 48 -41 98c0 92 79 151 187 151s165 -51 172 -59l-50 -69c-19 12 -59 42 -116 42c-54 0 -85 -27 -85 -58
c0 -13 3 -22 14 -33c31 -31 142 -46 204 -108c24 -24 38 -58 38 -97zM159 -82h117c1 -95 -40 -171 -126 -235l-63 56c49 48 71 102 72 179z" />
    <glyph glyph-name="Tcaronsmall" unicode="&#xf69d;" horiz-adv-x="476" 
d="M449 437h-154v-437h-113v437h-155v87h422v-87zM403 687l-164 -117l-164 121l39 55l125 -71l125 70z" />
    <glyph glyph-name="Umacronsmall" unicode="&#xf6a1;" horiz-adv-x="556" 
d="M493 252c0 -109 -6 -163 -51 -208c-34 -34 -87 -57 -164 -57c-64 0 -126 18 -164 56c-53 53 -51 102 -51 166v315h113v-329c0 -32 0 -64 26 -90c18 -18 49 -26 80 -26s58 10 73 25c25 23 27 50 28 82v50v288h110v-272zM446 628h-336v74h336v-74z" />
    <glyph glyph-name="Uringsmall" unicode="&#xf6a3;" horiz-adv-x="556" 
d="M493 252c0 -109 -6 -163 -51 -208c-34 -34 -87 -57 -164 -57c-64 0 -126 18 -164 56c-53 53 -51 102 -51 166v315h113v-329c0 -32 0 -64 26 -90c18 -18 49 -26 80 -26s58 10 73 25c25 23 27 50 28 82v50v288h110v-272zM385 676c0 -58 -47 -106 -105 -106
s-106 48 -106 106c0 59 48 106 106 106c59 0 105 -48 105 -106zM329 676c0 28 -23 50 -50 50s-49 -23 -49 -50s22 -49 49 -49c28 0 50 22 50 49z" />
    <glyph glyph-name="Uhungarumlautsmall" unicode="&#xf6a0;" horiz-adv-x="556" 
d="M493 252c0 -109 -6 -163 -51 -208c-34 -34 -87 -57 -164 -57c-64 0 -126 18 -164 56c-53 53 -51 102 -51 166v315h113v-329c0 -32 0 -64 26 -90c18 -18 49 -26 80 -26s58 10 73 25c25 23 27 50 28 82v50v288h110v-272zM441 728l-75 -172l-79 27l58 180zM293 728l-75 -172
l-80 27l58 180z" />
    <glyph glyph-name="Uogoneksmall" unicode="&#xf6a2;" horiz-adv-x="556" 
d="M467 -167c-4 -3 -48 -32 -104 -32c-64 0 -107 43 -107 110c0 35 18 64 40 77c-7 -1 -11 -1 -18 -1c-64 0 -126 18 -164 56c-53 53 -51 102 -51 166v315h113v-329c0 -32 0 -64 26 -90c18 -18 49 -26 80 -26s58 10 73 25c25 23 27 50 28 82v338h110v-272
c0 -109 -6 -163 -51 -208c-53 -53 -124 -73 -124 -133c0 -34 22 -56 55 -56c31 0 66 18 73 22z" />
    <glyph glyph-name="Zacutesmall" unicode="&#xf6ab;" horiz-adv-x="499" 
d="M451 0h-403v73l260 364h-247v87h382v-77l-254 -358h262v-89zM379 660l-225 -90l-34 62l216 116z" />
    <glyph glyph-name="Zdotaccentsmall" unicode="&#xf6ac;" horiz-adv-x="499" 
d="M313 657c0 -34 -27 -62 -61 -62s-62 28 -62 62s28 62 62 62s61 -28 61 -62zM451 0h-403v73l260 364h-247v87h382v-77l-254 -358h262v-89z" />
    <glyph glyph-name="Dcroatsmall" unicode="&#xf676;" horiz-adv-x="593" 
d="M589 266c0 -85 -36 -149 -75 -188c-75 -75 -178 -78 -277 -78h-127v230h-81v81h81v213h144c101 0 190 -2 261 -73c47 -47 74 -112 74 -185zM476 268c0 56 -17 97 -44 124c-42 42 -92 47 -163 47h-48v-128h132v-81h-132v-145h52c72 0 121 15 157 51c32 32 46 80 46 132z
" />
    <glyph glyph-name="Aringacutesmall" horiz-adv-x="546" 
d="M534 0h-116l-44 120h-208l-43 -120h-111l203 524h115zM344 202l-75 204l-74 -204h149zM375 676c0 -58 -47 -106 -105 -106s-106 48 -106 106c0 59 48 106 106 106c59 0 105 -48 105 -106zM319 676c0 28 -23 50 -50 50s-49 -23 -49 -50s22 -49 49 -49c28 0 50 22 50 49z
M397 882l-225 -90l-34 62l216 116z" />
    <glyph glyph-name="AEacutesmall" unicode="&#xf670;" horiz-adv-x="763" 
d="M713 0h-335v122h-176l-69 -122h-113l314 524h373v-87h-219v-124h206v-85h-206v-139h225v-89zM378 205v229l-129 -229h129zM657 660l-225 -90l-34 62l216 116z" />
    <glyph glyph-name="Ccircumflexsmall" unicode="&#xf672;" horiz-adv-x="530" 
d="M509 54c-15 -12 -80 -67 -197 -67c-148 0 -268 99 -268 269c0 176 126 279 280 279c115 0 172 -55 180 -63l-50 -71c-11 8 -54 41 -124 41c-96 0 -171 -68 -171 -179c0 -109 65 -181 164 -181c75 0 133 41 139 45zM489 625l-39 -55l-125 71l-125 -70l-39 58l164 117z" />
    <glyph glyph-name="Cdotaccentsmall" unicode="&#xf674;" horiz-adv-x="530" 
d="M509 54c-15 -12 -80 -67 -197 -67c-148 0 -268 99 -268 269c0 176 126 279 280 279c115 0 172 -55 180 -63l-50 -71c-11 8 -54 41 -124 41c-96 0 -171 -68 -171 -179c0 -109 65 -181 164 -181c75 0 133 41 139 45zM384 657c0 -34 -27 -62 -61 -62s-62 28 -62 62
s28 62 62 62s61 -28 61 -62z" />
    <glyph glyph-name="Ebrevesmall" unicode="&#xf677;" horiz-adv-x="455" 
d="M378 715c-5 -89 -59 -145 -143 -145s-139 56 -144 145h77c5 -43 28 -63 67 -63s61 20 66 63h77zM405 0h-335v524h329v-87h-219v-124h206v-85h-206v-139h225v-89z" />
    <glyph glyph-name="Gcircumflexsmall" unicode="&#xf67e;" horiz-adv-x="566" 
d="M509 36c-12 -6 -81 -49 -194 -49c-152 0 -271 99 -271 269c0 176 125 279 279 279c115 0 173 -55 181 -63l-50 -71c-11 8 -55 41 -125 41c-96 0 -172 -68 -172 -179c0 -117 68 -182 169 -182c41 0 68 9 79 12v96h-109v85h213v-238zM489 625l-39 -55l-125 71l-125 -70
l-39 58l164 117z" />
    <glyph glyph-name="Gdotaccentsmall" unicode="&#xf680;" horiz-adv-x="566" 
d="M509 36c-12 -6 -81 -49 -194 -49c-152 0 -271 99 -271 269c0 176 125 279 279 279c115 0 173 -55 181 -63l-50 -71c-11 8 -55 41 -125 41c-96 0 -172 -68 -172 -179c0 -117 68 -182 169 -182c41 0 68 9 79 12v96h-109v85h213v-238zM385 657c0 -34 -27 -62 -61 -62
s-62 28 -62 62s28 62 62 62s61 -28 61 -62z" />
    <glyph glyph-name="Gcommaaccentsmall" unicode="&#xf67f;" horiz-adv-x="566" 
d="M509 36c-12 -6 -81 -49 -194 -49c-152 0 -271 99 -271 269c0 176 125 279 279 279c115 0 173 -55 181 -63l-50 -71c-11 8 -55 41 -125 41c-96 0 -172 -68 -172 -179c0 -117 68 -182 169 -182c41 0 68 9 79 12v96h-109v85h213v-238zM260 -82h117c1 -95 -40 -171 -126 -235
l-63 56c49 48 71 102 72 179z" />
    <glyph glyph-name="Hcircumflexsmall" unicode="&#xf682;" horiz-adv-x="571" 
d="M501 0h-113v228h-205v-228h-113v524h113v-206h205v206h113v-524zM449 625l-39 -55l-125 71l-125 -70l-39 58l164 117z" />
    <glyph glyph-name="Hbarsmall" unicode="&#xf681;" horiz-adv-x="571" 
d="M501 0h-113v228h-205v-228h-113v380h-81v86h81v58h113v-58h205v58h113v-58h81v-86h-81v-380zM183 318h205v62h-205v-62z" />
    <glyph glyph-name="Itildesmall" unicode="&#xf687;" horiz-adv-x="253" 
d="M183 0h-113v524h113v-524zM297 651c-15 -16 -63 -68 -117 -68c-43 0 -73 29 -109 29c-25 0 -53 -24 -66 -33l-49 54c17 16 63 66 117 66c43 0 72 -28 108 -28c29 0 56 23 68 34z" />
    <glyph glyph-name="Ibrevesmall" unicode="&#xf683;" horiz-adv-x="253" 
d="M183 0h-113v524h113v-524zM270 715c-5 -89 -59 -145 -143 -145s-139 56 -144 145h77c5 -43 28 -63 67 -63s61 20 66 63h77z" />
    <glyph glyph-name="Idotaccentsmall" unicode="&#xf6ad;" horiz-adv-x="253" 
d="M183 0h-113v524h113v-524zM188 657c0 -34 -27 -62 -61 -62s-62 28 -62 62s28 62 62 62s61 -28 61 -62z" />
    <glyph glyph-name="Jcircumflexsmall" unicode="&#xf688;" horiz-adv-x="347" 
d="M284 182c0 -61 0 -114 -41 -155c-24 -24 -64 -40 -112 -40c-70 0 -117 33 -122 38l39 74c6 -3 34 -20 66 -20c19 0 32 6 40 14c15 15 17 36 17 75v356h113v-342zM391 625l-39 -55l-125 71l-125 -70l-39 58l164 117z" />
    <glyph glyph-name="Kcommaaccentsmall" unicode="&#xf689;" horiz-adv-x="527" 
d="M516 0h-139l-194 243v-243h-113v524h113v-244l195 244h127l-212 -256zM220 -82h117c1 -95 -40 -171 -126 -235l-63 56c49 48 71 102 72 179z" />
    <glyph glyph-name="Lcommaaccentsmall" unicode="&#xf68c;" horiz-adv-x="436" 
d="M396 0h-326v524h113v-435h213v-89zM195 -82h117c1 -95 -40 -171 -126 -235l-63 56c49 48 71 102 72 179z" />
    <glyph glyph-name="Ldotsmall" unicode="&#xf68d;" horiz-adv-x="436" 
d="M396 0h-326v524h113v-435h213v-89zM352 273c0 -34 -27 -62 -61 -62s-62 28 -62 62s28 62 62 62s61 -28 61 -62z" />
    <glyph glyph-name="Ncommaaccentsmall" unicode="&#xf690;" horiz-adv-x="571" 
d="M501 0h-99l-230 354l3 -354h-105v524h105l224 -349l-3 349h105v-524zM228 -82h117c1 -95 -40 -171 -126 -235l-63 56c49 48 71 102 72 179z" />
    <glyph glyph-name="Engsmall" unicode="&#xf67b;" horiz-adv-x="571" 
d="M501 524v-551c0 -61 0 -114 -41 -155c-24 -24 -64 -40 -112 -40c-70 0 -117 33 -122 38l39 74c6 -3 34 -20 71 -20c19 0 32 6 40 14c15 15 17 36 17 75v45l-221 350l3 -354h-105v524h105l224 -356l-3 356h105z" />
    <glyph glyph-name="Obrevesmall" unicode="&#xf691;" horiz-adv-x="626" 
d="M582 264c0 -167 -111 -277 -269 -277s-269 113 -269 275c0 161 110 273 270 273c159 0 268 -113 268 -271zM466 265c0 105 -65 182 -157 182c-89 0 -149 -77 -149 -187s68 -184 155 -184c103 0 151 86 151 189zM456 715c-5 -89 -59 -145 -143 -145s-139 56 -144 145h77
c5 -43 28 -63 67 -63s61 20 66 63h77z" />
    <glyph glyph-name="Oslashacutesmall" unicode="&#xf694;" horiz-adv-x="626" 
d="M582 264c0 -167 -111 -277 -269 -277c-58 0 -93 15 -104 19l-41 -68l-75 42l43 68c-10 8 -92 73 -92 214c0 161 110 273 270 273c60 0 96 -16 103 -19l39 67l75 -42l-40 -67c8 -7 91 -72 91 -210zM466 265c0 70 -26 106 -33 115l-175 -293c5 -3 30 -11 57 -11
c103 0 151 86 151 189zM370 434c-4 2 -27 13 -61 13c-89 0 -149 -77 -149 -187c0 -77 32 -115 34 -117zM439 660l-225 -90l-34 62l216 116z" />
    <glyph glyph-name="Rcommaaccentsmall" unicode="&#xf697;" horiz-adv-x="508" 
d="M487 0h-120l-65 138c-33 71 -50 72 -105 72h-17v-210h-110v524h139c65 0 137 3 188 -48c29 -29 44 -62 44 -105c0 -36 -11 -67 -34 -90c-18 -19 -43 -32 -82 -38c53 -5 75 -65 93 -102zM331 369c0 24 -9 38 -19 48c-23 23 -58 21 -89 21h-43v-145h26c42 0 80 1 105 26
c13 13 20 31 20 50zM211 -82h117c1 -95 -40 -171 -126 -235l-63 56c49 48 71 102 72 179z" />
    <glyph glyph-name="Scircumflexsmall" unicode="&#xf69a;" horiz-adv-x="463" 
d="M415 153c0 -97 -78 -166 -198 -166c-109 0 -175 54 -185 64l49 71c8 -5 65 -46 129 -46c65 0 93 32 93 69c0 17 -7 30 -16 39c-37 37 -140 47 -195 102c-19 19 -41 48 -41 98c0 92 79 151 187 151s165 -51 172 -59l-50 -69c-19 12 -59 42 -116 42c-54 0 -85 -27 -85 -58
c0 -13 3 -22 14 -33c31 -31 142 -46 204 -108c24 -24 38 -58 38 -97zM401 625l-39 -55l-125 71l-125 -70l-39 58l164 117z" />
    <glyph glyph-name="Tcommaaccentsmall" unicode="&#xf69e;" horiz-adv-x="476" 
d="M449 437h-154v-437h-113v437h-155v87h422v-87zM180 -82h117c1 -95 -40 -171 -126 -235l-63 56c49 48 71 102 72 179z" />
    <glyph glyph-name="Tbarsmall" unicode="&#xf69c;" horiz-adv-x="476" 
d="M397 228h-102v-228h-113v228h-103v85h103v124h-155v87h422v-87h-154v-124h102v-85z" />
    <glyph glyph-name="Utildesmall" unicode="&#xf6a4;" horiz-adv-x="556" 
d="M493 252c0 -109 -6 -163 -51 -208c-34 -34 -87 -57 -164 -57c-64 0 -126 18 -164 56c-53 53 -51 102 -51 166v315h113v-329c0 -32 0 -64 26 -90c18 -18 49 -26 80 -26s58 10 73 25c25 23 27 50 28 82v50v288h110v-272zM449 651c-15 -16 -63 -68 -117 -68
c-43 0 -73 29 -109 29c-25 0 -53 -24 -66 -33l-49 54c17 16 63 66 117 66c43 0 72 -28 108 -28c29 0 56 23 68 34z" />
    <glyph glyph-name="Ubrevesmall" unicode="&#xf69f;" horiz-adv-x="556" 
d="M493 252c0 -109 -6 -163 -51 -208c-34 -34 -87 -57 -164 -57c-64 0 -126 18 -164 56c-53 53 -51 102 -51 166v315h113v-329c0 -32 0 -64 26 -90c18 -18 49 -26 80 -26s58 10 73 25c25 23 27 50 28 82v50v288h110v-272zM423 715c-5 -89 -59 -145 -143 -145
s-139 56 -144 145h77c5 -43 28 -63 67 -63s61 20 66 63h77z" />
    <glyph glyph-name="Wacutesmall" unicode="&#xf6a5;" horiz-adv-x="780" 
d="M744 524l-136 -524h-119l-97 385l-103 -385h-119l-134 524h113l84 -380l102 380h118l99 -379l87 379h105zM522 660l-225 -90l-34 62l216 116z" />
    <glyph glyph-name="Wgravesmall" unicode="&#xf6a8;" horiz-adv-x="780" 
d="M744 524l-136 -524h-119l-97 385l-103 -385h-119l-134 524h113l84 -380l102 380h118l99 -379l87 379h105zM522 632l-34 -62l-225 90l43 88z" />
    <glyph glyph-name="Wcircumflexsmall" unicode="&#xf6a6;" horiz-adv-x="780" 
d="M744 524l-136 -524h-119l-97 385l-103 -385h-119l-134 524h113l84 -380l102 380h118l99 -379l87 379h105zM556 625l-39 -55l-125 71l-125 -70l-39 58l164 117z" />
    <glyph glyph-name="Wdieresissmall" unicode="&#xf6a7;" horiz-adv-x="780" 
d="M744 524l-136 -524h-119l-97 385l-103 -385h-119l-134 524h113l84 -380l102 380h118l99 -379l87 379h105zM544 658c0 -34 -27 -62 -61 -62s-62 28 -62 62s28 62 62 62s61 -28 61 -62zM363 658c0 -34 -27 -62 -61 -62s-62 28 -62 62s28 62 62 62s61 -28 61 -62z" />
    <glyph glyph-name="Ygravesmall" unicode="&#xf6aa;" horiz-adv-x="510" 
d="M489 524l-178 -315v-209h-112v209l-178 315h118l122 -225l120 225h108zM391 632l-34 -62l-225 90l43 88z" />
    <glyph glyph-name="Ycircumflexsmall" unicode="&#xf6a9;" horiz-adv-x="510" 
d="M489 524l-178 -315v-209h-112v209l-178 315h118l122 -225l120 225h108zM424 625l-39 -55l-125 71l-125 -70l-39 58l164 117z" />
    <glyph glyph-name="uni021A" unicode="&#x21a;" horiz-adv-x="552" 
d="M523 573h-189v-573h-116v573h-189v94h494v-94zM217 -82h117c1 -95 -40 -171 -126 -235l-63 56c49 48 71 102 72 179z" />
    <glyph glyph-name="uni021B" unicode="&#x21b;" horiz-adv-x="415" 
d="M375 16c-5 -3 -47 -29 -114 -29c-44 0 -89 12 -118 41c-39 39 -37 87 -37 150v220h-85v90h85v137h110v-137h144v-90h-144v-230c0 -44 2 -88 66 -88c35 0 59 11 65 13zM108 -82h117c1 -95 -40 -171 -126 -235l-63 56c49 48 71 102 72 179z" />
    <glyph glyph-name="afii10017" unicode="&#x410;" horiz-adv-x="633" 
d="M619 0h-120l-53 156h-262l-53 -156h-117l243 667h119zM415 247l-101 297l-100 -297h201z" />
    <glyph glyph-name="afii10018" unicode="&#x411;" horiz-adv-x="585" 
d="M190 388h91c98 0 254 -17 254 -191c0 -58 -21 -103 -51 -133c-62 -62 -144 -64 -250 -64h-158v667h391v-94h-277v-185zM417 196c0 23 -7 46 -27 66c-35 35 -92 32 -152 32h-48v-202h65c69 0 105 6 136 37c17 17 26 44 26 67z" />
    <glyph glyph-name="afii10019" unicode="&#x412;" horiz-adv-x="584" 
d="M534 197c0 -57 -20 -103 -50 -133c-64 -64 -148 -64 -255 -64h-153v667h201c72 0 135 -4 183 -52c37 -37 51 -79 51 -128c0 -111 -81 -139 -101 -145c49 -10 124 -45 124 -145zM398 481c0 26 -9 48 -23 64c-31 34 -86 31 -134 31h-54v-194h48c48 0 103 2 136 32
c17 16 27 38 27 67zM417 196c0 23 -7 46 -27 66c-35 35 -92 32 -152 32h-51v-202h68c69 0 105 6 136 37c17 17 26 44 26 67z" />
    <glyph glyph-name="afii10020" unicode="&#x413;" horiz-adv-x="489" 
d="M192 0h-116v667h384v-94h-268v-573z" />
    <glyph glyph-name="afii10021" unicode="&#x414;" horiz-adv-x="694" 
d="M48 -125v222c28 1 47 7 62 20c18 17 28 42 40 92l104 458h332v-570h64v-222h-110v127h-382v-127h-110zM206 97h264v476h-123l-76 -340c-18 -81 -36 -120 -65 -136z" />
    <glyph glyph-name="afii10022" unicode="&#x415;" horiz-adv-x="520" 
d="M471 0h-395v667h387v-94h-273v-182h256v-92h-256v-203h281v-96z" />
    <glyph glyph-name="afii10024" unicode="&#x416;" horiz-adv-x="917" 
d="M766 0l-248 315v-315h-114v315l-248 -315h-144l273 342l-268 325h141l246 -313v313h114v-313l246 313h128l-263 -325l276 -342h-139z" />
    <glyph glyph-name="afii10025" unicode="&#x417;" horiz-adv-x="550" 
d="M501 193c0 -125 -105 -208 -258 -208c-149 0 -212 62 -219 70l50 77c9 -6 64 -51 157 -51c94 0 152 44 152 109c0 101 -102 105 -178 105h-37v93h31c54 0 108 0 148 40c16 16 25 35 25 62c0 54 -53 96 -127 96c-90 0 -149 -50 -156 -56l-53 70c3 4 75 82 224 82
c129 0 225 -76 225 -185c0 -65 -42 -141 -116 -152c84 -9 132 -74 132 -152z" />
    <glyph glyph-name="afii10026" unicode="&#x418;" horiz-adv-x="658" 
d="M478 493l-297 -493h-105v667h106l-2 -487l294 487h108v-667h-106z" />
    <glyph glyph-name="afii10027" unicode="&#x419;" horiz-adv-x="658" 
d="M472 896c-1 -89 -59 -145 -143 -145s-144 56 -144 145h77c1 -43 24 -67 67 -67s66 24 66 67h77zM478 493l-2 -493h106v667h-108l-294 -487l2 487h-106v-667h105z" />
    <glyph glyph-name="afii10028" unicode="&#x41a;" horiz-adv-x="590" 
d="M578 0h-139l-247 314v-314h-116v667h116v-312l245 312h128l-263 -325z" />
    <glyph glyph-name="afii10029" unicode="&#x41b;" horiz-adv-x="661" 
d="M585 0h-116v573h-149l-91 -409c-23 -104 -47 -171 -190 -171c-4 0 -17 0 -25 1v91c68 0 88 29 108 116l104 466h359v-667z" />
    <glyph glyph-name="afii10030" unicode="&#x41c;" horiz-adv-x="869" 
d="M806 0h-111l-46 504l-171 -504h-95l-176 504l-41 -504h-103l65 667h126l182 -514l175 514h126z" />
    <glyph glyph-name="afii10031" unicode="&#x41d;" horiz-adv-x="659" 
d="M583 0h-116v300h-275v-300h-116v667h116v-271h275v271h116v-667z" />
    <glyph glyph-name="afii10032" unicode="&#x41e;" horiz-adv-x="730" 
d="M681 338c0 -212 -130 -352 -316 -352c-185 0 -316 143 -316 349c0 205 130 347 318 347c187 0 314 -143 314 -344zM562 340c0 144 -81 246 -201 246c-117 0 -193 -104 -193 -254c0 -151 85 -248 199 -248c139 0 195 125 195 256z" />
    <glyph glyph-name="afii10033" unicode="&#x41f;" horiz-adv-x="659" 
d="M583 0h-116v573h-275v-573h-116v667h507v-667z" />
    <glyph glyph-name="afii10034" unicode="&#x420;" horiz-adv-x="577" 
d="M524 467c0 -68 -27 -119 -57 -149c-63 -63 -135 -63 -227 -63h-50v-255h-114v667h178c90 0 162 -4 215 -57c36 -36 55 -87 55 -143zM407 465c0 36 -12 65 -31 84c-26 26 -69 27 -123 27h-63v-228h47c72 0 112 3 138 29c19 19 32 48 32 88z" />
    <glyph glyph-name="afii10035" unicode="&#x421;" horiz-adv-x="636" 
d="M612 60c-8 -8 -92 -74 -233 -74c-186 0 -330 127 -330 342c0 222 152 354 343 354c135 0 209 -63 216 -71l-51 -78c-8 6 -68 50 -159 50c-128 0 -230 -91 -230 -246c0 -151 86 -250 223 -250c93 0 163 47 172 52z" />
    <glyph glyph-name="afii10036" unicode="&#x422;" horiz-adv-x="552" 
d="M523 573h-189v-573h-116v573h-189v94h494v-94z" />
    <glyph glyph-name="afii10037" unicode="&#x423;" horiz-adv-x="608" 
d="M586 667l-199 -428c-77 -154 -94 -246 -248 -246c-62 0 -107 24 -111 27l32 80c7 -3 35 -15 73 -15c74 0 106 80 142 159l-222 423h119l160 -318l146 318h108z" />
    <glyph glyph-name="afii10038" unicode="&#x424;" horiz-adv-x="728" 
d="M682 333c0 -164 -111 -253 -266 -259v-74h-104v74c-156 5 -266 94 -266 260c0 154 108 252 266 258v75h104v-75c157 -6 266 -102 266 -259zM156 332c0 -114 72 -169 156 -173v351c-87 -4 -156 -63 -156 -178zM573 331c0 114 -68 173 -157 179v-351c99 5 157 68 157 172z
" />
    <glyph glyph-name="afii10039" unicode="&#x425;" horiz-adv-x="606" 
d="M578 0h-125l-152 252l-153 -252h-120l215 343l-201 324h127l138 -238l140 238h119l-201 -323z" />
    <glyph glyph-name="afii10040" unicode="&#x426;" horiz-adv-x="691" 
d="M537 0h-461v667h116v-571h275v571h116v-571h64v-221h-110v125z" />
    <glyph glyph-name="afii10041" unicode="&#x427;" horiz-adv-x="652" 
d="M321 262c-72 0 -140 20 -191 71c-55 56 -61 122 -61 226v108h116v-142c0 -43 2 -91 36 -125c23 -23 58 -37 108 -37c82 0 123 27 131 32v272h116v-667h-116v291c-13 -7 -67 -29 -139 -29z" />
    <glyph glyph-name="afii10042" unicode="&#x428;" horiz-adv-x="849" 
d="M773 0h-697v667h116v-571h173v571h116v-571h176v571h116v-667z" />
    <glyph glyph-name="afii10043" unicode="&#x429;" horiz-adv-x="881" 
d="M727 0h-651v667h116v-571h173v571h116v-571h176v571h116v-571h64v-221h-110v125z" />
    <glyph glyph-name="afii10044" unicode="&#x42a;" horiz-adv-x="716" 
d="M385 0h-180v573h-176v94h290v-254h58c101 0 187 -8 242 -71c24 -29 44 -74 44 -138c0 -61 -17 -108 -48 -141c-54 -58 -142 -63 -230 -63zM545 203c0 108 -77 117 -168 117h-58v-227h64c76 0 162 3 162 110z" />
    <glyph glyph-name="afii10045" unicode="&#x42b;" horiz-adv-x="831" 
d="M755 0h-116v667h116v-667zM256 0c88 0 176 5 230 63c31 33 48 80 48 141c0 64 -20 109 -44 138c-55 63 -141 71 -242 71h-58v254h-114v-667h180zM416 203c0 -107 -86 -110 -162 -110h-64v227h58c91 0 168 -9 168 -117z" />
    <glyph glyph-name="afii10046" unicode="&#x42c;" horiz-adv-x="587" 
d="M256 0h-180v667h114v-254h58c101 0 187 -8 242 -71c24 -29 44 -74 44 -138c0 -61 -17 -108 -48 -141c-54 -58 -142 -63 -230 -63zM416 203c0 108 -77 117 -168 117h-58v-227h64c76 0 162 3 162 110z" />
    <glyph glyph-name="afii10047" unicode="&#x42d;" horiz-adv-x="636" 
d="M24 61l50 80c9 -5 80 -54 172 -54c129 0 214 92 221 204h-308v96h307c-15 110 -95 196 -222 196c-96 0 -152 -44 -159 -49l-51 78c9 8 77 70 216 70c192 0 337 -132 337 -354c0 -214 -143 -343 -327 -343c-143 0 -228 68 -236 76z" />
    <glyph glyph-name="afii10048" unicode="&#x42e;" horiz-adv-x="1002" 
d="M834 340c0 144 -81 246 -201 246c-117 0 -193 -104 -193 -254c0 -151 85 -248 199 -248c139 0 195 125 195 256zM322 300h-130v-300h-116v667h116v-271h133c23 171 145 286 314 286c187 0 314 -143 314 -344c0 -212 -130 -352 -316 -352c-175 0 -301 127 -315 314z" />
    <glyph glyph-name="afii10049" unicode="&#x42f;" horiz-adv-x="583" 
d="M228 178l-80 -178h-124l93 206c26 59 52 99 103 103c-96 15 -147 85 -147 170c0 56 22 100 54 132c58 58 131 56 220 56h160v-667h-114v275h-29c-72 0 -95 -3 -136 -97zM189 475c0 -28 11 -57 30 -76c31 -31 74 -34 130 -34h44v210h-54c-53 0 -94 3 -125 -28
c-13 -13 -25 -41 -25 -72z" />
    <glyph glyph-name="afii10050" unicode="&#x490;" horiz-adv-x="489" 
d="M351 667v133h109v-227h-268v-573h-116v667h275z" />
    <glyph glyph-name="afii10055" unicode="&#x406;" horiz-adv-x="268" 
d="M192 0h-116v667h116v-667z" />
    <glyph glyph-name="afii10051" unicode="&#x402;" horiz-adv-x="708" 
d="M645 138c0 -269 -44 -370 -222 -370c-35 0 -77 10 -94 22l27 82c19 -7 43 -10 56 -10c105 0 115 92 115 270c0 95 -6 141 -22 167c-15 26 -40 36 -81 36c-60 0 -109 -27 -123 -36v-299h-116v573h-156v94h444v-94h-172v-174c28 15 76 37 144 37c78 0 125 -22 154 -59
c33 -44 46 -115 46 -239z" />
    <glyph glyph-name="afii10099" unicode="&#x452;" horiz-adv-x="575" 
d="M519 273v-307c0 -67 -7 -113 -48 -154c-30 -30 -80 -43 -121 -43c-48 0 -88 19 -93 23l28 79c8 -3 27 -11 49 -11c27 0 43 9 54 20c14 14 21 34 21 78v309c0 63 -1 98 -23 120c-9 9 -30 21 -61 21c-55 0 -102 -31 -109 -36v-372h-110v567h-85v85h85v71h110v-71h149v-85
h-149v-106s60 41 131 41c60 0 99 -22 122 -45c51 -51 50 -113 50 -184z" />
    <glyph glyph-name="afii10052" unicode="&#x403;" horiz-adv-x="489" 
d="M403 804l-225 -90l-34 62l216 116zM76 0h116v573h268v94h-384v-667z" />
    <glyph glyph-name="afii10100" unicode="&#x453;" horiz-adv-x="408" 
d="M174 0h-110v488h330v-90h-220v-398zM357 635l-225 -90l-34 62l216 116z" />
    <glyph glyph-name="afii10103" unicode="&#x456;" horiz-adv-x="237" 
d="M183 634c0 -36 -28 -64 -64 -64s-65 28 -65 64s29 65 65 65s64 -29 64 -65zM174 0h-110v488h110v-488z" />
    <glyph glyph-name="afii10098" unicode="&#x491;" horiz-adv-x="408" 
d="M64 488h228v137h102v-227h-220v-398h-110v488z" />
    <glyph glyph-name="afii10057" unicode="&#x408;" horiz-adv-x="394" 
d="M325 217c0 -66 1 -135 -49 -185c-28 -28 -73 -46 -129 -46c-81 0 -135 39 -140 43l40 81c13 -7 47 -24 83 -24c26 0 43 6 55 18c23 22 24 55 24 103v460h116v-450z" />
    <glyph glyph-name="afii10053" unicode="&#x404;" horiz-adv-x="636" 
d="M477 291h-306c8 -120 97 -204 220 -204c93 0 163 47 172 52l49 -79c-8 -8 -92 -74 -233 -74c-186 0 -330 127 -330 342c0 222 152 354 343 354c135 0 209 -63 216 -71l-51 -78c-8 6 -68 50 -159 50c-114 0 -207 -72 -226 -196h305v-96z" />
    <glyph glyph-name="afii10101" unicode="&#x454;" horiz-adv-x="487" 
d="M366 208h-211c7 -74 62 -128 142 -128c68 0 120 35 124 37l43 -72c-3 -3 -71 -57 -179 -57c-147 0 -244 103 -244 250c0 154 108 264 254 264c97 0 156 -48 162 -56l-45 -69c-8 5 -49 34 -110 34c-79 0 -137 -59 -146 -123h210v-80z" />
    <glyph glyph-name="afii10056" unicode="&#x407;" horiz-adv-x="268" 
d="M192 0h-116v667h116v-667zM286 779c0 -34 -27 -62 -61 -62s-62 28 -62 62s28 62 62 62s61 -28 61 -62zM105 779c0 -34 -27 -62 -61 -62s-62 28 -62 62s28 62 62 62s61 -28 61 -62z" />
    <glyph glyph-name="afii10104" unicode="&#x457;" horiz-adv-x="237" 
d="M271 631c0 -34 -27 -62 -61 -62s-62 28 -62 62s28 62 62 62s61 -28 61 -62zM90 631c0 -34 -27 -62 -61 -62s-62 28 -62 62s28 62 62 62s61 -28 61 -62zM174 0h-110v488h110v-488z" />
    <glyph glyph-name="afii10058" unicode="&#x409;" horiz-adv-x="981" 
d="M585 93h75c79 0 150 10 150 110c0 106 -78 113 -162 113h-63v-223zM585 667v-259h62c150 0 281 -24 281 -204c0 -61 -17 -108 -48 -141c-53 -58 -142 -63 -230 -63h-182v573h-148l-91 -409c-17 -78 -36 -162 -165 -169c-15 -2 -34 -2 -50 -1v91c67 0 88 29 108 116
l104 466h359z" />
    <glyph glyph-name="afii10106" unicode="&#x459;" horiz-adv-x="789" 
d="M357 396h-122l-61 -262c-22 -95 -44 -140 -177 -140v85c40 0 61 8 73 60l81 349h315v-185h82c88 0 209 -2 209 -153c0 -146 -109 -150 -229 -150h-171v396zM647 150c0 71 -50 69 -131 69h-50v-134h73c66 0 107 0 108 65z" />
    <glyph glyph-name="afii10059" unicode="&#x40a;" horiz-adv-x="978" 
d="M638 300h-57v-207h69c79 0 157 3 157 103c0 104 -85 104 -169 104zM467 396v271h114v-271h56c149 0 288 -18 288 -198c0 -184 -147 -198 -286 -198h-172v300h-275v-300h-116v667h116v-271h275z" />
    <glyph glyph-name="afii10107" unicode="&#x45a;" horiz-adv-x="800" 
d="M367 298v190h109v-185h83c87 0 209 -1 209 -153c0 -125 -83 -150 -187 -150h-214v206h-193v-206h-110v488h110v-190h193zM658 150c0 71 -50 69 -131 69h-51v-134h74c65 0 107 0 108 65z" />
    <glyph glyph-name="afii10105" unicode="&#x458;" horiz-adv-x="237" 
d="M183 634c0 -36 -29 -64 -65 -64s-64 28 -64 64s28 65 64 65s65 -29 65 -65zM174 -34c0 -67 -7 -113 -48 -154c-30 -30 -80 -43 -121 -43c-48 0 -88 19 -93 23l28 79c8 -3 27 -11 49 -11c27 0 43 9 54 20c14 14 21 34 21 78v530h110v-522z" />
    <glyph glyph-name="afii10054" unicode="&#x405;" horiz-adv-x="535" 
d="M481 191c0 -121 -85 -206 -229 -206c-126 0 -208 68 -214 75l52 80c13 -8 76 -56 156 -56c76 0 118 39 118 98c0 68 -74 90 -138 118c-52 23 -168 65 -168 193c0 113 90 189 219 189c124 0 194 -67 198 -71l-54 -74c-5 4 -60 50 -136 50c-67 0 -114 -35 -114 -85
c0 -51 37 -67 123 -104c95 -41 187 -86 187 -207z" />
    <glyph glyph-name="afii10060" unicode="&#x40b;" horiz-adv-x="696" 
d="M301 0h-116v573h-156v94h444v-94h-172v-172c15 8 62 35 143 35c138 0 197 -71 197 -197v-239h-114v205c0 74 -11 130 -102 130c-62 0 -106 -23 -124 -36v-299z" />
    <glyph glyph-name="afii10108" unicode="&#x45b;" horiz-adv-x="575" 
d="M216 723v-71h149v-85h-149v-106s60 41 131 41c60 0 99 -22 122 -45c51 -51 50 -113 50 -184v-273h-110v267c0 63 -1 98 -23 120c-9 9 -30 21 -61 21c-55 0 -102 -31 -109 -36v-372h-110v567h-85v85h85v71h110z" />
    <glyph glyph-name="afii10061" unicode="&#x40c;" horiz-adv-x="590" 
d="M578 0h-139l-247 314v-314h-116v667h116v-312l245 312h128l-263 -325zM433 804l-225 -90l-34 62l216 116z" />
    <glyph glyph-name="afii10109" unicode="&#x45c;" horiz-adv-x="528" 
d="M514 0h-141l-199 218v-218h-110v488h110v-211l197 211h128l-223 -234zM399 635l-225 -90l-34 62l216 116z" />
    <glyph glyph-name="afii10102" unicode="&#x455;" horiz-adv-x="443" 
d="M393 140c0 -96 -78 -153 -186 -153c-104 0 -172 47 -178 52l39 72c10 -5 62 -38 128 -38c56 0 85 26 85 60c0 38 -39 51 -105 79c-54 23 -129 55 -129 144c0 88 74 146 181 146c101 0 155 -42 158 -44l-38 -70c-5 3 -58 33 -113 33s-78 -27 -78 -55c0 -35 37 -50 87 -71
c68 -28 149 -59 149 -155z" />
    <glyph glyph-name="afii10062" unicode="&#x40e;" horiz-adv-x="608" 
d="M467 896c-1 -89 -59 -145 -143 -145s-144 56 -144 145h77c1 -43 24 -67 67 -67s66 24 66 67h77zM586 667l-199 -428c-77 -154 -94 -246 -248 -246c-62 0 -107 24 -111 27l32 80c7 -3 35 -15 73 -15c74 0 106 80 142 159l-222 423h119l160 -318l146 318h108z" />
    <glyph glyph-name="afii10110" unicode="&#x45e;" horiz-adv-x="546" 
d="M519 488l-193 -502c-35 -92 -58 -134 -92 -168c-24 -24 -66 -49 -135 -49c-54 0 -97 21 -110 27l32 80c7 -3 34 -16 73 -16c31 0 54 10 71 27c26 26 42 72 56 109l-203 492h117l143 -368l132 368h109zM415 707c-5 -89 -59 -145 -143 -145s-139 56 -144 145h77
c5 -43 28 -63 67 -63s61 20 66 63h77z" />
    <glyph glyph-name="afii10145" unicode="&#x40f;" horiz-adv-x="659" 
d="M583 0h-198v-125h-110v125h-199v667h116v-571h275v571h116v-667z" />
    <glyph glyph-name="afii10193" unicode="&#x45f;" horiz-adv-x="541" 
d="M367 488h110v-488h-156v-125h-102v125h-155v488h110v-396h193v396z" />
    <glyph glyph-name="afii10023" unicode="&#x401;" horiz-adv-x="520" 
d="M419 779c0 -34 -27 -62 -61 -62s-62 28 -62 62s28 62 62 62s61 -28 61 -62zM238 779c0 -34 -27 -62 -61 -62s-62 28 -62 62s28 62 62 62s61 -28 61 -62zM471 0h-395v667h387v-94h-273v-182h256v-92h-256v-203h281v-96z" />
    <glyph glyph-name="afii10071" unicode="&#x451;" horiz-adv-x="523" 
d="M482 250c0 -16 -2 -31 -2 -39h-331c0 -59 37 -135 139 -135c68 0 120 30 134 37l38 -72c-5 -3 -75 -53 -181 -53c-153 0 -238 109 -238 253c0 153 93 261 231 261c133 0 210 -96 210 -252zM378 293c0 42 -17 125 -104 125c-68 0 -116 -51 -125 -125h229zM422 631
c0 -34 -27 -62 -61 -62s-62 28 -62 62s28 62 62 62s61 -28 61 -62zM241 631c0 -34 -27 -62 -61 -62s-62 28 -62 62s28 62 62 62s61 -28 61 -62z" />
    <glyph glyph-name="afii10097" unicode="&#x44f;" horiz-adv-x="499" 
d="M214 133l-59 -133h-115l80 171c11 24 30 55 61 61c-63 6 -91 53 -91 113c0 142 116 143 195 143h150v-488h-106v191h-32c-47 0 -61 -11 -83 -58zM195 340c0 -60 45 -67 90 -67h44v135h-57c-43 0 -77 -14 -77 -68z" />
    <glyph glyph-name="afii10065" unicode="&#x430;" horiz-adv-x="494" 
d="M437 0h-96v36c-7 -5 -64 -46 -144 -46c-96 0 -157 63 -157 154c0 167 207 171 275 171h18v19c0 31 -3 48 -16 61c-14 14 -34 22 -79 22c-66 0 -125 -34 -132 -38l-38 71c8 7 71 53 179 53c73 0 117 -17 152 -52c38 -38 38 -86 38 -151v-300zM333 108v129h-23
c-69 0 -124 -10 -152 -38c-13 -13 -19 -29 -19 -50c0 -50 39 -74 86 -74c57 0 100 29 108 33z" />
    <glyph glyph-name="afii10066" unicode="&#x431;" horiz-adv-x="536" 
d="M41 288c0 193 30 283 94 337c64 53 159 64 279 89l23 -79c-106 -43 -248 -10 -275 -174c17 17 65 40 122 40c144 0 211 -107 211 -256c0 -152 -88 -256 -229 -256c-136 0 -225 79 -225 299zM151 284c0 -150 44 -206 116 -206c65 0 118 42 118 160c0 105 -42 172 -115 172
c-47 0 -92 -23 -115 -41c-2 -16 -4 -44 -4 -85z" />
    <glyph glyph-name="afii10067" unicode="&#x432;" horiz-adv-x="479" 
d="M363 254c25 -4 78 -21 78 -105c0 -124 -90 -149 -186 -149h-191v488h186c90 0 178 -23 178 -138c0 -75 -45 -92 -65 -96zM338 146c0 49 -32 63 -86 63h-82v-126h55c76 0 113 9 113 63zM325 351c0 50 -40 57 -99 57h-56v-121h67c49 1 88 8 88 64z" />
    <glyph glyph-name="afii10068" unicode="&#x433;" horiz-adv-x="408" 
d="M174 0h-110v488h330v-90h-220v-398z" />
    <glyph glyph-name="afii10069" unicode="&#x434;" horiz-adv-x="586" 
d="M32 -125v217c71 4 74 46 98 140l58 256h302v-395h60v-218h-102v127h-314v-127h-102zM172 93h208v305h-105l-40 -176c-14 -61 -33 -122 -63 -129z" />
    <glyph glyph-name="afii10070" unicode="&#x435;" horiz-adv-x="523" 
d="M482 250c0 -16 -2 -31 -2 -39h-331c0 -59 37 -135 139 -135c68 0 120 30 134 37l38 -72c-5 -3 -75 -53 -181 -53c-153 0 -238 109 -238 253c0 153 93 261 231 261c133 0 210 -96 210 -252zM378 293c0 42 -17 125 -104 125c-68 0 -116 -51 -125 -125h229z" />
    <glyph glyph-name="afii10072" unicode="&#x436;" horiz-adv-x="815" 
d="M660 0l-199 218v-218h-110v218l-199 -218h-138l238 252l-226 236h131l194 -211v211h110v-211l197 211h128l-223 -234l238 -254h-141z" />
    <glyph glyph-name="afii10073" unicode="&#x437;" horiz-adv-x="434" 
d="M393 140c0 -111 -94 -149 -195 -149c-100 0 -156 44 -175 63l48 63c19 -17 62 -44 123 -44c51 0 89 23 94 59c7 66 -50 80 -108 80h-41v73h46c40 0 103 10 103 72c0 42 -39 66 -85 66c-64 0 -112 -35 -125 -47l-45 60c15 17 74 66 170 66c104 0 182 -45 182 -143
c0 -62 -43 -98 -82 -109c42 -10 90 -42 90 -110z" />
    <glyph glyph-name="afii10074" unicode="&#x438;" horiz-adv-x="541" 
d="M375 325l-209 -325h-102v488h103l-2 -324l209 324h103v-488h-104z" />
    <glyph glyph-name="afii10075" unicode="&#x439;" horiz-adv-x="541" 
d="M375 325l-2 -325h104v488h-103l-209 -324l2 324h-103v-488h102zM414 707c-5 -89 -59 -145 -143 -145s-139 56 -144 145h77c5 -43 28 -63 67 -63s61 20 66 63h77z" />
    <glyph glyph-name="afii10076" unicode="&#x43a;" horiz-adv-x="528" 
d="M514 0h-141l-199 218v-218h-110v488h110v-211l197 211h128l-223 -234z" />
    <glyph glyph-name="afii10077" unicode="&#x43b;" horiz-adv-x="531" 
d="M357 398h-122l-65 -282c-20 -89 -57 -122 -173 -122v85c40 0 61 8 73 60l81 349h316v-488h-110v398z" />
    <glyph glyph-name="afii10078" unicode="&#x43c;" horiz-adv-x="642" 
d="M594 0h-101l-34 304l-104 -304h-69l-106 304l-33 -304h-99l56 488h104l114 -324l112 324h105z" />
    <glyph glyph-name="afii10079" unicode="&#x43d;" horiz-adv-x="541" 
d="M367 206h-193v-206h-110v488h110v-190h193v190h110v-488h-110v206z" />
    <glyph glyph-name="afii10080" unicode="&#x43e;" horiz-adv-x="563" 
d="M522 247c0 -154 -99 -259 -245 -259c-140 0 -236 103 -236 255c0 153 99 259 245 259c140 0 236 -103 236 -255zM411 243c0 101 -55 168 -131 168c-78 0 -128 -65 -128 -164c0 -101 56 -168 132 -168c80 0 127 64 127 164z" />
    <glyph glyph-name="afii10081" unicode="&#x43f;" horiz-adv-x="541" 
d="M174 0h-110v488h413v-488h-110v398h-193v-398z" />
    <glyph glyph-name="afii10082" unicode="&#x440;" horiz-adv-x="554" 
d="M513 252c0 -158 -107 -264 -237 -264c-59 0 -97 21 -102 24v-227h-110v703h97v-33c6 5 52 47 134 47c131 0 218 -103 218 -250zM402 250c0 100 -58 160 -130 160c-55 0 -95 -31 -98 -34v-271c6 -4 38 -26 86 -26c82 0 142 62 142 171z" />
    <glyph glyph-name="afii10083" unicode="&#x441;" horiz-adv-x="487" 
d="M464 45c-3 -3 -71 -57 -179 -57c-147 0 -244 103 -244 250c0 154 108 264 254 264c97 0 156 -48 162 -56l-45 -69c-8 5 -49 34 -110 34c-95 0 -150 -81 -150 -165c0 -97 53 -166 145 -166c68 0 120 35 124 37z" />
    <glyph glyph-name="afii10084" unicode="&#x442;" horiz-adv-x="449" 
d="M280 0h-110v398h-156v90h421v-90h-155v-398z" />
    <glyph glyph-name="afii10085" unicode="&#x443;" horiz-adv-x="546" 
d="M519 488l-193 -502c-35 -92 -58 -134 -92 -168c-24 -24 -66 -49 -135 -49c-54 0 -97 21 -110 27l32 80c7 -3 34 -16 73 -16c31 0 54 10 71 27c26 26 42 72 56 109l-203 492h117l143 -368l132 368h109z" />
    <glyph glyph-name="afii10086" unicode="&#x444;" horiz-adv-x="703" 
d="M662 245c0 -170 -121 -243 -260 -256v-205h-100v205c-137 11 -261 81 -261 253c0 168 121 244 261 257v224h100v-224c136 -11 260 -83 260 -254zM152 246c0 -115 75 -160 150 -172v341c-80 -9 -150 -59 -150 -169zM551 242c0 112 -75 159 -149 173v-341
c81 12 149 56 149 168z" />
    <glyph glyph-name="afii10087" unicode="&#x445;" horiz-adv-x="537" 
d="M510 0h-125l-122 175l-120 -175h-120l178 246l-168 242h126l112 -159l108 159h116l-164 -239z" />
    <glyph glyph-name="afii10088" unicode="&#x446;" horiz-adv-x="573" 
d="M367 488h110v-396h60v-217h-102v125h-371v488h110v-396h193v396z" />
    <glyph glyph-name="afii10089" unicode="&#x447;" horiz-adv-x="541" 
d="M367 303v185h110v-488h-110v215c-4 -3 -53 -38 -125 -38c-158 0 -178 124 -178 227v84h110v-81c0 -92 9 -135 88 -135c55 0 99 27 105 31z" />
    <glyph glyph-name="afii10090" unicode="&#x448;" horiz-adv-x="730" 
d="M666 0h-602v488h110v-396h136v396h110v-396h136v396h110v-488z" />
    <glyph glyph-name="afii10091" unicode="&#x449;" horiz-adv-x="762" 
d="M64 488h110v-396h136v396h110v-396h136v396h110v-396h60v-217h-102v125h-560v488z" />
    <glyph glyph-name="afii10092" unicode="&#x44a;" horiz-adv-x="599" 
d="M567 154c0 -107 -68 -147 -160 -152c-32 -2 -64 -2 -97 -2h-143v398h-153v90h262v-175h93c77 -1 198 -9 198 -159zM458 155c0 73 -54 74 -136 74h-46v-144h56c68 0 126 -2 126 70z" />
    <glyph glyph-name="afii10093" unicode="&#x44b;" horiz-adv-x="707" 
d="M643 0h-110v488h110v-488zM464 154c0 150 -121 158 -198 159h-93v175h-109v-488h143c33 0 65 0 97 2c92 5 160 45 160 152zM355 155c0 -72 -58 -70 -126 -70h-56v144h46c82 0 136 -1 136 -74z" />
    <glyph glyph-name="afii10094" unicode="&#x44c;" horiz-adv-x="496" 
d="M464 154c0 -107 -68 -147 -160 -152c-32 -2 -64 -2 -97 -2h-143v488h109v-175h93c77 -1 198 -9 198 -159zM355 155c0 73 -54 74 -136 74h-46v-144h56c68 0 126 -2 126 70z" />
    </font>
</defs>
</svg>
