<?xml version="1.0" standalone="no"?>
<!DOCTYPE svg PUBLIC "-//W3C//DTD SVG 1.1//EN" "http://www.w3.org/Graphics/SVG/1.1/DTD/svg11.dtd" >
<svg xmlns="http://www.w3.org/2000/svg" xmlns:xlink="http://www.w3.org/1999/xlink" version="1.1">
<metadata>
Created by FontForge 20190801 at Thu Apr 30 12:48:34 2009
 By Jimmy Wärting
Copyright (c) 2009 by The Foundry. All rights reserved.
</metadata>
<defs>
<font id="FoundrySterlingOT3-Light" horiz-adv-x="580" >
  <font-face 
    font-family="Foundry Sterling OT3"
    font-weight="300"
    font-stretch="normal"
    units-per-em="1000"
    panose-1="2 0 5 0 4 0 0 2 0 4"
    ascent="765"
    descent="-235"
    x-height="477"
    cap-height="667"
    bbox="-275 -260 1153 1045"
    underline-thickness="50"
    underline-position="-100"
    stemh="37"
    stemv="42"
    unicode-range="U+0020-FFF3"
  />
<missing-glyph horiz-adv-x="536" 
d="M448 667v-788h-360v788h360zM131 629v-712h274v712h-274z" />
    <glyph glyph-name="fi" unicode="fi" horiz-adv-x="477" 
d="M405 0h-41v442h-211v-442h-41v442h-87v35h87v99c0 34 4 83 41 120c24 24 60 35 96 35c49 0 81 -17 90 -25l-17 -32c-7 4 -33 19 -71 19c-28 0 -51 -7 -68 -24c-31 -31 -30 -76 -30 -102v-90h252v-477z" />
    <glyph glyph-name="fl" unicode="fl" horiz-adv-x="477" 
d="M405 0h-41v442h-211v-442h-41v442h-87v35h87v99c0 34 4 83 41 120c24 24 60 35 96 35c47 0 72 -15 76 -17l-16 -34c-6 3 -27 13 -58 13c-28 0 -51 -7 -68 -24c-31 -31 -30 -76 -30 -102v-90h211v242h41v-719z" />
    <glyph glyph-name="IJ" unicode="IJ" horiz-adv-x="563" 
d="M131 0h-43v667h43v-667zM483 193c0 -60 3 -123 -40 -166c-24 -24 -57 -38 -94 -38c-75 0 -117 33 -120 35l19 34c6 -3 42 -30 93 -30c36 0 54 9 69 24c29 29 30 70 30 106v509h43v-474z" />
    <glyph glyph-name="ij" unicode="ij" horiz-adv-x="369" 
d="M123 646c0 -17 -13 -31 -30 -31s-31 14 -31 31s14 30 31 30s30 -13 30 -30zM113 0h-41v477h41v-477zM307 645c0 -17 -13 -30 -30 -30s-31 13 -31 30s14 30 31 30s30 -13 30 -30zM297 -64c0 -64 -9 -99 -36 -126c-18 -18 -50 -35 -89 -35s-60 10 -63 11l10 34
c8 -3 22 -9 47 -9c35 0 50 8 67 25c18 18 23 55 23 93v548h41v-541z" />
    <glyph glyph-name="IJsmall" unicode="&#xf769;&#xf76a;" horiz-adv-x="485" 
d="M120 0h-42v514h42v-514zM415 154c0 -63 0 -101 -30 -131c-20 -20 -49 -32 -77 -32c-57 0 -92 25 -100 33l19 32c5 -3 33 -26 78 -26c20 0 36 5 48 17c23 23 20 57 20 87v380h42v-360z" />
    <glyph glyph-name="f_f" unicode="ff" horiz-adv-x="584" 
d="M587 706l-17 -32c-7 4 -33 19 -71 19c-28 0 -51 -7 -68 -24c-31 -31 -30 -76 -30 -102v-90h155v-35h-155v-442h-41v442h-207v-442h-41v442h-87v35h87v99c0 34 4 83 41 120c24 24 60 35 96 35c47 0 72 -15 76 -17l-16 -34c-6 3 -27 13 -58 13c-28 0 -51 -7 -68 -24
c-31 -31 -30 -76 -30 -102v-90h207v99c0 34 4 83 41 120c23 23 60 35 96 35c49 0 81 -17 90 -25z" />
    <glyph glyph-name="f_f_i" unicode="ffi" horiz-adv-x="729" 
d="M657 0h-41v442h-211v-442h-41v442h-211v-442h-41v442h-87v35h87v99c0 34 4 83 41 120c24 24 60 35 96 35c47 0 72 -15 76 -17l-16 -34c-6 3 -27 13 -58 13c-28 0 -51 -7 -68 -24c-31 -31 -30 -76 -30 -102v-90h211v99c0 34 4 83 41 120c23 23 60 35 96 35
c49 0 81 -17 90 -25l-17 -32c-7 4 -33 19 -71 19c-28 0 -51 -7 -68 -24c-31 -31 -30 -76 -30 -102v-90h252v-477z" />
    <glyph glyph-name="f_f_l" unicode="ffl" horiz-adv-x="729" 
d="M657 0h-41v442h-211v-442h-41v442h-211v-442h-41v442h-87v35h87v99c0 34 4 83 41 120c24 24 60 35 96 35c47 0 72 -15 76 -17l-16 -34c-6 3 -27 13 -58 13c-28 0 -51 -7 -68 -24c-31 -31 -30 -76 -30 -102v-90h211v99c0 34 4 83 41 120c24 24 60 35 96 35
c47 0 72 -15 76 -17l-16 -34c-6 3 -27 13 -58 13c-28 0 -51 -7 -68 -24c-31 -31 -30 -76 -30 -102v-90h211v242h41v-719z" />
    <glyph glyph-name="f_j" unicode="fj" horiz-adv-x="477" 
d="M405 -64c0 -64 -9 -99 -36 -126c-18 -18 -50 -35 -89 -35s-60 10 -63 11l10 34c8 -3 22 -9 47 -9c35 0 50 8 67 25c18 18 23 55 23 93v513h-211v-442h-41v442h-87v35h87v99c0 34 4 83 41 120c23 23 60 35 96 35c49 0 81 -17 90 -25l-17 -32c-7 4 -33 19 -71 19
c-28 0 -51 -7 -68 -24c-31 -31 -30 -76 -30 -102v-90h252v-541z" />
    <glyph glyph-name="f_t" unicode="ft" horiz-adv-x="607" 
d="M563 10c-9 -4 -35 -20 -87 -20c-44 0 -71 11 -91 31c-29 29 -25 81 -25 128v293h-207v-442h-41v442h-87v35h87v99c0 34 4 83 41 120c24 24 60 35 96 35c49 0 81 -17 90 -25l-17 -32c-7 4 -33 19 -71 19c-28 0 -51 -7 -68 -24c-31 -31 -30 -76 -30 -102v-90h207v136h41
v-136h157v-35h-157v-291c0 -71 -4 -123 79 -123c37 0 62 12 70 15z" />
    <glyph glyph-name=".notdef" horiz-adv-x="536" 
d="M448 667v-788h-360v788h360zM131 629v-712h274v712h-274z" />
    <glyph glyph-name="Eth" unicode="&#xd0;" horiz-adv-x="676" 
d="M619 336c0 -110 -36 -194 -97 -255c-69 -69 -148 -81 -269 -81h-155v333h-100v37h100v297h113c142 0 238 -8 309 -79c63 -63 99 -151 99 -252zM572 338c0 65 -11 149 -83 221c-62 62 -130 71 -276 71h-72v-260h210v-37h-210v-296h96c98 0 182 -1 255 71
c54 53 80 140 80 230z" />
    <glyph glyph-name="eth" unicode="&#xf0;" horiz-adv-x="497" 
d="M452 336c0 -214 -78 -343 -204 -349c-116 -5 -196 92 -203 248c-7 152 69 253 186 253c87 0 147 -43 173 -60c-11 129 -76 189 -101 211l-123 -62l-16 28l110 55c-45 27 -120 44 -199 46l2 36c111 -1 183 -25 239 -60l91 46l16 -28l-80 -41c78 -73 109 -176 109 -323z
M408 326c0 7 -2 38 -2 56c-45 42 -111 68 -172 68c-93 0 -150 -88 -145 -215c5 -128 66 -211 156 -207c93 4 163 100 163 298z" />
    <glyph glyph-name="Lslash" unicode="&#x141;" horiz-adv-x="480" 
d="M445 0h-338v304l-89 -66l-20 25l109 82v322h43v-299l129 95l20 -25l-149 -109v-289h295v-40z" />
    <glyph glyph-name="lslash" unicode="&#x142;" horiz-adv-x="264" 
d="M266 447l-120 -89v-358h-41v336l-88 -68l-19 25l107 80v346h41v-323l101 76z" />
    <glyph glyph-name="Scaron" unicode="&#x160;" horiz-adv-x="503" 
d="M440 180c0 -108 -67 -191 -204 -191c-112 0 -177 62 -185 69l25 33c7 -5 73 -62 157 -62c107 0 162 61 162 148c0 35 -16 65 -38 87c-65 65 -184 79 -249 144c-24 24 -40 57 -40 105c0 96 74 166 188 166c118 0 170 -64 176 -70l-27 -27c-7 6 -51 59 -145 59
c-89 0 -151 -55 -151 -127c0 -35 13 -58 32 -77c61 -61 184 -74 250 -140c29 -29 49 -66 49 -117zM114 805l19 30l127 -67l127 67l21 -30l-148 -90z" />
    <glyph glyph-name="scaron" unicode="&#x161;" horiz-adv-x="406" 
d="M349 640l-148 -90l-146 90l19 30l127 -67l127 67zM354 127c0 -88 -66 -138 -168 -138c-91 0 -149 40 -152 44l19 33c15 -10 66 -40 129 -40c80 0 129 36 129 97c0 22 -7 42 -27 62c-45 45 -149 50 -201 102c-16 16 -31 40 -31 81c0 75 68 120 151 120
c82 0 131 -35 135 -38l-19 -32c-9 6 -55 34 -112 34c-60 0 -113 -30 -113 -83c0 -28 9 -41 22 -54c45 -45 149 -50 203 -104c23 -23 35 -48 35 -84z" />
    <glyph glyph-name="Yacute" unicode="&#xdd;" horiz-adv-x="527" 
d="M499 667l-214 -404v-263h-43v263l-214 404h50l188 -359l185 359h48zM376 792l-209 -77l-15 31l203 94z" />
    <glyph glyph-name="yacute" unicode="&#xfd;" horiz-adv-x="468" 
d="M441 477l-188 -519c-21 -57 -43 -106 -71 -134c-39 -39 -85 -49 -121 -49c-44 0 -75 12 -79 14l12 36c7 -2 28 -11 66 -11c32 0 65 11 87 33c33 33 53 92 72 139l-196 491h47l172 -434l154 434h45zM349 622l-209 -77l-15 31l203 94z" />
    <glyph glyph-name="Thorn" unicode="&#xde;" horiz-adv-x="530" 
d="M473 345c0 -80 -33 -120 -57 -144c-20 -20 -63 -50 -164 -50h-121v-151h-43v667h43v-133h99c75 0 142 -3 189 -50c36 -36 54 -87 54 -139zM429 348c0 50 -19 87 -44 112c-37 37 -86 37 -165 37h-89v-309h116c86 0 118 21 136 39c24 24 46 59 46 121z" />
    <glyph glyph-name="thorn" unicode="&#xfe;" horiz-adv-x="506" 
d="M461 249c0 -152 -94 -258 -232 -258c-64 0 -109 26 -116 30v-233h-41v931h41v-276c7 6 60 45 142 45c122 0 206 -95 206 -239zM418 252c0 116 -65 199 -167 199c-83 0 -130 -45 -138 -51v-336c8 -5 51 -35 119 -35c113 0 186 90 186 223z" />
    <glyph glyph-name="CR" horiz-adv-x="504" 
 />
    <glyph glyph-name="Zcaron" unicode="&#x17d;" horiz-adv-x="538" 
d="M489 0h-441v35l384 593h-363v39h412v-35l-381 -592h389v-40zM123 805l19 30l127 -67l127 67l21 -30l-148 -90z" />
    <glyph glyph-name="zcaron" unicode="&#x17e;" horiz-adv-x="452" 
d="M395 0h-351v34l292 408h-276v35h324v-33l-288 -407h299v-37zM372 640l-148 -90l-146 90l19 30l127 -67l127 67z" />
    <glyph glyph-name="onehalf" unicode="&#xbd;" horiz-adv-x="721" 
d="M611 674l-480 -707l-33 21l480 710zM225 330h-38v292l-88 -54l-21 29l114 70h33v-337zM629 0h-197v31c77 78 158 147 158 210c0 39 -23 64 -63 64c-36 0 -67 -27 -73 -32l-22 22c9 11 44 46 99 46c59 0 101 -39 101 -98c0 -62 -53 -115 -98 -160l-51 -49h146v-34z" />
    <glyph glyph-name="onequarter" unicode="&#xbc;" horiz-adv-x="721" 
d="M611 674l-480 -707l-33 21l480 710zM225 330h-38v292l-88 -54l-21 29l114 70h33v-337zM657 83h-48v-83h-36v83h-168v28l171 226h33v-223h48v-31zM573 114v170l-128 -170h128z" />
    <glyph glyph-name="threequarters" unicode="&#xbe;" horiz-adv-x="721" 
d="M611 674l-480 -707l-33 21l480 710zM657 83h-48v-83h-36v83h-168v28l171 226h33v-223h48v-31zM573 114v170l-128 -170h128zM285 426c0 -65 -52 -100 -108 -100c-61 0 -88 29 -99 43l24 24c5 -5 31 -33 70 -33c44 0 71 21 71 61c0 63 -57 63 -94 63h-12v36h18
c31 0 84 1 84 58c0 33 -23 59 -61 59c-40 0 -64 -29 -68 -33l-25 23c3 7 36 44 95 44c60 0 101 -37 101 -92c0 -40 -25 -66 -62 -75c35 -7 66 -28 66 -78z" />
    <glyph glyph-name="brokenbar" unicode="&#xa6;" horiz-adv-x="237" 
d="M141 364h-45v303h45v-303zM141 -121h-45v303h45v-303z" />
    <glyph glyph-name="minus" unicode="&#x2212;" horiz-adv-x="568" 
d="M514 232h-460v38h460v-38z" />
    <glyph glyph-name="multiply" unicode="&#xd7;" 
d="M508 59l-26 -26l-193 191l-192 -191l-25 26l191 191l-191 193l25 26l192 -192l193 192l26 -26l-192 -193z" />
    <glyph glyph-name="space" unicode=" " horiz-adv-x="242" 
 />
    <glyph glyph-name="exclam" unicode="!" horiz-adv-x="272" 
d="M164 667l-9 -516h-39l-9 516h57zM170 26c0 -19 -15 -34 -34 -34s-34 15 -34 34s15 35 34 35s34 -16 34 -35z" />
    <glyph glyph-name="quotedbl" unicode="&#x22;" horiz-adv-x="269" 
d="M212 667l-3 -223h-40l-3 223h46zM103 667l-3 -223h-40l-3 223h46z" />
    <glyph glyph-name="numbersign" unicode="#" horiz-adv-x="558" 
d="M486 511l-5 -38h-96l-19 -134h96l-5 -38h-96l-24 -165h-40l24 165h-116l-24 -165h-40l24 165h-93l5 38h92l20 134h-93l5 38h92l22 156h40l-22 -156h117l22 156h40l-22 -156h96zM345 473h-116l-20 -134h117z" />
    <glyph glyph-name="dollar" unicode="$" 
d="M483 182c0 -97 -60 -175 -177 -185v-91h-38v89c-115 2 -176 60 -185 67l25 33c9 -6 73 -59 160 -60v299c-47 20 -93 39 -127 72c-25 24 -41 54 -41 104c0 85 65 151 168 160v68h38v-67c112 -4 158 -58 168 -68l-27 -27c-9 8 -53 55 -141 58v-268c47 -18 93 -38 126 -69
c30 -28 51 -65 51 -115zM268 380v252c-76 -10 -126 -60 -126 -124c0 -33 13 -54 31 -72c32 -32 69 -45 95 -56zM436 179c0 34 -16 63 -39 85c-25 23 -57 40 -91 55v-283c86 13 130 68 130 143z" />
    <glyph glyph-name="percent" unicode="%" horiz-adv-x="721" 
d="M326 502c0 -110 -51 -176 -142 -176c-86 0 -139 62 -139 162c0 116 51 183 144 183c85 0 137 -66 137 -169zM282 503c0 81 -32 134 -93 134c-66 0 -100 -55 -100 -146c0 -80 32 -131 95 -131c60 0 98 47 98 143zM611 674l-480 -707l-33 21l480 710zM676 172
c0 -110 -51 -176 -142 -176c-86 0 -139 62 -139 162c0 116 51 183 144 183c85 0 137 -66 137 -169zM632 173c0 81 -32 134 -93 134c-66 0 -100 -55 -100 -146c0 -80 32 -131 95 -131c60 0 98 47 98 143z" />
    <glyph glyph-name="ampersand" unicode="&#x26;" horiz-adv-x="659" 
d="M609 0c-83 0 -119 28 -160 76c-54 -55 -123 -88 -198 -88c-112 0 -194 83 -194 192c0 58 27 108 53 134c27 27 55 44 92 62c-34 45 -78 98 -78 159c0 83 66 144 159 144c89 0 147 -53 147 -130c0 -114 -109 -157 -164 -185l184 -222c9 11 65 88 66 216h43
c0 -112 -47 -212 -80 -250c55 -65 87 -71 130 -72v-36zM385 544c0 59 -43 98 -103 98c-64 0 -113 -44 -113 -106c0 -39 18 -71 74 -143c97 44 142 81 142 151zM421 107l-196 239c-80 -38 -123 -92 -123 -163c0 -88 68 -152 157 -152c83 0 138 51 162 76z" />
    <glyph glyph-name="quotesingle" unicode="'" horiz-adv-x="160" 
d="M103 667l-3 -223h-40l-3 223h46z" />
    <glyph glyph-name="parenleft" unicode="(" horiz-adv-x="354" 
d="M302 701c-155 -124 -176 -270 -176 -409c0 -144 29 -279 172 -401l-25 -29c-170 122 -196 295 -196 436c0 139 36 325 201 433z" />
    <glyph glyph-name="parenright" unicode=")" horiz-adv-x="354" 
d="M277 298c0 -141 -26 -314 -196 -436l-25 29c143 122 172 257 172 401c0 139 -21 285 -176 409l24 30c165 -108 201 -294 201 -433z" />
    <glyph glyph-name="asterisk" unicode="*" horiz-adv-x="448" 
d="M391 551l-137 -42l88 -118l-37 -25l-81 125l-81 -125l-37 25l88 118l-137 42l13 40l132 -53v129h44v-129l131 53z" />
    <glyph glyph-name="plus" unicode="+" 
d="M503 232h-194v-194h-38v194h-194v38h194v194h38v-194h194v-38z" />
    <glyph glyph-name="comma" unicode="," horiz-adv-x="218" 
d="M146 54c0 -101 -58 -161 -73 -176l-31 22c11 11 48 68 48 150v11h56v-7z" />
    <glyph glyph-name="hyphen" unicode="-" horiz-adv-x="486" 
d="M399 232h-312v38h312v-38z" />
    <glyph glyph-name="period" unicode="." horiz-adv-x="200" 
d="M135 27c0 -19 -16 -35 -35 -35s-35 16 -35 35s16 35 35 35s35 -16 35 -35z" />
    <glyph glyph-name="slash" unicode="/" horiz-adv-x="418" 
d="M379 667l-302 -803l-38 15l302 803z" />
    <glyph glyph-name="zero" unicode="0" 
d="M527 333c0 -216 -84 -344 -238 -344c-156 0 -236 128 -236 349c0 211 83 341 233 341c157 0 241 -129 241 -346zM480 333c0 193 -62 308 -190 308c-132 0 -190 -109 -190 -313c0 -189 64 -301 189 -301c128 0 191 112 191 306z" />
    <glyph glyph-name="one" unicode="1" 
d="M339 0h-42v616l-170 -115l-25 33l199 133h38v-667z" />
    <glyph glyph-name="two" unicode="2" 
d="M480 0h-388v40s63 62 112 111c160 160 225 242 225 337c0 97 -55 150 -151 150c-87 0 -152 -56 -155 -59l-26 28c5 8 79 72 188 72c119 0 191 -70 191 -185c0 -119 -102 -223 -203 -324l-130 -130h337v-40z" />
    <glyph glyph-name="three" unicode="3" 
d="M475 181c0 -122 -97 -192 -212 -192c-123 0 -175 54 -189 68l26 29c2 -1 54 -56 153 -56c104 0 177 53 177 146c0 45 -19 78 -41 100c-35 35 -78 47 -176 47h-15v40h18c68 0 125 4 171 50c23 23 35 55 35 91c0 79 -58 134 -153 134c-93 0 -149 -56 -156 -62l-27 28
c4 7 74 75 184 75c124 0 196 -72 196 -175c0 -77 -48 -151 -138 -162c91 -7 147 -75 147 -161z" />
    <glyph glyph-name="four" unicode="4" 
d="M515 171h-94v-171h-42v171h-321v38l319 458h44v-458h94v-38zM379 209v390l-274 -390h274z" />
    <glyph glyph-name="five" unicode="5" 
d="M485 206c0 -134 -94 -217 -218 -217c-119 0 -176 58 -180 63l23 31c3 -3 64 -53 150 -53c111 0 180 66 180 173c0 91 -57 173 -176 173c-71 0 -115 -29 -124 -35l-27 17v309h345v-39h-302v-238c4 3 45 29 113 29c141 0 216 -90 216 -213z" />
    <glyph glyph-name="six" unicode="6" 
d="M512 215c0 -126 -83 -226 -209 -226c-187 0 -225 187 -225 322c0 160 40 368 244 368c110 0 166 -57 171 -65l-26 -29c-11 9 -60 55 -138 55c-175 0 -211 -183 -209 -337c0 -26 1 -17 1 -29c15 98 100 152 195 152c128 0 196 -91 196 -211zM469 212
c0 97 -49 178 -155 178c-105 0 -172 -89 -172 -190c0 -94 65 -175 164 -175c106 0 163 92 163 187z" />
    <glyph glyph-name="seven" unicode="7" 
d="M508 632l-279 -632h-52l285 626h-381v41h427v-35z" />
    <glyph glyph-name="eight" unicode="8" 
d="M510 172c0 -110 -86 -183 -215 -183c-138 0 -225 69 -225 180c0 98 63 178 159 176c-89 15 -141 78 -141 160c0 103 83 174 200 174c121 0 203 -67 203 -169c0 -81 -47 -148 -135 -165c100 -8 154 -74 154 -173zM445 505c0 88 -67 140 -154 140c-91 0 -157 -52 -157 -139
c0 -86 70 -144 157 -144c88 0 154 57 154 143zM463 175c0 97 -71 153 -173 153c-100 0 -173 -59 -173 -152c0 -99 69 -153 179 -153c100 0 167 54 167 152z" />
    <glyph glyph-name="nine" unicode="9" 
d="M502 357c0 -160 -40 -368 -244 -368c-110 0 -166 57 -171 65l26 29c11 -9 60 -55 138 -55c175 0 211 183 209 337c0 26 -1 17 -1 29c-15 -98 -100 -152 -195 -152c-128 0 -196 91 -196 211c0 126 83 226 209 226c187 0 225 -187 225 -322zM438 468c0 94 -65 175 -164 175
c-106 0 -163 -92 -163 -187c0 -97 49 -178 155 -178c105 0 172 89 172 190z" />
    <glyph glyph-name="colon" unicode=":" horiz-adv-x="200" 
d="M135 456c0 -19 -16 -35 -35 -35s-35 16 -35 35s16 35 35 35s35 -16 35 -35zM135 27c0 -19 -16 -35 -35 -35s-35 16 -35 35s16 35 35 35s35 -16 35 -35z" />
    <glyph glyph-name="semicolon" unicode=";" horiz-adv-x="218" 
d="M155 456c0 -19 -16 -35 -35 -35s-35 16 -35 35s16 35 35 35s35 -16 35 -35zM146 54c0 -101 -58 -161 -73 -176l-31 22c11 11 48 68 48 150v11h56v-7z" />
    <glyph glyph-name="less" unicode="&#x3c;" horiz-adv-x="584" 
d="M522 54l-16 -34l-444 218v27l443 218l17 -33l-412 -200z" />
    <glyph glyph-name="equal" unicode="=" 
d="M520 289h-460v38h460v-38zM520 175h-460v38h460v-38z" />
    <glyph glyph-name="greater" unicode="&#x3e;" horiz-adv-x="584" 
d="M522 238l-444 -218l-16 34l412 196l-412 200l17 33l443 -218v-27z" />
    <glyph glyph-name="question" unicode="?" horiz-adv-x="479" 
d="M405 497c0 -76 -32 -108 -55 -131c-43 -43 -87 -57 -115 -85c-22 -22 -22 -32 -22 -97v-33h-38c-1 22 -2 42 -2 59c0 46 1 67 21 87c26 26 84 56 114 86c39 39 49 69 49 114c0 83 -60 141 -142 141c-69 0 -130 -41 -136 -45l-22 31c5 5 70 55 172 55
c107 0 176 -72 176 -182zM228 26c0 -19 -15 -34 -34 -34s-34 15 -34 34s15 35 34 35s34 -16 34 -35z" />
    <glyph glyph-name="at" unicode="@" horiz-adv-x="770" 
d="M720 415c0 -144 -103 -239 -256 -239c-4 0 -8 0 -16 1l10 57s-55 -58 -125 -58c-62 0 -104 47 -104 118c0 121 94 215 216 215c51 0 86 -13 97 -18l-53 -281c74 5 116 36 138 58c31 31 56 90 56 146c0 132 -110 224 -263 224c-189 0 -328 -141 -328 -333
c0 -169 121 -279 283 -279c128 0 198 54 207 60l22 -31c-8 -6 -84 -69 -234 -69c-186 0 -320 131 -320 321c0 211 158 367 371 367c175 0 299 -109 299 -259zM494 467c-11 2 -17 5 -24 6s-15 2 -25 2c-95 0 -174 -81 -174 -177c0 -47 31 -84 75 -84c62 0 109 56 112 59z" />
    <glyph glyph-name="A" unicode="A" horiz-adv-x="567" 
d="M554 0h-48l-74 205h-302l-74 -205h-43l243 667h53zM418 245l-137 377l-136 -377h273z" />
    <glyph glyph-name="B" unicode="B" horiz-adv-x="543" 
d="M486 186c0 -46 -16 -92 -50 -126c-59 -59 -131 -60 -250 -60h-98v667h145c79 0 136 -4 182 -50c33 -32 48 -72 48 -125c0 -68 -37 -135 -118 -150c108 -15 141 -77 141 -156zM419 496c0 37 -14 70 -35 91c-38 38 -81 43 -161 43h-92v-274h85c72 0 130 13 169 52
c23 23 34 54 34 88zM442 184c0 31 -9 64 -38 93c-44 44 -126 42 -195 42h-78v-282h75c91 0 150 2 201 53c25 25 35 67 35 94z" />
    <glyph glyph-name="C" unicode="C" horiz-adv-x="597" 
d="M571 48c-10 -10 -80 -59 -205 -59c-171 0 -309 123 -309 339c0 224 146 351 317 351c115 0 177 -44 187 -52l-21 -35c-8 5 -69 44 -161 44c-150 0 -277 -112 -277 -300c0 -185 105 -305 270 -305c103 0 166 44 176 50z" />
    <glyph glyph-name="D" unicode="D" horiz-adv-x="666" 
d="M609 336c0 -110 -36 -194 -97 -255c-69 -69 -148 -81 -269 -81h-155v667h113c142 0 238 -8 309 -79c63 -63 99 -151 99 -252zM562 338c0 65 -11 149 -83 221c-62 62 -130 71 -276 71h-72v-593h96c98 0 182 -1 255 71c54 53 80 140 80 230z" />
    <glyph glyph-name="E" unicode="E" horiz-adv-x="488" 
d="M434 0h-346v667h338v-39h-295v-258h277v-37h-277v-293h303v-40z" />
    <glyph glyph-name="F" unicode="F" horiz-adv-x="458" 
d="M416 628h-285v-258h266v-37h-266v-333h-43v667h328v-39z" />
    <glyph glyph-name="G" unicode="G" horiz-adv-x="647" 
d="M577 44c-10 -9 -75 -55 -210 -55c-172 0 -310 122 -310 339c0 224 146 351 317 351c115 0 178 -41 187 -49l-21 -35c-8 5 -69 41 -161 41c-150 0 -277 -112 -277 -300s105 -305 271 -305c110 0 155 33 161 36v216h-162v37h205v-276z" />
    <glyph glyph-name="H" unicode="H" horiz-adv-x="624" 
d="M536 0h-43v332h-362v-332h-43v667h43v-296h362v296h43v-667z" />
    <glyph glyph-name="I" unicode="I" horiz-adv-x="219" 
d="M131 0h-43v667h43v-667z" />
    <glyph glyph-name="J" unicode="J" horiz-adv-x="344" 
d="M264 193c0 -60 3 -123 -40 -166c-24 -24 -57 -38 -94 -38c-75 0 -117 33 -120 35l19 34c6 -3 42 -30 93 -30c36 0 54 9 69 24c29 29 30 70 30 106v509h43v-474z" />
    <glyph glyph-name="K" unicode="K" horiz-adv-x="520" 
d="M508 0h-60l-317 323v-323h-43v667h43v-317l308 317h53l-318 -328z" />
    <glyph glyph-name="L" unicode="L" horiz-adv-x="461" 
d="M426 0h-338v667h43v-627h295v-40z" />
    <glyph glyph-name="M" unicode="M" horiz-adv-x="864" 
d="M784 0h-49l-67 602l-221 -602h-36l-222 602l-66 -602h-43l78 667h51l224 -599l219 599h53z" />
    <glyph glyph-name="N" unicode="N" horiz-adv-x="620" 
d="M532 0h-60l-344 608l1 -608h-41v667h55l349 -617l-1 617h41v-667z" />
    <glyph glyph-name="O" unicode="O" horiz-adv-x="690" 
d="M633 335c0 -201 -118 -346 -293 -346c-160 0 -283 141 -283 336c0 206 121 354 294 354c162 0 282 -142 282 -344zM586 340c0 179 -103 299 -243 299c-145 0 -239 -120 -239 -301c0 -180 103 -309 241 -309c141 0 241 113 241 311z" />
    <glyph glyph-name="P" unicode="P" horiz-adv-x="526" 
d="M473 478c0 -80 -33 -120 -57 -144c-20 -20 -63 -50 -164 -50h-121v-284h-43v667h142c75 0 142 -3 189 -50c36 -36 54 -87 54 -139zM429 481c0 50 -19 87 -44 112c-37 37 -86 37 -165 37h-89v-309h116c86 0 118 21 136 39c24 24 46 59 46 121z" />
    <glyph glyph-name="Q" unicode="Q" horiz-adv-x="690" 
d="M633 335c0 -202 -117 -337 -278 -346c32 -42 86 -90 219 -90c30 0 48 4 52 4l4 -36c-10 -2 -39 -7 -76 -7c-113 0 -195 40 -252 132c-125 15 -245 138 -245 333c0 206 121 354 294 354c162 0 282 -142 282 -344zM586 340c0 179 -103 299 -243 299
c-145 0 -239 -120 -239 -301c0 -180 103 -309 241 -309c141 0 241 113 241 311z" />
    <glyph glyph-name="R" unicode="R" horiz-adv-x="537" 
d="M509 0h-45l-74 168c-7 16 -33 80 -57 104c-26 26 -51 34 -119 34h-83v-306h-43v667h132c71 0 143 2 191 -46c38 -38 53 -79 53 -133c0 -47 -13 -86 -43 -117c-35 -35 -79 -48 -106 -51c57 -5 80 -64 96 -100zM420 492c0 34 -10 69 -41 100c-37 37 -80 38 -147 38h-101
v-287h48c80 0 152 -1 203 50c26 26 38 58 38 99z" />
    <glyph glyph-name="S" unicode="S" horiz-adv-x="503" 
d="M440 180c0 -108 -67 -191 -204 -191c-112 0 -177 62 -185 69l25 33c7 -5 73 -62 157 -62c107 0 162 61 162 148c0 35 -16 65 -38 87c-65 65 -184 79 -249 144c-24 24 -40 57 -40 105c0 96 74 166 188 166c118 0 170 -64 176 -70l-27 -27c-7 6 -51 59 -145 59
c-89 0 -151 -55 -151 -127c0 -35 13 -58 32 -77c61 -61 184 -74 250 -140c29 -29 49 -66 49 -117z" />
    <glyph glyph-name="T" unicode="T" horiz-adv-x="526" 
d="M492 628h-208v-628h-43v628h-207v39h458v-39z" />
    <glyph glyph-name="U" unicode="U" horiz-adv-x="605" 
d="M527 291c0 -87 5 -179 -58 -242c-46 -46 -106 -60 -166 -60c-71 0 -129 23 -168 62c-63 63 -57 144 -57 255v361h43v-430c0 -60 2 -116 44 -158c34 -34 84 -51 141 -51c51 0 100 17 129 46c50 50 49 104 49 212v381h43v-376z" />
    <glyph glyph-name="V" unicode="V" horiz-adv-x="582" 
d="M556 667l-236 -667h-62l-232 667h49l216 -637l221 637h44z" />
    <glyph glyph-name="W" unicode="W" horiz-adv-x="880" 
d="M839 667l-167 -667h-71l-159 642l-162 -642h-71l-168 667h50l154 -642l160 642h76l159 -642l155 642h44z" />
    <glyph glyph-name="X" unicode="X" horiz-adv-x="543" 
d="M514 0h-53l-193 312l-191 -312h-48l212 348l-198 319h54l172 -284l169 284h50l-195 -320z" />
    <glyph glyph-name="Y" unicode="Y" horiz-adv-x="527" 
d="M499 667l-214 -404v-263h-43v263l-214 404h50l188 -359l185 359h48z" />
    <glyph glyph-name="Z" unicode="Z" horiz-adv-x="538" 
d="M489 0h-441v35l384 593h-363v39h412v-35l-381 -592h389v-40z" />
    <glyph glyph-name="bracketleft" unicode="[" horiz-adv-x="307" 
d="M268 -121h-180v788h180v-38h-137v-712h137v-38z" />
    <glyph glyph-name="backslash" unicode="\" horiz-adv-x="418" 
d="M379 -121l-38 -15l-302 803l38 15z" />
    <glyph glyph-name="bracketright" unicode="]" horiz-adv-x="307" 
d="M219 -121h-180v38h137v712h-137v38h180v-788z" />
    <glyph glyph-name="asciicircum" unicode="^" 
d="M500 256h-50l-162 351l-161 -351h-47l193 411h33z" />
    <glyph glyph-name="underscore" unicode="_" horiz-adv-x="457" 
d="M459 -121h-461v38h461v-38z" />
    <glyph glyph-name="grave" unicode="`" horiz-adv-x="370" 
d="M297 576l-15 -31l-209 77l21 48z" />
    <glyph glyph-name="a" unicode="a" horiz-adv-x="454" 
d="M389 0h-41v36c-13 -7 -70 -46 -154 -46c-91 0 -153 55 -153 140c0 152 192 155 278 155h29v26c0 35 4 77 -25 106c-16 16 -42 34 -100 34c-76 0 -130 -38 -132 -40l-21 30c3 4 64 48 159 48c66 0 99 -21 122 -44c29 -29 38 -60 38 -133v-312zM348 72v177h-35
c-130 0 -229 -24 -229 -120c0 -49 32 -101 120 -101c75 0 140 42 144 44z" />
    <glyph glyph-name="b" unicode="b" horiz-adv-x="506" 
d="M461 245c0 -150 -99 -254 -239 -254c-81 0 -141 27 -150 30v698h41v-280c5 4 59 49 138 49c132 0 210 -97 210 -243zM418 243c0 120 -63 207 -168 207c-82 0 -132 -47 -137 -51v-351c7 -2 46 -19 112 -19c118 0 193 86 193 214z" />
    <glyph glyph-name="c" unicode="c" horiz-adv-x="453" 
d="M421 36c-10 -8 -71 -45 -156 -45c-126 0 -220 86 -220 236c0 153 92 261 233 261c83 0 132 -39 137 -44l-21 -31c-8 5 -47 35 -119 35c-114 0 -187 -88 -187 -212c0 -126 76 -204 179 -204c79 0 128 33 135 37z" />
    <glyph glyph-name="d" unicode="d" horiz-adv-x="506" 
d="M434 0h-41v40c-3 -2 -60 -49 -142 -49c-122 0 -206 95 -206 239c0 152 93 258 228 258c66 0 112 -29 120 -33v264h41v-719zM393 80v335c-7 4 -51 36 -119 36c-113 0 -186 -90 -186 -223c0 -116 65 -199 167 -199c83 0 130 45 138 51z" />
    <glyph glyph-name="e" unicode="e" horiz-adv-x="485" 
d="M440 266c0 -8 -1 -19 -2 -30h-350c0 -123 64 -204 176 -204c83 0 142 41 142 41l20 -34c-5 -5 -72 -48 -165 -48c-135 0 -216 98 -216 244c0 156 83 253 214 253c102 0 181 -79 181 -222zM398 274c0 85 -42 178 -139 178c-87 0 -163 -67 -169 -178h308z" />
    <glyph glyph-name="f" unicode="f" horiz-adv-x="336" 
d="M339 706l-17 -32c-7 4 -33 19 -71 19c-28 0 -51 -7 -68 -24c-31 -31 -30 -76 -30 -102v-90h155v-35h-155v-442h-41v442h-87v35h87v99c0 34 4 83 41 120c24 24 60 35 96 35c49 0 81 -17 90 -25z" />
    <glyph glyph-name="g" unicode="g" horiz-adv-x="506" 
d="M434 -10c0 -90 -10 -132 -43 -165c-42 -42 -91 -50 -149 -50c-102 0 -163 50 -168 55l21 31c7 -4 64 -48 146 -48c64 0 97 17 121 41c29 29 30 64 30 151v43c-8 -5 -65 -49 -146 -49c-116 0 -201 92 -201 235c0 148 98 254 232 254c89 0 148 -34 157 -39v-459zM392 88
v337c-7 3 -49 25 -118 25c-114 0 -187 -89 -187 -216c0 -115 62 -197 161 -197c77 0 136 47 144 51z" />
    <glyph glyph-name="h" unicode="h" horiz-adv-x="490" 
d="M425 0h-41v286c0 63 0 106 -30 136c-20 20 -51 28 -85 28c-72 0 -143 -45 -156 -53v-397h-41v719h41v-283c8 6 77 52 160 52c55 0 89 -16 111 -38c36 -36 41 -73 41 -145v-305z" />
    <glyph glyph-name="i" unicode="i" horiz-adv-x="185" 
d="M123 646c0 -17 -13 -31 -30 -31s-31 14 -31 31s14 30 31 30s30 -13 30 -30zM113 0h-41v477h41v-477z" />
    <glyph glyph-name="j" unicode="j" horiz-adv-x="184" 
d="M122 645c0 -17 -13 -30 -30 -30s-31 13 -31 30s14 30 31 30s30 -13 30 -30zM112 -64c0 -64 -9 -99 -36 -126c-18 -18 -50 -35 -89 -35s-60 10 -63 11l10 34c8 -3 22 -9 47 -9c35 0 50 8 67 25c18 18 23 55 23 93v548h41v-541z" />
    <glyph glyph-name="k" unicode="k" horiz-adv-x="441" 
d="M424 0h-58l-253 252v-252h-41v719h41v-458l228 216h56l-237 -219z" />
    <glyph glyph-name="l" unicode="l" horiz-adv-x="185" 
d="M113 0h-41v719h41v-719z" />
    <glyph glyph-name="m" unicode="m" horiz-adv-x="779" 
d="M714 0h-41v301c0 51 -5 95 -32 122c-19 19 -47 26 -78 26c-73 0 -146 -43 -158 -50c9 -22 9 -74 9 -112v-287h-41v271c0 93 -3 129 -27 152c-16 15 -40 27 -78 27c-41 0 -97 -16 -155 -53v-397h-41v477h41v-41c6 4 77 52 157 52c85 0 111 -46 121 -58c16 10 86 58 176 58
c45 0 79 -13 103 -37c43 -43 44 -96 44 -175v-276z" />
    <glyph glyph-name="n" unicode="n" horiz-adv-x="490" 
d="M425 0h-41v286c0 63 0 106 -30 136c-20 20 -51 28 -85 28c-72 0 -143 -45 -156 -53v-397h-41v477h41v-41c8 6 77 52 160 52c55 0 89 -16 111 -38c36 -36 41 -73 41 -145v-305z" />
    <glyph glyph-name="o" unicode="o" horiz-adv-x="510" 
d="M465 232c0 -149 -81 -243 -211 -243c-127 0 -209 95 -209 250c0 152 79 249 213 249c127 0 207 -94 207 -256zM422 236c0 129 -72 216 -167 216c-103 0 -167 -85 -167 -212c0 -129 72 -214 167 -214c106 0 167 82 167 210z" />
    <glyph glyph-name="p" unicode="p" horiz-adv-x="506" 
d="M461 249c0 -152 -94 -258 -232 -258c-64 0 -106 26 -116 33v-236h-41v689h41v-38c7 6 59 49 142 49c122 0 206 -95 206 -239zM418 252c0 116 -65 199 -167 199c-83 0 -130 -45 -138 -51v-336c7 -4 51 -35 119 -35c113 0 186 90 186 223z" />
    <glyph glyph-name="q" unicode="q" horiz-adv-x="506" 
d="M434 -212h-41v252c-5 -4 -59 -49 -138 -49c-132 0 -210 97 -210 243c0 150 99 254 239 254c81 0 141 -27 150 -30v-670zM393 80v351c-7 2 -46 19 -112 19c-118 0 -193 -86 -193 -214c0 -120 63 -207 168 -207c82 0 132 47 137 51z" />
    <glyph glyph-name="r" unicode="r" horiz-adv-x="332" 
d="M312 483l-10 -36c-8 1 -19 3 -41 3c-102 0 -143 -90 -148 -97v-353h-41v477h41v-73c7 10 52 86 150 86c36 0 46 -6 49 -7z" />
    <glyph glyph-name="s" unicode="s" horiz-adv-x="406" 
d="M354 127c0 -88 -66 -138 -168 -138c-91 0 -149 40 -152 44l19 33c15 -10 66 -40 129 -40c80 0 129 36 129 97c0 22 -7 42 -27 62c-45 45 -149 50 -201 102c-16 16 -31 40 -31 81c0 75 68 120 151 120c82 0 131 -35 135 -38l-19 -32c-9 6 -55 34 -112 34
c-60 0 -113 -30 -113 -83c0 -28 9 -41 22 -54c45 -45 149 -50 203 -104c23 -23 35 -48 35 -84z" />
    <glyph glyph-name="t" unicode="t" horiz-adv-x="354" 
d="M310 10c-9 -4 -35 -20 -87 -20c-44 0 -71 11 -91 31c-29 29 -25 81 -25 128v293h-83v35h83v136h41v-136h157v-35h-157v-291c0 -71 -4 -123 79 -123c37 0 62 12 70 15z" />
    <glyph glyph-name="u" unicode="u" horiz-adv-x="490" 
d="M418 0h-41v41c-13 -8 -69 -51 -161 -51c-35 0 -77 10 -110 43c-40 40 -41 89 -41 155v289h41v-293c0 -48 -2 -93 29 -124c23 -23 50 -33 86 -33c82 0 149 48 156 52v398h41v-477z" />
    <glyph glyph-name="v" unicode="v" horiz-adv-x="482" 
d="M452 477l-189 -477h-53l-188 477h47l169 -437l169 437h45z" />
    <glyph glyph-name="w" unicode="w" horiz-adv-x="730" 
d="M689 477l-141 -477h-56l-130 451l-134 -451h-57l-135 477h44l121 -439l131 439h65l126 -439l124 439h42z" />
    <glyph glyph-name="x" unicode="x" horiz-adv-x="457" 
d="M423 0h-52l-149 216l-149 -216h-49l175 246l-162 231h53l136 -202l139 202h49l-163 -231z" />
    <glyph glyph-name="y" unicode="y" horiz-adv-x="468" 
d="M441 477l-188 -519c-21 -57 -43 -106 -71 -134c-39 -39 -85 -49 -121 -49c-44 0 -75 12 -79 14l12 36c7 -2 28 -11 66 -11c32 0 65 11 87 33c33 33 53 92 72 139l-196 491h47l172 -434l154 434h45z" />
    <glyph glyph-name="z" unicode="z" horiz-adv-x="452" 
d="M395 0h-351v34l292 408h-276v35h324v-33l-288 -407h299v-37z" />
    <glyph glyph-name="braceleft" unicode="{" horiz-adv-x="317" 
d="M278 -121h-44c-52 0 -81 0 -108 27c-15 15 -28 33 -28 117v165c0 16 2 54 -10 66c-11 11 -29 11 -35 11v38c8 0 25 2 35 12c8 8 10 20 10 65v143c0 84 13 102 28 117c27 27 56 27 108 27h44v-38h-35c-58 0 -69 -1 -83 -15c-12 -12 -18 -27 -18 -78v-153
c0 -50 -1 -73 -13 -85c-7 -7 -12 -10 -20 -14c8 -4 14 -8 20 -14c12 -12 13 -37 13 -64v-196c0 -51 6 -66 18 -78c14 -14 25 -15 83 -15h35v-38z" />
    <glyph glyph-name="bar" unicode="|" horiz-adv-x="237" 
d="M141 -121h-45v788h45v-788z" />
    <glyph glyph-name="braceright" unicode="}" horiz-adv-x="317" 
d="M264 265c-6 0 -24 0 -35 -11c-12 -12 -10 -50 -10 -66v-165c0 -84 -13 -102 -28 -117c-27 -27 -56 -27 -108 -27h-44v38h35c58 0 69 1 83 15c12 12 18 27 18 78v196c0 27 1 52 13 64c6 6 12 10 20 14c-8 4 -13 7 -20 14c-12 12 -13 35 -13 85v153c0 51 -6 66 -18 78
c-14 14 -25 15 -83 15h-35v38h44c52 0 81 0 108 -27c15 -15 28 -33 28 -117v-143c0 -45 2 -57 10 -65c10 -10 27 -12 35 -12v-38z" />
    <glyph glyph-name="asciitilde" unicode="~" 
d="M502 259c-41 -52 -79 -60 -108 -60c-76 0 -137 57 -203 57c-45 0 -62 -23 -77 -38l-36 26c33 46 67 60 113 60c78 0 134 -57 203 -57c35 0 56 21 73 40z" />
    <glyph glyph-name="Adieresis" unicode="&#xc4;" horiz-adv-x="567" 
d="M554 0h-48l-74 205h-302l-74 -205h-43l243 667h53zM418 245l-137 377l-136 -377h273zM387 767c0 -20 -15 -36 -35 -36s-36 16 -36 36s16 35 36 35s35 -15 35 -35zM247 767c0 -20 -15 -36 -35 -36s-36 16 -36 36s16 35 36 35s35 -15 35 -35z" />
    <glyph glyph-name="Aring" unicode="&#xc5;" horiz-adv-x="567" 
d="M554 0h-48l-74 205h-302l-74 -205h-43l243 667h53zM418 245l-137 377l-136 -377h273zM282 908c52 0 95 -43 95 -94c0 -53 -43 -96 -95 -96s-95 43 -95 95c0 53 42 95 95 95zM282 873c-32 0 -59 -28 -59 -60s27 -59 59 -59c33 0 60 26 60 59s-27 60 -60 60z" />
    <glyph glyph-name="Ccedilla" unicode="&#xc7;" horiz-adv-x="597" 
d="M571 48c-9 -9 -82 -59 -212 -59l-10 -52c14 8 22 8 36 8c49 0 82 -32 82 -82c0 -56 -49 -88 -93 -88c-25 0 -49 4 -70 16l12 29c17 -7 30 -12 49 -12c49 0 60 32 60 53c0 30 -20 51 -51 51c-16 0 -31 -5 -44 -14l-22 13l17 80c-134 16 -268 121 -268 337
c0 224 146 351 317 351c115 0 178 -41 187 -49l-21 -35c-8 5 -69 41 -161 41c-150 0 -277 -112 -277 -300c0 -185 105 -305 270 -305c105 0 174 49 176 50z" />
    <glyph glyph-name="Eacute" unicode="&#xc9;" horiz-adv-x="488" 
d="M434 0h-346v667h338v-39h-295v-258h277v-37h-277v-293h303v-40zM368 792l-209 -77l-15 31l203 94z" />
    <glyph glyph-name="Ntilde" unicode="&#xd1;" horiz-adv-x="620" 
d="M532 0h-60l-344 608l1 -608h-41v667h55l349 -617l-1 617h41v-667zM456 759c-11 -11 -38 -40 -93 -40c-36 0 -73 22 -112 22c-34 0 -48 -11 -64 -22l-25 29c24 20 46 39 89 39c37 0 76 -24 113 -24c44 0 60 19 68 25z" />
    <glyph glyph-name="Odieresis" unicode="&#xd6;" horiz-adv-x="690" 
d="M633 335c0 -201 -118 -346 -293 -346c-160 0 -283 141 -283 336c0 206 121 354 294 354c162 0 282 -142 282 -344zM586 340c0 179 -103 299 -243 299c-145 0 -239 -120 -239 -301c0 -180 103 -309 241 -309c141 0 241 113 241 311zM455 767c0 -20 -15 -36 -35 -36
s-36 16 -36 36s16 35 36 35s35 -15 35 -35zM315 767c0 -20 -15 -36 -35 -36s-36 16 -36 36s16 35 36 35s35 -15 35 -35z" />
    <glyph glyph-name="Udieresis" unicode="&#xdc;" horiz-adv-x="605" 
d="M527 291c0 -87 5 -179 -58 -242c-46 -46 -106 -60 -166 -60c-71 0 -129 23 -168 62c-63 63 -57 144 -57 255v361h43v-430c0 -60 2 -116 44 -158c34 -34 84 -51 141 -51c51 0 100 17 129 46c50 50 49 104 49 212v381h43v-376zM408 767c0 -20 -15 -36 -35 -36
s-36 16 -36 36s16 35 36 35s35 -15 35 -35zM268 767c0 -20 -15 -36 -35 -36s-36 16 -36 36s16 35 36 35s35 -15 35 -35z" />
    <glyph glyph-name="aacute" unicode="&#xe1;" horiz-adv-x="454" 
d="M389 0h-41v36c-13 -7 -70 -46 -154 -46c-91 0 -153 55 -153 140c0 152 192 155 278 155h29v26c0 35 4 77 -25 106c-16 16 -42 34 -100 34c-76 0 -130 -38 -132 -40l-21 30c3 4 64 48 159 48c66 0 99 -21 122 -44c29 -29 38 -60 38 -133v-312zM348 72v177h-35
c-130 0 -229 -24 -229 -120c0 -49 32 -101 120 -101c75 0 140 42 144 44zM339 622l-209 -77l-15 31l203 94z" />
    <glyph glyph-name="agrave" unicode="&#xe0;" horiz-adv-x="454" 
d="M389 0h-41v36c-13 -7 -70 -46 -154 -46c-91 0 -153 55 -153 140c0 152 192 155 278 155h29v26c0 35 4 77 -25 106c-16 16 -42 34 -100 34c-76 0 -130 -38 -132 -40l-21 30c3 4 64 48 159 48c66 0 99 -21 122 -44c29 -29 38 -60 38 -133v-312zM348 72v177h-35
c-130 0 -229 -24 -229 -120c0 -49 32 -101 120 -101c75 0 140 42 144 44zM345 576l-15 -31l-209 77l21 48z" />
    <glyph glyph-name="acircumflex" unicode="&#xe2;" horiz-adv-x="454" 
d="M389 0h-41v36c-13 -7 -70 -46 -154 -46c-91 0 -153 55 -153 140c0 152 192 155 278 155h29v26c0 35 4 77 -25 106c-16 16 -42 34 -100 34c-76 0 -130 -38 -132 -40l-21 30c3 4 64 48 159 48c66 0 99 -21 122 -44c29 -29 38 -60 38 -133v-312zM348 72v177h-35
c-130 0 -229 -24 -229 -120c0 -49 32 -101 120 -101c75 0 140 42 144 44zM370 580l-19 -30l-127 67l-127 -67l-21 30l148 90z" />
    <glyph glyph-name="adieresis" unicode="&#xe4;" horiz-adv-x="454" 
d="M389 0h-41v36c-13 -7 -70 -46 -154 -46c-91 0 -153 55 -153 140c0 152 192 155 278 155h29v26c0 35 4 77 -25 106c-16 16 -42 34 -100 34c-76 0 -130 -38 -132 -40l-21 30c3 4 64 48 159 48c66 0 99 -21 122 -44c29 -29 38 -60 38 -133v-312zM348 72v177h-35
c-130 0 -229 -24 -229 -120c0 -49 32 -101 120 -101c75 0 140 42 144 44zM334 609c0 -20 -15 -36 -35 -36s-36 16 -36 36s16 35 36 35s35 -15 35 -35zM194 609c0 -20 -15 -36 -35 -36s-36 16 -36 36s16 35 36 35s35 -15 35 -35z" />
    <glyph glyph-name="atilde" unicode="&#xe3;" horiz-adv-x="454" 
d="M389 0h-41v36c-13 -7 -70 -46 -154 -46c-91 0 -153 55 -153 140c0 152 192 155 278 155h29v26c0 35 4 77 -25 106c-16 16 -42 34 -100 34c-76 0 -130 -38 -132 -40l-21 30c3 4 64 48 159 48c66 0 99 -21 122 -44c29 -29 38 -60 38 -133v-312zM348 72v177h-35
c-130 0 -229 -24 -229 -120c0 -49 32 -101 120 -101c75 0 140 42 144 44zM373 615c-11 -11 -38 -40 -93 -40c-36 0 -73 22 -112 22c-34 0 -48 -11 -64 -22l-25 29c24 20 46 39 89 39c37 0 76 -24 113 -24c44 0 60 19 68 25z" />
    <glyph glyph-name="aring" unicode="&#xe5;" horiz-adv-x="454" 
d="M389 0h-41v36c-13 -7 -70 -46 -154 -46c-91 0 -153 55 -153 140c0 152 192 155 278 155h29v26c0 35 4 77 -25 106c-16 16 -42 34 -100 34c-76 0 -130 -38 -132 -40l-21 30c3 4 64 48 159 48c66 0 99 -21 122 -44c29 -29 38 -60 38 -133v-312zM348 72v177h-35
c-130 0 -229 -24 -229 -120c0 -49 32 -101 120 -101c75 0 140 42 144 44zM324 625c0 -52 -43 -95 -95 -95s-95 43 -95 95c0 55 44 95 95 95c54 0 95 -44 95 -95zM289 625c0 35 -28 60 -60 60s-59 -28 -59 -60s27 -59 59 -59c34 0 60 27 60 59z" />
    <glyph glyph-name="ccedilla" unicode="&#xe7;" horiz-adv-x="453" 
d="M421 36c-5 -7 -72 -45 -156 -45h-6l-9 -52c13 8 24 9 35 9c48 0 79 -32 79 -80c0 -54 -47 -85 -90 -85c-28 0 -48 6 -67 16l12 28c7 -3 24 -12 47 -12c47 0 58 31 58 51c0 29 -20 49 -50 49c-15 0 -30 -4 -42 -13l-21 12l17 80c-108 16 -183 98 -183 233
c0 153 92 261 233 261c83 0 132 -39 137 -44l-21 -31c-8 5 -47 35 -119 35c-114 0 -187 -88 -187 -212c0 -126 77 -204 176 -204c79 0 129 33 138 37z" />
    <glyph glyph-name="eacute" unicode="&#xe9;" horiz-adv-x="485" 
d="M440 266c0 -8 -1 -19 -2 -30h-350c0 -123 64 -204 176 -204c83 0 142 41 142 41l20 -34c-5 -5 -72 -48 -165 -48c-135 0 -216 98 -216 244c0 156 83 253 214 253c102 0 181 -79 181 -222zM398 274c0 85 -42 178 -139 178c-87 0 -163 -67 -169 -178h308zM372 622l-209 -77
l-15 31l203 94z" />
    <glyph glyph-name="egrave" unicode="&#xe8;" horiz-adv-x="485" 
d="M440 266c0 -8 -1 -19 -2 -30h-350c0 -123 64 -204 176 -204c83 0 142 41 142 41l20 -34c-5 -5 -72 -48 -165 -48c-135 0 -216 98 -216 244c0 156 83 253 214 253c102 0 181 -79 181 -222zM398 274c0 85 -42 178 -139 178c-87 0 -163 -67 -169 -178h308zM360 576l-15 -31
l-209 77l21 48z" />
    <glyph glyph-name="ecircumflex" unicode="&#xea;" horiz-adv-x="485" 
d="M440 266c0 -8 -1 -19 -2 -30h-350c0 -123 64 -204 176 -204c83 0 142 41 142 41l20 -34c-5 -5 -72 -48 -165 -48c-135 0 -216 98 -216 244c0 156 83 253 214 253c102 0 181 -79 181 -222zM398 274c0 85 -42 178 -139 178c-87 0 -163 -67 -169 -178h308zM399 580l-19 -30
l-127 67l-127 -67l-21 30l148 90z" />
    <glyph glyph-name="edieresis" unicode="&#xeb;" horiz-adv-x="485" 
d="M440 266c0 -8 -1 -19 -2 -30h-350c0 -123 64 -204 176 -204c83 0 142 41 142 41l20 -34c-5 -5 -72 -48 -165 -48c-135 0 -216 98 -216 244c0 156 83 253 214 253c102 0 181 -79 181 -222zM398 274c0 85 -42 178 -139 178c-87 0 -163 -67 -169 -178h308zM358 609
c0 -20 -15 -36 -35 -36s-36 16 -36 36s16 35 36 35s35 -15 35 -35zM218 609c0 -20 -15 -36 -35 -36s-36 16 -36 36s16 35 36 35s35 -15 35 -35z" />
    <glyph glyph-name="iacute" unicode="&#xed;" horiz-adv-x="185" 
d="M113 0h-41v477h41v-477zM205 622l-209 -77l-15 31l203 94z" />
    <glyph glyph-name="igrave" unicode="&#xec;" horiz-adv-x="185" 
d="M113 0h-41v477h41v-477zM205 576l-15 -31l-209 77l21 48z" />
    <glyph glyph-name="icircumflex" unicode="&#xee;" horiz-adv-x="185" 
d="M113 0h-41v477h41v-477zM239 580l-19 -30l-127 67l-127 -67l-21 30l148 90z" />
    <glyph glyph-name="idieresis" unicode="&#xef;" horiz-adv-x="185" 
d="M113 0h-41v477h41v-477zM198 609c0 -20 -15 -36 -35 -36s-36 16 -36 36s16 35 36 35s35 -15 35 -35zM58 609c0 -20 -15 -36 -35 -36s-36 16 -36 36s16 35 36 35s35 -15 35 -35z" />
    <glyph glyph-name="ntilde" unicode="&#xf1;" horiz-adv-x="490" 
d="M425 0h-41v286c0 63 0 106 -30 136c-20 20 -51 28 -85 28c-72 0 -143 -45 -156 -53v-397h-41v477h41v-41c8 6 77 52 160 52c55 0 89 -16 111 -38c36 -36 41 -73 41 -145v-305zM399 615c-11 -11 -38 -40 -93 -40c-36 0 -73 22 -112 22c-34 0 -48 -11 -64 -22l-25 29
c24 20 46 39 89 39c37 0 76 -24 113 -24c44 0 60 19 68 25z" />
    <glyph glyph-name="oacute" unicode="&#xf3;" horiz-adv-x="510" 
d="M465 232c0 -149 -81 -243 -211 -243c-127 0 -209 95 -209 250c0 152 79 249 213 249c127 0 207 -94 207 -256zM422 236c0 129 -72 216 -167 216c-103 0 -167 -85 -167 -212c0 -129 72 -214 167 -214c106 0 167 82 167 210zM371 622l-209 -77l-15 31l203 94z" />
    <glyph glyph-name="ograve" unicode="&#xf2;" horiz-adv-x="510" 
d="M465 232c0 -149 -81 -243 -211 -243c-127 0 -209 95 -209 250c0 152 79 249 213 249c127 0 207 -94 207 -256zM422 236c0 129 -72 216 -167 216c-103 0 -167 -85 -167 -212c0 -129 72 -214 167 -214c106 0 167 82 167 210zM361 576l-15 -31l-209 77l21 48z" />
    <glyph glyph-name="ocircumflex" unicode="&#xf4;" horiz-adv-x="510" 
d="M465 232c0 -149 -81 -243 -211 -243c-127 0 -209 95 -209 250c0 152 79 249 213 249c127 0 207 -94 207 -256zM422 236c0 129 -72 216 -167 216c-103 0 -167 -85 -167 -212c0 -129 72 -214 167 -214c106 0 167 82 167 210zM403 580l-19 -30l-127 67l-127 -67l-21 30
l148 90z" />
    <glyph glyph-name="odieresis" unicode="&#xf6;" horiz-adv-x="510" 
d="M465 232c0 -149 -81 -243 -211 -243c-127 0 -209 95 -209 250c0 152 79 249 213 249c127 0 207 -94 207 -256zM422 236c0 129 -72 216 -167 216c-103 0 -167 -85 -167 -212c0 -129 72 -214 167 -214c106 0 167 82 167 210zM355 609c0 -20 -15 -36 -35 -36s-36 16 -36 36
s16 35 36 35s35 -15 35 -35zM215 609c0 -20 -15 -36 -35 -36s-36 16 -36 36s16 35 36 35s35 -15 35 -35z" />
    <glyph glyph-name="otilde" unicode="&#xf5;" horiz-adv-x="510" 
d="M465 232c0 -149 -81 -243 -211 -243c-127 0 -209 95 -209 250c0 152 79 249 213 249c127 0 207 -94 207 -256zM422 236c0 129 -72 216 -167 216c-103 0 -167 -85 -167 -212c0 -129 72 -214 167 -214c106 0 167 82 167 210zM400 615c-11 -11 -38 -40 -93 -40
c-36 0 -73 22 -112 22c-34 0 -48 -11 -64 -22l-25 29c24 20 46 39 89 39c37 0 76 -24 113 -24c44 0 60 19 68 25z" />
    <glyph glyph-name="uacute" unicode="&#xfa;" horiz-adv-x="490" 
d="M418 0h-41v41c-13 -8 -69 -51 -161 -51c-35 0 -77 10 -110 43c-40 40 -41 89 -41 155v289h41v-293c0 -48 -2 -93 29 -124c23 -23 50 -33 86 -33c82 0 149 48 156 52v398h41v-477zM354 622l-209 -77l-15 31l203 94z" />
    <glyph glyph-name="ugrave" unicode="&#xf9;" horiz-adv-x="490" 
d="M418 0h-41v41c-13 -8 -69 -51 -161 -51c-35 0 -77 10 -110 43c-40 40 -41 89 -41 155v289h41v-293c0 -48 -2 -93 29 -124c23 -23 50 -33 86 -33c82 0 149 48 156 52v398h41v-477zM353 576l-15 -31l-209 77l21 48z" />
    <glyph glyph-name="ucircumflex" unicode="&#xfb;" horiz-adv-x="490" 
d="M418 0h-41v41c-13 -8 -69 -51 -161 -51c-35 0 -77 10 -110 43c-40 40 -41 89 -41 155v289h41v-293c0 -48 -2 -93 29 -124c23 -23 50 -33 86 -33c82 0 149 48 156 52v398h41v-477zM389 580l-19 -30l-127 67l-127 -67l-21 30l148 90z" />
    <glyph glyph-name="udieresis" unicode="&#xfc;" horiz-adv-x="490" 
d="M418 0h-41v41c-13 -8 -69 -51 -161 -51c-35 0 -77 10 -110 43c-40 40 -41 89 -41 155v289h41v-293c0 -48 -2 -93 29 -124c23 -23 50 -33 86 -33c82 0 149 48 156 52v398h41v-477zM347 609c0 -20 -15 -36 -35 -36s-36 16 -36 36s16 35 36 35s35 -15 35 -35zM207 609
c0 -20 -15 -36 -35 -36s-36 16 -36 36s16 35 36 35s35 -15 35 -35z" />
    <glyph glyph-name="dagger" unicode="&#x2020;" horiz-adv-x="540" 
d="M468 371h-175l-5 -492h-34l-6 492h-176v42h175l-3 254h52l-2 -254h174v-42z" />
    <glyph glyph-name="degree" unicode="&#xb0;" horiz-adv-x="591" 
d="M437 536c0 -78 -64 -142 -142 -142s-141 64 -141 142s63 141 141 141s142 -63 142 -141zM402 536c0 59 -47 106 -106 106s-106 -47 -106 -106s47 -106 106 -106s106 47 106 106z" />
    <glyph glyph-name="cent" unicode="&#xa2;" 
d="M486 45c-9 -8 -62 -40 -135 -44v-95h-38v95c-119 8 -203 92 -203 235c0 142 78 245 203 259v80h38v-78c79 -2 125 -39 129 -44l-21 -31c-8 5 -44 32 -108 35v-415c69 5 110 32 116 36zM313 42v413c-100 -13 -160 -96 -160 -210c0 -119 67 -194 160 -203z" />
    <glyph glyph-name="sterling" unicode="&#xa3;" 
d="M524 625l-24 -27c-8 6 -45 42 -127 42c-102 0 -165 -67 -165 -192c0 -54 6 -86 8 -108h195v-39h-191c0 -10 5 -43 5 -71c0 -107 -28 -163 -73 -192h365v-38h-432v36c52 20 96 45 96 166c0 46 -4 85 -5 99h-89v39h85c-6 39 -9 71 -9 108c0 143 80 230 206 230
c95 0 146 -42 155 -53z" />
    <glyph glyph-name="section" unicode="&#xa7;" 
d="M472 276c0 -65 -33 -108 -117 -139c77 -40 99 -76 99 -130c0 -82 -64 -152 -171 -152c-106 0 -163 47 -175 56l23 34c13 -8 68 -48 147 -48c89 0 130 49 130 102c0 30 -10 49 -24 63c-55 55 -166 70 -228 132c-26 26 -37 53 -37 82c0 53 30 101 128 137
c-75 36 -103 78 -103 133c0 82 65 133 159 133s140 -45 142 -47l-22 -30c-10 7 -55 39 -121 39c-72 0 -112 -38 -112 -87c0 -22 5 -43 21 -59c48 -48 163 -72 220 -129c25 -25 41 -56 41 -90zM426 266c0 20 -7 45 -26 64c-32 32 -72 49 -112 67c-86 -26 -123 -71 -123 -115
c0 -22 7 -40 25 -58c28 -27 95 -53 132 -70c81 30 104 72 104 112z" />
    <glyph glyph-name="bullet" unicode="&#x2022;" horiz-adv-x="534" 
d="M340 246c0 -40 -33 -73 -73 -73s-73 33 -73 73s33 73 73 73s73 -33 73 -73z" />
    <glyph glyph-name="paragraph" unicode="&#xb6;" horiz-adv-x="570" 
d="M508 629h-56v-750h-39v750h-50v-750h-39v411c-41 -1 -155 -10 -219 54c-27 27 -52 67 -52 141c0 52 18 94 51 127c50 50 119 55 239 55h165v-38z" />
    <glyph glyph-name="germandbls" unicode="&#xdf;" horiz-adv-x="514" 
d="M469 151c0 -106 -85 -162 -178 -162c-73 0 -120 32 -125 36l19 33c9 -5 47 -29 104 -29c76 0 135 42 135 117c0 34 -17 64 -44 91c-23 23 -72 54 -103 85c-17 17 -24 27 -24 49c0 64 113 106 113 194c0 76 -50 128 -122 128c-25 0 -59 -7 -88 -36
c-27 -27 -43 -59 -43 -171v-486h-41v445c0 102 -4 181 51 235c35 35 76 51 124 51c95 0 164 -70 164 -164c0 -107 -106 -150 -106 -192c0 -16 8 -21 19 -33c45 -45 145 -88 145 -191z" />
    <glyph glyph-name="registered" unicode="&#xae;" horiz-adv-x="537" 
d="M487 459c0 -121 -98 -218 -219 -218s-218 97 -218 218s97 219 218 219s219 -98 219 -219zM450 459c0 102 -80 181 -182 181s-181 -79 -181 -181s79 -180 181 -180s182 78 182 180zM371 341h-38l-30 62c-18 37 -22 40 -59 40h-16v-102h-35v241h57c33 0 61 -2 81 -22
c13 -13 18 -27 18 -47c0 -23 -13 -54 -60 -56c27 -1 34 -16 44 -37zM315 515c0 33 -38 36 -63 36h-24v-78c32 0 87 -5 87 42z" />
    <glyph glyph-name="copyright" unicode="&#xa9;" horiz-adv-x="791" 
d="M741 333c0 -190 -155 -345 -345 -345s-346 155 -346 345s156 346 346 346c193 0 345 -161 345 -346zM697 333c0 172 -138 302 -301 302c-168 0 -303 -143 -303 -302c0 -165 138 -301 303 -301s301 136 301 301zM513 185c-12 -11 -58 -38 -119 -38c-94 0 -166 67 -166 181
c0 119 70 200 175 200c59 0 101 -32 106 -37l-21 -30c-14 9 -39 30 -91 30c-77 0 -126 -65 -126 -156c0 -92 53 -148 124 -148c57 0 90 23 99 28z" />
    <glyph glyph-name="trademark" unicode="&#x2122;" horiz-adv-x="715" 
d="M656 313h-41l-32 279l-102 -279h-30l-101 279l-31 -279h-39l42 354h39l108 -288l104 288h40zM272 635h-101v-322h-38v322h-101v32h240v-32z" />
    <glyph glyph-name="acute" unicode="&#xb4;" horiz-adv-x="370" 
d="M297 622l-209 -77l-15 31l203 94z" />
    <glyph glyph-name="dieresis" unicode="&#xa8;" horiz-adv-x="370" 
d="M290 609c0 -20 -15 -36 -35 -36s-36 16 -36 36s16 35 36 35s35 -15 35 -35zM150 609c0 -20 -15 -36 -35 -36s-36 16 -36 36s16 35 36 35s35 -15 35 -35z" />
    <glyph glyph-name="notequal" unicode="&#x2260;" horiz-adv-x="584" 
d="M522 175h-251l-93 -143l-34 21l78 122h-160v38h183l47 76h-230v38h255l86 135l33 -21l-72 -114h158v-38h-183l-46 -76h229v-38z" />
    <glyph glyph-name="AE" unicode="&#xc6;" horiz-adv-x="829" 
d="M770 0h-346v204h-241l-112 -204h-49l376 667h364v-39h-295v-258h277v-37h-277v-293h303v-40zM424 243v388l-221 -388h221z" />
    <glyph glyph-name="Oslash" unicode="&#xd8;" horiz-adv-x="690" 
d="M633 335c0 -201 -118 -346 -293 -346c-76 0 -134 36 -138 40l-54 -94l-35 20l56 100c-13 10 -112 92 -112 270c0 206 121 354 294 354c90 0 145 -42 150 -47l55 98l34 -21l-58 -103s101 -82 101 -271zM586 340c0 150 -72 223 -78 228l-285 -501c3 -1 49 -39 122 -39
c141 0 241 114 241 312zM478 595c-22 20 -76 44 -135 44c-145 0 -239 -120 -239 -301c0 -115 43 -201 87 -244z" />
    <glyph glyph-name="infinity" unicode="&#x221e;" horiz-adv-x="845" 
d="M749 276c0 -73 -62 -136 -135 -136c-46 0 -92 15 -192 111c-100 -96 -146 -111 -191 -111c-74 0 -135 62 -135 136c0 76 57 137 131 137c56 0 110 -21 195 -110c85 89 142 110 195 110c74 0 132 -61 132 -137zM713 281c0 52 -42 97 -97 97c-69 0 -113 -43 -171 -101
c50 -46 103 -98 169 -98c54 0 99 49 99 102zM400 277c-57 57 -101 101 -170 101c-55 0 -97 -46 -97 -97c0 -54 44 -102 98 -102c65 0 120 52 169 98z" />
    <glyph glyph-name="plusminus" unicode="&#xb1;" 
d="M503 296h-194v-211h-38v211h-194v38h194v216h38v-216h194v-38zM503 0h-426v38h426v-38z" />
    <glyph glyph-name="lessequal" unicode="&#x2264;" 
d="M520 121l-16 -34l-444 218v27l443 218l17 -33l-412 -200zM519 0h-459v38h459v-38z" />
    <glyph glyph-name="greaterequal" unicode="&#x2265;" 
d="M520 305l-444 -218l-16 34l412 196l-412 200l17 33l443 -218v-27zM519 0h-459v38h459v-38z" />
    <glyph glyph-name="yen" unicode="&#xa5;" 
d="M518 667l-195 -329h132v-38h-146v-53h146v-38h-146v-209h-42v209h-144v38h144v53h-144v38h129l-190 329h51l174 -319l182 319h49z" />
    <glyph glyph-name="mu" unicode="&#x3bc;" horiz-adv-x="497" 
d="M425 0h-41v38c-19 -10 -74 -48 -162 -48c-33 0 -76 10 -109 43v-154h-41v598h41v-293c0 -48 -2 -93 29 -124c23 -23 50 -33 86 -33c82 0 149 48 156 52v398h41v-477z" />
    <glyph glyph-name="partialdiff" unicode="&#x2202;" horiz-adv-x="599" 
d="M503 360c0 -233 -82 -372 -216 -372c-116 0 -191 100 -191 257c0 152 75 243 199 243c83 0 147 -53 159 -63c-16 176 -103 265 -206 265c-64 0 -101 -25 -114 -32l-21 32c15 11 65 41 138 41c151 0 252 -149 252 -371zM458 353c0 5 -1 18 -1 18c-5 5 -69 77 -167 77
c-93 0 -150 -80 -150 -208c0 -127 57 -211 147 -211c108 0 171 124 171 324z" />
    <glyph glyph-name="summation" unicode="&#x2211;" horiz-adv-x="537" 
d="M441 0h-345v24l186 318l-186 295v30h345v-37h-293l177 -288l-182 -305h298v-37z" />
    <glyph glyph-name="product" unicode="&#x220f;" horiz-adv-x="804" 
d="M708 630h-76v-630h-45v630h-370v-630h-45v630h-76v37h612v-37z" />
    <glyph glyph-name="pi" unicode="&#x3c0;" horiz-adv-x="657" 
d="M561 4c-6 -2 -10 -5 -34 -5c-18 0 -44 5 -66 27c-21 21 -24 48 -24 109v304h-227v-439h-41v439h-73v38h459v-38h-77v-293c0 -56 1 -79 15 -93c11 -11 24 -16 43 -16c10 0 20 1 25 2v-35z" />
    <glyph glyph-name="integral" unicode="&#x222b;" horiz-adv-x="631" 
d="M535 704l-18 -35c-9 5 -40 21 -79 21c-22 0 -50 -4 -69 -23c-31 -31 -33 -75 -33 -107v-617c0 -36 -3 -91 -44 -132c-22 -22 -54 -36 -96 -36c-55 0 -97 24 -100 27l18 35c9 -5 40 -21 79 -21c22 0 50 4 69 23c31 31 33 75 33 107v617c0 36 3 91 44 132
c22 22 54 36 96 36c55 0 97 -24 100 -27z" />
    <glyph glyph-name="ordfeminine" unicode="&#xaa;" horiz-adv-x="404" 
d="M324 313h-35v25c-34 -20 -69 -32 -110 -32c-68 0 -115 41 -115 105c0 115 144 116 206 116h19v17c0 26 2 56 -18 76c-11 11 -29 25 -71 25c-36 0 -69 -11 -97 -31l-18 26c4 5 51 37 119 37c49 0 74 -16 91 -33c22 -22 29 -45 29 -99v-232zM289 370v126h-23
c-96 0 -165 -18 -165 -86c0 -35 22 -72 85 -72c35 0 74 14 103 32z" />
    <glyph glyph-name="ordmasculine" unicode="&#xba;" horiz-adv-x="404" 
d="M358 487c0 -111 -60 -181 -157 -181c-95 0 -155 71 -155 186c0 113 58 185 158 185c95 0 154 -70 154 -190zM322 490c0 94 -52 156 -120 156c-74 0 -120 -60 -120 -153c0 -94 52 -155 120 -155c76 0 120 59 120 152z" />
    <glyph glyph-name="Omega" unicode="&#x3a9;" horiz-adv-x="809" 
d="M713 0h-232v39c148 62 167 198 167 303c0 178 -99 300 -244 300s-245 -122 -245 -300c0 -106 21 -239 168 -303v-39h-231v39h171c-118 62 -155 189 -155 306c0 194 122 334 292 334c169 0 291 -140 291 -334c0 -111 -29 -240 -153 -306h171v-39z" />
    <glyph glyph-name="ae" unicode="&#xe6;" horiz-adv-x="774" 
d="M729 266c0 -8 -1 -19 -2 -30h-350c0 -123 64 -204 176 -204c83 0 142 41 142 41l20 -34c-5 -5 -68 -48 -165 -48c-93 0 -142 48 -157 66c-18 -18 -88 -65 -184 -65c-104 0 -164 58 -164 134c0 135 138 148 260 148h31v37c0 35 4 77 -25 106c-16 16 -42 34 -100 34
c-76 0 -130 -38 -132 -40l-21 30c3 4 64 48 159 48c66 0 99 -21 122 -44c19 -19 28 -40 32 -55c11 20 59 98 177 98c102 0 181 -79 181 -222zM687 274c0 85 -42 178 -139 178c-87 0 -163 -67 -169 -178h308zM370 88c-28 50 -35 91 -35 148h-32c-88 0 -210 -6 -210 -110
c0 -57 43 -93 113 -93c103 0 159 52 164 55z" />
    <glyph glyph-name="oslash" unicode="&#xf8;" horiz-adv-x="510" 
d="M465 232c0 -149 -81 -243 -211 -243c-57 0 -92 19 -99 23l-34 -57l-33 20l35 59c-49 42 -78 114 -78 205c0 152 79 249 213 249c43 0 82 -11 112 -31l33 57l34 -19l-37 -64c41 -43 65 -113 65 -199zM422 236c0 62 -18 117 -46 154l-200 -342c7 -5 32 -22 79 -22
c106 0 167 82 167 210zM348 419c-26 21 -58 33 -93 33c-103 0 -167 -85 -167 -212c0 -71 26 -135 58 -167z" />
    <glyph glyph-name="questiondown" unicode="&#xbf;" horiz-adv-x="479" 
d="M319 454c0 -19 -15 -35 -34 -35s-34 16 -34 35s15 34 34 34s34 -15 34 -34zM422 -144c-5 -5 -70 -55 -172 -55c-107 0 -176 72 -176 182c0 76 32 108 55 131c43 43 87 57 115 85c22 22 22 32 22 97v33h38c1 -22 2 -42 2 -59c0 -46 -1 -67 -21 -87
c-26 -26 -84 -56 -114 -86c-39 -39 -49 -69 -49 -114c0 -83 60 -141 142 -141c69 0 130 41 136 45z" />
    <glyph glyph-name="exclamdown" unicode="&#xa1;" horiz-adv-x="272" 
d="M170 454c0 -19 -15 -35 -34 -35s-34 16 -34 35s15 34 34 34s34 -15 34 -34zM165 -187h-57l9 516h39z" />
    <glyph glyph-name="logicalnot" unicode="&#xac;" horiz-adv-x="582" 
d="M521 136h-41v134h-419v38h460v-172z" />
    <glyph glyph-name="radical" unicode="&#x221a;" horiz-adv-x="788" 
d="M692 715l-267 -715h-36l-162 425l-118 -40l-13 36l153 54l160 -415l245 669z" />
    <glyph glyph-name="florin" unicode="&#x192;" 
d="M546 659l-15 -34c-9 5 -35 15 -67 15c-60 0 -95 -31 -116 -129l-37 -172h156l-8 -39h-157l-65 -315c-11 -53 -26 -140 -61 -175c-24 -24 -55 -35 -93 -35c-53 0 -82 17 -87 19l15 34c8 -3 35 -14 71 -14c24 0 47 5 61 19c31 31 42 102 55 165l64 302h-131l8 39h130
l34 158c6 30 17 101 58 142c34 34 75 40 101 40c48 0 80 -18 84 -20z" />
    <glyph glyph-name="approxequal" unicode="&#x2248;" 
d="M502 324c-41 -52 -79 -60 -108 -60c-76 0 -137 57 -203 57c-45 0 -62 -23 -77 -38l-36 26c33 46 67 60 113 60c78 0 134 -57 203 -57c35 0 56 21 73 40zM502 194c-41 -52 -79 -60 -108 -60c-76 0 -137 57 -203 57c-45 0 -62 -23 -77 -38l-36 26c33 46 67 60 113 60
c78 0 134 -57 203 -57c35 0 56 21 73 40z" />
    <glyph glyph-name="Delta" unicode="&#x394;" horiz-adv-x="687" 
d="M591 0h-495l234 667h32zM535 38l-190 553l-193 -553h383z" />
    <glyph glyph-name="guillemotleft" unicode="&#xab;" horiz-adv-x="447" 
d="M382 81l-34 -23l-137 190l137 186l34 -24l-107 -162zM236 81l-34 -23l-137 190l137 186l34 -24l-107 -162z" />
    <glyph glyph-name="guillemotright" unicode="&#xbb;" horiz-adv-x="447" 
d="M382 248l-137 -190l-34 23l107 167l-107 162l34 24zM236 248l-137 -190l-34 23l107 167l-107 162l34 24z" />
    <glyph glyph-name="ellipsis" unicode="&#x2026;" horiz-adv-x="600" 
d="M535 27c0 -19 -16 -35 -35 -35s-35 16 -35 35s16 35 35 35s35 -16 35 -35zM335 27c0 -19 -16 -35 -35 -35s-35 16 -35 35s16 35 35 35s35 -16 35 -35zM135 27c0 -19 -16 -35 -35 -35s-35 16 -35 35s16 35 35 35s35 -16 35 -35z" />
    <glyph glyph-name="Agrave" unicode="&#xc0;" horiz-adv-x="567" 
d="M554 0h-48l-74 205h-302l-74 -205h-43l243 667h53zM418 245l-137 377l-136 -377h273zM404 746l-15 -31l-209 77l21 48z" />
    <glyph glyph-name="Atilde" unicode="&#xc3;" horiz-adv-x="567" 
d="M554 0h-48l-74 205h-302l-74 -205h-43l243 667h53zM418 245l-137 377l-136 -377h273zM435 759c-11 -11 -38 -40 -93 -40c-36 0 -73 22 -112 22c-34 0 -48 -11 -64 -22l-25 29c24 20 46 39 89 39c37 0 76 -24 113 -24c44 0 60 19 68 25z" />
    <glyph glyph-name="Otilde" unicode="&#xd5;" horiz-adv-x="690" 
d="M633 335c0 -201 -118 -346 -293 -346c-160 0 -283 141 -283 336c0 206 121 354 294 354c162 0 282 -142 282 -344zM586 340c0 179 -103 299 -243 299c-145 0 -239 -120 -239 -301c0 -180 103 -309 241 -309c141 0 241 113 241 311zM494 759c-11 -11 -38 -40 -93 -40
c-36 0 -73 22 -112 22c-34 0 -48 -11 -64 -22l-25 29c24 20 46 39 89 39c37 0 76 -24 113 -24c44 0 60 19 68 25z" />
    <glyph glyph-name="OE" unicode="&#x152;" horiz-adv-x="869" 
d="M810 0h-345c-142 0 -238 8 -309 79c-63 63 -99 151 -99 252c0 110 36 194 97 255c69 69 148 81 269 81h379v-39h-295v-258h277v-37h-277v-293h303v-40zM464 39v590h-25c-98 0 -182 1 -255 -71c-54 -53 -80 -139 -80 -229c0 -65 11 -147 83 -219c62 -62 130 -71 276 -71h1
z" />
    <glyph glyph-name="oe" unicode="&#x153;" horiz-adv-x="858" 
d="M813 266c0 -8 -1 -19 -2 -30h-350c0 -123 64 -204 176 -204c83 0 142 41 142 41l20 -34c-5 -5 -68 -48 -165 -48c-91 0 -159 45 -191 120c-33 -77 -99 -122 -189 -122c-127 0 -209 95 -209 250c0 152 79 249 213 249c87 0 152 -43 184 -123c34 78 101 123 190 123
c102 0 181 -79 181 -222zM771 274c0 85 -42 178 -139 178c-87 0 -163 -67 -169 -178h308zM422 236c0 129 -72 216 -167 216c-103 0 -167 -85 -167 -212c0 -129 72 -214 167 -214c106 0 167 82 167 210z" />
    <glyph glyph-name="endash" unicode="&#x2013;" horiz-adv-x="635" 
d="M548 232h-461v38h461v-38z" />
    <glyph glyph-name="emdash" unicode="&#x2014;" horiz-adv-x="993" 
d="M906 232h-819v38h819v-38z" />
    <glyph glyph-name="quotedblleft" unicode="&#x201c;" horiz-adv-x="292" 
d="M255 656c-5 -6 -48 -63 -48 -155h-54c0 90 56 161 71 176zM139 656c-5 -6 -48 -63 -48 -155h-54c0 90 56 161 71 176z" />
    <glyph glyph-name="quotedblright" unicode="&#x201d;" horiz-adv-x="292" 
d="M255 667c0 -90 -56 -161 -71 -176l-31 21c5 6 48 63 48 155h54zM139 667c0 -90 -56 -161 -71 -176l-31 21c5 6 48 63 48 155h54z" />
    <glyph glyph-name="quoteleft" unicode="&#x2018;" horiz-adv-x="176" 
d="M139 656c-5 -6 -48 -63 -48 -155h-54c0 90 56 161 71 176z" />
    <glyph glyph-name="quoteright" unicode="&#x2019;" horiz-adv-x="176" 
d="M139 667c0 -90 -56 -161 -71 -176l-31 21c5 6 48 63 48 155h54z" />
    <glyph glyph-name="divide" unicode="&#xf7;" 
d="M325 468c0 -20 -15 -36 -35 -36s-36 16 -36 36s16 35 36 35s35 -15 35 -35zM520 232h-460v38h460v-38zM325 38c0 -20 -15 -36 -35 -36s-36 16 -36 36s16 35 36 35s35 -15 35 -35z" />
    <glyph glyph-name="lozenge" unicode="&#x25ca;" horiz-adv-x="659" 
d="M563 337l-214 -337h-37l-216 337l216 330h34zM513 337l-184 280l-181 -280l183 -297z" />
    <glyph glyph-name="ydieresis" unicode="&#xff;" horiz-adv-x="468" 
d="M441 477l-188 -519c-21 -57 -43 -106 -71 -134c-39 -39 -85 -49 -121 -49c-44 0 -75 12 -79 14l12 36c7 -2 28 -11 66 -11c32 0 65 11 87 33c33 33 53 92 72 139l-196 491h47l172 -434l154 434h45zM345 609c0 -20 -15 -36 -35 -36s-36 16 -36 36s16 35 36 35
s35 -15 35 -35zM205 609c0 -20 -15 -36 -35 -36s-36 16 -36 36s16 35 36 35s35 -15 35 -35z" />
    <glyph glyph-name="Ydieresis" unicode="&#x178;" horiz-adv-x="527" 
d="M499 667l-214 -404v-263h-43v263l-214 404h50l188 -359l185 359h48zM371 767c0 -20 -15 -36 -35 -36s-36 16 -36 36s16 35 36 35s35 -15 35 -35zM231 767c0 -20 -15 -36 -35 -36s-36 16 -36 36s16 35 36 35s35 -15 35 -35z" />
    <glyph glyph-name="fraction" unicode="&#x2044;" horiz-adv-x="-37" 
d="M238 674l-480 -707l-33 21l480 710z" />
    <glyph glyph-name="Euro" unicode="&#x20ac;" 
d="M513 50c-4 -3 -69 -61 -173 -61c-212 0 -239 222 -242 271h-65v38h62c-1 24 -1 34 -1 41c0 9 0 10 1 30h-62v38h65c2 38 34 272 248 272c80 0 139 -43 144 -48l-23 -32c-7 5 -58 41 -119 41c-185 0 -201 -208 -203 -233h274v-38h-277c-1 -13 -1 -29 -1 -40
c0 -19 0 -9 1 -31h277v-38h-274c3 -26 19 -230 194 -230c86 0 141 46 150 52z" />
    <glyph glyph-name="guilsinglleft" unicode="&#x2039;" horiz-adv-x="301" 
d="M236 81l-34 -23l-137 190l137 186l34 -24l-107 -162z" />
    <glyph glyph-name="guilsinglright" unicode="&#x203a;" horiz-adv-x="301" 
d="M236 248l-137 -190l-34 23l107 167l-107 162l34 24z" />
    <glyph glyph-name="daggerdbl" unicode="&#x2021;" horiz-adv-x="540" 
d="M468 175h-177l-3 -296h-34l-4 296h-178v42h178l-2 154h-176v42h175l-3 254h52l-2 -254h174v-42h-175l-2 -154h177v-42z" />
    <glyph glyph-name="periodcentered" unicode="&#xb7;" horiz-adv-x="200" 
d="M135 254c0 -19 -16 -35 -35 -35s-35 16 -35 35s16 35 35 35s35 -16 35 -35z" />
    <glyph glyph-name="quotesinglbase" unicode="&#x201a;" horiz-adv-x="176" 
d="M139 61c0 -90 -56 -161 -71 -176l-31 21c5 6 48 63 48 155h54z" />
    <glyph glyph-name="quotedblbase" unicode="&#x201e;" horiz-adv-x="292" 
d="M255 61c0 -90 -56 -161 -71 -176l-31 21c5 6 48 63 48 155h54zM139 61c0 -90 -56 -161 -71 -176l-31 21c5 6 48 63 48 155h54z" />
    <glyph glyph-name="perthousand" unicode="&#x2030;" horiz-adv-x="1041" 
d="M326 502c0 -110 -51 -176 -142 -176c-86 0 -139 62 -139 162c0 116 51 183 144 183c85 0 137 -66 137 -169zM282 503c0 81 -32 134 -93 134c-66 0 -100 -55 -100 -146c0 -80 32 -131 95 -131c60 0 98 47 98 143zM611 674l-480 -707l-33 21l480 710zM676 172
c0 -110 -51 -176 -142 -176c-86 0 -139 62 -139 162c0 116 51 183 144 183c85 0 137 -66 137 -169zM632 173c0 81 -32 134 -93 134c-66 0 -100 -55 -100 -146c0 -80 32 -131 95 -131c60 0 98 47 98 143zM996 172c0 -110 -51 -176 -142 -176c-86 0 -139 62 -139 162
c0 116 51 183 144 183c85 0 137 -66 137 -169zM952 173c0 81 -32 134 -93 134c-66 0 -100 -55 -100 -146c0 -80 32 -131 95 -131c60 0 98 47 98 143z" />
    <glyph glyph-name="Acircumflex" unicode="&#xc2;" horiz-adv-x="567" 
d="M554 0h-48l-74 205h-302l-74 -205h-43l243 667h53zM418 245l-137 377l-136 -377h273zM427 745l-19 -30l-127 67l-127 -67l-21 30l148 90z" />
    <glyph glyph-name="Ecircumflex" unicode="&#xca;" horiz-adv-x="488" 
d="M434 0h-346v667h338v-39h-295v-258h277v-37h-277v-293h303v-40zM400 745l-19 -30l-127 67l-127 -67l-21 30l148 90z" />
    <glyph glyph-name="Aacute" unicode="&#xc1;" horiz-adv-x="567" 
d="M554 0h-48l-74 205h-302l-74 -205h-43l243 667h53zM418 245l-137 377l-136 -377h273zM396 791l-209 -77l-15 31l203 94z" />
    <glyph glyph-name="Edieresis" unicode="&#xcb;" horiz-adv-x="488" 
d="M434 0h-346v667h338v-39h-295v-258h277v-37h-277v-293h303v-40zM366 767c0 -20 -15 -36 -35 -36s-36 16 -36 36s16 35 36 35s35 -15 35 -35zM226 767c0 -20 -15 -36 -35 -36s-36 16 -36 36s16 35 36 35s35 -15 35 -35z" />
    <glyph glyph-name="Egrave" unicode="&#xc8;" horiz-adv-x="488" 
d="M434 0h-346v667h338v-39h-295v-258h277v-37h-277v-293h303v-40zM370 746l-15 -31l-209 77l21 48z" />
    <glyph glyph-name="Iacute" unicode="&#xcd;" horiz-adv-x="219" 
d="M131 0h-43v667h43v-667zM221 792l-209 -77l-15 31l203 94z" />
    <glyph glyph-name="Icircumflex" unicode="&#xce;" horiz-adv-x="219" 
d="M131 0h-43v667h43v-667zM256 745l-19 -30l-127 67l-127 -67l-21 30l148 90z" />
    <glyph glyph-name="Idieresis" unicode="&#xcf;" horiz-adv-x="219" 
d="M131 0h-43v667h43v-667zM215 767c0 -20 -15 -36 -35 -36s-36 16 -36 36s16 35 36 35s35 -15 35 -35zM75 767c0 -20 -15 -36 -35 -36s-36 16 -36 36s16 35 36 35s35 -15 35 -35z" />
    <glyph glyph-name="Igrave" unicode="&#xcc;" horiz-adv-x="219" 
d="M222 746l-15 -31l-209 77l21 48zM131 0h-43v667h43v-667z" />
    <glyph glyph-name="Oacute" unicode="&#xd3;" horiz-adv-x="690" 
d="M633 335c0 -201 -118 -346 -293 -346c-160 0 -283 141 -283 336c0 206 121 354 294 354c162 0 282 -142 282 -344zM586 340c0 179 -103 299 -243 299c-145 0 -239 -120 -239 -301c0 -180 103 -309 241 -309c141 0 241 113 241 311zM462 792l-209 -77l-15 31l203 94z" />
    <glyph glyph-name="Ocircumflex" unicode="&#xd4;" horiz-adv-x="690" 
d="M633 335c0 -201 -118 -346 -293 -346c-160 0 -283 141 -283 336c0 206 121 354 294 354c162 0 282 -142 282 -344zM586 340c0 179 -103 299 -243 299c-145 0 -239 -120 -239 -301c0 -180 103 -309 241 -309c141 0 241 113 241 311zM496 745l-19 -30l-127 67l-127 -67
l-21 30l148 90z" />
    <glyph glyph-name="Foundry" unicode="&#xf8ff;" horiz-adv-x="912" 
d="M862 388c0 -221 -176 -402 -406 -402c-229 0 -406 182 -406 402c0 224 180 403 406 403c230 0 406 -182 406 -403zM815 387c0 198 -161 358 -359 358s-359 -160 -359 -358c0 -196 150 -327 286 -351v285h-87v35h87v101c0 28 2 87 43 128c22 22 58 35 94 35
c50 0 79 -18 90 -26l-17 -31c-6 4 -36 19 -71 19c-28 0 -51 -7 -68 -24c-31 -31 -30 -76 -30 -102v-100h155v-35h-155v-292c11 -1 18 -1 32 -1c198 0 359 161 359 359z" />
    <glyph glyph-name="Ograve" unicode="&#xd2;" horiz-adv-x="690" 
d="M633 335c0 -201 -118 -346 -293 -346c-160 0 -283 141 -283 336c0 206 121 354 294 354c162 0 282 -142 282 -344zM586 340c0 179 -103 299 -243 299c-145 0 -239 -120 -239 -301c0 -180 103 -309 241 -309c141 0 241 113 241 311zM461 746l-15 -31l-209 77l21 48z" />
    <glyph glyph-name="Uacute" unicode="&#xda;" horiz-adv-x="605" 
d="M527 291c0 -87 5 -179 -58 -242c-46 -46 -106 -60 -166 -60c-71 0 -129 23 -168 62c-63 63 -57 144 -57 255v361h43v-430c0 -60 2 -116 44 -158c34 -34 84 -51 141 -51c51 0 100 17 129 46c50 50 49 104 49 212v381h43v-376zM417 792l-209 -77l-15 31l203 94z" />
    <glyph glyph-name="Ucircumflex" unicode="&#xdb;" horiz-adv-x="605" 
d="M527 291c0 -87 5 -179 -58 -242c-46 -46 -106 -60 -166 -60c-71 0 -129 23 -168 62c-63 63 -57 144 -57 255v361h43v-430c0 -60 2 -116 44 -158c34 -34 84 -51 141 -51c51 0 100 17 129 46c50 50 49 104 49 212v381h43v-376zM445 745l-19 -30l-127 67l-127 -67l-21 30
l148 90z" />
    <glyph glyph-name="Ugrave" unicode="&#xd9;" horiz-adv-x="605" 
d="M527 291c0 -87 5 -179 -58 -242c-46 -46 -106 -60 -166 -60c-71 0 -129 23 -168 62c-63 63 -57 144 -57 255v361h43v-430c0 -60 2 -116 44 -158c34 -34 84 -51 141 -51c51 0 100 17 129 46c50 50 49 104 49 212v381h43v-376zM409 746l-15 -31l-209 77l21 48z" />
    <glyph glyph-name="dotlessi" unicode="&#x131;" horiz-adv-x="185" 
d="M113 0h-41v477h41v-477z" />
    <glyph glyph-name="circumflex" unicode="&#x2c6;" horiz-adv-x="370" 
d="M332 580l-19 -30l-127 67l-127 -67l-21 30l148 90z" />
    <glyph glyph-name="tilde" unicode="&#x2dc;" horiz-adv-x="370" 
d="M332 615c-11 -11 -38 -40 -93 -40c-36 0 -73 22 -112 22c-34 0 -48 -11 -64 -22l-25 29c24 20 46 39 89 39c37 0 76 -24 113 -24c44 0 60 19 68 25z" />
    <glyph glyph-name="macron" unicode="&#xaf;" horiz-adv-x="370" 
d="M328 592h-285v38h285v-38z" />
    <glyph glyph-name="breve" unicode="&#x2d8;" horiz-adv-x="370" 
d="M313 667c-7 -70 -54 -114 -129 -114s-121 44 -128 114h40c6 -41 37 -67 88 -67s82 26 89 67h40z" />
    <glyph glyph-name="dotaccent" unicode="&#x2d9;" horiz-adv-x="370" 
d="M220 609c0 -20 -15 -36 -35 -36s-36 16 -36 36s16 35 36 35s35 -15 35 -35z" />
    <glyph glyph-name="ring" unicode="&#x2da;" horiz-adv-x="370" 
d="M280 625c0 -52 -43 -95 -95 -95s-95 43 -95 95c0 55 44 95 95 95c54 0 95 -44 95 -95zM245 625c0 35 -28 60 -60 60s-59 -28 -59 -60s27 -59 59 -59c34 0 60 27 60 59z" />
    <glyph glyph-name="cedilla" unicode="&#xb8;" horiz-adv-x="370" 
d="M264 -132c0 -54 -47 -85 -90 -85c-28 0 -48 6 -67 16l12 28c7 -3 24 -12 47 -12c47 0 58 31 58 51c0 29 -20 49 -50 49c-15 0 -30 -4 -42 -13l-21 12l18 86h32l-11 -61c13 8 24 9 35 9c48 0 79 -32 79 -80z" />
    <glyph glyph-name="hungarumlaut" unicode="&#x2dd;" horiz-adv-x="370" 
d="M298 698l-66 -167l-38 12l51 172zM176 698l-64 -167l-39 12l51 172z" />
    <glyph glyph-name="ogonek" unicode="&#x2db;" horiz-adv-x="370" 
d="M282 -164c-2 -2 -40 -28 -96 -28c-61 0 -99 40 -99 104c0 49 24 75 64 99l38 -11c-28 -18 -60 -43 -60 -88c0 -41 26 -65 66 -65c35 0 68 17 72 19z" />
    <glyph glyph-name="caron" unicode="&#x2c7;" horiz-adv-x="370" 
d="M332 640l-148 -90l-146 90l19 30l127 -67l127 67z" />
    <glyph glyph-name="Idotaccent" unicode="&#x130;" horiz-adv-x="217" 
d="M131 0h-43v667h43v-667zM144 767c0 -20 -15 -36 -35 -36s-36 16 -36 36s16 35 36 35s35 -15 35 -35z" />
    <glyph glyph-name="uni00B5" unicode="&#xb5;" horiz-adv-x="497" 
d="M425 0h-41v38c-19 -10 -74 -48 -162 -48c-33 0 -76 10 -109 43v-154h-41v598h41v-293c0 -48 -2 -93 29 -124c23 -23 50 -33 86 -33c82 0 149 48 156 52v398h41v-477z" />
    <glyph glyph-name="uni2206" unicode="&#x2206;" horiz-adv-x="687" 
d="M591 0h-495l234 667h32zM535 38l-190 553l-193 -553h383z" />
    <glyph glyph-name="uni2126" unicode="&#x2126;" horiz-adv-x="809" 
d="M713 0h-232v39c148 62 167 198 167 303c0 178 -99 300 -244 300s-245 -122 -245 -300c0 -106 21 -239 168 -303v-39h-231v39h171c-118 62 -155 189 -155 306c0 194 122 334 292 334c169 0 291 -140 291 -334c0 -111 -29 -240 -153 -306h171v-39z" />
    <glyph glyph-name="afii61289" unicode="&#x2113;" horiz-adv-x="500" 
d="M249 269c-29 -150 -33 -173 -33 -208c0 -17 6 -25 18 -25c17 0 34 18 51 54c6 14 11 18 19 18s13 -5 13 -15c0 -15 -10 -37 -26 -60c-25 -32 -48 -47 -76 -47c-42 0 -67 33 -67 88c0 28 1 45 10 127c-30 -28 -43 -38 -49 -38c-7 0 -14 8 -14 16c0 7 5 14 20 27
c8 7 39 39 50 52c55 287 117 420 197 420c38 0 63 -32 63 -81c0 -54 -25 -128 -64 -192c-24 -38 -57 -79 -112 -136zM260 333c81 91 125 181 125 260c0 26 -9 44 -23 44c-15 0 -32 -18 -41 -44c-19 -53 -41 -145 -61 -260z" />
    <glyph glyph-name="estimated" unicode="&#x212e;" horiz-adv-x="798" 
d="M769 311h-599c-3 0 -6 -1 -6 -4v-181c0 -8 4 -15 9 -21c57 -60 137 -98 227 -98c95 0 180 43 238 110h54c-67 -78 -174 -130 -293 -130c-204 0 -370 149 -370 333c0 183 166 332 370 332s370 -149 370 -332v-9zM634 335v181c0 9 -4 16 -10 22c-57 58 -137 94 -224 94
c-89 0 -169 -38 -226 -97c-6 -6 -10 -14 -10 -23v-177c0 -3 3 -5 6 -5h459c3 0 5 2 5 5z" />
    <glyph glyph-name="figuredash" unicode="&#x2012;" horiz-adv-x="568" 
d="M514 232h-460v38h460v-38z" />
    <glyph glyph-name=".null" horiz-adv-x="0" 
 />
    <glyph glyph-name="Asmall" unicode="&#xf761;" horiz-adv-x="470" 
d="M457 0h-46l-60 155h-237l-59 -155h-42l198 514h47zM336 193l-104 274l-104 -274h208z" />
    <glyph glyph-name="Bsmall" unicode="&#xf762;" horiz-adv-x="453" 
d="M402 146c0 -42 -16 -73 -39 -97c-43 -44 -91 -49 -188 -49h-97v514h129c56 0 106 -5 140 -40c24 -25 37 -53 37 -95c0 -88 -71 -108 -100 -113c39 -1 118 -21 118 -120zM341 381c0 26 -10 49 -27 66c-31 32 -84 31 -126 31h-69v-198h66c65 0 106 13 131 39
c15 15 25 36 25 62zM359 143c0 23 -5 44 -27 67c-35 36 -100 34 -155 34h-58v-207h82c61 0 100 5 132 38c16 16 26 43 26 68z" />
    <glyph glyph-name="Csmall" unicode="&#xf763;" horiz-adv-x="476" 
d="M455 38c-9 -11 -71 -47 -163 -47c-135 0 -241 96 -241 261c0 172 114 270 250 270c99 0 140 -35 145 -40l-22 -32c-3 2 -42 31 -118 31c-122 0 -211 -83 -211 -224c0 -139 77 -225 202 -225c87 0 134 37 137 38z" />
    <glyph glyph-name="Dsmall" unicode="&#xf764;" horiz-adv-x="554" 
d="M503 259c0 -114 -50 -167 -72 -190c-59 -60 -136 -69 -232 -69h-121v514h94c107 0 196 -4 256 -65c40 -41 75 -94 75 -190zM457 261c0 71 -22 122 -55 156c-42 43 -83 61 -221 61h-60v-442h64c114 0 166 9 215 59c40 41 57 102 57 166z" />
    <glyph glyph-name="Esmall" unicode="&#xf765;" horiz-adv-x="412" 
d="M360 0h-282v514h276v-37h-235v-189h220v-36h-220v-214h241v-38z" />
    <glyph glyph-name="Fsmall" unicode="&#xf766;" horiz-adv-x="390" 
d="M346 477h-226v-189h210v-36h-210v-252h-42v514h268v-37z" />
    <glyph glyph-name="Gsmall" unicode="&#xf767;" horiz-adv-x="521" 
d="M462 37c-7 -5 -57 -46 -165 -46c-146 0 -246 98 -246 261c0 172 114 270 250 270c99 0 140 -35 145 -40l-22 -32c-3 2 -42 31 -118 31c-122 0 -211 -83 -211 -224c0 -140 75 -226 211 -226c73 0 111 23 115 26v158h-123v35h164v-213z" />
    <glyph glyph-name="Hsmall" unicode="&#xf768;" horiz-adv-x="520" 
d="M442 0h-42v252h-280v-252h-42v514h42v-225h280v225h42v-514z" />
    <glyph glyph-name="Ismall" unicode="&#xf769;" horiz-adv-x="198" 
d="M120 0h-42v514h42v-514z" />
    <glyph glyph-name="Jsmall" unicode="&#xf76a;" horiz-adv-x="287" 
d="M217 154c0 -63 0 -101 -30 -131c-20 -20 -49 -32 -77 -32c-57 0 -92 25 -100 33l19 32c5 -3 33 -26 78 -26c20 0 36 5 48 17c23 23 20 57 20 87v380h42v-360z" />
    <glyph glyph-name="Ksmall" unicode="&#xf76b;" horiz-adv-x="430" 
d="M423 0h-56l-248 243v-243h-41v514h41v-242l242 242h48l-251 -253z" />
    <glyph glyph-name="Lsmall" unicode="&#xf76c;" horiz-adv-x="383" 
d="M353 0h-275v514h42v-476h233v-38z" />
    <glyph glyph-name="Msmall" unicode="&#xf76d;" horiz-adv-x="698" 
d="M638 0h-45l-56 451l-173 -451h-35l-175 451l-54 -451h-40l66 514h48l176 -453l173 453h48z" />
    <glyph glyph-name="Nsmall" unicode="&#xf76e;" horiz-adv-x="521" 
d="M443 0h-50l-276 454l3 -454h-42v514h49l278 -459l-3 459h41v-514z" />
    <glyph glyph-name="Osmall" unicode="&#xf76f;" horiz-adv-x="571" 
d="M520 257c0 -154 -95 -266 -238 -266c-130 0 -231 109 -231 258c0 158 98 272 239 272c132 0 230 -109 230 -264zM474 262c0 134 -82 222 -191 222c-114 0 -186 -88 -186 -224s81 -231 188 -231c111 0 189 86 189 233z" />
    <glyph glyph-name="Psmall" unicode="&#xf770;" horiz-adv-x="439" 
d="M391 367c0 -52 -24 -89 -44 -109c-47 -47 -110 -43 -168 -43h-59v-215h-42v514h117c60 0 113 -2 153 -42c30 -30 43 -71 43 -105zM349 369c0 36 -12 60 -32 80c-27 28 -75 29 -118 29h-79v-227h56c99 0 121 11 140 31c19 19 33 44 33 87z" />
    <glyph glyph-name="Qsmall" unicode="&#xf771;" horiz-adv-x="571" 
d="M520 257c0 -150 -89 -259 -225 -266c24 -29 71 -64 166 -64c30 0 44 4 51 4l5 -33c-7 -2 -33 -7 -68 -7c-84 0 -154 29 -199 102c-102 13 -199 107 -199 256c0 158 98 272 239 272c132 0 230 -109 230 -264zM474 261c0 134 -82 222 -191 222c-114 0 -186 -88 -186 -224
s81 -231 188 -231c111 0 189 86 189 233z" />
    <glyph glyph-name="Rsmall" unicode="&#xf772;" horiz-adv-x="449" 
d="M423 0h-44l-74 156c-32 68 -45 75 -138 75h-47v-231h-42v514h102c58 0 119 3 164 -42c36 -36 41 -70 41 -99c0 -28 -9 -60 -34 -85c-20 -20 -42 -35 -88 -42c44 -3 54 -21 77 -70zM342 376c0 38 -14 57 -28 71c-34 35 -84 31 -127 31h-67v-210h38c57 0 117 1 156 40
c18 18 28 39 28 68z" />
    <glyph glyph-name="Ssmall" unicode="&#xf773;" horiz-adv-x="415" 
d="M360 142c0 -84 -53 -151 -164 -151c-94 0 -149 52 -154 56l25 33c6 -4 57 -49 127 -49c92 0 124 54 124 105c0 26 -10 46 -27 63c-51 52 -151 60 -201 110c-10 11 -33 34 -33 84c0 75 62 129 154 129c90 0 129 -42 144 -58l-24 -26c-10 9 -45 46 -117 46
c-68 0 -116 -39 -116 -89c0 -30 10 -44 22 -56c43 -43 145 -51 199 -106c27 -27 41 -56 41 -91z" />
    <glyph glyph-name="Tsmall" unicode="&#xf774;" horiz-adv-x="434" 
d="M403 477h-165v-477h-42v477h-165v37h372v-37z" />
    <glyph glyph-name="Usmall" unicode="&#xf775;" horiz-adv-x="503" 
d="M433 211c0 -69 3 -122 -46 -171c-36 -36 -87 -49 -135 -49c-56 0 -108 19 -140 52c-39 40 -42 79 -42 152v319h41v-343c0 -50 7 -77 32 -103c26 -26 67 -39 111 -39c39 0 78 12 100 34c39 40 38 77 38 138v313h41v-303z" />
    <glyph glyph-name="Vsmall" unicode="&#xf776;" horiz-adv-x="478" 
d="M456 514l-190 -514h-57l-187 514h47l171 -479l175 479h41z" />
    <glyph glyph-name="Wsmall" unicode="&#xf777;" horiz-adv-x="731" 
d="M692 514l-135 -514h-64l-127 481l-128 -481h-64l-135 514h47l122 -482l127 482h66l127 -482l121 482h43z" />
    <glyph glyph-name="Xsmall" unicode="&#xf778;" horiz-adv-x="450" 
d="M425 0h-51l-152 234l-148 -234h-49l171 268l-159 246h50l135 -212l133 212h50l-159 -248z" />
    <glyph glyph-name="Ysmall" unicode="&#xf779;" horiz-adv-x="435" 
d="M411 514l-174 -312v-202h-40v202l-173 312h48l148 -270l146 270h45z" />
    <glyph glyph-name="Zsmall" unicode="&#xf77a;" horiz-adv-x="455" 
d="M405 0h-359v31l303 446h-285v37h334v-31l-300 -445h307v-38z" />
    <glyph glyph-name="Aacutesmall" unicode="&#xf7e1;" horiz-adv-x="470" 
d="M457 0h-46l-60 155h-237l-59 -155h-42l198 514h47zM336 193l-104 274l-104 -274h208zM335 640l-209 -77l-15 31l203 94z" />
    <glyph glyph-name="Agravesmall" unicode="&#xf7e0;" horiz-adv-x="470" 
d="M457 0h-46l-60 155h-237l-59 -155h-42l198 514h47zM336 193l-104 274l-104 -274h208zM347 594l-15 -31l-209 77l21 48z" />
    <glyph glyph-name="Acircumflexsmall" unicode="&#xf7e2;" horiz-adv-x="470" 
d="M457 0h-46l-60 155h-237l-59 -155h-42l198 514h47zM336 193l-104 274l-104 -274h208zM380 598l-19 -30l-127 67l-127 -67l-21 30l148 90z" />
    <glyph glyph-name="Atildesmall" unicode="&#xf7e3;" horiz-adv-x="470" 
d="M457 0h-46l-60 155h-237l-59 -155h-42l198 514h47zM336 193l-104 274l-104 -274h208zM380 633c-11 -11 -38 -40 -93 -40c-36 0 -73 22 -112 22c-34 0 -48 -11 -64 -22l-25 29c24 20 46 39 89 39c37 0 76 -24 113 -24c44 0 60 19 68 25z" />
    <glyph glyph-name="Adieresissmall" unicode="&#xf7e4;" horiz-adv-x="470" 
d="M457 0h-46l-60 155h-237l-59 -155h-42l198 514h47zM336 193l-104 274l-104 -274h208zM341 627c0 -20 -15 -36 -35 -36s-36 16 -36 36s16 35 36 35s35 -15 35 -35zM201 627c0 -20 -15 -36 -35 -36s-36 16 -36 36s16 35 36 35s35 -15 35 -35z" />
    <glyph glyph-name="Aringsmall" unicode="&#xf7e5;" horiz-adv-x="470" 
d="M457 0h-46l-60 155h-237l-59 -155h-42l198 514h47zM336 193l-104 274l-104 -274h208zM330 645c0 -52 -43 -95 -95 -95s-95 43 -95 95c0 55 44 95 95 95c54 0 95 -44 95 -95zM295 645c0 35 -28 60 -60 60s-59 -28 -59 -60s27 -59 59 -59c34 0 60 27 60 59z" />
    <glyph glyph-name="AEsmall" unicode="&#xf7e6;" horiz-adv-x="680" 
d="M628 0h-284v154h-194l-89 -154h-48l310 514h299v-37h-237v-189h222v-36h-222v-214h243v-38zM344 191v290l-173 -290h173z" />
    <glyph glyph-name="Ccedillasmall" unicode="&#xf7e7;" horiz-adv-x="476" 
d="M459 38c-9 -11 -72 -47 -165 -47h-4l-9 -52c13 8 24 9 35 9c48 0 79 -32 79 -80c0 -54 -47 -85 -90 -85c-28 0 -48 6 -67 16l12 28c7 -3 24 -12 47 -12c47 0 58 31 58 51c0 29 -20 49 -50 49c-15 0 -30 -4 -42 -13l-21 12l17 79c-121 16 -208 108 -208 259
c0 172 115 270 252 270c100 0 142 -35 147 -40l-22 -32c-3 2 -42 31 -119 31c-123 0 -214 -83 -214 -224c0 -139 78 -225 204 -225c88 0 136 37 139 38z" />
    <glyph glyph-name="Ethsmall" unicode="&#xf7f0;" horiz-adv-x="592" 
d="M541 259c0 -114 -50 -167 -73 -190c-59 -59 -137 -69 -234 -69h-122v251h-82v39h82v224h95c108 0 197 -4 258 -65c41 -41 76 -94 76 -190zM495 261c0 71 -22 122 -56 156c-43 43 -84 61 -223 61h-61v-188h173v-39h-173v-215h65c115 0 167 9 217 59c41 41 58 102 58 166z
" />
    <glyph glyph-name="Eacutesmall" unicode="&#xf7e9;" horiz-adv-x="412" 
d="M360 0h-282v514h276v-37h-235v-189h220v-36h-220v-214h241v-38zM327 640l-209 -77l-15 31l203 94z" />
    <glyph glyph-name="Egravesmall" unicode="&#xf7e8;" horiz-adv-x="412" 
d="M360 0h-282v514h276v-37h-235v-189h220v-36h-220v-214h241v-38zM328 594l-15 -31l-209 77l21 48z" />
    <glyph glyph-name="Ecircumflexsmall" unicode="&#xf7ea;" horiz-adv-x="424" 
d="M367 0h-282v514h276v-37h-235v-189h220v-36h-220v-214h241v-38zM372 598l-19 -30l-127 67l-127 -67l-21 30l148 90z" />
    <glyph glyph-name="Edieresissmall" unicode="&#xf7eb;" horiz-adv-x="412" 
d="M360 0h-282v514h276v-37h-235v-189h220v-36h-220v-214h241v-38zM321 627c0 -20 -15 -36 -35 -36s-36 16 -36 36s16 35 36 35s35 -15 35 -35zM181 627c0 -20 -15 -36 -35 -36s-36 16 -36 36s16 35 36 35s35 -15 35 -35z" />
    <glyph glyph-name="Iacutesmall" unicode="&#xf7ed;" horiz-adv-x="198" 
d="M120 0h-42v514h42v-514zM211 640l-209 -77l-15 31l203 94z" />
    <glyph glyph-name="Igravesmall" unicode="&#xf7ec;" horiz-adv-x="198" 
d="M120 0h-42v514h42v-514zM211 594l-15 -31l-209 77l21 48z" />
    <glyph glyph-name="Icircumflexsmall" unicode="&#xf7ee;" horiz-adv-x="198" 
d="M120 0h-42v514h42v-514zM246 598l-19 -30l-127 67l-127 -67l-21 30l148 90z" />
    <glyph glyph-name="Idieresissmall" unicode="&#xf7ef;" horiz-adv-x="198" 
d="M120 0h-42v514h42v-514zM205 627c0 -20 -15 -36 -35 -36s-36 16 -36 36s16 35 36 35s35 -15 35 -35zM65 627c0 -20 -15 -36 -35 -36s-36 16 -36 36s16 35 36 35s35 -15 35 -35z" />
    <glyph glyph-name="dotlessismall" horiz-adv-x="197" 
d="M119 0h-41v477h41v-477z" />
    <glyph glyph-name="Lslashsmall" unicode="&#xf6f9;" horiz-adv-x="412" 
d="M380 0h-275v229l-68 -48l-20 24l88 63v246h42v-223l104 72l18 -24l-122 -86v-215h233v-38z" />
    <glyph glyph-name="Ntildesmall" unicode="&#xf7f1;" horiz-adv-x="521" 
d="M443 0h-50l-276 454l3 -454h-42v514h49l278 -459l-3 459h41v-514zM401 633c-11 -11 -38 -40 -93 -40c-36 0 -73 22 -112 22c-34 0 -48 -11 -64 -22l-25 29c24 20 46 39 89 39c37 0 76 -24 113 -24c44 0 60 19 68 25z" />
    <glyph glyph-name="Oacutesmall" unicode="&#xf7f3;" horiz-adv-x="571" 
d="M520 257c0 -154 -95 -266 -238 -266c-130 0 -231 109 -231 258c0 158 98 272 239 272c132 0 230 -109 230 -264zM474 262c0 134 -82 222 -191 222c-114 0 -186 -88 -186 -224s81 -231 188 -231c111 0 189 86 189 233zM389 640l-209 -77l-15 31l203 94z" />
    <glyph glyph-name="Ogravesmall" unicode="&#xf7f2;" horiz-adv-x="571" 
d="M520 257c0 -154 -95 -266 -238 -266c-130 0 -231 109 -231 258c0 158 98 272 239 272c132 0 230 -109 230 -264zM474 262c0 134 -82 222 -191 222c-114 0 -186 -88 -186 -224s81 -231 188 -231c111 0 189 86 189 233zM401 594l-15 -31l-209 77l21 48z" />
    <glyph glyph-name="Ocircumflexsmall" unicode="&#xf7f4;" horiz-adv-x="571" 
d="M520 257c0 -154 -95 -266 -238 -266c-130 0 -231 109 -231 258c0 158 98 272 239 272c132 0 230 -109 230 -264zM474 262c0 134 -82 222 -191 222c-114 0 -186 -88 -186 -224s81 -231 188 -231c111 0 189 86 189 233zM427 598l-19 -30l-127 67l-127 -67l-21 30l148 90z
" />
    <glyph glyph-name="Otildesmall" unicode="&#xf7f5;" horiz-adv-x="571" 
d="M520 257c0 -154 -95 -266 -238 -266c-130 0 -231 109 -231 258c0 158 98 272 239 272c132 0 230 -109 230 -264zM474 262c0 134 -82 222 -191 222c-114 0 -186 -88 -186 -224s81 -231 188 -231c111 0 189 86 189 233zM434 633c-11 -11 -38 -40 -93 -40
c-36 0 -73 22 -112 22c-34 0 -48 -11 -64 -22l-25 29c24 20 46 39 89 39c37 0 76 -24 113 -24c44 0 60 19 68 25z" />
    <glyph glyph-name="Odieresissmall" unicode="&#xf7f6;" horiz-adv-x="571" 
d="M520 257c0 -154 -95 -266 -238 -266c-130 0 -231 109 -231 258c0 158 98 272 239 272c132 0 230 -109 230 -264zM474 262c0 134 -82 222 -191 222c-114 0 -186 -88 -186 -224s81 -231 188 -231c111 0 189 86 189 233zM390 627c0 -20 -15 -36 -35 -36s-36 16 -36 36
s16 35 36 35s35 -15 35 -35zM250 627c0 -20 -15 -36 -35 -36s-36 16 -36 36s16 35 36 35s35 -15 35 -35z" />
    <glyph glyph-name="Oslashsmall" unicode="&#xf7f8;" horiz-adv-x="571" 
d="M520 257c0 -154 -95 -266 -238 -266c-41 0 -78 11 -111 30l-44 -73l-34 20l47 75c-54 46 -89 119 -89 206c0 158 98 272 239 272c66 0 105 -25 121 -36l48 80l34 -22l-51 -82c13 -13 78 -78 78 -204zM474 262c0 67 -21 123 -55 162l-227 -368c6 -4 42 -27 93 -27
c111 0 189 86 189 233zM390 451c-17 13 -56 33 -107 33c-114 0 -186 -88 -186 -224c0 -76 25 -139 66 -180z" />
    <glyph glyph-name="OEsmall" unicode="&#xf6fa;" horiz-adv-x="727" 
d="M675 0h-290c-108 0 -197 4 -258 65c-41 41 -76 94 -76 190c0 114 50 167 73 190c59 59 137 69 234 69h309v-37h-241v-189h226v-36h-226v-214h249v-38zM384 36v442h-12c-115 0 -167 -9 -217 -59c-41 -41 -58 -102 -58 -166c0 -71 22 -122 56 -156c43 -43 84 -61 223 -61h8
z" />
    <glyph glyph-name="Thornsmall" unicode="&#xf7fe;" horiz-adv-x="443" 
d="M395 266c0 -52 -25 -89 -45 -109c-47 -47 -115 -43 -174 -43h-56v-114h-42v514h42v-101h77c61 0 114 -2 154 -42c30 -30 44 -71 44 -105zM353 268c0 36 -12 59 -32 79c-31 31 -85 30 -122 30h-79v-227h54c100 0 126 11 146 31c19 19 33 44 33 87z" />
    <glyph glyph-name="Scaronsmall" unicode="&#xf6fd;" horiz-adv-x="415" 
d="M360 142c0 -84 -53 -151 -164 -151c-94 0 -149 52 -154 56l25 33c6 -4 57 -49 127 -49c92 0 124 54 124 105c0 26 -10 46 -27 63c-51 52 -151 60 -201 110c-10 11 -33 34 -33 84c0 75 62 129 154 129c90 0 129 -42 144 -58l-24 -26c-10 9 -45 46 -117 46
c-68 0 -116 -39 -116 -89c0 -30 10 -44 22 -56c43 -43 145 -51 199 -106c27 -27 41 -56 41 -91zM360 658l-148 -90l-146 90l19 30l127 -67l127 67z" />
    <glyph glyph-name="germandblssmall" horiz-adv-x="415" 
d="M708 142c0 -84 -53 -151 -164 -151c-94 0 -149 52 -154 56l25 33c6 -4 57 -49 127 -49c92 0 124 54 124 105c0 26 -10 46 -27 63c-51 52 -151 60 -201 110c-10 11 -33 34 -33 84c0 75 62 129 154 129c90 0 129 -42 144 -58l-24 -26c-10 9 -45 46 -117 46
c-68 0 -116 -39 -116 -89c0 -30 10 -44 22 -56c43 -43 145 -51 199 -106c27 -27 41 -56 41 -91zM364 142c0 -84 -53 -151 -164 -151c-94 0 -149 52 -154 56l25 33c6 -4 57 -49 127 -49c92 0 124 54 124 105c0 26 -10 46 -27 63c-51 52 -151 60 -201 110
c-10 11 -33 34 -33 84c0 75 62 129 154 129c90 0 129 -42 144 -58l-24 -26c-10 9 -45 46 -117 46c-68 0 -116 -39 -116 -89c0 -30 10 -44 22 -56c43 -43 145 -51 199 -106c27 -27 41 -56 41 -91z" />
    <glyph glyph-name="germandbls.small" horiz-adv-x="415" 
d="M708 142c0 -84 -53 -151 -164 -151c-94 0 -149 52 -154 56l25 33c6 -4 57 -49 127 -49c92 0 124 54 124 105c0 26 -10 46 -27 63c-51 52 -151 60 -201 110c-10 11 -33 34 -33 84c0 75 62 129 154 129c90 0 129 -42 144 -58l-24 -26c-10 9 -45 46 -117 46
c-68 0 -116 -39 -116 -89c0 -30 10 -44 22 -56c43 -43 145 -51 199 -106c27 -27 41 -56 41 -91zM364 142c0 -84 -53 -151 -164 -151c-94 0 -149 52 -154 56l25 33c6 -4 57 -49 127 -49c92 0 124 54 124 105c0 26 -10 46 -27 63c-51 52 -151 60 -201 110
c-10 11 -33 34 -33 84c0 75 62 129 154 129c90 0 129 -42 144 -58l-24 -26c-10 9 -45 46 -117 46c-68 0 -116 -39 -116 -89c0 -30 10 -44 22 -56c43 -43 145 -51 199 -106c27 -27 41 -56 41 -91z" />
    <glyph glyph-name="Uacutesmall" unicode="&#xf7fa;" horiz-adv-x="503" 
d="M433 211c0 -69 3 -122 -46 -171c-36 -36 -87 -49 -135 -49c-56 0 -108 19 -140 52c-39 40 -42 79 -42 152v319h41v-343c0 -50 7 -77 32 -103c26 -26 67 -39 111 -39c39 0 78 12 100 34c39 40 38 77 38 138v313h41v-303zM366 640l-209 -77l-15 31l203 94z" />
    <glyph glyph-name="Ugravesmall" unicode="&#xf7f9;" horiz-adv-x="503" 
d="M433 211c0 -69 3 -122 -46 -171c-36 -36 -87 -49 -135 -49c-56 0 -108 19 -140 52c-39 40 -42 79 -42 152v319h41v-343c0 -50 7 -77 32 -103c26 -26 67 -39 111 -39c39 0 78 12 100 34c39 40 38 77 38 138v313h41v-303zM364 594l-15 -31l-209 77l21 48z" />
    <glyph glyph-name="Ucircumflexsmall" unicode="&#xf7fb;" horiz-adv-x="503" 
d="M433 211c0 -69 3 -122 -46 -171c-36 -36 -87 -49 -135 -49c-56 0 -108 19 -140 52c-39 40 -42 79 -42 152v319h41v-343c0 -50 7 -77 32 -103c26 -26 67 -39 111 -39c39 0 78 12 100 34c39 40 38 77 38 138v313h41v-303zM395 598l-19 -30l-127 67l-127 -67l-21 30l148 90z
" />
    <glyph glyph-name="Udieresissmall" unicode="&#xf7fc;" horiz-adv-x="503" 
d="M433 211c0 -69 3 -122 -46 -171c-36 -36 -87 -49 -135 -49c-56 0 -108 19 -140 52c-39 40 -42 79 -42 152v319h41v-343c0 -50 7 -77 32 -103c26 -26 67 -39 111 -39c39 0 78 12 100 34c39 40 38 77 38 138v313h41v-303zM354 627c0 -20 -15 -36 -35 -36s-36 16 -36 36
s16 35 36 35s35 -15 35 -35zM214 627c0 -20 -15 -36 -35 -36s-36 16 -36 36s16 35 36 35s35 -15 35 -35z" />
    <glyph glyph-name="Yacutesmall" unicode="&#xf7fd;" horiz-adv-x="435" 
d="M411 514l-174 -312v-202h-40v202l-173 312h48l148 -270l146 270h45zM335 640l-209 -77l-15 31l203 94z" />
    <glyph glyph-name="Ydieresissmall" unicode="&#xf7ff;" horiz-adv-x="435" 
d="M411 514l-174 -312v-202h-40v202l-173 312h48l148 -270l146 270h45zM329 627c0 -20 -15 -36 -35 -36s-36 16 -36 36s16 35 36 35s35 -15 35 -35zM189 627c0 -20 -15 -36 -35 -36s-36 16 -36 36s16 35 36 35s35 -15 35 -35z" />
    <glyph glyph-name="Zcaronsmall" unicode="&#xf6ff;" horiz-adv-x="455" 
d="M405 0h-359v31l303 446h-285v37h334v-31l-300 -445h307v-38zM367 664l-148 -90l-146 90l19 30l127 -67l127 67z" />
    <glyph glyph-name="Eurooldstyle" horiz-adv-x="587" 
d="M533 50c-4 -3 -69 -61 -172 -61c-210 0 -236 222 -239 271h-65v38h62c-1 24 -1 34 -1 41c0 9 0 10 1 30h-62v38h65c2 38 33 272 245 272c79 0 138 -43 143 -48l-23 -32c-7 5 -57 41 -118 41c-183 0 -199 -208 -201 -233h272v-38h-275c-1 -13 -1 -29 -1 -40
c0 -19 0 -9 1 -31h275v-38h-272c3 -26 19 -230 192 -230c85 0 140 46 149 52z" />
    <glyph glyph-name="dollaroldstyle" horiz-adv-x="510" 
d="M455 182c0 -97 -60 -175 -177 -185v-91h-38v89c-115 2 -176 60 -185 67l25 33c9 -6 73 -59 160 -60v299c-47 20 -93 39 -127 72c-25 24 -41 54 -41 104c0 85 65 151 168 160v68h38v-67c112 -4 158 -58 168 -68l-27 -27c-9 8 -53 55 -141 58v-268c47 -18 93 -38 126 -69
c30 -28 51 -65 51 -115zM240 380v252c-76 -10 -126 -60 -126 -124c0 -33 13 -54 31 -72c32 -32 69 -45 95 -56zM408 179c0 34 -16 63 -39 85c-25 23 -57 40 -91 55v-283c86 13 130 68 130 143z" />
    <glyph glyph-name="centoldstyle" horiz-adv-x="583" 
d="M487 45c-9 -8 -62 -40 -135 -44v-95h-38v95c-119 8 -203 92 -203 235c0 142 78 245 203 259v80h38v-78c79 -2 125 -39 129 -44l-21 -31c-8 5 -44 32 -108 35v-415c69 5 110 32 116 36zM314 42v413c-100 -13 -160 -96 -160 -210c0 -119 67 -194 160 -203z" />
    <glyph glyph-name="sterlingoldstyle" horiz-adv-x="529" 
d="M480 625l-24 -27c-7 6 -43 42 -124 42c-100 0 -161 -67 -161 -192c0 -54 6 -86 8 -108h190v-39h-186c0 -10 5 -43 5 -71c0 -107 -28 -163 -72 -192h357v-38h-424v36c51 20 94 45 94 166c0 46 -3 85 -4 99h-88v39h84c-5 39 -9 71 -9 108c0 143 78 230 202 230
c93 0 144 -42 152 -53z" />
    <glyph glyph-name="florinoldstyle" horiz-adv-x="558" 
d="M554 659l-15 -34c-9 5 -35 15 -67 15c-60 0 -95 -31 -116 -129l-37 -172h156l-8 -39h-157l-65 -315c-11 -53 -26 -140 -61 -175c-24 -24 -55 -35 -93 -35c-53 0 -82 17 -87 19l15 34c8 -3 35 -14 71 -14c24 0 47 5 61 19c31 31 42 102 55 165l64 302h-131l8 39h130
l34 158c6 30 17 101 58 142c34 34 75 40 101 40c48 0 80 -18 84 -20z" />
    <glyph glyph-name="yenoldstyle" horiz-adv-x="554" 
d="M505 667l-195 -329h132v-38h-146v-53h146v-38h-146v-209h-42v209h-144v38h144v53h-144v38h129l-190 329h51l174 -319l182 319h49z" />
    <glyph glyph-name="zerooldstyle" unicode="&#xf730;" horiz-adv-x="579" 
d="M524 257c0 -154 -95 -266 -238 -266c-130 0 -231 109 -231 258c0 158 98 272 239 272c132 0 230 -109 230 -264zM478 262c0 134 -82 222 -191 222c-114 0 -186 -88 -186 -224s81 -231 188 -231c111 0 189 86 189 233z" />
    <glyph glyph-name="oneoldstyle" unicode="&#xf731;" horiz-adv-x="280" 
d="M195 0h-41v462l-125 -81l-25 33l158 100h33v-514z" />
    <glyph glyph-name="twooldstyle" unicode="&#xf732;" horiz-adv-x="397" 
d="M352 0h-328v34c7 7 90 80 147 138c83 85 127 136 127 204c0 49 -35 107 -117 107c-77 0 -125 -45 -131 -51l-24 25c4 7 59 66 162 66c121 0 155 -89 155 -142c0 -66 -21 -109 -119 -209c-63 -65 -137 -129 -142 -134h270v-38z" />
    <glyph glyph-name="threeoldstyle" unicode="&#xf733;" horiz-adv-x="431" 
d="M367 59c0 -102 -88 -183 -191 -183c-117 0 -166 59 -172 67l24 27c4 -3 52 -53 134 -53c98 0 160 56 160 134c0 40 -18 74 -36 93c-37 38 -80 45 -164 45h-5v38h8c92 0 131 20 156 46c20 21 33 51 33 86c0 66 -47 125 -137 125c-77 0 -133 -51 -138 -56l-24 27
c2 5 67 69 163 69c114 0 180 -76 180 -165c0 -74 -45 -143 -122 -151c78 -5 131 -68 131 -149z" />
    <glyph glyph-name="fouroldstyle" unicode="&#xf734;" horiz-adv-x="465" 
d="M453 10h-80v-131h-41v131h-313v34l306 470h48v-467h80v-37zM332 47v410l-267 -410h267z" />
    <glyph glyph-name="fiveoldstyle" unicode="&#xf735;" horiz-adv-x="473" 
d="M423 77c0 -116 -81 -199 -200 -199c-109 0 -163 56 -166 60l22 30c8 -6 58 -51 137 -51c109 0 163 77 163 156c0 97 -66 164 -167 164c-58 0 -96 -24 -107 -31l-22 15v293h315v-37h-276v-225c6 4 40 24 100 24c132 0 201 -82 201 -199z" />
    <glyph glyph-name="sixoldstyle" unicode="&#xf736;" horiz-adv-x="507" 
d="M452 202c0 -118 -75 -211 -191 -211c-172 0 -206 175 -206 301c0 148 39 344 223 344c106 0 155 -59 158 -62l-26 -27c-12 10 -54 50 -125 50c-157 0 -189 -168 -189 -311c0 -8 1 -16 2 -26c13 79 76 141 176 141c117 0 178 -86 178 -199zM411 199c0 90 -42 165 -139 165
c-96 0 -158 -83 -158 -176c0 -87 60 -160 150 -160c96 0 147 83 147 171z" />
    <glyph glyph-name="sevenoldstyle" unicode="&#xf737;" horiz-adv-x="416" 
d="M392 478l-256 -599h-47l259 595h-349v40h393v-36z" />
    <glyph glyph-name="eightoldstyle" unicode="&#xf738;" horiz-adv-x="505" 
d="M450 165c0 -105 -79 -174 -197 -174c-112 0 -198 66 -198 173c0 142 122 158 130 158c-13 0 -116 26 -116 151c0 96 77 163 184 163c111 0 183 -64 183 -159c0 -128 -103 -153 -111 -155c10 -2 125 -20 125 -157zM394 474c0 79 -59 126 -140 126
c-83 0 -143 -48 -143 -126c0 -74 57 -134 143 -134c83 0 140 57 140 134zM406 166c0 88 -59 138 -153 138c-92 0 -154 -53 -154 -137c0 -90 66 -140 155 -140c91 0 152 50 152 139z" />
    <glyph glyph-name="nineoldstyle" unicode="&#xf739;" horiz-adv-x="507" 
d="M452 222c0 -148 -39 -344 -223 -344c-106 0 -155 59 -158 62l26 27c12 -10 54 -50 125 -50c157 0 189 168 189 311c0 8 -1 16 -2 26c-13 -79 -76 -141 -176 -141c-117 0 -178 86 -178 199c0 118 75 211 191 211c172 0 206 -175 206 -301zM393 326c0 87 -60 160 -150 160
c-96 0 -147 -83 -147 -171c0 -90 42 -165 139 -165c96 0 158 83 158 176z" />
    <glyph glyph-name="Euro.fitted" unicode="&#xe002;" horiz-adv-x="540" 
d="M514 50c-4 -3 -69 -61 -173 -61c-212 0 -239 222 -242 271h-65v38h62c-1 24 -1 34 -1 41c0 9 0 10 1 30h-62v38h65c2 38 34 272 248 272c80 0 139 -43 144 -48l-23 -32c-7 5 -58 41 -119 41c-185 0 -201 -208 -203 -233h274v-38h-277c-1 -13 -1 -29 -1 -40
c0 -19 0 -9 1 -31h277v-38h-274c3 -26 19 -230 194 -230c86 0 141 46 150 52z" />
    <glyph glyph-name="dollar.fitted" horiz-adv-x="514" 
d="M451 182c0 -97 -60 -175 -177 -185v-91h-38v89c-115 2 -176 60 -185 67l25 33c9 -6 73 -59 160 -60v299c-47 20 -93 39 -127 72c-25 24 -41 54 -41 104c0 85 65 151 168 160v68h38v-67c112 -4 158 -58 168 -68l-27 -27c-9 8 -53 55 -141 58v-268c47 -18 93 -38 126 -69
c30 -28 51 -65 51 -115zM236 380v252c-76 -10 -126 -60 -126 -124c0 -33 13 -54 31 -72c32 -32 69 -45 95 -56zM404 179c0 34 -16 63 -39 85c-25 23 -57 40 -91 55v-283c86 13 130 68 130 143z" />
    <glyph glyph-name="cent.fitted" horiz-adv-x="453" 
d="M421 45c-9 -8 -62 -40 -135 -44v-95h-38v95c-119 8 -203 92 -203 235c0 142 78 245 203 259v80h38v-78c79 -2 125 -39 129 -44l-21 -31c-8 5 -44 32 -108 35v-415c69 5 110 32 116 36zM248 42v413c-100 -13 -160 -96 -160 -210c0 -119 67 -194 160 -203z" />
    <glyph glyph-name="sterling.fitted" horiz-adv-x="499" 
d="M473 625l-24 -27c-8 6 -45 42 -127 42c-102 0 -165 -67 -165 -192c0 -54 6 -86 8 -108h195v-39h-191c0 -10 5 -43 5 -71c0 -107 -28 -163 -73 -192h365v-38h-432v36c52 20 96 45 96 166c0 46 -4 85 -5 99h-89v39h85c-6 39 -9 71 -9 108c0 143 80 230 206 230
c95 0 146 -42 155 -53z" />
    <glyph glyph-name="florin.fitted" horiz-adv-x="514" 
d="M512 659l-15 -34c-9 5 -35 15 -67 15c-60 0 -95 -31 -116 -129l-37 -172h156l-8 -39h-157l-65 -315c-11 -53 -26 -140 -61 -175c-24 -24 -55 -35 -93 -35c-53 0 -82 17 -87 19l15 34c8 -3 35 -14 71 -14c24 0 47 5 61 19c31 31 42 102 55 165l64 302h-131l8 39h130
l34 158c6 30 17 101 58 142c34 34 75 40 101 40c48 0 80 -18 84 -20z" />
    <glyph glyph-name="yen.fitted" horiz-adv-x="512" 
d="M484 667l-195 -329h132v-38h-146v-53h146v-38h-146v-209h-42v209h-144v38h144v53h-144v38h129l-190 329h51l174 -319l182 319h49z" />
    <glyph glyph-name="zero.fitted" unicode="&#xf639;" horiz-adv-x="588" 
d="M531 333c0 -216 -84 -344 -238 -344c-156 0 -236 128 -236 349c0 211 83 341 233 341c157 0 241 -129 241 -346zM484 333c0 193 -62 308 -190 308c-132 0 -190 -109 -190 -313c0 -189 64 -301 189 -301c128 0 191 112 191 306z" />
    <glyph glyph-name="one.fitted" unicode="&#xf6dc;" horiz-adv-x="339" 
d="M251 0h-42v616l-170 -115l-25 33l199 133h38v-667z" />
    <glyph glyph-name="two.fitted" unicode="&#xf63a;" horiz-adv-x="474" 
d="M417 0h-388v40s63 62 112 111c160 160 225 242 225 337c0 97 -55 150 -151 150c-87 0 -152 -56 -155 -59l-26 28c5 8 79 72 188 72c119 0 191 -70 191 -185c0 -119 -102 -223 -203 -324l-130 -130h337v-40z" />
    <glyph glyph-name="three.fitted" unicode="&#xf63b;" horiz-adv-x="487" 
d="M430 181c0 -122 -97 -192 -212 -192c-123 0 -175 54 -189 68l26 29c2 -1 54 -56 153 -56c104 0 177 53 177 146c0 45 -19 78 -41 100c-35 35 -78 47 -176 47h-15v40h18c68 0 125 4 171 50c23 23 35 55 35 91c0 79 -58 134 -153 134c-93 0 -149 -56 -156 -62l-27 28
c4 7 74 75 184 75c124 0 196 -72 196 -175c0 -77 -48 -151 -138 -162c91 -7 147 -75 147 -161z" />
    <glyph glyph-name="four.fitted" unicode="&#xf63c;" horiz-adv-x="538" 
d="M494 171h-94v-171h-42v171h-321v38l319 458h44v-458h94v-38zM358 209v390l-274 -390h274z" />
    <glyph glyph-name="five.fitted" unicode="&#xf63d;" horiz-adv-x="499" 
d="M442 206c0 -134 -94 -217 -218 -217c-119 0 -176 58 -180 63l23 31c3 -3 64 -53 150 -53c111 0 180 66 180 173c0 91 -57 173 -176 173c-71 0 -115 -29 -124 -35l-27 17v309h345v-39h-302v-238c4 3 45 29 113 29c141 0 216 -90 216 -213z" />
    <glyph glyph-name="six.fitted" unicode="&#xf63e;" horiz-adv-x="529" 
d="M491 215c0 -126 -83 -226 -209 -226c-187 0 -225 187 -225 322c0 160 40 368 244 368c110 0 166 -57 171 -65l-26 -29c-11 9 -60 55 -138 55c-175 0 -211 -183 -209 -337c0 -26 1 -17 1 -29c15 98 100 152 195 152c128 0 196 -91 196 -211zM448 212
c0 97 -49 178 -155 178c-105 0 -172 -89 -172 -190c0 -94 65 -175 164 -175c106 0 163 92 163 187z" />
    <glyph glyph-name="seven.fitted" unicode="&#xf63f;" horiz-adv-x="490" 
d="M456 632l-279 -632h-52l285 626h-381v41h427v-35z" />
    <glyph glyph-name="eight.fitted" unicode="&#xf640;" horiz-adv-x="554" 
d="M497 172c0 -110 -86 -183 -215 -183c-138 0 -225 69 -225 180c0 98 63 178 159 176c-89 15 -141 78 -141 160c0 103 83 174 200 174c121 0 203 -67 203 -169c0 -81 -47 -148 -135 -165c100 -8 154 -74 154 -173zM432 505c0 88 -67 140 -154 140c-91 0 -157 -52 -157 -139
c0 -86 70 -144 157 -144c88 0 154 57 154 143zM450 175c0 97 -71 153 -173 153c-100 0 -173 -59 -173 -152c0 -99 69 -153 179 -153c100 0 167 54 167 152z" />
    <glyph glyph-name="nine.fitted" unicode="&#xf641;" horiz-adv-x="529" 
d="M472 357c0 -160 -40 -368 -244 -368c-110 0 -166 57 -171 65l26 29c11 -9 60 -55 138 -55c175 0 211 183 209 337c0 26 -1 17 -1 29c-15 -98 -100 -152 -195 -152c-128 0 -196 91 -196 211c0 126 83 226 209 226c187 0 225 -187 225 -322zM408 468c0 94 -65 175 -164 175
c-106 0 -163 -92 -163 -187c0 -97 49 -178 155 -178c105 0 172 89 172 190z" />
    <glyph glyph-name="Euro.taboldstyle" unicode="&#xf64e;" 
d="M530 50c-4 -3 -69 -61 -172 -61c-210 0 -236 222 -239 271h-65v38h62c-1 24 -1 34 -1 41c0 9 0 10 1 30h-62v38h65c2 38 33 272 245 272c79 0 138 -43 143 -48l-23 -32c-7 5 -57 41 -118 41c-183 0 -199 -208 -201 -233h272v-38h-275c-1 -13 -1 -29 -1 -40
c0 -19 0 -9 1 -31h275v-38h-272c3 -26 19 -230 192 -230c85 0 140 46 149 52z" />
    <glyph glyph-name="dollar.taboldstyle" unicode="&#xf653;" 
d="M490 182c0 -97 -60 -175 -177 -185v-91h-38v89c-115 2 -176 60 -185 67l25 33c9 -6 73 -59 160 -60v299c-47 20 -93 39 -127 72c-25 24 -41 54 -41 104c0 85 65 151 168 160v68h38v-67c112 -4 158 -58 168 -68l-27 -27c-9 8 -53 55 -141 58v-268c47 -18 93 -38 126 -69
c30 -28 51 -65 51 -115zM275 380v252c-76 -10 -126 -60 -126 -124c0 -33 13 -54 31 -72c32 -32 69 -45 95 -56zM443 179c0 34 -16 63 -39 85c-25 23 -57 40 -91 55v-283c86 13 130 68 130 143z" />
    <glyph glyph-name="cent.taboldstyle" unicode="&#xf654;" 
d="M485 45c-9 -8 -62 -40 -135 -44v-95h-38v95c-119 8 -203 92 -203 235c0 142 78 245 203 259v80h38v-78c79 -2 125 -39 129 -44l-21 -31c-8 5 -44 32 -108 35v-415c69 5 110 32 116 36zM312 42v413c-100 -13 -160 -96 -160 -210c0 -119 67 -194 160 -203z" />
    <glyph glyph-name="sterling.taboldstyle" unicode="&#xf651;" 
d="M506 625l-24 -27c-7 6 -43 42 -124 42c-100 0 -161 -67 -161 -192c0 -54 6 -86 8 -108h190v-39h-186c0 -10 5 -43 5 -71c0 -107 -28 -163 -72 -192h357v-38h-424v36c51 20 94 45 94 166c0 46 -3 85 -4 99h-88v39h84c-5 39 -9 71 -9 108c0 143 78 230 202 230
c93 0 144 -42 152 -53z" />
    <glyph glyph-name="florin.taboldstyle" unicode="&#xf64f;" 
d="M565 659l-15 -34c-9 5 -35 15 -67 15c-60 0 -95 -31 -116 -129l-37 -172h156l-8 -39h-157l-65 -315c-11 -53 -26 -140 -61 -175c-24 -24 -55 -35 -93 -35c-53 0 -82 17 -87 19l15 34c8 -3 35 -14 71 -14c24 0 47 5 61 19c31 31 42 102 55 165l64 302h-131l8 39h130
l34 158c6 30 17 101 58 142c34 34 75 40 101 40c48 0 80 -18 84 -20z" />
    <glyph glyph-name="yen.taboldstyle" unicode="&#xf652;" 
d="M518 667l-195 -329h132v-38h-146v-53h146v-38h-146v-209h-42v209h-144v38h144v53h-144v38h129l-190 329h51l174 -319l182 319h49z" />
    <glyph glyph-name="zero.taboldstyle" unicode="&#xf643;" 
d="M525 257c0 -154 -95 -266 -238 -266c-130 0 -231 109 -231 258c0 158 98 272 239 272c132 0 230 -109 230 -264zM479 262c0 134 -82 222 -191 222c-114 0 -186 -88 -186 -224s81 -231 188 -231c111 0 189 86 189 233z" />
    <glyph glyph-name="one.taboldstyle" unicode="&#xf644;" 
d="M316 0h-41v462l-125 -81l-25 33l158 100h33v-514z" />
    <glyph glyph-name="two.taboldstyle" unicode="&#xf645;" 
d="M450 0h-328v34c7 7 90 80 147 138c83 85 127 136 127 204c0 49 -35 107 -117 107c-77 0 -125 -45 -131 -51l-24 25c4 7 59 66 162 66c121 0 155 -89 155 -142c0 -66 -21 -109 -119 -209c-63 -65 -137 -129 -142 -134h270v-38z" />
    <glyph glyph-name="three.taboldstyle" unicode="&#xf646;" 
d="M441 59c0 -102 -88 -183 -191 -183c-117 0 -166 59 -172 67l24 27c4 -3 52 -53 134 -53c98 0 160 56 160 134c0 40 -18 74 -36 93c-37 38 -80 45 -164 45h-5v38h8c92 0 131 20 156 46c20 21 33 51 33 86c0 66 -47 125 -137 125c-77 0 -133 -51 -138 -56l-24 27
c2 5 67 69 163 69c114 0 180 -76 180 -165c0 -74 -45 -143 -122 -151c78 -5 131 -68 131 -149z" />
    <glyph glyph-name="four.taboldstyle" unicode="&#xf647;" 
d="M506 10h-80v-131h-41v131h-313v34l306 470h48v-467h80v-37zM385 47v410l-267 -410h267z" />
    <glyph glyph-name="five.taboldstyle" unicode="&#xf648;" 
d="M472 77c0 -116 -81 -199 -200 -199c-109 0 -163 56 -166 60l22 30c8 -6 58 -51 137 -51c109 0 163 77 163 156c0 97 -66 164 -167 164c-58 0 -96 -24 -107 -31l-22 15v293h315v-37h-276v-225c6 4 40 24 100 24c132 0 201 -82 201 -199z" />
    <glyph glyph-name="six.taboldstyle" unicode="&#xf649;" 
d="M489 202c0 -118 -75 -211 -191 -211c-172 0 -206 175 -206 301c0 148 39 344 223 344c106 0 155 -59 158 -62l-26 -27c-12 10 -54 50 -125 50c-157 0 -189 -168 -189 -311c0 -8 1 -16 2 -26c13 79 76 141 176 141c117 0 178 -86 178 -199zM448 199c0 90 -42 165 -139 165
c-96 0 -158 -83 -158 -176c0 -87 60 -160 150 -160c96 0 147 83 147 171z" />
    <glyph glyph-name="seven.taboldstyle" unicode="&#xf64a;" 
d="M473 478l-256 -599h-47l259 595h-349v40h393v-36z" />
    <glyph glyph-name="eight.taboldstyle" unicode="&#xf64b;" 
d="M487 165c0 -105 -79 -174 -197 -174c-112 0 -198 66 -198 173c0 142 122 158 130 158c-13 0 -116 26 -116 151c0 96 77 163 184 163c111 0 183 -64 183 -159c0 -128 -103 -153 -111 -155c10 -2 125 -20 125 -157zM431 474c0 79 -59 126 -140 126
c-83 0 -143 -48 -143 -126c0 -74 57 -134 143 -134c83 0 140 57 140 134zM443 166c0 88 -59 138 -153 138c-92 0 -154 -53 -154 -137c0 -90 66 -140 155 -140c91 0 152 50 152 139z" />
    <glyph glyph-name="nine.taboldstyle" unicode="&#xf64c;" 
d="M488 222c0 -148 -39 -344 -223 -344c-106 0 -155 59 -158 62l26 27c12 -10 54 -50 125 -50c157 0 189 168 189 311c0 8 -1 16 -2 26c-13 -79 -76 -141 -176 -141c-117 0 -178 86 -178 199c0 118 75 211 191 211c172 0 206 -175 206 -301zM429 326c0 87 -60 160 -150 160
c-96 0 -147 -83 -147 -171c0 -90 42 -165 139 -165c96 0 158 83 158 176z" />
    <glyph glyph-name="ampersandsmall" unicode="&#xf726;" horiz-adv-x="561" 
d="M511 0h-8c-70 0 -98 30 -125 57c-8 -8 -66 -64 -162 -64c-91 0 -159 64 -159 148c0 41 18 81 43 105c22 22 65 41 72 44c-21 21 -61 66 -61 119c0 65 56 113 133 113c74 0 122 -42 122 -103c0 -94 -106 -128 -131 -138l143 -160c19 24 52 87 52 160h42
c0 -73 -22 -144 -65 -194c49 -49 70 -50 104 -50v-37zM324 413c0 35 -19 73 -81 73c-49 0 -89 -32 -89 -76c0 -32 21 -60 58 -101c21 9 112 39 112 104zM350 89l-154 174c-11 -5 -96 -36 -96 -120c0 -63 52 -110 122 -110s116 44 128 56z" />
    <glyph glyph-name="Acute" unicode="&#xf6c9;" horiz-adv-x="370" 
d="M297 791l-209 -77l-15 31l203 94z" />
    <glyph glyph-name="Grave" unicode="&#xf6ce;" horiz-adv-x="370" 
d="M282 714l-209 77l21 48l203 -94z" />
    <glyph glyph-name="Circumflex" unicode="&#xeff7;" horiz-adv-x="370" 
d="M332 745l-19 -30l-127 67l-127 -67l-21 30l148 90z" />
    <glyph glyph-name="Caron" unicode="&#xf6ca;" horiz-adv-x="370" 
d="M38 805l19 30l127 -67l127 67l21 -30l-148 -90z" />
    <glyph glyph-name="Tilde" unicode="&#xeff5;" horiz-adv-x="370" 
d="M332 759c-11 -11 -38 -40 -93 -40c-36 0 -73 22 -112 22c-34 0 -48 -11 -64 -22l-25 29c24 20 46 39 89 39c37 0 76 -24 113 -24c44 0 60 19 68 25z" />
    <glyph glyph-name="Macron" unicode="&#xf6d0;" horiz-adv-x="370" 
d="M341 733h-312v38h312v-38z" />
    <glyph glyph-name="Dieresis" unicode="&#xf6cb;" horiz-adv-x="370" 
d="M290 767c0 -20 -15 -36 -35 -36s-36 16 -36 36s16 35 36 35s35 -15 35 -35zM150 767c0 -20 -15 -36 -35 -36s-36 16 -36 36s16 35 36 35s35 -15 35 -35z" />
    <glyph glyph-name="Breve" unicode="&#xefee;" horiz-adv-x="370" 
d="M273 835h40c-11 -75 -55 -114 -129 -114s-118 39 -128 114h40c8 -44 38 -67 88 -67s79 22 89 67z" />
    <glyph glyph-name="Ring" unicode="&#xfff3;" horiz-adv-x="370" 
d="M185 908c52 0 95 -43 95 -94c0 -53 -43 -96 -95 -96s-95 43 -95 95c0 53 42 95 95 95zM185 873c-32 0 -59 -28 -59 -60s27 -59 59 -59c33 0 60 26 60 59s-27 60 -60 60z" />
    <glyph glyph-name="Hungarumlaut" unicode="&#xf6cf;" horiz-adv-x="370" 
d="M298 897l-66 -167l-38 12l51 172zM176 897l-64 -167l-39 12l51 172z" />
    <glyph glyph-name="Dotaccent" unicode="&#xefed;" horiz-adv-x="370" 
d="M220 767c0 -20 -15 -36 -35 -36s-36 16 -36 36s16 35 36 35s35 -15 35 -35z" />
    <glyph glyph-name="Cedilla" unicode="&#xeff2;" horiz-adv-x="370" 
d="M262 -140c0 -54 -47 -85 -90 -85c-28 0 -48 6 -67 16l12 28c7 -3 24 -12 47 -12c47 0 58 31 58 51c0 29 -20 49 -50 49c-15 0 -30 -4 -42 -13l-21 12l20 94h32l-13 -69c13 8 24 9 35 9c48 0 79 -32 79 -80z" />
    <glyph glyph-name="Ogonek" unicode="&#xeff1;" horiz-adv-x="370" 
d="M282 -164c-2 -2 -40 -28 -96 -28c-61 0 -99 40 -99 104c0 49 24 75 64 99l38 -11c-28 -18 -60 -43 -60 -88c0 -41 26 -65 66 -65c35 0 68 17 72 19z" />
    <glyph glyph-name="afii61352" unicode="&#x2116;" horiz-adv-x="969" 
d="M532 0h-60l-344 608l1 -608h-41v667h55l349 -617l-1 617h41v-667zM923 487c0 -111 -60 -181 -157 -181c-95 0 -155 71 -155 186c0 113 58 185 158 185c95 0 154 -70 154 -190zM887 490c0 94 -52 156 -120 156c-74 0 -120 -60 -120 -153c0 -94 52 -155 120 -155
c76 0 120 59 120 152z" />
    <glyph glyph-name="franc" unicode="&#x20a3;" horiz-adv-x="676" 
d="M416 628h-285v-221h256v-37h-256v-370h-43v667h328v-39zM656 413l-10 -36c-8 1 -19 3 -41 3c-102 0 -143 -90 -148 -97v-283h-41v407h41v-73c7 10 52 86 150 86c36 0 46 -6 49 -7z" />
    <glyph glyph-name="lira" unicode="&#x20a4;" 
d="M411 260h-187c1 -10 1 -24 1 -30c0 -107 -28 -163 -73 -192h365v-38h-432v36c52 20 96 45 96 166c0 15 -1 48 -2 58h-92v38h89c-1 14 -7 64 -8 71h-81v38h78c-1 10 -2 29 -2 41c0 143 80 230 206 230c95 0 146 -42 155 -53l-24 -27c-8 6 -45 42 -127 42
c-102 0 -165 -67 -165 -192c0 -14 1 -29 2 -41h201v-38h-198c0 -6 5 -48 7 -71h191v-38z" />
    <glyph glyph-name="peseta" unicode="&#x20a7;" horiz-adv-x="1205" 
d="M473 478c0 -80 -33 -120 -57 -144c-20 -20 -63 -50 -164 -50h-121v-284h-43v667h142c75 0 142 -3 189 -50c36 -36 54 -87 54 -139zM429 481c0 50 -19 87 -44 112c-37 37 -86 37 -165 37h-89v-309h116c86 0 118 21 136 39c24 24 46 59 46 121zM795 10
c-9 -4 -35 -20 -87 -20c-44 0 -71 11 -91 31c-29 29 -25 81 -25 128v293h-83v35h83v136h41v-136h157v-35h-157v-291c0 -71 -4 -123 79 -123c37 0 62 12 70 15zM1153 127c0 -88 -66 -138 -168 -138c-91 0 -149 40 -152 44l19 33c15 -10 66 -40 129 -40c80 0 129 36 129 97
c0 22 -7 42 -27 62c-45 45 -149 50 -201 102c-16 16 -31 40 -31 81c0 75 68 120 151 120c82 0 131 -35 135 -38l-19 -32c-9 6 -55 34 -112 34c-60 0 -113 -30 -113 -83c0 -28 9 -41 22 -54c45 -45 149 -50 203 -104c23 -23 35 -48 35 -84z" />
    <glyph glyph-name="commaaccent" horiz-adv-x="370" 
d="M181 -67h54c1 -59 -27 -128 -71 -176l-31 21c31 41 48 97 48 155z" />
    <glyph glyph-name="Commaaccent" horiz-adv-x="370" 
d="M181 -67h54c1 -59 -27 -128 -71 -176l-31 21c31 41 48 97 48 155z" />
    <glyph glyph-name="zerosuperior" unicode="&#x2070;" horiz-adv-x="371" 
d="M326 502c0 -110 -51 -176 -142 -176c-86 0 -139 62 -139 162c0 116 51 183 144 183c85 0 137 -66 137 -169zM282 503c0 81 -32 134 -93 134c-66 0 -100 -55 -100 -146c0 -80 32 -131 95 -131c60 0 98 47 98 143z" />
    <glyph glyph-name="onesuperior" unicode="&#xb9;" horiz-adv-x="371" 
d="M225 330h-38v292l-88 -54l-21 29l114 70h33v-337z" />
    <glyph glyph-name="twosuperior" unicode="&#xb2;" horiz-adv-x="371" 
d="M279 330h-197v31c77 78 158 147 158 210c0 39 -23 64 -63 64c-36 0 -67 -27 -73 -32l-22 22c9 11 44 46 99 46c59 0 101 -39 101 -98c0 -62 -53 -115 -98 -160l-51 -49h146v-34z" />
    <glyph glyph-name="threesuperior" unicode="&#xb3;" horiz-adv-x="371" 
d="M285 426c0 -65 -52 -100 -108 -100c-61 0 -88 29 -99 43l24 24c5 -5 31 -33 70 -33c44 0 71 21 71 61c0 63 -57 63 -94 63h-12v36h18c31 0 84 1 84 58c0 33 -23 59 -61 59c-40 0 -64 -29 -68 -33l-25 23c3 7 36 44 95 44c60 0 101 -37 101 -92c0 -40 -25 -66 -62 -75
c35 -7 66 -28 66 -78z" />
    <glyph glyph-name="foursuperior" unicode="&#x2074;" horiz-adv-x="371" 
d="M307 413h-48v-83h-36v83h-168v28l171 226h33v-223h48v-31zM223 444v170l-128 -170h128z" />
    <glyph glyph-name="fivesuperior" unicode="&#x2075;" horiz-adv-x="371" 
d="M292 437c0 -67 -51 -111 -118 -111c-57 0 -91 29 -96 34l20 27c11 -8 39 -27 73 -27c50 0 79 28 79 75c0 40 -26 76 -78 76c-29 0 -51 -13 -59 -19l-20 9v166h182v-35h-144v-100c7 5 24 13 49 13c70 0 112 -45 112 -108z" />
    <glyph glyph-name="sixsuperior" unicode="&#x2076;" horiz-adv-x="371" 
d="M301 441c0 -66 -45 -115 -112 -115c-85 0 -119 78 -119 161c0 86 30 184 129 184c51 0 84 -27 91 -34l-19 -25c-10 8 -37 26 -68 26c-67 0 -87 -67 -90 -135c15 27 46 46 84 46c65 0 104 -46 104 -108zM263 439c0 44 -23 78 -69 78c-50 0 -74 -40 -74 -83
c0 -42 28 -75 70 -75c47 0 73 38 73 80z" />
    <glyph glyph-name="sevensuperior" unicode="&#x2077;" horiz-adv-x="371" 
d="M296 638l-134 -308h-42l136 302h-181v35h221v-29z" />
    <glyph glyph-name="eightsuperior" unicode="&#x2078;" horiz-adv-x="371" 
d="M302 422c0 -56 -48 -96 -116 -96c-70 0 -118 39 -118 95c0 45 27 73 58 83c-31 12 -48 39 -48 75c0 56 48 92 109 92c62 0 106 -37 106 -91c0 -31 -19 -65 -51 -76c32 -9 60 -34 60 -82zM254 579c0 36 -27 61 -67 61c-42 0 -70 -25 -70 -61c0 -43 36 -62 70 -62
c32 0 67 17 67 62zM262 422c0 41 -31 65 -76 65c-46 0 -78 -24 -78 -65c0 -40 30 -64 79 -64c45 0 75 24 75 64z" />
    <glyph glyph-name="ninesuperior" unicode="&#x2079;" horiz-adv-x="371" 
d="M301 511c0 -86 -30 -185 -130 -185c-52 0 -86 28 -92 36l20 25c10 -10 38 -27 69 -27c66 0 87 64 92 135c-17 -29 -54 -45 -85 -45c-66 0 -105 47 -105 108c0 63 46 113 111 113c91 0 120 -85 120 -160zM252 562c0 43 -30 77 -72 77c-47 0 -72 -37 -72 -80
c0 -44 22 -78 68 -78s76 33 76 81z" />
    <glyph glyph-name="parenleftsuperior" unicode="&#x207d;" horiz-adv-x="183" 
d="M45 492c0 83 24 161 99 215l19 -22c-57 -50 -74 -117 -74 -191c0 -75 21 -146 77 -196l-20 -23c-72 48 -101 133 -101 217z" />
    <glyph glyph-name="parenrightsuperior" unicode="&#x207e;" horiz-adv-x="183" 
d="M138 490c0 -83 -24 -161 -99 -215l-19 22c57 50 74 117 74 191c0 75 -21 146 -77 196l20 23c72 -48 101 -133 101 -217z" />
    <glyph glyph-name="zeroinferior" unicode="&#x2080;" horiz-adv-x="371" 
d="M326 172c0 -110 -51 -176 -142 -176c-86 0 -139 62 -139 162c0 116 51 183 144 183c85 0 137 -66 137 -169zM282 173c0 81 -32 134 -93 134c-66 0 -100 -55 -100 -146c0 -80 32 -131 95 -131c60 0 98 47 98 143z" />
    <glyph glyph-name="oneinferior" unicode="&#x2081;" horiz-adv-x="371" 
d="M225 0h-38v292l-88 -54l-21 29l114 70h33v-337z" />
    <glyph glyph-name="twoinferior" unicode="&#x2082;" horiz-adv-x="371" 
d="M279 0h-197v31c77 78 158 147 158 210c0 39 -23 64 -63 64c-36 0 -67 -27 -73 -32l-22 22c9 11 44 46 99 46c59 0 101 -39 101 -98c0 -62 -53 -115 -98 -160l-51 -49h146v-34z" />
    <glyph glyph-name="threeinferior" unicode="&#x2083;" horiz-adv-x="371" 
d="M285 96c0 -65 -52 -100 -108 -100c-61 0 -88 29 -99 43l24 24c5 -5 31 -33 70 -33c44 0 71 21 71 61c0 63 -57 63 -94 63h-12v36h18c31 0 84 1 84 58c0 33 -23 59 -61 59c-40 0 -64 -29 -68 -33l-25 23c3 7 36 44 95 44c60 0 101 -37 101 -92c0 -40 -25 -66 -62 -75
c35 -7 66 -28 66 -78z" />
    <glyph glyph-name="fourinferior" unicode="&#x2084;" horiz-adv-x="371" 
d="M307 83h-48v-83h-36v83h-168v28l171 226h33v-223h48v-31zM223 114v170l-128 -170h128z" />
    <glyph glyph-name="fiveinferior" unicode="&#x2085;" horiz-adv-x="371" 
d="M292 107c0 -67 -51 -111 -118 -111c-57 0 -91 29 -96 34l20 27c11 -8 39 -27 73 -27c50 0 79 28 79 75c0 40 -26 76 -78 76c-29 0 -51 -13 -59 -19l-20 9v166h182v-35h-144v-100c7 5 24 13 49 13c70 0 112 -45 112 -108z" />
    <glyph glyph-name="sixinferior" unicode="&#x2086;" horiz-adv-x="371" 
d="M301 111c0 -66 -45 -115 -112 -115c-85 0 -119 78 -119 161c0 86 30 184 129 184c51 0 84 -27 91 -34l-19 -25c-10 8 -37 26 -68 26c-67 0 -87 -67 -90 -135c15 27 46 46 84 46c65 0 104 -46 104 -108zM263 109c0 44 -23 78 -69 78c-50 0 -74 -40 -74 -83
c0 -42 28 -75 70 -75c47 0 73 38 73 80z" />
    <glyph glyph-name="seveninferior" unicode="&#x2087;" horiz-adv-x="371" 
d="M296 305l-134 -305h-42l136 299h-181v35h221v-29z" />
    <glyph glyph-name="eightinferior" unicode="&#x2088;" horiz-adv-x="371" 
d="M302 92c0 -56 -48 -96 -116 -96c-70 0 -118 39 -118 95c0 45 27 73 58 83c-31 12 -48 39 -48 75c0 56 48 92 109 92c62 0 106 -37 106 -91c0 -31 -19 -65 -51 -76c32 -9 60 -34 60 -82zM254 249c0 36 -27 61 -67 61c-42 0 -70 -25 -70 -61c0 -43 36 -62 70 -62
c32 0 67 17 67 62zM262 92c0 41 -31 65 -76 65c-46 0 -78 -24 -78 -65c0 -40 30 -64 79 -64c45 0 75 24 75 64z" />
    <glyph glyph-name="nineinferior" unicode="&#x2089;" horiz-adv-x="371" 
d="M301 181c0 -86 -30 -185 -130 -185c-52 0 -86 28 -92 36l20 25c10 -10 38 -27 69 -27c66 0 87 64 92 135c-17 -29 -54 -45 -85 -45c-66 0 -105 47 -105 108c0 63 46 113 111 113c91 0 120 -85 120 -160zM252 232c0 43 -30 77 -72 77c-47 0 -72 -37 -72 -80
c0 -44 22 -78 68 -78s76 33 76 81z" />
    <glyph glyph-name="parenleftinferior" unicode="&#x208d;" horiz-adv-x="183" 
d="M45 168c0 83 24 161 99 215l19 -22c-57 -50 -74 -117 -74 -191c0 -75 21 -146 77 -196l-20 -23c-72 48 -101 133 -101 217z" />
    <glyph glyph-name="parenrightinferior" unicode="&#x208e;" horiz-adv-x="183" 
d="M138 166c0 -83 -24 -161 -99 -215l-19 22c57 50 74 117 74 191c0 75 -21 146 -77 196l20 23c72 -48 101 -133 101 -217z" />
    <glyph glyph-name="onethird" unicode="&#x2153;" horiz-adv-x="721" 
d="M611 674l-480 -707l-33 21l480 710zM225 330h-38v292l-88 -54l-21 29l114 70h33v-337zM635 96c0 -65 -52 -100 -108 -100c-61 0 -88 29 -99 43l24 24c5 -5 31 -33 70 -33c44 0 71 21 71 61c0 63 -57 63 -94 63h-12v36h18c31 0 84 1 84 58c0 33 -23 59 -61 59
c-40 0 -64 -29 -68 -33l-25 23c3 7 36 44 95 44c60 0 101 -37 101 -92c0 -40 -25 -66 -62 -75c35 -7 66 -28 66 -78z" />
    <glyph glyph-name="twothirds" unicode="&#x2154;" horiz-adv-x="721" 
d="M611 674l-480 -707l-33 21l480 710zM279 330h-197v31c77 78 158 147 158 210c0 39 -23 64 -63 64c-36 0 -67 -27 -73 -32l-22 22c9 11 44 46 99 46c59 0 101 -39 101 -98c0 -62 -53 -115 -98 -160l-51 -49h146v-34zM635 96c0 -65 -52 -100 -108 -100c-61 0 -88 29 -99 43
l24 24c5 -5 31 -33 70 -33c44 0 71 21 71 61c0 63 -57 63 -94 63h-12v36h18c31 0 84 1 84 58c0 33 -23 59 -61 59c-40 0 -64 -29 -68 -33l-25 23c3 7 36 44 95 44c60 0 101 -37 101 -92c0 -40 -25 -66 -62 -75c35 -7 66 -28 66 -78z" />
    <glyph glyph-name="oneeighth" unicode="&#x215b;" horiz-adv-x="721" 
d="M611 674l-480 -707l-33 21l480 710zM225 330h-38v292l-88 -54l-21 29l114 70h33v-337zM649 92c0 -56 -48 -96 -116 -96c-70 0 -118 39 -118 95c0 45 27 73 58 83c-31 12 -48 39 -48 75c0 56 48 92 109 92c62 0 106 -37 106 -91c0 -31 -19 -65 -51 -76
c32 -9 60 -34 60 -82zM601 249c0 36 -27 61 -67 61c-42 0 -70 -25 -70 -61c0 -43 36 -62 70 -62c32 0 67 17 67 62zM609 92c0 41 -31 65 -76 65c-46 0 -78 -24 -78 -65c0 -40 30 -64 79 -64c45 0 75 24 75 64z" />
    <glyph glyph-name="threeeighths" unicode="&#x215c;" horiz-adv-x="721" 
d="M611 674l-480 -707l-33 21l480 710zM285 426c0 -65 -52 -100 -108 -100c-61 0 -88 29 -99 43l24 24c5 -5 31 -33 70 -33c44 0 71 21 71 61c0 63 -57 63 -94 63h-12v36h18c31 0 84 1 84 58c0 33 -23 59 -61 59c-40 0 -64 -29 -68 -33l-25 23c3 7 36 44 95 44
c60 0 101 -37 101 -92c0 -40 -25 -66 -62 -75c35 -7 66 -28 66 -78zM649 92c0 -56 -48 -96 -116 -96c-70 0 -118 39 -118 95c0 45 27 73 58 83c-31 12 -48 39 -48 75c0 56 48 92 109 92c62 0 106 -37 106 -91c0 -31 -19 -65 -51 -76c32 -9 60 -34 60 -82zM601 249
c0 36 -27 61 -67 61c-42 0 -70 -25 -70 -61c0 -43 36 -62 70 -62c32 0 67 17 67 62zM609 92c0 41 -31 65 -76 65c-46 0 -78 -24 -78 -65c0 -40 30 -64 79 -64c45 0 75 24 75 64z" />
    <glyph glyph-name="fiveeighths" unicode="&#x215d;" horiz-adv-x="721" 
d="M611 674l-480 -707l-33 21l480 710zM649 92c0 -56 -48 -96 -116 -96c-70 0 -118 39 -118 95c0 45 27 73 58 83c-31 12 -48 39 -48 75c0 56 48 92 109 92c62 0 106 -37 106 -91c0 -31 -19 -65 -51 -76c32 -9 60 -34 60 -82zM601 249c0 36 -27 61 -67 61
c-42 0 -70 -25 -70 -61c0 -43 36 -62 70 -62c32 0 67 17 67 62zM609 92c0 41 -31 65 -76 65c-46 0 -78 -24 -78 -65c0 -40 30 -64 79 -64c45 0 75 24 75 64zM292 437c0 -67 -51 -111 -118 -111c-57 0 -91 29 -96 34l20 27c11 -8 39 -27 73 -27c50 0 79 28 79 75
c0 40 -26 76 -78 76c-29 0 -51 -13 -59 -19l-20 9v166h182v-35h-144v-100c7 5 24 13 49 13c70 0 112 -45 112 -108z" />
    <glyph glyph-name="seveneighths" unicode="&#x215e;" horiz-adv-x="721" 
d="M296 638l-134 -308h-42l136 302h-181v35h221v-29zM611 674l-480 -707l-33 21l480 710zM649 92c0 -56 -48 -96 -116 -96c-70 0 -118 39 -118 95c0 45 27 73 58 83c-31 12 -48 39 -48 75c0 56 48 92 109 92c62 0 106 -37 106 -91c0 -31 -19 -65 -51 -76
c32 -9 60 -34 60 -82zM601 249c0 36 -27 61 -67 61c-42 0 -70 -25 -70 -61c0 -43 36 -62 70 -62c32 0 67 17 67 62zM609 92c0 41 -31 65 -76 65c-46 0 -78 -24 -78 -65c0 -40 30 -64 79 -64c45 0 75 24 75 64z" />
    <glyph glyph-name="zero.dnom" unicode="&#xf655;" horiz-adv-x="371" 
d="M326 172c0 -110 -51 -176 -142 -176c-86 0 -139 62 -139 162c0 116 51 183 144 183c85 0 137 -66 137 -169zM282 173c0 81 -32 134 -93 134c-66 0 -100 -55 -100 -146c0 -80 32 -131 95 -131c60 0 98 47 98 143z" />
    <glyph glyph-name="one.dnom" unicode="&#xf656;" horiz-adv-x="371" 
d="M225 0h-38v292l-88 -54l-21 29l114 70h33v-337z" />
    <glyph glyph-name="two.dnom" unicode="&#xf657;" horiz-adv-x="371" 
d="M279 0h-197v31c77 78 158 147 158 210c0 39 -23 64 -63 64c-36 0 -67 -27 -73 -32l-22 22c9 11 44 46 99 46c59 0 101 -39 101 -98c0 -62 -53 -115 -98 -160l-51 -49h146v-34z" />
    <glyph glyph-name="three.dnom" unicode="&#xf658;" horiz-adv-x="371" 
d="M285 96c0 -65 -52 -100 -108 -100c-61 0 -88 29 -99 43l24 24c5 -5 31 -33 70 -33c44 0 71 21 71 61c0 63 -57 63 -94 63h-12v36h18c31 0 84 1 84 58c0 33 -23 59 -61 59c-40 0 -64 -29 -68 -33l-25 23c3 7 36 44 95 44c60 0 101 -37 101 -92c0 -40 -25 -66 -62 -75
c35 -7 66 -28 66 -78z" />
    <glyph glyph-name="four.dnom" unicode="&#xf659;" horiz-adv-x="371" 
d="M307 83h-48v-83h-36v83h-168v28l171 226h33v-223h48v-31zM223 114v170l-128 -170h128z" />
    <glyph glyph-name="five.dnom" unicode="&#xf65a;" horiz-adv-x="371" 
d="M292 107c0 -67 -51 -111 -118 -111c-57 0 -91 29 -96 34l20 27c11 -8 39 -27 73 -27c50 0 79 28 79 75c0 40 -26 76 -78 76c-29 0 -51 -13 -59 -19l-20 9v166h182v-35h-144v-100c7 5 24 13 49 13c70 0 112 -45 112 -108z" />
    <glyph glyph-name="six.dnom" unicode="&#xf65b;" horiz-adv-x="371" 
d="M301 111c0 -66 -45 -115 -112 -115c-85 0 -119 78 -119 161c0 86 30 184 129 184c51 0 84 -27 91 -34l-19 -25c-10 8 -37 26 -68 26c-67 0 -87 -67 -90 -135c15 27 46 46 84 46c65 0 104 -46 104 -108zM263 109c0 44 -23 78 -69 78c-50 0 -74 -40 -74 -83
c0 -42 28 -75 70 -75c47 0 73 38 73 80z" />
    <glyph glyph-name="seven.dnom" unicode="&#xf65c;" horiz-adv-x="371" 
d="M296 305l-134 -305h-42l136 299h-181v35h221v-29z" />
    <glyph glyph-name="eight.dnom" unicode="&#xf65d;" horiz-adv-x="371" 
d="M302 92c0 -56 -48 -96 -116 -96c-70 0 -118 39 -118 95c0 45 27 73 58 83c-31 12 -48 39 -48 75c0 56 48 92 109 92c62 0 106 -37 106 -91c0 -31 -19 -65 -51 -76c32 -9 60 -34 60 -82zM254 249c0 36 -27 61 -67 61c-42 0 -70 -25 -70 -61c0 -43 36 -62 70 -62
c32 0 67 17 67 62zM262 92c0 41 -31 65 -76 65c-46 0 -78 -24 -78 -65c0 -40 30 -64 79 -64c45 0 75 24 75 64z" />
    <glyph glyph-name="nine.dnom" unicode="&#xf65e;" horiz-adv-x="371" 
d="M301 181c0 -86 -30 -185 -130 -185c-52 0 -86 28 -92 36l20 25c10 -10 38 -27 69 -27c66 0 87 64 92 135c-17 -29 -54 -45 -85 -45c-66 0 -105 47 -105 108c0 63 46 113 111 113c91 0 120 -85 120 -160zM252 232c0 43 -30 77 -72 77c-47 0 -72 -37 -72 -80
c0 -44 22 -78 68 -78s76 33 76 81z" />
    <glyph glyph-name="parenleft.dnom" unicode="&#xf62c;" horiz-adv-x="183" 
d="M45 168c0 83 24 161 99 215l19 -22c-57 -50 -74 -117 -74 -191c0 -75 21 -146 77 -196l-20 -23c-72 48 -101 133 -101 217z" />
    <glyph glyph-name="parenright.dnom" unicode="&#xf62d;" horiz-adv-x="183" 
d="M138 166c0 -83 -24 -161 -99 -215l-19 22c57 50 74 117 74 191c0 75 -21 146 -77 196l20 23c72 -48 101 -133 101 -217z" />
    <glyph glyph-name="currency" unicode="&#xa4;" horiz-adv-x="593" 
d="M544 117l-26 -26l-56 55c-42 -42 -99 -65 -168 -65c-65 0 -122 24 -164 67l-57 -57l-25 26l59 59c-28 41 -44 93 -44 153c0 69 15 127 46 170l-61 62l25 26l60 -60c39 38 93 59 163 59c62 0 119 -21 161 -60l61 61l26 -26l-62 -63c31 -41 50 -96 50 -161
s-17 -120 -47 -162zM486 342c0 134 -82 207 -191 207c-114 0 -186 -73 -186 -209s81 -221 188 -221c111 0 189 76 189 223z" />
    <glyph glyph-name="zero.numr" unicode="&#xf661;" horiz-adv-x="371" 
d="M326 502c0 -110 -51 -176 -142 -176c-86 0 -139 62 -139 162c0 116 51 183 144 183c85 0 137 -66 137 -169zM282 503c0 81 -32 134 -93 134c-66 0 -100 -55 -100 -146c0 -80 32 -131 95 -131c60 0 98 47 98 143z" />
    <glyph glyph-name="one.numr" unicode="&#xf662;" horiz-adv-x="371" 
d="M225 330h-38v292l-88 -54l-21 29l114 70h33v-337z" />
    <glyph glyph-name="two.numr" unicode="&#xf663;" horiz-adv-x="371" 
d="M279 330h-197v31c77 78 158 147 158 210c0 39 -23 64 -63 64c-36 0 -67 -27 -73 -32l-22 22c9 11 44 46 99 46c59 0 101 -39 101 -98c0 -62 -53 -115 -98 -160l-51 -49h146v-34z" />
    <glyph glyph-name="three.numr" unicode="&#xf664;" horiz-adv-x="371" 
d="M285 426c0 -65 -52 -100 -108 -100c-61 0 -88 29 -99 43l24 24c5 -5 31 -33 70 -33c44 0 71 21 71 61c0 63 -57 63 -94 63h-12v36h18c31 0 84 1 84 58c0 33 -23 59 -61 59c-40 0 -64 -29 -68 -33l-25 23c3 7 36 44 95 44c60 0 101 -37 101 -92c0 -40 -25 -66 -62 -75
c35 -7 66 -28 66 -78z" />
    <glyph glyph-name="four.numr" unicode="&#xf665;" horiz-adv-x="371" 
d="M307 413h-48v-83h-36v83h-168v28l171 226h33v-223h48v-31zM223 444v170l-128 -170h128z" />
    <glyph glyph-name="five.numr" unicode="&#xf666;" horiz-adv-x="371" 
d="M292 437c0 -67 -51 -111 -118 -111c-57 0 -91 29 -96 34l20 27c11 -8 39 -27 73 -27c50 0 79 28 79 75c0 40 -26 76 -78 76c-29 0 -51 -13 -59 -19l-20 9v166h182v-35h-144v-100c7 5 24 13 49 13c70 0 112 -45 112 -108z" />
    <glyph glyph-name="six.numr" unicode="&#xf667;" horiz-adv-x="371" 
d="M301 441c0 -66 -45 -115 -112 -115c-85 0 -119 78 -119 161c0 86 30 184 129 184c51 0 84 -27 91 -34l-19 -25c-10 8 -37 26 -68 26c-67 0 -87 -67 -90 -135c15 27 46 46 84 46c65 0 104 -46 104 -108zM263 439c0 44 -23 78 -69 78c-50 0 -74 -40 -74 -83
c0 -42 28 -75 70 -75c47 0 73 38 73 80z" />
    <glyph glyph-name="seven.numr" unicode="&#xf668;" horiz-adv-x="371" 
d="M296 638l-134 -308h-42l136 302h-181v35h221v-29z" />
    <glyph glyph-name="eight.numr" unicode="&#xf669;" horiz-adv-x="371" 
d="M302 422c0 -56 -48 -96 -116 -96c-70 0 -118 39 -118 95c0 45 27 73 58 83c-31 12 -48 39 -48 75c0 56 48 92 109 92c62 0 106 -37 106 -91c0 -31 -19 -65 -51 -76c32 -9 60 -34 60 -82zM254 579c0 36 -27 61 -67 61c-42 0 -70 -25 -70 -61c0 -43 36 -62 70 -62
c32 0 67 17 67 62zM262 422c0 41 -31 65 -76 65c-46 0 -78 -24 -78 -65c0 -40 30 -64 79 -64c45 0 75 24 75 64z" />
    <glyph glyph-name="nine.numr" unicode="&#xf66a;" horiz-adv-x="371" 
d="M301 511c0 -86 -30 -185 -130 -185c-52 0 -86 28 -92 36l20 25c10 -10 38 -27 69 -27c66 0 87 64 92 135c-17 -29 -54 -45 -85 -45c-66 0 -105 47 -105 108c0 63 46 113 111 113c91 0 120 -85 120 -160zM252 562c0 43 -30 77 -72 77c-47 0 -72 -37 -72 -80
c0 -44 22 -78 68 -78s76 33 76 81z" />
    <glyph glyph-name="parenleft.numr" unicode="&#xf631;" horiz-adv-x="183" 
d="M45 492c0 83 24 161 99 215l19 -22c-57 -50 -74 -117 -74 -191c0 -75 21 -146 77 -196l-20 -23c-72 48 -101 133 -101 217z" />
    <glyph glyph-name="parenright.numr" unicode="&#xf632;" horiz-adv-x="183" 
d="M138 490c0 -83 -24 -161 -99 -215l-19 22c57 50 74 117 74 191c0 75 -21 146 -77 196l20 23c72 -48 101 -133 101 -217z" />
    <glyph glyph-name="Amacron" unicode="&#x100;" horiz-adv-x="567" 
d="M554 0h-48l-74 205h-302l-74 -205h-43l243 667h53zM418 245l-137 377l-136 -377h273zM440 733h-312v38h312v-38z" />
    <glyph glyph-name="Abreve" unicode="&#x102;" horiz-adv-x="567" 
d="M554 0h-48l-74 205h-302l-74 -205h-43l243 667h53zM418 245l-137 377l-136 -377h273zM370 835h40c-11 -75 -55 -114 -129 -114s-118 39 -128 114h40c8 -44 38 -67 88 -67s79 22 89 67z" />
    <glyph glyph-name="Aogonek" unicode="&#x104;" horiz-adv-x="567" 
d="M309 667l245 -667c-28 -18 -60 -43 -60 -88c0 -41 26 -65 66 -65c35 0 68 17 72 19l15 -30c-2 -2 -40 -28 -96 -28c-61 0 -99 40 -99 104c0 43 21 75 54 89l-74 204h-302l-74 -205h-43l243 667h53zM418 245l-137 377l-136 -377h273z" />
    <glyph glyph-name="Cacute" unicode="&#x106;" horiz-adv-x="597" 
d="M571 48c-10 -10 -80 -59 -205 -59c-171 0 -309 123 -309 339c0 224 146 351 317 351c115 0 177 -44 187 -52l-21 -35c-8 5 -69 44 -161 44c-150 0 -277 -112 -277 -300c0 -185 105 -305 270 -305c103 0 166 44 176 50zM490 791l-209 -77l-15 31l203 94z" />
    <glyph glyph-name="Ccaron" unicode="&#x10c;" horiz-adv-x="597" 
d="M571 48c-10 -10 -80 -59 -205 -59c-171 0 -309 123 -309 339c0 224 146 351 317 351c115 0 177 -44 187 -52l-21 -35c-8 5 -69 44 -161 44c-150 0 -277 -112 -277 -300c0 -185 105 -305 270 -305c103 0 166 44 176 50zM232 805l19 30l127 -67l127 67l21 -30l-148 -90z
" />
    <glyph glyph-name="Dcaron" unicode="&#x10e;" horiz-adv-x="666" 
d="M609 336c0 -110 -36 -194 -97 -255c-69 -69 -148 -81 -269 -81h-155v667h113c142 0 238 -8 309 -79c63 -63 99 -151 99 -252zM562 338c0 65 -11 149 -83 221c-62 62 -130 71 -276 71h-72v-593h96c98 0 182 -1 255 71c54 53 80 140 80 230zM143 805l19 30l127 -67l127 67
l21 -30l-148 -90z" />
    <glyph glyph-name="Dcroat" unicode="&#x110;" horiz-adv-x="676" 
d="M619 336c0 -110 -36 -194 -97 -255c-69 -69 -148 -81 -269 -81h-155v333h-100v37h100v297h113c142 0 238 -8 309 -79c63 -63 99 -151 99 -252zM572 338c0 65 -11 149 -83 221c-62 62 -130 71 -276 71h-72v-260h210v-37h-210v-296h96c98 0 182 -1 255 71
c54 53 80 140 80 230z" />
    <glyph glyph-name="Ecaron" unicode="&#x11a;" horiz-adv-x="488" 
d="M399 805l-148 -90l-146 90l19 30l127 -67l127 67zM434 0h-346v667h338v-39h-295v-258h277v-37h-277v-293h303v-40z" />
    <glyph glyph-name="Emacron" unicode="&#x112;" horiz-adv-x="488" 
d="M434 0h-346v667h338v-39h-295v-258h277v-37h-277v-293h303v-40zM412 733h-312v38h312v-38z" />
    <glyph glyph-name="Edotaccent" unicode="&#x116;" horiz-adv-x="488" 
d="M434 0h-346v667h338v-39h-295v-258h277v-37h-277v-293h303v-40zM292 767c0 -20 -15 -36 -35 -36s-36 16 -36 36s16 35 36 35s35 -15 35 -35z" />
    <glyph glyph-name="Eogonek" unicode="&#x118;" horiz-adv-x="370" 
d="M434 40v-40c-28 -18 -60 -43 -60 -88c0 -41 26 -65 66 -65c35 0 68 17 72 19l15 -30c-2 -2 -40 -28 -96 -28c-61 0 -99 40 -99 104c0 44 20 69 47 88h-291v667h338v-39h-295v-258h277v-37h-277v-293h303z" />
    <glyph glyph-name="Gbreve" unicode="&#x11e;" horiz-adv-x="647" 
d="M577 44c-10 -9 -75 -55 -210 -55c-172 0 -310 122 -310 339c0 224 146 351 317 351c115 0 178 -41 187 -49l-21 -35c-8 5 -69 41 -161 41c-150 0 -277 -112 -277 -300s105 -305 271 -305c110 0 155 33 161 36v216h-162v37h205v-276zM464 835h40
c-11 -75 -55 -114 -129 -114s-118 39 -128 114h40c8 -44 38 -67 88 -67s79 22 89 67z" />
    <glyph glyph-name="Imacron" unicode="&#x12a;" horiz-adv-x="219" 
d="M131 0h-43v667h43v-667zM266 733h-312v38h312v-38z" />
    <glyph glyph-name="Iogonek" unicode="&#x12e;" horiz-adv-x="219" 
d="M131 667v-667c-28 -18 -60 -43 -60 -88c0 -41 26 -65 66 -65c35 0 68 17 72 19l15 -30c-2 -2 -40 -28 -96 -28c-61 0 -99 40 -99 104c0 41 18 74 59 90v665h43z" />
    <glyph glyph-name="Lacute" unicode="&#x139;" horiz-adv-x="461" 
d="M426 0h-338v667h43v-627h295v-40zM318 791l-209 -77l-15 31l203 94z" />
    <glyph glyph-name="Lcaron" unicode="&#x13d;" horiz-adv-x="461" 
d="M235 667h54c1 -59 -27 -128 -71 -176l-31 21c31 41 48 97 48 155zM426 0h-338v667h43v-627h295v-40z" />
    <glyph glyph-name="Nacute" unicode="&#x143;" horiz-adv-x="620" 
d="M532 0h-60l-344 608l1 -608h-41v667h55l349 -617l-1 617h41v-667zM422 791l-209 -77l-15 31l203 94z" />
    <glyph glyph-name="Ncaron" unicode="&#x147;" horiz-adv-x="620" 
d="M532 0h-60l-344 608l1 -608h-41v667h55l349 -617l-1 617h41v-667zM160 805l19 30l127 -67l127 67l21 -30l-148 -90z" />
    <glyph glyph-name="Omacron" unicode="&#x14c;" horiz-adv-x="690" 
d="M633 335c0 -201 -118 -346 -293 -346c-160 0 -283 141 -283 336c0 206 121 354 294 354c162 0 282 -142 282 -344zM586 340c0 179 -103 299 -243 299c-145 0 -239 -120 -239 -301c0 -180 103 -309 241 -309c141 0 241 113 241 311zM508 733h-312v38h312v-38z" />
    <glyph glyph-name="Ohungarumlaut" unicode="&#x150;" horiz-adv-x="690" 
d="M633 335c0 -201 -118 -346 -293 -346c-160 0 -283 141 -283 336c0 206 121 354 294 354c162 0 282 -142 282 -344zM586 340c0 179 -103 299 -243 299c-145 0 -239 -120 -239 -301c0 -180 103 -309 241 -309c141 0 241 113 241 311zM473 897l-66 -167l-38 12l51 172z
M351 897l-64 -167l-39 12l51 172z" />
    <glyph glyph-name="Racute" unicode="&#x154;" horiz-adv-x="537" 
d="M509 0h-45l-74 168c-7 16 -33 80 -57 104c-26 26 -51 34 -119 34h-83v-306h-43v667h132c71 0 143 2 191 -46c38 -38 53 -79 53 -133c0 -47 -13 -86 -43 -117c-35 -35 -79 -48 -106 -51c57 -5 80 -64 96 -100zM420 492c0 34 -10 69 -41 100c-37 37 -80 38 -147 38h-101
v-287h48c80 0 152 -1 203 50c26 26 38 58 38 99zM373 791l-209 -77l-15 31l203 94z" />
    <glyph glyph-name="Rcaron" unicode="&#x158;" horiz-adv-x="537" 
d="M509 0h-45l-74 168c-7 16 -33 80 -57 104c-26 26 -51 34 -119 34h-83v-306h-43v667h132c71 0 143 2 191 -46c38 -38 53 -79 53 -133c0 -47 -13 -86 -43 -117c-35 -35 -79 -48 -106 -51c57 -5 80 -64 96 -100zM420 492c0 34 -10 69 -41 100c-37 37 -80 38 -147 38h-101
v-287h48c80 0 152 -1 203 50c26 26 38 58 38 99zM102 805l19 30l127 -67l127 67l21 -30l-148 -90z" />
    <glyph glyph-name="Sacute" unicode="&#x15a;" horiz-adv-x="503" 
d="M440 180c0 -108 -67 -191 -204 -191c-112 0 -177 62 -185 69l25 33c7 -5 73 -62 157 -62c107 0 162 61 162 148c0 35 -16 65 -38 87c-65 65 -184 79 -249 144c-24 24 -40 57 -40 105c0 96 74 166 188 166c118 0 170 -64 176 -70l-27 -27c-7 6 -51 59 -145 59
c-89 0 -151 -55 -151 -127c0 -35 13 -58 32 -77c61 -61 184 -74 250 -140c29 -29 49 -66 49 -117zM379 791l-209 -77l-15 31l203 94z" />
    <glyph glyph-name="Scedilla" unicode="&#x15e;" horiz-adv-x="503" 
d="M356 -140c0 -54 -47 -85 -90 -85c-28 0 -48 6 -67 16l12 28c7 -3 24 -12 47 -12c47 0 58 31 58 51c0 29 -20 49 -50 49c-15 0 -30 -4 -42 -13l-21 12l18 84c-99 3 -163 61 -170 68l25 33c7 -5 73 -62 157 -62c107 0 162 61 162 148c0 35 -16 65 -38 87
c-65 65 -184 79 -249 144c-24 24 -40 57 -40 105c0 96 74 166 188 166c118 0 170 -64 176 -70l-27 -27c-7 6 -51 59 -145 59c-89 0 -151 -55 -151 -127c0 -35 13 -58 32 -77c61 -61 184 -74 250 -140c29 -29 49 -66 49 -117c0 -104 -62 -184 -187 -190l-11 -59
c13 8 24 9 35 9c48 0 79 -32 79 -80z" />
    <glyph glyph-name="Scommaaccent" unicode="&#x218;" horiz-adv-x="503" 
d="M209 -66h54c1 -59 -27 -128 -71 -176l-31 21c31 41 48 97 48 155zM440 180c0 -108 -67 -191 -204 -191c-112 0 -177 62 -185 69l25 33c7 -5 73 -62 157 -62c107 0 162 61 162 148c0 35 -16 65 -38 87c-65 65 -184 79 -249 144c-24 24 -40 57 -40 105c0 96 74 166 188 166
c118 0 170 -64 176 -70l-27 -27c-7 6 -51 59 -145 59c-89 0 -151 -55 -151 -127c0 -35 13 -58 32 -77c61 -61 184 -74 250 -140c29 -29 49 -66 49 -117z" />
    <glyph glyph-name="Tcaron" unicode="&#x164;" horiz-adv-x="526" 
d="M492 628h-208v-628h-43v628h-207v39h458v-39zM116 805l19 30l127 -67l127 67l21 -30l-148 -90z" />
    <glyph glyph-name="Umacron" unicode="&#x16a;" horiz-adv-x="605" 
d="M527 291c0 -87 5 -179 -58 -242c-46 -46 -106 -60 -166 -60c-71 0 -129 23 -168 62c-63 63 -57 144 -57 255v361h43v-430c0 -60 2 -116 44 -158c34 -34 84 -51 141 -51c51 0 100 17 129 46c50 50 49 104 49 212v381h43v-376zM459 733h-312v38h312v-38z" />
    <glyph glyph-name="Uring" unicode="&#x16e;" horiz-adv-x="605" 
d="M527 291c0 -87 5 -179 -58 -242c-46 -46 -106 -60 -166 -60c-71 0 -129 23 -168 62c-63 63 -57 144 -57 255v361h43v-430c0 -60 2 -116 44 -158c34 -34 84 -51 141 -51c51 0 100 17 129 46c50 50 49 104 49 212v381h43v-376zM300 908c52 0 95 -43 95 -94
c0 -53 -43 -96 -95 -96s-95 43 -95 95c0 53 42 95 95 95zM300 873c-32 0 -59 -28 -59 -60s27 -59 59 -59c33 0 60 26 60 59s-27 60 -60 60z" />
    <glyph glyph-name="Uhungarumlaut" unicode="&#x170;" horiz-adv-x="605" 
d="M527 291c0 -87 5 -179 -58 -242c-46 -46 -106 -60 -166 -60c-71 0 -129 23 -168 62c-63 63 -57 144 -57 255v361h43v-430c0 -60 2 -116 44 -158c34 -34 84 -51 141 -51c51 0 100 17 129 46c50 50 49 104 49 212v381h43v-376zM428 897l-66 -167l-38 12l51 172zM306 897
l-64 -167l-39 12l51 172z" />
    <glyph glyph-name="Uogonek" unicode="&#x172;" horiz-adv-x="605" 
d="M527 667v-376c0 -87 5 -179 -58 -242c-54 -54 -140 -64 -140 -137c0 -41 26 -65 66 -65c35 0 68 17 72 19l15 -30c-2 -2 -40 -28 -96 -28c-61 0 -99 40 -99 104c0 34 13 65 37 79c-10 -2 -18 -2 -21 -2c-71 0 -129 23 -168 62c-63 63 -57 144 -57 255v361h43v-430
c0 -60 2 -116 44 -158c34 -34 84 -51 141 -51c51 0 100 17 129 46c50 50 49 104 49 212v381h43z" />
    <glyph glyph-name="Zacute" unicode="&#x179;" horiz-adv-x="538" 
d="M489 0h-441v35l384 593h-363v39h412v-35l-381 -592h389v-40zM383 791l-209 -77l-15 31l203 94z" />
    <glyph glyph-name="Zdotaccent" unicode="&#x17b;" horiz-adv-x="538" 
d="M489 0h-441v35l384 593h-363v39h412v-35l-381 -592h389v-40zM305 767c0 -20 -15 -36 -35 -36s-36 16 -36 36s16 35 36 35s35 -15 35 -35z" />
    <glyph glyph-name="amacron" unicode="&#x101;" horiz-adv-x="454" 
d="M389 0h-41v36c-13 -7 -70 -46 -154 -46c-91 0 -153 55 -153 140c0 152 192 155 278 155h29v26c0 35 4 77 -25 106c-16 16 -42 34 -100 34c-76 0 -130 -38 -132 -40l-21 30c3 4 64 48 159 48c66 0 99 -21 122 -44c29 -29 38 -60 38 -133v-312zM348 72v177h-35
c-130 0 -229 -24 -229 -120c0 -49 32 -101 120 -101c75 0 140 42 144 44zM374 592h-285v38h285v-38z" />
    <glyph glyph-name="abreve" unicode="&#x103;" horiz-adv-x="454" 
d="M389 0h-41v36c-13 -7 -70 -46 -154 -46c-91 0 -153 55 -153 140c0 152 192 155 278 155h29v26c0 35 4 77 -25 106c-16 16 -42 34 -100 34c-76 0 -130 -38 -132 -40l-21 30c3 4 64 48 159 48c66 0 99 -21 122 -44c29 -29 38 -60 38 -133v-312zM348 72v177h-35
c-130 0 -229 -24 -229 -120c0 -49 32 -101 120 -101c75 0 140 42 144 44zM359 667c-7 -70 -54 -114 -129 -114s-121 44 -128 114h40c6 -41 37 -67 88 -67s82 26 89 67h40z" />
    <glyph glyph-name="aogonek" unicode="&#x105;" horiz-adv-x="454" 
d="M348 72v177h-35c-130 0 -229 -24 -229 -120c0 -49 32 -101 120 -101c75 0 140 42 144 44zM348 3v33c-13 -7 -70 -46 -154 -46c-91 0 -153 55 -153 140c0 152 192 155 278 155h29v26c0 35 4 77 -25 106c-16 16 -42 34 -100 34c-76 0 -130 -38 -132 -40l-21 30
c3 4 64 48 159 48c66 0 99 -21 122 -44c29 -29 38 -60 38 -133v-312c-28 -18 -60 -43 -60 -88c0 -41 26 -65 66 -65c35 0 68 17 72 19l15 -30c-2 -2 -40 -28 -96 -28c-61 0 -99 40 -99 104c0 43 21 76 61 91z" />
    <glyph glyph-name="cacute" unicode="&#x107;" horiz-adv-x="453" 
d="M421 36c-10 -8 -71 -45 -156 -45c-126 0 -220 86 -220 236c0 153 92 261 233 261c83 0 132 -39 137 -44l-21 -31c-8 5 -47 35 -119 35c-114 0 -187 -88 -187 -212c0 -126 76 -204 179 -204c79 0 128 33 135 37zM388 622l-209 -77l-15 31l203 94z" />
    <glyph glyph-name="ccaron" unicode="&#x10d;" horiz-adv-x="453" 
d="M421 36c-10 -8 -71 -45 -156 -45c-126 0 -220 86 -220 236c0 153 92 261 233 261c83 0 132 -39 137 -44l-21 -31c-8 5 -47 35 -119 35c-114 0 -187 -88 -187 -212c0 -126 76 -204 179 -204c79 0 128 33 135 37zM416 640l-148 -90l-146 90l19 30l127 -67l127 67z" />
    <glyph glyph-name="dcaron" unicode="&#x10f;" horiz-adv-x="506" 
d="M434 0h-41v40c-3 -2 -60 -49 -142 -49c-122 0 -206 95 -206 239c0 152 93 258 228 258c66 0 112 -29 120 -33v264h41v-719zM393 80v335c-7 4 -51 36 -119 36c-113 0 -186 -90 -186 -223c0 -116 65 -199 167 -199c83 0 130 45 138 51zM506 718h54c1 -59 -27 -128 -71 -176
l-31 21c31 41 48 97 48 155z" />
    <glyph glyph-name="dcroat" unicode="&#x111;" horiz-adv-x="506" 
d="M236 572v35h157v112h41v-112h83v-35h-83v-572h-41v40c-3 -2 -60 -49 -142 -49c-122 0 -206 95 -206 239c0 152 93 258 228 258c66 0 112 -29 120 -33v117h-157zM393 80v335c-7 4 -51 36 -119 36c-113 0 -186 -90 -186 -223c0 -116 65 -199 167 -199c83 0 130 45 138 51z
" />
    <glyph glyph-name="ecaron" unicode="&#x11b;" horiz-adv-x="485" 
d="M440 266c0 -8 -1 -19 -2 -30h-350c0 -123 64 -204 176 -204c83 0 142 41 142 41l20 -34c-5 -5 -72 -48 -165 -48c-135 0 -216 98 -216 244c0 156 83 253 214 253c102 0 181 -79 181 -222zM398 274c0 85 -42 178 -139 178c-87 0 -163 -67 -169 -178h308zM405 640l-148 -90
l-146 90l19 30l127 -67l127 67z" />
    <glyph glyph-name="emacron" unicode="&#x113;" horiz-adv-x="485" 
d="M440 266c0 -8 -1 -19 -2 -30h-350c0 -123 64 -204 176 -204c83 0 142 41 142 41l20 -34c-5 -5 -72 -48 -165 -48c-135 0 -216 98 -216 244c0 156 83 253 214 253c102 0 181 -79 181 -222zM398 274c0 85 -42 178 -139 178c-87 0 -163 -67 -169 -178h308zM402 592h-285v38
h285v-38z" />
    <glyph glyph-name="edotaccent" unicode="&#x117;" horiz-adv-x="485" 
d="M440 266c0 -8 -1 -19 -2 -30h-350c0 -123 64 -204 176 -204c83 0 142 41 142 41l20 -34c-5 -5 -72 -48 -165 -48c-135 0 -216 98 -216 244c0 156 83 253 214 253c102 0 181 -79 181 -222zM398 274c0 85 -42 178 -139 178c-87 0 -163 -67 -169 -178h308zM292 609
c0 -20 -15 -36 -35 -36s-36 16 -36 36s16 35 36 35s35 -15 35 -35z" />
    <glyph glyph-name="eogonek" unicode="&#x119;" horiz-adv-x="485" 
d="M417 -164c-2 -2 -40 -28 -96 -28c-61 0 -99 40 -99 104c0 41 18 68 38 79c-137 1 -215 100 -215 244c0 156 83 253 214 253c102 0 181 -79 181 -222c0 -8 -1 -19 -2 -30h-350c0 -123 64 -204 176 -204c83 0 142 41 142 41l20 -34c-59 -44 -162 -40 -162 -127
c0 -41 26 -65 66 -65c35 0 68 17 72 19zM398 274c0 85 -42 178 -139 178c-87 0 -163 -67 -169 -178h308z" />
    <glyph glyph-name="gbreve" unicode="&#x11f;" horiz-adv-x="506" 
d="M434 -10c0 -90 -10 -132 -43 -165c-42 -42 -91 -50 -149 -50c-102 0 -163 50 -168 55l21 31c7 -4 64 -48 146 -48c64 0 97 17 121 41c29 29 30 64 30 151v43c-8 -5 -65 -49 -146 -49c-116 0 -201 92 -201 235c0 148 98 254 232 254c89 0 148 -34 157 -39v-459zM392 88
v337c-7 3 -49 25 -118 25c-114 0 -187 -89 -187 -216c0 -115 62 -197 161 -197c77 0 136 47 144 51zM410 667c-7 -70 -54 -114 -129 -114s-121 44 -128 114h40c6 -41 37 -67 88 -67s82 26 89 67h40z" />
    <glyph glyph-name="imacron" unicode="&#x12b;" horiz-adv-x="185" 
d="M113 0h-41v477h41v-477zM249 567h-312v38h312v-38z" />
    <glyph glyph-name="iogonek" unicode="&#x12f;" horiz-adv-x="185" 
d="M123 646c0 -17 -13 -31 -30 -31s-31 14 -31 31s14 30 31 30s30 -13 30 -30zM72 3v474h41v-477c-28 -18 -60 -43 -60 -88c0 -41 26 -65 66 -65c35 0 68 17 72 19l15 -30c-2 -2 -40 -28 -96 -28c-61 0 -99 40 -99 104c0 52 30 79 61 91z" />
    <glyph glyph-name="lacute" unicode="&#x13a;" horiz-adv-x="185" 
d="M113 0h-41v719h41v-719zM301 827l-209 -77l-15 31l203 94z" />
    <glyph glyph-name="lcaron" unicode="&#x13e;" horiz-adv-x="230" 
d="M113 0h-41v719h41v-719zM185 718h54c1 -59 -27 -128 -71 -176l-31 21c31 41 48 97 48 155z" />
    <glyph glyph-name="nacute" unicode="&#x144;" horiz-adv-x="490" 
d="M425 0h-41v286c0 63 0 106 -30 136c-20 20 -51 28 -85 28c-72 0 -143 -45 -156 -53v-397h-41v477h41v-41c8 6 77 52 160 52c55 0 89 -16 111 -38c36 -36 41 -73 41 -145v-305zM377 622l-209 -77l-15 31l203 94z" />
    <glyph glyph-name="ncaron" unicode="&#x148;" horiz-adv-x="490" 
d="M425 0h-41v286c0 63 0 106 -30 136c-20 20 -51 28 -85 28c-72 0 -143 -45 -156 -53v-397h-41v477h41v-41c8 6 77 52 160 52c55 0 89 -16 111 -38c36 -36 41 -73 41 -145v-305zM402 640l-148 -90l-146 90l19 30l127 -67l127 67z" />
    <glyph glyph-name="omacron" unicode="&#x14d;" horiz-adv-x="510" 
d="M465 232c0 -149 -81 -243 -211 -243c-127 0 -209 95 -209 250c0 152 79 249 213 249c127 0 207 -94 207 -256zM422 236c0 129 -72 216 -167 216c-103 0 -167 -85 -167 -212c0 -129 72 -214 167 -214c106 0 167 82 167 210zM400 592h-285v38h285v-38z" />
    <glyph glyph-name="ohungarumlaut" unicode="&#x151;" horiz-adv-x="510" 
d="M465 232c0 -149 -81 -243 -211 -243c-127 0 -209 95 -209 250c0 152 79 249 213 249c127 0 207 -94 207 -256zM422 236c0 129 -72 216 -167 216c-103 0 -167 -85 -167 -212c0 -129 72 -214 167 -214c106 0 167 82 167 210zM393 698l-66 -167l-38 12l51 172zM271 698
l-64 -167l-39 12l51 172z" />
    <glyph glyph-name="racute" unicode="&#x155;" horiz-adv-x="332" 
d="M312 483l-10 -36c-8 1 -19 3 -41 3c-102 0 -143 -90 -148 -97v-353h-41v477h41v-73c7 10 52 86 150 86c36 0 46 -6 49 -7zM303 622l-209 -77l-15 31l203 94z" />
    <glyph glyph-name="rcaron" unicode="&#x159;" horiz-adv-x="332" 
d="M312 483l-10 -36c-8 1 -19 3 -41 3c-102 0 -143 -90 -148 -97v-353h-41v477h41v-73c7 10 52 86 150 86c36 0 46 -6 49 -7zM316 640l-148 -90l-146 90l19 30l127 -67l127 67z" />
    <glyph glyph-name="sacute" unicode="&#x15b;" horiz-adv-x="406" 
d="M354 127c0 -88 -66 -138 -168 -138c-91 0 -149 40 -152 44l19 33c15 -10 66 -40 129 -40c80 0 129 36 129 97c0 22 -7 42 -27 62c-45 45 -149 50 -201 102c-16 16 -31 40 -31 81c0 75 68 120 151 120c82 0 131 -35 135 -38l-19 -32c-9 6 -55 34 -112 34
c-60 0 -113 -30 -113 -83c0 -28 9 -41 22 -54c45 -45 149 -50 203 -104c23 -23 35 -48 35 -84zM315 622l-209 -77l-15 31l203 94z" />
    <glyph glyph-name="scedilla" unicode="&#x15f;" horiz-adv-x="406" 
d="M298 -132c0 -54 -47 -85 -90 -85c-28 0 -48 6 -67 16l12 28c7 -3 24 -12 47 -12c47 0 58 31 58 51c0 29 -20 49 -50 49c-15 0 -30 -4 -42 -13l-21 12l16 76c-75 6 -124 39 -127 43l19 33c15 -10 66 -40 129 -40c80 0 129 36 129 97c0 22 -7 42 -27 62
c-45 45 -149 50 -201 102c-16 16 -31 40 -31 81c0 75 68 120 151 120c82 0 131 -35 135 -38l-19 -32c-9 6 -55 34 -112 34c-60 0 -113 -30 -113 -83c0 -28 9 -41 22 -54c45 -45 149 -50 203 -104c23 -23 35 -48 35 -84c0 -86 -62 -135 -161 -138l-9 -50c13 8 24 9 35 9
c48 0 79 -32 79 -80z" />
    <glyph glyph-name="scommaaccent" unicode="&#x219;" horiz-adv-x="406" 
d="M354 127c0 -88 -66 -138 -168 -138c-91 0 -149 40 -152 44l19 33c15 -10 66 -40 129 -40c80 0 129 36 129 97c0 22 -7 42 -27 62c-45 45 -149 50 -201 102c-16 16 -31 40 -31 81c0 75 68 120 151 120c82 0 131 -35 135 -38l-19 -32c-9 6 -55 34 -112 34
c-60 0 -113 -30 -113 -83c0 -28 9 -41 22 -54c45 -45 149 -50 203 -104c23 -23 35 -48 35 -84zM166 -67h54c1 -59 -27 -128 -71 -176l-31 21c31 41 48 97 48 155z" />
    <glyph glyph-name="tcaron" unicode="&#x165;" horiz-adv-x="354" 
d="M310 10c-9 -4 -35 -20 -87 -20c-44 0 -71 11 -91 31c-29 29 -25 81 -25 128v293h-83v35h83v136h41v-136h157v-35h-157v-291c0 -71 -4 -123 79 -123c37 0 62 12 70 15zM263 718h54c1 -59 -27 -128 -71 -176l-31 21c31 41 48 97 48 155z" />
    <glyph glyph-name="umacron" unicode="&#x16b;" horiz-adv-x="490" 
d="M418 0h-41v41c-13 -8 -69 -51 -161 -51c-35 0 -77 10 -110 43c-40 40 -41 89 -41 155v289h41v-293c0 -48 -2 -93 29 -124c23 -23 50 -33 86 -33c82 0 149 48 156 52v398h41v-477zM384 592h-285v38h285v-38z" />
    <glyph glyph-name="uring" unicode="&#x16f;" horiz-adv-x="490" 
d="M418 0h-41v41c-13 -8 -69 -51 -161 -51c-35 0 -77 10 -110 43c-40 40 -41 89 -41 155v289h41v-293c0 -48 -2 -93 29 -124c23 -23 50 -33 86 -33c82 0 149 48 156 52v398h41v-477zM337 625c0 -52 -43 -95 -95 -95s-95 43 -95 95c0 55 44 95 95 95c54 0 95 -44 95 -95z
M302 625c0 35 -28 60 -60 60s-59 -28 -59 -60s27 -59 59 -59c34 0 60 27 60 59z" />
    <glyph glyph-name="uhungarumlaut" unicode="&#x171;" horiz-adv-x="490" 
d="M418 0h-41v41c-13 -8 -69 -51 -161 -51c-35 0 -77 10 -110 43c-40 40 -41 89 -41 155v289h41v-293c0 -48 -2 -93 29 -124c23 -23 50 -33 86 -33c82 0 149 48 156 52v398h41v-477zM378 698l-66 -167l-38 12l51 172zM256 698l-64 -167l-39 12l51 172z" />
    <glyph glyph-name="uogonek" unicode="&#x173;" horiz-adv-x="490" 
d="M377 3v38c-13 -8 -69 -51 -161 -51c-35 0 -77 10 -110 43c-40 40 -41 89 -41 155v289h41v-293c0 -48 -2 -93 29 -124c23 -23 50 -33 86 -33c82 0 149 48 156 52v398h41v-477c-28 -18 -60 -43 -60 -88c0 -41 26 -65 66 -65c35 0 68 17 72 19l15 -30c-2 -2 -40 -28 -96 -28
c-61 0 -99 40 -99 104c0 52 30 79 61 91z" />
    <glyph glyph-name="zdotaccent" unicode="&#x17c;" horiz-adv-x="452" 
d="M222 644c20 0 35 -15 35 -35s-15 -36 -35 -36s-36 16 -36 36s16 35 36 35zM395 0h-351v34l292 408h-276v35h324v-33l-288 -407h299v-37z" />
    <glyph glyph-name="Tcommaaccent" unicode="&#x162;" horiz-adv-x="526" 
d="M236 -66h54c1 -59 -27 -128 -71 -176l-31 21c31 41 48 97 48 155zM492 628h-208v-628h-43v628h-207v39h458v-39z" />
    <glyph glyph-name="Kcommaaccent" unicode="&#x136;" horiz-adv-x="520" 
d="M257 -66h54c1 -59 -27 -128 -71 -176l-31 21c31 41 48 97 48 155zM508 0h-60l-317 323v-323h-43v667h43v-317l308 317h53l-318 -328z" />
    <glyph glyph-name="Lcommaaccent" unicode="&#x13b;" horiz-adv-x="461" 
d="M228 -66h54c1 -59 -27 -128 -71 -176l-31 21c31 41 48 97 48 155zM426 0h-338v667h43v-627h295v-40z" />
    <glyph glyph-name="Ncommaaccent" unicode="&#x145;" horiz-adv-x="620" 
d="M264 -66h54c1 -59 -27 -128 -71 -176l-31 21c31 41 48 97 48 155zM532 0h-60l-344 608l1 -608h-41v667h55l349 -617l-1 617h41v-667z" />
    <glyph glyph-name="Rcommaaccent" unicode="&#x156;" horiz-adv-x="537" 
d="M266 -66h54c1 -59 -27 -128 -71 -176l-31 21c31 41 48 97 48 155zM509 0h-45l-74 168c-7 16 -33 80 -57 104c-26 26 -51 34 -119 34h-83v-306h-43v667h132c71 0 143 2 191 -46c38 -38 53 -79 53 -133c0 -47 -13 -86 -43 -117c-35 -35 -79 -48 -106 -51
c57 -5 80 -64 96 -100zM420 492c0 34 -10 69 -41 100c-37 37 -80 38 -147 38h-101v-287h48c80 0 152 -1 203 50c26 26 38 58 38 99z" />
    <glyph glyph-name="Gcommaaccent" unicode="&#x122;" horiz-adv-x="647" 
d="M340 -66h54c1 -59 -27 -128 -71 -176l-31 21c31 41 48 97 48 155zM577 44c-10 -9 -75 -55 -210 -55c-172 0 -310 122 -310 339c0 224 146 351 317 351c115 0 178 -41 187 -49l-21 -35c-8 5 -69 41 -161 41c-150 0 -277 -112 -277 -300s105 -305 271 -305
c110 0 155 33 161 36v216h-162v37h205v-276z" />
    <glyph glyph-name="tcommaaccent" unicode="&#x163;" horiz-adv-x="354" 
d="M310 10c-9 -4 -35 -20 -87 -20c-44 0 -71 11 -91 31c-29 29 -25 81 -25 128v293h-83v35h83v136h41v-136h157v-35h-157v-291c0 -71 -4 -123 79 -123c37 0 62 12 70 15zM189 -67h54c1 -59 -27 -128 -71 -176l-31 21c31 41 48 97 48 155z" />
    <glyph glyph-name="uni021B" unicode="&#x21b;" horiz-adv-x="354" 
d="M297 43l13 -33c-1 -1 -1 -1 -4 -2c-25 -12 -51 -18 -82 -18c-42 0 -72 10 -92 31c-21 23 -25 41 -25 128v293h-83v35h83v136h41v-136h157v-35h-157v-291c0 -50 1 -62 5 -78c8 -31 31 -45 75 -45c22 0 43 4 66 14h1zM117 -84h54c1 -60 -27 -128 -71 -176l-31 21
c31 40 48 97 48 155z" />
    <glyph glyph-name="uni021A" unicode="&#x21a;" horiz-adv-x="526" 
d="M236 -66h54c1 -59 -27 -128 -71 -176l-31 21c31 41 48 97 48 155zM492 628h-208v-628h-43v628h-207v39h458v-39z" />
    <glyph glyph-name="kcommaaccent" unicode="&#x137;" horiz-adv-x="441" 
d="M424 0h-58l-253 252v-252h-41v719h41v-458l228 216h56l-237 -219zM206 -67h54c1 -59 -27 -128 -71 -176l-31 21c31 41 48 97 48 155z" />
    <glyph glyph-name="lcommaaccent" unicode="&#x13c;" horiz-adv-x="185" 
d="M113 0h-41v719h41v-719zM66 -67h54c1 -59 -27 -128 -71 -176l-31 21c31 41 48 97 48 155z" />
    <glyph glyph-name="ncommaaccent" unicode="&#x146;" horiz-adv-x="490" 
d="M425 0h-41v286c0 63 0 106 -30 136c-20 20 -51 28 -85 28c-72 0 -143 -45 -156 -53v-397h-41v477h41v-41c8 6 77 52 160 52c55 0 89 -16 111 -38c36 -36 41 -73 41 -145v-305zM213 -67h54c1 -59 -27 -128 -71 -176l-31 21c31 41 48 97 48 155z" />
    <glyph glyph-name="rcommaaccent" unicode="&#x157;" horiz-adv-x="332" 
d="M312 483l-10 -36c-8 1 -19 3 -41 3c-102 0 -143 -90 -148 -97v-353h-41v477h41v-73c7 10 52 86 150 86c36 0 46 -6 49 -7zM65 -67h54c1 -59 -27 -128 -71 -176l-31 21c31 41 48 97 48 155z" />
    <glyph glyph-name="gcommaaccent" unicode="&#x123;" horiz-adv-x="506" 
d="M434 -10c0 -90 -10 -132 -43 -165c-42 -42 -91 -50 -149 -50c-102 0 -163 50 -168 55l21 31c7 -4 64 -48 146 -48c64 0 97 17 121 41c29 29 30 64 30 151v43c-8 -5 -65 -49 -146 -49c-116 0 -201 92 -201 235c0 148 98 254 232 254c89 0 148 -34 157 -39v-459zM392 88
v337c-7 3 -49 25 -118 25c-114 0 -187 -89 -187 -216c0 -115 62 -197 161 -197c77 0 136 47 144 51zM303 555h-54c-1 59 27 128 71 176l31 -21c-31 -41 -48 -97 -48 -155z" />
    <glyph glyph-name="Amacronsmall" unicode="&#xf66e;" horiz-adv-x="470" 
d="M457 0h-46l-60 155h-237l-59 -155h-42l198 514h47zM336 193l-104 274l-104 -274h208zM375 592h-285v38h285v-38z" />
    <glyph glyph-name="Abrevesmall" unicode="&#xf66d;" horiz-adv-x="470" 
d="M457 0h-46l-60 155h-237l-59 -155h-42l198 514h47zM336 193l-104 274l-104 -274h208zM361 688c-7 -70 -54 -114 -129 -114s-121 44 -128 114h40c6 -41 37 -67 88 -67s82 26 89 67h40z" />
    <glyph glyph-name="Aogoneksmall" unicode="&#xf66f;" horiz-adv-x="470" 
d="M336 193l-104 274l-104 -274h208zM411 1l-60 154h-237l-59 -155h-42l198 514h47l199 -514c-28 -18 -60 -43 -60 -88c0 -41 26 -65 66 -65c35 0 68 17 72 19l15 -30c-2 -2 -40 -28 -96 -28c-61 0 -99 40 -99 104c0 47 25 75 56 89z" />
    <glyph glyph-name="Cacutesmall" unicode="&#xf671;" horiz-adv-x="476" 
d="M455 38c-9 -11 -71 -47 -163 -47c-135 0 -241 96 -241 261c0 172 114 270 250 270c99 0 140 -35 145 -40l-22 -32c-3 2 -42 31 -118 31c-122 0 -211 -83 -211 -224c0 -139 77 -225 202 -225c87 0 134 37 137 38zM412 642l-209 -77l-15 31l203 94z" />
    <glyph glyph-name="Ccaronsmall" unicode="&#xf673;" horiz-adv-x="476" 
d="M455 38c-9 -11 -71 -47 -163 -47c-135 0 -241 96 -241 261c0 172 114 270 250 270c99 0 140 -35 145 -40l-22 -32c-3 2 -42 31 -118 31c-122 0 -211 -83 -211 -224c0 -139 77 -225 202 -225c87 0 134 37 137 38zM445 658l-148 -90l-146 90l19 30l127 -67l127 67z" />
    <glyph glyph-name="Dcaronsmall" unicode="&#xf675;" horiz-adv-x="554" 
d="M503 259c0 -114 -50 -167 -72 -190c-59 -60 -136 -69 -232 -69h-121v514h94c107 0 196 -4 256 -65c40 -41 75 -94 75 -190zM457 261c0 71 -22 122 -55 156c-42 43 -83 61 -221 61h-60v-442h64c114 0 166 9 215 59c40 41 57 102 57 166zM411 658l-148 -90l-146 90l19 30
l127 -67l127 67z" />
    <glyph glyph-name="Dcroatsmall" unicode="&#xf676;" horiz-adv-x="592" 
d="M541 259c0 -114 -50 -167 -73 -190c-59 -59 -137 -69 -234 -69h-122v251h-82v39h82v224h95c108 0 197 -4 258 -65c41 -41 76 -94 76 -190zM495 261c0 71 -22 122 -56 156c-43 43 -84 61 -223 61h-61v-188h173v-39h-173v-215h65c115 0 167 9 217 59c41 41 58 102 58 166z
" />
    <glyph glyph-name="Ecaronsmall" unicode="&#xf678;" horiz-adv-x="412" 
d="M360 0h-282v514h276v-37h-235v-189h220v-36h-220v-214h241v-38zM365 658l-148 -90l-146 90l19 30l127 -67l127 67z" />
    <glyph glyph-name="Emacronsmall" unicode="&#xf67a;" horiz-adv-x="412" 
d="M360 0h-282v514h276v-37h-235v-189h220v-36h-220v-214h241v-38zM358 592h-285v38h285v-38z" />
    <glyph glyph-name="Edotaccentsmall" unicode="&#xf679;" horiz-adv-x="412" 
d="M360 0h-282v514h276v-37h-235v-189h220v-36h-220v-214h241v-38zM246 627c0 -20 -15 -36 -35 -36s-36 16 -36 36s16 35 36 35s35 -15 35 -35z" />
    <glyph glyph-name="Eogoneksmall" unicode="&#xf67c;" horiz-adv-x="412" 
d="M453 -164c-2 -2 -40 -28 -96 -28c-61 0 -99 40 -99 104c0 47 27 76 54 88h-234v514h276v-37h-235v-189h220v-36h-220v-214h241v-38c-28 -18 -60 -43 -60 -88c0 -41 26 -65 66 -65c35 0 68 17 72 19z" />
    <glyph glyph-name="Gbrevesmall" unicode="&#xf67d;" horiz-adv-x="521" 
d="M462 37c-7 -5 -57 -46 -165 -46c-146 0 -246 98 -246 261c0 172 114 270 250 270c99 0 140 -35 145 -40l-22 -32c-3 2 -42 31 -118 31c-122 0 -211 -83 -211 -224c0 -140 75 -226 211 -226c73 0 111 23 115 26v158h-123v35h164v-213zM431 688c-7 -70 -54 -114 -129 -114
s-121 44 -128 114h40c6 -41 37 -67 88 -67s82 26 89 67h40z" />
    <glyph glyph-name="Imacronsmall" unicode="&#xf685;" horiz-adv-x="197" 
d="M120 0h-42v514h42v-514zM242 592h-285v38h285v-38z" />
    <glyph glyph-name="Iogoneksmall" unicode="&#xf686;" horiz-adv-x="198" 
d="M120 514v-514c-28 -18 -60 -43 -60 -88c0 -41 26 -65 66 -65c35 0 68 17 72 19l15 -30c-2 -2 -40 -28 -96 -28c-61 0 -99 40 -99 104c0 41 19 75 60 91v511h42z" />
    <glyph glyph-name="Lacutesmall" unicode="&#xf68a;" horiz-adv-x="383" 
d="M308 640l-209 -77l-15 31l203 94zM353 0h-275v514h42v-476h233v-38z" />
    <glyph glyph-name="Lcaronsmall" unicode="&#xf68b;" horiz-adv-x="383" 
d="M218 514h54c1 -59 -27 -128 -71 -176l-31 21c31 41 48 97 48 155zM353 0h-275v514h42v-476h233v-38z" />
    <glyph glyph-name="Nacutesmall" unicode="&#xf68e;" horiz-adv-x="521" 
d="M443 0h-50l-276 454l3 -454h-42v514h49l278 -459l-3 459h41v-514zM373 640l-209 -77l-15 31l203 94z" />
    <glyph glyph-name="Ncaronsmall" unicode="&#xf68f;" horiz-adv-x="521" 
d="M443 0h-50l-276 454l3 -454h-42v514h49l278 -459l-3 459h41v-514zM408 658l-148 -90l-146 90l19 30l127 -67l127 67z" />
    <glyph glyph-name="Omacronsmall" unicode="&#xf693;" horiz-adv-x="571" 
d="M520 257c0 -154 -95 -266 -238 -266c-130 0 -231 109 -231 258c0 158 98 272 239 272c132 0 230 -109 230 -264zM474 262c0 134 -82 222 -191 222c-114 0 -186 -88 -186 -224s81 -231 188 -231c111 0 189 86 189 233zM433 592h-285v38h285v-38z" />
    <glyph glyph-name="Ohungarumlautsmall" unicode="&#xf692;" horiz-adv-x="571" 
d="M520 257c0 -154 -95 -266 -238 -266c-130 0 -231 109 -231 258c0 158 98 272 239 272c132 0 230 -109 230 -264zM474 262c0 134 -82 222 -191 222c-114 0 -186 -88 -186 -224s81 -231 188 -231c111 0 189 86 189 233zM420 715l-66 -167l-38 12l51 172zM298 715l-64 -167
l-39 12l51 172z" />
    <glyph glyph-name="Racutesmall" unicode="&#xf695;" horiz-adv-x="449" 
d="M329 640l-209 -77l-15 31l203 94zM423 0h-44l-74 156c-32 68 -45 75 -138 75h-47v-231h-42v514h102c58 0 119 3 164 -42c36 -36 41 -70 41 -99c0 -28 -9 -60 -34 -85c-20 -20 -42 -35 -88 -42c44 -3 54 -21 77 -70zM342 376c0 38 -14 57 -28 71c-34 35 -84 31 -127 31
h-67v-210h38c57 0 117 1 156 40c18 18 28 39 28 68z" />
    <glyph glyph-name="Rcaronsmall" unicode="&#xf696;" horiz-adv-x="449" 
d="M423 0h-44l-74 156c-32 68 -45 75 -138 75h-47v-231h-42v514h102c58 0 119 3 164 -42c36 -36 41 -70 41 -99c0 -28 -9 -60 -34 -85c-20 -20 -42 -35 -88 -42c44 -3 54 -21 77 -70zM342 376c0 38 -14 57 -28 71c-34 35 -84 31 -127 31h-67v-210h38c57 0 117 1 156 40
c18 18 28 39 28 68zM370 658l-148 -90l-146 90l19 30l127 -67l127 67z" />
    <glyph glyph-name="Sacutesmall" unicode="&#xf698;" horiz-adv-x="415" 
d="M360 142c0 -84 -53 -151 -164 -151c-94 0 -149 52 -154 56l25 33c6 -4 57 -49 127 -49c92 0 124 54 124 105c0 26 -10 46 -27 63c-51 52 -151 60 -201 110c-10 11 -33 34 -33 84c0 75 62 129 154 129c90 0 129 -42 144 -58l-24 -26c-10 9 -45 46 -117 46
c-68 0 -116 -39 -116 -89c0 -30 10 -44 22 -56c43 -43 145 -51 199 -106c27 -27 41 -56 41 -91zM325 640l-209 -77l-15 31l203 94z" />
    <glyph glyph-name="Scedillasmall" unicode="&#xf699;" horiz-adv-x="415" 
d="M294 -132c0 -54 -47 -85 -90 -85c-28 0 -48 6 -67 16l12 28c7 -3 24 -12 47 -12c47 0 58 31 58 51c0 29 -20 49 -50 49c-15 0 -30 -4 -42 -13l-21 12l17 80c-66 9 -112 49 -116 53l25 33c6 -4 57 -49 127 -49c92 0 124 54 124 105c0 26 -10 46 -27 63
c-51 52 -151 60 -201 110c-10 11 -33 34 -33 84c0 75 62 129 154 129c90 0 129 -42 144 -58l-24 -26c-10 9 -45 46 -117 46c-68 0 -116 -39 -116 -89c0 -30 10 -44 22 -56c43 -43 145 -51 199 -106c27 -27 41 -56 41 -91c0 -84 -53 -151 -164 -151h-6l-10 -52
c13 8 24 9 35 9c48 0 79 -32 79 -80z" />
    <glyph glyph-name="Scommaaccentsmall" unicode="&#xf69b;" horiz-adv-x="415" 
d="M360 142c0 -84 -53 -151 -164 -151c-94 0 -149 52 -154 56l25 33c6 -4 57 -49 127 -49c92 0 124 54 124 105c0 26 -10 46 -27 63c-51 52 -151 60 -201 110c-10 11 -33 34 -33 84c0 75 62 129 154 129c90 0 129 -42 144 -58l-24 -26c-10 9 -45 46 -117 46
c-68 0 -116 -39 -116 -89c0 -30 10 -44 22 -56c43 -43 145 -51 199 -106c27 -27 41 -56 41 -91zM176 -67h54c1 -59 -27 -128 -71 -176l-31 21c31 41 48 97 48 155z" />
    <glyph glyph-name="Tcaronsmall" unicode="&#xf69d;" horiz-adv-x="434" 
d="M365 658l-148 -90l-146 90l19 30l127 -67l127 67zM403 477h-165v-477h-42v477h-165v37h372v-37z" />
    <glyph glyph-name="Umacronsmall" unicode="&#xf6a1;" horiz-adv-x="503" 
d="M408 592h-312v38h312v-38zM433 211c0 -69 3 -122 -46 -171c-36 -36 -87 -49 -135 -49c-56 0 -108 19 -140 52c-39 40 -42 79 -42 152v319h41v-343c0 -50 7 -77 32 -103c26 -26 67 -39 111 -39c39 0 78 12 100 34c39 40 38 77 38 138v313h41v-303z" />
    <glyph glyph-name="Uringsmall" unicode="&#xf6a3;" horiz-adv-x="503" 
d="M433 211c0 -69 3 -122 -46 -171c-36 -36 -87 -49 -135 -49c-56 0 -108 19 -140 52c-39 40 -42 79 -42 152v319h41v-343c0 -50 7 -77 32 -103c26 -26 67 -39 111 -39c39 0 78 12 100 34c39 40 38 77 38 138v313h41v-303zM346 645c0 -52 -43 -95 -95 -95s-95 43 -95 95
c0 55 44 95 95 95c54 0 95 -44 95 -95zM311 645c0 35 -28 60 -60 60s-59 -28 -59 -60s27 -59 59 -59c34 0 60 27 60 59z" />
    <glyph glyph-name="Uhungarumlautsmall" unicode="&#xf6a0;" horiz-adv-x="503" 
d="M433 211c0 -69 3 -122 -46 -171c-36 -36 -87 -49 -135 -49c-56 0 -108 19 -140 52c-39 40 -42 79 -42 152v319h41v-343c0 -50 7 -77 32 -103c26 -26 67 -39 111 -39c39 0 78 12 100 34c39 40 38 77 38 138v313h41v-303zM382 715l-66 -167l-38 12l51 172zM260 715
l-64 -167l-39 12l51 172z" />
    <glyph glyph-name="Uogoneksmall" unicode="&#xf6a2;" horiz-adv-x="503" 
d="M252 -9c-56 0 -108 19 -140 52c-39 40 -42 79 -42 152v319h41v-343c0 -50 7 -77 32 -103c26 -26 67 -39 111 -39c39 0 78 12 100 34c39 40 38 77 38 138v313h41v-303c0 -69 3 -122 -46 -171c-37 -37 -118 -57 -118 -128c0 -41 26 -65 66 -65c35 0 68 17 72 19l15 -30
c-2 -2 -40 -28 -96 -28c-61 0 -99 40 -99 104c0 36 16 65 38 80c-5 -1 -11 -1 -13 -1z" />
    <glyph glyph-name="Zdotaccentsmall" unicode="&#xf6ac;" horiz-adv-x="455" 
d="M405 0h-359v31l303 446h-285v37h334v-31l-300 -445h307v-38zM262 627c0 -20 -15 -36 -35 -36s-36 16 -36 36s16 35 36 35s35 -15 35 -35z" />
    <glyph glyph-name="Tcommaaccentsmall" unicode="&#xf69e;" horiz-adv-x="434" 
d="M403 477h-165v-477h-42v477h-165v37h372v-37zM190 -67h54c1 -59 -27 -128 -71 -176l-31 21c31 41 48 97 48 155z" />
    <glyph glyph-name="Kcommaaccentsmall" unicode="&#xf689;" horiz-adv-x="430" 
d="M423 0h-56l-248 243v-243h-41v514h41v-242l242 242h48l-251 -253zM204 -67h54c1 -59 -27 -128 -71 -176l-31 21c31 41 48 97 48 155z" />
    <glyph glyph-name="Lcommaaccentsmall" unicode="&#xf68c;" horiz-adv-x="383" 
d="M353 0h-275v514h42v-476h233v-38zM189 -67h54c1 -59 -27 -128 -71 -176l-31 21c31 41 48 97 48 155z" />
    <glyph glyph-name="Ncommaaccentsmall" unicode="&#xf690;" horiz-adv-x="521" 
d="M443 0h-50l-276 454l3 -454h-42v514h49l278 -459l-3 459h41v-514zM234 -67h54c1 -59 -27 -128 -71 -176l-31 21c31 41 48 97 48 155z" />
    <glyph glyph-name="Rcommaaccentsmall" unicode="&#xf697;" horiz-adv-x="449" 
d="M423 0h-44l-74 156c-32 68 -45 75 -138 75h-47v-231h-42v514h102c58 0 119 3 164 -42c36 -36 41 -70 41 -99c0 -28 -9 -60 -34 -85c-20 -20 -42 -35 -88 -42c44 -3 54 -21 77 -70zM342 376c0 38 -14 57 -28 71c-34 35 -84 31 -127 31h-67v-210h38c57 0 117 1 156 40
c18 18 28 39 28 68zM211 -67h54c1 -59 -27 -128 -71 -176l-31 21c31 41 48 97 48 155z" />
    <glyph glyph-name="Gcommaaccentsmall" unicode="&#xf67f;" horiz-adv-x="521" 
d="M462 37c-7 -5 -57 -46 -165 -46c-146 0 -246 98 -246 261c0 172 114 270 250 270c99 0 140 -35 145 -40l-22 -32c-3 2 -42 31 -118 31c-122 0 -211 -83 -211 -224c0 -140 75 -226 211 -226c73 0 111 23 115 26v158h-123v35h164v-213zM269 -67h54c1 -59 -27 -128 -71 -176
l-31 21c31 41 48 97 48 155z" />
    <glyph glyph-name="Wcircumflex" unicode="&#x174;" horiz-adv-x="880" 
d="M839 667l-167 -667h-71l-159 642l-162 -642h-71l-168 667h50l154 -642l160 642h76l159 -642l155 642h44zM588 745l-19 -30l-127 67l-127 -67l-21 30l148 90z" />
    <glyph glyph-name="Wdieresis" unicode="&#x1e84;" horiz-adv-x="880" 
d="M839 667l-167 -667h-71l-159 642l-162 -642h-71l-168 667h50l154 -642l160 642h76l159 -642l155 642h44zM549 767c0 -20 -15 -36 -35 -36s-36 16 -36 36s16 35 36 35s35 -15 35 -35zM409 767c0 -20 -15 -36 -35 -36s-36 16 -36 36s16 35 36 35s35 -15 35 -35z" />
    <glyph glyph-name="Ycircumflex" unicode="&#x176;" horiz-adv-x="527" 
d="M499 667l-214 -404v-263h-43v263l-214 404h50l188 -359l185 359h48zM408 745l-19 -30l-127 67l-127 -67l-21 30l148 90z" />
    <glyph glyph-name="wcircumflex" unicode="&#x175;" horiz-adv-x="730" 
d="M689 477l-141 -477h-56l-130 451l-134 -451h-57l-135 477h44l121 -439l131 439h65l126 -439l124 439h42zM508 580l-19 -30l-127 67l-127 -67l-21 30l148 90z" />
    <glyph glyph-name="wdieresis" unicode="&#x1e85;" horiz-adv-x="730" 
d="M689 477l-141 -477h-56l-130 451l-134 -451h-57l-135 477h44l121 -439l131 439h65l126 -439l124 439h42zM468 609c0 -20 -15 -36 -35 -36s-36 16 -36 36s16 35 36 35s35 -15 35 -35zM328 609c0 -20 -15 -36 -35 -36s-36 16 -36 36s16 35 36 35s35 -15 35 -35z" />
    <glyph glyph-name="ycircumflex" unicode="&#x177;" horiz-adv-x="468" 
d="M441 477l-188 -519c-21 -57 -43 -106 -71 -134c-39 -39 -85 -49 -121 -49c-44 0 -75 12 -79 14l12 36c7 -2 28 -11 66 -11c32 0 65 11 87 33c33 33 53 92 72 139l-196 491h47l172 -434l154 434h45zM378 580l-19 -30l-127 67l-127 -67l-21 30l148 90z" />
    <glyph glyph-name="Wcircumflexsmall" unicode="&#xf6a6;" horiz-adv-x="731" 
d="M512 598l-19 -30l-127 67l-127 -67l-21 30l148 90zM692 514l-135 -514h-64l-127 481l-128 -481h-64l-135 514h47l122 -482l127 482h66l127 -482l121 482h43z" />
    <glyph glyph-name="Wdieresissmall" unicode="&#xf6a7;" horiz-adv-x="731" 
d="M692 514l-135 -514h-64l-127 481l-128 -481h-64l-135 514h47l122 -482l127 482h66l127 -482l121 482h43zM472 627c0 -20 -15 -36 -35 -36s-36 16 -36 36s16 35 36 35s35 -15 35 -35zM332 627c0 -20 -15 -36 -35 -36s-36 16 -36 36s16 35 36 35s35 -15 35 -35z" />
    <glyph glyph-name="Ycircumflexsmall" unicode="&#xf6a9;" horiz-adv-x="435" 
d="M411 514l-174 -312v-202h-40v202l-173 312h48l148 -270l146 270h45zM366 598l-19 -30l-127 67l-127 -67l-21 30l148 90z" />
    <glyph glyph-name="Aringacute" unicode="&#x1fa;" horiz-adv-x="567" 
d="M554 0h-48l-74 205h-302l-74 -205h-43l243 667h53zM418 245l-137 377l-136 -377h273zM378 815c0 -52 -43 -95 -95 -95s-95 43 -95 95c0 55 44 95 95 95c54 0 95 -44 95 -95zM343 815c0 35 -28 60 -60 60s-59 -28 -59 -60s27 -59 59 -59c34 0 60 27 60 59zM396 997
l-209 -77l-15 31l203 94z" />
    <glyph glyph-name="AEacute" unicode="&#x1fc;" horiz-adv-x="829" 
d="M770 0h-346v204h-241l-112 -204h-49l376 667h364v-39h-295v-258h277v-37h-277v-293h303v-40zM424 243v388l-221 -388h221zM655 812l-209 -77l-15 31l203 94z" />
    <glyph glyph-name="Ccircumflex" unicode="&#x108;" horiz-adv-x="597" 
d="M571 48c-10 -10 -80 -59 -205 -59c-171 0 -309 123 -309 339c0 224 146 351 317 351c115 0 177 -44 187 -52l-21 -35c-8 5 -69 44 -161 44c-150 0 -277 -112 -277 -300c0 -185 105 -305 270 -305c103 0 166 44 176 50zM526 745l-19 -30l-127 67l-127 -67l-21 30l148 90z
" />
    <glyph glyph-name="Eng" unicode="&#x14a;" horiz-adv-x="620" 
d="M532 -21c0 -60 3 -123 -40 -166c-24 -24 -57 -38 -94 -38c-75 0 -117 33 -120 35l19 34c6 -3 42 -30 93 -30c36 0 54 9 69 24c29 29 30 70 30 106v56l-361 608l1 -608h-41v667h55l349 -589l-1 589h41v-688z" />
    <glyph glyph-name="Ldot" unicode="&#x13f;" horiz-adv-x="461" 
d="M426 0h-338v667h43v-627h295v-40zM314 349c0 -19 -16 -35 -35 -35s-35 16 -35 35s16 35 35 35s35 -16 35 -35z" />
    <glyph glyph-name="Jcircumflex" unicode="&#x134;" horiz-adv-x="344" 
d="M264 193c0 -60 3 -123 -40 -166c-24 -24 -57 -38 -94 -38c-75 0 -117 33 -120 35l19 34c6 -3 42 -30 93 -30c36 0 54 9 69 24c29 29 30 70 30 106v509h43v-474zM389 745l-19 -30l-127 67l-127 -67l-21 30l148 90z" />
    <glyph glyph-name="Ibreve" unicode="&#x12c;" horiz-adv-x="219" 
d="M131 0h-43v667h43v-667zM238 857c-7 -70 -54 -114 -129 -114s-121 44 -128 114h40c6 -41 37 -67 88 -67s82 26 89 67h40z" />
    <glyph glyph-name="Itilde" unicode="&#x128;" horiz-adv-x="219" 
d="M131 0h-43v667h43v-667zM257 759c-11 -11 -38 -40 -93 -40c-36 0 -73 22 -112 22c-34 0 -48 -11 -64 -22l-25 29c24 20 46 39 89 39c37 0 76 -24 113 -24c44 0 60 19 68 25z" />
    <glyph glyph-name="Hbar" unicode="&#x126;" horiz-adv-x="644" 
d="M546 0h-43v332h-362v-332h-43v503h-100v38h100v126h43v-126h362v126h43v-126h100v-38h-100v-503zM141 371h362v132h-362v-132z" />
    <glyph glyph-name="Hcircumflex" unicode="&#x124;" horiz-adv-x="624" 
d="M536 0h-43v332h-362v-332h-43v667h43v-296h362v296h43v-667zM457 745l-19 -30l-127 67l-127 -67l-21 30l148 90z" />
    <glyph glyph-name="Gdotaccent" unicode="&#x120;" horiz-adv-x="647" 
d="M577 44c-10 -9 -75 -55 -210 -55c-172 0 -310 122 -310 339c0 224 146 351 317 351c115 0 178 -41 187 -49l-21 -35c-8 5 -69 41 -161 41c-150 0 -277 -112 -277 -300s105 -305 271 -305c110 0 155 33 161 36v216h-162v37h205v-276zM414 765c0 -20 -15 -36 -35 -36
s-36 16 -36 36s16 35 36 35s35 -15 35 -35z" />
    <glyph glyph-name="Gcircumflex" unicode="&#x11c;" horiz-adv-x="647" 
d="M577 44c-10 -9 -75 -55 -210 -55c-172 0 -310 122 -310 339c0 224 146 351 317 351c115 0 178 -41 187 -49l-21 -35c-8 5 -69 41 -161 41c-150 0 -277 -112 -277 -300s105 -305 271 -305c110 0 155 33 161 36v216h-162v37h205v-276zM527 745l-19 -30l-127 67l-127 -67
l-21 30l148 90z" />
    <glyph glyph-name="Ebreve" unicode="&#x114;" horiz-adv-x="488" 
d="M434 0h-346v667h338v-39h-295v-258h277v-37h-277v-293h303v-40zM385 835c-7 -70 -54 -114 -129 -114s-121 44 -128 114h40c6 -41 37 -67 88 -67s82 26 89 67h40z" />
    <glyph glyph-name="Cdotaccent" unicode="&#x10a;" horiz-adv-x="597" 
d="M571 48c-10 -10 -80 -59 -205 -59c-171 0 -309 123 -309 339c0 224 146 351 317 351c115 0 177 -44 187 -52l-21 -35c-8 5 -69 44 -161 44c-150 0 -277 -112 -277 -300c0 -185 105 -305 270 -305c103 0 166 44 176 50zM413 767c0 -20 -15 -36 -35 -36s-36 16 -36 36
s16 35 36 35s35 -15 35 -35z" />
    <glyph glyph-name="Obreve" unicode="&#x14e;" horiz-adv-x="690" 
d="M633 335c0 -201 -118 -346 -293 -346c-160 0 -283 141 -283 336c0 206 121 354 294 354c162 0 282 -142 282 -344zM586 340c0 179 -103 299 -243 299c-145 0 -239 -120 -239 -301c0 -180 103 -309 241 -309c141 0 241 113 241 311zM476 835c-7 -70 -54 -114 -129 -114
s-121 44 -128 114h40c6 -41 37 -67 88 -67s82 26 89 67h40z" />
    <glyph glyph-name="Oslashacute" unicode="&#x1fe;" horiz-adv-x="690" 
d="M462 792l-209 -77l-15 31l203 94zM633 335c0 -201 -118 -346 -293 -346c-76 0 -134 36 -138 40l-54 -94l-35 20l56 100c-13 10 -112 92 -112 270c0 206 121 354 294 354c90 0 145 -42 150 -47l55 98l34 -21l-58 -103s101 -82 101 -271zM586 340c0 150 -72 223 -78 228
l-285 -501c3 -1 49 -39 122 -39c141 0 241 114 241 312zM478 595c-22 20 -76 44 -135 44c-145 0 -239 -120 -239 -301c0 -115 43 -201 87 -244z" />
    <glyph glyph-name="Scircumflex" unicode="&#x15c;" horiz-adv-x="503" 
d="M440 180c0 -108 -67 -191 -204 -191c-112 0 -177 62 -185 69l25 33c7 -5 73 -62 157 -62c107 0 162 61 162 148c0 35 -16 65 -38 87c-65 65 -184 79 -249 144c-24 24 -40 57 -40 105c0 96 74 166 188 166c118 0 170 -64 176 -70l-27 -27c-7 6 -51 59 -145 59
c-89 0 -151 -55 -151 -127c0 -35 13 -58 32 -77c61 -61 184 -74 250 -140c29 -29 49 -66 49 -117zM407 745l-19 -30l-127 67l-127 -67l-21 30l148 90z" />
    <glyph glyph-name="Tbar" unicode="&#x166;" horiz-adv-x="526" 
d="M405 332h-121v-332h-43v332h-121v38h121v258h-207v39h458v-39h-208v-258h121v-38z" />
    <glyph glyph-name="Utilde" unicode="&#x168;" horiz-adv-x="605" 
d="M527 291c0 -87 5 -179 -58 -242c-46 -46 -106 -60 -166 -60c-71 0 -129 23 -168 62c-63 63 -57 144 -57 255v361h43v-430c0 -60 2 -116 44 -158c34 -34 84 -51 141 -51c51 0 100 17 129 46c50 50 49 104 49 212v381h43v-376zM453 758c-11 -11 -38 -40 -93 -40
c-36 0 -73 22 -112 22c-34 0 -48 -11 -64 -22l-25 29c24 20 46 39 89 39c37 0 76 -24 113 -24c44 0 60 19 68 25z" />
    <glyph glyph-name="Ubreve" unicode="&#x16c;" horiz-adv-x="605" 
d="M527 291c0 -87 5 -179 -58 -242c-46 -46 -106 -60 -166 -60c-71 0 -129 23 -168 62c-63 63 -57 144 -57 255v361h43v-430c0 -60 2 -116 44 -158c34 -34 84 -51 141 -51c51 0 100 17 129 46c50 50 49 104 49 212v381h43v-376zM429 835c-7 -70 -54 -114 -129 -114
s-121 44 -128 114h40c6 -41 37 -67 88 -67s82 26 89 67h40z" />
    <glyph glyph-name="Wacute" unicode="&#x1e82;" horiz-adv-x="880" 
d="M839 667l-167 -667h-71l-159 642l-162 -642h-71l-168 667h50l154 -642l160 642h76l159 -642l155 642h44zM554 791l-209 -77l-15 31l203 94z" />
    <glyph glyph-name="Wgrave" unicode="&#x1e80;" horiz-adv-x="880" 
d="M839 667l-167 -667h-71l-159 642l-162 -642h-71l-168 667h50l154 -642l160 642h76l159 -642l155 642h44zM554 746l-15 -31l-209 77l21 48z" />
    <glyph glyph-name="Ygrave" unicode="&#x1ef2;" horiz-adv-x="527" 
d="M499 667l-214 -404v-263h-43v263l-214 404h50l188 -359l185 359h48zM378 746l-15 -31l-209 77l21 48z" />
    <glyph glyph-name="aringacute" unicode="&#x1fb;" horiz-adv-x="454" 
d="M389 0h-41v36c-13 -7 -70 -46 -154 -46c-91 0 -153 55 -153 140c0 152 192 155 278 155h29v26c0 35 4 77 -25 106c-16 16 -42 34 -100 34c-76 0 -130 -38 -132 -40l-21 30c3 4 64 48 159 48c66 0 99 -21 122 -44c29 -29 38 -60 38 -133v-312zM348 72v177h-35
c-130 0 -229 -24 -229 -120c0 -49 32 -101 120 -101c75 0 140 42 144 44zM322 625c0 -52 -43 -95 -95 -95s-95 43 -95 95c0 55 44 95 95 95c54 0 95 -44 95 -95zM287 625c0 35 -28 60 -60 60s-59 -28 -59 -60s27 -59 59 -59c34 0 60 27 60 59zM339 807l-209 -77l-15 31
l203 94z" />
    <glyph glyph-name="aeacute" unicode="&#x1fd;" horiz-adv-x="774" 
d="M729 266c0 -8 -1 -19 -2 -30h-350c0 -123 64 -204 176 -204c83 0 142 41 142 41l20 -34c-5 -5 -68 -48 -165 -48c-93 0 -142 48 -157 66c-18 -18 -88 -65 -184 -65c-104 0 -164 58 -164 134c0 135 138 148 260 148h31v37c0 35 4 77 -25 106c-16 16 -42 34 -100 34
c-76 0 -130 -38 -132 -40l-21 30c3 4 64 48 159 48c66 0 99 -21 122 -44c19 -19 28 -40 32 -55c11 20 59 98 177 98c102 0 181 -79 181 -222zM687 274c0 85 -42 178 -139 178c-87 0 -163 -67 -169 -178h308zM370 88c-28 50 -35 91 -35 148h-32c-88 0 -210 -6 -210 -110
c0 -57 43 -93 113 -93c103 0 159 52 164 55zM566 622l-209 -77l-15 31l203 94z" />
    <glyph glyph-name="ccircumflex" unicode="&#x109;" horiz-adv-x="453" 
d="M421 36c-10 -8 -71 -45 -156 -45c-126 0 -220 86 -220 236c0 153 92 261 233 261c83 0 132 -39 137 -44l-21 -31c-8 5 -47 35 -119 35c-114 0 -187 -88 -187 -212c0 -126 76 -204 179 -204c79 0 128 33 135 37zM416 580l-19 -30l-127 67l-127 -67l-21 30l148 90z" />
    <glyph glyph-name="cdotaccent" unicode="&#x10b;" horiz-adv-x="453" 
d="M421 36c-10 -8 -71 -45 -156 -45c-126 0 -220 86 -220 236c0 153 92 261 233 261c83 0 132 -39 137 -44l-21 -31c-8 5 -47 35 -119 35c-114 0 -187 -88 -187 -212c0 -126 76 -204 179 -204c79 0 128 33 135 37zM305 609c0 -20 -15 -36 -35 -36s-36 16 -36 36s16 35 36 35
s35 -15 35 -35z" />
    <glyph glyph-name="eng" unicode="&#x14b;" horiz-adv-x="490" 
d="M425 305v-369c0 -64 -9 -99 -36 -126c-18 -18 -50 -35 -89 -35s-60 10 -63 11l10 34c8 -3 22 -9 47 -9c35 0 50 8 67 25c18 18 23 55 23 93v357c0 63 0 106 -30 136c-20 20 -51 28 -85 28c-72 0 -143 -45 -156 -53v-397h-41v477h41v-41c8 6 77 52 160 52
c55 0 89 -16 111 -38c36 -36 41 -73 41 -145z" />
    <glyph glyph-name="ldot" unicode="&#x140;" horiz-adv-x="319" 
d="M113 0h-41v719h41v-719zM283 346c0 -19 -16 -35 -35 -35s-35 16 -35 35s16 35 35 35s35 -16 35 -35z" />
    <glyph glyph-name="jcircumflex" unicode="&#x135;" horiz-adv-x="184" 
d="M112 -64c0 -64 -9 -99 -36 -126c-18 -18 -50 -35 -89 -35s-60 10 -63 11l10 34c8 -3 22 -9 47 -9c35 0 50 8 67 25c18 18 23 55 23 93v548h41v-541zM238 580l-19 -30l-127 67l-127 -67l-21 30l148 90z" />
    <glyph glyph-name="ibreve" unicode="&#x12d;" horiz-adv-x="185" 
d="M113 0h-41v477h41v-477zM221 667c-7 -70 -54 -114 -129 -114s-121 44 -128 114h40c6 -41 37 -67 88 -67s82 26 89 67h40z" />
    <glyph glyph-name="itilde" unicode="&#x129;" horiz-adv-x="185" 
d="M113 0h-41v477h41v-477zM240 615c-11 -11 -38 -40 -93 -40c-36 0 -73 22 -112 22c-34 0 -48 -11 -64 -22l-25 29c24 20 46 39 89 39c37 0 76 -24 113 -24c44 0 60 19 68 25z" />
    <glyph glyph-name="hbar" unicode="&#x127;" horiz-adv-x="490" 
d="M270 572h-157v-136c8 6 77 52 160 52c55 0 89 -16 111 -38c36 -36 41 -73 41 -145v-305h-41v286c0 63 0 106 -30 136c-20 20 -51 28 -85 28c-72 0 -143 -45 -156 -53v-397h-41v572h-83v35h83v112h41v-112h157v-35z" />
    <glyph glyph-name="hcircumflex" unicode="&#x125;" horiz-adv-x="490" 
d="M425 0h-41v286c0 63 0 106 -30 136c-20 20 -51 28 -85 28c-72 0 -143 -45 -156 -53v-397h-41v719h41v-283c8 6 77 52 160 52c55 0 89 -16 111 -38c36 -36 41 -73 41 -145v-305zM239 822l-19 -30l-127 67l-127 -67l-21 30l148 90z" />
    <glyph glyph-name="gdotaccent" unicode="&#x121;" horiz-adv-x="506" 
d="M434 -10c0 -90 -10 -132 -43 -165c-42 -42 -91 -50 -149 -50c-102 0 -163 50 -168 55l21 31c7 -4 64 -48 146 -48c64 0 97 17 121 41c29 29 30 64 30 151v43c-8 -5 -65 -49 -146 -49c-116 0 -201 92 -201 235c0 148 98 254 232 254c89 0 148 -34 157 -39v-459zM392 88
v337c-7 3 -49 25 -118 25c-114 0 -187 -89 -187 -216c0 -115 62 -197 161 -197c77 0 136 47 144 51zM313 609c0 -20 -15 -36 -35 -36s-36 16 -36 36s16 35 36 35s35 -15 35 -35z" />
    <glyph glyph-name="gcircumflex" unicode="&#x11d;" horiz-adv-x="506" 
d="M434 -10c0 -90 -10 -132 -43 -165c-42 -42 -91 -50 -149 -50c-102 0 -163 50 -168 55l21 31c7 -4 64 -48 146 -48c64 0 97 17 121 41c29 29 30 64 30 151v43c-8 -5 -65 -49 -146 -49c-116 0 -201 92 -201 235c0 148 98 254 232 254c89 0 148 -34 157 -39v-459zM392 88
v337c-7 3 -49 25 -118 25c-114 0 -187 -89 -187 -216c0 -115 62 -197 161 -197c77 0 136 47 144 51zM426 580l-19 -30l-127 67l-127 -67l-21 30l148 90z" />
    <glyph glyph-name="ebreve" unicode="&#x115;" horiz-adv-x="485" 
d="M440 266c0 -8 -1 -19 -2 -30h-350c0 -123 64 -204 176 -204c83 0 142 41 142 41l20 -34c-5 -5 -72 -48 -165 -48c-135 0 -216 98 -216 244c0 156 83 253 214 253c102 0 181 -79 181 -222zM398 274c0 85 -42 178 -139 178c-87 0 -163 -67 -169 -178h308zM385 667
c-7 -70 -54 -114 -129 -114s-121 44 -128 114h40c6 -41 37 -67 88 -67s82 26 89 67h40z" />
    <glyph glyph-name="obreve" unicode="&#x14f;" horiz-adv-x="510" 
d="M465 232c0 -149 -81 -243 -211 -243c-127 0 -209 95 -209 250c0 152 79 249 213 249c127 0 207 -94 207 -256zM422 236c0 129 -72 216 -167 216c-103 0 -167 -85 -167 -212c0 -129 72 -214 167 -214c106 0 167 82 167 210zM383 667c-7 -70 -54 -114 -129 -114
s-121 44 -128 114h40c6 -41 37 -67 88 -67s82 26 89 67h40z" />
    <glyph glyph-name="oslashacute" unicode="&#x1ff;" horiz-adv-x="510" 
d="M371 622l-209 -77l-15 31l203 94zM465 232c0 -149 -81 -243 -211 -243c-57 0 -92 19 -99 23l-34 -57l-33 20l35 59c-49 42 -78 114 -78 205c0 152 79 249 213 249c43 0 82 -11 112 -31l33 57l34 -19l-37 -64c41 -43 65 -113 65 -199zM422 236c0 62 -18 117 -46 154
l-200 -342c7 -5 32 -22 79 -22c106 0 167 82 167 210zM348 419c-26 21 -58 33 -93 33c-103 0 -167 -85 -167 -212c0 -71 26 -135 58 -167z" />
    <glyph glyph-name="scircumflex" unicode="&#x15d;" horiz-adv-x="406" 
d="M354 127c0 -88 -66 -138 -168 -138c-91 0 -149 40 -152 44l19 33c15 -10 66 -40 129 -40c80 0 129 36 129 97c0 22 -7 42 -27 62c-45 45 -149 50 -201 102c-16 16 -31 40 -31 81c0 75 68 120 151 120c82 0 131 -35 135 -38l-19 -32c-9 6 -55 34 -112 34
c-60 0 -113 -30 -113 -83c0 -28 9 -41 22 -54c45 -45 149 -50 203 -104c23 -23 35 -48 35 -84zM350 580l-19 -30l-127 67l-127 -67l-21 30l148 90z" />
    <glyph glyph-name="tbar" unicode="&#x167;" horiz-adv-x="354" 
d="M305 282h-157v-131c0 -71 -4 -123 79 -123c37 0 62 12 70 15l13 -33c-9 -4 -35 -20 -87 -20c-44 0 -71 11 -91 31c-29 29 -25 81 -25 128v133h-83v35h83v125h-83v35h83v136h41v-136h157v-35h-157v-125h157v-35z" />
    <glyph glyph-name="utilde" unicode="&#x169;" horiz-adv-x="490" 
d="M418 0h-41v41c-13 -8 -69 -51 -161 -51c-35 0 -77 10 -110 43c-40 40 -41 89 -41 155v289h41v-293c0 -48 -2 -93 29 -124c23 -23 50 -33 86 -33c82 0 149 48 156 52v398h41v-477zM386 615c-11 -11 -38 -40 -93 -40c-36 0 -73 22 -112 22c-34 0 -48 -11 -64 -22l-25 29
c24 20 46 39 89 39c37 0 76 -24 113 -24c44 0 60 19 68 25z" />
    <glyph glyph-name="ubreve" unicode="&#x16d;" horiz-adv-x="490" 
d="M418 0h-41v41c-13 -8 -69 -51 -161 -51c-35 0 -77 10 -110 43c-40 40 -41 89 -41 155v289h41v-293c0 -48 -2 -93 29 -124c23 -23 50 -33 86 -33c82 0 149 48 156 52v398h41v-477zM371 667c-7 -70 -54 -114 -129 -114s-121 44 -128 114h40c6 -41 37 -67 88 -67
s82 26 89 67h40z" />
    <glyph glyph-name="wacute" unicode="&#x1e83;" horiz-adv-x="730" 
d="M689 477l-141 -477h-56l-130 451l-134 -451h-57l-135 477h44l121 -439l131 439h65l126 -439l124 439h42zM474 622l-209 -77l-15 31l203 94z" />
    <glyph glyph-name="wgrave" unicode="&#x1e81;" horiz-adv-x="730" 
d="M689 477l-141 -477h-56l-130 451l-134 -451h-57l-135 477h44l121 -439l131 439h65l126 -439l124 439h42zM474 576l-15 -31l-209 77l21 48z" />
    <glyph glyph-name="ygrave" unicode="&#x1ef3;" horiz-adv-x="468" 
d="M441 477l-188 -519c-21 -57 -43 -106 -71 -134c-39 -39 -85 -49 -121 -49c-44 0 -75 12 -79 14l12 36c7 -2 28 -11 66 -11c32 0 65 11 87 33c33 33 53 92 72 139l-196 491h47l172 -434l154 434h45zM346 576l-15 -31l-209 77l21 48z" />
    <glyph glyph-name="zacute" unicode="&#x17a;" horiz-adv-x="452" 
d="M395 0h-351v34l292 408h-276v35h324v-33l-288 -407h299v-37zM338 622l-209 -77l-15 31l203 94z" />
    <glyph glyph-name="Aringacutesmall" horiz-adv-x="470" 
d="M330 645c0 -52 -43 -95 -95 -95s-95 43 -95 95c0 55 44 95 95 95c54 0 95 -44 95 -95zM295 645c0 35 -28 60 -60 60s-59 -28 -59 -60s27 -59 59 -59c34 0 60 27 60 59zM457 0h-46l-60 155h-237l-59 -155h-42l198 514h47zM336 193l-104 274l-104 -274h208zM344 830
l-209 -77l-15 31l203 94z" />
    <glyph glyph-name="AEacutesmall" unicode="&#xf670;" horiz-adv-x="700" 
d="M628 0h-284v154h-194l-89 -154h-48l310 514h299v-37h-237v-189h222v-36h-222v-214h243v-38zM344 191v290l-173 -290h173zM594 640l-209 -77l-15 31l203 94z" />
    <glyph glyph-name="Ccircumflexsmall" unicode="&#xf672;" horiz-adv-x="476" 
d="M455 38c-9 -11 -71 -47 -163 -47c-135 0 -241 96 -241 261c0 172 114 270 250 270c99 0 140 -35 145 -40l-22 -32c-3 2 -42 31 -118 31c-122 0 -211 -83 -211 -224c0 -139 77 -225 202 -225c87 0 134 37 137 38zM443 598l-19 -30l-127 67l-127 -67l-21 30l148 90z" />
    <glyph glyph-name="Cdotaccentsmall" unicode="&#xf674;" horiz-adv-x="476" 
d="M455 38c-9 -11 -71 -47 -163 -47c-135 0 -241 96 -241 261c0 172 114 270 250 270c99 0 140 -35 145 -40l-22 -32c-3 2 -42 31 -118 31c-122 0 -211 -83 -211 -224c0 -139 77 -225 202 -225c87 0 134 37 137 38zM336 627c0 -20 -15 -36 -35 -36s-36 16 -36 36
s16 35 36 35s35 -15 35 -35z" />
    <glyph glyph-name="Ebrevesmall" unicode="&#xf677;" horiz-adv-x="412" 
d="M360 0h-282v514h276v-37h-235v-189h220v-36h-220v-214h241v-38zM344 688c-7 -70 -54 -114 -129 -114s-121 44 -128 114h40c6 -41 37 -67 88 -67s82 26 89 67h40z" />
    <glyph glyph-name="Gcircumflexsmall" unicode="&#xf67e;" horiz-adv-x="521" 
d="M462 37c-7 -5 -57 -46 -165 -46c-146 0 -246 98 -246 261c0 172 114 270 250 270c99 0 140 -35 145 -40l-22 -32c-3 2 -42 31 -118 31c-122 0 -211 -83 -211 -224c0 -140 75 -226 211 -226c73 0 111 23 115 26v158h-123v35h164v-213zM443 598l-19 -30l-127 67l-127 -67
l-21 30l148 90z" />
    <glyph glyph-name="Gdotaccentsmall" unicode="&#xf680;" horiz-adv-x="521" 
d="M462 37c-7 -5 -57 -46 -165 -46c-146 0 -246 98 -246 261c0 172 114 270 250 270c99 0 140 -35 145 -40l-22 -32c-3 2 -42 31 -118 31c-122 0 -211 -83 -211 -224c0 -140 75 -226 211 -226c73 0 111 23 115 26v158h-123v35h164v-213zM336 627c0 -20 -15 -36 -35 -36
s-36 16 -36 36s16 35 36 35s35 -15 35 -35z" />
    <glyph glyph-name="Hbarsmall" unicode="&#xf681;" horiz-adv-x="520" 
d="M442 0h-42v252h-280v-252h-42v381h-83v38h83v95h42v-95h280v95h42v-95h83v-38h-83v-381zM120 289h280v92h-280v-92z" />
    <glyph glyph-name="Hcircumflexsmall" unicode="&#xf682;" horiz-adv-x="520" 
d="M442 0h-42v252h-280v-252h-42v514h42v-225h280v225h42v-514zM407 598l-19 -30l-127 67l-127 -67l-21 30l148 90z" />
    <glyph glyph-name="Itildesmall" unicode="&#xf687;" horiz-adv-x="198" 
d="M120 0h-42v514h42v-514zM246 633c-11 -11 -38 -40 -93 -40c-36 0 -73 22 -112 22c-34 0 -48 -11 -64 -22l-25 29c24 20 46 39 89 39c37 0 76 -24 113 -24c44 0 60 19 68 25z" />
    <glyph glyph-name="Ibrevesmall" unicode="&#xf683;" horiz-adv-x="198" 
d="M120 0h-42v514h42v-514zM228 688c-7 -70 -54 -114 -129 -114s-121 44 -128 114h40c6 -41 37 -67 88 -67s82 26 89 67h40z" />
    <glyph glyph-name="Idotaccentsmall" unicode="&#xf6ad;" horiz-adv-x="198" 
d="M120 0h-42v514h42v-514zM134 627c0 -20 -15 -36 -35 -36s-36 16 -36 36s16 35 36 35s35 -15 35 -35z" />
    <glyph glyph-name="Jcircumflexsmall" unicode="&#xf688;" horiz-adv-x="287" 
d="M217 154c0 -63 0 -101 -30 -131c-20 -20 -49 -32 -77 -32c-57 0 -92 25 -100 33l19 32c5 -3 33 -26 78 -26c20 0 36 5 48 17c23 23 20 57 20 87v380h42v-360zM343 598l-19 -30l-127 67l-127 -67l-21 30l148 90z" />
    <glyph glyph-name="Ldotsmall" unicode="&#xf68d;" horiz-adv-x="383" 
d="M353 0h-275v514h42v-476h233v-38zM271 270c0 -19 -16 -35 -35 -35s-35 16 -35 35s16 35 35 35s35 -16 35 -35z" />
    <glyph glyph-name="Engsmall" unicode="&#xf67b;" horiz-adv-x="521" 
d="M401 -1l-284 455l3 -454h-42v514h49l278 -446l-3 446h41v-576c0 -63 0 -101 -30 -131c-20 -20 -49 -32 -77 -32c-57 0 -92 25 -100 33l19 32c5 -3 33 -26 78 -26c20 0 36 5 48 17c23 23 20 57 20 87v81z" />
    <glyph glyph-name="Obrevesmall" unicode="&#xf691;" horiz-adv-x="571" 
d="M520 257c0 -154 -95 -266 -238 -266c-130 0 -231 109 -231 258c0 158 98 272 239 272c132 0 230 -109 230 -264zM474 262c0 134 -82 222 -191 222c-114 0 -186 -88 -186 -224s81 -231 188 -231c111 0 189 86 189 233zM415 667c-7 -70 -54 -114 -129 -114
s-121 44 -128 114h40c6 -41 37 -67 88 -67s82 26 89 67h40z" />
    <glyph glyph-name="Oslashacutesmall" unicode="&#xf694;" horiz-adv-x="500" 
d="M520 257c0 -154 -95 -266 -238 -266c-41 0 -78 11 -111 30l-44 -73l-34 20l47 75c-54 46 -89 119 -89 206c0 158 98 272 239 272c66 0 105 -25 121 -36l48 80l34 -22l-51 -82c13 -13 78 -78 78 -204zM474 262c0 67 -21 123 -55 162l-227 -368c6 -4 42 -27 93 -27
c111 0 189 86 189 233zM390 451c-17 13 -56 33 -107 33c-114 0 -186 -88 -186 -224c0 -76 25 -139 66 -180zM389 640l-209 -77l-15 31l203 94z" />
    <glyph glyph-name="Scircumflexsmall" unicode="&#xf69a;" horiz-adv-x="415" 
d="M360 142c0 -84 -53 -151 -164 -151c-94 0 -149 52 -154 56l25 33c6 -4 57 -49 127 -49c92 0 124 54 124 105c0 26 -10 46 -27 63c-51 52 -151 60 -201 110c-10 11 -33 34 -33 84c0 75 62 129 154 129c90 0 129 -42 144 -58l-24 -26c-10 9 -45 46 -117 46
c-68 0 -116 -39 -116 -89c0 -30 10 -44 22 -56c43 -43 145 -51 199 -106c27 -27 41 -56 41 -91zM358 598l-19 -30l-127 67l-127 -67l-21 30l148 90z" />
    <glyph glyph-name="Tbarsmall" unicode="&#xf69c;" horiz-adv-x="434" 
d="M360 252h-122v-252h-42v252h-121v36h121v189h-165v37h372v-37h-165v-189h122v-36z" />
    <glyph glyph-name="Utildesmall" unicode="&#xf6a4;" horiz-adv-x="503" 
d="M433 211c0 -69 3 -122 -46 -171c-36 -36 -87 -49 -135 -49c-56 0 -108 19 -140 52c-39 40 -42 79 -42 152v319h41v-343c0 -50 7 -77 32 -103c26 -26 67 -39 111 -39c39 0 78 12 100 34c39 40 38 77 38 138v313h41v-303zM396 633c-11 -11 -38 -40 -93 -40
c-36 0 -73 22 -112 22c-34 0 -48 -11 -64 -22l-25 29c24 20 46 39 89 39c37 0 76 -24 113 -24c44 0 60 19 68 25z" />
    <glyph glyph-name="Ubrevesmall" unicode="&#xf69f;" horiz-adv-x="503" 
d="M433 211c0 -69 3 -122 -46 -171c-36 -36 -87 -49 -135 -49c-56 0 -108 19 -140 52c-39 40 -42 79 -42 152v319h41v-343c0 -50 7 -77 32 -103c26 -26 67 -39 111 -39c39 0 78 12 100 34c39 40 38 77 38 138v313h41v-303zM378 667c-7 -70 -54 -114 -129 -114
s-121 44 -128 114h40c6 -41 37 -67 88 -67s82 26 89 67h40z" />
    <glyph glyph-name="Wgravesmall" unicode="&#xf6a8;" horiz-adv-x="731" 
d="M692 514l-135 -514h-64l-127 481l-128 -481h-64l-135 514h47l122 -482l127 482h66l127 -482l121 482h43zM488 594l-15 -31l-209 77l21 48z" />
    <glyph glyph-name="Wacutesmall" unicode="&#xf6a5;" horiz-adv-x="731" 
d="M692 514l-135 -514h-64l-127 481l-128 -481h-64l-135 514h47l122 -482l127 482h66l127 -482l121 482h43zM478 640l-209 -77l-15 31l203 94z" />
    <glyph glyph-name="Ygravesmall" unicode="&#xf6aa;" horiz-adv-x="435" 
d="M411 514l-174 -312v-202h-40v202l-173 312h48l148 -270l146 270h45zM332 594l-15 -31l-209 77l21 48z" />
    <glyph glyph-name="Zacutesmall" unicode="&#xf6ab;" horiz-adv-x="455" 
d="M405 0h-359v31l303 446h-285v37h334v-31l-300 -445h307v-38zM345 640l-209 -77l-15 31l203 94z" />
    <glyph glyph-name="afii10017" unicode="&#x410;" horiz-adv-x="567" 
d="M554 0h-48l-74 205h-302l-74 -205h-43l243 667h53zM418 245l-137 377l-136 -377h273z" />
    <glyph glyph-name="afii10018" unicode="&#x411;" horiz-adv-x="543" 
d="M186 0h-98v667h338v-39h-295v-272h110c89 0 245 -8 245 -170c0 -46 -16 -92 -50 -126c-59 -59 -131 -60 -250 -60zM442 184c0 31 -9 64 -38 93c-44 44 -126 42 -195 42h-78v-282h75c91 0 150 2 201 53c25 25 35 67 35 94z" />
    <glyph glyph-name="afii10019" unicode="&#x412;" horiz-adv-x="543" 
d="M486 186c0 -46 -16 -92 -50 -126c-59 -59 -131 -60 -250 -60h-98v667h145c79 0 136 -4 182 -50c33 -32 48 -72 48 -125c0 -68 -37 -135 -118 -150c108 -15 141 -77 141 -156zM419 496c0 37 -14 70 -35 91c-38 38 -81 43 -161 43h-92v-274h85c72 0 130 13 169 52
c23 23 34 54 34 88zM442 184c0 31 -9 64 -38 93c-44 44 -126 42 -195 42h-78v-282h75c91 0 150 2 201 53c25 25 35 67 35 94z" />
    <glyph glyph-name="afii10020" unicode="&#x413;" horiz-adv-x="462" 
d="M88 0v667h340v-39h-297v-628h-43z" />
    <glyph glyph-name="afii10021" unicode="&#x414;" horiz-adv-x="618" 
d="M48 -122v163c20 1 35 7 47 19c18 17 29 39 42 94l119 513h263v-624h43v-165h-43v124h-428v-124h-43zM125 43h351v585h-186l-112 -482c-7 -31 -22 -93 -53 -103z" />
    <glyph glyph-name="afii10022" unicode="&#x415;" horiz-adv-x="488" 
d="M434 0h-346v667h338v-39h-295v-258h277v-37h-277v-293h303v-40z" />
    <glyph glyph-name="afii10024" unicode="&#x416;" horiz-adv-x="819" 
d="M430 0h-43v323l-317 -323h-58l333 337l-319 330h53l308 -317v317h43v-317l308 317h53l-318 -328l334 -339h-60l-317 323v-323z" />
    <glyph glyph-name="afii10025" unicode="&#x417;" horiz-adv-x="500" 
d="M443 181c0 -123 -99 -192 -221 -192c-133 0 -188 58 -196 69l27 30c1 -1 61 -57 161 -57c110 0 184 52 184 144c0 138 -134 147 -238 147h-4v40h16c71 0 133 5 179 50c24 23 37 56 37 91c0 79 -57 134 -155 134c-95 0 -160 -56 -165 -61l-28 30c3 5 77 72 190 72
c130 0 202 -71 202 -175c0 -77 -50 -151 -142 -162c92 -6 153 -63 153 -160z" />
    <glyph glyph-name="afii10026" unicode="&#x418;" horiz-adv-x="620" 
d="M492 608l-345 -608h-59v667h42l-1 -617l350 617h53v-667h-41z" />
    <glyph glyph-name="afii10027" unicode="&#x419;" horiz-adv-x="620" 
d="M147 0l345 608l-1 -608h41v667h-53l-350 -617l1 617h-42v-667h59zM439 857c0 -70 -54 -112 -129 -112s-128 42 -128 112h40c2 -41 37 -69 88 -69s86 28 89 69h40z" />
    <glyph glyph-name="afii10028" unicode="&#x41a;" horiz-adv-x="520" 
d="M508 0h-60l-317 323v-323h-43v667h43v-317l308 317h53l-318 -328z" />
    <glyph glyph-name="afii10029" unicode="&#x41b;" horiz-adv-x="600" 
d="M512 0h-43v628h-192l-107 -479c-18 -76 -35 -156 -157 -156v41c79 1 94 42 113 123l113 510h273v-667z" />
    <glyph glyph-name="afii10030" unicode="&#x41c;" horiz-adv-x="864" 
d="M784 0h-49l-67 602l-221 -602h-36l-222 602l-66 -602h-43l78 667h51l224 -599l219 599h53z" />
    <glyph glyph-name="afii10031" unicode="&#x41d;" horiz-adv-x="624" 
d="M536 0h-43v332h-362v-332h-43v667h43v-296h362v296h43v-667z" />
    <glyph glyph-name="afii10032" unicode="&#x41e;" horiz-adv-x="690" 
d="M633 335c0 -201 -118 -346 -293 -346c-160 0 -283 141 -283 336c0 206 121 354 294 354c162 0 282 -142 282 -344zM586 340c0 179 -103 299 -243 299c-145 0 -239 -120 -239 -301c0 -180 103 -309 241 -309c141 0 241 113 241 311z" />
    <glyph glyph-name="afii10033" unicode="&#x41f;" horiz-adv-x="624" 
d="M536 0h-43v628h-362v-628h-43v667h448v-667z" />
    <glyph glyph-name="afii10034" unicode="&#x420;" horiz-adv-x="526" 
d="M473 478c0 -80 -33 -120 -57 -144c-20 -20 -63 -50 -164 -50h-121v-284h-43v667h142c75 0 142 -3 189 -50c36 -36 54 -87 54 -139zM429 481c0 50 -19 87 -44 112c-37 37 -86 37 -165 37h-89v-309h116c86 0 118 21 136 39c24 24 46 59 46 121z" />
    <glyph glyph-name="afii10035" unicode="&#x421;" horiz-adv-x="597" 
d="M571 48c-10 -10 -80 -59 -205 -59c-171 0 -309 123 -309 339c0 224 146 351 317 351c115 0 177 -44 187 -52l-21 -35c-8 5 -69 44 -161 44c-150 0 -277 -112 -277 -300c0 -185 105 -305 270 -305c103 0 166 44 176 50z" />
    <glyph glyph-name="afii10036" unicode="&#x422;" horiz-adv-x="526" 
d="M492 628h-208v-628h-43v628h-207v39h458v-39z" />
    <glyph glyph-name="afii10037" unicode="&#x423;" horiz-adv-x="557" 
d="M531 667l-213 -461c-59 -132 -95 -211 -210 -211c-42 0 -75 11 -79 14l12 37c3 -1 29 -11 65 -11c95 0 118 67 172 189l-218 443h50l194 -397l179 397h48z" />
    <glyph glyph-name="afii10038" unicode="&#x424;" horiz-adv-x="657" 
d="M605 328c0 -143 -96 -244 -257 -251v-77h-38v77c-161 7 -258 107 -258 255s92 248 258 259v76h38v-76c157 -8 257 -106 257 -263zM96 337c0 -134 83 -210 214 -222v438c-136 -9 -214 -87 -214 -216zM561 333c0 142 -94 211 -213 220v-438c127 8 213 70 213 218z" />
    <glyph glyph-name="afii10039" unicode="&#x425;" horiz-adv-x="543" 
d="M514 0h-53l-193 312l-191 -312h-48l212 348l-198 319h54l172 -284l169 284h50l-195 -320z" />
    <glyph glyph-name="afii10040" unicode="&#x426;" horiz-adv-x="635" 
d="M536 0h-448v667h43v-627h362v627h43v-627h43v-162h-43v122z" />
    <glyph glyph-name="afii10041" unicode="&#x427;" horiz-adv-x="615" 
d="M527 667v-667h-44v329c-4 -3 -64 -45 -178 -45c-103 0 -152 43 -172 63c-44 44 -56 91 -56 199v121h43v-129c0 -61 -1 -120 45 -167c34 -33 84 -50 141 -50c120 0 174 48 177 50v296h44z" />
    <glyph glyph-name="afii10042" unicode="&#x428;" horiz-adv-x="816" 
d="M728 0h-640v667h43v-627h250v627h43v-627h261v627h43v-667z" />
    <glyph glyph-name="afii10043" unicode="&#x429;" horiz-adv-x="827" 
d="M728 0h-640v667h43v-627h250v627h43v-627h261v627h43v-627h43v-162h-43v122z" />
    <glyph glyph-name="afii10044" unicode="&#x42a;" horiz-adv-x="661" 
d="M308 0h-98v628h-176v39h219v-311h110c89 0 245 -8 245 -170c0 -46 -16 -92 -50 -126c-59 -59 -131 -60 -250 -60zM564 184c0 31 -9 64 -38 93c-44 44 -126 42 -195 42h-78v-282h75c91 0 150 2 201 53c25 25 35 67 35 94z" />
    <glyph glyph-name="afii10045" unicode="&#x42b;" horiz-adv-x="705" 
d="M617 0h-43v667h43v-667zM186 0h-98v667h43v-311h110c89 0 245 -8 245 -170c0 -46 -16 -92 -50 -126c-59 -59 -131 -60 -250 -60zM442 184c0 31 -9 64 -38 93c-44 44 -126 42 -195 42h-78v-282h75c91 0 150 2 201 53c25 25 35 67 35 94z" />
    <glyph glyph-name="afii10046" unicode="&#x42c;" horiz-adv-x="539" 
d="M186 0h-98v667h43v-311h110c89 0 245 -8 245 -170c0 -46 -16 -92 -50 -126c-59 -59 -131 -60 -250 -60zM442 184c0 31 -9 64 -38 93c-44 44 -126 42 -195 42h-78v-282h75c91 0 150 2 201 53c25 25 35 67 35 94z" />
    <glyph glyph-name="afii10047" unicode="&#x42d;" horiz-adv-x="597" 
d="M26 47l23 33c4 -2 70 -50 177 -50c155 0 259 106 268 279h-345v39h346c-8 185 -134 287 -277 287c-94 0 -156 -36 -163 -41l-20 35c11 13 78 49 187 49c171 0 318 -127 318 -350c0 -215 -137 -340 -308 -340c-130 0 -199 51 -206 59z" />
    <glyph glyph-name="afii10048" unicode="&#x42e;" horiz-adv-x="926" 
d="M869 335c0 -201 -118 -346 -293 -346c-160 0 -283 141 -283 336v7h-162v-332h-43v667h43v-296h164c17 182 132 308 292 308c162 0 282 -142 282 -344zM822 340c0 179 -103 299 -243 299c-145 0 -239 -120 -239 -301c0 -180 103 -309 241 -309c141 0 241 113 241 311z" />
    <glyph glyph-name="afii10049" unicode="&#x42f;" horiz-adv-x="540" 
d="M76 0h-48l98 220c16 36 39 95 96 100c-27 3 -68 16 -103 51c-30 31 -43 70 -43 117c0 54 15 95 53 133c48 48 120 46 191 46h132v-667h-43v306h-83c-68 0 -93 -8 -119 -34c-24 -24 -50 -88 -57 -104zM120 492c0 -41 12 -73 38 -99c51 -51 123 -50 203 -50h48v287h-101
c-67 0 -110 -1 -147 -38c-31 -31 -41 -66 -41 -100z" />
    <glyph glyph-name="afii10050" unicode="&#x490;" horiz-adv-x="462" 
d="M386 667v111h42v-150h-297v-628h-43v667h298z" />
    <glyph glyph-name="afii10055" unicode="&#x406;" horiz-adv-x="219" 
d="M131 0h-43v667h43v-667z" />
    <glyph glyph-name="afii10051" unicode="&#x402;" horiz-adv-x="687" 
d="M615 121c0 -270 -30 -348 -197 -348c-28 0 -53 6 -58 9l11 39c9 -3 28 -6 47 -6c139 0 153 72 153 297c0 161 -21 201 -43 223c-23 23 -58 28 -96 28c-79 0 -157 -40 -182 -58v-305h-43v628h-173v39h395v-39h-179v-279c53 31 121 54 183 54c58 0 98 -13 127 -42
c24 -24 55 -75 55 -240z" />
    <glyph glyph-name="afii10099" unicode="&#x452;" horiz-adv-x="529" 
d="M423 -71v357c0 63 0 106 -30 136c-20 20 -51 28 -85 28c-72 0 -143 -45 -156 -53v-397h-41v602h-87v35h87v82h41v-82h169v-35h-169v-166c8 6 77 52 160 52c55 0 89 -16 111 -38c36 -36 41 -73 41 -145v-369c0 -64 -9 -99 -36 -126c-18 -18 -50 -35 -89 -35s-60 9 -64 12
l12 32c7 -3 20 -8 46 -8c35 0 50 8 67 25c18 18 23 55 23 93z" />
    <glyph glyph-name="afii10052" unicode="&#x403;" horiz-adv-x="462" 
d="M88 667v-667h43v628h297v39h-340zM384 791l-209 -77l-15 31l203 94z" />
    <glyph glyph-name="afii10100" unicode="&#x453;" horiz-adv-x="393" 
d="M113 0h-41v477h303v-35h-262v-442zM340 622l-209 -77l-15 31l203 94z" />
    <glyph glyph-name="afii10103" unicode="&#x456;" horiz-adv-x="185" 
d="M123 646c0 -17 -13 -31 -30 -31s-31 14 -31 31s14 30 31 30s30 -13 30 -30zM113 0h-41v477h41v-477z" />
    <glyph glyph-name="afii10098" unicode="&#x491;" horiz-adv-x="393" 
d="M72 477h265v104h38v-139h-262v-442h-41v477z" />
    <glyph glyph-name="afii10057" unicode="&#x408;" horiz-adv-x="344" 
d="M264 193c0 -60 3 -123 -40 -166c-24 -24 -57 -38 -94 -38c-75 0 -117 33 -120 35l19 34c6 -3 42 -30 93 -30c36 0 54 9 69 24c29 29 30 70 30 106v509h43v-474z" />
    <glyph glyph-name="afii10053" unicode="&#x404;" horiz-adv-x="597" 
d="M571 48c-10 -10 -80 -59 -205 -59c-171 0 -309 123 -309 339c0 224 146 351 317 351c115 0 177 -44 187 -52l-21 -35c-8 5 -69 44 -161 44c-147 0 -272 -107 -277 -287h346v-39h-345c9 -171 112 -279 269 -279c103 0 166 44 176 50z" />
    <glyph glyph-name="afii10101" unicode="&#x454;" horiz-adv-x="453" 
d="M346 221h-257c3 -115 79 -189 178 -189c79 0 128 33 135 37l19 -33c-10 -8 -71 -45 -156 -45c-126 0 -220 86 -220 236c0 153 92 261 233 261c83 0 132 -39 137 -44l-21 -31c-8 5 -47 35 -119 35c-108 0 -180 -80 -186 -192h257v-35z" />
    <glyph glyph-name="afii10056" unicode="&#x407;" horiz-adv-x="219" 
d="M129 0h-43v667h43v-667zM215 767c0 -20 -15 -36 -35 -36s-36 16 -36 36s16 35 36 35s35 -15 35 -35zM75 767c0 -20 -15 -36 -35 -36s-36 16 -36 36s16 35 36 35s35 -15 35 -35z" />
    <glyph glyph-name="afii10104" unicode="&#x457;" horiz-adv-x="185" 
d="M113 0h-41v477h41v-477zM198 609c0 -20 -15 -36 -35 -36s-36 16 -36 36s16 35 36 35s35 -15 35 -35zM58 609c0 -20 -15 -36 -35 -36s-36 16 -36 36s16 35 36 35s35 -15 35 -35z" />
    <glyph glyph-name="afii10058" unicode="&#x409;" horiz-adv-x="920" 
d="M512 667v-296h93c92 0 163 0 214 -51c23 -23 48 -65 48 -133c0 -47 -16 -93 -50 -127c-59 -59 -131 -60 -250 -60h-98v628h-192l-107 -479c-18 -76 -35 -156 -157 -156v41c79 1 94 42 113 123l113 510h273zM823 186c0 146 -107 146 -215 146h-96v-293h75
c91 0 150 1 201 52c25 25 35 65 35 95z" />
    <glyph glyph-name="afii10106" unicode="&#x459;" horiz-adv-x="677" 
d="M333 442h-144l-77 -341c-16 -72 -48 -106 -119 -106v33c61 0 70 30 86 102l79 347h216v-207h65c111 0 202 -7 202 -137c0 -104 -65 -133 -175 -133h-133v442zM598 132c0 101 -65 101 -160 101h-64v-195h82c74 0 142 0 142 94z" />
    <glyph glyph-name="afii10059" unicode="&#x40a;" horiz-adv-x="944" 
d="M891 187c0 -47 -16 -93 -50 -127c-59 -59 -131 -60 -250 -60h-98v332h-362v-332h-43v667h43v-296h362v296h43v-296h93c92 0 163 0 214 -51c23 -23 48 -65 48 -133zM847 186c0 146 -107 146 -215 146h-96v-293h75c91 0 150 1 201 52c25 25 35 65 35 95z" />
    <glyph glyph-name="afii10107" unicode="&#x45a;" horiz-adv-x="728" 
d="M649 132c0 101 -65 101 -160 101h-64v-195h82c74 0 142 0 142 94zM384 0v235h-271v-235h-41v477h41v-207h271v207h41v-207h65c111 0 202 -7 202 -137c0 -104 -65 -133 -175 -133h-133z" />
    <glyph glyph-name="afii10105" unicode="&#x458;" horiz-adv-x="184" 
d="M122 645c0 -17 -13 -30 -30 -30s-31 13 -31 30s14 30 31 30s30 -13 30 -30zM112 -64c0 -64 -9 -99 -36 -126c-18 -18 -50 -35 -89 -35s-60 10 -63 11l10 34c8 -3 22 -9 47 -9c35 0 50 8 67 25c18 18 23 55 23 93v548h41v-541z" />
    <glyph glyph-name="afii10054" unicode="&#x405;" horiz-adv-x="503" 
d="M440 180c0 -108 -67 -191 -204 -191c-112 0 -177 62 -185 69l25 33c7 -5 73 -62 157 -62c107 0 162 61 162 148c0 35 -16 65 -38 87c-65 65 -184 79 -249 144c-24 24 -40 57 -40 105c0 96 74 166 188 166c118 0 170 -64 176 -70l-27 -27c-7 6 -51 59 -145 59
c-89 0 -151 -55 -151 -127c0 -35 13 -58 32 -77c61 -61 184 -74 250 -140c29 -29 49 -66 49 -117z" />
    <glyph glyph-name="afii10060" unicode="&#x40b;" horiz-adv-x="669" 
d="M603 0h-43v221c0 81 -22 142 -136 142s-172 -47 -174 -49v-314h-43v628h-173v39h395v-39h-179v-268c4 3 67 44 178 44c142 0 175 -83 175 -184v-220z" />
    <glyph glyph-name="afii10108" unicode="&#x45b;" horiz-adv-x="529" 
d="M152 602v-166c8 6 77 52 160 52c55 0 89 -16 111 -38c36 -36 41 -73 41 -145v-305h-41v286c0 63 0 106 -30 136c-20 20 -51 28 -85 28c-72 0 -143 -45 -156 -53v-397h-41v602h-87v35h87v82h41v-82h169v-35h-169z" />
    <glyph glyph-name="afii10061" unicode="&#x40c;" horiz-adv-x="520" 
d="M508 0h-60l-317 323v-323h-43v667h43v-317l308 317h53l-318 -328zM384 791l-209 -77l-15 31l203 94z" />
    <glyph glyph-name="afii10109" unicode="&#x45c;" horiz-adv-x="441" 
d="M424 0h-58l-253 242v-242h-41v477h41v-224l228 224h56l-237 -227zM339 622l-209 -77l-15 31l203 94z" />
    <glyph glyph-name="afii10102" unicode="&#x455;" horiz-adv-x="406" 
d="M354 127c0 -88 -66 -138 -168 -138c-91 0 -149 40 -152 44l19 33c15 -10 66 -40 129 -40c80 0 129 36 129 97c0 22 -7 42 -27 62c-45 45 -149 50 -201 102c-16 16 -31 40 -31 81c0 75 68 120 151 120c82 0 131 -35 135 -38l-19 -32c-9 6 -55 34 -112 34
c-60 0 -113 -30 -113 -83c0 -28 9 -41 22 -54c45 -45 149 -50 203 -104c23 -23 35 -48 35 -84z" />
    <glyph glyph-name="afii10062" unicode="&#x40e;" horiz-adv-x="557" 
d="M427 857c0 -70 -54 -112 -129 -112s-128 42 -128 112h40c2 -41 37 -69 88 -69s86 28 89 69h40zM531 667l-213 -461c-59 -132 -95 -211 -210 -211c-42 0 -75 11 -79 14l12 37c3 -1 29 -11 65 -11c95 0 118 67 172 189l-218 443h50l194 -397l179 397h48z" />
    <glyph glyph-name="afii10110" unicode="&#x45e;" horiz-adv-x="468" 
d="M441 477l-188 -519c-21 -57 -43 -106 -71 -134c-39 -39 -85 -49 -121 -49c-44 0 -75 12 -79 14l12 36c7 -2 28 -11 66 -11c32 0 65 11 87 33c33 33 53 92 72 139l-196 491h47l172 -434l154 434h45zM366 667c0 -70 -54 -112 -129 -112s-128 42 -128 112h40
c2 -41 37 -69 88 -69s86 28 89 69h40z" />
    <glyph glyph-name="afii10145" unicode="&#x40f;" horiz-adv-x="624" 
d="M536 0h-203v-122h-42v122h-203v667h43v-627h362v627h43v-667z" />
    <glyph glyph-name="afii10193" unicode="&#x45f;" horiz-adv-x="497" 
d="M384 477h41v-477h-157v-122h-40v122h-156v477h41v-439h271v439z" />
    <glyph glyph-name="afii10023" unicode="&#x401;" horiz-adv-x="488" 
d="M434 0h-346v667h338v-39h-295v-258h277v-37h-277v-293h303v-40zM366 767c0 -20 -15 -36 -35 -36s-36 16 -36 36s16 35 36 35s35 -15 35 -35zM226 767c0 -20 -15 -36 -35 -36s-36 16 -36 36s16 35 36 35s35 -15 35 -35z" />
    <glyph glyph-name="afii10071" unicode="&#x451;" horiz-adv-x="485" 
d="M440 266c0 -8 -1 -19 -2 -30h-350c0 -123 64 -204 176 -204c83 0 142 41 142 41l20 -34c-5 -5 -72 -48 -165 -48c-135 0 -216 98 -216 244c0 156 83 253 214 253c102 0 181 -79 181 -222zM398 274c0 85 -42 178 -139 178c-87 0 -163 -67 -169 -178h308zM358 609
c0 -20 -15 -36 -35 -36s-36 16 -36 36s16 35 36 35s35 -15 35 -35zM218 609c0 -20 -15 -36 -35 -36s-36 16 -36 36s16 35 36 35s35 -15 35 -35z" />
    <glyph glyph-name="afii10097" unicode="&#x44f;" horiz-adv-x="451" 
d="M117 352c0 -100 77 -103 150 -103h71v193h-99c-76 0 -122 -28 -122 -90zM183 226c-50 3 -106 36 -106 121c0 125 111 130 187 130h115v-477h-41v214h-61c-78 0 -100 -17 -136 -95l-53 -119h-46l70 155c26 59 49 65 71 71z" />
    <glyph glyph-name="afii10065" unicode="&#x430;" horiz-adv-x="454" 
d="M389 0h-41v36c-13 -7 -70 -46 -154 -46c-91 0 -153 55 -153 140c0 152 192 155 278 155h29v26c0 35 4 77 -25 106c-16 16 -42 34 -100 34c-76 0 -130 -38 -132 -40l-21 30c3 4 64 48 159 48c66 0 99 -21 122 -44c29 -29 38 -60 38 -133v-312zM348 72v177h-35
c-130 0 -229 -24 -229 -120c0 -49 32 -101 120 -101c75 0 140 42 144 44z" />
    <glyph glyph-name="afii10066" unicode="&#x431;" horiz-adv-x="476" 
d="M88 297c0 -206 60 -268 150 -268c94 0 150 69 150 210c0 127 -58 212 -152 212c-63 0 -118 -42 -143 -65c-2 -16 -5 -49 -5 -89zM45 291c0 178 20 248 80 313c62 66 150 68 270 95l8 -35c-101 -37 -287 -11 -307 -232c11 11 60 57 139 57c124 0 196 -89 196 -252
c0 -145 -53 -247 -195 -247c-114 0 -191 66 -191 301z" />
    <glyph glyph-name="afii10067" unicode="&#x432;" horiz-adv-x="432" 
d="M304 248c32 -8 86 -30 86 -115c0 -114 -86 -133 -179 -133h-139v477h134c85 0 170 -24 170 -117c0 -84 -55 -108 -72 -112zM347 132c0 100 -84 97 -160 97h-74v-191h74c97 0 160 14 160 94zM334 359c0 75 -65 83 -156 83h-65v-178h65c71 0 156 1 156 95z" />
    <glyph glyph-name="afii10068" unicode="&#x433;" horiz-adv-x="393" 
d="M113 0h-41v477h303v-35h-262v-442z" />
    <glyph glyph-name="afii10069" unicode="&#x434;" horiz-adv-x="488" 
d="M100 38h257v404h-145l-77 -338c-6 -27 -15 -61 -35 -66zM398 477v-439h40v-160h-40v124h-326v-124h-40v161c13 1 30 4 40 14c13 12 17 26 25 58l84 366h217z" />
    <glyph glyph-name="afii10070" unicode="&#x435;" horiz-adv-x="485" 
d="M440 266c0 -8 -1 -19 -2 -30h-350c0 -123 64 -204 176 -204c83 0 142 41 142 41l20 -34c-5 -5 -72 -48 -165 -48c-135 0 -216 98 -216 244c0 156 83 253 214 253c102 0 181 -79 181 -222zM398 274c0 85 -42 178 -139 178c-87 0 -163 -67 -169 -178h308z" />
    <glyph glyph-name="afii10072" unicode="&#x436;" horiz-adv-x="694" 
d="M325 477h41v-224l228 224h56l-236 -227l263 -250h-58l-253 242v-242h-41v242l-253 -242h-55l262 248l-238 229h56l228 -224v224z" />
    <glyph glyph-name="afii10073" unicode="&#x437;" horiz-adv-x="395" 
d="M350 133c0 -93 -75 -144 -168 -144c-94 0 -140 39 -150 50l24 30c14 -12 55 -43 120 -43c76 0 131 29 131 105c0 79 -71 97 -160 97h-28v37h34c63 0 146 1 146 96c0 55 -45 92 -113 92c-58 0 -111 -40 -122 -50l-24 29c10 12 64 57 148 57c94 0 153 -48 153 -126
c0 -79 -50 -107 -79 -115c37 -11 88 -36 88 -115z" />
    <glyph glyph-name="afii10074" unicode="&#x438;" horiz-adv-x="497" 
d="M386 409l-273 -409h-41v477h40l-1 -409l273 409h41v-477h-40z" />
    <glyph glyph-name="afii10075" unicode="&#x439;" horiz-adv-x="497" 
d="M378 667c0 -70 -54 -112 -129 -112s-128 42 -128 112h40c2 -41 37 -69 88 -69s86 28 89 69h40zM113 0l273 409l-1 -409h40v477h-41l-273 -409l1 409h-40v-477h41z" />
    <glyph glyph-name="afii10076" unicode="&#x43a;" horiz-adv-x="441" 
d="M424 0h-58l-253 242v-242h-41v477h41v-224l228 224h56l-237 -227z" />
    <glyph glyph-name="afii10077" unicode="&#x43b;" horiz-adv-x="446" 
d="M333 442h-144l-77 -341c-16 -72 -38 -106 -119 -106v33c61 0 70 30 86 102l79 347h216v-477h-41v442z" />
    <glyph glyph-name="afii10078" unicode="&#x43c;" horiz-adv-x="633" 
d="M569 0h-43l-45 405l-147 -405h-37l-151 405l-42 -405h-40l56 477h43l155 -416l149 416h46z" />
    <glyph glyph-name="afii10079" unicode="&#x43d;" horiz-adv-x="497" 
d="M113 235v-235h-41v477h41v-207h271v207h41v-477h-41v235h-271z" />
    <glyph glyph-name="afii10080" unicode="&#x43e;" horiz-adv-x="510" 
d="M465 232c0 -149 -81 -243 -211 -243c-127 0 -209 95 -209 250c0 152 79 249 213 249c127 0 207 -94 207 -256zM422 236c0 129 -72 216 -167 216c-103 0 -167 -85 -167 -212c0 -129 72 -214 167 -214c106 0 167 82 167 210z" />
    <glyph glyph-name="afii10081" unicode="&#x43f;" horiz-adv-x="497" 
d="M113 0h-41v477h353v-477h-41v442h-271v-442z" />
    <glyph glyph-name="afii10082" unicode="&#x440;" horiz-adv-x="506" 
d="M461 249c0 -152 -94 -258 -232 -258c-64 0 -106 26 -116 33v-236h-41v689h41v-38c7 6 59 49 142 49c122 0 206 -95 206 -239zM418 252c0 116 -65 199 -167 199c-83 0 -130 -45 -138 -51v-336c7 -4 51 -35 119 -35c113 0 186 90 186 223z" />
    <glyph glyph-name="afii10083" unicode="&#x441;" horiz-adv-x="453" 
d="M421 36c-10 -8 -71 -45 -156 -45c-126 0 -220 86 -220 236c0 153 92 261 233 261c83 0 132 -39 137 -44l-21 -31c-8 5 -47 35 -119 35c-114 0 -187 -88 -187 -212c0 -126 76 -204 179 -204c79 0 128 33 135 37z" />
    <glyph glyph-name="afii10084" unicode="&#x442;" horiz-adv-x="415" 
d="M228 0h-41v442h-169v35h379v-35h-169v-442z" />
    <glyph glyph-name="afii10085" unicode="&#x443;" horiz-adv-x="468" 
d="M441 477l-188 -519c-21 -57 -43 -106 -71 -134c-39 -39 -85 -49 -121 -49c-44 0 -75 12 -79 14l12 36c7 -2 28 -11 66 -11c32 0 65 11 87 33c33 33 53 92 72 139l-196 491h47l172 -434l154 434h45z" />
    <glyph glyph-name="afii10086" unicode="&#x444;" horiz-adv-x="631" 
d="M586 234c0 -139 -97 -235 -249 -245v-202h-40v202c-152 7 -252 104 -252 249c0 140 96 238 252 248v233h40v-233c149 -8 249 -104 249 -252zM89 240c0 -117 87 -201 208 -210v416c-126 -7 -208 -91 -208 -206zM541 235c0 116 -90 199 -204 211v-417c125 9 204 89 204 206
z" />
    <glyph glyph-name="afii10087" unicode="&#x445;" horiz-adv-x="457" 
d="M423 0h-52l-149 216l-149 -216h-49l175 246l-162 231h53l136 -202l139 202h49l-163 -231z" />
    <glyph glyph-name="afii10088" unicode="&#x446;" horiz-adv-x="515" 
d="M384 477h41v-439h40v-160h-40v122h-353v477h41v-439h271v439z" />
    <glyph glyph-name="afii10089" unicode="&#x447;" horiz-adv-x="497" 
d="M384 278v199h41v-477h-41v240c-12 -7 -64 -33 -144 -33c-120 0 -168 55 -168 186v84h41v-88c0 -83 23 -145 127 -145c89 0 146 36 144 34z" />
    <glyph glyph-name="afii10090" unicode="&#x448;" horiz-adv-x="683" 
d="M611 0h-539v477h41v-439h209v439h39v-439h209v439h41v-477z" />
    <glyph glyph-name="afii10091" unicode="&#x449;" horiz-adv-x="701" 
d="M113 477v-439h209v439h39v-439h209v439h41v-439h40v-160h-40v122h-539v477h41z" />
    <glyph glyph-name="afii10092" unicode="&#x44a;" horiz-adv-x="522" 
d="M443 144c0 101 -65 111 -160 111h-64v-217h82c74 0 142 12 142 106zM178 0v442h-160v35h201v-185h65c111 0 202 -17 202 -147c0 -104 -65 -145 -175 -145h-133z" />
    </font>
</defs>
</svg>
