<?xml version="1.0" standalone="no"?>
<!DOCTYPE svg PUBLIC "-//W3C//DTD SVG 1.1//EN" "http://www.w3.org/Graphics/SVG/1.1/DTD/svg11.dtd" >
<svg xmlns="http://www.w3.org/2000/svg" xmlns:xlink="http://www.w3.org/1999/xlink" version="1.1">
<metadata>
Created by FontForge 20190801 at Fri Jun 19 13:08:59 2009
 By Jimmy Wärting
Copyright (c) 2009 by The Foundry. All rights reserved.
</metadata>
<defs>
<font id="FoundrySterlingOT3-Bold" horiz-adv-x="644" >
  <font-face 
    font-family="Foundry Sterling OT3"
    font-weight="700"
    font-stretch="normal"
    units-per-em="1000"
    panose-1="2 0 8 0 4 0 0 2 0 4"
    ascent="765"
    descent="-235"
    x-height="492"
    cap-height="667"
    bbox="-280 -351 1370 1134"
    underline-thickness="50"
    underline-position="-100"
    stemh="114"
    stemv="138"
    unicode-range="U+0020-FFF3"
  />
<missing-glyph horiz-adv-x="726" 
d="M498 -14v569h-270v-569h270zM94 -126v793h538v-793h-538z" />
    <glyph glyph-name="fi" unicode="fi" horiz-adv-x="611" 
d="M550 0h-135v380h-163v-380h-135v380h-80v112h80v24c0 82 10 129 52 171c31 31 72 49 137 49c87 0 139 -43 141 -47l-51 -88c-5 3 -36 24 -71 24c-72 0 -73 -57 -73 -107v-26h298v-492z" />
    <glyph glyph-name="fl" unicode="fl" horiz-adv-x="611" 
d="M550 0h-135v380h-163v-380h-135v380h-80v112h80v24c0 82 10 129 52 171c30 30 74 49 128 49c49 0 79 -14 89 -19l-33 -99c-6 2 -15 7 -33 7c-66 0 -68 -58 -68 -107v-26h163v232h135v-724z" />
    <glyph glyph-name="IJ" unicode="IJ" horiz-adv-x="697" 
d="M213 0h-142v667h142v-667zM632 222c0 -69 0 -137 -52 -189c-30 -30 -79 -49 -142 -49c-85 0 -143 42 -148 46l48 99c9 -4 44 -22 80 -22c25 0 39 5 51 17c18 18 21 40 21 96v447h142v-445z" />
    <glyph glyph-name="ij" unicode="ij" horiz-adv-x="511" 
d="M460 630c0 -43 -34 -77 -77 -77s-77 34 -77 77s34 77 77 77s77 -34 77 -77zM451 -24c0 -69 -6 -118 -52 -164c-33 -33 -89 -45 -130 -45c-54 0 -102 22 -107 28l36 94c8 -3 27 -11 48 -11c18 0 35 2 51 18c11 11 19 24 19 72v524h135v-516zM205 630
c0 -43 -34 -77 -77 -77s-77 34 -77 77s34 77 77 77s77 -34 77 -77zM196 0h-135v492h135v-492z" />
    <glyph glyph-name="IJsmall" unicode="&#xf769;&#xf76a;" horiz-adv-x="641" 
d="M205 0h-138v527h138v-527zM580 192c0 -60 0 -119 -45 -164c-26 -26 -69 -43 -124 -43c-74 0 -125 37 -129 40l46 89c7 -3 33 -18 60 -18c19 0 30 5 38 13c12 12 16 24 16 72v346h138v-335z" />
    <glyph glyph-name="f_f" unicode="ff" horiz-adv-x="741" 
d="M745 689l-51 -88c-5 3 -36 24 -71 24c-72 0 -73 -57 -73 -107v-26h145v-112h-145v-380h-135v380h-163v-380h-135v380h-80v112h80v24c0 82 10 129 52 171c30 30 74 49 128 49c49 0 79 -14 89 -19l-33 -99c-6 2 -15 7 -33 7c-66 0 -68 -58 -68 -107v-26h163v24
c0 82 10 129 52 171c31 31 72 49 137 49c87 0 139 -43 141 -47z" />
    <glyph glyph-name="f_j" unicode="fj" horiz-adv-x="611" 
d="M550 -24c0 -69 -6 -118 -52 -164c-33 -33 -89 -45 -130 -45c-54 0 -102 22 -107 28l36 94c8 -3 27 -11 48 -11c18 0 35 2 51 18c11 11 19 24 19 72v412h-163v-380h-135v380h-80v112h80v24c0 82 10 129 52 171c31 31 72 49 137 49c87 0 139 -43 141 -47l-51 -88
c-5 3 -36 24 -71 24c-72 0 -73 -57 -73 -107v-26h298v-516z" />
    <glyph glyph-name="f_f_i" unicode="ffi" horiz-adv-x="909" 
d="M848 0h-135v380h-163v-380h-135v380h-163v-380h-135v380h-80v112h80v24c0 82 10 129 52 171c30 30 74 49 128 49c49 0 79 -14 89 -19l-33 -99c-6 2 -15 7 -33 7c-66 0 -68 -58 -68 -107v-26h163v24c0 82 10 129 52 171c31 31 72 49 137 49c87 0 139 -43 141 -47l-51 -88
c-5 3 -36 24 -71 24c-72 0 -73 -57 -73 -107v-26h298v-492z" />
    <glyph glyph-name="f_f_l" unicode="ffl" horiz-adv-x="909" 
d="M848 0h-135v380h-163v-380h-135v380h-163v-380h-135v380h-80v112h80v24c0 82 10 129 52 171c30 30 74 49 128 49c49 0 79 -14 89 -19l-33 -99c-6 2 -15 7 -33 7c-66 0 -68 -58 -68 -107v-26h163v24c0 82 10 129 52 171c30 30 74 49 128 49c49 0 79 -14 89 -19l-33 -99
c-6 2 -15 7 -33 7c-66 0 -68 -58 -68 -107v-26h163v232h135v-724z" />
    <glyph glyph-name="f_t" unicode="ft" horiz-adv-x="747" 
d="M252 518v-26h163v137h135v-137h140v-112h-140v-197c0 -39 3 -84 62 -84c31 0 53 9 62 12l34 -93c-4 -3 -51 -32 -124 -32c-44 0 -94 11 -127 44c-42 42 -42 89 -42 158v192h-163v-380h-135v380h-80v112h80v24c0 82 10 129 52 171c30 30 74 49 128 49c49 0 79 -14 89 -19
l-33 -99c-6 2 -15 7 -33 7c-66 0 -68 -58 -68 -107z" />
    <glyph glyph-name=".notdef" horiz-adv-x="726" 
d="M498 -14v569h-270v-569h270zM94 -126v793h538v-793h-538z" />
    <glyph glyph-name="Eth" unicode="&#xd0;" horiz-adv-x="732" 
d="M686 339c0 -90 -31 -179 -91 -239c-97 -97 -222 -100 -349 -100h-137v286h-100v112h100v269h184c114 0 212 1 302 -89c58 -58 91 -146 91 -239zM545 343c0 71 -19 120 -57 158c-57 57 -122 55 -199 55h-40v-158h174v-112h-174v-173h67c150 0 229 81 229 230z" />
    <glyph glyph-name="eth" unicode="&#xf0;" horiz-adv-x="549" 
d="M509 296c0 -189 -86 -310 -237 -310c-138 0 -232 108 -232 260c0 149 90 247 231 247c20 0 40 -1 76 -13c-11 28 -40 71 -57 83l-128 -52l-31 76l81 32c-17 10 -65 24 -116 30l9 95c85 -11 173 -40 223 -76l112 43l31 -72l-69 -28c70 -69 107 -192 107 -315zM371 293
c0 30 -1 39 -4 61c-21 15 -46 24 -76 24c-72 0 -116 -48 -116 -137c0 -86 43 -137 99 -137c95 0 97 123 97 189z" />
    <glyph glyph-name="Lslash" unicode="&#x141;" horiz-adv-x="564" 
d="M545 0h-400v224l-56 -43l-80 100l136 102v284h142v-188l92 69l78 -100l-170 -127v-205h258v-116z" />
    <glyph glyph-name="lslash" unicode="&#x142;" horiz-adv-x="422" 
d="M413 450l-134 -99v-351h-135v257l-56 -43l-79 99l135 102v309h135v-217l54 42z" />
    <glyph glyph-name="Scaron" unicode="&#x160;" horiz-adv-x="549" 
d="M499 197c0 -126 -96 -213 -242 -213c-142 0 -218 69 -225 77l62 96c14 -9 76 -54 155 -54c65 0 107 32 107 81c0 20 -9 37 -19 47c-42 42 -161 58 -231 128c-27 27 -53 66 -53 126c0 120 97 198 231 198c132 0 204 -67 210 -73l-64 -91c-9 7 -70 50 -137 50
c-59 0 -101 -28 -101 -70c0 -20 6 -29 17 -40c32 -32 169 -62 238 -131c32 -32 52 -69 52 -131zM462 839l-169 -126l-170 132l45 63l125 -71l124 70z" />
    <glyph glyph-name="scaron" unicode="&#x161;" horiz-adv-x="463" 
d="M413 145c0 -98 -75 -159 -195 -159c-112 0 -185 51 -191 56l46 86c10 -5 66 -40 128 -40c60 0 76 24 76 48c0 32 -27 39 -106 72c-43 18 -122 49 -122 143s77 155 193 155c107 0 163 -44 163 -44l-44 -83c-5 3 -62 32 -112 32s-66 -25 -66 -45c0 -33 34 -42 89 -64
c67 -27 141 -57 141 -157zM404 673l-169 -126l-170 132l45 63l125 -71l124 70z" />
    <glyph glyph-name="Yacute" unicode="&#xdd;" horiz-adv-x="610" 
d="M583 667l-210 -401v-266h-136v266l-210 401h144l141 -289l141 289h130zM430 808l-231 -95l-41 73l221 123z" />
    <glyph glyph-name="yacute" unicode="&#xfd;" horiz-adv-x="578" 
d="M551 492l-195 -497c-38 -97 -60 -142 -95 -177c-21 -21 -63 -51 -144 -51c-72 0 -119 29 -123 31l40 96c7 -3 37 -17 76 -17c30 0 51 9 67 25c24 24 41 76 49 98l-206 492h143l132 -345l123 345h133zM416 640l-231 -95l-41 73l221 123z" />
    <glyph glyph-name="Thorn" unicode="&#xde;" horiz-adv-x="587" 
d="M541 347c0 -82 -37 -131 -59 -153c-62 -62 -133 -67 -220 -67h-52v-127h-139v667h139v-117h49c97 0 172 -4 228 -60c35 -35 54 -86 54 -143zM398 341c0 35 -12 61 -25 74c-22 22 -53 24 -108 24h-55v-199h49c73 0 97 8 113 24s26 45 26 77z" />
    <glyph glyph-name="thorn" unicode="&#xfe;" horiz-adv-x="564" 
d="M524 253c0 -151 -112 -267 -245 -267c-56 0 -86 21 -86 21v-224h-132v941h125v-259c6 5 51 41 121 41c126 0 217 -99 217 -253zM387 249c0 86 -41 143 -107 143c-48 0 -79 -26 -87 -31v-246c7 -4 32 -20 69 -20c57 0 125 48 125 154z" />
    <glyph glyph-name="CR" horiz-adv-x="523" 
 />
    <glyph glyph-name="Zcaron" unicode="&#x17d;" horiz-adv-x="571" 
d="M527 0h-483v99l302 454h-289v114h460v-104l-294 -447h304v-116zM442 840l-169 -126l-170 132l45 63l125 -71l124 70z" />
    <glyph glyph-name="zcaron" unicode="&#x17e;" horiz-adv-x="531" 
d="M474 0h-424v92l246 288h-240v112h410v-97l-244 -283h252v-112zM426 673l-169 -126l-170 132l45 63l125 -71l124 70z" />
    <glyph glyph-name="onehalf" unicode="&#xbd;" horiz-adv-x="824" 
d="M282 324h-81v248l-73 -47l-39 57l130 85h63v-343zM744 0h-240v59c40 32 89 78 112 102c25 26 42 51 42 77s-18 44 -46 44c-30 0 -53 -19 -75 -38l-40 48c30 37 74 58 122 58c65 0 117 -43 117 -111c0 -49 -24 -82 -56 -114c-20 -20 -41 -40 -64 -58h128v-67zM671 657
l-458 -701l-69 47l458 700z" />
    <glyph glyph-name="onequarter" unicode="&#xbc;" horiz-adv-x="824" 
d="M282 324h-81v248l-73 -47l-39 57l130 85h63v-343zM671 657l-458 -701l-69 47l458 700zM762 64h-42v-64h-78v64h-167v55l166 224h79v-213h42v-66zM642 130v109l-77 -109h77z" />
    <glyph glyph-name="onesuperior" unicode="&#xb9;" horiz-adv-x="412" 
d="M282 324h-81v248l-73 -47l-39 57l130 85h63v-343z" />
    <glyph glyph-name="threequarters" unicode="&#xbe;" horiz-adv-x="824" 
d="M332 427c0 -68 -51 -112 -135 -112c-74 0 -111 35 -118 43l38 53c8 -5 35 -27 73 -27c41 0 59 19 59 42c0 40 -42 41 -72 41h-20v63h14c22 0 47 -1 64 16c5 5 8 13 8 23c0 18 -17 36 -47 36c-36 0 -64 -24 -71 -30l-41 48c30 36 77 51 123 51c66 0 116 -40 116 -100
c0 -27 -13 -65 -48 -74c40 -4 57 -44 57 -73zM671 657l-458 -701l-69 47l458 700zM762 64h-42v-64h-78v64h-167v55l166 224h79v-213h42v-66zM642 130v109l-77 -109h77z" />
    <glyph glyph-name="threesuperior" unicode="&#xb3;" horiz-adv-x="412" 
d="M332 427c0 -68 -51 -112 -135 -112c-74 0 -111 35 -118 43l38 53c8 -5 35 -27 73 -27c41 0 59 19 59 42c0 40 -42 41 -72 41h-20v63h14c22 0 47 -1 64 16c5 5 8 13 8 23c0 18 -17 36 -47 36c-36 0 -64 -24 -71 -30l-41 48c30 36 77 51 123 51c66 0 116 -40 116 -100
c0 -27 -13 -65 -48 -74c40 -4 57 -44 57 -73z" />
    <glyph glyph-name="twosuperior" unicode="&#xb2;" horiz-adv-x="412" 
d="M327 324h-240v59c40 32 89 78 112 102c25 26 42 51 42 77s-18 44 -46 44c-30 0 -53 -19 -75 -38l-40 48c30 37 74 58 122 58c65 0 117 -43 117 -111c0 -49 -24 -82 -56 -114c-20 -20 -41 -40 -64 -58h128v-67z" />
    <glyph glyph-name="brokenbar" unicode="&#xa6;" horiz-adv-x="282" 
d="M211 362h-140v305h140v-305zM211 -126h-140v306h140v-306z" />
    <glyph glyph-name="minus" unicode="&#x2212;" horiz-adv-x="645" 
d="M596 207h-547v112h547v-112z" />
    <glyph glyph-name="multiply" unicode="&#xd7;" 
d="M581 84l-80 -80l-179 180l-179 -180l-80 80l180 179l-180 179l80 80l179 -180l179 180l80 -80l-180 -179z" />
    <glyph glyph-name="space" unicode=" " horiz-adv-x="237" 
 />
    <glyph glyph-name="exclam" unicode="!" horiz-adv-x="388" 
d="M271 667l-21 -464h-111l-21 464h153zM277 76c0 -46 -36 -83 -82 -83s-83 37 -83 83s37 82 83 82s82 -36 82 -82z" />
    <glyph glyph-name="quotedbl" unicode="&#x22;" horiz-adv-x="407" 
d="M361 667l-18 -253h-109l-18 253h145zM191 667l-18 -253h-109l-18 253h145z" />
    <glyph glyph-name="numbersign" unicode="#" horiz-adv-x="607" 
d="M536 519l-12 -89h-86l-12 -84h87l-12 -89h-87l-23 -164h-86l23 164h-83l-23 -164h-86l23 164h-88l11 89h90l12 84h-90l12 89h90l21 148h86l-21 -148h82l22 148h85l-21 -148h86zM353 430h-84l-12 -84h84z" />
    <glyph glyph-name="dollar" unicode="$" 
d="M549 197c0 -126 -93 -195 -188 -208v-87h-95v84c-115 11 -177 67 -184 75l62 96c10 -6 77 -54 152 -54c69 0 110 32 110 81c0 20 -9 37 -19 47c-42 42 -161 58 -231 128c-27 27 -53 66 -53 126c0 120 94 177 163 191v85h95v-79c114 -7 177 -66 183 -72l-64 -91
c-9 7 -70 50 -137 50c-59 0 -101 -28 -101 -70c0 -12 1 -24 18 -41c32 -32 167 -60 237 -130c32 -32 52 -69 52 -131z" />
    <glyph glyph-name="percent" unicode="%" horiz-adv-x="824" 
d="M358 497c0 -108 -57 -180 -153 -180c-95 0 -151 72 -151 179c0 105 57 178 151 178s153 -73 153 -177zM276 494c0 76 -30 111 -69 111c-40 0 -71 -36 -71 -110c0 -75 28 -110 68 -110c61 0 72 62 72 109zM671 657l-458 -701l-69 47l458 700zM770 173
c0 -108 -57 -180 -153 -180c-95 0 -151 72 -151 179c0 105 57 178 151 178s153 -73 153 -177zM688 170c0 76 -30 111 -69 111c-40 0 -71 -36 -71 -110c0 -75 28 -110 68 -110c61 0 72 62 72 109z" />
    <glyph glyph-name="ampersand" unicode="&#x26;" horiz-adv-x="701" 
d="M648 -1l-12 -1c-62 0 -113 11 -157 56c-55 -44 -127 -67 -198 -67c-133 0 -235 90 -235 209c0 86 54 152 129 186c-32 40 -62 81 -62 131c0 99 90 167 202 167c107 0 188 -59 188 -154c0 -88 -62 -140 -144 -176l120 -128c17 24 40 104 40 154h115
c-3 -128 -55 -212 -71 -237c35 -31 56 -32 85 -33v-107zM377 525c0 33 -21 53 -62 53c-47 0 -74 -28 -74 -62c0 -19 6 -37 46 -84c73 34 90 61 90 93zM398 134l-153 168c-51 -28 -71 -62 -71 -103c0 -56 47 -101 116 -101c36 0 81 14 108 36z" />
    <glyph glyph-name="quotesingle" unicode="'" horiz-adv-x="238" 
d="M192 667l-18 -253h-110l-18 253h146z" />
    <glyph glyph-name="parenleft" unicode="(" horiz-adv-x="441" 
d="M392 -51l-66 -89c-12 7 -260 133 -260 434s248 431 260 438l66 -89c-11 -8 -183 -122 -183 -347s172 -339 183 -347z" />
    <glyph glyph-name="parenright" unicode=")" horiz-adv-x="441" 
d="M375 298c0 -301 -248 -431 -260 -438l-66 89c11 8 183 122 183 347s-172 339 -183 347l66 89c12 -7 260 -133 260 -434z" />
    <glyph glyph-name="asterisk" unicode="*" horiz-adv-x="432" 
d="M383 513l-99 -32l72 -95l-70 -50l-70 88l-70 -88l-70 50l72 95l-99 32l27 82l95 -31v103h90v-103l95 31z" />
    <glyph glyph-name="plus" unicode="+" 
d="M585 207h-207v-207h-112v207h-207v112h207v207h112v-207h207v-112z" />
    <glyph glyph-name="comma" unicode="," horiz-adv-x="321" 
d="M258 101c0 -107 -64 -186 -145 -242l-74 70c25 28 81 82 81 165c0 14 -1 26 -2 40h139c2 -21 1 -26 1 -33z" />
    <glyph glyph-name="hyphen" unicode="-" horiz-adv-x="496" 
d="M422 207h-348v112h348v-112z" />
    <glyph glyph-name="period" unicode="." horiz-adv-x="287" 
d="M226 76c0 -46 -36 -83 -82 -83s-83 37 -83 83s37 82 83 82s82 -36 82 -82z" />
    <glyph glyph-name="slash" unicode="/" horiz-adv-x="514" 
d="M445 667l-307 -827l-97 35l306 827z" />
    <glyph glyph-name="zero" unicode="0" 
d="M599 336c0 -215 -104 -352 -278 -352c-172 0 -276 138 -276 351c0 208 107 348 276 348c170 0 278 -140 278 -347zM460 333c0 158 -56 236 -137 236c-83 0 -140 -82 -140 -236c0 -157 54 -234 136 -234c86 0 141 77 141 234z" />
    <glyph glyph-name="one" unicode="1" 
d="M443 0h-140v503l-147 -97l-64 98l243 163h108v-667z" />
    <glyph glyph-name="two" unicode="2" 
d="M563 0h-471v103c79 63 179 156 227 204c52 52 90 105 90 162c0 59 -42 98 -104 98c-77 0 -145 -64 -153 -71l-71 82c2 3 81 105 238 105c129 0 229 -80 229 -211c0 -96 -47 -158 -112 -223c-79 -79 -145 -127 -153 -133h280v-116z" />
    <glyph glyph-name="three" unicode="3" 
d="M555 197c0 -126 -97 -213 -261 -213c-145 0 -216 68 -222 75l63 89c8 -5 65 -49 145 -49c89 0 131 40 131 96c0 88 -91 91 -157 91h-29v111h16c49 0 100 -2 138 36c13 13 20 29 20 52c0 46 -41 83 -107 83c-75 0 -134 -48 -142 -54l-67 79c3 3 74 90 231 90
c128 0 223 -77 223 -188c0 -62 -39 -138 -107 -149c81 -10 125 -78 125 -149z" />
    <glyph glyph-name="four" unicode="4" 
d="M595 129h-82v-129h-133v129h-324v97l318 441h139v-426h82v-112zM380 241v258l-177 -258h177z" />
    <glyph glyph-name="five" unicode="5" 
d="M553 230c0 -150 -101 -246 -269 -246c-138 0 -211 71 -215 76l64 88c12 -7 66 -48 144 -48c82 0 137 43 137 118c0 67 -40 119 -138 119c-58 0 -101 -29 -105 -31l-44 27v334h404v-114h-276v-118c4 2 32 10 75 10c131 0 223 -86 223 -215z" />
    <glyph glyph-name="six" unicode="6" 
d="M580 230c0 -144 -101 -246 -249 -246c-163 0 -266 132 -266 337c0 218 109 362 293 362c137 0 202 -60 207 -65l-58 -90c-6 4 -60 43 -138 43c-123 0 -173 -82 -177 -192c32 51 104 80 164 80c132 0 224 -96 224 -229zM451 225c0 72 -47 119 -113 119
c-72 0 -122 -50 -122 -119c0 -76 52 -124 121 -124c67 0 114 50 114 124z" />
    <glyph glyph-name="seven" unicode="7" 
d="M571 560l-260 -560h-150l262 551h-347v116h495v-107z" />
    <glyph glyph-name="eight" unicode="8" 
d="M578 192c0 -130 -102 -208 -255 -208s-257 79 -257 209c0 70 38 135 107 156c-60 21 -86 79 -86 138c0 119 95 195 234 195c140 0 237 -76 237 -194c0 -68 -33 -121 -86 -139c70 -23 106 -83 106 -157zM429 484c0 46 -36 86 -107 86c-67 0 -106 -42 -106 -85
c0 -49 38 -88 109 -88c67 0 104 38 104 87zM449 196c0 56 -43 96 -126 96c-86 0 -127 -40 -127 -95c0 -56 44 -100 128 -100c82 0 125 43 125 99z" />
    <glyph glyph-name="nine" unicode="9" 
d="M579 346c0 -218 -109 -362 -293 -362c-137 0 -202 60 -207 65l58 90c6 -4 60 -43 138 -43c123 0 173 82 177 192c-32 -51 -104 -80 -164 -80c-132 0 -224 96 -224 229c0 144 101 246 249 246c163 0 266 -132 266 -337zM428 442c0 76 -52 124 -121 124
c-67 0 -114 -50 -114 -124c0 -72 47 -119 113 -119c72 0 122 50 122 119z" />
    <glyph glyph-name="colon" unicode=":" horiz-adv-x="287" 
d="M226 413c0 -46 -36 -83 -82 -83s-83 37 -83 83s37 82 83 82s82 -36 82 -82zM226 76c0 -46 -36 -83 -82 -83s-83 37 -83 83s37 82 83 82s82 -36 82 -82z" />
    <glyph glyph-name="semicolon" unicode=";" horiz-adv-x="321" 
d="M260 413c0 -46 -36 -83 -82 -83s-83 37 -83 83s37 82 83 82s82 -36 82 -82zM258 101c0 -107 -64 -186 -145 -242l-74 70c25 28 81 82 81 165c0 14 -1 26 -2 40h139c2 -21 1 -26 1 -33z" />
    <glyph glyph-name="less" unicode="&#x3c;" horiz-adv-x="645" 
d="M586 100l-44 -100l-483 220v87l483 220l44 -104l-353 -160z" />
    <glyph glyph-name="equal" unicode="=" horiz-adv-x="645" 
d="M596 295h-547v112h547v-112zM596 119h-547v112h547v-112z" />
    <glyph glyph-name="greater" unicode="&#x3e;" horiz-adv-x="645" 
d="M586 220l-483 -220l-44 100l353 163l-353 160l44 104l483 -220v-87z" />
    <glyph glyph-name="question" unicode="?" horiz-adv-x="538" 
d="M489 494c0 -56 -18 -93 -47 -122c-39 -40 -119 -78 -132 -91c-10 -10 -14 -23 -14 -70v-8h-122c-1 6 -4 35 -4 46c0 47 7 73 30 96c32 32 88 53 124 89c11 11 26 30 26 60c0 46 -35 77 -98 77c-72 0 -140 -48 -147 -53l-57 86c5 4 100 79 221 79c131 0 220 -74 220 -189z
M316 76c0 -46 -36 -83 -82 -83s-83 37 -83 83s37 82 83 82s82 -36 82 -82z" />
    <glyph glyph-name="at" unicode="@" horiz-adv-x="808" 
d="M762 410c0 -146 -119 -244 -281 -244c-8 0 -22 1 -30 2l5 36c-39 -27 -74 -40 -104 -40c-76 0 -125 57 -125 133c0 125 103 222 236 222c63 0 115 -22 122 -24l-50 -254c85 14 142 79 142 167c0 111 -94 190 -238 190c-176 0 -303 -122 -303 -292
c0 -147 107 -239 260 -239c111 0 197 58 209 65l42 -63c-10 -7 -103 -82 -262 -82c-191 0 -339 131 -339 321c0 210 171 370 394 370c182 0 322 -113 322 -268zM488 444c-8 1 -17 2 -25 2c-82 0 -150 -67 -150 -147c0 -35 23 -59 52 -59c27 0 62 15 92 44z" />
    <glyph glyph-name="A" unicode="A" horiz-adv-x="659" 
d="M643 0h-146l-49 139h-240l-49 -139h-143l242 667h142zM411 248l-84 268l-84 -268h168z" />
    <glyph glyph-name="B" unicode="B" horiz-adv-x="600" 
d="M551 200c0 -61 -22 -106 -51 -135c-63 -63 -147 -65 -241 -65h-188v667h217c77 0 143 -5 192 -54c39 -39 50 -81 50 -128c0 -116 -80 -139 -93 -144c17 -5 114 -26 114 -141zM390 474c0 83 -67 82 -111 82h-74v-167h19c76 0 166 -10 166 85zM407 200c0 20 -6 42 -21 57
c-25 25 -53 28 -116 28h-65v-172h76c67 0 86 11 104 29c14 14 22 35 22 58z" />
    <glyph glyph-name="C" unicode="C" horiz-adv-x="649" 
d="M625 67c-8 -8 -95 -83 -246 -83c-188 0 -333 130 -333 344c0 222 152 355 351 355c150 0 219 -70 226 -77l-61 -93c-8 5 -62 51 -159 51c-121 0 -215 -85 -215 -227c0 -139 81 -230 208 -230c88 0 159 49 170 55z" />
    <glyph glyph-name="D" unicode="D" horiz-adv-x="694" 
d="M648 339c0 -90 -31 -179 -91 -239c-97 -97 -222 -100 -349 -100h-137v667h184c114 0 212 1 302 -89c58 -58 91 -146 91 -239zM507 343c0 71 -19 120 -57 158c-57 57 -122 55 -199 55h-40v-443h67c150 0 229 81 229 230z" />
    <glyph glyph-name="E" unicode="E" horiz-adv-x="531" 
d="M483 0h-412v667h404v-114h-264v-155h248v-112h-248v-170h272v-116z" />
    <glyph glyph-name="F" unicode="F" horiz-adv-x="515" 
d="M469 553h-258v-155h245v-112h-245v-286h-140v667h398v-114z" />
    <glyph glyph-name="G" unicode="G" horiz-adv-x="697" 
d="M633 53c-4 -2 -103 -69 -254 -69c-188 0 -333 130 -333 344c0 222 152 355 351 355c150 0 219 -70 226 -77l-61 -93c-8 5 -62 51 -159 51c-121 0 -215 -85 -215 -227c0 -139 82 -234 213 -234c57 0 91 13 99 16v115h-125v108h258v-289z" />
    <glyph glyph-name="H" unicode="H" horiz-adv-x="670" 
d="M599 0h-142v289h-244v-289h-142v667h142v-262h244v262h142v-667z" />
    <glyph glyph-name="I" unicode="I" horiz-adv-x="284" 
d="M213 0h-142v667h142v-667z" />
    <glyph glyph-name="J" unicode="J" horiz-adv-x="414" 
d="M349 222c0 -69 0 -137 -52 -189c-30 -30 -79 -49 -142 -49c-85 0 -143 42 -148 46l48 99c9 -4 44 -22 80 -22c25 0 39 5 51 17c18 18 21 40 21 96v447h142v-445z" />
    <glyph glyph-name="K" unicode="K" horiz-adv-x="617" 
d="M603 0h-170l-220 311v-311h-142v667h142v-312l221 312h156l-242 -324z" />
    <glyph glyph-name="L" unicode="L" horiz-adv-x="520" 
d="M471 0h-400v667h142v-551h258v-116z" />
    <glyph glyph-name="M" unicode="M" horiz-adv-x="865" 
d="M810 0h-133l-37 469l-154 -469h-116l-159 469l-31 -469h-125l60 667h152l168 -483l159 483h152z" />
    <glyph glyph-name="N" unicode="N" horiz-adv-x="670" 
d="M599 0h-121l-281 445l3 -445h-129v667h128l274 -442l-3 442h129v-667z" />
    <glyph glyph-name="O" unicode="O" horiz-adv-x="742" 
d="M696 339c0 -216 -134 -355 -324 -355c-194 0 -326 144 -326 355c0 205 132 344 325 344c197 0 325 -144 325 -344zM553 340c0 132 -75 227 -187 227c-107 0 -177 -98 -177 -237c0 -140 80 -227 185 -227c138 0 179 130 179 237z" />
    <glyph glyph-name="P" unicode="P" horiz-adv-x="595" 
d="M541 464c0 -82 -37 -131 -59 -153c-62 -62 -133 -67 -220 -67h-52v-244h-139v667h188c97 0 172 -4 228 -60c35 -35 54 -86 54 -143zM398 458c0 35 -12 61 -25 74c-22 22 -53 24 -108 24h-55v-199h49c73 0 97 8 113 24s26 45 26 77z" />
    <glyph glyph-name="Q" unicode="Q" horiz-adv-x="737" 
d="M698 -121c0 0 -61 -16 -135 -16c-116 0 -200 34 -272 131c-117 22 -245 135 -245 345c0 205 132 344 325 344c197 0 325 -144 325 -344c0 -122 -40 -208 -100 -268c-45 -45 -96 -67 -143 -71c15 -13 47 -34 141 -34c40 0 81 6 86 7zM553 340c0 132 -75 227 -187 227
c-107 0 -177 -98 -177 -237c0 -140 80 -227 185 -227c138 0 179 130 179 237z" />
    <glyph glyph-name="R" unicode="R" horiz-adv-x="597" 
d="M573 0h-150l-81 181c-38 86 -62 83 -116 83h-16v-264h-139v667h171c89 0 167 3 228 -58c31 -31 54 -75 54 -133c0 -82 -47 -155 -147 -170c71 -7 100 -92 123 -143zM383 469c0 27 -9 51 -21 63c-25 25 -59 24 -111 24h-41v-183h56c47 0 70 7 91 28c16 16 26 45 26 68z
" />
    <glyph glyph-name="S" unicode="S" horiz-adv-x="549" 
d="M499 197c0 -126 -96 -213 -242 -213c-142 0 -218 69 -225 77l62 96c14 -9 76 -54 155 -54c65 0 107 32 107 81c0 20 -9 37 -19 47c-42 42 -161 58 -231 128c-27 27 -53 66 -53 126c0 120 97 198 231 198c132 0 204 -67 210 -73l-64 -91c-9 7 -70 50 -137 50
c-59 0 -101 -28 -101 -70c0 -20 6 -29 17 -40c32 -32 169 -62 238 -131c32 -32 52 -69 52 -131z" />
    <glyph glyph-name="T" unicode="T" horiz-adv-x="561" 
d="M534 553h-182v-553h-142v553h-183v114h507v-114z" />
    <glyph glyph-name="U" unicode="U" horiz-adv-x="656" 
d="M591 291c0 -119 -11 -180 -64 -233c-28 -28 -84 -74 -200 -74c-72 0 -144 20 -199 75c-60 60 -63 136 -63 236v372h142v-416c0 -38 3 -82 33 -112c18 -18 50 -31 90 -31c48 0 72 17 91 36c29 29 32 68 32 169v354h138v-376z" />
    <glyph glyph-name="V" unicode="V" horiz-adv-x="643" 
d="M622 667l-232 -667h-138l-231 667h143l158 -501l161 501h139z" />
    <glyph glyph-name="W" unicode="W" horiz-adv-x="911" 
d="M872 667l-155 -667h-147l-111 501l-120 -501h-147l-153 667h138l92 -492l120 492h146l113 -492l97 492h127z" />
    <glyph glyph-name="X" unicode="X" horiz-adv-x="630" 
d="M602 0h-152l-137 234l-139 -234h-146l216 345l-202 322h153l126 -217l130 217h143l-203 -320z" />
    <glyph glyph-name="Y" unicode="Y" horiz-adv-x="610" 
d="M583 667l-210 -401v-266h-136v266l-210 401h144l141 -289l141 289h130z" />
    <glyph glyph-name="Z" unicode="Z" horiz-adv-x="571" 
d="M527 0h-483v99l302 454h-289v114h460v-104l-294 -447h304v-116z" />
    <glyph glyph-name="bracketleft" unicode="[" horiz-adv-x="429" 
d="M363 -126h-269v793h269v-112h-135v-569h135v-112z" />
    <glyph glyph-name="backslash" unicode="\" horiz-adv-x="514" 
d="M473 -125l-97 -35l-307 827l98 35z" />
    <glyph glyph-name="bracketright" unicode="]" horiz-adv-x="429" 
d="M335 -126h-269v112h135v569h-135v112h269v-793z" />
    <glyph glyph-name="asciicircum" unicode="^" horiz-adv-x="643" 
d="M575 242h-122l-129 283l-129 -283h-127l205 425h101z" />
    <glyph glyph-name="underscore" unicode="_" horiz-adv-x="519" 
d="M521 -126h-523v112h523v-112z" />
    <glyph glyph-name="grave" unicode="`" horiz-adv-x="418" 
d="M345 618l-41 -73l-231 95l51 101z" />
    <glyph glyph-name="a" unicode="a" horiz-adv-x="509" 
d="M455 0h-117v35c-9 -6 -61 -46 -139 -46c-98 0 -159 65 -159 158c0 175 214 178 274 178h14c0 30 -1 44 -15 58c-11 11 -33 20 -70 20c-65 0 -124 -32 -131 -36l-45 86c7 6 74 53 187 53c42 0 113 -7 161 -55c41 -41 40 -92 40 -156v-295zM328 121v112h-21
c-87 0 -149 -15 -149 -77c0 -51 43 -65 76 -65c55 0 88 27 94 30z" />
    <glyph glyph-name="b" unicode="b" horiz-adv-x="569" 
d="M529 258c0 -163 -102 -272 -261 -272c-99 0 -195 35 -207 39v699h135v-252c6 3 52 34 121 34c117 0 212 -92 212 -248zM393 257c0 97 -53 140 -107 140c-43 0 -84 -26 -90 -30v-263c6 -2 29 -10 72 -10c77 0 125 64 125 163z" />
    <glyph glyph-name="c" unicode="c" horiz-adv-x="498" 
d="M479 47c-2 -2 -71 -61 -187 -61c-154 0 -252 110 -252 256c0 153 113 264 261 264c104 0 163 -50 170 -60l-54 -83c-7 5 -48 34 -104 34c-90 0 -138 -78 -138 -148c0 -86 44 -152 134 -152c63 0 114 34 118 36z" />
    <glyph glyph-name="d" unicode="d" horiz-adv-x="572" 
d="M511 0h-118v30c-5 -4 -50 -43 -132 -43c-134 0 -221 104 -221 252c0 160 112 267 237 267c55 0 93 -17 99 -19v237h135v-724zM376 123v252c-4 2 -36 20 -75 20c-71 0 -125 -51 -125 -152c0 -95 54 -146 117 -146c43 0 80 23 83 26z" />
    <glyph glyph-name="e" unicode="e" horiz-adv-x="537" 
d="M497 244c0 -21 -2 -35 -2 -42h-324c-2 -36 28 -111 126 -111c62 0 110 25 131 35l44 -86c-3 -3 -78 -54 -187 -54c-160 0 -245 114 -245 257c0 151 96 263 236 263c144 0 221 -102 221 -262zM372 299c0 27 -10 107 -93 107c-61 0 -99 -46 -109 -107h202z" />
    <glyph glyph-name="f" unicode="f" horiz-adv-x="443" 
d="M447 689l-51 -88c-5 3 -36 24 -71 24c-72 0 -73 -57 -73 -107v-26h145v-112h-145v-380h-135v380h-80v112h80v24c0 82 10 129 52 171c31 31 72 49 137 49c87 0 139 -43 141 -47z" />
    <glyph glyph-name="g" unicode="g" horiz-adv-x="570" 
d="M509 7c0 -68 0 -122 -53 -175c-30 -30 -84 -65 -182 -65c-138 0 -213 65 -221 73l54 88c7 -4 71 -49 152 -49c109 0 117 68 117 120v31c-7 -4 -45 -30 -115 -30c-150 0 -221 120 -221 242c0 147 104 264 264 264c105 0 191 -45 205 -52v-447zM376 133v250
c-7 3 -38 15 -74 15c-70 0 -127 -55 -127 -149c0 -92 54 -141 117 -141c43 0 81 22 84 25z" />
    <glyph glyph-name="h" unicode="h" horiz-adv-x="550" 
d="M496 0h-135v259c0 64 -3 96 -21 114c-6 6 -21 18 -53 18c-43 0 -83 -25 -91 -31v-360h-135v724h135v-255c7 4 58 37 119 37c52 0 96 -16 128 -48c55 -55 53 -129 53 -193v-265z" />
    <glyph glyph-name="i" unicode="i" horiz-adv-x="256" 
d="M205 630c0 -43 -34 -77 -77 -77s-77 34 -77 77s34 77 77 77s77 -34 77 -77zM196 0h-135v492h135v-492z" />
    <glyph glyph-name="j" unicode="j" horiz-adv-x="255" 
d="M204 630c0 -43 -34 -77 -77 -77s-77 34 -77 77s34 77 77 77s77 -34 77 -77zM195 -24c0 -69 -6 -118 -52 -164c-33 -33 -89 -45 -130 -45c-54 0 -102 22 -107 28l36 94c8 -3 27 -11 48 -11c18 0 35 2 51 18c11 11 19 24 19 72v524h135v-516z" />
    <glyph glyph-name="k" unicode="k" horiz-adv-x="545" 
d="M533 0h-160l-177 231v-231h-135v724h135v-412l179 180h156l-218 -216z" />
    <glyph glyph-name="l" unicode="l" horiz-adv-x="257" 
d="M196 0h-135v724h135v-724z" />
    <glyph glyph-name="m" unicode="m" horiz-adv-x="827" 
d="M773 0h-135v269c0 59 2 122 -69 122c-42 0 -81 -29 -90 -35c5 -20 6 -26 6 -109v-247h-135v269c0 59 2 122 -69 122c-40 0 -77 -23 -85 -28v-363h-135v492h115v-37c9 7 63 51 138 51c77 0 111 -43 121 -54c9 7 71 54 157 54c42 0 92 -12 125 -45c59 -59 56 -141 56 -254
v-207z" />
    <glyph glyph-name="n" unicode="n" horiz-adv-x="550" 
d="M496 0h-135v259c0 64 -3 96 -21 114c-6 6 -21 18 -53 18c-43 0 -83 -25 -91 -31v-360h-135v492h115v-37c8 6 69 51 139 51c52 0 96 -16 128 -48c56 -56 53 -129 53 -193v-265z" />
    <glyph glyph-name="o" unicode="o" horiz-adv-x="581" 
d="M541 251c0 -157 -104 -265 -256 -265c-145 0 -245 106 -245 257c0 153 105 263 255 263c145 0 246 -107 246 -255zM406 245c0 90 -48 150 -117 150s-114 -59 -114 -147c0 -90 49 -150 119 -150s112 58 112 147z" />
    <glyph glyph-name="p" unicode="p" horiz-adv-x="572" 
d="M532 253c0 -160 -112 -267 -237 -267c-55 0 -93 17 -99 19v-222h-135v709h118v-30c5 4 50 44 132 44c134 0 221 -105 221 -253zM396 249c0 95 -54 146 -117 146c-43 0 -80 -23 -83 -26v-252c4 -2 36 -20 75 -20c71 0 125 51 125 152z" />
    <glyph glyph-name="q" unicode="q" horiz-adv-x="569" 
d="M508 -217h-135v237c-6 -3 -52 -34 -121 -34c-117 0 -212 92 -212 248c0 163 102 272 261 272c99 0 195 -35 207 -39v-684zM373 125v263c-6 2 -29 10 -72 10c-77 0 -125 -64 -125 -163c0 -97 53 -140 107 -140c43 0 84 26 90 30z" />
    <glyph glyph-name="r" unicode="r" horiz-adv-x="411" 
d="M395 493l-31 -102c-4 1 -23 3 -30 3c-82 0 -123 -49 -138 -71v-323h-135v492h115v-62c4 7 65 76 163 76c35 0 53 -12 56 -13z" />
    <glyph glyph-name="s" unicode="s" horiz-adv-x="463" 
d="M413 145c0 -98 -75 -159 -195 -159c-112 0 -185 51 -191 56l46 86c10 -5 66 -40 128 -40c60 0 76 24 76 48c0 32 -27 39 -106 72c-43 18 -122 49 -122 143s77 155 193 155c107 0 163 -44 163 -44l-44 -83c-5 3 -62 32 -112 32s-66 -25 -66 -45c0 -33 34 -42 89 -64
c67 -27 141 -57 141 -157z" />
    <glyph glyph-name="t" unicode="t" horiz-adv-x="437" 
d="M398 18c-4 -3 -51 -32 -124 -32c-44 0 -94 11 -127 44c-42 42 -42 89 -42 158v192h-85v112h85v137h135v-137h140v-112h-140v-197c0 -39 3 -84 62 -84c31 0 53 9 62 12z" />
    <glyph glyph-name="u" unicode="u" horiz-adv-x="550" 
d="M489 0h-115v37c-8 -6 -69 -51 -139 -51c-52 0 -96 16 -128 48c-55 55 -53 129 -53 193v265h135v-259c0 -64 3 -96 21 -114c6 -6 21 -18 53 -18c43 0 83 25 91 31v360h135v-492z" />
    <glyph glyph-name="v" unicode="v" horiz-adv-x="538" 
d="M519 492l-189 -492h-130l-186 492h140l118 -344l116 344h131z" />
    <glyph glyph-name="w" unicode="w" horiz-adv-x="782" 
d="M744 492l-135 -492h-140l-88 337l-84 -337h-136l-132 492h129l79 -345l89 345h121l88 -345l85 345h124z" />
    <glyph glyph-name="x" unicode="x" horiz-adv-x="567" 
d="M543 0h-151l-112 160l-110 -160h-146l180 246l-171 246h153l103 -144l97 144h141l-165 -243z" />
    <glyph glyph-name="y" unicode="y" horiz-adv-x="578" 
d="M551 492l-195 -497c-38 -97 -60 -142 -95 -177c-21 -21 -63 -51 -144 -51c-72 0 -119 29 -123 31l40 96c7 -3 37 -17 76 -17c30 0 51 9 67 25c24 24 41 76 49 98l-206 492h143l132 -345l123 345h133z" />
    <glyph glyph-name="z" unicode="z" horiz-adv-x="531" 
d="M474 0h-424v92l246 288h-240v112h410v-97l-244 -283h252v-112z" />
    <glyph glyph-name="braceleft" unicode="{" horiz-adv-x="434" 
d="M378 -126c-76 0 -172 -4 -230 54c-37 37 -39 84 -39 148v81c0 62 -8 70 -53 78v106c45 8 53 16 53 78v46c0 64 2 111 39 148c58 58 154 54 230 54v-105c-58 -3 -103 -4 -121 -22c-16 -16 -14 -43 -14 -104v-13c0 -38 -2 -135 -66 -135c64 0 66 -97 66 -135v-48
c0 -61 -2 -88 14 -104c18 -18 63 -19 121 -22v-105z" />
    <glyph glyph-name="bar" unicode="|" horiz-adv-x="282" 
d="M211 -126h-140v793h140v-793z" />
    <glyph glyph-name="braceright" unicode="}" horiz-adv-x="434" 
d="M378 235c-45 -8 -53 -16 -53 -78v-81c0 -64 -2 -111 -39 -148c-58 -58 -154 -54 -230 -54v105c58 3 103 4 121 22c16 16 14 43 14 104v48c0 38 2 135 66 135c-64 0 -66 97 -66 135v13c0 61 2 88 -14 104c-18 18 -63 19 -121 22v105c76 0 172 4 230 -54
c37 -37 39 -84 39 -148v-46c0 -62 8 -70 53 -78v-106z" />
    <glyph glyph-name="asciitilde" unicode="~" 
d="M565 274c-7 -10 -57 -87 -140 -87c-81 0 -143 57 -203 57c-41 0 -66 -38 -72 -45l-71 49c6 9 47 89 145 89c84 0 140 -57 199 -57c37 0 60 32 73 47z" />
    <glyph glyph-name="Adieresis" unicode="&#xc4;" horiz-adv-x="659" 
d="M643 0h-146l-49 139h-240l-49 -139h-143l242 667h142zM411 248l-84 268l-84 -268h168zM494 784c0 -39 -31 -70 -70 -70s-70 31 -70 70s31 70 70 70s70 -31 70 -70zM299 784c0 -39 -31 -70 -70 -70s-70 31 -70 70s31 70 70 70s70 -31 70 -70z" />
    <glyph glyph-name="Aring" unicode="&#xc5;" horiz-adv-x="659" 
d="M643 0h-146l-49 139h-240l-49 -139h-143l242 667h142zM411 248l-84 268l-84 -268h168zM437 824c0 -60 -49 -110 -109 -110s-110 50 -110 110s50 109 110 109s109 -49 109 -109zM373 825c0 25 -21 46 -46 46s-46 -21 -46 -46s21 -46 46 -46s46 21 46 46z" />
    <glyph glyph-name="Ccedilla" unicode="&#xc7;" horiz-adv-x="649" 
d="M625 67c-8 -8 -95 -83 -245 -83l-4 -38c5 1 12 3 20 3c55 0 94 -34 94 -86c0 -60 -53 -96 -106 -96c-41 0 -73 16 -83 25l22 44s23 -15 53 -15c40 0 49 25 49 40c0 21 -16 34 -41 34c-21 0 -38 -8 -44 -11l-33 18l14 86c-159 24 -275 149 -275 340c0 222 152 355 351 355
c150 0 219 -70 226 -77l-61 -93c-8 5 -62 51 -159 51c-121 0 -215 -85 -215 -227c0 -139 81 -230 208 -230c88 0 159 49 170 55z" />
    <glyph glyph-name="Eacute" unicode="&#xc9;" horiz-adv-x="531" 
d="M483 0h-412v667h404v-114h-264v-155h248v-112h-248v-170h272v-116zM420 808l-231 -95l-41 73l221 123z" />
    <glyph glyph-name="Ntilde" unicode="&#xd1;" horiz-adv-x="670" 
d="M599 0h-121l-281 445l3 -445h-129v667h128l274 -442l-3 442h129v-667zM510 801c-8 -9 -64 -81 -127 -81c-46 0 -72 32 -108 32c-27 0 -60 -33 -66 -38l-59 59c6 8 62 81 127 81c45 0 72 -31 107 -31c32 0 59 30 67 37z" />
    <glyph glyph-name="Odieresis" unicode="&#xd6;" horiz-adv-x="742" 
d="M696 339c0 -216 -134 -355 -324 -355c-194 0 -326 144 -326 355c0 205 132 344 325 344c197 0 325 -144 325 -344zM553 340c0 132 -75 227 -187 227c-107 0 -177 -98 -177 -237c0 -140 80 -227 185 -227c138 0 179 130 179 237zM541 784c0 -39 -31 -70 -70 -70
s-70 31 -70 70s31 70 70 70s70 -31 70 -70zM346 784c0 -39 -31 -70 -70 -70s-70 31 -70 70s31 70 70 70s70 -31 70 -70z" />
    <glyph glyph-name="Udieresis" unicode="&#xdc;" horiz-adv-x="656" 
d="M591 291c0 -119 -11 -180 -64 -233c-28 -28 -84 -74 -200 -74c-72 0 -144 20 -199 75c-60 60 -63 136 -63 236v372h142v-416c0 -38 3 -82 33 -112c18 -18 50 -31 90 -31c48 0 72 17 91 36c29 29 32 68 32 169v354h138v-376zM495 784c0 -39 -31 -70 -70 -70s-70 31 -70 70
s31 70 70 70s70 -31 70 -70zM300 784c0 -39 -31 -70 -70 -70s-70 31 -70 70s31 70 70 70s70 -31 70 -70z" />
    <glyph glyph-name="aacute" unicode="&#xe1;" horiz-adv-x="509" 
d="M455 0h-117v35c-9 -6 -61 -46 -139 -46c-98 0 -159 65 -159 158c0 175 214 178 274 178h14c0 30 -1 44 -15 58c-11 11 -33 20 -70 20c-65 0 -124 -32 -131 -36l-45 86c7 6 74 53 187 53c42 0 113 -7 161 -55c41 -41 40 -92 40 -156v-295zM328 121v112h-21
c-87 0 -149 -15 -149 -77c0 -51 43 -65 76 -65c55 0 88 27 94 30zM396 640l-231 -95l-41 73l221 123z" />
    <glyph glyph-name="agrave" unicode="&#xe0;" horiz-adv-x="509" 
d="M455 0h-117v35c-9 -6 -61 -46 -139 -46c-98 0 -159 65 -159 158c0 175 214 178 274 178h14c0 30 -1 44 -15 58c-11 11 -33 20 -70 20c-65 0 -124 -32 -131 -36l-45 86c7 6 74 53 187 53c42 0 113 -7 161 -55c41 -41 40 -92 40 -156v-295zM328 121v112h-21
c-87 0 -149 -15 -149 -77c0 -51 43 -65 76 -65c55 0 88 27 94 30zM394 618l-41 -73l-231 95l51 101z" />
    <glyph glyph-name="acircumflex" unicode="&#xe2;" horiz-adv-x="509" 
d="M455 0h-117v35c-9 -6 -61 -46 -139 -46c-98 0 -159 65 -159 158c0 175 214 178 274 178h14c0 30 -1 44 -15 58c-11 11 -33 20 -70 20c-65 0 -124 -32 -131 -36l-45 86c7 6 74 53 187 53c42 0 113 -7 161 -55c41 -41 40 -92 40 -156v-295zM328 121v112h-21
c-87 0 -149 -15 -149 -77c0 -51 43 -65 76 -65c55 0 88 27 94 30zM423 610l-45 -63l-125 71l-124 -70l-45 68l169 126z" />
    <glyph glyph-name="adieresis" unicode="&#xe4;" horiz-adv-x="509" 
d="M455 0h-117v35c-9 -6 -61 -46 -139 -46c-98 0 -159 65 -159 158c0 175 214 178 274 178h14c0 30 -1 44 -15 58c-11 11 -33 20 -70 20c-65 0 -124 -32 -131 -36l-45 86c7 6 74 53 187 53c42 0 113 -7 161 -55c41 -41 40 -92 40 -156v-295zM328 121v112h-21
c-87 0 -149 -15 -149 -77c0 -51 43 -65 76 -65c55 0 88 27 94 30zM420 639c0 -39 -31 -70 -70 -70s-70 31 -70 70s31 70 70 70s70 -31 70 -70zM225 639c0 -39 -31 -70 -70 -70s-70 31 -70 70s31 70 70 70s70 -31 70 -70z" />
    <glyph glyph-name="atilde" unicode="&#xe3;" horiz-adv-x="509" 
d="M455 0h-117v35c-9 -6 -61 -46 -139 -46c-98 0 -159 65 -159 158c0 175 214 178 274 178h14c0 30 -1 44 -15 58c-11 11 -33 20 -70 20c-65 0 -124 -32 -131 -36l-45 86c7 6 74 53 187 53c42 0 113 -7 161 -55c41 -41 40 -92 40 -156v-295zM328 121v112h-21
c-87 0 -149 -15 -149 -77c0 -51 43 -65 76 -65c55 0 88 27 94 30zM439 654c-8 -9 -64 -81 -127 -81c-46 0 -72 32 -108 32c-27 0 -60 -33 -66 -38l-59 59c6 8 62 81 127 81c45 0 72 -31 107 -31c32 0 59 30 67 37z" />
    <glyph glyph-name="aring" unicode="&#xe5;" horiz-adv-x="509" 
d="M455 0h-117v35c-9 -6 -61 -46 -139 -46c-98 0 -159 65 -159 158c0 175 214 178 274 178h14c0 30 -1 44 -15 58c-11 11 -33 20 -70 20c-65 0 -124 -32 -131 -36l-45 86c7 6 74 53 187 53c42 0 113 -7 161 -55c41 -41 40 -92 40 -156v-295zM328 121v112h-21
c-87 0 -149 -15 -149 -77c0 -51 43 -65 76 -65c55 0 88 27 94 30zM363 654c0 -60 -49 -110 -109 -110s-110 50 -110 110s50 109 110 109s109 -49 109 -109zM299 655c0 25 -21 46 -46 46s-46 -21 -46 -46s21 -46 46 -46s46 21 46 46z" />
    <glyph glyph-name="ccedilla" unicode="&#xe7;" horiz-adv-x="498" 
d="M479 47c-2 -2 -71 -61 -189 -61l-3 -31c5 1 12 3 20 3c55 0 94 -34 94 -86c0 -60 -53 -96 -106 -96c-41 0 -73 16 -83 25l22 44s23 -15 53 -15c40 0 49 25 49 40c0 21 -16 34 -41 34c-21 0 -38 -8 -44 -11l-33 18l13 81c-98 21 -191 104 -191 250c0 153 113 264 261 264
c104 0 163 -50 170 -60l-54 -83c-7 5 -48 34 -104 34c-90 0 -138 -78 -138 -148c0 -86 44 -152 134 -152c63 0 114 34 118 36z" />
    <glyph glyph-name="eacute" unicode="&#xe9;" horiz-adv-x="537" 
d="M497 244c0 -21 -2 -35 -2 -42h-324c-2 -36 28 -111 126 -111c62 0 110 25 131 35l44 -86c-3 -3 -78 -54 -187 -54c-160 0 -245 114 -245 257c0 151 96 263 236 263c144 0 221 -102 221 -262zM372 299c0 27 -10 107 -93 107c-61 0 -99 -46 -109 -107h202zM399 640
l-231 -95l-41 73l221 123z" />
    <glyph glyph-name="egrave" unicode="&#xe8;" horiz-adv-x="537" 
d="M497 244c0 -21 -2 -35 -2 -42h-324c-2 -36 28 -111 126 -111c62 0 110 25 131 35l44 -86c-3 -3 -78 -54 -187 -54c-160 0 -245 114 -245 257c0 151 96 263 236 263c144 0 221 -102 221 -262zM372 299c0 27 -10 107 -93 107c-61 0 -99 -46 -109 -107h202zM411 618l-41 -73
l-231 95l51 101z" />
    <glyph glyph-name="ecircumflex" unicode="&#xea;" horiz-adv-x="537" 
d="M497 244c0 -21 -2 -35 -2 -42h-324c-2 -36 28 -111 126 -111c62 0 110 25 131 35l44 -86c-3 -3 -78 -54 -187 -54c-160 0 -245 114 -245 257c0 151 96 263 236 263c144 0 221 -102 221 -262zM372 299c0 27 -10 107 -93 107c-61 0 -99 -46 -109 -107h202zM447 610l-45 -63
l-125 71l-124 -70l-45 68l169 126z" />
    <glyph glyph-name="edieresis" unicode="&#xeb;" horiz-adv-x="537" 
d="M497 244c0 -21 -2 -35 -2 -42h-324c-2 -36 28 -111 126 -111c62 0 110 25 131 35l44 -86c-3 -3 -78 -54 -187 -54c-160 0 -245 114 -245 257c0 151 96 263 236 263c144 0 221 -102 221 -262zM372 299c0 27 -10 107 -93 107c-61 0 -99 -46 -109 -107h202zM444 639
c0 -39 -31 -70 -70 -70s-70 31 -70 70s31 70 70 70s70 -31 70 -70zM249 639c0 -39 -31 -70 -70 -70s-70 31 -70 70s31 70 70 70s70 -31 70 -70z" />
    <glyph glyph-name="iacute" unicode="&#xed;" horiz-adv-x="256" 
d="M196 0h-135v492h135v-492zM264 640l-231 -95l-41 73l221 123z" />
    <glyph glyph-name="igrave" unicode="&#xec;" horiz-adv-x="256" 
d="M196 0h-135v492h135v-492zM264 618l-41 -73l-231 95l51 101z" />
    <glyph glyph-name="icircumflex" unicode="&#xee;" horiz-adv-x="256" 
d="M196 0h-135v492h135v-492zM298 610l-45 -63l-125 71l-124 -70l-45 68l169 126z" />
    <glyph glyph-name="idieresis" unicode="&#xef;" horiz-adv-x="256" 
d="M196 0h-135v492h135v-492zM295 639c0 -39 -31 -70 -70 -70s-70 31 -70 70s31 70 70 70s70 -31 70 -70zM100 639c0 -39 -31 -70 -70 -70s-70 31 -70 70s31 70 70 70s70 -31 70 -70z" />
    <glyph glyph-name="ntilde" unicode="&#xf1;" horiz-adv-x="550" 
d="M496 0h-135v259c0 64 -3 96 -21 114c-6 6 -21 18 -53 18c-43 0 -83 -25 -91 -31v-360h-135v492h115v-37c8 6 69 51 139 51c52 0 96 -16 128 -48c56 -56 53 -129 53 -193v-265zM464 654c-8 -9 -64 -81 -127 -81c-46 0 -72 32 -108 32c-27 0 -60 -33 -66 -38l-59 59
c6 8 62 81 127 81c45 0 72 -31 107 -31c32 0 59 30 67 37z" />
    <glyph glyph-name="oacute" unicode="&#xf3;" horiz-adv-x="581" 
d="M541 251c0 -157 -104 -265 -256 -265c-145 0 -245 106 -245 257c0 153 105 263 255 263c145 0 246 -107 246 -255zM406 245c0 90 -48 150 -117 150s-114 -59 -114 -147c0 -90 49 -150 119 -150s112 58 112 147zM427 640l-231 -95l-41 73l221 123z" />
    <glyph glyph-name="ograve" unicode="&#xf2;" horiz-adv-x="581" 
d="M541 251c0 -157 -104 -265 -256 -265c-145 0 -245 106 -245 257c0 153 105 263 255 263c145 0 246 -107 246 -255zM406 245c0 90 -48 150 -117 150s-114 -59 -114 -147c0 -90 49 -150 119 -150s112 58 112 147zM429 618l-41 -73l-231 95l51 101z" />
    <glyph glyph-name="ocircumflex" unicode="&#xf4;" horiz-adv-x="581" 
d="M541 251c0 -157 -104 -265 -256 -265c-145 0 -245 106 -245 257c0 153 105 263 255 263c145 0 246 -107 246 -255zM406 245c0 90 -48 150 -117 150s-114 -59 -114 -147c0 -90 49 -150 119 -150s112 58 112 147zM466 610l-45 -63l-125 71l-124 -70l-45 68l169 126z" />
    <glyph glyph-name="odieresis" unicode="&#xf6;" horiz-adv-x="581" 
d="M541 251c0 -157 -104 -265 -256 -265c-145 0 -245 106 -245 257c0 153 105 263 255 263c145 0 246 -107 246 -255zM406 245c0 90 -48 150 -117 150s-114 -59 -114 -147c0 -90 49 -150 119 -150s112 58 112 147zM462 639c0 -39 -31 -70 -70 -70s-70 31 -70 70s31 70 70 70
s70 -31 70 -70zM267 639c0 -39 -31 -70 -70 -70s-70 31 -70 70s31 70 70 70s70 -31 70 -70z" />
    <glyph glyph-name="otilde" unicode="&#xf5;" horiz-adv-x="581" 
d="M541 251c0 -157 -104 -265 -256 -265c-145 0 -245 106 -245 257c0 153 105 263 255 263c145 0 246 -107 246 -255zM406 245c0 90 -48 150 -117 150s-114 -59 -114 -147c0 -90 49 -150 119 -150s112 58 112 147zM463 654c-8 -9 -64 -81 -127 -81c-46 0 -72 32 -108 32
c-27 0 -60 -33 -66 -38l-59 59c6 8 62 81 127 81c45 0 72 -31 107 -31c32 0 59 30 67 37z" />
    <glyph glyph-name="uacute" unicode="&#xfa;" horiz-adv-x="550" 
d="M489 0h-115v37c-8 -6 -69 -51 -139 -51c-52 0 -96 16 -128 48c-55 55 -53 129 -53 193v265h135v-259c0 -64 3 -96 21 -114c6 -6 21 -18 53 -18c43 0 83 25 91 31v360h135v-492zM416 640l-231 -95l-41 73l221 123z" />
    <glyph glyph-name="ugrave" unicode="&#xf9;" horiz-adv-x="550" 
d="M489 0h-115v37c-8 -6 -69 -51 -139 -51c-52 0 -96 16 -128 48c-55 55 -53 129 -53 193v265h135v-259c0 -64 3 -96 21 -114c6 -6 21 -18 53 -18c43 0 83 25 91 31v360h135v-492zM404 618l-41 -73l-231 95l51 101z" />
    <glyph glyph-name="ucircumflex" unicode="&#xfb;" horiz-adv-x="550" 
d="M489 0h-115v37c-8 -6 -69 -51 -139 -51c-52 0 -96 16 -128 48c-55 55 -53 129 -53 193v265h135v-259c0 -64 3 -96 21 -114c6 -6 21 -18 53 -18c43 0 83 25 91 31v360h135v-492zM432 610l-45 -63l-125 71l-124 -70l-45 68l169 126z" />
    <glyph glyph-name="udieresis" unicode="&#xfc;" horiz-adv-x="550" 
d="M489 0h-115v37c-8 -6 -69 -51 -139 -51c-52 0 -96 16 -128 48c-55 55 -53 129 -53 193v265h135v-259c0 -64 3 -96 21 -114c6 -6 21 -18 53 -18c43 0 83 25 91 31v360h135v-492zM429 639c0 -39 -31 -70 -70 -70s-70 31 -70 70s31 70 70 70s70 -31 70 -70zM234 639
c0 -39 -31 -70 -70 -70s-70 31 -70 70s31 70 70 70s70 -31 70 -70z" />
    <glyph glyph-name="dagger" unicode="&#x2020;" horiz-adv-x="640" 
d="M559 332h-176l-10 -458h-109l-10 458h-173v116h171l-5 219h143l-5 -219h174v-116z" />
    <glyph glyph-name="degree" unicode="&#xb0;" horiz-adv-x="641" 
d="M476 532c0 -86 -70 -156 -156 -156s-155 70 -155 156s69 155 155 155s156 -69 156 -155zM391 532c0 42 -32 75 -71 75s-71 -33 -71 -75s32 -74 71 -74s71 32 71 74z" />
    <glyph glyph-name="cent" unicode="&#xa2;" 
d="M543 51c-2 -2 -55 -47 -142 -58v-103h-89v103c-111 15 -208 105 -208 253c0 153 108 242 208 259v105h89v-102c81 -8 129 -51 134 -58l-54 -83c-7 5 -48 34 -104 34c-90 0 -138 -78 -138 -148c0 -86 44 -152 134 -152c63 0 114 34 118 36z" />
    <glyph glyph-name="sterling" unicode="&#xa3;" 
d="M592 600l-66 -81c-14 11 -66 50 -128 50c-68 0 -112 -44 -112 -122c0 -36 6 -70 7 -78h194v-111h-182c1 -6 2 -18 2 -23c0 -36 -10 -91 -42 -119h319v-116h-508v107c80 10 97 67 97 123c0 11 -2 20 -3 28h-91v111h80c-3 26 -6 52 -6 78c0 147 89 236 238 236
c130 0 195 -76 201 -83z" />
    <glyph glyph-name="section" unicode="&#xa7;" 
d="M527 291c0 -57 -28 -106 -90 -137c42 -24 67 -70 67 -122c0 -103 -76 -179 -212 -179c-111 0 -176 52 -183 57l51 85c8 -5 66 -38 125 -38c68 0 96 30 96 66c0 17 -8 30 -19 40c-33 30 -131 43 -189 97c-27 25 -46 61 -46 106c0 55 25 105 92 131c-51 34 -75 70 -75 122
c0 96 69 165 204 165c102 0 158 -45 164 -50l-48 -80c-8 5 -55 32 -107 32c-62 0 -88 -25 -88 -56c0 -15 7 -27 18 -37c35 -32 143 -50 198 -100c26 -24 42 -57 42 -102zM412 274c0 9 -1 20 -15 34c-17 17 -72 39 -95 47c-12 -5 -60 -23 -60 -69c0 -17 6 -27 15 -36
c17 -17 48 -29 91 -45c10 5 64 28 64 69z" />
    <glyph glyph-name="bullet" unicode="&#x2022;" horiz-adv-x="444" 
d="M337 278c0 -64 -51 -115 -115 -115s-115 51 -115 115s51 115 115 115s115 -51 115 -115z" />
    <glyph glyph-name="paragraph" unicode="&#xb6;" horiz-adv-x="686" 
d="M650 563h-81v-688h-105v688h-76v-688h-105v384c-46 1 -137 2 -193 58c-30 30 -58 72 -58 152c0 56 20 102 56 138c54 54 130 60 260 60h302v-104z" />
    <glyph glyph-name="germandbls" unicode="&#xdf;" horiz-adv-x="579" 
d="M539 164c0 -107 -79 -174 -188 -174c-74 0 -111 20 -122 24l37 105c9 -3 31 -14 67 -14c49 0 75 23 75 55c0 20 -9 34 -22 47c-30 30 -83 51 -119 87c-19 19 -26 42 -26 62c0 83 116 107 116 198c0 39 -29 69 -72 69c-92 0 -93 -103 -93 -162v-461h-131v502
c0 78 20 134 57 172s93 62 162 62c124 0 210 -72 210 -182c0 -121 -107 -143 -107 -180c0 -6 3 -11 9 -17c35 -35 147 -68 147 -193z" />
    <glyph glyph-name="registered" unicode="&#xae;" horiz-adv-x="540" 
d="M494 459c0 -125 -99 -223 -224 -223s-224 98 -224 223s99 224 224 224s224 -99 224 -224zM439 459c0 94 -75 167 -169 167s-169 -73 -169 -167s75 -166 169 -166s169 72 169 166zM370 345h-46l-28 60c-15 32 -17 32 -48 32h-8v-92h-44v233h58c30 0 54 -1 74 -20
c14 -13 22 -31 22 -50c0 -23 -12 -46 -39 -54c12 -6 20 -19 23 -27zM307 510c0 14 -8 21 -18 24s-22 2 -33 2h-16v-57c14 0 28 -1 42 3s25 10 25 28z" />
    <glyph glyph-name="copyright" unicode="&#xa9;" horiz-adv-x="783" 
d="M737 333c0 -190 -155 -345 -345 -345s-346 155 -346 345s156 346 346 346c193 0 345 -161 345 -346zM650 333c0 143 -115 258 -258 258s-259 -115 -259 -258c0 -142 116 -257 259 -257s258 114 258 257zM536 192c-3 -3 -54 -43 -132 -43c-113 0 -185 80 -185 187
c0 112 83 193 192 193c76 0 112 -34 119 -41l-34 -51c-11 7 -33 24 -75 24c-75 0 -114 -64 -114 -120c0 -68 36 -123 111 -123c41 0 78 23 85 27z" />
    <glyph glyph-name="trademark" unicode="&#x2122;" horiz-adv-x="841" 
d="M795 313h-83l-17 212l-69 -212h-70l-71 212l-14 -212h-79l33 354h89l81 -233l76 233h90zM339 594h-102v-281h-88v281h-103v73h293v-73z" />
    <glyph glyph-name="acute" unicode="&#xb4;" horiz-adv-x="418" 
d="M345 640l-231 -95l-41 73l221 123z" />
    <glyph glyph-name="dieresis" unicode="&#xa8;" horiz-adv-x="418" 
d="M377 639c0 -39 -31 -70 -70 -70s-70 31 -70 70s31 70 70 70s70 -31 70 -70zM182 639c0 -39 -31 -70 -70 -70s-70 31 -70 70s31 70 70 70s70 -31 70 -70z" />
    <glyph glyph-name="notequal" unicode="&#x2260;" horiz-adv-x="645" 
d="M596 119h-302l-64 -98l-75 48l30 50h-136v112h201l39 64h-240v112h305l62 95l76 -48l-28 -47h132v-112h-197l-39 -64h236v-112z" />
    <glyph glyph-name="AE" unicode="&#xc6;" horiz-adv-x="918" 
d="M870 0h-412v141h-225l-78 -141h-145l392 667h460v-114h-264v-155h248v-112h-248v-170h272v-116zM458 257v295l-163 -295h163z" />
    <glyph glyph-name="Oslash" unicode="&#xd8;" horiz-adv-x="742" 
d="M696 339c0 -216 -134 -355 -324 -355c-54 0 -93 11 -118 20l-49 -85l-98 52l52 89c-56 49 -113 139 -113 279c0 205 132 344 325 344c65 0 114 -18 123 -22l48 85l99 -52l-51 -91c45 -39 106 -123 106 -264zM553 340c0 77 -27 128 -34 138l-205 -364c9 -4 23 -11 60 -11
c138 0 179 130 179 237zM437 553c-3 1 -26 14 -71 14c-107 0 -177 -98 -177 -237c0 -82 27 -129 39 -146z" />
    <glyph glyph-name="infinity" unicode="&#x221e;" horiz-adv-x="837" 
d="M766 284c0 -88 -73 -159 -164 -159c-95 0 -172 82 -182 91c-9 -9 -89 -96 -185 -96c-88 0 -164 72 -164 155c0 90 71 157 164 157c95 0 171 -75 184 -87c14 14 82 91 188 91c93 0 159 -63 159 -152zM666 283c0 34 -28 60 -68 60c-53 0 -103 -54 -110 -61
c8 -6 68 -57 115 -57c35 0 63 21 63 58zM350 280c-11 9 -59 58 -112 58c-40 0 -66 -24 -66 -59c0 -34 29 -59 63 -59c49 0 105 52 115 60z" />
    <glyph glyph-name="plusminus" unicode="&#xb1;" 
d="M585 347h-207v-197h-112v197h-207v112h207v197h112v-197h207v-112zM585 0h-526v108h526v-108z" />
    <glyph glyph-name="lessequal" unicode="&#x2264;" horiz-adv-x="645" 
d="M586 241l-44 -100l-483 220v87l483 220l44 -104l-353 -160zM585 0h-526v108h526v-108z" />
    <glyph glyph-name="greaterequal" unicode="&#x2265;" horiz-adv-x="645" 
d="M586 361l-483 -220l-44 100l353 163l-353 160l44 104l483 -220v-87zM586 0h-526v108h526v-108z" />
    <glyph glyph-name="yen" unicode="&#xa5;" 
d="M600 667l-163 -296h96v-90h-143v-62h143v-90h-144v-129h-134v129h-151v90h150v62h-150v90h99l-159 296h144l141 -289l141 289h130z" />
    <glyph glyph-name="mu" unicode="&#x3bc;" horiz-adv-x="557" 
d="M496 0h-115v35c-7 -6 -63 -49 -139 -49c-39 0 -59 13 -66 18v-130h-115v618h135v-259c0 -64 3 -96 21 -114c6 -6 21 -18 50 -18c46 0 86 25 94 31v360h135v-492z" />
    <glyph glyph-name="partialdiff" unicode="&#x2202;" horiz-adv-x="624" 
d="M553 342c0 -218 -89 -358 -247 -358c-139 0 -235 106 -235 255s90 267 234 267c58 0 97 -20 101 -22c0 55 -44 138 -146 138c-57 0 -120 -37 -129 -43l-53 91c11 9 90 66 187 66c176 0 288 -123 288 -394zM414 321c0 19 -1 35 -3 49c-6 4 -40 22 -89 22
c-70 0 -115 -56 -115 -148c0 -89 41 -145 97 -145c65 0 110 68 110 222z" />
    <glyph glyph-name="summation" unicode="&#x2211;" horiz-adv-x="574" 
d="M503 0h-432v94l168 244l-168 233v96h432v-115h-252l145 -207l-158 -230h265v-115z" />
    <glyph glyph-name="product" unicode="&#x220f;" horiz-adv-x="787" 
d="M716 552h-78v-552h-142v552h-205v-552h-142v552h-78v115h645v-115z" />
    <glyph glyph-name="pi" unicode="&#x3c0;" horiz-adv-x="682" 
d="M611 5c-10 -3 -47 -15 -90 -15c-138 0 -126 106 -126 182v212h-121v-384h-135v384h-68v108h532v-108h-73v-199c0 -51 -3 -85 46 -85c7 0 26 2 35 4v-99z" />
    <glyph glyph-name="integral" unicode="&#x222b;" horiz-adv-x="585" 
d="M514 708l-36 -94c-8 3 -27 11 -48 11c-18 0 -35 -2 -51 -18c-11 -11 -19 -24 -19 -72v-559c0 -69 -6 -118 -52 -164c-33 -33 -89 -45 -130 -45c-54 0 -102 22 -107 28l36 94c8 -3 27 -11 48 -11c18 0 35 2 51 18c11 11 19 24 19 72v559c0 69 6 118 52 164
c33 33 89 45 130 45c54 0 102 -22 107 -28z" />
    <glyph glyph-name="ordfeminine" unicode="&#xaa;" horiz-adv-x="453" 
d="M372 307h-87v26c-7 -4 -46 -34 -104 -34c-73 0 -118 49 -118 118c0 130 159 132 204 132h10c0 23 -1 33 -11 43c-8 8 -25 15 -52 15c-50 0 -92 -23 -97 -26l-34 64c5 4 54 39 139 39c31 0 84 -5 120 -41c30 -30 30 -68 30 -116v-220zM277 397v84h-15
c-65 0 -111 -12 -111 -58c0 -38 31 -48 56 -48c41 0 66 19 70 22z" />
    <glyph glyph-name="ordmasculine" unicode="&#xba;" horiz-adv-x="453" 
d="M413 493c0 -116 -78 -198 -191 -198c-108 0 -182 79 -182 192c0 114 78 196 190 196c108 0 183 -80 183 -190zM309 488c0 65 -35 108 -84 108s-81 -42 -81 -106c0 -65 36 -107 85 -107c50 0 80 40 80 105z" />
    <glyph glyph-name="Omega" unicode="&#x3a9;" horiz-adv-x="832" 
d="M761 0h-292v97c9 4 136 43 136 235c0 144 -76 233 -189 233s-189 -89 -189 -233c0 -191 126 -231 136 -235v-97h-292v116h114c-5 5 -98 70 -98 233c0 198 132 334 329 334s329 -136 329 -334c0 -160 -90 -226 -97 -233h113v-116z" />
    <glyph glyph-name="ae" unicode="&#xe6;" horiz-adv-x="829" 
d="M789 244c0 -21 -2 -35 -2 -42h-324c-2 -36 28 -111 126 -111c62 0 110 25 131 35l44 -86c-3 -3 -78 -54 -187 -54c-114 0 -166 56 -177 69c-41 -36 -105 -69 -191 -69c-90 0 -169 48 -169 163c0 169 212 172 274 172h14v4c0 30 -1 44 -15 58c-11 11 -33 20 -70 20
c-67 0 -124 -32 -131 -36l-45 86c7 5 73 53 187 53c113 0 153 -48 162 -57c8 8 60 57 152 57c144 0 221 -102 221 -262zM664 299c0 27 -10 107 -93 107c-61 0 -99 -46 -109 -107h202zM348 126c-16 28 -20 75 -20 103h-21c-87 0 -149 -15 -149 -77c0 -51 43 -65 76 -65
c63 0 110 37 114 39z" />
    <glyph glyph-name="oslash" unicode="&#xf8;" horiz-adv-x="581" 
d="M541 251c0 -157 -104 -265 -256 -265c-33 0 -66 6 -82 13l-42 -72l-82 45l43 73c-36 29 -82 95 -82 198c0 153 105 263 255 263c42 0 77 -10 88 -14l42 71l80 -47l-44 -72c34 -28 80 -93 80 -193zM416 250c0 52 -15 77 -19 85l-141 -242c4 -1 18 -5 35 -5
c83 0 125 65 125 162zM328 398c-5 2 -17 7 -34 7c-80 0 -127 -64 -127 -168c0 -50 16 -77 19 -84z" />
    <glyph glyph-name="questiondown" unicode="&#xbf;" horiz-adv-x="538" 
d="M396 423c0 -46 -37 -82 -83 -82s-82 36 -82 82s36 83 82 83s83 -37 83 -83zM499 -105c-5 -4 -100 -79 -221 -79c-131 0 -220 74 -220 189c0 56 18 93 47 122c39 40 119 78 132 91c10 10 14 23 14 70v8h122c1 -6 4 -35 4 -46c0 -47 -7 -73 -30 -96
c-32 -32 -88 -53 -124 -89c-11 -11 -26 -30 -26 -60c0 -46 35 -77 98 -77c72 0 140 48 147 53z" />
    <glyph glyph-name="exclamdown" unicode="&#xa1;" horiz-adv-x="388" 
d="M277 423c0 -46 -37 -82 -83 -82s-82 36 -82 82s36 83 82 83s83 -37 83 -83zM271 -168h-153l21 464h111z" />
    <glyph glyph-name="logicalnot" unicode="&#xac;" horiz-adv-x="645" 
d="M585 173h-122v146h-403v114h525v-260z" />
    <glyph glyph-name="radical" unicode="&#x221a;" horiz-adv-x="823" 
d="M752 702l-265 -702h-126l-139 354l-117 -40l-34 101l233 80l124 -326l211 573z" />
    <glyph glyph-name="florin" unicode="&#x192;" 
d="M633 647l-38 -98c-12 4 -44 18 -73 18c-61 0 -69 -35 -87 -123l-15 -75h143l-24 -111h-143l-51 -267c-11 -58 -26 -132 -66 -172c-34 -34 -79 -52 -132 -52c-72 0 -127 33 -135 38l40 99c10 -4 40 -17 69 -17c24 0 40 6 50 16c15 15 22 34 35 100l52 255h-124l22 111h126
l18 95c17 89 30 134 62 166c37 37 82 53 135 53c72 0 129 -32 136 -36z" />
    <glyph glyph-name="approxequal" unicode="&#x2248;" 
d="M565 365c-7 -10 -57 -87 -140 -87c-81 0 -143 57 -203 57c-41 0 -66 -38 -72 -45l-71 49c6 9 47 89 145 89c84 0 140 -57 199 -57c37 0 60 32 73 47zM565 186c-7 -10 -57 -87 -140 -87c-81 0 -143 57 -203 57c-41 0 -66 -38 -72 -45l-71 49c6 9 47 89 145 89
c84 0 140 -57 199 -57c37 0 60 32 73 47z" />
    <glyph glyph-name="Delta" unicode="&#x394;" horiz-adv-x="722" 
d="M651 0h-580l230 667h119zM482 111l-125 369l-125 -369h250z" />
    <glyph glyph-name="guillemotleft" unicode="&#xab;" horiz-adv-x="543" 
d="M482 95l-81 -46l-148 195l149 196l80 -54l-81 -142zM290 95l-81 -46l-148 195l149 196l80 -54l-81 -142z" />
    <glyph glyph-name="guillemotright" unicode="&#xbb;" horiz-adv-x="543" 
d="M482 244l-148 -195l-81 46l81 149l-81 142l80 54zM290 244l-148 -195l-81 46l81 149l-81 142l80 54z" />
    <glyph glyph-name="ellipsis" unicode="&#x2026;" horiz-adv-x="880" 
d="M819 78c0 -47 -38 -85 -85 -85s-85 38 -85 85s38 85 85 85s85 -38 85 -85zM525 78c0 -47 -38 -85 -85 -85s-85 38 -85 85s38 85 85 85s85 -38 85 -85zM231 78c0 -47 -38 -85 -85 -85s-85 38 -85 85s38 85 85 85s85 -38 85 -85z" />
    <glyph glyph-name="Agrave" unicode="&#xc0;" horiz-adv-x="659" 
d="M643 0h-146l-49 139h-240l-49 -139h-143l242 667h142zM411 248l-84 268l-84 -268h168zM460 786l-41 -73l-231 95l51 101z" />
    <glyph glyph-name="Atilde" unicode="&#xc3;" horiz-adv-x="659" 
d="M643 0h-146l-49 139h-240l-49 -139h-143l242 667h142zM411 248l-84 268l-84 -268h168zM505 801c-8 -9 -64 -81 -127 -81c-46 0 -72 32 -108 32c-27 0 -60 -33 -66 -38l-59 59c6 8 62 81 127 81c45 0 72 -31 107 -31c32 0 59 30 67 37z" />
    <glyph glyph-name="Otilde" unicode="&#xd5;" horiz-adv-x="742" 
d="M696 339c0 -216 -134 -355 -324 -355c-194 0 -326 144 -326 355c0 205 132 344 325 344c197 0 325 -144 325 -344zM553 340c0 132 -75 227 -187 227c-107 0 -177 -98 -177 -237c0 -140 80 -227 185 -227c138 0 179 130 179 237zM548 801c-8 -9 -64 -81 -127 -81
c-46 0 -72 32 -108 32c-27 0 -60 -33 -66 -38l-59 59c6 8 62 81 127 81c45 0 72 -31 107 -31c32 0 59 30 67 37z" />
    <glyph glyph-name="OE" unicode="&#x152;" horiz-adv-x="893" 
d="M845 0h-406c-114 0 -212 -1 -302 89c-58 58 -91 146 -91 239c0 90 31 179 91 239c97 97 222 100 349 100h351v-114h-247v-155h231v-112h-231v-170h255v-116zM454 111v443h-38c-150 0 -229 -81 -229 -230c0 -71 19 -120 57 -158c57 -57 122 -55 199 -55h11z" />
    <glyph glyph-name="oe" unicode="&#x153;" horiz-adv-x="898" 
d="M867 244c0 -21 -2 -35 -2 -42h-324c-2 -36 28 -111 126 -111c62 0 110 25 131 35l44 -86c-3 -3 -78 -54 -187 -54c-118 0 -167 59 -186 79c-14 -14 -72 -80 -191 -80c-147 0 -247 107 -247 258c0 153 106 263 257 263c119 0 174 -68 184 -78c9 9 62 78 174 78
c144 0 221 -102 221 -262zM742 299c0 27 -10 107 -93 107c-61 0 -99 -46 -109 -107h202zM403 250c0 97 -49 148 -119 148s-120 -58 -120 -156c0 -89 51 -147 120 -147c70 0 119 57 119 155z" />
    <glyph glyph-name="endash" unicode="&#x2013;" horiz-adv-x="671" 
d="M597 207h-523v112h523v-112z" />
    <glyph glyph-name="emdash" unicode="&#x2014;" horiz-adv-x="990" 
d="M916 207h-842v112h842v-112z" />
    <glyph glyph-name="quotedblleft" unicode="&#x201c;" horiz-adv-x="494" 
d="M182 429h-142c0 71 12 131 88 207c15 15 38 35 58 48l76 -68c-5 -4 -10 -9 -15 -14c-70 -70 -65 -140 -65 -173zM374 429h-142c0 71 12 131 88 207c15 15 38 35 58 48l76 -68c-5 -4 -10 -9 -15 -14c-70 -70 -65 -140 -65 -173z" />
    <glyph glyph-name="quotedblright" unicode="&#x201d;" horiz-adv-x="494" 
d="M312 667h142c0 -71 -12 -131 -88 -207c-15 -15 -38 -35 -58 -48l-76 68c5 4 10 9 15 14c70 70 65 140 65 173zM120 667h142c0 -71 -12 -131 -88 -207c-15 -15 -38 -35 -58 -48l-76 68c5 4 10 9 15 14c70 70 65 140 65 173z" />
    <glyph glyph-name="quoteleft" unicode="&#x2018;" horiz-adv-x="302" 
d="M182 429h-142c0 71 12 131 88 207c15 15 38 35 58 48l76 -68c-5 -4 -10 -9 -15 -14c-70 -70 -65 -140 -65 -173z" />
    <glyph glyph-name="quoteright" unicode="&#x2019;" horiz-adv-x="302" 
d="M120 667h142c0 -71 -12 -131 -88 -207c-15 -15 -38 -35 -58 -48l-76 68c5 4 10 9 15 14c70 70 65 140 65 173z" />
    <glyph glyph-name="divide" unicode="&#xf7;" horiz-adv-x="645" 
d="M405 446c0 -47 -39 -85 -82 -85c-45 0 -82 39 -82 85c0 48 37 85 82 85s82 -37 82 -85zM596 207h-547v112h547v-112zM405 74c0 -47 -39 -85 -82 -85c-45 0 -82 39 -82 85c0 48 37 85 82 85s82 -37 82 -85z" />
    <glyph glyph-name="lozenge" unicode="&#x25ca;" horiz-adv-x="662" 
d="M591 333l-218 -333h-89l-213 333l213 334h89zM463 333l-134 202l-128 -202l128 -199z" />
    <glyph glyph-name="ydieresis" unicode="&#xff;" horiz-adv-x="578" 
d="M551 492l-195 -497c-38 -97 -60 -142 -95 -177c-21 -21 -63 -51 -144 -51c-72 0 -119 29 -123 31l40 96c7 -3 37 -17 76 -17c30 0 51 9 67 25c24 24 41 76 49 98l-206 492h143l132 -345l123 345h133zM462 639c0 -39 -31 -70 -70 -70s-70 31 -70 70s31 70 70 70
s70 -31 70 -70zM267 639c0 -39 -31 -70 -70 -70s-70 31 -70 70s31 70 70 70s70 -31 70 -70z" />
    <glyph glyph-name="Ydieresis" unicode="&#x178;" horiz-adv-x="610" 
d="M583 667l-210 -401v-266h-136v266l-210 401h144l141 -289l141 289h130zM479 784c0 -39 -31 -70 -70 -70s-70 31 -70 70s31 70 70 70s70 -31 70 -70zM284 784c0 -39 -31 -70 -70 -70s-70 31 -70 70s31 70 70 70s70 -31 70 -70z" />
    <glyph glyph-name="fraction" unicode="&#x2044;" horiz-adv-x="-33" 
d="M247 657l-458 -701l-69 47l458 700z" />
    <glyph glyph-name="Euro" unicode="&#x20ac;" 
d="M602 63c-7 -7 -74 -79 -212 -79c-211 0 -257 196 -260 230h-75v90h67s-1 15 -1 31c0 14 0 16 1 28h-67v90h74c3 25 45 230 260 230c138 0 203 -79 209 -86l-63 -76c-13 10 -57 53 -136 53c-117 0 -136 -104 -139 -121h214v-90h-224c-1 -12 -1 -12 -1 -28s1 -31 1 -31h224
v-90h-212c1 -11 13 -119 141 -119c78 0 129 43 135 48z" />
    <glyph glyph-name="guilsinglleft" unicode="&#x2039;" horiz-adv-x="351" 
d="M290 95l-81 -46l-148 195l149 196l80 -54l-81 -142z" />
    <glyph glyph-name="guilsinglright" unicode="&#x203a;" horiz-adv-x="351" 
d="M290 244l-148 -195l-81 46l81 149l-81 142l80 54z" />
    <glyph glyph-name="daggerdbl" unicode="&#x2021;" horiz-adv-x="640" 
d="M559 332h-178l-1 -88h175v-116h-177l-5 -254h-109l-5 254h-174v116h172l-1 88h-175v116h171l-5 219h143l-5 -219h174v-116z" />
    <glyph glyph-name="periodcentered" unicode="&#xb7;" horiz-adv-x="287" 
d="M226 256c0 -46 -36 -83 -82 -83s-83 37 -83 83s37 82 83 82s82 -36 82 -82z" />
    <glyph glyph-name="quotesinglbase" unicode="&#x201a;" horiz-adv-x="302" 
d="M262 134c0 -71 -12 -131 -88 -207c-15 -15 -38 -35 -58 -48l-76 68c5 4 10 9 15 14c70 70 65 140 65 173h142z" />
    <glyph glyph-name="quotedblbase" unicode="&#x201e;" horiz-adv-x="496" 
d="M262 134c0 -71 -12 -131 -88 -207c-15 -15 -38 -35 -58 -48l-76 68c5 4 10 9 15 14c70 70 65 140 65 173h142zM456 134c0 -71 -12 -131 -88 -207c-15 -15 -38 -35 -58 -48l-76 68c5 4 10 9 15 14c70 70 65 140 65 173h142z" />
    <glyph glyph-name="perthousand" unicode="&#x2030;" horiz-adv-x="1182" 
d="M1128 173c0 -108 -57 -180 -153 -180c-95 0 -151 72 -151 179c0 105 57 178 151 178s153 -73 153 -177zM1046 170c0 76 -30 111 -69 111c-40 0 -71 -36 -71 -110c0 -75 28 -110 68 -110c61 0 72 62 72 109zM358 497c0 -108 -57 -180 -153 -180c-95 0 -151 72 -151 179
c0 105 57 178 151 178s153 -73 153 -177zM276 494c0 76 -30 111 -69 111c-40 0 -71 -36 -71 -110c0 -75 28 -110 68 -110c61 0 72 62 72 109zM671 657l-458 -701l-69 47l458 700zM770 173c0 -108 -57 -180 -153 -180c-95 0 -151 72 -151 179c0 105 57 178 151 178
s153 -73 153 -177zM688 170c0 76 -30 111 -69 111c-40 0 -71 -36 -71 -110c0 -75 28 -110 68 -110c61 0 72 62 72 109z" />
    <glyph glyph-name="Acircumflex" unicode="&#xc2;" horiz-adv-x="659" 
d="M643 0h-146l-49 139h-240l-49 -139h-143l242 667h142zM411 248l-84 268l-84 -268h168zM497 776l-45 -63l-125 71l-124 -70l-45 68l169 126z" />
    <glyph glyph-name="Ecircumflex" unicode="&#xca;" horiz-adv-x="531" 
d="M483 0h-412v667h404v-114h-264v-155h248v-112h-248v-170h272v-116zM435 776l-45 -63l-125 71l-124 -70l-45 68l169 126z" />
    <glyph glyph-name="Aacute" unicode="&#xc1;" horiz-adv-x="659" 
d="M643 0h-146l-49 139h-240l-49 -139h-143l242 667h142zM411 248l-84 268l-84 -268h168zM440 808l-231 -95l-41 73l221 123z" />
    <glyph glyph-name="Edieresis" unicode="&#xcb;" horiz-adv-x="531" 
d="M483 0h-412v667h404v-114h-264v-155h248v-112h-248v-170h272v-116zM443 784c0 -39 -31 -70 -70 -70s-70 31 -70 70s31 70 70 70s70 -31 70 -70zM248 784c0 -39 -31 -70 -70 -70s-70 31 -70 70s31 70 70 70s70 -31 70 -70z" />
    <glyph glyph-name="Egrave" unicode="&#xc8;" horiz-adv-x="531" 
d="M483 0h-412v667h404v-114h-264v-155h248v-112h-248v-170h272v-116zM400 786l-41 -73l-231 95l51 101z" />
    <glyph glyph-name="Iacute" unicode="&#xcd;" horiz-adv-x="284" 
d="M213 0h-142v667h142v-667zM278 808l-231 -95l-41 73l221 123z" />
    <glyph glyph-name="Icircumflex" unicode="&#xce;" horiz-adv-x="284" 
d="M213 0h-142v667h142v-667zM312 776l-45 -63l-125 71l-124 -70l-45 68l169 126z" />
    <glyph glyph-name="Idieresis" unicode="&#xcf;" horiz-adv-x="284" 
d="M213 0h-142v667h142v-667zM310 784c0 -39 -31 -70 -70 -70s-70 31 -70 70s31 70 70 70s70 -31 70 -70zM115 784c0 -39 -31 -70 -70 -70s-70 31 -70 70s31 70 70 70s70 -31 70 -70z" />
    <glyph glyph-name="Igrave" unicode="&#xcc;" horiz-adv-x="284" 
d="M213 0h-142v667h142v-667zM278 786l-41 -73l-231 95l51 101z" />
    <glyph glyph-name="Oacute" unicode="&#xd3;" horiz-adv-x="742" 
d="M696 339c0 -216 -134 -355 -324 -355c-194 0 -326 144 -326 355c0 205 132 344 325 344c197 0 325 -144 325 -344zM553 340c0 132 -75 227 -187 227c-107 0 -177 -98 -177 -237c0 -140 80 -227 185 -227c138 0 179 130 179 237zM498 808l-231 -95l-41 73l221 123z" />
    <glyph glyph-name="Ocircumflex" unicode="&#xd4;" horiz-adv-x="742" 
d="M696 339c0 -216 -134 -355 -324 -355c-194 0 -326 144 -326 355c0 205 132 344 325 344c197 0 325 -144 325 -344zM553 340c0 132 -75 227 -187 227c-107 0 -177 -98 -177 -237c0 -140 80 -227 185 -227c138 0 179 130 179 237zM542 776l-45 -63l-125 71l-124 -70l-45 68
l169 126z" />
    <glyph glyph-name="Foundry" unicode="&#xf8ff;" horiz-adv-x="904" 
d="M858 388c0 -225 -181 -402 -406 -402s-406 177 -406 402s181 403 406 403s406 -178 406 -403zM752 389c0 165 -134 299 -300 299s-301 -134 -301 -299c0 -152 104 -236 182 -273v181h-68v86h68v30c0 71 9 111 45 147c26 26 62 42 118 42c75 0 119 -38 121 -41l-44 -75
c-3 3 -32 20 -61 20c-62 0 -62 -49 -62 -92v-31h124v-86h-124v-207c169 0 302 134 302 299z" />
    <glyph glyph-name="Ograve" unicode="&#xd2;" horiz-adv-x="742" 
d="M696 339c0 -216 -134 -355 -324 -355c-194 0 -326 144 -326 355c0 205 132 344 325 344c197 0 325 -144 325 -344zM553 340c0 132 -75 227 -187 227c-107 0 -177 -98 -177 -237c0 -140 80 -227 185 -227c138 0 179 130 179 237zM513 786l-41 -73l-231 95l51 101z" />
    <glyph glyph-name="Uacute" unicode="&#xda;" horiz-adv-x="656" 
d="M591 291c0 -119 -11 -180 -64 -233c-28 -28 -84 -74 -200 -74c-72 0 -144 20 -199 75c-60 60 -63 136 -63 236v372h142v-416c0 -38 3 -82 33 -112c18 -18 50 -31 90 -31c48 0 72 17 91 36c29 29 32 68 32 169v354h138v-376zM464 808l-231 -95l-41 73l221 123z" />
    <glyph glyph-name="Ucircumflex" unicode="&#xdb;" horiz-adv-x="656" 
d="M591 291c0 -119 -11 -180 -64 -233c-28 -28 -84 -74 -200 -74c-72 0 -144 20 -199 75c-60 60 -63 136 -63 236v372h142v-416c0 -38 3 -82 33 -112c18 -18 50 -31 90 -31c48 0 72 17 91 36c29 29 32 68 32 169v354h138v-376zM497 776l-45 -63l-125 71l-124 -70l-45 68
l169 126z" />
    <glyph glyph-name="Ugrave" unicode="&#xd9;" horiz-adv-x="656" 
d="M591 291c0 -119 -11 -180 -64 -233c-28 -28 -84 -74 -200 -74c-72 0 -144 20 -199 75c-60 60 -63 136 -63 236v372h142v-416c0 -38 3 -82 33 -112c18 -18 50 -31 90 -31c48 0 72 17 91 36c29 29 32 68 32 169v354h138v-376zM458 786l-41 -73l-231 95l51 101z" />
    <glyph glyph-name="dotlessi" unicode="&#x131;" horiz-adv-x="257" 
d="M196 0h-135v492h135v-492z" />
    <glyph glyph-name="circumflex" unicode="&#x2c6;" horiz-adv-x="418" 
d="M379 610l-45 -63l-125 71l-124 -70l-45 68l169 126z" />
    <glyph glyph-name="tilde" unicode="&#x2dc;" horiz-adv-x="418" 
d="M389 654c-8 -9 -64 -81 -127 -81c-46 0 -72 32 -108 32c-27 0 -60 -33 -66 -38l-59 59c6 8 62 81 127 81c45 0 72 -31 107 -31c32 0 59 30 67 37z" />
    <glyph glyph-name="macron" unicode="&#xaf;" horiz-adv-x="418" 
d="M383 569h-348v112h348v-112z" />
    <glyph glyph-name="breve" unicode="&#x2d8;" horiz-adv-x="418" 
d="M358 721c-3 -95 -60 -155 -149 -155s-146 60 -149 155h90c4 -43 24 -63 59 -63s55 20 59 63h90z" />
    <glyph glyph-name="dotaccent" unicode="&#x2d9;" horiz-adv-x="418" 
d="M279 639c0 -39 -31 -70 -70 -70s-70 31 -70 70s31 70 70 70s70 -31 70 -70z" />
    <glyph glyph-name="ring" unicode="&#x2da;" horiz-adv-x="418" 
d="M319 654c0 -60 -49 -110 -109 -110s-110 50 -110 110s50 109 110 109s109 -49 109 -109zM255 655c0 25 -21 46 -46 46s-46 -21 -46 -46s21 -46 46 -46s46 21 46 46z" />
    <glyph glyph-name="cedilla" unicode="&#xb8;" horiz-adv-x="418" 
d="M303 -128c0 -60 -53 -96 -106 -96c-41 0 -73 16 -83 25l22 44s23 -15 53 -15c40 0 49 25 49 40c0 21 -16 34 -41 34c-21 0 -38 -8 -44 -11l-33 18l14 89h60l-5 -45c5 1 12 3 20 3c55 0 94 -34 94 -86z" />
    <glyph glyph-name="hungarumlaut" unicode="&#x2dd;" horiz-adv-x="418" 
d="M375 712l-78 -175l-95 32l60 183zM218 712l-80 -175l-95 32l60 183z" />
    <glyph glyph-name="ogonek" unicode="&#x2db;" horiz-adv-x="418" 
d="M159 0h81c-31 -23 -72 -46 -72 -89c0 -31 20 -53 51 -53c30 0 66 18 73 22l24 -48c-6 -4 -51 -33 -107 -33c-65 0 -107 44 -107 112c0 45 27 76 57 89z" />
    <glyph glyph-name="caron" unicode="&#x2c7;" horiz-adv-x="418" 
d="M378 673l-169 -126l-170 132l45 63l125 -71l124 70z" />
    <glyph glyph-name="Asmall" unicode="&#xf761;" horiz-adv-x="573" 
d="M561 0h-141l-37 107h-198l-37 -107h-136l205 527h138zM345 205l-62 180l-62 -180h124z" />
    <glyph glyph-name="Bsmall" unicode="&#xf762;" horiz-adv-x="521" 
d="M481 162c0 -49 -19 -86 -45 -110c-55 -51 -128 -52 -205 -52h-164v527h188c63 0 124 -4 167 -47c34 -34 43 -64 43 -101c0 -94 -68 -105 -83 -108c16 -3 99 -14 99 -109zM333 371c0 20 -8 32 -13 37c-15 15 -35 19 -71 19h-53v-115h47c29 0 59 1 77 19c9 9 13 22 13 40z
M346 162c0 12 -5 30 -14 39c-18 18 -38 19 -90 19h-46v-118h55c54 0 69 9 80 20c9 9 15 21 15 40z" />
    <glyph glyph-name="Csmall" unicode="&#xf763;" horiz-adv-x="549" 
d="M527 60c-14 -11 -83 -75 -209 -75c-153 0 -276 101 -276 273c0 178 129 282 290 282c126 0 186 -67 191 -72l-60 -84c-15 11 -58 44 -126 44c-86 0 -155 -62 -155 -163c0 -99 59 -166 149 -166c70 0 130 43 139 48z" />
    <glyph glyph-name="Dsmall" unicode="&#xf764;" horiz-adv-x="606" 
d="M564 268c0 -67 -21 -132 -74 -185c-80 -80 -195 -83 -299 -83h-124v527h162c96 0 186 1 263 -76c52 -52 72 -121 72 -183zM427 271c0 52 -16 89 -41 114c-42 42 -97 41 -141 41h-43v-324h44c119 0 181 63 181 169z" />
    <glyph glyph-name="Esmall" unicode="&#xf765;" horiz-adv-x="471" 
d="M421 0h-354v527h348v-104h-214v-102h201v-102h-201v-113h220v-106z" />
    <glyph glyph-name="Fsmall" unicode="&#xf766;" horiz-adv-x="456" 
d="M409 423h-208v-102h198v-102h-198v-219h-134v527h342v-104z" />
    <glyph glyph-name="Gsmall" unicode="&#xf767;" horiz-adv-x="582" 
d="M525 43c-9 -5 -90 -58 -205 -58c-155 0 -278 101 -278 273c0 178 129 282 289 282c126 0 186 -67 191 -72l-60 -84c-15 11 -58 44 -126 44c-86 0 -157 -62 -157 -163c0 -99 54 -167 153 -167c32 0 52 5 64 8v75h-101v101h230v-239z" />
    <glyph glyph-name="Hsmall" unicode="&#xf768;" horiz-adv-x="588" 
d="M521 0h-138v219h-178v-219h-138v527h138v-199h178v199h138v-527z" />
    <glyph glyph-name="Ismall" unicode="&#xf769;" horiz-adv-x="272" 
d="M205 0h-138v527h138v-527z" />
    <glyph glyph-name="Jsmall" unicode="&#xf76a;" horiz-adv-x="369" 
d="M308 192c0 -60 0 -119 -45 -164c-26 -26 -69 -43 -124 -43c-74 0 -125 37 -129 40l46 89c7 -3 33 -18 60 -18c19 0 30 5 38 13c12 12 16 24 16 72v346h138v-335z" />
    <glyph glyph-name="Ksmall" unicode="&#xf76b;" horiz-adv-x="562" 
d="M547 0h-167l-175 242v-242h-138v527h138v-244l178 244h154l-196 -256z" />
    <glyph glyph-name="Lsmall" unicode="&#xf76c;" horiz-adv-x="456" 
d="M411 0h-344v527h138v-421h206v-106z" />
    <glyph glyph-name="Msmall" unicode="&#xf76d;" horiz-adv-x="763" 
d="M708 0h-131l-27 323l-117 -323h-111l-119 322l-24 -322h-124l52 527h143l133 -350l127 350h142z" />
    <glyph glyph-name="Nsmall" unicode="&#xf76e;" horiz-adv-x="588" 
d="M521 0h-115l-215 319l3 -319h-127v527h125l205 -310l-3 310h127v-527z" />
    <glyph glyph-name="Osmall" unicode="&#xf76f;" 
d="M602 267c0 -171 -116 -282 -279 -282c-167 0 -281 115 -281 282c0 163 114 273 280 273c169 0 280 -114 280 -273zM462 267c0 95 -59 167 -144 167c-80 0 -136 -73 -136 -174s63 -167 143 -167c99 0 137 87 137 174z" />
    <glyph glyph-name="Psmall" unicode="&#xf770;" horiz-adv-x="518" 
d="M473 362c0 -65 -29 -101 -48 -120c-50 -50 -112 -57 -181 -57h-43v-185h-134v527h165c76 0 148 -3 195 -50c29 -29 46 -67 46 -115zM338 357c0 25 -10 43 -18 51c-14 14 -36 17 -84 17h-35v-137h30c62 0 78 7 88 17s19 28 19 52z" />
    <glyph glyph-name="Qsmall" unicode="&#xf771;" horiz-adv-x="652" 
d="M610 -97c-10 -3 -56 -15 -119 -15c-101 0 -178 28 -242 107c-88 17 -207 96 -207 272c0 163 114 273 280 273c169 0 280 -114 280 -273c0 -168 -109 -247 -187 -267c10 -6 42 -19 101 -19c35 0 62 5 77 8zM462 267c0 95 -59 167 -144 167c-80 0 -136 -73 -136 -174
s63 -167 143 -167c99 0 137 87 137 174z" />
    <glyph glyph-name="Rsmall" unicode="&#xf772;" horiz-adv-x="528" 
d="M508 0h-146l-66 140c-30 64 -47 63 -88 63h-7v-203h-134v527h151c68 0 144 3 197 -50c26 -26 45 -58 45 -106c0 -65 -36 -117 -115 -129c56 -5 79 -74 99 -113zM326 366c0 9 0 29 -12 41c-17 17 -47 17 -79 17h-34v-123h38c46 0 60 9 70 19c12 12 17 30 17 46z" />
    <glyph glyph-name="Ssmall" unicode="&#xf773;" horiz-adv-x="479" 
d="M433 157c0 -102 -86 -172 -209 -172c-119 0 -184 54 -196 67l59 86c8 -5 68 -46 128 -46c55 0 82 25 82 56c0 14 -6 25 -13 32c-30 30 -137 43 -192 98c-22 22 -44 53 -44 102c0 98 86 160 199 160c115 0 176 -56 183 -63l-62 -83c-14 10 -59 43 -114 43
c-48 0 -74 -22 -74 -46c0 -10 1 -17 11 -27c26 -26 139 -42 204 -107c24 -24 38 -59 38 -100z" />
    <glyph glyph-name="Tsmall" unicode="&#xf774;" horiz-adv-x="491" 
d="M465 423h-150v-423h-138v423h-151v104h439v-104z" />
    <glyph glyph-name="Usmall" unicode="&#xf775;" horiz-adv-x="574" 
d="M513 218c0 -69 -7 -127 -46 -166c-31 -31 -83 -67 -181 -67c-66 0 -128 17 -175 64c-48 48 -50 107 -50 182v296h138v-332c0 -29 1 -55 21 -75c13 -13 38 -23 69 -23c38 0 58 15 70 27c18 18 20 45 20 118v285h134v-309z" />
    <glyph glyph-name="Vsmall" unicode="&#xf776;" horiz-adv-x="575" 
d="M552 527l-200 -527h-130l-199 527h142l124 -367l127 367h136z" />
    <glyph glyph-name="Wsmall" unicode="&#xf777;" horiz-adv-x="795" 
d="M760 527l-136 -527h-138l-86 352l-93 -352h-138l-134 527h137l70 -343l92 343h137l88 -342l74 342h127z" />
    <glyph glyph-name="Xsmall" unicode="&#xf778;" horiz-adv-x="554" 
d="M533 0h-149l-109 170l-110 -170h-144l185 272l-174 255h151l99 -157l103 157h142l-176 -253z" />
    <glyph glyph-name="Ysmall" unicode="&#xf779;" horiz-adv-x="536" 
d="M516 527l-179 -315v-212h-138v212l-179 315h143l112 -210l111 210h130z" />
    <glyph glyph-name="Zsmall" unicode="&#xf77a;" horiz-adv-x="517" 
d="M467 0h-417v88l244 335h-233v104h398v-93l-237 -328h245v-106z" />
    <glyph glyph-name="ampersandsmall" unicode="&#xf726;" horiz-adv-x="611" 
d="M558 -3l-22 -2c-81 0 -110 28 -127 42c-6 -5 -59 -52 -160 -52c-112 0 -203 72 -203 172c0 97 89 139 104 147c-6 6 -50 47 -50 95c0 86 82 141 176 141c90 0 165 -47 165 -130c0 -90 -92 -121 -122 -135l91 -93c10 11 26 33 30 107h101c0 -105 -45 -163 -57 -175
c6 -4 24 -23 74 -23v-94zM320 412c0 17 -13 36 -44 36c-42 0 -55 -27 -55 -47s18 -38 34 -55c13 7 65 27 65 66zM338 108l-119 124c-10 -6 -49 -24 -49 -71c0 -35 28 -72 90 -72c55 0 73 15 78 19z" />
    <glyph glyph-name="Aacutesmall" unicode="&#xf7e1;" horiz-adv-x="573" 
d="M561 0h-141l-37 107h-198l-37 -107h-136l205 527h138zM345 205l-62 180l-62 -180h124zM416 670l-231 -95l-41 73l221 123z" />
    <glyph glyph-name="Agravesmall" unicode="&#xf7e0;" horiz-adv-x="573" 
d="M561 0h-141l-37 107h-198l-37 -107h-136l205 527h138zM345 205l-62 180l-62 -180h124zM424 648l-41 -73l-231 95l51 101z" />
    <glyph glyph-name="Acircumflexsmall" unicode="&#xf7e2;" horiz-adv-x="573" 
d="M561 0h-141l-37 107h-198l-37 -107h-136l205 527h138zM345 205l-62 180l-62 -180h124zM453 638l-45 -63l-125 71l-124 -70l-45 68l169 126z" />
    <glyph glyph-name="Atildesmall" unicode="&#xf7e3;" horiz-adv-x="573" 
d="M561 0h-141l-37 107h-198l-37 -107h-136l205 527h138zM345 205l-62 180l-62 -180h124zM465 674c-8 -9 -64 -81 -127 -81c-46 0 -72 32 -108 32c-27 0 -60 -33 -66 -38l-59 59c6 8 62 81 127 81c45 0 72 -31 107 -31c32 0 59 30 67 37z" />
    <glyph glyph-name="Adieresissmall" unicode="&#xf7e4;" horiz-adv-x="573" 
d="M561 0h-141l-37 107h-198l-37 -107h-136l205 527h138zM345 205l-62 180l-62 -180h124zM451 667c0 -39 -31 -70 -70 -70s-70 31 -70 70s31 70 70 70s70 -31 70 -70zM256 667c0 -39 -31 -70 -70 -70s-70 31 -70 70s31 70 70 70s70 -31 70 -70z" />
    <glyph glyph-name="Aringsmall" unicode="&#xf7e5;" horiz-adv-x="573" 
d="M561 0h-141l-37 107h-198l-37 -107h-136l205 527h138zM345 205l-62 180l-62 -180h124zM393 674c0 -60 -49 -110 -109 -110s-110 50 -110 110s50 109 110 109s109 -49 109 -109zM329 675c0 25 -21 46 -46 46s-46 -21 -46 -46s21 -46 46 -46s46 21 46 46z" />
    <glyph glyph-name="AEsmall" unicode="&#xf7e6;" horiz-adv-x="795" 
d="M745 0h-354v110h-179l-66 -110h-134l334 527h393v-104h-214v-102h201v-102h-201v-113h220v-106zM391 209v211l-123 -211h123z" />
    <glyph glyph-name="Ccedillasmall" unicode="&#xf7e7;" horiz-adv-x="549" 
d="M527 60c-14 -11 -76 -69 -191 -74l-4 -31c5 1 12 3 20 3c55 0 94 -34 94 -86c0 -60 -53 -96 -106 -96c-41 0 -73 16 -83 25l22 44s23 -15 53 -15c40 0 49 25 49 40c0 21 -16 34 -41 34c-21 0 -38 -8 -44 -11l-33 18l12 77c-111 12 -233 98 -233 270
c0 178 129 282 290 282c126 0 186 -67 191 -72l-60 -84c-15 11 -58 44 -126 44c-86 0 -155 -62 -155 -163c0 -99 59 -166 149 -166c70 0 130 43 139 48z" />
    <glyph glyph-name="Ethsmall" unicode="&#xf7f0;" horiz-adv-x="649" 
d="M607 268c0 -67 -21 -132 -74 -185c-80 -80 -195 -83 -299 -83h-124v222h-80v96h80v209h162c96 0 186 1 263 -76c51 -52 72 -121 72 -183zM470 271c0 52 -16 89 -41 114c-42 42 -97 41 -141 41h-43v-108h132v-96h-132v-120h44c119 0 181 63 181 169z" />
    <glyph glyph-name="Eacutesmall" unicode="&#xf7e9;" horiz-adv-x="471" 
d="M421 0h-354v527h348v-104h-214v-102h201v-102h-201v-113h220v-106zM379 670l-231 -95l-41 73l221 123z" />
    <glyph glyph-name="Egravesmall" unicode="&#xf7e8;" horiz-adv-x="471" 
d="M421 0h-354v527h348v-104h-214v-102h201v-102h-201v-113h220v-106zM381 648l-41 -73l-231 95l51 101z" />
    <glyph glyph-name="Ecircumflexsmall" unicode="&#xf7ea;" horiz-adv-x="471" 
d="M421 0h-354v527h348v-104h-214v-102h201v-102h-201v-113h220v-106zM407 643l-45 -63l-125 71l-124 -70l-45 68l169 126z" />
    <glyph glyph-name="Edieresissmall" unicode="&#xf7eb;" horiz-adv-x="471" 
d="M421 0h-354v527h348v-104h-214v-102h201v-102h-201v-113h220v-106zM410 667c0 -39 -31 -70 -70 -70s-70 31 -70 70s31 70 70 70s70 -31 70 -70zM215 667c0 -39 -31 -70 -70 -70s-70 31 -70 70s31 70 70 70s70 -31 70 -70z" />
    <glyph glyph-name="Iacutesmall" unicode="&#xf7ed;" horiz-adv-x="272" 
d="M205 0h-138v527h138v-527zM272 670l-231 -95l-41 73l221 123z" />
    <glyph glyph-name="Igravesmall" unicode="&#xf7ec;" horiz-adv-x="272" 
d="M205 0h-138v527h138v-527zM272 648l-41 -73l-231 95l51 101z" />
    <glyph glyph-name="Icircumflexsmall" unicode="&#xf7ee;" horiz-adv-x="272" 
d="M205 0h-138v527h138v-527zM305 640l-45 -63l-125 71l-124 -70l-45 68l169 126z" />
    <glyph glyph-name="Idieresissmall" unicode="&#xf7ef;" horiz-adv-x="272" 
d="M205 0h-138v527h138v-527zM303 669c0 -39 -31 -70 -70 -70s-70 31 -70 70s31 70 70 70s70 -31 70 -70zM108 669c0 -39 -31 -70 -70 -70s-70 31 -70 70s31 70 70 70s70 -31 70 -70z" />
    <glyph glyph-name="Lslashsmall" unicode="&#xf6f9;" horiz-adv-x="504" 
d="M459 0h-344v168l-46 -33l-64 83l110 78v231h138v-143l64 45l60 -85l-124 -87v-151h206v-106z" />
    <glyph glyph-name="Ntildesmall" unicode="&#xf7f1;" horiz-adv-x="588" 
d="M521 0h-115l-215 319l3 -319h-127v527h125l205 -310l-3 310h127v-527zM469 674c-8 -9 -64 -81 -127 -81c-46 0 -72 32 -108 32c-27 0 -60 -33 -66 -38l-59 59c6 8 62 81 127 81c45 0 72 -31 107 -31c32 0 59 30 67 37z" />
    <glyph glyph-name="Oacutesmall" unicode="&#xf7f3;" 
d="M602 267c0 -171 -116 -282 -279 -282c-167 0 -281 115 -281 282c0 163 114 273 280 273c169 0 280 -114 280 -273zM462 267c0 95 -59 167 -144 167c-80 0 -136 -73 -136 -174s63 -167 143 -167c99 0 137 87 137 174zM457 670l-231 -95l-41 73l221 123z" />
    <glyph glyph-name="Ogravesmall" unicode="&#xf7f2;" 
d="M602 267c0 -171 -116 -282 -279 -282c-167 0 -281 115 -281 282c0 163 114 273 280 273c169 0 280 -114 280 -273zM462 267c0 95 -59 167 -144 167c-80 0 -136 -73 -136 -174s63 -167 143 -167c99 0 137 87 137 174zM464 648l-41 -73l-231 95l51 101z" />
    <glyph glyph-name="Ocircumflexsmall" unicode="&#xf7f4;" 
d="M602 267c0 -171 -116 -282 -279 -282c-167 0 -281 115 -281 282c0 163 114 273 280 273c169 0 280 -114 280 -273zM462 267c0 95 -59 167 -144 167c-80 0 -136 -73 -136 -174s63 -167 143 -167c99 0 137 87 137 174zM492 638l-45 -63l-125 71l-124 -70l-45 68l169 126z
" />
    <glyph glyph-name="Otildesmall" unicode="&#xf7f5;" 
d="M602 267c0 -171 -116 -282 -279 -282c-167 0 -281 115 -281 282c0 163 114 273 280 273c169 0 280 -114 280 -273zM462 267c0 95 -59 167 -144 167c-80 0 -136 -73 -136 -174s63 -167 143 -167c99 0 137 87 137 174zM501 674c-8 -9 -64 -81 -127 -81
c-46 0 -72 32 -108 32c-27 0 -60 -33 -66 -38l-59 59c6 8 62 81 127 81c45 0 72 -31 107 -31c32 0 59 30 67 37z" />
    <glyph glyph-name="Odieresissmall" unicode="&#xf7f6;" 
d="M602 267c0 -171 -116 -282 -279 -282c-167 0 -281 115 -281 282c0 163 114 273 280 273c169 0 280 -114 280 -273zM462 267c0 95 -59 167 -144 167c-80 0 -136 -73 -136 -174s63 -167 143 -167c99 0 137 87 137 174zM490 667c0 -39 -31 -70 -70 -70s-70 31 -70 70
s31 70 70 70s70 -31 70 -70zM295 667c0 -39 -31 -70 -70 -70s-70 31 -70 70s31 70 70 70s70 -31 70 -70z" />
    <glyph glyph-name="Oslashsmall" unicode="&#xf7f8;" 
d="M602 267c0 -171 -116 -282 -279 -282c-54 0 -88 12 -102 16l-40 -67l-89 50l43 66c-13 10 -93 74 -93 217c0 163 114 273 280 273c56 0 89 -12 97 -15l36 64l89 -50l-36 -60c7 -6 94 -71 94 -212zM462 267c0 58 -18 86 -24 97l-158 -265c5 -3 29 -6 45 -6
c99 0 137 87 137 174zM363 427c-3 1 -20 7 -45 7c-80 0 -136 -73 -136 -174c0 -62 22 -92 23 -94z" />
    <glyph glyph-name="OEsmall" unicode="&#xf6fa;" horiz-adv-x="772" 
d="M722 0h-345c-96 0 -186 -1 -263 76c-51 52 -72 121 -72 183c0 67 21 132 74 185c80 80 195 83 299 83h301v-104h-214v-102h201v-102h-201v-113h220v-106zM369 101v324h-9c-119 0 -181 -63 -181 -169c0 -52 16 -89 41 -114c42 -42 97 -41 141 -41h8z" />
    <glyph glyph-name="Thornsmall" unicode="&#xf7fe;" horiz-adv-x="518" 
d="M473 273c0 -65 -29 -101 -48 -120c-50 -50 -112 -57 -181 -57h-43v-96h-134v527h134v-89h31c76 0 148 -3 195 -50c29 -29 46 -67 46 -115zM338 268c0 25 -10 43 -18 51c-14 14 -36 17 -84 17h-35v-137h30c62 0 78 7 88 17s19 28 19 52z" />
    <glyph glyph-name="Scaronsmall" unicode="&#xf6fd;" horiz-adv-x="479" 
d="M409 701l-169 -126l-170 132l45 63l125 -71l124 70zM433 157c0 -102 -86 -172 -209 -172c-119 0 -184 54 -196 67l59 86c8 -5 68 -46 128 -46c55 0 82 25 82 56c0 14 -6 25 -13 32c-30 30 -137 43 -192 98c-22 22 -44 53 -44 102c0 98 86 160 199 160
c115 0 176 -56 183 -63l-62 -83c-14 10 -59 43 -114 43c-48 0 -74 -22 -74 -46c0 -10 1 -17 11 -27c26 -26 139 -42 204 -107c24 -24 38 -59 38 -100z" />
    <glyph glyph-name="Uacutesmall" unicode="&#xf7fa;" horiz-adv-x="574" 
d="M513 218c0 -69 -7 -127 -46 -166c-31 -31 -83 -67 -181 -67c-66 0 -128 17 -175 64c-48 48 -50 107 -50 182v296h138v-332c0 -29 1 -55 21 -75c13 -13 38 -23 69 -23c38 0 58 15 70 27c18 18 20 45 20 118v285h134v-309zM426 670l-231 -95l-41 73l221 123z" />
    <glyph glyph-name="Ugravesmall" unicode="&#xf7f9;" horiz-adv-x="574" 
d="M513 218c0 -69 -7 -127 -46 -166c-31 -31 -83 -67 -181 -67c-66 0 -128 17 -175 64c-48 48 -50 107 -50 182v296h138v-332c0 -29 1 -55 21 -75c13 -13 38 -23 69 -23c38 0 58 15 70 27c18 18 20 45 20 118v285h134v-309zM421 648l-41 -73l-231 95l51 101z" />
    <glyph glyph-name="Ucircumflexsmall" unicode="&#xf7fb;" horiz-adv-x="574" 
d="M513 218c0 -69 -7 -127 -46 -166c-31 -31 -83 -67 -181 -67c-66 0 -128 17 -175 64c-48 48 -50 107 -50 182v296h138v-332c0 -29 1 -55 21 -75c13 -13 38 -23 69 -23c38 0 58 15 70 27c18 18 20 45 20 118v285h134v-309zM460 638l-45 -63l-125 71l-124 -70l-45 68
l169 126z" />
    <glyph glyph-name="Udieresissmall" unicode="&#xf7fc;" horiz-adv-x="574" 
d="M513 218c0 -69 -7 -127 -46 -166c-31 -31 -83 -67 -181 -67c-66 0 -128 17 -175 64c-48 48 -50 107 -50 182v296h138v-332c0 -29 1 -55 21 -75c13 -13 38 -23 69 -23c38 0 58 15 70 27c18 18 20 45 20 118v285h134v-309zM459 667c0 -39 -31 -70 -70 -70s-70 31 -70 70
s31 70 70 70s70 -31 70 -70zM264 667c0 -39 -31 -70 -70 -70s-70 31 -70 70s31 70 70 70s70 -31 70 -70z" />
    <glyph glyph-name="Yacutesmall" unicode="&#xf7fd;" horiz-adv-x="536" 
d="M516 527l-179 -315v-212h-138v212l-179 315h143l112 -210l111 210h130zM415 670l-231 -95l-41 73l221 123z" />
    <glyph glyph-name="Ydieresissmall" unicode="&#xf7ff;" horiz-adv-x="536" 
d="M516 527l-179 -315v-212h-138v212l-179 315h143l112 -210l111 210h130zM442 667c0 -39 -31 -70 -70 -70s-70 31 -70 70s31 70 70 70s70 -31 70 -70zM247 667c0 -39 -31 -70 -70 -70s-70 31 -70 70s31 70 70 70s70 -31 70 -70z" />
    <glyph glyph-name="Zcaronsmall" unicode="&#xf6ff;" horiz-adv-x="517" 
d="M467 0h-417v88l244 335h-233v104h398v-93l-237 -328h245v-106zM431 701l-169 -126l-170 132l45 63l125 -71l124 70z" />
    <glyph glyph-name="zerooldstyle" unicode="&#xf730;" horiz-adv-x="611" 
d="M605 267c0 -171 -116 -282 -279 -282c-167 0 -281 115 -281 282c0 163 114 273 280 273c169 0 280 -114 280 -273zM468 267c0 97 -60 170 -147 170c-81 0 -139 -74 -139 -177s64 -170 146 -170c101 0 140 88 140 177z" />
    <glyph glyph-name="oneoldstyle" unicode="&#xf731;" horiz-adv-x="414" 
d="M344 0h-138v381l-124 -81l-62 85l218 142h106v-527z" />
    <glyph glyph-name="twooldstyle" unicode="&#xf732;" horiz-adv-x="492" 
d="M457 0h-431v92c13 9 152 111 221 180c22 22 51 56 51 94c0 45 -37 67 -78 67c-56 0 -105 -45 -124 -61l-71 76c8 10 76 92 206 92c113 0 204 -64 204 -172c0 -69 -47 -119 -70 -142c-50 -50 -120 -100 -144 -118h236v-108z" />
    <glyph glyph-name="threeoldstyle" unicode="&#xf733;" horiz-adv-x="503" 
d="M458 75c0 -121 -90 -205 -244 -205c-127 0 -195 59 -207 74l62 83c15 -11 62 -51 138 -51c73 0 117 41 117 96c0 19 -7 38 -23 55c-24 25 -55 33 -123 33h-27v104h22c61 0 94 10 120 36c14 15 19 32 19 50c0 44 -37 83 -98 83c-66 0 -120 -49 -129 -58l-69 77
c7 9 78 88 217 88c120 0 208 -74 208 -181c0 -54 -31 -123 -110 -143c87 -16 127 -73 127 -141z" />
    <glyph glyph-name="fouroldstyle" unicode="&#xf734;" horiz-adv-x="586" 
d="M562 14h-98v-140h-131v140h-303v88l293 425h141v-412h98v-101zM333 115v257l-167 -257h167z" />
    <glyph glyph-name="fiveoldstyle" unicode="&#xf735;" horiz-adv-x="523" 
d="M483 106c0 -144 -96 -236 -255 -236c-130 0 -197 66 -203 72l61 84c17 -12 62 -50 138 -50c85 0 124 54 124 122c0 41 -22 115 -121 115c-61 0 -97 -31 -104 -36l-45 28v322h380v-105h-256v-120c10 5 31 13 70 13c124 0 211 -85 211 -209z" />
    <glyph glyph-name="sixoldstyle" unicode="&#xf736;" horiz-adv-x="587" 
d="M542 221c0 -138 -95 -236 -235 -236c-155 0 -252 127 -252 323c0 208 102 348 280 348c124 0 181 -52 194 -64l-56 -87c-11 7 -62 45 -133 45c-118 0 -159 -95 -163 -188c30 55 99 79 153 79c125 0 212 -93 212 -220zM417 217c0 71 -43 118 -104 118
c-66 0 -112 -51 -112 -118c0 -74 47 -124 111 -124c62 0 105 51 105 124z" />
    <glyph glyph-name="sevenoldstyle" unicode="&#xf737;" horiz-adv-x="509" 
d="M477 420l-241 -546h-141l250 544h-333v109h465v-107z" />
    <glyph glyph-name="eightoldstyle" unicode="&#xf738;" horiz-adv-x="576" 
d="M531 185c0 -125 -97 -200 -242 -200s-244 76 -244 201c0 67 35 129 111 149c-64 20 -91 76 -91 133c0 114 90 187 222 187c133 0 225 -73 225 -186c0 -67 -33 -114 -92 -134c80 -25 111 -79 111 -150zM390 465c0 43 -34 85 -102 85c-65 0 -101 -44 -101 -84
c0 -47 36 -87 104 -87c64 0 99 41 99 86zM409 188c0 52 -41 95 -120 95c-82 0 -121 -43 -121 -94s40 -98 122 -98c80 0 119 45 119 97z" />
    <glyph glyph-name="nineoldstyle" unicode="&#xf739;" horiz-adv-x="577" 
d="M532 217c0 -208 -102 -348 -280 -348c-124 0 -181 52 -194 64l56 87c11 -7 62 -45 133 -45c118 0 159 95 163 188c-30 -55 -99 -79 -153 -79c-125 0 -212 93 -212 220c0 138 95 236 235 236c155 0 252 -127 252 -323zM386 308c0 74 -47 124 -111 124
c-62 0 -105 -51 -105 -124c0 -71 43 -118 104 -118c66 0 112 51 112 118z" />
    <glyph glyph-name="dollaroldstyle" horiz-adv-x="557" 
d="M512 197c0 -126 -93 -195 -188 -208v-87h-95v84c-115 11 -177 67 -184 75l62 96c10 -6 77 -54 152 -54c69 0 110 32 110 81c0 20 -9 37 -19 47c-42 42 -161 58 -231 128c-27 27 -53 66 -53 126c0 120 94 177 163 191v85h95v-79c114 -7 177 -66 183 -72l-64 -91
c-9 7 -70 50 -137 50c-59 0 -101 -28 -101 -70c0 -12 1 -24 18 -41c32 -32 167 -60 237 -130c32 -32 52 -69 52 -131z" />
    <glyph glyph-name="centoldstyle" horiz-adv-x="529" 
d="M484 51c-2 -2 -55 -47 -142 -58v-103h-89v103c-111 15 -208 105 -208 253c0 153 108 242 208 259v105h89v-102c81 -8 129 -51 134 -58l-54 -83c-7 5 -48 34 -104 34c-90 0 -138 -78 -138 -148c0 -86 44 -152 134 -152c63 0 114 34 118 36z" />
    <glyph glyph-name="sterlingoldstyle" horiz-adv-x="606" 
d="M561 600l-66 -81c-14 11 -66 50 -128 50c-68 0 -112 -44 -112 -122c0 -36 6 -70 7 -78h194v-111h-182c1 -6 2 -18 2 -23c0 -36 -10 -91 -42 -119h319v-116h-508v107c80 10 97 67 97 123c0 11 -2 20 -3 28h-91v111h80c-3 26 -6 52 -6 78c0 147 89 236 238 236
c130 0 195 -76 201 -83z" />
    <glyph glyph-name="Eurooldstyle" horiz-adv-x="637" 
d="M592 63c-7 -7 -74 -79 -212 -79c-211 0 -257 196 -260 230h-75v90h67s-1 15 -1 31c0 14 0 16 1 28h-67v90h74c3 25 45 230 260 230c138 0 203 -79 209 -86l-63 -76c-13 10 -57 53 -136 53c-117 0 -136 -104 -139 -121h214v-90h-224c-1 -12 -1 -12 -1 -28s1 -31 1 -31h224
v-90h-212c1 -11 13 -119 141 -119c78 0 129 43 135 48z" />
    <glyph glyph-name="florinoldstyle" horiz-adv-x="641" 
d="M631 647l-38 -98c-12 4 -44 18 -73 18c-61 0 -69 -35 -87 -123l-15 -75h143l-24 -111h-143l-51 -267c-11 -58 -26 -132 -66 -172c-34 -34 -79 -52 -132 -52c-72 0 -127 33 -135 38l40 99c10 -4 40 -17 69 -17c24 0 40 6 50 16c15 15 22 34 35 100l52 255h-124l22 111h126
l18 95c17 89 30 134 62 166c37 37 82 53 135 53c72 0 129 -32 136 -36z" />
    <glyph glyph-name="yenoldstyle" horiz-adv-x="646" 
d="M601 667l-163 -296h96v-90h-143v-62h143v-90h-144v-129h-134v129h-151v90h150v62h-150v90h99l-159 296h144l141 -289l141 289h130z" />
    <glyph glyph-name="uni2126" unicode="&#x2126;" horiz-adv-x="832" 
d="M761 0h-292v97c9 4 136 43 136 235c0 144 -76 233 -189 233s-189 -89 -189 -233c0 -191 126 -231 136 -235v-97h-292v116h114c-5 5 -98 70 -98 233c0 198 132 334 329 334s329 -136 329 -334c0 -160 -90 -226 -97 -233h113v-116z" />
    <glyph glyph-name="uni2206" unicode="&#x2206;" horiz-adv-x="722" 
d="M651 0h-580l230 667h119zM482 111l-125 369l-125 -369h250z" />
    <glyph glyph-name="uni00B5" unicode="&#xb5;" horiz-adv-x="557" 
d="M496 0h-115v35c-7 -6 -63 -49 -139 -49c-39 0 -59 13 -66 18v-130h-115v618h135v-259c0 -64 3 -96 21 -114c6 -6 21 -18 50 -18c46 0 86 25 94 31v360h135v-492z" />
    <glyph glyph-name="figuredash" unicode="&#x2012;" horiz-adv-x="645" 
d="M596 207h-547v112h547v-112z" />
    <glyph glyph-name=".null" horiz-adv-x="0" 
 />
    <glyph glyph-name="germandblssmall" horiz-adv-x="958" 
d="M433 157c0 -102 -86 -172 -209 -172c-119 0 -184 54 -196 67l59 86c8 -5 68 -46 128 -46c55 0 82 25 82 56c0 14 -6 25 -13 32c-30 30 -137 43 -192 98c-22 22 -44 53 -44 102c0 98 86 160 199 160c115 0 176 -56 183 -63l-62 -83c-14 10 -59 43 -114 43
c-48 0 -74 -22 -74 -46c0 -10 1 -17 11 -27c26 -26 139 -42 204 -107c24 -24 38 -59 38 -100zM912 157c0 -102 -86 -172 -209 -172c-119 0 -184 54 -196 67l59 86c8 -5 68 -46 128 -46c55 0 82 25 82 56c0 14 -6 25 -13 32c-30 30 -137 43 -192 98c-22 22 -44 53 -44 102
c0 98 86 160 199 160c115 0 176 -56 183 -63l-62 -83c-14 10 -59 43 -114 43c-48 0 -74 -22 -74 -46c0 -10 1 -17 11 -27c26 -26 139 -42 204 -107c24 -24 38 -59 38 -100z" />
    <glyph glyph-name="germandbls.small" horiz-adv-x="958" 
d="M433 157c0 -102 -86 -172 -209 -172c-119 0 -184 54 -196 67l59 86c8 -5 68 -46 128 -46c55 0 82 25 82 56c0 14 -6 25 -13 32c-30 30 -137 43 -192 98c-22 22 -44 53 -44 102c0 98 86 160 199 160c115 0 176 -56 183 -63l-62 -83c-14 10 -59 43 -114 43
c-48 0 -74 -22 -74 -46c0 -10 1 -17 11 -27c26 -26 139 -42 204 -107c24 -24 38 -59 38 -100zM912 157c0 -102 -86 -172 -209 -172c-119 0 -184 54 -196 67l59 86c8 -5 68 -46 128 -46c55 0 82 25 82 56c0 14 -6 25 -13 32c-30 30 -137 43 -192 98c-22 22 -44 53 -44 102
c0 98 86 160 199 160c115 0 176 -56 183 -63l-62 -83c-14 10 -59 43 -114 43c-48 0 -74 -22 -74 -46c0 -10 1 -17 11 -27c26 -26 139 -42 204 -107c24 -24 38 -59 38 -100z" />
    <glyph glyph-name="dotlessismall" horiz-adv-x="272" 
d="M205 0h-138v527h138v-527z" />
    <glyph glyph-name="Idotaccent" unicode="&#x130;" horiz-adv-x="284" 
d="M213 0h-142v667h142v-667zM212 784c0 -39 -31 -70 -70 -70s-70 31 -70 70s31 70 70 70s70 -31 70 -70z" />
    <glyph glyph-name="zerosuperior" unicode="&#x2070;" horiz-adv-x="412" 
d="M358 497c0 -108 -57 -180 -153 -180c-95 0 -151 72 -151 179c0 105 57 178 151 178s153 -73 153 -177zM276 494c0 76 -30 111 -69 111c-40 0 -71 -36 -71 -110c0 -75 28 -110 68 -110c61 0 72 62 72 109z" />
    <glyph glyph-name="foursuperior" unicode="&#x2074;" horiz-adv-x="412" 
d="M350 388h-42v-64h-78v64h-167v55l166 224h79v-213h42v-66zM230 454v109l-77 -109h77z" />
    <glyph glyph-name="fivesuperior" unicode="&#x2075;" horiz-adv-x="412" 
d="M328 440c0 -78 -52 -123 -140 -123c-72 0 -111 39 -113 43l37 52c8 -7 40 -27 73 -27c37 0 60 16 60 49c0 30 -18 52 -62 52c-26 0 -50 -13 -56 -17l-28 18v180h211v-69h-135v-53c6 2 18 5 34 5c69 0 119 -42 119 -110z" />
    <glyph glyph-name="sixsuperior" unicode="&#x2076;" horiz-adv-x="412" 
d="M338 441c0 -75 -53 -126 -130 -126c-85 0 -139 68 -139 174c0 112 57 185 153 185c69 0 107 -34 109 -38l-33 -52c-3 2 -33 23 -72 23c-55 0 -76 -38 -82 -81c15 17 41 33 77 33c69 0 117 -49 117 -118zM262 439c0 31 -22 53 -51 53c-32 0 -55 -22 -55 -53
c0 -34 23 -56 54 -56s52 23 52 56z" />
    <glyph glyph-name="sevensuperior" unicode="&#x2077;" horiz-adv-x="412" 
d="M334 610l-131 -286h-88l135 276h-166v67h250v-57z" />
    <glyph glyph-name="eightsuperior" unicode="&#x2078;" horiz-adv-x="412" 
d="M344 425c0 -69 -57 -110 -137 -110s-138 41 -138 110c0 39 21 66 50 78c-23 11 -40 32 -40 68c0 63 54 103 127 103s128 -40 128 -102c0 -40 -24 -59 -44 -68c29 -11 54 -37 54 -79zM254 570c0 23 -17 39 -48 39c-29 0 -47 -16 -47 -39c0 -26 18 -40 49 -40
c29 0 46 14 46 40zM264 426c0 27 -20 44 -57 44c-39 0 -58 -17 -58 -44s20 -45 58 -45c37 0 57 18 57 45z" />
    <glyph glyph-name="ninesuperior" unicode="&#x2079;" horiz-adv-x="412" 
d="M343 501c0 -113 -56 -186 -152 -186c-70 0 -107 34 -110 37l34 54c3 -2 33 -23 71 -23c55 0 76 36 82 80c-17 -21 -47 -33 -76 -33c-69 0 -117 47 -117 117c0 75 52 127 130 127c85 0 138 -67 138 -173zM256 548c0 35 -23 58 -54 58c-30 0 -52 -24 -52 -58
c0 -31 22 -52 51 -52c32 0 55 21 55 52z" />
    <glyph glyph-name="parenleftsuperior" unicode="&#x207d;" horiz-adv-x="260" 
d="M230 323l-40 -52c-5 3 -136 69 -136 223s131 223 136 226l40 -53c-5 -4 -93 -62 -93 -172c0 -109 88 -168 93 -172z" />
    <glyph glyph-name="parenrightsuperior" unicode="&#x207e;" horiz-adv-x="260" 
d="M70 271l-40 52c5 4 93 63 93 172c0 110 -88 168 -93 172l40 53c5 -3 136 -72 136 -226s-131 -220 -136 -223z" />
    <glyph glyph-name="zeroinferior" unicode="&#x2080;" horiz-adv-x="412" 
d="M358 173c0 -108 -57 -180 -153 -180c-95 0 -151 72 -151 179c0 105 57 178 151 178s153 -73 153 -177zM276 170c0 76 -30 111 -69 111c-40 0 -71 -36 -71 -110c0 -75 28 -110 68 -110c61 0 72 62 72 109z" />
    <glyph glyph-name="oneinferior" unicode="&#x2081;" horiz-adv-x="412" 
d="M282 0h-81v248l-73 -47l-39 57l130 85h63v-343z" />
    <glyph glyph-name="twoinferior" unicode="&#x2082;" horiz-adv-x="412" 
d="M327 0h-240v59c40 32 89 78 112 102c25 26 42 51 42 77s-18 44 -46 44c-30 0 -53 -19 -75 -38l-40 48c30 37 74 58 122 58c65 0 117 -43 117 -111c0 -49 -24 -82 -56 -114c-20 -20 -41 -40 -64 -58h128v-67z" />
    <glyph glyph-name="threeinferior" unicode="&#x2083;" horiz-adv-x="412" 
d="M332 103c0 -68 -51 -112 -135 -112c-74 0 -111 35 -118 43l38 53c8 -5 35 -27 73 -27c41 0 59 19 59 42c0 40 -42 41 -72 41h-20v63h14c22 0 47 -1 64 16c5 5 8 13 8 23c0 18 -17 36 -47 36c-36 0 -64 -24 -71 -30l-41 48c30 36 77 51 123 51c66 0 116 -40 116 -100
c0 -27 -13 -65 -48 -74c40 -4 57 -44 57 -73z" />
    <glyph glyph-name="fourinferior" unicode="&#x2084;" horiz-adv-x="412" 
d="M350 64h-42v-64h-78v64h-167v55l166 224h79v-213h42v-66zM230 130v109l-77 -109h77z" />
    <glyph glyph-name="fiveinferior" unicode="&#x2085;" horiz-adv-x="412" 
d="M328 116c0 -78 -52 -123 -140 -123c-72 0 -111 39 -113 43l37 52c8 -7 40 -27 73 -27c37 0 60 16 60 49c0 30 -18 52 -62 52c-26 0 -50 -13 -56 -17l-28 18v180h211v-69h-135v-53c6 2 18 5 34 5c69 0 119 -42 119 -110z" />
    <glyph glyph-name="sixinferior" unicode="&#x2086;" horiz-adv-x="412" 
d="M338 117c0 -75 -53 -126 -130 -126c-85 0 -139 68 -139 174c0 112 57 185 153 185c69 0 107 -34 109 -38l-33 -52c-3 2 -33 23 -72 23c-55 0 -76 -38 -82 -81c15 17 41 33 77 33c69 0 117 -49 117 -118zM262 115c0 31 -22 53 -51 53c-32 0 -55 -22 -55 -53
c0 -34 23 -56 54 -56s52 23 52 56z" />
    <glyph glyph-name="seveninferior" unicode="&#x2087;" horiz-adv-x="412" 
d="M334 286l-131 -286h-88l135 276h-166v67h250v-57z" />
    <glyph glyph-name="eightinferior" unicode="&#x2088;" horiz-adv-x="412" 
d="M344 101c0 -69 -57 -110 -137 -110s-138 41 -138 110c0 39 21 66 50 78c-23 11 -40 32 -40 68c0 63 54 103 127 103s128 -40 128 -102c0 -40 -24 -59 -44 -68c29 -11 54 -37 54 -79zM254 246c0 23 -17 39 -48 39c-29 0 -47 -16 -47 -39c0 -26 18 -40 49 -40
c29 0 46 14 46 40zM264 102c0 27 -20 44 -57 44c-39 0 -58 -17 -58 -44s20 -45 58 -45c37 0 57 18 57 45z" />
    <glyph glyph-name="nineinferior" unicode="&#x2089;" horiz-adv-x="412" 
d="M343 177c0 -113 -56 -186 -152 -186c-70 0 -107 34 -110 37l34 54c3 -2 33 -23 71 -23c55 0 76 36 82 80c-17 -21 -47 -33 -76 -33c-69 0 -117 47 -117 117c0 75 52 127 130 127c85 0 138 -67 138 -173zM256 224c0 35 -23 58 -54 58c-30 0 -52 -24 -52 -58
c0 -31 22 -52 51 -52c32 0 55 21 55 52z" />
    <glyph glyph-name="parenleftinferior" unicode="&#x208d;" horiz-adv-x="260" 
d="M230 1l-40 -52c-5 3 -136 69 -136 223s131 223 136 226l40 -53c-5 -4 -93 -62 -93 -172c0 -109 88 -168 93 -172z" />
    <glyph glyph-name="parenrightinferior" unicode="&#x208e;" horiz-adv-x="260" 
d="M70 -51l-40 52c5 4 93 63 93 172c0 110 -88 168 -93 172l40 53c5 -3 136 -72 136 -226s-131 -220 -136 -223z" />
    <glyph glyph-name="zero.dnom" unicode="&#xf655;" horiz-adv-x="412" 
d="M358 173c0 -108 -57 -180 -153 -180c-95 0 -151 72 -151 179c0 105 57 178 151 178s153 -73 153 -177zM276 170c0 76 -30 111 -69 111c-40 0 -71 -36 -71 -110c0 -75 28 -110 68 -110c61 0 72 62 72 109z" />
    <glyph glyph-name="one.dnom" unicode="&#xf656;" horiz-adv-x="412" 
d="M282 0h-81v248l-73 -47l-39 57l130 85h63v-343z" />
    <glyph glyph-name="two.dnom" unicode="&#xf657;" horiz-adv-x="412" 
d="M327 0h-240v59c40 32 89 78 112 102c25 26 42 51 42 77s-18 44 -46 44c-30 0 -53 -19 -75 -38l-40 48c30 37 74 58 122 58c65 0 117 -43 117 -111c0 -49 -24 -82 -56 -114c-20 -20 -41 -40 -64 -58h128v-67z" />
    <glyph glyph-name="three.dnom" unicode="&#xf658;" horiz-adv-x="412" 
d="M332 103c0 -68 -51 -112 -135 -112c-74 0 -111 35 -118 43l38 53c8 -5 35 -27 73 -27c41 0 59 19 59 42c0 40 -42 41 -72 41h-20v63h14c22 0 47 -1 64 16c5 5 8 13 8 23c0 18 -17 36 -47 36c-36 0 -64 -24 -71 -30l-41 48c30 36 77 51 123 51c66 0 116 -40 116 -100
c0 -27 -13 -65 -48 -74c40 -4 57 -44 57 -73z" />
    <glyph glyph-name="four.dnom" unicode="&#xf659;" horiz-adv-x="412" 
d="M350 64h-42v-64h-78v64h-167v55l166 224h79v-213h42v-66zM230 130v109l-77 -109h77z" />
    <glyph glyph-name="five.dnom" unicode="&#xf65a;" horiz-adv-x="412" 
d="M328 116c0 -78 -52 -123 -140 -123c-72 0 -111 39 -113 43l37 52c8 -7 40 -27 73 -27c37 0 60 16 60 49c0 30 -18 52 -62 52c-26 0 -50 -13 -56 -17l-28 18v180h211v-69h-135v-53c6 2 18 5 34 5c69 0 119 -42 119 -110z" />
    <glyph glyph-name="six.dnom" unicode="&#xf65b;" horiz-adv-x="412" 
d="M338 117c0 -75 -53 -126 -130 -126c-85 0 -139 68 -139 174c0 112 57 185 153 185c69 0 107 -34 109 -38l-33 -52c-3 2 -33 23 -72 23c-55 0 -76 -38 -82 -81c15 17 41 33 77 33c69 0 117 -49 117 -118zM262 115c0 31 -22 53 -51 53c-32 0 -55 -22 -55 -53
c0 -34 23 -56 54 -56s52 23 52 56z" />
    <glyph glyph-name="seven.dnom" unicode="&#xf65c;" horiz-adv-x="412" 
d="M334 286l-131 -286h-88l135 276h-166v67h250v-57z" />
    <glyph glyph-name="eight.dnom" unicode="&#xf65d;" horiz-adv-x="412" 
d="M344 101c0 -69 -57 -110 -137 -110s-138 41 -138 110c0 39 21 66 50 78c-23 11 -40 32 -40 68c0 63 54 103 127 103s128 -40 128 -102c0 -40 -24 -59 -44 -68c29 -11 54 -37 54 -79zM254 246c0 23 -17 39 -48 39c-29 0 -47 -16 -47 -39c0 -26 18 -40 49 -40
c29 0 46 14 46 40zM264 102c0 27 -20 44 -57 44c-39 0 -58 -17 -58 -44s20 -45 58 -45c37 0 57 18 57 45z" />
    <glyph glyph-name="nine.dnom" unicode="&#xf65e;" horiz-adv-x="412" 
d="M343 177c0 -113 -56 -186 -152 -186c-70 0 -107 34 -110 37l34 54c3 -2 33 -23 71 -23c55 0 76 36 82 80c-17 -21 -47 -33 -76 -33c-69 0 -117 47 -117 117c0 75 52 127 130 127c85 0 138 -67 138 -173zM256 224c0 35 -23 58 -54 58c-30 0 -52 -24 -52 -58
c0 -31 22 -52 51 -52c32 0 55 21 55 52z" />
    <glyph glyph-name="parenleft.dnom" unicode="&#xf62c;" horiz-adv-x="260" 
d="M230 1l-40 -52c-5 3 -136 69 -136 223s131 223 136 226l40 -53c-5 -4 -93 -62 -93 -172c0 -109 88 -168 93 -172z" />
    <glyph glyph-name="parenright.dnom" unicode="&#xf62d;" horiz-adv-x="260" 
d="M70 -51l-40 52c5 4 93 63 93 172c0 110 -88 168 -93 172l40 53c5 -3 136 -72 136 -226s-131 -220 -136 -223z" />
    <glyph glyph-name="twothirds" unicode="&#x2154;" horiz-adv-x="824" 
d="M330 324h-240v59c40 32 89 78 112 102c25 26 42 51 42 77s-18 44 -46 44c-30 0 -53 -19 -75 -38l-40 48c30 37 74 58 122 58c65 0 117 -43 117 -111c0 -49 -24 -82 -56 -114c-20 -20 -41 -40 -64 -58h128v-67zM671 657l-458 -701l-69 47l458 700zM744 103
c0 -68 -51 -112 -135 -112c-74 0 -111 35 -118 43l38 53c8 -5 35 -27 73 -27c41 0 59 19 59 42c0 40 -42 41 -72 41h-20v63h14c22 0 47 -1 64 16c5 5 8 13 8 23c0 18 -17 36 -47 36c-36 0 -64 -24 -71 -30l-41 48c30 36 77 51 123 51c66 0 116 -40 116 -100
c0 -27 -13 -65 -48 -74c40 -4 57 -44 57 -73z" />
    <glyph glyph-name="onethird" unicode="&#x2153;" horiz-adv-x="824" 
d="M282 324h-81v248l-73 -47l-39 57l130 85h63v-343zM671 657l-458 -701l-69 47l458 700zM744 103c0 -68 -51 -112 -135 -112c-74 0 -111 35 -118 43l38 53c8 -5 35 -27 73 -27c41 0 59 19 59 42c0 40 -42 41 -72 41h-20v63h14c22 0 47 -1 64 16c5 5 8 13 8 23
c0 18 -17 36 -47 36c-36 0 -64 -24 -71 -30l-41 48c30 36 77 51 123 51c66 0 116 -40 116 -100c0 -27 -13 -65 -48 -74c40 -4 57 -44 57 -73z" />
    <glyph glyph-name="oneeighth" unicode="&#x215b;" horiz-adv-x="824" 
d="M282 324h-81v248l-73 -47l-39 57l130 85h63v-343zM671 657l-458 -701l-69 47l458 700zM756 101c0 -69 -57 -110 -137 -110s-138 41 -138 110c0 39 21 66 50 78c-23 11 -40 32 -40 68c0 63 54 103 127 103s128 -40 128 -102c0 -40 -24 -59 -44 -68c29 -11 54 -37 54 -79z
M666 246c0 23 -17 39 -48 39c-29 0 -47 -16 -47 -39c0 -26 18 -40 49 -40c29 0 46 14 46 40zM676 102c0 27 -20 44 -57 44c-39 0 -58 -17 -58 -44s20 -45 58 -45c37 0 57 18 57 45z" />
    <glyph glyph-name="threeeighths" unicode="&#x215c;" horiz-adv-x="824" 
d="M332 427c0 -68 -51 -112 -135 -112c-74 0 -111 35 -118 43l38 53c8 -5 35 -27 73 -27c41 0 59 19 59 42c0 40 -42 41 -72 41h-20v63h14c22 0 47 -1 64 16c5 5 8 13 8 23c0 18 -17 36 -47 36c-36 0 -64 -24 -71 -30l-41 48c30 36 77 51 123 51c66 0 116 -40 116 -100
c0 -27 -13 -65 -48 -74c40 -4 57 -44 57 -73zM671 657l-458 -701l-69 47l458 700zM756 101c0 -69 -57 -110 -137 -110s-138 41 -138 110c0 39 21 66 50 78c-23 11 -40 32 -40 68c0 63 54 103 127 103s128 -40 128 -102c0 -40 -24 -59 -44 -68c29 -11 54 -37 54 -79zM666 246
c0 23 -17 39 -48 39c-29 0 -47 -16 -47 -39c0 -26 18 -40 49 -40c29 0 46 14 46 40zM676 102c0 27 -20 44 -57 44c-39 0 -58 -17 -58 -44s20 -45 58 -45c37 0 57 18 57 45z" />
    <glyph glyph-name="fiveeighths" unicode="&#x215d;" horiz-adv-x="824" 
d="M328 440c0 -78 -52 -123 -140 -123c-72 0 -111 39 -113 43l37 52c8 -7 40 -27 73 -27c37 0 60 16 60 49c0 30 -18 52 -62 52c-26 0 -50 -13 -56 -17l-28 18v180h211v-69h-135v-53c6 2 18 5 34 5c69 0 119 -42 119 -110zM671 657l-458 -701l-69 47l458 700zM756 101
c0 -69 -57 -110 -137 -110s-138 41 -138 110c0 39 21 66 50 78c-23 11 -40 32 -40 68c0 63 54 103 127 103s128 -40 128 -102c0 -40 -24 -59 -44 -68c29 -11 54 -37 54 -79zM666 246c0 23 -17 39 -48 39c-29 0 -47 -16 -47 -39c0 -26 18 -40 49 -40c29 0 46 14 46 40z
M676 102c0 27 -20 44 -57 44c-39 0 -58 -17 -58 -44s20 -45 58 -45c37 0 57 18 57 45z" />
    <glyph glyph-name="seveneighths" unicode="&#x215e;" horiz-adv-x="824" 
d="M334 610l-131 -286h-88l135 276h-166v67h250v-57zM671 657l-458 -701l-69 47l458 700zM756 101c0 -69 -57 -110 -137 -110s-138 41 -138 110c0 39 21 66 50 78c-23 11 -40 32 -40 68c0 63 54 103 127 103s128 -40 128 -102c0 -40 -24 -59 -44 -68c29 -11 54 -37 54 -79z
M666 246c0 23 -17 39 -48 39c-29 0 -47 -16 -47 -39c0 -26 18 -40 49 -40c29 0 46 14 46 40zM676 102c0 27 -20 44 -57 44c-39 0 -58 -17 -58 -44s20 -45 58 -45c37 0 57 18 57 45z" />
    <glyph glyph-name="Euro.fitted" unicode="&#xe002;" horiz-adv-x="580" 
d="M568 63c-7 -7 -74 -79 -212 -79c-211 0 -257 196 -260 230h-75v90h67s-1 15 -1 31c0 14 0 16 1 28h-67v90h74c3 25 45 230 260 230c138 0 203 -79 209 -86l-63 -76c-13 10 -57 53 -136 53c-117 0 -136 -104 -139 -121h214v-90h-224c-1 -12 -1 -12 -1 -28s1 -31 1 -31h224
v-90h-212c1 -11 13 -119 141 -119c78 0 129 43 135 48z" />
    <glyph glyph-name="dollar.fitted" horiz-adv-x="555" 
d="M505 197c0 -126 -93 -195 -188 -208v-87h-95v84c-115 11 -177 67 -184 75l62 96c10 -6 77 -54 152 -54c69 0 110 32 110 81c0 20 -9 37 -19 47c-42 42 -161 58 -231 128c-27 27 -53 66 -53 126c0 120 94 177 163 191v85h95v-79c114 -7 177 -66 183 -72l-64 -91
c-9 7 -70 50 -137 50c-59 0 -101 -28 -101 -70c0 -12 1 -24 18 -41c32 -32 167 -60 237 -130c32 -32 52 -69 52 -131z" />
    <glyph glyph-name="cent.fitted" horiz-adv-x="489" 
d="M471 51c-2 -2 -55 -47 -142 -58v-103h-89v103c-111 15 -208 105 -208 253c0 153 108 242 208 259v105h89v-102c81 -8 129 -51 134 -58l-54 -83c-7 5 -48 34 -104 34c-90 0 -138 -78 -138 -148c0 -86 44 -152 134 -152c63 0 114 34 118 36z" />
    <glyph glyph-name="sterling.fitted" horiz-adv-x="549" 
d="M537 600l-66 -81c-14 11 -66 50 -128 50c-68 0 -112 -44 -112 -122c0 -36 6 -70 7 -78h194v-111h-182c1 -6 2 -18 2 -23c0 -36 -10 -91 -42 -119h319v-116h-508v107c80 10 97 67 97 123c0 11 -2 20 -3 28h-91v111h80c-3 26 -6 52 -6 78c0 147 89 236 238 236
c130 0 195 -76 201 -83z" />
    <glyph glyph-name="florin.fitted" horiz-adv-x="581" 
d="M581 647l-38 -98c-12 4 -44 18 -73 18c-61 0 -69 -35 -87 -123l-15 -75h143l-24 -111h-143l-51 -267c-11 -58 -26 -132 -66 -172c-34 -34 -79 -52 -132 -52c-72 0 -127 33 -135 38l40 99c10 -4 40 -17 69 -17c24 0 40 6 50 16c15 15 22 34 35 100l52 255h-124l22 111h126
l18 95c17 89 30 134 62 166c37 37 82 53 135 53c72 0 129 -32 136 -36z" />
    <glyph glyph-name="yen.fitted" horiz-adv-x="586" 
d="M571 667l-163 -296h96v-90h-143v-62h143v-90h-144v-129h-134v129h-151v90h150v62h-150v90h99l-159 296h144l141 -289l141 289h130z" />
    <glyph glyph-name="zero.fitted" unicode="&#xf639;" horiz-adv-x="646" 
d="M600 336c0 -215 -104 -352 -278 -352c-172 0 -276 138 -276 351c0 208 107 348 276 348c170 0 278 -140 278 -347zM461 333c0 158 -56 236 -137 236c-83 0 -140 -82 -140 -236c0 -157 54 -234 136 -234c86 0 141 77 141 234z" />
    <glyph glyph-name="one.fitted" unicode="&#xf6dc;" horiz-adv-x="431" 
d="M360 0h-140v503l-147 -97l-64 98l243 163h108v-667z" />
    <glyph glyph-name="two.fitted" unicode="&#xf63a;" horiz-adv-x="544" 
d="M498 0h-471v103c79 63 179 156 227 204c52 52 90 105 90 162c0 59 -42 98 -104 98c-77 0 -145 -64 -153 -71l-71 82c2 3 81 105 238 105c129 0 229 -80 229 -211c0 -96 -47 -158 -112 -223c-79 -79 -145 -127 -153 -133h280v-116z" />
    <glyph glyph-name="three.fitted" unicode="&#xf63b;" horiz-adv-x="545" 
d="M499 197c0 -126 -97 -213 -261 -213c-145 0 -216 68 -222 75l63 89c8 -5 65 -49 145 -49c89 0 131 40 131 96c0 88 -91 91 -157 91h-29v111h16c49 0 100 -2 138 36c13 13 20 29 20 52c0 46 -41 83 -107 83c-75 0 -134 -48 -142 -54l-67 79c3 3 74 90 231 90
c128 0 223 -77 223 -188c0 -62 -39 -138 -107 -149c81 -10 125 -78 125 -149z" />
    <glyph glyph-name="four.fitted" unicode="&#xf63c;" horiz-adv-x="594" 
d="M563 129h-82v-129h-133v129h-324v97l318 441h139v-426h82v-112zM348 241v258l-177 -258h177z" />
    <glyph glyph-name="five.fitted" unicode="&#xf63d;" horiz-adv-x="561" 
d="M515 230c0 -150 -101 -246 -269 -246c-138 0 -211 71 -215 76l64 88c12 -7 66 -48 144 -48c82 0 137 43 137 118c0 67 -40 119 -138 119c-58 0 -101 -29 -105 -31l-44 27v334h404v-114h-276v-118c4 2 32 10 75 10c131 0 223 -86 223 -215z" />
    <glyph glyph-name="six.fitted" unicode="&#xf63e;" horiz-adv-x="597" 
d="M561 230c0 -144 -101 -246 -249 -246c-163 0 -266 132 -266 337c0 218 109 362 293 362c137 0 202 -60 207 -65l-58 -90c-6 4 -60 43 -138 43c-123 0 -173 -82 -177 -192c32 51 104 80 164 80c132 0 224 -96 224 -229zM432 225c0 72 -47 119 -113 119
c-72 0 -122 -50 -122 -119c0 -76 52 -124 121 -124c67 0 114 50 114 124z" />
    <glyph glyph-name="seven.fitted" unicode="&#xf63f;" horiz-adv-x="532" 
d="M511 560l-260 -560h-150l262 551h-347v116h495v-107z" />
    <glyph glyph-name="eight.fitted" unicode="&#xf640;" horiz-adv-x="604" 
d="M558 192c0 -130 -102 -208 -255 -208s-257 79 -257 209c0 70 38 135 107 156c-60 21 -86 79 -86 138c0 119 95 195 234 195c140 0 237 -76 237 -194c0 -68 -33 -121 -86 -139c70 -23 106 -83 106 -157zM409 484c0 46 -36 86 -107 86c-67 0 -106 -42 -106 -85
c0 -49 38 -88 109 -88c67 0 104 38 104 87zM429 196c0 56 -43 96 -126 96c-86 0 -127 -40 -127 -95c0 -56 44 -100 128 -100c82 0 125 43 125 99z" />
    <glyph glyph-name="nine.fitted" unicode="&#xf641;" horiz-adv-x="597" 
d="M551 346c0 -218 -109 -362 -293 -362c-137 0 -202 60 -207 65l58 90c6 -4 60 -43 138 -43c123 0 173 82 177 192c-32 -51 -104 -80 -164 -80c-132 0 -224 96 -224 229c0 144 101 246 249 246c163 0 266 -132 266 -337zM400 442c0 76 -52 124 -121 124
c-67 0 -114 -50 -114 -124c0 -72 47 -119 113 -119c72 0 122 50 122 119z" />
    <glyph glyph-name="Euro.taboldstyle" unicode="&#xf64e;" 
d="M596 63c-7 -7 -74 -79 -212 -79c-211 0 -257 196 -260 230h-75v90h67s-1 15 -1 31c0 14 0 16 1 28h-67v90h74c3 25 45 230 260 230c138 0 203 -79 209 -86l-63 -76c-13 10 -57 53 -136 53c-117 0 -136 -104 -139 -121h214v-90h-224c-1 -12 -1 -12 -1 -28s1 -31 1 -31h224
v-90h-212c1 -11 13 -119 141 -119c78 0 129 43 135 48z" />
    <glyph glyph-name="dollar.taboldstyle" unicode="&#xf653;" 
d="M556 197c0 -126 -93 -195 -188 -208v-87h-95v84c-115 11 -177 67 -184 75l62 96c10 -6 77 -54 152 -54c69 0 110 32 110 81c0 20 -9 37 -19 47c-42 42 -161 58 -231 128c-27 27 -53 66 -53 126c0 120 94 177 163 191v85h95v-79c114 -7 177 -66 183 -72l-64 -91
c-9 7 -70 50 -137 50c-59 0 -101 -28 -101 -70c0 -12 1 -24 18 -41c32 -32 167 -60 237 -130c32 -32 52 -69 52 -131z" />
    <glyph glyph-name="cent.taboldstyle" unicode="&#xf654;" 
d="M549 51c-2 -2 -55 -47 -142 -58v-103h-89v103c-111 15 -208 105 -208 253c0 153 108 242 208 259v105h89v-102c81 -8 129 -51 134 -58l-54 -83c-7 5 -48 34 -104 34c-90 0 -138 -78 -138 -148c0 -86 44 -152 134 -152c63 0 114 34 118 36z" />
    <glyph glyph-name="sterling.taboldstyle" unicode="&#xf651;" 
d="M580 600l-66 -81c-14 11 -66 50 -128 50c-68 0 -112 -44 -112 -122c0 -36 6 -70 7 -78h194v-111h-182c1 -6 2 -18 2 -23c0 -36 -10 -91 -42 -119h319v-116h-508v107c80 10 97 67 97 123c0 11 -2 20 -3 28h-91v111h80c-3 26 -6 52 -6 78c0 147 89 236 238 236
c130 0 195 -76 201 -83z" />
    <glyph glyph-name="florin.taboldstyle" unicode="&#xf64f;" 
d="M633 647l-38 -98c-12 4 -44 18 -73 18c-61 0 -69 -35 -87 -123l-15 -75h143l-24 -111h-143l-51 -267c-11 -58 -26 -132 -66 -172c-34 -34 -79 -52 -132 -52c-72 0 -127 33 -135 38l40 99c10 -4 40 -17 69 -17c24 0 40 6 50 16c15 15 22 34 35 100l52 255h-124l22 111h126
l18 95c17 89 30 134 62 166c37 37 82 53 135 53c72 0 129 -32 136 -36z" />
    <glyph glyph-name="yen.taboldstyle" unicode="&#xf652;" 
d="M600 667l-163 -296h96v-90h-143v-62h143v-90h-144v-129h-134v129h-151v90h150v62h-150v90h99l-159 296h144l141 -289l141 289h130z" />
    <glyph glyph-name="zero.taboldstyle" unicode="&#xf643;" 
d="M602 267c0 -171 -116 -282 -279 -282c-167 0 -281 115 -281 282c0 163 114 273 280 273c169 0 280 -114 280 -273zM465 267c0 97 -60 170 -147 170c-81 0 -139 -74 -139 -177s64 -170 146 -170c101 0 140 88 140 177z" />
    <glyph glyph-name="one.taboldstyle" unicode="&#xf644;" 
d="M443 0h-138v381l-124 -81l-62 85l218 142h106v-527z" />
    <glyph glyph-name="two.taboldstyle" unicode="&#xf645;" 
d="M528 0h-431v92c13 9 152 111 221 180c22 22 51 56 51 94c0 45 -37 67 -78 67c-56 0 -105 -45 -124 -61l-71 76c8 10 76 92 206 92c113 0 204 -64 204 -172c0 -69 -47 -119 -70 -142c-50 -50 -120 -100 -144 -118h236v-108z" />
    <glyph glyph-name="three.taboldstyle" unicode="&#xf646;" 
d="M523 75c0 -121 -90 -205 -244 -205c-127 0 -195 59 -207 74l62 83c15 -11 62 -51 138 -51c73 0 117 41 117 96c0 19 -7 38 -23 55c-24 25 -55 33 -123 33h-27v104h22c61 0 94 10 120 36c14 15 19 32 19 50c0 44 -37 83 -98 83c-66 0 -120 -49 -129 -58l-69 77
c7 9 78 88 217 88c120 0 208 -74 208 -181c0 -54 -31 -123 -110 -143c87 -16 127 -73 127 -141z" />
    <glyph glyph-name="four.taboldstyle" unicode="&#xf647;" 
d="M586 14h-98v-140h-131v140h-303v88l293 425h141v-412h98v-101zM357 115v257l-167 -257h167z" />
    <glyph glyph-name="five.taboldstyle" unicode="&#xf648;" 
d="M548 106c0 -144 -96 -236 -255 -236c-130 0 -197 66 -203 72l61 84c17 -12 62 -50 138 -50c85 0 124 54 124 122c0 41 -22 115 -121 115c-61 0 -97 -31 -104 -36l-45 28v322h380v-105h-256v-120c10 5 31 13 70 13c124 0 211 -85 211 -209z" />
    <glyph glyph-name="six.taboldstyle" unicode="&#xf649;" 
d="M566 221c0 -138 -95 -236 -235 -236c-155 0 -252 127 -252 323c0 208 102 348 280 348c124 0 181 -52 194 -64l-56 -87c-11 7 -62 45 -133 45c-118 0 -159 -95 -163 -188c30 55 99 79 153 79c125 0 212 -93 212 -220zM441 217c0 71 -43 118 -104 118
c-66 0 -112 -51 -112 -118c0 -74 47 -124 111 -124c62 0 105 51 105 124z" />
    <glyph glyph-name="seven.taboldstyle" unicode="&#xf64a;" 
d="M544 420l-241 -546h-141l250 544h-333v109h465v-107z" />
    <glyph glyph-name="eight.taboldstyle" unicode="&#xf64b;" 
d="M565 185c0 -125 -97 -200 -242 -200s-244 76 -244 201c0 67 35 129 111 149c-64 20 -91 76 -91 133c0 114 90 187 222 187c133 0 225 -73 225 -186c0 -67 -33 -114 -92 -134c80 -25 111 -79 111 -150zM424 465c0 43 -34 85 -102 85c-65 0 -101 -44 -101 -84
c0 -47 36 -87 104 -87c64 0 99 41 99 86zM443 188c0 52 -41 95 -120 95c-82 0 -121 -43 -121 -94s40 -98 122 -98c80 0 119 45 119 97z" />
    <glyph glyph-name="nine.taboldstyle" unicode="&#xf64c;" 
d="M565 217c0 -208 -102 -348 -280 -348c-124 0 -181 52 -194 64l56 87c11 -7 62 -45 133 -45c118 0 159 95 163 188c-30 -55 -99 -79 -153 -79c-125 0 -212 93 -212 220c0 138 95 236 235 236c155 0 252 -127 252 -323zM419 308c0 74 -47 124 -111 124
c-62 0 -105 -51 -105 -124c0 -71 43 -118 104 -118c66 0 112 51 112 118z" />
    <glyph glyph-name="afii61352" unicode="&#x2116;" horiz-adv-x="1092" 
d="M599 0h-121l-281 445l3 -445h-129v667h128l274 -442l-3 442h129v-667zM1052 493c0 -116 -78 -198 -191 -198c-108 0 -182 79 -182 192c0 114 78 196 190 196c108 0 183 -80 183 -190zM948 488c0 65 -35 108 -84 108s-81 -42 -81 -106c0 -65 36 -107 85 -107
c50 0 80 40 80 105z" />
    <glyph glyph-name="franc" unicode="&#x20a3;" horiz-adv-x="819" 
d="M469 553h-258v-138h214v-112h-214v-303h-140v667h398v-114zM803 416l-31 -102c-4 1 -23 3 -30 3c-82 0 -123 -49 -138 -71v-246h-135v415h115v-62c4 7 65 76 163 76c35 0 53 -12 56 -13z" />
    <glyph glyph-name="lira" unicode="&#x20a4;" 
d="M464 214h-158c-5 -53 -25 -84 -41 -98h319v-116h-508v107c80 10 94 66 96 107h-93v90h91c-5 29 -10 55 -10 59h-81v90h75c0 144 91 230 237 230c130 0 195 -76 201 -83l-66 -81c-14 11 -66 50 -128 50c-80 0 -109 -55 -112 -116h178v-90h-173c0 -10 7 -39 11 -59h162v-90
z" />
    <glyph glyph-name="peseta" unicode="&#x20a7;" horiz-adv-x="1420" 
d="M541 464c0 -82 -37 -131 -59 -153c-62 -62 -133 -67 -220 -67h-52v-244h-139v667h188c97 0 172 -4 228 -60c35 -35 54 -86 54 -143zM398 458c0 35 -12 61 -25 74c-22 22 -53 24 -108 24h-55v-199h49c73 0 97 8 113 24s26 45 26 77zM958 18c-4 -3 -51 -32 -124 -32
c-44 0 -94 11 -127 44c-42 42 -42 89 -42 158v192h-85v112h85v137h135v-137h140v-112h-140v-197c0 -39 3 -84 62 -84c31 0 53 9 62 12zM1370 145c0 -98 -75 -159 -195 -159c-112 0 -185 51 -191 56l46 86c10 -5 66 -40 128 -40c60 0 76 24 76 48c0 32 -27 39 -106 72
c-43 18 -122 49 -122 143s77 155 193 155c107 0 163 -44 163 -44l-44 -83c-5 3 -62 32 -112 32s-66 -25 -66 -45c0 -33 34 -42 89 -64c67 -27 141 -57 141 -157z" />
    <glyph glyph-name="afii61289" unicode="&#x2113;" horiz-adv-x="500" 
d="M249 269c-29 -150 -33 -173 -33 -208c0 -17 6 -25 18 -25c17 0 34 18 51 54c6 14 11 18 19 18s13 -5 13 -15c0 -15 -10 -37 -26 -60c-25 -32 -48 -47 -76 -47c-42 0 -67 33 -67 88c0 28 1 45 10 127c-30 -28 -43 -38 -49 -38c-7 0 -14 8 -14 16c0 7 5 14 20 27
c8 7 39 39 50 52c55 287 117 420 197 420c38 0 63 -32 63 -81c0 -54 -25 -128 -64 -192c-24 -38 -57 -79 -112 -136zM260 333c81 91 125 181 125 260c0 26 -9 44 -23 44c-15 0 -32 -18 -41 -44c-19 -53 -41 -145 -61 -260z" />
    <glyph glyph-name="estimated" unicode="&#x212e;" horiz-adv-x="798" 
d="M769 311h-599c-3 0 -6 -1 -6 -4v-181c0 -8 4 -15 9 -21c57 -60 137 -98 227 -98c95 0 180 43 238 110h54c-67 -78 -174 -130 -293 -130c-204 0 -370 149 -370 333c0 183 166 332 370 332s370 -149 370 -332v-9zM634 335v181c0 9 -4 16 -10 22c-57 58 -137 94 -224 94
c-89 0 -169 -38 -226 -97c-6 -6 -10 -14 -10 -23v-177c0 -3 3 -5 6 -5h459c3 0 5 2 5 5z" />
    <glyph glyph-name="currency" unicode="&#xa4;" horiz-adv-x="611" 
d="M598 114l-80 -80l-70 70c-43 -24 -94 -37 -152 -37c-57 0 -107 12 -149 34l-67 -67l-80 80l62 62c-30 43 -47 98 -47 163c0 60 16 112 44 154l-59 59l80 80l64 -65c42 23 93 35 151 35c60 0 113 -14 156 -38l67 68l80 -80l-65 -64c27 -41 42 -91 42 -149
c0 -63 -16 -116 -44 -159zM438 339c0 97 -60 160 -147 160c-81 0 -139 -64 -139 -167s64 -160 146 -160c101 0 140 78 140 167z" />
    <glyph glyph-name="Acute" unicode="&#xf6c9;" horiz-adv-x="418" 
d="M345 808l-231 -95l-41 73l221 123z" />
    <glyph glyph-name="Grave" unicode="&#xf6ce;" horiz-adv-x="418" 
d="M304 713l-231 95l51 101l221 -123z" />
    <glyph glyph-name="Circumflex" unicode="&#xeff7;" horiz-adv-x="418" 
d="M379 776l-45 -63l-125 71l-124 -70l-45 68l169 126z" />
    <glyph glyph-name="Tilde" unicode="&#xeff5;" horiz-adv-x="418" 
d="M389 801c-8 -9 -64 -81 -127 -81c-46 0 -72 32 -108 32c-27 0 -60 -33 -66 -38l-59 59c6 8 62 81 127 81c45 0 72 -31 107 -31c32 0 59 30 67 37z" />
    <glyph glyph-name="Dieresis" unicode="&#xf6cb;" horiz-adv-x="418" 
d="M377 784c0 -39 -31 -70 -70 -70s-70 31 -70 70s31 70 70 70s70 -31 70 -70zM182 784c0 -39 -31 -70 -70 -70s-70 31 -70 70s31 70 70 70s70 -31 70 -70z" />
    <glyph glyph-name="Macron" unicode="&#xf6d0;" horiz-adv-x="418" 
d="M383 754h-348v112h348v-112z" />
    <glyph glyph-name="Breve" unicode="&#xefee;" horiz-adv-x="418" 
d="M358 869c-3 -95 -60 -155 -149 -155s-146 60 -149 155h90c4 -43 24 -63 59 -63s55 20 59 63h90z" />
    <glyph glyph-name="Ring" unicode="&#xfff3;" horiz-adv-x="418" 
d="M319 824c0 -60 -49 -110 -109 -110s-110 50 -110 110s50 109 110 109s109 -49 109 -109zM255 825c0 25 -21 46 -46 46s-46 -21 -46 -46s21 -46 46 -46s46 21 46 46z" />
    <glyph glyph-name="Caron" unicode="&#xf6ca;" horiz-adv-x="418" 
d="M39 845l45 63l125 -71l124 70l45 -68l-169 -126z" />
    <glyph glyph-name="Hungarumlaut" unicode="&#xf6cf;" horiz-adv-x="418" 
d="M375 888l-78 -175l-95 32l60 183zM218 888l-80 -175l-95 32l60 183z" />
    <glyph glyph-name="Dotaccent" unicode="&#xefed;" horiz-adv-x="418" 
d="M279 784c0 -39 -31 -70 -70 -70s-70 31 -70 70s31 70 70 70s70 -31 70 -70z" />
    <glyph glyph-name="Cedilla" unicode="&#xeff2;" horiz-adv-x="418" 
d="M303 -128c0 -60 -53 -96 -106 -96c-41 0 -73 16 -83 25l22 44s23 -15 53 -15c40 0 49 25 49 40c0 21 -16 34 -41 34c-21 0 -38 -8 -44 -11l-33 18l14 89h60l-5 -45c5 1 12 3 20 3c55 0 94 -34 94 -86z" />
    <glyph glyph-name="Ogonek" unicode="&#xeff1;" horiz-adv-x="418" 
d="M159 0h81c-31 -23 -72 -46 -72 -89c0 -31 20 -53 51 -53c30 0 66 18 73 22l24 -48c-6 -4 -51 -33 -107 -33c-65 0 -107 44 -107 112c0 45 27 76 57 89z" />
    <glyph glyph-name="commaaccent" horiz-adv-x="418" 
d="M177 -96h142c0 -71 -12 -131 -88 -207c-15 -15 -38 -35 -58 -48l-76 68c5 4 10 9 15 14c70 70 65 140 65 173z" />
    <glyph glyph-name="Commaaccent" horiz-adv-x="418" 
d="M177 -96h142c0 -71 -12 -131 -88 -207c-15 -15 -38 -35 -58 -48l-76 68c5 4 10 9 15 14c70 70 65 140 65 173z" />
    <glyph glyph-name="zero.numr" unicode="&#xf661;" horiz-adv-x="412" 
d="M358 497c0 -108 -57 -180 -153 -180c-95 0 -151 72 -151 179c0 105 57 178 151 178s153 -73 153 -177zM276 494c0 76 -30 111 -69 111c-40 0 -71 -36 -71 -110c0 -75 28 -110 68 -110c61 0 72 62 72 109z" />
    <glyph glyph-name="one.numr" unicode="&#xf662;" horiz-adv-x="412" 
d="M282 324h-81v248l-73 -47l-39 57l130 85h63v-343z" />
    <glyph glyph-name="two.numr" unicode="&#xf663;" horiz-adv-x="412" 
d="M327 324h-240v59c40 32 89 78 112 102c25 26 42 51 42 77s-18 44 -46 44c-30 0 -53 -19 -75 -38l-40 48c30 37 74 58 122 58c65 0 117 -43 117 -111c0 -49 -24 -82 -56 -114c-20 -20 -41 -40 -64 -58h128v-67z" />
    <glyph glyph-name="three.numr" unicode="&#xf664;" horiz-adv-x="412" 
d="M332 427c0 -68 -51 -112 -135 -112c-74 0 -111 35 -118 43l38 53c8 -5 35 -27 73 -27c41 0 59 19 59 42c0 40 -42 41 -72 41h-20v63h14c22 0 47 -1 64 16c5 5 8 13 8 23c0 18 -17 36 -47 36c-36 0 -64 -24 -71 -30l-41 48c30 36 77 51 123 51c66 0 116 -40 116 -100
c0 -27 -13 -65 -48 -74c40 -4 57 -44 57 -73z" />
    <glyph glyph-name="four.numr" unicode="&#xf665;" horiz-adv-x="412" 
d="M350 388h-42v-64h-78v64h-167v55l166 224h79v-213h42v-66zM230 454v109l-77 -109h77z" />
    <glyph glyph-name="five.numr" unicode="&#xf666;" horiz-adv-x="412" 
d="M328 440c0 -78 -52 -123 -140 -123c-72 0 -111 39 -113 43l37 52c8 -7 40 -27 73 -27c37 0 60 16 60 49c0 30 -18 52 -62 52c-26 0 -50 -13 -56 -17l-28 18v180h211v-69h-135v-53c6 2 18 5 34 5c69 0 119 -42 119 -110z" />
    <glyph glyph-name="six.numr" unicode="&#xf667;" horiz-adv-x="412" 
d="M338 441c0 -75 -53 -126 -130 -126c-85 0 -139 68 -139 174c0 112 57 185 153 185c69 0 107 -34 109 -38l-33 -52c-3 2 -33 23 -72 23c-55 0 -76 -38 -82 -81c15 17 41 33 77 33c69 0 117 -49 117 -118zM262 439c0 31 -22 53 -51 53c-32 0 -55 -22 -55 -53
c0 -34 23 -56 54 -56s52 23 52 56z" />
    <glyph glyph-name="seven.numr" unicode="&#xf668;" horiz-adv-x="412" 
d="M334 610l-131 -286h-88l135 276h-166v67h250v-57z" />
    <glyph glyph-name="eight.numr" unicode="&#xf669;" horiz-adv-x="412" 
d="M344 425c0 -69 -57 -110 -137 -110s-138 41 -138 110c0 39 21 66 50 78c-23 11 -40 32 -40 68c0 63 54 103 127 103s128 -40 128 -102c0 -40 -24 -59 -44 -68c29 -11 54 -37 54 -79zM254 570c0 23 -17 39 -48 39c-29 0 -47 -16 -47 -39c0 -26 18 -40 49 -40
c29 0 46 14 46 40zM264 426c0 27 -20 44 -57 44c-39 0 -58 -17 -58 -44s20 -45 58 -45c37 0 57 18 57 45z" />
    <glyph glyph-name="nine.numr" unicode="&#xf66a;" horiz-adv-x="412" 
d="M343 501c0 -113 -56 -186 -152 -186c-70 0 -107 34 -110 37l34 54c3 -2 33 -23 71 -23c55 0 76 36 82 80c-17 -21 -47 -33 -76 -33c-69 0 -117 47 -117 117c0 75 52 127 130 127c85 0 138 -67 138 -173zM256 548c0 35 -23 58 -54 58c-30 0 -52 -24 -52 -58
c0 -31 22 -52 51 -52c32 0 55 21 55 52z" />
    <glyph glyph-name="parenleft.numr" unicode="&#xf631;" horiz-adv-x="260" 
d="M230 323l-40 -52c-5 3 -136 69 -136 223s131 223 136 226l40 -53c-5 -4 -93 -62 -93 -172c0 -109 88 -168 93 -172z" />
    <glyph glyph-name="parenright.numr" unicode="&#xf632;" horiz-adv-x="260" 
d="M70 271l-40 52c5 4 93 63 93 172c0 110 -88 168 -93 172l40 53c5 -3 136 -72 136 -226s-131 -220 -136 -223z" />
    <glyph glyph-name="Amacron" unicode="&#x100;" horiz-adv-x="659" 
d="M643 0h-146l-49 139h-240l-49 -139h-143l242 667h142zM411 248l-84 268l-84 -268h168zM501 754h-348v112h348v-112z" />
    <glyph glyph-name="Abreve" unicode="&#x102;" horiz-adv-x="659" 
d="M643 0h-146l-49 139h-240l-49 -139h-143l242 667h142zM411 248l-84 268l-84 -268h168zM476 869c-3 -95 -60 -155 -149 -155s-146 60 -149 155h90c4 -43 24 -63 59 -63s55 20 59 63h90z" />
    <glyph glyph-name="Aogonek" unicode="&#x104;" horiz-adv-x="659" 
d="M497 0l-49 139h-240l-49 -139h-143l242 667h142l243 -667c-31 -23 -72 -46 -72 -89c0 -31 20 -53 51 -53c30 0 66 18 73 22l24 -48c-6 -4 -51 -33 -107 -33c-65 0 -107 44 -107 112c0 45 27 76 57 89h-65zM411 248l-84 268l-84 -268h168z" />
    <glyph glyph-name="Cacute" unicode="&#x106;" horiz-adv-x="649" 
d="M625 67c-8 -8 -95 -83 -246 -83c-188 0 -333 130 -333 344c0 222 152 355 351 355c150 0 219 -70 226 -77l-61 -93c-8 5 -62 51 -159 51c-121 0 -215 -85 -215 -227c0 -139 81 -230 208 -230c88 0 159 49 170 55zM537 808l-231 -95l-41 73l221 123z" />
    <glyph glyph-name="Ccaron" unicode="&#x10c;" horiz-adv-x="649" 
d="M625 67c-8 -8 -95 -83 -246 -83c-188 0 -333 130 -333 344c0 222 152 355 351 355c150 0 219 -70 226 -77l-61 -93c-8 5 -62 51 -159 51c-121 0 -215 -85 -215 -227c0 -139 81 -230 208 -230c88 0 159 49 170 55zM221 845l45 63l125 -71l124 70l45 -68l-169 -126z" />
    <glyph glyph-name="Emacron" unicode="&#x112;" horiz-adv-x="531" 
d="M483 0h-412v667h404v-114h-264v-155h248v-112h-248v-170h272v-116zM446 754h-348v112h348v-112z" />
    <glyph glyph-name="Edotaccent" unicode="&#x116;" horiz-adv-x="531" 
d="M483 0h-412v667h404v-114h-264v-155h248v-112h-248v-170h272v-116zM345 784c0 -39 -31 -70 -70 -70s-70 31 -70 70s31 70 70 70s70 -31 70 -70z" />
    <glyph glyph-name="Eogonek" unicode="&#x118;" horiz-adv-x="531" 
d="M71 0v667h404v-114h-264v-155h248v-112h-248v-170h272v-116c-31 -23 -72 -46 -72 -89c0 -31 20 -53 51 -53c30 0 66 18 73 22l24 -48c-6 -4 -51 -33 -107 -33c-65 0 -107 44 -107 112c0 45 27 76 57 89h-331z" />
    <glyph glyph-name="Gbreve" unicode="&#x11e;" horiz-adv-x="697" 
d="M633 53c-4 -2 -103 -69 -254 -69c-188 0 -333 130 -333 344c0 222 152 355 351 355c150 0 219 -70 226 -77l-61 -93c-8 5 -62 51 -159 51c-121 0 -215 -85 -215 -227c0 -139 82 -234 213 -234c57 0 91 13 99 16v115h-125v108h258v-289zM548 869
c-3 -95 -60 -155 -149 -155s-146 60 -149 155h90c4 -43 24 -63 59 -63s55 20 59 63h90z" />
    <glyph glyph-name="Imacron" unicode="&#x12a;" horiz-adv-x="284" 
d="M213 0h-142v667h142v-667zM315 754h-348v112h348v-112z" />
    <glyph glyph-name="Iogonek" unicode="&#x12e;" horiz-adv-x="284" 
d="M71 0v667h142v-667c-31 -23 -72 -46 -72 -89c0 -31 20 -53 51 -53c30 0 66 18 73 22l24 -48c-6 -4 -51 -33 -107 -33c-65 0 -107 44 -107 112c0 45 27 76 57 89h-61z" />
    <glyph glyph-name="Lacute" unicode="&#x139;" horiz-adv-x="520" 
d="M471 0h-400v667h142v-551h258v-116zM373 808l-231 -95l-41 73l221 123z" />
    <glyph glyph-name="Lcaron" unicode="&#x13d;" horiz-adv-x="520" 
d="M471 0h-400v667h142v-551h258v-116zM336 667h142c0 -71 -12 -131 -88 -207c-15 -15 -38 -35 -58 -48l-76 68c5 4 10 9 15 14c70 70 65 140 65 173z" />
    <glyph glyph-name="Nacute" unicode="&#x143;" horiz-adv-x="670" 
d="M599 0h-121l-281 445l3 -445h-129v667h128l274 -442l-3 442h129v-667zM471 808l-231 -95l-41 73l221 123z" />
    <glyph glyph-name="Ncaron" unicode="&#x147;" horiz-adv-x="670" 
d="M599 0h-121l-281 445l3 -445h-129v667h128l274 -442l-3 442h129v-667zM162 845l45 63l125 -71l124 70l45 -68l-169 -126z" />
    <glyph glyph-name="Omacron" unicode="&#x14c;" horiz-adv-x="742" 
d="M696 339c0 -216 -134 -355 -324 -355c-194 0 -326 144 -326 355c0 205 132 344 325 344c197 0 325 -144 325 -344zM553 340c0 132 -75 227 -187 227c-107 0 -177 -98 -177 -237c0 -140 80 -227 185 -227c138 0 179 130 179 237zM545 754h-348v112h348v-112z" />
    <glyph glyph-name="Ohungarumlaut" unicode="&#x150;" horiz-adv-x="742" 
d="M696 339c0 -216 -134 -355 -324 -355c-194 0 -326 144 -326 355c0 205 132 344 325 344c197 0 325 -144 325 -344zM553 340c0 132 -75 227 -187 227c-107 0 -177 -98 -177 -237c0 -140 80 -227 185 -227c138 0 179 130 179 237zM570 888l-78 -175l-95 32l60 183zM413 888
l-80 -175l-95 32l60 183z" />
    <glyph glyph-name="Racute" unicode="&#x154;" horiz-adv-x="597" 
d="M573 0h-150l-81 181c-38 86 -62 83 -116 83h-16v-264h-139v667h171c89 0 167 3 228 -58c31 -31 54 -75 54 -133c0 -82 -47 -155 -147 -170c71 -7 100 -92 123 -143zM383 469c0 27 -9 51 -21 63c-25 25 -59 24 -111 24h-41v-183h56c47 0 70 7 91 28c16 16 26 45 26 68z
M423 808l-231 -95l-41 73l221 123z" />
    <glyph glyph-name="Rcaron" unicode="&#x158;" horiz-adv-x="597" 
d="M573 0h-150l-81 181c-38 86 -62 83 -116 83h-16v-264h-139v667h171c89 0 167 3 228 -58c31 -31 54 -75 54 -133c0 -82 -47 -155 -147 -170c71 -7 100 -92 123 -143zM383 469c0 27 -9 51 -21 63c-25 25 -59 24 -111 24h-41v-183h56c47 0 70 7 91 28c16 16 26 45 26 68z
M102 845l45 63l125 -71l124 70l45 -68l-169 -126z" />
    <glyph glyph-name="Sacute" unicode="&#x15a;" horiz-adv-x="549" 
d="M499 197c0 -126 -96 -213 -242 -213c-142 0 -218 69 -225 77l62 96c14 -9 76 -54 155 -54c65 0 107 32 107 81c0 20 -9 37 -19 47c-42 42 -161 58 -231 128c-27 27 -53 66 -53 126c0 120 97 198 231 198c132 0 204 -67 210 -73l-64 -91c-9 7 -70 50 -137 50
c-59 0 -101 -28 -101 -70c0 -20 6 -29 17 -40c32 -32 169 -62 238 -131c32 -32 52 -69 52 -131zM423 808l-231 -95l-41 73l221 123z" />
    <glyph glyph-name="Scedilla" unicode="&#x15e;" horiz-adv-x="549" 
d="M499 197c0 -122 -90 -207 -228 -213l-3 -29c5 1 12 3 20 3c55 0 94 -34 94 -86c0 -60 -53 -96 -106 -96c-41 0 -73 16 -83 25l22 44s23 -15 53 -15c40 0 49 25 49 40c0 21 -16 34 -41 34c-21 0 -38 -8 -44 -11l-33 18l12 76c-113 12 -173 67 -179 74l62 96
c14 -9 76 -54 155 -54c65 0 107 32 107 81c0 20 -9 37 -19 47c-42 42 -161 58 -231 128c-27 27 -53 66 -53 126c0 120 97 198 231 198c132 0 204 -67 210 -73l-64 -91c-9 7 -70 50 -137 50c-59 0 -101 -28 -101 -70c0 -20 6 -29 17 -40c32 -32 169 -62 238 -131
c32 -32 52 -69 52 -131z" />
    <glyph glyph-name="Scommaaccent" unicode="&#x218;" horiz-adv-x="549" 
d="M499 197c0 -126 -96 -213 -242 -213c-142 0 -218 69 -225 77l62 96c14 -9 76 -54 155 -54c65 0 107 32 107 81c0 20 -9 37 -19 47c-42 42 -161 58 -231 128c-27 27 -53 66 -53 126c0 120 97 198 231 198c132 0 204 -67 210 -73l-64 -91c-9 7 -70 50 -137 50
c-59 0 -101 -28 -101 -70c0 -20 6 -29 17 -40c32 -32 169 -62 238 -131c32 -32 52 -69 52 -131zM194 -96h142c0 -71 -12 -131 -88 -207c-15 -15 -38 -35 -58 -48l-76 68c5 4 10 9 15 14c70 70 65 140 65 173z" />
    <glyph glyph-name="Tcaron" unicode="&#x164;" horiz-adv-x="561" 
d="M534 553h-182v-553h-142v553h-183v114h507v-114zM111 845l45 63l125 -71l124 70l45 -68l-169 -126z" />
    <glyph glyph-name="Umacron" unicode="&#x16a;" horiz-adv-x="656" 
d="M591 291c0 -119 -11 -180 -64 -233c-28 -28 -84 -74 -200 -74c-72 0 -144 20 -199 75c-60 60 -63 136 -63 236v372h142v-416c0 -38 3 -82 33 -112c18 -18 50 -31 90 -31c48 0 72 17 91 36c29 29 32 68 32 169v354h138v-376zM504 754h-348v112h348v-112z" />
    <glyph glyph-name="Uring" unicode="&#x16e;" horiz-adv-x="656" 
d="M591 291c0 -119 -11 -180 -64 -233c-28 -28 -84 -74 -200 -74c-72 0 -144 20 -199 75c-60 60 -63 136 -63 236v372h142v-416c0 -38 3 -82 33 -112c18 -18 50 -31 90 -31c48 0 72 17 91 36c29 29 32 68 32 169v354h138v-376zM438 824c0 -60 -49 -110 -109 -110
s-110 50 -110 110s50 109 110 109s109 -49 109 -109zM374 825c0 25 -21 46 -46 46s-46 -21 -46 -46s21 -46 46 -46s46 21 46 46z" />
    <glyph glyph-name="Uhungarumlaut" unicode="&#x170;" horiz-adv-x="656" 
d="M591 291c0 -119 -11 -180 -64 -233c-28 -28 -84 -74 -200 -74c-72 0 -144 20 -199 75c-60 60 -63 136 -63 236v372h142v-416c0 -38 3 -82 33 -112c18 -18 50 -31 90 -31c48 0 72 17 91 36c29 29 32 68 32 169v354h138v-376zM517 888l-78 -175l-95 32l60 183zM360 888
l-80 -175l-95 32l60 183z" />
    <glyph glyph-name="Uogonek" unicode="&#x172;" horiz-adv-x="656" 
d="M591 291c0 -119 -11 -180 -64 -233c-67 -67 -154 -81 -154 -147c0 -31 20 -53 51 -53c30 0 66 18 73 22l24 -48c-6 -4 -51 -33 -107 -33c-65 0 -107 44 -107 112c0 32 15 61 38 74c-9 -1 -13 -1 -18 -1c-72 0 -144 20 -199 75c-60 60 -63 136 -63 236v372h142v-416
c0 -38 3 -82 33 -112c18 -18 50 -31 90 -31c48 0 72 17 91 36c29 29 32 68 32 169v354h138v-376z" />
    <glyph glyph-name="Zacute" unicode="&#x179;" horiz-adv-x="571" 
d="M527 0h-483v99l302 454h-289v114h460v-104l-294 -447h304v-116zM422 808l-231 -95l-41 73l221 123z" />
    <glyph glyph-name="Zdotaccent" unicode="&#x17b;" horiz-adv-x="571" 
d="M527 0h-483v99l302 454h-289v114h460v-104l-294 -447h304v-116zM356 784c0 -39 -31 -70 -70 -70s-70 31 -70 70s31 70 70 70s70 -31 70 -70z" />
    <glyph glyph-name="Ecaron" unicode="&#x11a;" horiz-adv-x="531" 
d="M483 0h-412v667h404v-114h-264v-155h248v-112h-248v-170h272v-116zM99 845l45 63l125 -71l124 70l45 -68l-169 -126z" />
    <glyph glyph-name="amacron" unicode="&#x101;" horiz-adv-x="509" 
d="M455 0h-117v35c-9 -6 -61 -46 -139 -46c-98 0 -159 65 -159 158c0 175 214 178 274 178h14c0 30 -1 44 -15 58c-11 11 -33 20 -70 20c-65 0 -124 -32 -131 -36l-45 86c7 6 74 53 187 53c42 0 113 -7 161 -55c41 -41 40 -92 40 -156v-295zM328 121v112h-21
c-87 0 -149 -15 -149 -77c0 -51 43 -65 76 -65c55 0 88 27 94 30zM441 569h-348v112h348v-112z" />
    <glyph glyph-name="abreve" unicode="&#x103;" horiz-adv-x="509" 
d="M455 0h-117v35c-9 -6 -61 -46 -139 -46c-98 0 -159 65 -159 158c0 175 214 178 274 178h14c0 30 -1 44 -15 58c-11 11 -33 20 -70 20c-65 0 -124 -32 -131 -36l-45 86c7 6 74 53 187 53c42 0 113 -7 161 -55c41 -41 40 -92 40 -156v-295zM328 121v112h-21
c-87 0 -149 -15 -149 -77c0 -51 43 -65 76 -65c55 0 88 27 94 30zM408 721c-3 -95 -60 -155 -149 -155s-146 60 -149 155h90c4 -43 24 -63 59 -63s55 20 59 63h90z" />
    <glyph glyph-name="aogonek" unicode="&#x105;" horiz-adv-x="509" 
d="M455 295v-295c-31 -23 -72 -46 -72 -89c0 -31 20 -53 51 -53c30 0 66 18 73 22l24 -48c-6 -4 -51 -33 -107 -33c-65 0 -107 44 -107 112c0 45 27 76 57 89h-36v35c-9 -6 -61 -46 -139 -46c-98 0 -159 65 -159 158c0 175 214 178 274 178h14c0 30 -1 44 -15 58
c-11 11 -33 20 -70 20c-65 0 -124 -32 -131 -36l-45 86c7 6 74 53 187 53c42 0 113 -7 161 -55c41 -41 40 -92 40 -156zM328 121v112h-21c-87 0 -149 -15 -149 -77c0 -51 43 -65 76 -65c55 0 88 27 94 30z" />
    <glyph glyph-name="cacute" unicode="&#x107;" horiz-adv-x="498" 
d="M479 47c-2 -2 -71 -61 -187 -61c-154 0 -252 110 -252 256c0 153 113 264 261 264c104 0 163 -50 170 -60l-54 -83c-7 5 -48 34 -104 34c-90 0 -138 -78 -138 -148c0 -86 44 -152 134 -152c63 0 114 34 118 36zM445 640l-231 -95l-41 73l221 123z" />
    <glyph glyph-name="ccaron" unicode="&#x10d;" horiz-adv-x="498" 
d="M479 47c-2 -2 -71 -61 -187 -61c-154 0 -252 110 -252 256c0 153 113 264 261 264c104 0 163 -50 170 -60l-54 -83c-7 5 -48 34 -104 34c-90 0 -138 -78 -138 -148c0 -86 44 -152 134 -152c63 0 114 34 118 36zM471 673l-169 -126l-170 132l45 63l125 -71l124 70z" />
    <glyph glyph-name="dcaron" unicode="&#x10f;" horiz-adv-x="757" 
d="M615 724h142c0 -71 -12 -131 -88 -207c-15 -15 -38 -35 -58 -48l-76 68c5 4 10 9 15 14c70 70 65 140 65 173zM511 0h-118v30c-5 -4 -50 -43 -132 -43c-134 0 -221 104 -221 252c0 160 112 267 237 267c55 0 93 -17 99 -19v237h135v-724zM376 123v252c-4 2 -36 20 -75 20
c-71 0 -125 -51 -125 -152c0 -95 54 -146 117 -146c43 0 80 23 83 26z" />
    <glyph glyph-name="dcroat" unicode="&#x111;" horiz-adv-x="572" 
d="M236 540v112h140v72h135v-72h85v-112h-85v-540h-118v30c-5 -4 -50 -43 -132 -43c-134 0 -221 104 -221 252c0 160 112 267 237 267c55 0 93 -17 99 -19v53h-140zM376 123v252c-4 2 -36 20 -75 20c-71 0 -125 -51 -125 -152c0 -95 54 -146 117 -146c43 0 80 23 83 26z" />
    <glyph glyph-name="ecaron" unicode="&#x11b;" horiz-adv-x="537" 
d="M497 244c0 -21 -2 -35 -2 -42h-324c-2 -36 28 -111 126 -111c62 0 110 25 131 35l44 -86c-3 -3 -78 -54 -187 -54c-160 0 -245 114 -245 257c0 151 96 263 236 263c144 0 221 -102 221 -262zM372 299c0 27 -10 107 -93 107c-61 0 -99 -46 -109 -107h202zM446 673
l-169 -126l-170 132l45 63l125 -71l124 70z" />
    <glyph glyph-name="emacron" unicode="&#x113;" horiz-adv-x="537" 
d="M497 244c0 -21 -2 -35 -2 -42h-324c-2 -36 28 -111 126 -111c62 0 110 25 131 35l44 -86c-3 -3 -78 -54 -187 -54c-160 0 -245 114 -245 257c0 151 96 263 236 263c144 0 221 -102 221 -262zM372 299c0 27 -10 107 -93 107c-61 0 -99 -46 -109 -107h202zM453 569h-348
v112h348v-112z" />
    <glyph glyph-name="edotaccent" unicode="&#x117;" horiz-adv-x="537" 
d="M497 244c0 -21 -2 -35 -2 -42h-324c-2 -36 28 -111 126 -111c62 0 110 25 131 35l44 -86c-3 -3 -78 -54 -187 -54c-160 0 -245 114 -245 257c0 151 96 263 236 263c144 0 221 -102 221 -262zM372 299c0 27 -10 107 -93 107c-61 0 -99 -46 -109 -107h202zM348 639
c0 -39 -31 -70 -70 -70s-70 31 -70 70s31 70 70 70s70 -31 70 -70z" />
    <glyph glyph-name="eogonek" unicode="&#x119;" horiz-adv-x="537" 
d="M497 244c0 -21 -2 -35 -2 -42h-324c-2 -36 28 -111 126 -111c62 0 110 25 131 35l44 -86c-49 -38 -178 -52 -178 -129c0 -31 20 -53 51 -53c30 0 66 18 73 22l24 -48c-6 -4 -51 -33 -107 -33c-65 0 -107 44 -107 112c0 34 16 64 39 76c-147 6 -227 119 -227 256
c0 151 96 263 236 263c144 0 221 -102 221 -262zM372 299c0 27 -10 107 -93 107c-61 0 -99 -46 -109 -107h202z" />
    <glyph glyph-name="gbreve" unicode="&#x11f;" horiz-adv-x="570" 
d="M509 7c0 -68 0 -122 -53 -175c-30 -30 -84 -65 -182 -65c-138 0 -213 65 -221 73l54 88c7 -4 71 -49 152 -49c109 0 117 68 117 120v31c-7 -4 -45 -30 -115 -30c-150 0 -221 120 -221 242c0 147 104 264 264 264c105 0 191 -45 205 -52v-447zM376 133v250
c-7 3 -38 15 -74 15c-70 0 -127 -55 -127 -149c0 -92 54 -141 117 -141c43 0 81 22 84 25zM449 721c-3 -95 -60 -155 -149 -155s-146 60 -149 155h90c4 -43 24 -63 59 -63s55 20 59 63h90z" />
    <glyph glyph-name="imacron" unicode="&#x12b;" horiz-adv-x="257" 
d="M196 0h-135v492h135v-492zM303 569h-348v112h348v-112z" />
    <glyph glyph-name="iogonek" unicode="&#x12f;" horiz-adv-x="256" 
d="M61 0v492h135v-492c-31 -23 -72 -46 -72 -89c0 -31 20 -53 51 -53c30 0 66 18 73 22l24 -48c-6 -4 -51 -33 -107 -33c-65 0 -107 44 -107 112c0 45 27 76 57 89h-54zM205 630c0 -43 -34 -77 -77 -77s-77 34 -77 77s34 77 77 77s77 -34 77 -77z" />
    <glyph glyph-name="lacute" unicode="&#x13a;" horiz-adv-x="257" 
d="M196 0h-135v724h135v-724zM359 872l-231 -95l-41 73l221 123z" />
    <glyph glyph-name="lcaron" unicode="&#x13e;" horiz-adv-x="442" 
d="M196 0h-135v724h135v-724zM300 724h142c0 -71 -12 -131 -88 -207c-15 -15 -38 -35 -58 -48l-76 68c5 4 10 9 15 14c70 70 65 140 65 173z" />
    <glyph glyph-name="nacute" unicode="&#x144;" horiz-adv-x="550" 
d="M496 0h-135v259c0 64 -3 96 -21 114c-6 6 -21 18 -53 18c-43 0 -83 -25 -91 -31v-360h-135v492h115v-37c8 6 69 51 139 51c52 0 96 -16 128 -48c56 -56 53 -129 53 -193v-265zM422 640l-231 -95l-41 73l221 123z" />
    <glyph glyph-name="ncaron" unicode="&#x148;" horiz-adv-x="550" 
d="M496 0h-135v259c0 64 -3 96 -21 114c-6 6 -21 18 -53 18c-43 0 -83 -25 -91 -31v-360h-135v492h115v-37c8 6 69 51 139 51c52 0 96 -16 128 -48c56 -56 53 -129 53 -193v-265zM457 673l-169 -126l-170 132l45 63l125 -71l124 70z" />
    <glyph glyph-name="omacron" unicode="&#x14d;" horiz-adv-x="581" 
d="M541 251c0 -157 -104 -265 -256 -265c-145 0 -245 106 -245 257c0 153 105 263 255 263c145 0 246 -107 246 -255zM406 245c0 90 -48 150 -117 150s-114 -59 -114 -147c0 -90 49 -150 119 -150s112 58 112 147zM468 569h-348v112h348v-112z" />
    <glyph glyph-name="ohungarumlaut" unicode="&#x151;" horiz-adv-x="581" 
d="M541 251c0 -157 -104 -265 -256 -265c-145 0 -245 106 -245 257c0 153 105 263 255 263c145 0 246 -107 246 -255zM406 245c0 90 -48 150 -117 150s-114 -59 -114 -147c0 -90 49 -150 119 -150s112 58 112 147zM485 712l-78 -175l-95 32l60 183zM328 712l-80 -175l-95 32
l60 183z" />
    <glyph glyph-name="racute" unicode="&#x155;" horiz-adv-x="411" 
d="M395 493l-31 -102c-4 1 -23 3 -30 3c-82 0 -123 -49 -138 -71v-323h-135v492h115v-62c4 7 65 76 163 76c35 0 53 -12 56 -13zM344 640l-231 -95l-41 73l221 123z" />
    <glyph glyph-name="rcaron" unicode="&#x159;" horiz-adv-x="411" 
d="M395 493l-31 -102c-4 1 -23 3 -30 3c-82 0 -123 -49 -138 -71v-323h-135v492h115v-62c4 7 65 76 163 76c35 0 53 -12 56 -13zM385 673l-169 -126l-170 132l45 63l125 -71l124 70z" />
    <glyph glyph-name="sacute" unicode="&#x15b;" horiz-adv-x="463" 
d="M413 145c0 -98 -75 -159 -195 -159c-112 0 -185 51 -191 56l46 86c10 -5 66 -40 128 -40c60 0 76 24 76 48c0 32 -27 39 -106 72c-43 18 -122 49 -122 143s77 155 193 155c107 0 163 -44 163 -44l-44 -83c-5 3 -62 32 -112 32s-66 -25 -66 -45c0 -33 34 -42 89 -64
c67 -27 141 -57 141 -157zM378 640l-231 -95l-41 73l221 123z" />
    <glyph glyph-name="scedilla" unicode="&#x15f;" horiz-adv-x="463" 
d="M413 145c0 -97 -73 -157 -191 -159l-3 -31c5 1 12 3 20 3c55 0 94 -34 94 -86c0 -60 -53 -96 -106 -96c-41 0 -73 16 -83 25l22 44s23 -15 53 -15c40 0 49 25 49 40c0 21 -16 34 -41 34c-21 0 -38 -8 -44 -11l-33 18l12 79c-80 13 -130 48 -135 52l46 86
c10 -5 66 -40 128 -40c60 0 76 24 76 48c0 32 -27 39 -106 72c-43 18 -122 49 -122 143s77 155 193 155c107 0 163 -44 163 -44l-44 -83c-5 3 -62 32 -112 32s-66 -25 -66 -45c0 -33 34 -42 89 -64c67 -27 141 -57 141 -157z" />
    <glyph glyph-name="scommaaccent" unicode="&#x219;" horiz-adv-x="463" 
d="M413 145c0 -98 -75 -159 -195 -159c-112 0 -185 51 -191 56l46 86c10 -5 66 -40 128 -40c60 0 76 24 76 48c0 32 -27 39 -106 72c-43 18 -122 49 -122 143s77 155 193 155c107 0 163 -44 163 -44l-44 -83c-5 3 -62 32 -112 32s-66 -25 -66 -45c0 -33 34 -42 89 -64
c67 -27 141 -57 141 -157zM155 -96h142c0 -71 -12 -131 -88 -207c-15 -15 -38 -35 -58 -48l-76 68c5 4 10 9 15 14c70 70 65 140 65 173z" />
    <glyph glyph-name="tcaron" unicode="&#x165;" horiz-adv-x="437" 
d="M398 18c-4 -3 -51 -32 -124 -32c-44 0 -94 11 -127 44c-42 42 -42 89 -42 158v192h-85v112h85v137h135v-137h140v-112h-140v-197c0 -39 3 -84 62 -84c31 0 53 9 62 12zM363 815h142c0 -71 -12 -131 -88 -207c-15 -15 -38 -35 -58 -48l-76 68c5 4 10 9 15 14
c70 70 65 140 65 173z" />
    <glyph glyph-name="umacron" unicode="&#x16b;" horiz-adv-x="550" 
d="M489 0h-115v37c-8 -6 -69 -51 -139 -51c-52 0 -96 16 -128 48c-55 55 -53 129 -53 193v265h135v-259c0 -64 3 -96 21 -114c6 -6 21 -18 53 -18c43 0 83 25 91 31v360h135v-492zM446 569h-348v112h348v-112z" />
    <glyph glyph-name="uring" unicode="&#x16f;" horiz-adv-x="550" 
d="M489 0h-115v37c-8 -6 -69 -51 -139 -51c-52 0 -96 16 -128 48c-55 55 -53 129 -53 193v265h135v-259c0 -64 3 -96 21 -114c6 -6 21 -18 53 -18c43 0 83 25 91 31v360h135v-492zM382 654c0 -60 -49 -110 -109 -110s-110 50 -110 110s50 109 110 109s109 -49 109 -109z
M318 655c0 25 -21 46 -46 46s-46 -21 -46 -46s21 -46 46 -46s46 21 46 46z" />
    <glyph glyph-name="uhungarumlaut" unicode="&#x171;" horiz-adv-x="550" 
d="M489 0h-115v37c-8 -6 -69 -51 -139 -51c-52 0 -96 16 -128 48c-55 55 -53 129 -53 193v265h135v-259c0 -64 3 -96 21 -114c6 -6 21 -18 53 -18c43 0 83 25 91 31v360h135v-492zM474 712l-78 -175l-95 32l60 183zM317 712l-80 -175l-95 32l60 183z" />
    <glyph glyph-name="uogonek" unicode="&#x173;" horiz-adv-x="550" 
d="M374 0v37c-8 -6 -69 -51 -139 -51c-52 0 -96 16 -128 48c-55 55 -53 129 -53 193v265h135v-259c0 -64 3 -96 21 -114c6 -6 21 -18 53 -18c43 0 83 25 91 31v360h135v-492c-31 -23 -72 -46 -72 -89c0 -31 20 -53 51 -53c30 0 66 18 73 22l24 -48c-6 -4 -51 -33 -107 -33
c-65 0 -107 44 -107 112c0 45 27 76 57 89h-34z" />
    <glyph glyph-name="zacute" unicode="&#x17a;" horiz-adv-x="531" 
d="M474 0h-424v92l246 288h-240v112h410v-97l-244 -283h252v-112zM402 640l-231 -95l-41 73l221 123z" />
    <glyph glyph-name="zdotaccent" unicode="&#x17c;" horiz-adv-x="531" 
d="M474 0h-424v92l246 288h-240v112h410v-97l-244 -283h252v-112zM326 639c0 -39 -31 -70 -70 -70s-70 31 -70 70s31 70 70 70s70 -31 70 -70z" />
    <glyph glyph-name="Tcommaaccent" unicode="&#x162;" horiz-adv-x="561" 
d="M534 553h-182v-553h-142v553h-183v114h507v-114zM210 -96h142c3 -102 -42 -181 -146 -255l-76 68c3 3 4 4 12 11h1l1 1l2 2c21 19 45 57 55 87c7 23 10 43 10 75c0 1 0 6 -1 11z" />
    <glyph glyph-name="Kcommaaccent" unicode="&#x136;" horiz-adv-x="617" 
d="M603 0h-170l-220 311v-311h-142v667h142v-312l221 312h156l-242 -324zM251 -96h142c0 -71 -12 -131 -88 -207c-15 -15 -38 -35 -58 -48l-76 68c5 4 10 9 15 14c70 70 65 140 65 173z" />
    <glyph glyph-name="Lcommaaccent" unicode="&#x13b;" horiz-adv-x="520" 
d="M471 0h-400v667h142v-551h258v-116zM194 -96h142c0 -71 -12 -131 -88 -207c-15 -15 -38 -35 -58 -48l-76 68c5 4 10 9 15 14c70 70 65 140 65 173z" />
    <glyph glyph-name="Ncommaaccent" unicode="&#x145;" horiz-adv-x="670" 
d="M599 0h-121l-281 445l3 -445h-129v667h128l274 -442l-3 442h129v-667zM269 -96h142c0 -71 -12 -131 -88 -207c-15 -15 -38 -35 -58 -48l-76 68c5 4 10 9 15 14c70 70 65 140 65 173z" />
    <glyph glyph-name="Rcommaaccent" unicode="&#x156;" horiz-adv-x="597" 
d="M573 0h-150l-81 181c-38 86 -62 83 -116 83h-16v-264h-139v667h171c89 0 167 3 228 -58c31 -31 54 -75 54 -133c0 -82 -47 -155 -147 -170c71 -7 100 -92 123 -143zM383 469c0 27 -9 51 -21 63c-25 25 -59 24 -111 24h-41v-183h56c47 0 70 7 91 28c16 16 26 45 26 68z
M241 -96h142c0 -71 -12 -131 -88 -207c-15 -15 -38 -35 -58 -48l-76 68c5 4 10 9 15 14c70 70 65 140 65 173z" />
    <glyph glyph-name="Gcommaaccent" unicode="&#x122;" horiz-adv-x="697" 
d="M633 53c-4 -2 -103 -69 -254 -69c-188 0 -333 130 -333 344c0 222 152 355 351 355c150 0 219 -70 226 -77l-61 -93c-8 5 -62 51 -159 51c-121 0 -215 -85 -215 -227c0 -139 82 -234 213 -234c57 0 91 13 99 16v115h-125v108h258v-289zM317 -96h142
c0 -71 -12 -131 -88 -207c-15 -15 -38 -35 -58 -48l-76 68c5 4 10 9 15 14c70 70 65 140 65 173z" />
    <glyph glyph-name="tcommaaccent" unicode="&#x163;" horiz-adv-x="437" 
d="M398 18c-4 -3 -51 -32 -124 -32c-44 0 -94 11 -127 44c-42 42 -42 89 -42 158v192h-85v112h85v137h135v-137h140v-112h-140v-197c0 -39 3 -84 62 -84c31 0 53 9 62 12zM111 -96h142c0 -71 -12 -131 -88 -207c-15 -15 -38 -35 -58 -48l-76 68c5 4 10 9 15 14
c70 70 65 140 65 173z" />
    <glyph glyph-name="kcommaaccent" unicode="&#x137;" horiz-adv-x="545" 
d="M533 0h-160l-177 231v-231h-135v724h135v-412l179 180h156l-218 -216zM208 -96h142c0 -71 -12 -131 -88 -207c-15 -15 -38 -35 -58 -48l-76 68c5 4 10 9 15 14c70 70 65 140 65 173z" />
    <glyph glyph-name="lcommaaccent" unicode="&#x13c;" horiz-adv-x="257" 
d="M196 0h-135v724h135v-724zM59 -96h142c0 -71 -12 -131 -88 -207c-15 -15 -38 -35 -58 -48l-76 68c5 4 10 9 15 14c70 70 65 140 65 173z" />
    <glyph glyph-name="ncommaaccent" unicode="&#x146;" horiz-adv-x="550" 
d="M496 0h-135v259c0 64 -3 96 -21 114c-6 6 -21 18 -53 18c-43 0 -83 -25 -91 -31v-360h-135v492h115v-37c8 6 69 51 139 51c52 0 96 -16 128 -48c56 -56 53 -129 53 -193v-265zM205 -96h142c0 -71 -12 -131 -88 -207c-15 -15 -38 -35 -58 -48l-76 68c5 4 10 9 15 14
c70 70 65 140 65 173z" />
    <glyph glyph-name="rcommaaccent" unicode="&#x157;" horiz-adv-x="411" 
d="M395 493l-31 -102c-4 1 -23 3 -30 3c-82 0 -123 -49 -138 -71v-323h-135v492h115v-62c4 7 65 76 163 76c35 0 53 -12 56 -13zM59 -96h142c0 -71 -12 -131 -88 -207c-15 -15 -38 -35 -58 -48l-76 68c5 4 10 9 15 14c70 70 65 140 65 173z" />
    <glyph glyph-name="gcommaaccent" unicode="&#x123;" horiz-adv-x="570" 
d="M509 7c0 -68 0 -122 -53 -175c-30 -30 -84 -65 -182 -65c-138 0 -213 65 -221 73l54 88c7 -4 71 -49 152 -49c109 0 117 68 117 120v31c-7 -4 -45 -30 -115 -30c-150 0 -221 120 -221 242c0 147 104 264 264 264c105 0 191 -45 205 -52v-447zM376 133v250
c-7 3 -38 15 -74 15c-70 0 -127 -55 -127 -149c0 -92 54 -141 117 -141c43 0 81 22 84 25zM370 569h-142c0 71 12 131 88 207c15 15 38 35 58 48l76 -68c-5 -4 -10 -9 -15 -14c-70 -70 -65 -140 -65 -173z" />
    <glyph glyph-name="Amacronsmall" unicode="&#xf66e;" horiz-adv-x="573" 
d="M561 0h-141l-37 107h-198l-37 -107h-136l205 527h138zM345 205l-62 180l-62 -180h124zM461 599h-348v112h348v-112z" />
    <glyph glyph-name="Abrevesmall" unicode="&#xf66d;" horiz-adv-x="573" 
d="M561 0h-141l-37 107h-198l-37 -107h-136l205 527h138zM345 205l-62 180l-62 -180h124zM432 729c-3 -95 -60 -155 -149 -155s-146 60 -149 155h90c4 -43 24 -63 59 -63s55 20 59 63h90z" />
    <glyph glyph-name="Aogoneksmall" unicode="&#xf66f;" horiz-adv-x="573" 
d="M420 0l-37 107h-198l-37 -107h-136l205 527h138l206 -527c-31 -23 -72 -46 -72 -89c0 -31 20 -53 51 -53c30 0 66 18 73 22l24 -48c-6 -4 -51 -33 -107 -33c-65 0 -107 44 -107 112c0 45 27 76 57 89h-60zM345 205l-62 180l-62 -180h124z" />
    <glyph glyph-name="Cacutesmall" unicode="&#xf671;" horiz-adv-x="549" 
d="M527 60c-14 -11 -83 -75 -209 -75c-153 0 -276 101 -276 273c0 178 129 282 290 282c126 0 186 -67 191 -72l-60 -84c-15 11 -58 44 -126 44c-86 0 -155 -62 -155 -163c0 -99 59 -166 149 -166c70 0 130 43 139 48zM468 670l-231 -95l-41 73l221 123z" />
    <glyph glyph-name="Ccaronsmall" unicode="&#xf673;" horiz-adv-x="549" 
d="M501 701l-169 -126l-170 132l45 63l125 -71l124 70zM527 60c-14 -11 -83 -75 -209 -75c-153 0 -276 101 -276 273c0 178 129 282 290 282c126 0 186 -67 191 -72l-60 -84c-15 11 -58 44 -126 44c-86 0 -155 -62 -155 -163c0 -99 59 -166 149 -166c70 0 130 43 139 48z
" />
    <glyph glyph-name="Dcaronsmall" unicode="&#xf675;" horiz-adv-x="606" 
d="M442 701l-169 -126l-170 132l45 63l125 -71l124 70zM564 268c0 -67 -21 -132 -74 -185c-80 -80 -195 -83 -299 -83h-124v527h162c96 0 186 1 263 -76c52 -52 72 -121 72 -183zM427 271c0 52 -16 89 -41 114c-42 42 -97 41 -141 41h-43v-324h44c119 0 181 63 181 169z" />
    <glyph glyph-name="Ecaronsmall" unicode="&#xf678;" horiz-adv-x="471" 
d="M409 701l-169 -126l-170 132l45 63l125 -71l124 70zM421 0h-354v527h348v-104h-214v-102h201v-102h-201v-113h220v-106z" />
    <glyph glyph-name="Emacronsmall" unicode="&#xf67a;" horiz-adv-x="471" 
d="M415 599h-348v112h348v-112zM421 0h-354v527h348v-104h-214v-102h201v-102h-201v-113h220v-106z" />
    <glyph glyph-name="Edotaccentsmall" unicode="&#xf679;" horiz-adv-x="471" 
d="M310 667c0 -39 -31 -70 -70 -70s-70 31 -70 70s31 70 70 70s70 -31 70 -70zM421 0h-354v527h348v-104h-214v-102h201v-102h-201v-113h220v-106z" />
    <glyph glyph-name="Eogoneksmall" unicode="&#xf67c;" horiz-adv-x="471" 
d="M340 0h-273v527h348v-104h-214v-102h201v-102h-201v-113h220v-106c-31 -23 -72 -46 -72 -89c0 -31 20 -53 51 -53c30 0 66 18 73 22l24 -48c-6 -4 -51 -33 -107 -33c-65 0 -107 44 -107 112c0 45 27 76 57 89z" />
    <glyph glyph-name="Gbrevesmall" unicode="&#xf67d;" horiz-adv-x="582" 
d="M480 729c-3 -95 -60 -155 -149 -155s-146 60 -149 155h90c4 -43 24 -63 59 -63s55 20 59 63h90zM525 43c-9 -5 -90 -58 -205 -58c-155 0 -278 101 -278 273c0 178 129 282 289 282c126 0 186 -67 191 -72l-60 -84c-15 11 -58 44 -126 44c-86 0 -157 -62 -157 -163
c0 -99 54 -167 153 -167c32 0 52 5 64 8v75h-101v101h230v-239z" />
    <glyph glyph-name="Imacronsmall" unicode="&#xf685;" horiz-adv-x="272" 
d="M310 599h-348v112h348v-112zM205 0h-138v527h138v-527z" />
    <glyph glyph-name="Iogoneksmall" unicode="&#xf686;" horiz-adv-x="272" 
d="M124 0h-57v527h138v-527c-31 -23 -72 -46 -72 -89c0 -31 20 -53 51 -53c30 0 66 18 73 22l24 -48c-6 -4 -51 -33 -107 -33c-65 0 -107 44 -107 112c0 45 27 76 57 89z" />
    <glyph glyph-name="Lacutesmall" unicode="&#xf68a;" horiz-adv-x="456" 
d="M411 0h-344v527h138v-421h206v-106zM367 670l-231 -95l-41 73l221 123z" />
    <glyph glyph-name="Lcaronsmall" unicode="&#xf68b;" horiz-adv-x="456" 
d="M411 0h-344v527h138v-421h206v-106zM316 527h142c0 -71 -12 -131 -88 -207c-15 -15 -38 -35 -58 -48l-76 68c5 4 10 9 15 14c70 70 65 140 65 173z" />
    <glyph glyph-name="Nacutesmall" unicode="&#xf68e;" horiz-adv-x="588" 
d="M521 0h-115l-215 319l3 -319h-127v527h125l205 -310l-3 310h127v-527zM430 670l-231 -95l-41 73l221 123z" />
    <glyph glyph-name="Ncaronsmall" unicode="&#xf68f;" horiz-adv-x="588" 
d="M467 701l-169 -126l-170 132l45 63l125 -71l124 70zM521 0h-115l-215 319l3 -319h-127v527h125l205 -310l-3 310h127v-527z" />
    <glyph glyph-name="Omacronsmall" unicode="&#xf693;" 
d="M496 599h-348v112h348v-112zM602 267c0 -171 -116 -282 -279 -282c-167 0 -281 115 -281 282c0 163 114 273 280 273c169 0 280 -114 280 -273zM462 267c0 95 -59 167 -144 167c-80 0 -136 -73 -136 -174s63 -167 143 -167c99 0 137 87 137 174z" />
    <glyph glyph-name="Ohungarumlautsmall" unicode="&#xf692;" 
d="M521 740l-78 -175l-95 32l60 183zM364 740l-80 -175l-95 32l60 183zM602 267c0 -171 -116 -282 -279 -282c-167 0 -281 115 -281 282c0 163 114 273 280 273c169 0 280 -114 280 -273zM462 267c0 95 -59 167 -144 167c-80 0 -136 -73 -136 -174s63 -167 143 -167
c99 0 137 87 137 174z" />
    <glyph glyph-name="Racutesmall" unicode="&#xf695;" horiz-adv-x="528" 
d="M508 0h-146l-66 140c-30 64 -47 63 -88 63h-7v-203h-134v527h151c68 0 144 3 197 -50c26 -26 45 -58 45 -106c0 -65 -36 -117 -115 -129c56 -5 79 -74 99 -113zM326 366c0 9 0 29 -12 41c-17 17 -47 17 -79 17h-34v-123h38c46 0 60 9 70 19c12 12 17 30 17 46zM392 670
l-231 -95l-41 73l221 123z" />
    <glyph glyph-name="Rcaronsmall" unicode="&#xf696;" horiz-adv-x="528" 
d="M407 701l-169 -126l-170 132l45 63l125 -71l124 70zM508 0h-146l-66 140c-30 64 -47 63 -88 63h-7v-203h-134v527h151c68 0 144 3 197 -50c26 -26 45 -58 45 -106c0 -65 -36 -117 -115 -129c56 -5 79 -74 99 -113zM326 366c0 9 0 29 -12 41c-17 17 -47 17 -79 17h-34
v-123h38c46 0 60 9 70 19c12 12 17 30 17 46z" />
    <glyph glyph-name="Sacutesmall" unicode="&#xf698;" horiz-adv-x="479" 
d="M433 157c0 -102 -86 -172 -209 -172c-119 0 -184 54 -196 67l59 86c8 -5 68 -46 128 -46c55 0 82 25 82 56c0 14 -6 25 -13 32c-30 30 -137 43 -192 98c-22 22 -44 53 -44 102c0 98 86 160 199 160c115 0 176 -56 183 -63l-62 -83c-14 10 -59 43 -114 43
c-48 0 -74 -22 -74 -46c0 -10 1 -17 11 -27c26 -26 139 -42 204 -107c24 -24 38 -59 38 -100zM384 670l-231 -95l-41 73l221 123z" />
    <glyph glyph-name="Scedillasmall" unicode="&#xf699;" horiz-adv-x="479" 
d="M349 -128c0 -60 -53 -96 -106 -96c-41 0 -73 16 -83 25l22 44s23 -15 53 -15c40 0 49 25 49 40c0 21 -16 34 -41 34c-21 0 -38 -8 -44 -11l-33 18l13 77c-89 10 -141 53 -151 64l59 86c8 -5 68 -46 128 -46c55 0 82 25 82 56c0 14 -6 25 -13 32c-30 30 -137 43 -192 98
c-22 22 -44 53 -44 102c0 98 86 160 199 160c115 0 176 -56 183 -63l-62 -83c-14 10 -59 43 -114 43c-48 0 -74 -22 -74 -46c0 -10 1 -17 11 -27c26 -26 139 -42 204 -107c24 -24 38 -59 38 -100c0 -98 -79 -166 -194 -171l-4 -31c5 1 12 3 20 3c55 0 94 -34 94 -86z" />
    <glyph glyph-name="Scommaaccentsmall" unicode="&#xf69b;" horiz-adv-x="479" 
d="M433 157c0 -102 -86 -172 -209 -172c-119 0 -184 54 -196 67l59 86c8 -5 68 -46 128 -46c55 0 82 25 82 56c0 14 -6 25 -13 32c-30 30 -137 43 -192 98c-22 22 -44 53 -44 102c0 98 86 160 199 160c115 0 176 -56 183 -63l-62 -83c-14 10 -59 43 -114 43
c-48 0 -74 -22 -74 -46c0 -10 1 -17 11 -27c26 -26 139 -42 204 -107c24 -24 38 -59 38 -100zM157 -96h142c0 -71 -12 -131 -88 -207c-15 -15 -38 -35 -58 -48l-76 68c5 4 10 9 15 14c70 70 65 140 65 173z" />
    <glyph glyph-name="Tcaronsmall" unicode="&#xf69d;" horiz-adv-x="491" 
d="M415 701l-169 -126l-170 132l45 63l125 -71l124 70zM465 423h-150v-423h-138v423h-151v104h439v-104z" />
    <glyph glyph-name="Umacronsmall" unicode="&#xf6a1;" horiz-adv-x="574" 
d="M461 599h-348v112h348v-112zM513 218c0 -69 -7 -127 -46 -166c-31 -31 -83 -67 -181 -67c-66 0 -128 17 -175 64c-48 48 -50 107 -50 182v296h138v-332c0 -29 1 -55 21 -75c13 -13 38 -23 69 -23c38 0 58 15 70 27c18 18 20 45 20 118v285h134v-309z" />
    <glyph glyph-name="Uringsmall" unicode="&#xf6a3;" horiz-adv-x="574" 
d="M398 674c0 -60 -49 -110 -109 -110s-110 50 -110 110s50 109 110 109s109 -49 109 -109zM334 675c0 25 -21 46 -46 46s-46 -21 -46 -46s21 -46 46 -46s46 21 46 46zM513 218c0 -69 -7 -127 -46 -166c-31 -31 -83 -67 -181 -67c-66 0 -128 17 -175 64
c-48 48 -50 107 -50 182v296h138v-332c0 -29 1 -55 21 -75c13 -13 38 -23 69 -23c38 0 58 15 70 27c18 18 20 45 20 118v285h134v-309z" />
    <glyph glyph-name="Uhungarumlautsmall" unicode="&#xf6a0;" horiz-adv-x="574" 
d="M473 740l-78 -175l-95 32l60 183zM316 740l-80 -175l-95 32l60 183zM513 218c0 -69 -7 -127 -46 -166c-31 -31 -83 -67 -181 -67c-66 0 -128 17 -175 64c-48 48 -50 107 -50 182v296h138v-332c0 -29 1 -55 21 -75c13 -13 38 -23 69 -23c38 0 58 15 70 27
c18 18 20 45 20 118v285h134v-309z" />
    <glyph glyph-name="Uogoneksmall" unicode="&#xf6a2;" horiz-adv-x="574" 
d="M513 218c0 -69 -7 -127 -46 -166c-52 -52 -140 -79 -140 -141c0 -31 20 -53 51 -53c30 0 66 18 73 22l24 -48c-6 -4 -51 -33 -107 -33c-65 0 -107 44 -107 112c0 33 16 64 39 75c-8 -1 -13 -1 -14 -1c-66 0 -128 17 -175 64c-48 48 -50 107 -50 182v296h138v-332
c0 -29 1 -55 21 -75c13 -13 38 -23 69 -23c38 0 58 15 70 27c18 18 20 45 20 118v285h134v-309z" />
    <glyph glyph-name="Zacutesmall" unicode="&#xf6ab;" horiz-adv-x="517" 
d="M397 670l-231 -95l-41 73l221 123zM467 0h-417v88l244 335h-233v104h398v-93l-237 -328h245v-106z" />
    <glyph glyph-name="Zdotaccentsmall" unicode="&#xf6ac;" horiz-adv-x="517" 
d="M467 0h-417v88l244 335h-233v104h398v-93l-237 -328h245v-106zM329 667c0 -39 -31 -70 -70 -70s-70 31 -70 70s31 70 70 70s70 -31 70 -70z" />
    <glyph glyph-name="Aringacutesmall" horiz-adv-x="573" 
d="M561 0h-141l-37 107h-198l-37 -107h-136l205 527h138zM345 205l-62 180l-62 -180h124zM393 674c0 -60 -49 -110 -109 -110s-110 50 -110 110s50 109 110 109s109 -49 109 -109zM329 675c0 25 -21 46 -46 46s-46 -21 -46 -46s21 -46 46 -46s46 21 46 46zM416 888l-231 -95
l-41 73l221 123z" />
    <glyph glyph-name="AEacutesmall" unicode="&#xf670;" horiz-adv-x="795" 
d="M745 0h-354v110h-179l-66 -110h-134l334 527h393v-104h-214v-102h201v-102h-201v-113h220v-106zM391 209v211l-123 -211h123zM689 670l-231 -95l-41 73l221 123z" />
    <glyph glyph-name="Ccircumflexsmall" unicode="&#xf672;" horiz-adv-x="549" 
d="M527 60c-14 -11 -83 -75 -209 -75c-153 0 -276 101 -276 273c0 178 129 282 290 282c126 0 186 -67 191 -72l-60 -84c-15 11 -58 44 -126 44c-86 0 -155 -62 -155 -163c0 -99 59 -166 149 -166c70 0 130 43 139 48zM502 638l-45 -63l-125 71l-124 -70l-45 68l169 126z
" />
    <glyph glyph-name="Cdotaccentsmall" unicode="&#xf674;" horiz-adv-x="549" 
d="M527 60c-14 -11 -83 -75 -209 -75c-153 0 -276 101 -276 273c0 178 129 282 290 282c126 0 186 -67 191 -72l-60 -84c-15 11 -58 44 -126 44c-86 0 -155 -62 -155 -163c0 -99 59 -166 149 -166c70 0 130 43 139 48zM402 667c0 -39 -31 -70 -70 -70s-70 31 -70 70
s31 70 70 70s70 -31 70 -70z" />
    <glyph glyph-name="Ebrevesmall" unicode="&#xf677;" horiz-adv-x="471" 
d="M421 0h-354v527h348v-104h-214v-102h201v-102h-201v-113h220v-106zM387 729c-3 -95 -60 -155 -149 -155s-146 60 -149 155h90c4 -43 24 -63 59 -63s55 20 59 63h90z" />
    <glyph glyph-name="Gcircumflexsmall" unicode="&#xf67e;" horiz-adv-x="582" 
d="M525 43c-9 -5 -90 -58 -205 -58c-155 0 -278 101 -278 273c0 178 129 282 289 282c126 0 186 -67 191 -72l-60 -84c-15 11 -58 44 -126 44c-86 0 -157 -62 -157 -163c0 -99 54 -167 153 -167c32 0 52 5 64 8v75h-101v101h230v-239zM502 638l-45 -63l-125 71l-124 -70
l-45 68l169 126z" />
    <glyph glyph-name="Gdotaccentsmall" unicode="&#xf680;" horiz-adv-x="582" 
d="M525 43c-9 -5 -90 -58 -205 -58c-155 0 -278 101 -278 273c0 178 129 282 289 282c126 0 186 -67 191 -72l-60 -84c-15 11 -58 44 -126 44c-86 0 -157 -62 -157 -163c0 -99 54 -167 153 -167c32 0 52 5 64 8v75h-101v101h230v-239zM402 667c0 -39 -31 -70 -70 -70
s-70 31 -70 70s31 70 70 70s70 -31 70 -70z" />
    <glyph glyph-name="Gcommaaccentsmall" unicode="&#xf67f;" horiz-adv-x="582" 
d="M525 43c-9 -5 -90 -58 -205 -58c-155 0 -278 101 -278 273c0 178 129 282 289 282c126 0 186 -67 191 -72l-60 -84c-15 11 -58 44 -126 44c-86 0 -157 -62 -157 -163c0 -99 54 -167 153 -167c32 0 52 5 64 8v75h-101v101h230v-239zM249 -96h142c0 -71 -12 -131 -88 -207
c-15 -15 -38 -35 -58 -48l-76 68c5 4 10 9 15 14c70 70 65 140 65 173z" />
    <glyph glyph-name="Hcircumflexsmall" unicode="&#xf682;" horiz-adv-x="588" 
d="M521 0h-138v219h-178v-219h-138v527h138v-199h178v199h138v-527zM464 638l-45 -63l-125 71l-124 -70l-45 68l169 126z" />
    <glyph glyph-name="Hbarsmall" unicode="&#xf681;" horiz-adv-x="588" 
d="M521 0h-138v219h-178v-219h-138v379h-80v101h80v47h138v-47h178v47h138v-47h80v-101h-80v-379zM205 328h178v51h-178v-51z" />
    <glyph glyph-name="Itildesmall" unicode="&#xf687;" horiz-adv-x="272" 
d="M205 0h-138v527h138v-527zM316 674c-8 -9 -64 -81 -127 -81c-46 0 -72 32 -108 32c-27 0 -60 -33 -66 -38l-59 59c6 8 62 81 127 81c45 0 72 -31 107 -31c32 0 59 30 67 37z" />
    <glyph glyph-name="Ibrevesmall" unicode="&#xf683;" horiz-adv-x="272" 
d="M205 0h-138v527h138v-527zM285 729c-3 -95 -60 -155 -149 -155s-146 60 -149 155h90c4 -43 24 -63 59 -63s55 20 59 63h90z" />
    <glyph glyph-name="Idotaccentsmall" unicode="&#xf6ad;" horiz-adv-x="272" 
d="M205 0h-138v527h138v-527zM206 667c0 -39 -31 -70 -70 -70s-70 31 -70 70s31 70 70 70s70 -31 70 -70z" />
    <glyph glyph-name="Jcircumflexsmall" unicode="&#xf688;" horiz-adv-x="369" 
d="M308 192c0 -60 0 -119 -45 -164c-26 -26 -69 -43 -124 -43c-74 0 -125 37 -129 40l46 89c7 -3 33 -18 60 -18c19 0 30 5 38 13c12 12 16 24 16 72v346h138v-335zM409 638l-45 -63l-125 71l-124 -70l-45 68l169 126z" />
    <glyph glyph-name="Kcommaaccentsmall" unicode="&#xf689;" horiz-adv-x="562" 
d="M547 0h-167l-175 242v-242h-138v527h138v-244l178 244h154l-196 -256zM223 -96h142c0 -71 -12 -131 -88 -207c-15 -15 -38 -35 -58 -48l-76 68c5 4 10 9 15 14c70 70 65 140 65 173z" />
    <glyph glyph-name="Lcommaaccentsmall" unicode="&#xf68c;" horiz-adv-x="456" 
d="M411 0h-344v527h138v-421h206v-106zM175 -96h142c0 -71 -12 -131 -88 -207c-15 -15 -38 -35 -58 -48l-76 68c5 4 10 9 15 14c70 70 65 140 65 173z" />
    <glyph glyph-name="Ldotsmall" unicode="&#xf68d;" horiz-adv-x="456" 
d="M411 0h-344v527h138v-421h206v-106zM397 276c0 -39 -31 -70 -70 -70s-70 31 -70 70s31 70 70 70s70 -31 70 -70z" />
    <glyph glyph-name="Ncommaaccentsmall" unicode="&#xf690;" horiz-adv-x="588" 
d="M521 0h-115l-215 319l3 -319h-127v527h125l205 -310l-3 310h127v-527zM228 -96h142c0 -71 -12 -131 -88 -207c-15 -15 -38 -35 -58 -48l-76 68c5 4 10 9 15 14c70 70 65 140 65 173z" />
    <glyph glyph-name="Engsmall" unicode="&#xf67b;" horiz-adv-x="588" 
d="M521 -17c0 -60 0 -119 -45 -164c-26 -26 -69 -43 -124 -43c-74 0 -125 37 -129 40l44 86c7 -4 36 -19 72 -19c19 0 30 6 38 14c12 12 16 24 16 72v31l-202 319l3 -319h-127v527h125l205 -330l-3 330h127v-544z" />
    <glyph glyph-name="Obrevesmall" unicode="&#xf691;" 
d="M602 267c0 -171 -116 -282 -279 -282c-167 0 -281 115 -281 282c0 163 114 273 280 273c169 0 280 -114 280 -273zM462 267c0 95 -59 167 -144 167c-80 0 -136 -73 -136 -174s63 -167 143 -167c99 0 137 87 137 174zM471 729c-3 -95 -60 -155 -149 -155s-146 60 -149 155
h90c4 -43 24 -63 59 -63s55 20 59 63h90z" />
    <glyph glyph-name="Oslashacutesmall" unicode="&#xf694;" 
d="M602 267c0 -171 -116 -282 -279 -282c-54 0 -88 12 -102 16l-40 -67l-89 50l43 66c-13 10 -93 74 -93 217c0 163 114 273 280 273c56 0 89 -12 97 -15l36 64l89 -50l-36 -60c7 -6 94 -71 94 -212zM462 267c0 58 -18 86 -24 97l-158 -265c5 -3 29 -6 45 -6
c99 0 137 87 137 174zM363 427c-3 1 -20 7 -45 7c-80 0 -136 -73 -136 -174c0 -62 22 -92 23 -94zM457 670l-231 -95l-41 73l221 123z" />
    <glyph glyph-name="Rcommaaccentsmall" unicode="&#xf697;" horiz-adv-x="528" 
d="M508 0h-146l-66 140c-30 64 -47 63 -88 63h-7v-203h-134v527h151c68 0 144 3 197 -50c26 -26 45 -58 45 -106c0 -65 -36 -117 -115 -129c56 -5 79 -74 99 -113zM326 366c0 9 0 29 -12 41c-17 17 -47 17 -79 17h-34v-123h38c46 0 60 9 70 19c12 12 17 30 17 46zM211 -96
h142c0 -71 -12 -131 -88 -207c-15 -15 -38 -35 -58 -48l-76 68c5 4 10 9 15 14c70 70 65 140 65 173z" />
    <glyph glyph-name="Scircumflexsmall" unicode="&#xf69a;" horiz-adv-x="479" 
d="M433 157c0 -102 -86 -172 -209 -172c-119 0 -184 54 -196 67l59 86c8 -5 68 -46 128 -46c55 0 82 25 82 56c0 14 -6 25 -13 32c-30 30 -137 43 -192 98c-22 22 -44 53 -44 102c0 98 86 160 199 160c115 0 176 -56 183 -63l-62 -83c-14 10 -59 43 -114 43
c-48 0 -74 -22 -74 -46c0 -10 1 -17 11 -27c26 -26 139 -42 204 -107c24 -24 38 -59 38 -100zM419 638l-45 -63l-125 71l-124 -70l-45 68l169 126z" />
    <glyph glyph-name="Tcommaaccentsmall" unicode="&#xf69e;" horiz-adv-x="491" 
d="M465 423h-150v-423h-138v423h-151v104h439v-104zM176 -96h142c0 -71 -12 -131 -88 -207c-15 -15 -38 -35 -58 -48l-76 68c5 4 10 9 15 14c70 70 65 140 65 173z" />
    <glyph glyph-name="Tbarsmall" unicode="&#xf69c;" horiz-adv-x="491" 
d="M420 185h-105v-185h-138v185h-105v104h105v134h-151v104h439v-104h-150v-134h105v-104z" />
    <glyph glyph-name="Utildesmall" unicode="&#xf6a4;" horiz-adv-x="574" 
d="M513 218c0 -69 -7 -127 -46 -166c-31 -31 -83 -67 -181 -67c-66 0 -128 17 -175 64c-48 48 -50 107 -50 182v296h138v-332c0 -29 1 -55 21 -75c13 -13 38 -23 69 -23c38 0 58 15 70 27c18 18 20 45 20 118v285h134v-309zM467 674c-8 -9 -64 -81 -127 -81
c-46 0 -72 32 -108 32c-27 0 -60 -33 -66 -38l-59 59c6 8 62 81 127 81c45 0 72 -31 107 -31c32 0 59 30 67 37z" />
    <glyph glyph-name="Ubrevesmall" unicode="&#xf69f;" horiz-adv-x="574" 
d="M513 218c0 -69 -7 -127 -46 -166c-31 -31 -83 -67 -181 -67c-66 0 -128 17 -175 64c-48 48 -50 107 -50 182v296h138v-332c0 -29 1 -55 21 -75c13 -13 38 -23 69 -23c38 0 58 15 70 27c18 18 20 45 20 118v285h134v-309zM436 729c-3 -95 -60 -155 -149 -155
s-146 60 -149 155h90c4 -43 24 -63 59 -63s55 20 59 63h90z" />
    <glyph glyph-name="Wacutesmall" unicode="&#xf6a5;" horiz-adv-x="795" 
d="M760 527l-136 -527h-138l-86 352l-93 -352h-138l-134 527h137l70 -343l92 343h137l88 -342l74 342h127zM536 670l-231 -95l-41 73l221 123z" />
    <glyph glyph-name="Wgravesmall" unicode="&#xf6a8;" horiz-adv-x="795" 
d="M760 527l-136 -527h-138l-86 352l-93 -352h-138l-134 527h137l70 -343l92 343h137l88 -342l74 342h127zM536 648l-41 -73l-231 95l51 101z" />
    <glyph glyph-name="Wcircumflexsmall" unicode="&#xf6a6;" horiz-adv-x="795" 
d="M760 527l-136 -527h-138l-86 352l-93 -352h-138l-134 527h137l70 -343l92 343h137l88 -342l74 342h127zM571 638l-45 -63l-125 71l-124 -70l-45 68l169 126z" />
    <glyph glyph-name="Wdieresissmall" unicode="&#xf6a7;" horiz-adv-x="795" 
d="M760 527l-136 -527h-138l-86 352l-93 -352h-138l-134 527h137l70 -343l92 343h137l88 -342l74 342h127zM568 667c0 -39 -31 -70 -70 -70s-70 31 -70 70s31 70 70 70s70 -31 70 -70zM373 667c0 -39 -31 -70 -70 -70s-70 31 -70 70s31 70 70 70s70 -31 70 -70z" />
    <glyph glyph-name="Ygravesmall" unicode="&#xf6aa;" horiz-adv-x="536" 
d="M516 527l-179 -315v-212h-138v212l-179 315h143l112 -210l111 210h130zM411 648l-41 -73l-231 95l51 101z" />
    <glyph glyph-name="Ycircumflexsmall" unicode="&#xf6a9;" horiz-adv-x="536" 
d="M516 527l-179 -315v-212h-138v212l-179 315h143l112 -210l111 210h130zM443 638l-45 -63l-125 71l-124 -70l-45 68l169 126z" />
    <glyph glyph-name="Aringacute" unicode="&#x1fa;" horiz-adv-x="659" 
d="M643 0h-146l-49 139h-240l-49 -139h-143l242 667h142zM411 248l-84 268l-84 -268h168zM437 824c0 -60 -49 -110 -109 -110s-110 50 -110 110s50 109 110 109s109 -49 109 -109zM373 825c0 25 -21 46 -46 46s-46 -21 -46 -46s21 -46 46 -46s46 21 46 46zM440 1033
l-231 -95l-41 73l221 123z" />
    <glyph glyph-name="AEacute" unicode="&#x1fc;" horiz-adv-x="918" 
d="M870 0h-412v141h-225l-78 -141h-145l392 667h460v-114h-264v-155h248v-112h-248v-170h272v-116zM458 257v295l-163 -295h163zM759 808l-231 -95l-41 73l221 123z" />
    <glyph glyph-name="Ccircumflex" unicode="&#x108;" horiz-adv-x="649" 
d="M625 67c-8 -8 -95 -83 -246 -83c-188 0 -333 130 -333 344c0 222 152 355 351 355c150 0 219 -70 226 -77l-61 -93c-8 5 -62 51 -159 51c-121 0 -215 -85 -215 -227c0 -139 81 -230 208 -230c88 0 159 49 170 55zM570 776l-45 -63l-125 71l-124 -70l-45 68l169 126z" />
    <glyph glyph-name="Eng" unicode="&#x14a;" horiz-adv-x="670" 
d="M599 667v-662c0 -69 0 -137 -52 -189c-30 -30 -79 -49 -142 -49c-85 0 -143 42 -148 46l48 99c9 -4 43 -22 85 -22c25 0 44 5 56 17c18 18 21 40 21 96l-270 442l3 -445h-129v667h128l274 -452l-3 452h129z" />
    <glyph glyph-name="Ldot" unicode="&#x13f;" horiz-adv-x="520" 
d="M471 0h-400v667h142v-551h258v-116zM425 348c0 -46 -36 -83 -82 -83s-83 37 -83 83s37 82 83 82s82 -36 82 -82z" />
    <glyph glyph-name="Ygrave" unicode="&#x1ef2;" horiz-adv-x="610" 
d="M583 667l-210 -401v-266h-136v266l-210 401h144l141 -289l141 289h130zM448 786l-41 -73l-231 95l51 101z" />
    <glyph glyph-name="Ycircumflex" unicode="&#x176;" horiz-adv-x="610" 
d="M583 667l-210 -401v-266h-136v266l-210 401h144l141 -289l141 289h130zM480 776l-45 -63l-125 71l-124 -70l-45 68l169 126z" />
    <glyph glyph-name="Wdieresis" unicode="&#x1e84;" horiz-adv-x="911" 
d="M872 667l-155 -667h-147l-111 501l-120 -501h-147l-153 667h138l92 -492l120 492h146l113 -492l97 492h127zM627 784c0 -39 -31 -70 -70 -70s-70 31 -70 70s31 70 70 70s70 -31 70 -70zM432 784c0 -39 -31 -70 -70 -70s-70 31 -70 70s31 70 70 70s70 -31 70 -70z" />
    <glyph glyph-name="Wgrave" unicode="&#x1e80;" horiz-adv-x="911" 
d="M872 667l-155 -667h-147l-111 501l-120 -501h-147l-153 667h138l92 -492l120 492h146l113 -492l97 492h127zM595 786l-41 -73l-231 95l51 101z" />
    <glyph glyph-name="Wcircumflex" unicode="&#x174;" horiz-adv-x="911" 
d="M872 667l-155 -667h-147l-111 501l-120 -501h-147l-153 667h138l92 -492l120 492h146l113 -492l97 492h127zM629 776l-45 -63l-125 71l-124 -70l-45 68l169 126z" />
    <glyph glyph-name="Wacute" unicode="&#x1e82;" horiz-adv-x="911" 
d="M872 667l-155 -667h-147l-111 501l-120 -501h-147l-153 667h138l92 -492l120 492h146l113 -492l97 492h127zM595 808l-231 -95l-41 73l221 123z" />
    <glyph glyph-name="Jcircumflex" unicode="&#x134;" horiz-adv-x="414" 
d="M349 222c0 -69 0 -137 -52 -189c-30 -30 -79 -49 -142 -49c-85 0 -143 42 -148 46l48 99c9 -4 44 -22 80 -22c25 0 39 5 51 17c18 18 21 40 21 96v447h142v-445zM448 776l-45 -63l-125 71l-124 -70l-45 68l169 126z" />
    <glyph glyph-name="Ubreve" unicode="&#x16c;" horiz-adv-x="656" 
d="M591 291c0 -119 -11 -180 -64 -233c-28 -28 -84 -74 -200 -74c-72 0 -144 20 -199 75c-60 60 -63 136 -63 236v372h142v-416c0 -38 3 -82 33 -112c18 -18 50 -31 90 -31c48 0 72 17 91 36c29 29 32 68 32 169v354h138v-376zM477 869c-3 -95 -60 -155 -149 -155
s-146 60 -149 155h90c4 -43 24 -63 59 -63s55 20 59 63h90z" />
    <glyph glyph-name="Ibreve" unicode="&#x12c;" horiz-adv-x="284" 
d="M213 0h-142v667h142v-667zM291 869c-3 -95 -60 -155 -149 -155s-146 60 -149 155h90c4 -43 24 -63 59 -63s55 20 59 63h90z" />
    <glyph glyph-name="Itilde" unicode="&#x128;" horiz-adv-x="284" 
d="M213 0h-142v667h142v-667zM322 801c-8 -9 -64 -81 -127 -81c-46 0 -72 32 -108 32c-27 0 -60 -33 -66 -38l-59 59c6 8 62 81 127 81c45 0 72 -31 107 -31c32 0 59 30 67 37z" />
    <glyph glyph-name="Utilde" unicode="&#x168;" horiz-adv-x="656" 
d="M591 291c0 -119 -11 -180 -64 -233c-28 -28 -84 -74 -200 -74c-72 0 -144 20 -199 75c-60 60 -63 136 -63 236v372h142v-416c0 -38 3 -82 33 -112c18 -18 50 -31 90 -31c48 0 72 17 91 36c29 29 32 68 32 169v354h138v-376zM509 801c-8 -9 -64 -81 -127 -81
c-46 0 -72 32 -108 32c-27 0 -60 -33 -66 -38l-59 59c6 8 62 81 127 81c45 0 72 -31 107 -31c32 0 59 30 67 37z" />
    <glyph glyph-name="Tbar" unicode="&#x166;" horiz-adv-x="561" 
d="M454 293h-102v-293h-142v293h-104v108h104v152h-183v114h507v-114h-182v-152h102v-108z" />
    <glyph glyph-name="Hcircumflex" unicode="&#x124;" horiz-adv-x="670" 
d="M599 0h-142v289h-244v-289h-142v667h142v-262h244v262h142v-667zM504 776l-45 -63l-125 71l-124 -70l-45 68l169 126z" />
    <glyph glyph-name="Hbar" unicode="&#x126;" horiz-adv-x="746" 
d="M637 0h-142v289h-244v-289h-142v483h-100v110h100v74h142v-74h244v74h142v-74h100v-110h-100v-483zM251 405h244v78h-244v-78z" />
    <glyph glyph-name="Gdotaccent" unicode="&#x120;" horiz-adv-x="697" 
d="M633 53c-4 -2 -103 -69 -254 -69c-188 0 -333 130 -333 344c0 222 152 355 351 355c150 0 219 -70 226 -77l-61 -93c-8 5 -62 51 -159 51c-121 0 -215 -85 -215 -227c0 -139 82 -234 213 -234c57 0 91 13 99 16v115h-125v108h258v-289zM469 784c0 -39 -31 -70 -70 -70
s-70 31 -70 70s31 70 70 70s70 -31 70 -70z" />
    <glyph glyph-name="Gcircumflex" unicode="&#x11c;" horiz-adv-x="697" 
d="M633 53c-4 -2 -103 -69 -254 -69c-188 0 -333 130 -333 344c0 222 152 355 351 355c150 0 219 -70 226 -77l-61 -93c-8 5 -62 51 -159 51c-121 0 -215 -85 -215 -227c0 -139 82 -234 213 -234c57 0 91 13 99 16v115h-125v108h258v-289zM570 776l-45 -63l-125 71l-124 -70
l-45 68l169 126z" />
    <glyph glyph-name="Scircumflex" unicode="&#x15c;" horiz-adv-x="549" 
d="M499 197c0 -126 -96 -213 -242 -213c-142 0 -218 69 -225 77l62 96c14 -9 76 -54 155 -54c65 0 107 32 107 81c0 20 -9 37 -19 47c-42 42 -161 58 -231 128c-27 27 -53 66 -53 126c0 120 97 198 231 198c132 0 204 -67 210 -73l-64 -91c-9 7 -70 50 -137 50
c-59 0 -101 -28 -101 -70c0 -20 6 -29 17 -40c32 -32 169 -62 238 -131c32 -32 52 -69 52 -131zM455 776l-45 -63l-125 71l-124 -70l-45 68l169 126z" />
    <glyph glyph-name="Ebreve" unicode="&#x114;" horiz-adv-x="531" 
d="M483 0h-412v667h404v-114h-264v-155h248v-112h-248v-170h272v-116zM419 869c-3 -95 -60 -155 -149 -155s-146 60 -149 155h90c4 -43 24 -63 59 -63s55 20 59 63h90z" />
    <glyph glyph-name="Oslashacute" unicode="&#x1fe;" horiz-adv-x="742" 
d="M498 808l-231 -95l-41 73l221 123zM696 339c0 -216 -134 -355 -324 -355c-54 0 -93 11 -118 20l-49 -85l-98 52l52 89c-56 49 -113 139 -113 279c0 205 132 344 325 344c65 0 114 -18 123 -22l48 85l99 -52l-51 -91c45 -39 106 -123 106 -264zM553 340
c0 77 -27 128 -34 138l-205 -364c9 -4 23 -11 60 -11c138 0 179 130 179 237zM437 553c-3 1 -26 14 -71 14c-107 0 -177 -98 -177 -237c0 -82 27 -129 39 -146z" />
    <glyph glyph-name="Obreve" unicode="&#x14e;" horiz-adv-x="742" 
d="M696 339c0 -216 -134 -355 -324 -355c-194 0 -326 144 -326 355c0 205 132 344 325 344c197 0 325 -144 325 -344zM553 340c0 132 -75 227 -187 227c-107 0 -177 -98 -177 -237c0 -140 80 -227 185 -227c138 0 179 130 179 237zM520 869c-3 -95 -60 -155 -149 -155
s-146 60 -149 155h90c4 -43 24 -63 59 -63s55 20 59 63h90z" />
    <glyph glyph-name="Dcaron" unicode="&#x10e;" horiz-adv-x="694" 
d="M648 339c0 -90 -31 -179 -91 -239c-97 -97 -222 -100 -349 -100h-137v667h184c114 0 212 1 302 -89c58 -58 91 -146 91 -239zM507 343c0 71 -19 120 -57 158c-57 57 -122 55 -199 55h-40v-443h67c150 0 229 81 229 230zM478 839l-169 -126l-170 132l45 63l125 -71l124 70
z" />
    <glyph glyph-name="Cdotaccent" unicode="&#x10a;" horiz-adv-x="649" 
d="M625 67c-8 -8 -95 -83 -246 -83c-188 0 -333 130 -333 344c0 222 152 355 351 355c150 0 219 -70 226 -77l-61 -93c-8 5 -62 51 -159 51c-121 0 -215 -85 -215 -227c0 -139 81 -230 208 -230c88 0 159 49 170 55zM469 784c0 -39 -31 -70 -70 -70s-70 31 -70 70
s31 70 70 70s70 -31 70 -70z" />
    <glyph glyph-name="ebreve" unicode="&#x115;" horiz-adv-x="537" 
d="M497 244c0 -21 -2 -35 -2 -42h-324c-2 -36 28 -111 126 -111c62 0 110 25 131 35l44 -86c-3 -3 -78 -54 -187 -54c-160 0 -245 114 -245 257c0 151 96 263 236 263c144 0 221 -102 221 -262zM372 299c0 27 -10 107 -93 107c-61 0 -99 -46 -109 -107h202zM427 721
c-3 -95 -60 -155 -149 -155s-146 60 -149 155h90c4 -43 24 -63 59 -63s55 20 59 63h90z" />
    <glyph glyph-name="gcircumflex" unicode="&#x11d;" horiz-adv-x="570" 
d="M509 7c0 -68 0 -122 -53 -175c-30 -30 -84 -65 -182 -65c-138 0 -213 65 -221 73l54 88c7 -4 71 -49 152 -49c109 0 117 68 117 120v31c-7 -4 -45 -30 -115 -30c-150 0 -221 120 -221 242c0 147 104 264 264 264c105 0 191 -45 205 -52v-447zM376 133v250
c-7 3 -38 15 -74 15c-70 0 -127 -55 -127 -149c0 -92 54 -141 117 -141c43 0 81 22 84 25zM475 610l-45 -63l-125 71l-124 -70l-45 68l169 126z" />
    <glyph glyph-name="gdotaccent" unicode="&#x121;" horiz-adv-x="570" 
d="M509 7c0 -68 0 -122 -53 -175c-30 -30 -84 -65 -182 -65c-138 0 -213 65 -221 73l54 88c7 -4 71 -49 152 -49c109 0 117 68 117 120v31c-7 -4 -45 -30 -115 -30c-150 0 -221 120 -221 242c0 147 104 264 264 264c105 0 191 -45 205 -52v-447zM376 133v250
c-7 3 -38 15 -74 15c-70 0 -127 -55 -127 -149c0 -92 54 -141 117 -141c43 0 81 22 84 25zM378 639c0 -39 -31 -70 -70 -70s-70 31 -70 70s31 70 70 70s70 -31 70 -70z" />
    <glyph glyph-name="hcircumflex" unicode="&#x125;" horiz-adv-x="550" 
d="M496 0h-135v259c0 64 -3 96 -21 114c-6 6 -21 18 -53 18c-43 0 -83 -25 -91 -31v-360h-135v724h135v-255c7 4 58 37 119 37c52 0 96 -16 128 -48c55 -55 53 -129 53 -193v-265zM298 842l-45 -63l-125 71l-124 -70l-45 68l169 126z" />
    <glyph glyph-name="hbar" unicode="&#x127;" horiz-adv-x="550" 
d="M336 540h-140v-71c7 4 58 37 119 37c52 0 96 -16 128 -48c55 -55 53 -129 53 -193v-265h-135v259c0 64 -3 96 -21 114c-6 6 -21 18 -53 18c-43 0 -83 -25 -91 -31v-360h-135v540h-85v112h85v72h135v-72h140v-112z" />
    <glyph glyph-name="itilde" unicode="&#x129;" horiz-adv-x="257" 
d="M196 0h-135v492h135v-492zM309 654c-8 -9 -64 -81 -127 -81c-46 0 -72 32 -108 32c-27 0 -60 -33 -66 -38l-59 59c6 8 62 81 127 81c45 0 72 -31 107 -31c32 0 59 30 67 37z" />
    <glyph glyph-name="ibreve" unicode="&#x12d;" horiz-adv-x="257" 
d="M196 0h-135v492h135v-492zM278 721c-3 -95 -60 -155 -149 -155s-146 60 -149 155h90c4 -43 24 -63 59 -63s55 20 59 63h90z" />
    <glyph glyph-name="jcircumflex" unicode="&#x135;" horiz-adv-x="255" 
d="M196 492v-516c0 -69 -6 -118 -52 -164c-33 -33 -89 -45 -130 -45c-54 0 -102 22 -107 28l36 94c8 -3 27 -11 48 -11c18 0 35 2 51 18c11 11 19 24 19 72v524h135zM298 610l-45 -63l-125 71l-124 -70l-45 68l169 126z" />
    <glyph glyph-name="ldot" unicode="&#x140;" horiz-adv-x="544" 
d="M196 0h-135v724h135v-724zM483 347c0 -46 -36 -83 -82 -83s-83 37 -83 83s37 82 83 82s82 -36 82 -82z" />
    <glyph glyph-name="aringacute" unicode="&#x1fb;" horiz-adv-x="509" 
d="M455 0h-117v35c-9 -6 -61 -46 -139 -46c-98 0 -159 65 -159 158c0 175 214 178 274 178h14c0 30 -1 44 -15 58c-11 11 -33 20 -70 20c-65 0 -124 -32 -131 -36l-45 86c7 6 74 53 187 53c42 0 113 -7 161 -55c41 -41 40 -92 40 -156v-295zM328 121v112h-21
c-87 0 -149 -15 -149 -77c0 -51 43 -65 76 -65c55 0 88 27 94 30zM364 654c0 -60 -49 -110 -109 -110s-110 50 -110 110s50 109 110 109s109 -49 109 -109zM300 655c0 25 -21 46 -46 46s-46 -21 -46 -46s21 -46 46 -46s46 21 46 46zM390 868l-231 -95l-41 73l221 123z" />
    <glyph glyph-name="aeacute" unicode="&#x1fd;" horiz-adv-x="829" 
d="M789 244c0 -21 -2 -35 -2 -42h-324c-2 -36 28 -111 126 -111c62 0 110 25 131 35l44 -86c-3 -3 -78 -54 -187 -54c-114 0 -166 56 -177 69c-41 -36 -105 -69 -191 -69c-90 0 -169 48 -169 163c0 169 212 172 274 172h14v4c0 30 -1 44 -15 58c-11 11 -33 20 -70 20
c-67 0 -124 -32 -131 -36l-45 86c7 5 73 53 187 53c113 0 153 -48 162 -57c8 8 60 57 152 57c144 0 221 -102 221 -262zM664 299c0 27 -10 107 -93 107c-61 0 -99 -46 -109 -107h202zM348 126c-16 28 -20 75 -20 103h-21c-87 0 -149 -15 -149 -77c0 -51 43 -65 76 -65
c63 0 110 37 114 39zM647 640l-231 -95l-41 73l221 123z" />
    <glyph glyph-name="ccircumflex" unicode="&#x109;" horiz-adv-x="498" 
d="M479 47c-2 -2 -71 -61 -187 -61c-154 0 -252 110 -252 256c0 153 113 264 261 264c104 0 163 -50 170 -60l-54 -83c-7 5 -48 34 -104 34c-90 0 -138 -78 -138 -148c0 -86 44 -152 134 -152c63 0 114 34 118 36zM473 610l-45 -63l-125 71l-124 -70l-45 68l169 126z" />
    <glyph glyph-name="eng" unicode="&#x14b;" horiz-adv-x="550" 
d="M496 265v-289c0 -69 -6 -118 -52 -164c-33 -33 -89 -45 -130 -45c-54 0 -102 22 -107 28l36 94c8 -3 27 -11 48 -11c18 0 35 2 51 18c11 11 19 24 19 72v291c0 64 -3 96 -21 114c-6 6 -21 18 -53 18c-43 0 -83 -25 -91 -31v-360h-135v492h115v-37c8 6 69 51 139 51
c52 0 96 -16 128 -48c56 -56 53 -129 53 -193z" />
    <glyph glyph-name="cdotaccent" unicode="&#x10b;" horiz-adv-x="498" 
d="M479 47c-2 -2 -71 -61 -187 -61c-154 0 -252 110 -252 256c0 153 113 264 261 264c104 0 163 -50 170 -60l-54 -83c-7 5 -48 34 -104 34c-90 0 -138 -78 -138 -148c0 -86 44 -152 134 -152c63 0 114 34 118 36zM370 639c0 -39 -31 -70 -70 -70s-70 31 -70 70s31 70 70 70
s70 -31 70 -70z" />
    <glyph glyph-name="ycircumflex" unicode="&#x177;" horiz-adv-x="578" 
d="M551 492l-195 -497c-38 -97 -60 -142 -95 -177c-21 -21 -63 -51 -144 -51c-72 0 -119 29 -123 31l40 96c7 -3 37 -17 76 -17c30 0 51 9 67 25c24 24 41 76 49 98l-206 492h143l132 -345l123 345h133zM456 610l-45 -63l-125 71l-124 -70l-45 68l169 126z" />
    <glyph glyph-name="ygrave" unicode="&#x1ef3;" horiz-adv-x="578" 
d="M551 492l-195 -497c-38 -97 -60 -142 -95 -177c-21 -21 -63 -51 -144 -51c-72 0 -119 29 -123 31l40 96c7 -3 37 -17 76 -17c30 0 51 9 67 25c24 24 41 76 49 98l-206 492h143l132 -345l123 345h133zM431 618l-41 -73l-231 95l51 101z" />
    <glyph glyph-name="wdieresis" unicode="&#x1e85;" horiz-adv-x="782" 
d="M744 492l-135 -492h-140l-88 337l-84 -337h-136l-132 492h129l79 -345l89 345h121l88 -345l85 345h124zM549 639c0 -39 -31 -70 -70 -70s-70 31 -70 70s31 70 70 70s70 -31 70 -70zM354 639c0 -39 -31 -70 -70 -70s-70 31 -70 70s31 70 70 70s70 -31 70 -70z" />
    <glyph glyph-name="wcircumflex" unicode="&#x175;" horiz-adv-x="782" 
d="M744 492l-135 -492h-140l-88 337l-84 -337h-136l-132 492h129l79 -345l89 345h121l88 -345l85 345h124zM552 610l-45 -63l-125 71l-124 -70l-45 68l169 126z" />
    <glyph glyph-name="wgrave" unicode="&#x1e81;" horiz-adv-x="782" 
d="M744 492l-135 -492h-140l-88 337l-84 -337h-136l-132 492h129l79 -345l89 345h121l88 -345l85 345h124zM517 618l-41 -73l-231 95l51 101z" />
    <glyph glyph-name="wacute" unicode="&#x1e83;" horiz-adv-x="782" 
d="M744 492l-135 -492h-140l-88 337l-84 -337h-136l-132 492h129l79 -345l89 345h121l88 -345l85 345h124zM517 640l-231 -95l-41 73l221 123z" />
    <glyph glyph-name="ubreve" unicode="&#x16d;" horiz-adv-x="550" 
d="M489 0h-115v37c-8 -6 -69 -51 -139 -51c-52 0 -96 16 -128 48c-55 55 -53 129 -53 193v265h135v-259c0 -64 3 -96 21 -114c6 -6 21 -18 53 -18c43 0 83 25 91 31v360h135v-492zM424 721c-3 -95 -60 -155 -149 -155s-146 60 -149 155h90c4 -43 24 -63 59 -63s55 20 59 63
h90z" />
    <glyph glyph-name="utilde" unicode="&#x169;" horiz-adv-x="550" 
d="M489 0h-115v37c-8 -6 -69 -51 -139 -51c-52 0 -96 16 -128 48c-55 55 -53 129 -53 193v265h135v-259c0 -64 3 -96 21 -114c6 -6 21 -18 53 -18c43 0 83 25 91 31v360h135v-492zM465 654c-8 -9 -64 -81 -127 -81c-46 0 -72 32 -108 32c-27 0 -60 -33 -66 -38l-59 59
c6 8 62 81 127 81c45 0 72 -31 107 -31c32 0 59 30 67 37z" />
    <glyph glyph-name="tbar" unicode="&#x167;" horiz-adv-x="437" 
d="M380 205h-140v-22c0 -39 3 -84 62 -84c31 0 53 9 62 12l34 -93c-4 -3 -51 -32 -124 -32c-44 0 -94 11 -127 44c-42 42 -42 89 -42 158v17h-85v108h85v67h-85v112h85v137h135v-137h140v-112h-140v-67h140v-108z" />
    <glyph glyph-name="scircumflex" unicode="&#x15d;" horiz-adv-x="463" 
d="M413 145c0 -98 -75 -159 -195 -159c-112 0 -185 51 -191 56l46 86c10 -5 66 -40 128 -40c60 0 76 24 76 48c0 32 -27 39 -106 72c-43 18 -122 49 -122 143s77 155 193 155c107 0 163 -44 163 -44l-44 -83c-5 3 -62 32 -112 32s-66 -25 -66 -45c0 -33 34 -42 89 -64
c67 -27 141 -57 141 -157zM416 610l-45 -63l-125 71l-124 -70l-45 68l169 126z" />
    <glyph glyph-name="oslashacute" unicode="&#x1ff;" horiz-adv-x="581" 
d="M427 640l-231 -95l-41 73l221 123zM541 251c0 -157 -104 -265 -256 -265c-33 0 -66 6 -82 13l-42 -72l-82 45l43 73c-36 29 -82 95 -82 198c0 153 105 263 255 263c42 0 77 -10 88 -14l42 71l80 -47l-44 -72c34 -28 80 -93 80 -193zM416 250c0 52 -15 77 -19 85
l-141 -242c4 -1 18 -5 35 -5c83 0 125 65 125 162zM328 398c-5 2 -17 7 -34 7c-80 0 -127 -64 -127 -168c0 -50 16 -77 19 -84z" />
    <glyph glyph-name="obreve" unicode="&#x14f;" horiz-adv-x="581" 
d="M541 251c0 -157 -104 -265 -256 -265c-145 0 -245 106 -245 257c0 153 105 263 255 263c145 0 246 -107 246 -255zM406 245c0 90 -48 150 -117 150s-114 -59 -114 -147c0 -90 49 -150 119 -150s112 58 112 147zM444 721c-3 -95 -60 -155 -149 -155s-146 60 -149 155h90
c4 -43 24 -63 59 -63s55 20 59 63h90z" />
    <glyph glyph-name="Dcroatsmall" unicode="&#xf676;" horiz-adv-x="649" 
d="M607 268c0 -67 -21 -132 -74 -185c-80 -80 -195 -83 -299 -83h-124v222h-80v96h80v209h162c96 0 186 1 263 -76c51 -52 72 -121 72 -183zM470 271c0 52 -16 89 -41 114c-42 42 -97 41 -141 41h-43v-108h132v-96h-132v-120h44c119 0 181 63 181 169z" />
    <glyph glyph-name="Dcroat" unicode="&#x110;" horiz-adv-x="732" 
d="M686 339c0 -90 -31 -179 -91 -239c-97 -97 -222 -100 -349 -100h-137v286h-100v112h100v269h184c114 0 212 1 302 -89c58 -58 91 -146 91 -239zM545 343c0 71 -19 120 -57 158c-57 57 -122 55 -199 55h-40v-158h174v-112h-174v-173h67c150 0 229 81 229 230z" />
    <glyph glyph-name="uni021A" unicode="&#x21a;" horiz-adv-x="561" 
d="M534 553h-182v-553h-142v553h-183v114h507v-114zM210 -96h142c3 -102 -42 -181 -146 -255l-76 68c3 3 4 4 12 11h1l1 1l2 2c21 19 45 57 55 87c7 23 10 43 10 75c0 1 0 6 -1 11z" />
    <glyph glyph-name="uni021B" unicode="&#x21b;" horiz-adv-x="437" 
d="M398 18c-4 -3 -51 -32 -124 -32c-44 0 -94 11 -127 44c-42 42 -42 89 -42 158v192h-85v112h85v137h135v-137h140v-112h-140v-197c0 -39 3 -84 62 -84c31 0 53 9 62 12zM111 -96h142c0 -71 -12 -131 -88 -207c-15 -15 -38 -35 -58 -48l-76 68c5 4 10 9 15 14
c70 70 65 140 65 173z" />
    <glyph glyph-name="afii10017" unicode="&#x410;" horiz-adv-x="659" 
d="M643 0h-146l-49 139h-240l-49 -139h-143l242 667h142zM411 248l-84 268l-84 -268h168z" />
    <glyph glyph-name="afii10018" unicode="&#x411;" horiz-adv-x="600" 
d="M205 399h89c101 0 257 -20 257 -199c0 -61 -22 -106 -51 -135c-63 -63 -147 -65 -241 -65h-188v667h410v-114h-276v-154zM407 200c0 20 -6 42 -21 57c-25 25 -53 28 -116 28h-65v-172h76c67 0 86 11 104 29c14 14 22 35 22 58z" />
    <glyph glyph-name="afii10019" unicode="&#x412;" horiz-adv-x="600" 
d="M551 200c0 -61 -22 -106 -51 -135c-63 -63 -147 -65 -241 -65h-188v667h217c77 0 143 -5 192 -54c39 -39 50 -81 50 -128c0 -116 -80 -139 -93 -144c17 -5 114 -26 114 -141zM390 474c0 83 -67 82 -111 82h-74v-167h19c76 0 166 -10 166 85zM407 200c0 20 -6 42 -21 57
c-25 25 -53 28 -116 28h-65v-172h76c67 0 86 11 104 29c14 14 22 35 22 58z" />
    <glyph glyph-name="afii10020" unicode="&#x413;" horiz-adv-x="498" 
d="M71 667h400v-114h-258v-553h-142v667z" />
    <glyph glyph-name="afii10021" unicode="&#x414;" horiz-adv-x="731" 
d="M237 116h233v437h-99l-62 -282c-23 -107 -44 -135 -72 -155zM258 667h354v-551h69v-242h-133v128h-363v-128h-133v242c31 0 52 7 68 21c18 16 28 43 39 91z" />
    <glyph glyph-name="afii10022" unicode="&#x415;" horiz-adv-x="531" 
d="M483 0h-412v667h404v-114h-264v-155h248v-112h-248v-170h272v-116z" />
    <glyph glyph-name="afii10024" unicode="&#x416;" horiz-adv-x="966" 
d="M552 311v-311h-138v311l-230 -311h-170l257 341l-254 326h166l231 -312v312h138v-312l231 312h156l-247 -324l260 -343h-170z" />
    <glyph glyph-name="afii10025" unicode="&#x417;" horiz-adv-x="571" 
d="M522 197c0 -126 -107 -213 -271 -213c-155 0 -221 63 -227 70l58 94c12 -8 65 -49 155 -49c89 0 141 40 141 96c0 88 -91 91 -157 91h-49v111h36c49 0 100 -2 138 36c13 13 20 29 20 52c0 46 -51 83 -117 83c-88 0 -144 -48 -152 -54l-63 84c3 3 75 85 237 85
c128 0 233 -77 233 -188c0 -62 -39 -138 -107 -149c81 -10 125 -78 125 -149z" />
    <glyph glyph-name="afii10026" unicode="&#x418;" horiz-adv-x="670" 
d="M192 0h-121v667h129l-3 -442l274 442h128v-667h-129l3 453z" />
    <glyph glyph-name="afii10027" unicode="&#x419;" horiz-adv-x="670" 
d="M71 0h121l281 453l-3 -453h129v667h-128l-274 -442l3 442h-129v-667zM484 896c-3 -95 -60 -155 -149 -155s-146 60 -149 155h90c4 -43 24 -63 59 -63s55 20 59 63h90z" />
    <glyph glyph-name="afii10028" unicode="&#x41a;" horiz-adv-x="617" 
d="M603 0h-170l-220 311v-311h-142v667h142v-312l221 312h156l-242 -324z" />
    <glyph glyph-name="afii10029" unicode="&#x41b;" horiz-adv-x="684" 
d="M613 0h-142v553h-134l-84 -385c-10 -45 -24 -98 -55 -129c-28 -28 -57 -47 -140 -47c-13 0 -31 1 -42 2v110c31 0 52 7 68 21c18 16 28 43 39 91l101 451h389v-667z" />
    <glyph glyph-name="afii10030" unicode="&#x41c;" horiz-adv-x="865" 
d="M810 0h-133l-37 469l-154 -469h-116l-159 469l-31 -469h-125l60 667h152l168 -483l159 483h152z" />
    <glyph glyph-name="afii10031" unicode="&#x41d;" horiz-adv-x="670" 
d="M599 0h-142v289h-244v-289h-142v667h142v-262h244v262h142v-667z" />
    <glyph glyph-name="afii10032" unicode="&#x41e;" horiz-adv-x="742" 
d="M696 339c0 -216 -134 -355 -324 -355c-194 0 -326 144 -326 355c0 205 132 344 325 344c197 0 325 -144 325 -344zM553 340c0 132 -75 227 -187 227c-107 0 -177 -98 -177 -237c0 -140 80 -227 185 -227c138 0 179 130 179 237z" />
    <glyph glyph-name="afii10033" unicode="&#x41f;" horiz-adv-x="670" 
d="M599 0h-142v553h-244v-553h-142v667h528v-667z" />
    <glyph glyph-name="afii10034" unicode="&#x420;" horiz-adv-x="595" 
d="M541 464c0 -82 -37 -131 -59 -153c-62 -62 -133 -67 -220 -67h-52v-244h-139v667h188c97 0 172 -4 228 -60c35 -35 54 -86 54 -143zM398 458c0 35 -12 61 -25 74c-22 22 -53 24 -108 24h-55v-199h49c73 0 97 8 113 24s26 45 26 77z" />
    <glyph glyph-name="afii10035" unicode="&#x421;" horiz-adv-x="649" 
d="M625 67c-8 -8 -95 -83 -246 -83c-188 0 -333 130 -333 344c0 222 152 355 351 355c150 0 219 -70 226 -77l-61 -93c-8 5 -62 51 -159 51c-121 0 -215 -85 -215 -227c0 -139 81 -230 208 -230c88 0 159 49 170 55z" />
    <glyph glyph-name="afii10036" unicode="&#x422;" horiz-adv-x="561" 
d="M534 553h-182v-553h-142v553h-183v114h507v-114z" />
    <glyph glyph-name="afii10037" unicode="&#x423;" horiz-adv-x="627" 
d="M273 250l-223 417h146l144 -280l126 280h140l-194 -417c-46 -97 -82 -172 -117 -207c-21 -21 -63 -51 -144 -51c-72 0 -119 29 -123 31l40 96c7 -3 37 -17 76 -17c67 0 99 85 129 148z" />
    <glyph glyph-name="afii10038" unicode="&#x424;" horiz-adv-x="752" 
d="M440 0h-128v79c-155 3 -268 89 -268 260c0 157 113 243 268 248v80h128v-80c157 -5 268 -91 268 -248c0 -171 -115 -256 -268 -260v-79zM176 330c0 -107 69 -148 136 -150v308c-70 -2 -136 -48 -136 -158zM577 330c0 104 -60 155 -137 158v-308c87 3 137 61 137 150z" />
    <glyph glyph-name="afii10039" unicode="&#x425;" horiz-adv-x="630" 
d="M602 0h-152l-137 234l-139 -234h-146l216 345l-202 322h153l126 -217l130 217h143l-203 -320z" />
    <glyph glyph-name="afii10040" unicode="&#x426;" horiz-adv-x="718" 
d="M599 116h69v-242h-133v126h-464v667h142v-551h244v551h142v-551z" />
    <glyph glyph-name="afii10041" unicode="&#x427;" horiz-adv-x="662" 
d="M591 667v-667h-142v277c-17 -9 -66 -23 -122 -23c-72 0 -144 20 -199 75c-60 60 -63 136 -63 236v102h142v-146c0 -38 3 -82 33 -112c18 -18 48 -31 96 -31c68 0 102 18 113 24v265h142z" />
    <glyph glyph-name="afii10042" unicode="&#x428;" horiz-adv-x="860" 
d="M789 667v-667h-718v667h142v-551h146v551h142v-551h146v551h142z" />
    <glyph glyph-name="afii10043" unicode="&#x429;" horiz-adv-x="908" 
d="M501 116h146v551h142v-551h69v-242h-133v126h-654v667h142v-551h146v551h142v-551z" />
    <glyph glyph-name="afii10044" unicode="&#x42a;" horiz-adv-x="737" 
d="M540 209c0 94 -68 104 -144 104h-54v-202h60c84 0 138 15 138 98zM203 0v553h-176v114h315v-244h52c157 0 289 -32 289 -213c0 -197 -153 -210 -292 -210h-188z" />
    <glyph glyph-name="afii10045" unicode="&#x42b;" horiz-adv-x="864" 
d="M651 0v667h142v-667h-142zM409 209c0 -28 -9 -56 -29 -75c-24 -24 -66 -23 -107 -23h-63v203h43c55 0 98 1 127 -27c17 -18 29 -40 29 -78zM551 210c0 181 -132 213 -289 213h-52v244h-139v-667h188c139 0 292 13 292 210z" />
    <glyph glyph-name="afii10046" unicode="&#x42c;" horiz-adv-x="605" 
d="M551 210c0 -197 -153 -210 -292 -210h-188v667h139v-244h52c157 0 289 -32 289 -213zM408 209c0 94 -68 104 -144 104h-54v-202h60c84 0 138 15 138 98z" />
    <glyph glyph-name="afii10047" unicode="&#x42d;" horiz-adv-x="649" 
d="M457 286h-295v112h294c-18 84 -81 166 -202 166c-97 0 -151 -46 -159 -51l-61 93c7 7 76 77 226 77c199 0 343 -133 343 -355c0 -214 -145 -344 -333 -344c-151 0 -238 75 -246 83l59 95c11 -6 82 -55 170 -55c119 0 191 81 204 179z" />
    <glyph glyph-name="afii10048" unicode="&#x42e;" horiz-adv-x="1027" 
d="M981 339c0 -216 -134 -355 -324 -355c-179 0 -305 121 -324 305h-120v-289h-142v667h142v-262h123c25 168 148 278 320 278c197 0 325 -144 325 -344zM838 340c0 132 -75 227 -187 227c-107 0 -177 -98 -177 -237c0 -140 80 -227 185 -227c138 0 179 130 179 237z" />
    <glyph glyph-name="afii10049" unicode="&#x42f;" horiz-adv-x="597" 
d="M174 0h-150l73 163c23 51 52 136 123 143c-100 15 -147 88 -147 170c0 58 23 102 54 133c61 61 139 58 228 58h171v-667h-139v264h-16c-54 0 -78 3 -116 -83zM214 469c0 -23 10 -52 26 -68c21 -21 44 -28 91 -28h56v183h-41c-52 0 -86 1 -111 -24
c-12 -12 -21 -36 -21 -63z" />
    <glyph glyph-name="afii10050" unicode="&#x490;" horiz-adv-x="498" 
d="M471 808v-255h-258v-553h-142v667h267v141h133z" />
    <glyph glyph-name="afii10055" unicode="&#x406;" horiz-adv-x="284" 
d="M213 0h-142v667h142v-667z" />
    <glyph glyph-name="afii10051" unicode="&#x402;" horiz-adv-x="713" 
d="M653 143c0 -268 -46 -377 -229 -377c-37 0 -86 12 -106 27l33 97c23 -9 49 -12 59 -12c92 0 101 102 101 261c0 145 -7 186 -91 186c-53 0 -92 -24 -102 -30v-295h-142v553h-149v114h461v-114h-170v-138c19 10 60 32 130 32c199 0 205 -131 205 -304z" />
    <glyph glyph-name="afii10099" unicode="&#x452;" horiz-adv-x="593" 
d="M540 272v-296c0 -69 -6 -118 -52 -164c-33 -33 -89 -45 -130 -45c-54 0 -102 22 -107 28l36 94c7 -3 27 -11 48 -11c18 0 35 2 51 18c11 11 19 24 19 72v291c0 64 -3 96 -21 114c-6 6 -21 18 -53 18c-43 0 -83 -25 -91 -31v-360h-135v555h-85v102h85v67h135v-67h140v-102
h-140v-86c7 5 58 37 119 37c52 0 96 -16 128 -48c53 -54 53 -122 53 -186z" />
    <glyph glyph-name="afii10052" unicode="&#x403;" horiz-adv-x="498" 
d="M471 667h-400v-667h142v553h258v114zM396 815l-231 -95l-41 73l221 123z" />
    <glyph glyph-name="afii10100" unicode="&#x453;" horiz-adv-x="412" 
d="M400 492v-112h-204v-380h-135v492h339zM372 640l-231 -95l-41 73l221 123z" />
    <glyph glyph-name="afii10103" unicode="&#x456;" horiz-adv-x="256" 
d="M205 630c0 -43 -34 -77 -77 -77s-77 34 -77 77s34 77 77 77s77 -34 77 -77zM196 0h-135v492h135v-492z" />
    <glyph glyph-name="afii10098" unicode="&#x491;" horiz-adv-x="412" 
d="M276 492v148h124v-260h-204v-380h-135v492h215z" />
    <glyph glyph-name="afii10057" unicode="&#x408;" horiz-adv-x="414" 
d="M349 222c0 -69 0 -137 -52 -189c-30 -30 -79 -49 -142 -49c-85 0 -143 42 -148 46l48 99c9 -4 44 -22 80 -22c25 0 39 5 51 17c18 18 21 40 21 96v447h142v-445z" />
    <glyph glyph-name="afii10053" unicode="&#x404;" horiz-adv-x="649" 
d="M487 286h-295c13 -98 85 -179 204 -179c88 0 159 49 170 55l59 -95c-8 -8 -95 -83 -246 -83c-188 0 -333 130 -333 344c0 222 152 355 351 355c150 0 219 -70 226 -77l-61 -93c-8 5 -62 51 -159 51c-121 0 -192 -82 -210 -166h294v-112z" />
    <glyph glyph-name="afii10101" unicode="&#x454;" horiz-adv-x="498" 
d="M372 202h-192c6 -38 39 -105 129 -105c63 0 114 34 118 36l52 -86c-2 -2 -71 -61 -187 -61c-154 0 -252 110 -252 256c0 153 113 264 261 264c104 0 163 -50 170 -60l-54 -83c-7 5 -48 34 -104 34c-90 0 -125 -73 -130 -98h189v-97z" />
    <glyph glyph-name="afii10056" unicode="&#x407;" horiz-adv-x="284" 
d="M213 0h-142v667h142v-667zM309 784c0 -39 -31 -70 -70 -70s-70 31 -70 70s31 70 70 70s70 -31 70 -70zM114 784c0 -39 -31 -70 -70 -70s-70 31 -70 70s31 70 70 70s70 -31 70 -70z" />
    <glyph glyph-name="afii10104" unicode="&#x457;" horiz-adv-x="256" 
d="M195 0h-135v492h135v-492zM295 639c0 -39 -31 -70 -70 -70s-70 31 -70 70s31 70 70 70s70 -31 70 -70zM100 639c0 -39 -31 -70 -70 -70s-70 31 -70 70s31 70 70 70s70 -31 70 -70z" />
    <glyph glyph-name="afii10058" unicode="&#x409;" horiz-adv-x="1008" 
d="M811 209c0 94 -68 104 -144 104h-54v-202h60c84 0 138 15 138 98zM471 0v553h-134l-84 -385c-10 -45 -24 -98 -55 -129c-28 -28 -57 -47 -140 -47c-13 0 -31 1 -42 2v110c31 0 52 7 68 21c18 16 28 43 39 91l101 451h389v-244h52c157 0 289 -32 289 -213
c0 -197 -153 -210 -292 -210h-191z" />
    <glyph glyph-name="afii10106" unicode="&#x459;" horiz-adv-x="799" 
d="M582 0h-243v380h-88l-62 -255c-26 -98 -57 -135 -192 -131v107c45 1 60 11 73 62l79 329h325v-177h82c79 0 213 -10 213 -160c0 -119 -87 -155 -187 -155zM636 157c0 52 -39 60 -86 60h-76v-117h76c47 0 86 8 86 57z" />
    <glyph glyph-name="afii10059" unicode="&#x40a;" horiz-adv-x="1004" 
d="M648 0h-191v289h-244v-289h-142v667h142v-262h244v262h142v-262h52c157 0 299 -24 299 -205c0 -197 -163 -200 -302 -200zM807 198c0 91 -78 91 -154 91h-54v-178h60c84 0 148 4 148 87z" />
    <glyph glyph-name="afii10107" unicode="&#x45a;" horiz-adv-x="819" 
d="M789 155c0 -119 -87 -155 -187 -155h-241v205h-165v-205h-135v492h135v-177h165v177h133v-177h82c79 0 213 -10 213 -160zM656 157c0 52 -39 60 -86 60h-76v-117h76c47 0 86 8 86 57z" />
    <glyph glyph-name="afii10105" unicode="&#x458;" horiz-adv-x="255" 
d="M204 630c0 -43 -34 -77 -77 -77s-77 34 -77 77s34 77 77 77s77 -34 77 -77zM195 -24c0 -69 -6 -118 -52 -164c-33 -33 -89 -45 -130 -45c-54 0 -102 22 -107 28l36 94c8 -3 27 -11 48 -11c18 0 35 2 51 18c11 11 19 24 19 72v524h135v-516z" />
    <glyph glyph-name="afii10054" unicode="&#x405;" horiz-adv-x="549" 
d="M499 197c0 -126 -96 -213 -242 -213c-142 0 -218 69 -225 77l62 96c14 -9 76 -54 155 -54c65 0 107 32 107 81c0 20 -9 37 -19 47c-42 42 -161 58 -231 128c-27 27 -53 66 -53 126c0 120 97 198 231 198c132 0 204 -67 210 -73l-64 -91c-9 7 -70 50 -137 50
c-59 0 -101 -28 -101 -70c0 -20 6 -29 17 -40c32 -32 169 -62 238 -131c32 -32 52 -69 52 -131z" />
    <glyph glyph-name="afii10060" unicode="&#x40b;" horiz-adv-x="706" 
d="M318 0h-142v553h-149v114h461v-114h-170v-138c20 11 62 32 131 32c136 0 204 -65 204 -204v-243h-139v198c0 73 -5 127 -92 127c-38 0 -78 -13 -104 -30v-295z" />
    <glyph glyph-name="afii10108" unicode="&#x45b;" horiz-adv-x="593" 
d="M240 657h140v-102h-140v-86c7 5 58 37 119 37c52 0 96 -16 128 -48c53 -54 53 -122 53 -186v-272h-135v259c0 64 -3 96 -21 114c-6 6 -21 18 -53 18c-43 0 -83 -25 -91 -31v-360h-135v555h-85v102h85v67h135v-67z" />
    <glyph glyph-name="afii10061" unicode="&#x40c;" horiz-adv-x="617" 
d="M603 0h-170l-220 311v-311h-142v667h142v-312l221 312h156l-242 -324zM444 815l-231 -95l-41 73l221 123z" />
    <glyph glyph-name="afii10109" unicode="&#x45c;" horiz-adv-x="545" 
d="M533 0h-160l-177 211v-211h-135v492h135v-200l179 200h156l-218 -236zM408 640l-231 -95l-41 73l221 123z" />
    <glyph glyph-name="afii10102" unicode="&#x455;" horiz-adv-x="463" 
d="M413 145c0 -98 -75 -159 -195 -159c-112 0 -185 51 -191 56l46 86c10 -5 66 -40 128 -40c60 0 76 24 76 48c0 32 -27 39 -106 72c-43 18 -122 49 -122 143s77 155 193 155c107 0 163 -44 163 -44l-44 -83c-5 3 -62 32 -112 32s-66 -25 -66 -45c0 -33 34 -42 89 -64
c67 -27 141 -57 141 -157z" />
    <glyph glyph-name="afii10062" unicode="&#x40e;" horiz-adv-x="627" 
d="M480 896c-3 -95 -60 -155 -149 -155s-146 60 -149 155h90c4 -43 24 -63 59 -63s55 20 59 63h90zM273 250l-223 417h146l144 -280l126 280h140l-194 -417c-46 -97 -82 -172 -117 -207c-21 -21 -63 -51 -144 -51c-72 0 -119 29 -123 31l40 96c7 -3 37 -17 76 -17
c67 0 99 85 129 148z" />
    <glyph glyph-name="afii10110" unicode="&#x45e;" horiz-adv-x="578" 
d="M551 492l-195 -497c-38 -97 -60 -142 -95 -177c-21 -21 -63 -51 -144 -51c-72 0 -119 29 -123 31l40 96c7 -3 37 -17 76 -17c30 0 51 9 67 25c24 24 41 76 49 98l-206 492h143l132 -345l123 345h133zM438 721c-3 -95 -60 -155 -149 -155s-146 60 -149 155h90
c4 -43 24 -63 59 -63s55 20 59 63h90z" />
    <glyph glyph-name="afii10145" unicode="&#x40f;" horiz-adv-x="670" 
d="M401 0v-126h-133v126h-197v667h142v-551h244v551h142v-667h-198z" />
    <glyph glyph-name="afii10193" unicode="&#x45f;" horiz-adv-x="557" 
d="M216 0h-155v492h135v-380h165v380h135v-492h-156v-126h-124v126z" />
    <glyph glyph-name="afii10023" unicode="&#x401;" horiz-adv-x="531" 
d="M483 0h-412v667h404v-114h-264v-155h248v-112h-248v-170h272v-116zM443 784c0 -39 -31 -70 -70 -70s-70 31 -70 70s31 70 70 70s70 -31 70 -70zM248 784c0 -39 -31 -70 -70 -70s-70 31 -70 70s31 70 70 70s70 -31 70 -70z" />
    <glyph glyph-name="afii10071" unicode="&#x451;" horiz-adv-x="537" 
d="M497 244c0 -21 -2 -35 -2 -42h-324c-2 -36 28 -111 126 -111c62 0 110 25 131 35l44 -86c-3 -3 -78 -54 -187 -54c-160 0 -245 114 -245 257c0 151 96 263 236 263c144 0 221 -102 221 -262zM372 299c0 27 -10 107 -93 107c-61 0 -99 -46 -109 -107h202zM444 639
c0 -39 -31 -70 -70 -70s-70 31 -70 70s31 70 70 70s70 -31 70 -70zM249 639c0 -39 -31 -70 -70 -70s-70 31 -70 70s31 70 70 70s70 -31 70 -70z" />
    <glyph glyph-name="afii10097" unicode="&#x44f;" horiz-adv-x="517" 
d="M180 0h-140l85 178c4 8 21 51 56 56c-67 7 -85 59 -85 111c0 146 117 147 197 147h163v-492h-133v183h-19c-36 0 -46 -8 -63 -46zM224 334c0 -50 31 -53 66 -53h33v111h-38c-31 0 -61 -7 -61 -58z" />
    <glyph glyph-name="afii10065" unicode="&#x430;" horiz-adv-x="509" 
d="M455 0h-117v35c-9 -6 -61 -46 -139 -46c-98 0 -159 65 -159 158c0 175 214 178 274 178h14c0 30 -1 44 -15 58c-11 11 -33 20 -70 20c-65 0 -124 -32 -131 -36l-45 86c7 6 74 53 187 53c42 0 113 -7 161 -55c41 -41 40 -92 40 -156v-295zM328 121v112h-21
c-87 0 -149 -15 -149 -77c0 -51 43 -65 76 -65c55 0 88 27 94 30z" />
    <glyph glyph-name="afii10066" unicode="&#x431;" horiz-adv-x="560" 
d="M174 279c0 -128 42 -182 105 -182c54 0 106 32 106 142c0 96 -36 156 -101 156c-41 0 -85 -19 -105 -35c-3 -15 -5 -40 -5 -81zM187 470c20 19 66 36 116 36c152 0 217 -111 217 -257c0 -155 -101 -259 -241 -259c-144 0 -239 91 -239 327c0 374 139 362 381 410l29 -103
c-107 -44 -233 -9 -263 -154z" />
    <glyph glyph-name="afii10067" unicode="&#x432;" horiz-adv-x="497" 
d="M444 347c0 -67 -39 -87 -60 -92c21 -1 73 -20 73 -100c0 -129 -92 -155 -190 -155h-206v492h201c92 0 182 -24 182 -145zM336 151c0 36 -23 51 -74 51h-73v-104h73c53 0 74 15 74 53zM322 349c0 42 -33 48 -80 48h-53v-103h53c47 0 80 5 80 55z" />
    <glyph glyph-name="afii10068" unicode="&#x433;" horiz-adv-x="412" 
d="M400 492v-112h-204v-380h-135v492h339z" />
    <glyph glyph-name="afii10069" unicode="&#x434;" horiz-adv-x="632" 
d="M38 -126v237c71 2 78 28 102 123l58 258h330v-380h66v-238h-124v128h-308v-128h-124zM203 112h190v268h-88l-36 -157c-15 -64 -35 -104 -66 -111z" />
    <glyph glyph-name="afii10070" unicode="&#x435;" horiz-adv-x="537" 
d="M497 244c0 -21 -2 -35 -2 -42h-324c-2 -36 28 -111 126 -111c62 0 110 25 131 35l44 -86c-3 -3 -78 -54 -187 -54c-160 0 -245 114 -245 257c0 151 96 263 236 263c144 0 221 -102 221 -262zM372 299c0 27 -10 107 -93 107c-61 0 -99 -46 -109 -107h202z" />
    <glyph glyph-name="afii10072" unicode="&#x436;" horiz-adv-x="833" 
d="M349 492h135v-200l179 200h156l-218 -236l220 -256h-160l-177 211v-211h-135v211l-177 -211h-160l220 256l-218 236h156l179 -200v200z" />
    <glyph glyph-name="afii10073" unicode="&#x437;" horiz-adv-x="445" 
d="M405 143c0 -121 -101 -152 -204 -152c-102 0 -160 46 -182 68l54 75c21 -18 64 -45 125 -45c49 0 84 24 84 59c0 58 -62 59 -93 59h-46v85h50c33 0 89 7 89 65c0 38 -36 57 -76 57c-68 0 -112 -34 -126 -46l-52 69c17 19 78 69 178 69c107 0 192 -40 192 -147
c0 -71 -52 -102 -84 -108c35 -6 91 -32 91 -108z" />
    <glyph glyph-name="afii10074" unicode="&#x438;" horiz-adv-x="557" 
d="M373 492h123v-492h-124l3 297l-192 -297h-122v492h124l-3 -295z" />
    <glyph glyph-name="afii10075" unicode="&#x439;" horiz-adv-x="557" 
d="M496 492h-123l-191 -295l3 295h-124v-492h122l192 297l-3 -297h124v492zM427 721c-3 -95 -60 -155 -149 -155s-146 60 -149 155h90c4 -43 24 -63 59 -63s55 20 59 63h90z" />
    <glyph glyph-name="afii10076" unicode="&#x43a;" horiz-adv-x="545" 
d="M533 0h-160l-177 211v-211h-135v492h135v-200l179 200h156l-218 -236z" />
    <glyph glyph-name="afii10077" unicode="&#x43b;" horiz-adv-x="535" 
d="M339 380h-88l-62 -255c-26 -98 -57 -135 -192 -131v107c45 1 60 11 73 62l79 329h325v-492h-135v380z" />
    <glyph glyph-name="afii10078" unicode="&#x43c;" horiz-adv-x="665" 
d="M613 0h-122l-30 268l-89 -268h-80l-90 268l-30 -268h-120l62 492h120l99 -293l99 293h120z" />
    <glyph glyph-name="afii10079" unicode="&#x43d;" horiz-adv-x="557" 
d="M361 492h135v-492h-135v205h-165v-205h-135v492h135v-177h165v177z" />
    <glyph glyph-name="afii10080" unicode="&#x43e;" horiz-adv-x="581" 
d="M541 251c0 -157 -104 -265 -256 -265c-145 0 -245 106 -245 257c0 153 105 263 255 263c145 0 246 -107 246 -255zM406 245c0 90 -48 150 -117 150s-114 -59 -114 -147c0 -90 49 -150 119 -150s112 58 112 147z" />
    <glyph glyph-name="afii10081" unicode="&#x43f;" horiz-adv-x="557" 
d="M496 0h-135v380h-165v-380h-135v492h435v-492z" />
    <glyph glyph-name="afii10082" unicode="&#x440;" horiz-adv-x="572" 
d="M532 253c0 -160 -112 -267 -237 -267c-55 0 -93 17 -99 19v-222h-135v709h118v-30c5 4 50 44 132 44c134 0 221 -105 221 -253zM396 249c0 95 -54 146 -117 146c-43 0 -80 -23 -83 -26v-252c4 -2 36 -20 75 -20c71 0 125 51 125 152z" />
    <glyph glyph-name="afii10083" unicode="&#x441;" horiz-adv-x="498" 
d="M479 47c-2 -2 -71 -61 -187 -61c-154 0 -252 110 -252 256c0 153 113 264 261 264c104 0 163 -50 170 -60l-54 -83c-7 5 -48 34 -104 34c-90 0 -138 -78 -138 -148c0 -86 44 -152 134 -152c63 0 114 34 118 36z" />
    <glyph glyph-name="afii10084" unicode="&#x442;" horiz-adv-x="459" 
d="M447 492v-112h-150v-380h-135v380h-150v112h435z" />
    <glyph glyph-name="afii10085" unicode="&#x443;" horiz-adv-x="578" 
d="M551 492l-195 -497c-38 -97 -60 -142 -95 -177c-21 -21 -63 -51 -144 -51c-72 0 -119 29 -123 31l40 96c7 -3 37 -17 76 -17c30 0 51 9 67 25c24 24 41 76 49 98l-206 492h143l132 -345l123 345h133z" />
    <glyph glyph-name="afii10086" unicode="&#x444;" horiz-adv-x="729" 
d="M425 -217h-121v206c-129 12 -264 69 -264 254c0 181 132 245 264 259v222h121v-221c129 -13 264 -73 264 -254c0 -184 -132 -246 -264 -260v-206zM175 248c0 -117 72 -145 129 -158v314c-62 -10 -129 -46 -129 -156zM554 243c0 114 -72 146 -129 161v-314
c62 13 129 41 129 153z" />
    <glyph glyph-name="afii10087" unicode="&#x445;" horiz-adv-x="567" 
d="M543 0h-151l-112 160l-110 -160h-146l180 246l-171 246h153l103 -144l97 144h141l-165 -243z" />
    <glyph glyph-name="afii10088" unicode="&#x446;" horiz-adv-x="600" 
d="M438 0h-377v492h135v-380h165v380h135v-380h66v-238h-124v126z" />
    <glyph glyph-name="afii10089" unicode="&#x447;" horiz-adv-x="558" 
d="M497 0h-135v207c-1 -1 -49 -41 -119 -41c-52 0 -96 16 -128 48c-55 55 -53 129 -53 193v85h135v-79c0 -64 3 -96 21 -114c6 -6 21 -18 53 -18c43 0 83 25 91 31v180h135v-492z" />
    <glyph glyph-name="afii10090" unicode="&#x448;" horiz-adv-x="747" 
d="M686 0h-625v492h137v-380h109v380h135v-380h109v380h135v-492z" />
    <glyph glyph-name="afii10091" unicode="&#x449;" horiz-adv-x="790" 
d="M198 112h109v380h135v-380h109v380h135v-380h66v-238h-124v126h-567v492h137v-380z" />
    <glyph glyph-name="afii10092" unicode="&#x44a;" horiz-adv-x="622" 
d="M12 380v112h285v-177h82c79 0 213 -10 213 -160c0 -119 -87 -155 -187 -155h-243v380h-150zM459 157c0 52 -39 60 -86 60h-76v-117h76c47 0 86 8 86 57z" />
    <glyph glyph-name="afii10093" unicode="&#x44b;" horiz-adv-x="758" 
d="M697 0h-135v492h135v-492zM61 492v-492h243c100 0 187 36 187 155c0 150 -134 160 -213 160h-82v177h-135zM358 157c0 -49 -39 -57 -86 -57h-76v117h76c47 0 86 -8 86 -60z" />
    <glyph glyph-name="afii10094" unicode="&#x44c;" horiz-adv-x="521" 
d="M61 0v492h135v-177h82c79 0 213 -10 213 -160c0 -119 -87 -155 -187 -155h-243zM358 157c0 52 -39 60 -86 60h-76v-117h76c47 0 86 8 86 57z" />
    <glyph glyph-name="afii10095" unicode="&#x44d;" horiz-adv-x="498" 
d="M318 202h-192v97h189c-5 25 -40 98 -130 98c-56 0 -97 -29 -104 -34l-54 83c7 10 66 60 170 60c148 0 261 -111 261 -264c0 -146 -98 -256 -252 -256c-116 0 -185 59 -187 61l52 86c4 -2 55 -36 118 -36c90 0 123 67 129 105z" />
    </font>
</defs>
</svg>
