<svg width="23" height="23" xmlns="http://www.w3.org/2000/svg"><g fill="#FFF" fill-rule="evenodd"><path d="M20.777 16.328c0 2.327-1.916 4.222-4.269 4.222H6.293c-2.356 0-4.271-1.895-4.271-4.222V6.224c0-2.33 1.915-4.225 4.271-4.225h10.215c2.353 0 4.269 1.894 4.269 4.225v10.104zM16.508 0H6.293C2.82 0 .001 2.792.001 6.224v10.104c0 3.432 2.82 6.224 6.292 6.224h10.215c3.47 0 6.293-2.792 6.293-6.224V6.224C22.8 2.792 19.978 0 16.508 0z"/><path d="M11.4 15.084c-2.122 0-3.853-1.706-3.853-3.81 0-2.099 1.731-3.811 3.854-3.811 2.122 0 3.85 1.712 3.85 3.812 0 2.103-1.728 3.809-3.85 3.809m0-9.62c-3.24 0-5.875 2.606-5.875 5.81 0 3.202 2.635 5.812 5.875 5.812 3.236 0 5.875-2.61 5.875-5.811 0-3.205-2.639-5.811-5.875-5.811m6.119-1.698a1.486 1.486 0 00-1.482 1.47A1.475 1.475 0 0017.52 6.7c.39 0 .772-.16 1.048-.43a1.45 1.45 0 000-2.074 1.482 1.482 0 00-1.048-.43"/></g></svg>