<svg width="23" height="23" xmlns="http://www.w3.org/2000/svg"><g fill="#447185" fill-rule="evenodd"><path d="M20.777 16.58c0 2.327-1.916 4.221-4.269 4.221H6.293c-2.356 0-4.271-1.894-4.271-4.221V6.475c0-2.33 1.915-4.225 4.271-4.225h10.215c2.353 0 4.269 1.895 4.269 4.225V16.58zM16.508.252H6.293C2.82.252.001 3.043.001 6.475V16.58c0 3.432 2.82 6.223 6.292 6.223h10.215c3.47 0 6.293-2.791 6.293-6.223V6.475c0-3.432-2.823-6.223-6.293-6.223z"/><path d="M11.4 15.335c-2.122 0-3.853-1.706-3.853-3.809 0-2.1 1.731-3.812 3.854-3.812 2.122 0 3.85 1.713 3.85 3.812 0 2.103-1.728 3.81-3.85 3.81m0-9.62c-3.24 0-5.875 2.606-5.875 5.81 0 3.202 2.635 5.811 5.875 5.811 3.236 0 5.875-2.61 5.875-5.81 0-3.205-2.639-5.812-5.875-5.812m6.119-1.697a1.486 1.486 0 00-1.482 1.469 1.475 1.475 0 001.482 1.465c.39 0 .772-.159 1.048-.429a1.45 1.45 0 000-2.074 1.482 1.482 0 00-1.048-.431"/></g></svg>