<svg version="1.1" id="Слой_1" xmlns="http://www.w3.org/2000/svg" x="0" y="0" viewBox="0 0 279 54" xml:space="preserve"><style>.st0{fill:#244959}</style><path class="st0" d="M100.3 27.3h-8.1V26h1.4c0-2-.4-3.5-1.1-4.4-.6-.7-1.3-1-2.3-1-1 0-1.9.4-2.5 1.3-.8 1.1-1.2 2.9-1.2 5.3 0 1.3.1 2.5.3 3.7.1.8.4 2.1.8 3.9.4 1.8.7 3.3.7 4.5 0 .2 0 .5-.1.8-.1.3-.1.4-.1.5l-.1.3c.2.1.4.2.7.2 1.2 0 2.3-.8 3.3-2.4 1.1-1.6 1.6-3.3 1.6-5.2v-.8h-1.4v-1.3h8.1v1.3H99c0 2.5-1.2 4.7-3.5 6.5-2.2 1.7-4.5 2.6-7 2.6-.6 0-1.1 0-1.3-.1-.3-.1-.6-.1-.9-.3V41c0-.8-.1-1.5-.2-2-.3-.8-1-1.9-2.1-3.3-1.3-1.6-2.1-3-2.5-4.1-.3-.8-.4-1.8-.4-2.9 0-2.9.9-5.3 2.8-7 1.8-1.7 4-2.5 6.6-2.5 2.9 0 5.1.9 6.6 2.6 1 1.1 1.6 2.5 1.9 4.2h1.3v1.3zm15.1.9l.8.9c-.5.3-1 .6-1.5.8-.5.2-1 .3-1.4.3-.4 0-.7-.1-1.1-.2-.5-.2-1-.7-1.6-1.3-.3-.3-.5-.6-.7-.7-.3-.3-.6-.4-.9-.4-1.2 0-1.9 1.1-2.2 3.2-.1.9-.2 1.8-.2 2.9.5-.4 1.1-.7 1.9-1.1.9-.4 1.7-.6 2.2-.6.4 0 .8.1 1.1.2.4.1.8.3 1.3.6.3.2.6.3.8.3.4 0 .8-.2 1.2-.5l.6.8c-.3.4-.6.7-.9.9-.2.2-.4.3-.7.6-.3.2-.6.4-.8.5-.2.1-.5.2-.8.2-.3 0-.6 0-.7-.1-.1-.1-.4-.2-.7-.4-.5-.3-.9-.6-1.2-.7-.3-.1-.7-.2-1-.2-.4 0-.9.1-1.3.4-.2.1-.5.3-.7.5 0 1.5.4 2.8 1.1 3.8.7 1 1.8 1.5 3.2 1.5.6 0 1.2-.1 1.8-.3.6-.2 1.4-.6 2.2-1.2l.6.6c-.7.7-1.5 1.2-2.4 1.7-.9.4-2 .6-3.2.6-1.9 0-3.5-.4-4.8-1.3-1.9-1.2-2.8-3.1-2.8-5.7v-1c0-1.6.5-3.1 1.5-4.6 1.3-1.8 3-2.7 5.1-2.7.9 0 1.9.2 2.8.6.5.2 1.1.5 1.8.9.2.2.5.3.6.4.2.1.3.1.5.1.1-.1.3-.1.5-.3zm13.2 6.8c-1.2-.7-2.6-1.3-4.3-1.7v-.2c1.7-.5 3-1.1 3.8-1.6 1.1-.8 1.7-1.7 1.7-2.9 0-.9-.4-1.5-1.2-1.7-.3-.1-.8-.1-1.7-.1h-7.4c-.6 0-.9.5-1.1 1.4-.1.9-.2 3.5-.2 7.7 0 2.4.1 3.9.2 4.4.1.6.4.9.8.9h9.4c.9 0 1.6-.1 1.9-.3.6-.3.8-.9.8-1.8.1-1.6-.8-3-2.7-4.1zm-6.4-7.1h1.4c.7 0 1.2.1 1.6.2.3.2.5.5.5 1 0 .8-.3 1.5-1 2.2-.8.8-1.7 1.2-2.8 1.2.1-1.6.2-3.1.3-4.6zm4 12c-.3.2-1.1.2-2.2.2h-2l-.1-3.8.1-2.6c1.4 0 2.6.6 3.6 1.7.8 1 1.3 1.9 1.3 2.9 0 .9-.3 1.4-.7 1.6zm19.2-11.7l.8.9c-.5.3-1 .6-1.5.8-.5.2-1 .3-1.4.3-.4 0-.7-.1-1.1-.2-.5-.2-1-.7-1.6-1.3-.3-.3-.5-.6-.7-.7-.3-.3-.6-.4-.9-.4-1.1 0-1.9 1.1-2.2 3.2-.1.9-.2 1.8-.2 2.9.5-.4 1.1-.7 1.9-1.1.9-.4 1.7-.6 2.2-.6.4 0 .8.1 1.1.2.4.1.8.3 1.3.6.3.2.6.3.8.3.4 0 .8-.2 1.2-.5l.6.8c-.3.4-.6.7-.9.9-.2.2-.4.3-.7.6-.3.2-.6.4-.8.5-.2.1-.5.2-.8.2-.3 0-.6 0-.7-.1-.1-.1-.4-.2-.7-.4-.5-.3-.9-.6-1.2-.7-.3-.1-.7-.2-1-.2-.4 0-.9.1-1.3.4-.2.1-.5.3-.7.5 0 1.5.4 2.8 1.1 3.8.7 1 1.8 1.5 3.2 1.5.6 0 1.2-.1 1.8-.3.6-.2 1.4-.6 2.2-1.2l.6.6c-.7.7-1.5 1.2-2.4 1.7-.9.4-2 .6-3.2.6-1.9 0-3.5-.4-4.8-1.3-1.9-1.2-2.8-3.1-2.8-5.7v-1c0-1.6.5-3.1 1.5-4.6 1.3-1.8 3-2.7 5.1-2.7.9 0 1.9.2 2.8.6.5.2 1.1.5 1.8.9.2.2.5.3.6.4.2.1.3.1.5.1.1-.1.3-.1.5-.3zm13.2.7c-1.4-1.9-2.7-2.8-4-2.8-1.1 0-2.5.8-4 2.4-1.8 1.9-2.7 4.1-2.7 6.5 0 .9 0 1.8.1 2.7s.3 2.4.5 4.6c.1.6.1 1.1.1 1.5V49c.1.2.3.3.8.3.7 0 1.2-.3 1.6-.9.4-.6.6-1.7.6-3.2 0-1.2 0-2.2-.1-3.1-.1-.9-.1-1.5-.2-1.8l-.1-1c.5.7 1.1 1.4 2 1.9.9.5 1.8.8 2.7.8 1.4 0 2.6-.6 3.6-1.7.9-1.2 1.4-2.7 1.4-4.5 0-2.5-.7-4.8-2.3-6.9zm-1.2 8c0 .5-.1.7-.1 1.1-.1.9-.5 1.4-1.1 1.8-.4.2-.8.3-1.3.2-1.1-.1-2-.8-2.9-2-1-1.4-1.4-2.9-1.1-4.6.1-1 .4-1.8.7-2.4.3-.7 1.4-1.8 2.1-2.4 1.4.7 3.5 2.9 3.7 8.3zm14.2-2.7l-5-2.7v1.9c0 1.5 0 2.7.1 3.7s.2 2 .3 3.1c0 .4-.1.6-.2.7-.1.1-.6.2-1.4.2H164c-.5 0-.8-.5-.9-1.4-.1-.9-.2-3.2-.2-6.8 0-2.9.1-4.6.2-5.3.1-.6.4-.9.9-.9h2.6c.3 0 .4.2.4.5 0 .6-.1 1-.2 1.2-.1.2-.2.8-.2 1.8l5 2.7c0-2.7.1-4.4.2-5.1.2-.7.5-1.1.9-1.1h2.6c.3 0 .4.2.4.5 0 .2 0 .4-.1.6-.1.6-.2 1.1-.3 1.4 0 .3-.1.9-.1 1.6 0 .8-.1 1.4-.1 2 0 1.7.1 3.1.2 4.1l.3 3.3c0 .4-.1.6-.2.7-.1.1-.6.2-1.4.2h-1.4c-.6 0-.9-.3-1-1v-5.9zm18.9 3.7c-.6-1.8-1.2-4-1.9-6.7l-.2-.9-.5-1.8c-.1-.5-.2-.8-.2-1V27c0-.1-.2-.2-.4-.2h-3.5c-.2 0-.3.1-.3.2 0 .2 0 .4.1.6.1.2.1.4.2.6 0 .2.1.3.1.5s-.2.5-.5.9c-.7.8-1.2 1.3-1.3 1.4-1.2 1.3-2 2.3-2.4 2.9-1 1.4-1.5 2.6-1.5 3.6s.2 1.8.7 2.6c.6 1 1.5 1.4 2.6 1.4 1.3 0 2.3-.5 3.2-1.5.7-.8 1.2-2 1.7-3.5l.4 1.4.4 1.2.4 1.6c.1.3.2.5.3.5h3.5c.1 0 .2-.1.2-.2-.3-1.1-.7-2.1-1.1-3.1zm-5.3-1.1c-.5.6-1.2.9-2 .9-.6 0-1.1-.2-1.4-.7-.3-.4-.4-.9-.4-1.4 0-.5.2-1.2.5-1.9.5-1.2 1.4-2.4 2.6-3.7.2.6.4 1.1.5 1.6l.4 1.4c.3 1.1.5 1.9.5 2.2-.1.5-.3 1.1-.7 1.6zm21.9 3.5c-.1-.7-.2-1.5-.2-2.4-.1-.9-.1-1.7-.1-2.3 0-.8.1-1.6.1-2.6.1-1 .1-2.2.1-3.7l.1-1.9c0-.3-.1-.5-.4-.5H198c-1.1 0-1.9.1-2.3.3-.6.3-.9.9-.9 1.9 0 1.4.6 2.4 1.8 3.2.9.6 2.2 1.1 4 1.4v.2c-2 .2-3.7 1.2-5 2.7-1.1 1.3-1.7 2.6-1.7 3.7 0 .3.1.5.3.6.2.1.7.2 1.4.2h1.2c.8 0 1.3-.1 1.5-.3.2-.2.3-.6.3-1.2 0-1.1.2-2 .6-2.8.7-1.3 1.9-2.1 3.6-2.5l.1 2.3c0 2 .1 3.3.2 3.8s.4.7 1 .7h1.6c.6 0 .9 0 1.1-.1.2-.1.2-.2.2-.4.1 0 .1-.1.1-.3zm-4.1-10c0 .5-.1 1.5-.1 2.9-1.1 0-2-.3-2.7-1.1-.7-.7-1.1-1.6-1.1-2.6 0-.6.1-1.1.4-1.3.3-.2.9-.3 1.9-.3h1.8c-.1 1.1-.1 1.9-.2 2.4zm16.6 2.6l5.2-3.1c0-1.3.1-2.2.2-2.4.1-.3.4-.4.9-.4h2.7c.3 0 .4.2.4.5l-.2 1.3c-.1.9-.2 1.6-.3 2.1-.1.5-.1 1.2-.1 2.2 0 1.5 0 2.8.1 3.8s.2 2.2.4 3.6c0 .3 0 .6-.1.7-.1.1-.5.2-1.1.2h-1.8c-.5 0-.8-.5-.9-1.7-.1-1.1-.2-3.9-.2-8.5l-5.2 3.1c0 .8 0 1.7.1 2.6.1.9.2 2.1.4 3.6 0 .3 0 .6-.1.7-.1.1-.5.2-1.1.2H217c-.3 0-.5-.1-.6-.2-.2-.2-.3-.5-.3-1l-.1-1.9v-1.8c-.1-1.7-.1-2.8-.1-3.3 0-2.8.1-4.5.3-5.3.1-.6.4-.8.8-.8h2.7c.3 0 .4.2.4.5l-.1 1.3c-.1.7-.2 1.4-.2 2-.2.4-.2 1.1-.2 2zm17.1 2.2v-1.3c1.4 0 2.4-.2 3-.7.7-.6 1-1.5 1-2.7 0-.8-.2-1.5-.5-2s-.9-.8-1.6-.8c-.8 0-1.4.3-1.8.9-.4.5-.6 1.1-.6 1.7l.1.4v.4c0 .3-.4.6-1.2.8-.8.2-1.6.4-2.4.4 0 0-.1-.2-.1-.5 0-1.7.7-3 2.1-3.9 1.2-.8 2.8-1.2 4.7-1.2 1.5 0 2.8.3 3.8.9 1.2.7 1.8 1.6 1.8 2.9 0 1.4-.5 2.4-1.5 3-.7.5-1.8.8-3.3 1v.2l.7.2c1.3.2 2.2.5 2.9.9 1.2.7 1.8 1.7 1.8 3.1 0 1.2-.4 2.2-1.1 3-.7.7-1.8 1.1-3.2 1.1-.5 0-1-.1-1.4-.2-.1 0-.5-.1-1.1-.4-.6-.2-1.1-.4-1.6-.5-.4-.1-.8-.2-1-.2-.8 0-1.8.2-2.9.5-.9.3-1.7.6-2.4 1l-.6-.8c.9-1 1.6-1.7 2-2 .8-.6 1.6-.9 2.5-.9.5 0 .9.1 1.3.4.3.2.5.3.6.4.3.2.7.4 1.2.5.4.1.8.2 1.2.2.6 0 1.1-.2 1.5-.6.5-.5.7-1.3.7-2.3 0-.8-.3-1.5-.9-2-.6-.5-1.3-.8-2.1-.8h-1.6v-.1zm21.5-3.1h1.5c.6-1.4 1-2.3 1.3-2.8.2-.4.4-.7.5-1 .1-.3.2-.5.2-.7 0-.5-.5-.7-1.4-.7-.7 0-1.4.1-2 .1h-8.5c-.6 0-.9.2-1 .7 0 .5-.1 1.4-.1 2.6 0 1.3-.1 2.8-.1 4.5-.1 1.7-.1 3.2-.1 4.2 0 .9.1 1.5.2 1.8.1.3.4.4.8.4h10.3c.5 0 .8 0 1-.1.5-.1.7-.5.7-1.1 0-.8-.2-1.6-.6-2.4-.4-1-1.1-1.8-1.9-2.5-.8-.7-1.9-1.1-3-1.4-1.2-.3-2.4-.4-3.7-.4 0-1 0-2 .1-3.1s.2-1.8.2-2.3h2c1.4 0 2.3.1 2.9.3.6.2.9.7 1 1.5v1c-.1.5-.1.9-.3 1.4zm-5.9 2.7c1.7 0 2.9.4 3.7 1.1.8.8 1.2 1.9 1.2 3.4v.4c0 .2 0 .4-.1.5h-4.9v-4.8c0-.2 0-.4.1-.6zm24.2 3.2c-.6-1.8-1.2-4-1.9-6.7l-.2-.9-.5-1.8c-.1-.5-.2-.8-.2-1V27c0-.1-.2-.2-.4-.2h-3.5c-.2 0-.3.1-.3.2 0 .2 0 .4.1.6.1.2.1.4.2.6 0 .2.1.3.1.5s-.2.5-.5.9c-.7.8-1.2 1.3-1.3 1.4-1.2 1.3-2 2.3-2.4 2.9-1 1.4-1.5 2.6-1.5 3.6s.2 1.8.7 2.6c.6 1 1.5 1.4 2.6 1.4 1.3 0 2.3-.5 3.2-1.5.7-.8 1.2-2 1.7-3.5l.4 1.4.4 1.2.4 1.6c.1.3.2.5.3.5h3.5c.1 0 .2-.1.2-.2-.3-1.1-.7-2.1-1.1-3.1zm-5.3-1.1c-.5.6-1.2.9-2 .9-.6 0-1.1-.2-1.4-.7-.3-.4-.4-.9-.4-1.4 0-.5.2-1.2.5-1.9.5-1.2 1.4-2.4 2.6-3.7.2.6.4 1.1.5 1.6l.4 1.4c.3 1.1.5 1.9.5 2.2-.1.5-.3 1.1-.7 1.6zM61.1 31.7c0 1.3 1.1 2.4 2.4 2.4 1.2 0 2.1-.9 2.3-2L62 29.9c-.6.5-.9 1.1-.9 1.8zM32.9 16c-.1.3-.2.6-.2.9 0 1.3 1.1 2.4 2.4 2.4 1.3 0 2.4-1.1 2.4-2.4 0-.4-.1-.8-.3-1.1l-1.9-1.1-2.4 1.3zM8.8 29.8l-3.6 2.1c0 1.3 1.1 2.3 2.4 2.3 1.3 0 2.4-1.1 2.4-2.4-.1-.9-.5-1.6-1.2-2zm27.2 22V54h1.5c0-1-.6-1.8-1.5-2.2zm23.5-20.1c0-1 .4-1.9 1-2.6l-2.3-1.3L40.8 47V23.1l3.5 1.9v-5.2l-3-1.7-2.2-1.2c0 1.9-1.3 3.4-3 3.8v29.4c1.7.4 3 2 3 3.8h1.7L54 39.4 49.2 54h5l6.4-19.6c-.7-.7-1.1-1.6-1.1-2.7z"/><path class="st0" d="M1.4 32.6l33.9-19.3L69 32.5v-4.1C63.2 25.1 47.3 16 39.5 11.6 43.5 9 46 6.2 46.7 0h-4.4c-.7 5.1-3 6.7-7.1 9.1C31.1 6.7 28.8 5 28.1 0h-4.4c.8 6.2 3.3 9 7.3 11.6-7.9 4.5-23.9 13.6-29.6 16.9v4.1z"/><path class="st0" d="M34.2 50.2V39.4L29.4 42v7.4h-8.3l-6-18.5L29.4 23v7.3l4.8-2.6v-7c-1.7-.4-3-1.9-3.1-3.7L10.3 28.9c.7.7 1.2 1.7 1.2 2.8 0 .7-.2 1.3-.5 1.9l5.4 16.6c.3-.1.7-.2 1.1-.2 2.2 0 3.9 1.8 3.9 3.9h9.7c.1-1.8 1.4-3.3 3.1-3.7zm3.3 3.8c0-1.3-1.1-2.4-2.4-2.4-1.3 0-2.4 1.1-2.4 2.4h4.8z"/><path class="st0" d="M19.8 54c0-1.3-1.1-2.4-2.4-2.4-1.3 0-2.4 1.1-2.4 2.4h4.8z"/></svg>