<svg xmlns="http://www.w3.org/2000/svg" width="57" height="46"><defs><clipPath id="a"><path d="M0 1.468a1.879 1.879 0 001.88 1.9 1.93 1.93 0 001.88-1.6L.684 0A1.852 1.852 0 000 1.468z" fill="none"/></clipPath><clipPath id="b"><path d="M.128 1.063A1.978 1.978 0 000 1.786a1.865 1.865 0 001.88 1.872 1.865 1.865 0 001.88-1.871A1.567 1.567 0 003.5.893L1.966 0z" fill="none"/></clipPath><clipPath id="c"><path d="M2.906 0L0 1.738a1.928 1.928 0 001.88 1.916 1.911 1.911 0 001.88-1.961A1.856 1.856 0 002.906 0z" fill="none"/></clipPath><clipPath id="d"><path d="M0 0v1.878h1.116A2.079 2.079 0 000 0z" fill="none"/></clipPath><clipPath id="e"><path d="M19.543 12.3a3.145 3.145 0 01.84-2.161l-1.9-1.1L3.979 24.962V5.16L6.9 6.748V2.47L4.377 1.014 2.52 0A3.31 3.31 0 010 3.175v24.389a3.262 3.262 0 012.52 3.175h1.415L14.9 18.655l-3.935 12.084h4.156l5.306-16.274a3.1 3.1 0 01-.884-2.165z" fill="none"/></clipPath><clipPath id="f"><path d="M.089 27l28.227-16.03 28.137 15.982v-3.391A7839.432 7839.432 0 0131.86 9.6c3.323-2.158 5.406-4.492 5.982-9.6h-3.633c-.576 4.228-2.481 5.593-5.938 7.575C24.859 5.593 22.909 4.228 22.333 0H18.7c.576 5.109 2.659 7.443 5.982 9.6C18.168 13.3 4.741 20.919 0 23.605V27z" fill="none"/></clipPath><clipPath id="g"><path d="M19.76 27.6v-8.979l-3.97 2.167v6.192H8.954L3.97 11.588l11.864-6.546V11.1L19.8 8.934V3.14A3.227 3.227 0 0117.29 0L0 9.908a3.282 3.282 0 011.014 2.344 3.111 3.111 0 01-.4 1.548l4.5 13.844A2.837 2.837 0 016 27.511a3.261 3.261 0 013.264 3.273h8.072A3.113 3.113 0 0119.76 27.6z" fill="none"/></clipPath><clipPath id="h"><path d="M3.761 1.928A1.893 1.893 0 001.88 0 1.921 1.921 0 000 1.928z" fill="none"/></clipPath><clipPath id="i"><path d="M3.761 1.928A1.893 1.893 0 001.88 0 1.894 1.894 0 000 1.928z" fill="none"/></clipPath></defs><path fill="rgba(0,0,0,0)" d="M0 0h57v46H0z"/><path d="M49.884 26.334a1.879 1.879 0 001.88 1.9 1.93 1.93 0 001.88-1.6l-3.076-1.768a1.852 1.852 0 00-.684 1.468z" fill="none"/><g transform="translate(49.884 24.866)" clip-path="url(#a)"><path d="M-.433-.437h4.627v4.243H-.433z" fill="#244959"/></g><path d="M26.561 13.374a1.978 1.978 0 00-.128.723 1.865 1.865 0 001.88 1.872 1.865 1.865 0 001.88-1.871 1.567 1.567 0 00-.26-.894l-1.534-.893z" fill="none"/><g transform="translate(26.433 12.311)" clip-path="url(#b)"><path d="M-.433-.431h4.627v4.519H-.433z" fill="#244959"/></g><path d="M6.173 24.871l-2.906 1.738a1.928 1.928 0 001.88 1.916 1.911 1.911 0 001.88-1.961 1.856 1.856 0 00-.854-1.693z" fill="none"/><g transform="translate(3.267 24.871)" clip-path="url(#c)"><path d="M-.433-.451h4.631v4.556H-.433z" fill="#244959"/></g><path d="M29.078 42.941v1.878h1.116a2.079 2.079 0 00-1.116-1.878z" fill="none"/><g transform="translate(29.078 42.941)" clip-path="url(#d)"><path d="M-.419-.464h1.954v2.806H-.419z" fill="#244959"/></g><path d="M48.625 26.383a3.145 3.145 0 01.84-2.161l-1.9-1.1-14.504 15.923V19.243l2.921 1.588v-4.278l-2.523-1.456-1.857-1.014a3.31 3.31 0 01-2.52 3.175v24.389a3.262 3.262 0 012.52 3.175h1.415l10.965-12.084-3.935 12.084h4.156l5.306-16.274a3.1 3.1 0 01-.884-2.165z" fill="none"/><g transform="translate(29.082 14.083)" clip-path="url(#e)"><path d="M-.448-.447h21.323v31.633H-.448z" fill="#244959"/></g><path d="M.176 27.087l28.227-16.03L56.54 27.039v-3.391A7839.432 7839.432 0 0131.947 9.687c3.323-2.158 5.406-4.492 5.982-9.6h-3.633c-.576 4.228-2.481 5.593-5.938 7.575C24.946 5.68 22.996 4.315 22.42.087h-3.633c.576 5.109 2.659 7.443 5.982 9.6-6.514 3.7-19.941 11.319-24.682 14.005v3.395z" fill="none"/><g transform="translate(.087 .087)" clip-path="url(#f)"><path d="M-.449-.446h57.352v27.888H-.449z" fill="#244959"/></g><path d="M27.457 41.638v-8.979l-3.97 2.167v6.192h-6.836l-4.984-15.392 11.864-6.546v6.058l3.966-2.166v-5.794a3.227 3.227 0 01-2.51-3.14l-17.29 9.908a3.282 3.282 0 011.014 2.344 3.111 3.111 0 01-.4 1.548l4.5 13.844a2.837 2.837 0 01.886-.133 3.261 3.261 0 013.264 3.273h8.072a3.113 3.113 0 012.424-3.184z" fill="none"/><g transform="translate(7.697 14.038)" clip-path="url(#g)"><path d="M-.447-.448h20.7v31.68h-20.7z" fill="#244959"/></g><path d="M30.194 44.823a1.893 1.893 0 00-1.881-1.928 1.921 1.921 0 00-1.88 1.928z" fill="none"/><g transform="translate(26.433 42.895)" clip-path="url(#h)"><path d="M-.433-.444h4.627v2.815H-.433z" fill="#244959"/></g><path d="M15.509 44.823a1.893 1.893 0 00-1.881-1.928 1.894 1.894 0 00-1.88 1.928z" fill="none"/><g transform="translate(11.748 42.895)" clip-path="url(#i)"><path d="M-.433-.444h4.627v2.815H-.433z" fill="#244959"/></g></svg>