<svg width="28" height="19" xmlns="http://www.w3.org/2000/svg"><g fill="#5694AF"><path d="M2.5 15.315a1 1 0 001 1h21a1 1 0 001-1V3.685a1 1 0 00-1-1h-21a1 1 0 00-1 1v11.63zm-2 0V3.685a3 3 0 013-3h21a3 3 0 013 3v11.63a3 3 0 01-3 3h-21a3 3 0 01-3-3z"/><path d="M24.426 2.505L3.571 2.58l10.428 7.796 10.427-7.87zM13.701 11.4L1.775 2.485a.5.5 0 01.297-.9L25.924 1.5a.5.5 0 01.303.9l-11.926 9a.5.5 0 01-.6 0z"/><path d="M15.906 9.918l.567-.824 10.063 6.92a.5.5 0 01-.06.86l-.993.494a.5.5 0 01-.221.053l-21.858.071-.217-.048-1.396-.665a.5.5 0 01-.07-.862l9.757-6.775.57.822-9.05 6.283.516.245 21.628-.07.128-.064-9.364-6.44z"/></g></svg>