<svg width="30" height="18" xmlns="http://www.w3.org/2000/svg"><path d="M29.313 1.222c.21-.705 0-1.222-.991-1.222h-3.286c-.835 0-1.218.448-1.427.94 0 0-1.665 4.106-4.032 6.777-.762.77-1.112 1.022-1.532 1.022-.21 0-.52-.252-.564-.953V1.222C17.48.379 17.295 0 16.602 0h-5.164c-.517 0-.835.391-.835.762 0 .802 1.185.985 1.314 3.233v4.883c-.008 1.07-.197 1.258-.617 1.258-1.108 0-3.817-4.125-5.422-8.845C5.56.371 5.245 0 4.406 0H1.13C.185 0 0 .448 0 .94c0 .876 1.113 5.23 5.185 10.992 2.713 3.934 6.53 6.064 10.006 6.064 2.088 0 2.346-.472 2.29-1.287v-2.973c.056-.949.254-1.136.915-1.136.484 0 1.318.248 3.27 2.142C23.887 16.99 24.254 18 25.508 18h3.281c.94 0 1.407-.472 1.133-1.409-.294-.933-1.354-2.285-2.765-3.885-.766-.912-1.911-1.894-2.262-2.39-.484-.632-.347-.913 0-1.475 0 0 4-5.689 4.418-7.62" fill="#447185" fill-rule="evenodd"/></svg>