<svg xmlns="http://www.w3.org/2000/svg" width="40" height="40"><defs><clipPath id="a"><path fill="none" d="M0 0h40v40H0z"/></clipPath></defs><g clip-path="url(#a)" fill="#2c6b97"><path d="M20 40A20 20 0 015.858 5.858a20 20 0 0128.284 28.284A19.869 19.869 0 0120 40zm0-38a18 18 0 1018 18A18.02 18.02 0 0020 2z"/><path d="M22.457 15.929a1 1 0 00.1-1.41 1 1 0 00-1.41-.1l-5.6 4.831a1 1 0 00-.1 1.41 1 1 0 001.41.1z"/><path d="M15.547 20.757a1 1 0 011.306-1.514l5.6 4.831a1 1 0 01-1.302 1.514z"/></g></svg>