<svg xmlns="http://www.w3.org/2000/svg" width="27" height="17.629"><defs><clipPath id="a"><path fill="none" d="M0 0h27v17.629H0z"/></clipPath></defs><g clip-path="url(#a)" fill="#5694af"><path d="M24 17.629H3a3 3 0 01-3-3V3a3 3 0 013-3h21a3 3 0 013 3v11.63a3 3 0 01-3 2.999zM3 2a1 1 0 00-1 1v11.63a1 1 0 001 1h21a1 1 0 001-1V3a1 1 0 00-1-1z"/><path d="M13.499 10.815a.5.5 0 01-.3-.1L1.273 1.801a.494.494 0 01-.174-.559A.494.494 0 011.573.9L25.424.815a.494.494 0 01.476.341.493.493 0 01-.173.559l-11.926 9a.5.5 0 01-.302.1zM23.926 1.82l-20.853.074 10.427 7.8z"/><path d="M15.405 9.233l.568-.824 10.062 6.921a.5.5 0 01-.06.86l-.992.494a.5.5 0 01-.221.052l-21.857.073-.218-.05-1.4-.665a.5.5 0 01-.07-.862l9.761-6.775.57.821-9.05 6.284.515.245 21.628-.071.128-.064z"/></g></svg>