<svg xmlns="http://www.w3.org/2000/svg" width="23" height="23"><defs><clipPath id="a"><path fill="none" d="M0 0h23v23H0z"/></clipPath><clipPath id="b"><path d="M0 0h23v23H0z" fill="none"/></clipPath></defs><g clip-path="url(#a)"><path d="M0 0h23v23H0z" fill="none"/><g clip-path="url(#b)"><path d="M21.729 0H1.267A1.267 1.267 0 000 1.271v20.458A1.267 1.267 0 001.267 23h11.017v-8.909h-3v-3.468h3v-2.56c0-2.973 1.815-4.587 4.464-4.587a25.166 25.166 0 012.679.134v3.108H17.59c-1.442 0-1.721.682-1.721 1.688v2.217h3.439l-.451 3.469h-2.988V23h5.861A1.27 1.27 0 0023 21.729V1.271A1.27 1.27 0 0021.729 0" fill="#447185"/></g></g></svg>