<svg xmlns="http://www.w3.org/2000/svg" width="22.799" height="22.551"><defs><clipPath id="a"><path fill="none" d="M0 0h22.799v22.55H0z"/></clipPath><clipPath id="b"><path d="M0 0h22.8v22.55H0z" transform="translate(.001 .2)" fill="none"/></clipPath></defs><g clip-path="url(#a)"><path d="M0 0h22.8v22.55H0z" fill="none"/><g clip-path="url(#b)" transform="translate(-.001 -.2)"><path d="M16.509 22.751H6.293a6.265 6.265 0 01-6.292-6.223V6.424A6.265 6.265 0 016.293.2h10.216a6.265 6.265 0 016.292 6.224v10.1a6.265 6.265 0 01-6.292 6.227zM6.293 2.2a4.253 4.253 0 00-4.272 4.224v10.1a4.252 4.252 0 004.272 4.226h10.216a4.25 4.25 0 004.268-4.222V6.424A4.251 4.251 0 0016.509 2.2z" fill="#447185"/></g><path d="M11.4 17.085a5.85 5.85 0 01-5.875-5.811 5.875 5.875 0 0111.75 0 5.849 5.849 0 01-5.875 5.811zm0-9.622a3.811 3.811 0 103.85 3.812 3.838 3.838 0 00-3.85-3.812zm6.119-3.697a1.486 1.486 0 00-1.045.432 1.464 1.464 0 00-.437 1.037 1.475 1.475 0 00.437 1.037 1.511 1.511 0 001.045.429 1.513 1.513 0 001.048-.429 1.448 1.448 0 000-2.073 1.482 1.482 0 00-1.048-.433" fill="#447185"/></g></svg>