<svg xmlns="http://www.w3.org/2000/svg" width="332" height="64"><defs><clipPath id="a"><path d="M23.093 9.616H13.4V8.088h1.595c0-2.42-.447-4.2-1.276-5.286a3.3 3.3 0 00-2.679-1.274 3.512 3.512 0 00-3 1.592c-.959 1.338-1.469 3.439-1.469 6.369a34.1 34.1 0 00.319 4.458c.128.955.51 2.484 1.021 4.649a24.275 24.275 0 01.766 5.349 4.293 4.293 0 01-.128.892 2.577 2.577 0 01-.191.637l-.128.509a1.692 1.692 0 00.893.191c1.4 0 2.679-.955 3.955-2.866a10.863 10.863 0 001.914-6.177v-.892H13.4v-1.528h9.7v1.528h-1.538c0 2.993-1.4 5.6-4.146 7.833a13.355 13.355 0 01-8.357 3.12 9.987 9.987 0 01-1.595-.064 6.013 6.013 0 01-1.148-.382v-.509A7.474 7.474 0 006 23.881a15.511 15.511 0 00-2.488-4.012 18.211 18.211 0 01-3-4.967A10.857 10.857 0 010 11.463 11.01 11.01 0 0111.355 0c3.445 0 6.124 1.019 7.91 3.057a9.435 9.435 0 012.3 5.031h1.531v1.528z" fill="none"/></clipPath><clipPath id="b"><path d="M15.308 2.031l.949 1.079a7.712 7.712 0 01-1.771.89 3.976 3.976 0 01-1.645.317 2.824 2.824 0 01-1.265-.254 6.566 6.566 0 01-1.9-1.587 9.692 9.692 0 00-.822-.825 1.585 1.585 0 00-1.075-.444c-1.392 0-2.214 1.269-2.594 3.808A28.276 28.276 0 005 8.5a12.186 12.186 0 012.275-1.265 6.625 6.625 0 012.594-.762 3.294 3.294 0 011.328.254 5.625 5.625 0 011.518.762 1.841 1.841 0 00.949.381 2.072 2.072 0 001.391-.57l.759.952a8.58 8.58 0 01-1.075 1.079 6.173 6.173 0 01-.886.7c-.379.254-.7.444-.949.635a2.3 2.3 0 01-.949.19 2.192 2.192 0 01-.822-.127 8.366 8.366 0 01-.886-.508 12.781 12.781 0 00-1.455-.825 2.734 2.734 0 00-1.2-.254 3.159 3.159 0 00-1.581.444 7.674 7.674 0 00-.886.635 7.784 7.784 0 001.328 4.57 4.414 4.414 0 003.732 1.841 6.692 6.692 0 002.151-.381 11.137 11.137 0 002.593-1.46l.7.762a8.452 8.452 0 01-2.846 1.967 8.921 8.921 0 01-3.732.762 9.841 9.841 0 01-5.693-1.587C1.075 15.232 0 12.947 0 9.837V8.631a9.429 9.429 0 011.834-5.458A7.137 7.137 0 017.844 0 8.813 8.813 0 0111.2.7c.569.254 1.265.635 2.151 1.079a5.537 5.537 0 00.759.444 1.865 1.865 0 00.632.127 1.042 1.042 0 00.569-.317z" fill="none"/></clipPath><clipPath id="c"><path d="M12.471 17.1H1.145c-.517 0-.829-.333-.954-1.017A40.322 40.322 0 010 10.8a81.241 81.241 0 01.254-9.148C.382.571.822 0 1.527 0h8.843a12.167 12.167 0 012.036.127A1.8 1.8 0 0113.87 2.1a4.191 4.191 0 01-2.036 3.431A17.66 17.66 0 017.253 7.5v.19a17.06 17.06 0 015.217 2.034c2.205 1.385 3.308 2.985 3.372 4.893a2.143 2.143 0 01-1.018 2.1 5.453 5.453 0 01-2.353.383zM4.453 8.2l-.063 3.112.127 4.576h2.354a7.416 7.416 0 002.608-.318c.621-.248.892-.871.828-1.906a5.225 5.225 0 00-1.527-3.433A5.5 5.5 0 004.453 8.2zm.319-6.927a52.766 52.766 0 00-.128 5.593 4.358 4.358 0 003.309-1.4A3.9 3.9 0 009.1 2.8c0-.647-.2-1.02-.637-1.209a5 5 0 00-1.908-.317H4.772z" fill="none"/></clipPath><clipPath id="d"><path d="M15.308 2.031l.949 1.079a7.717 7.717 0 01-1.771.89 3.977 3.977 0 01-1.645.317 2.823 2.823 0 01-1.265-.254 6.564 6.564 0 01-1.9-1.587 9.7 9.7 0 00-.822-.825 1.585 1.585 0 00-1.075-.444c-1.392 0-2.214 1.269-2.594 3.808A28.291 28.291 0 005 8.5a12.188 12.188 0 012.275-1.265 6.625 6.625 0 012.594-.762 3.294 3.294 0 011.328.254 5.627 5.627 0 011.518.762 1.841 1.841 0 00.949.381 2.072 2.072 0 001.391-.57l.759.952a8.589 8.589 0 01-1.075 1.079 6.18 6.18 0 01-.886.7c-.38.254-.7.444-.949.635a2.3 2.3 0 01-.949.19 2.191 2.191 0 01-.822-.127 8.367 8.367 0 01-.886-.508 12.792 12.792 0 00-1.455-.825 2.733 2.733 0 00-1.2-.254 3.159 3.159 0 00-1.581.444 7.663 7.663 0 00-.886.635 7.784 7.784 0 001.328 4.57 4.414 4.414 0 003.732 1.841 6.691 6.691 0 002.151-.381 11.14 11.14 0 002.594-1.46l.7.762a8.454 8.454 0 01-2.847 1.967 8.92 8.92 0 01-3.732.762 9.841 9.841 0 01-5.693-1.587C1.075 15.232 0 12.947 0 9.837V8.631a9.43 9.43 0 011.834-5.458A7.137 7.137 0 017.844 0 8.813 8.813 0 0111.2.7c.569.254 1.265.635 2.151 1.079a5.53 5.53 0 00.759.444 1.867 1.867 0 00.633.127 1.763 1.763 0 00.569-.317z" fill="none"/></clipPath><clipPath id="e"><path d="M1.952 27.606c-.564 0-.882-.127-.944-.379V22.3c0-.176-.014-.367-.028-.568-.017-.239-.035-.487-.035-.757A50.417 50.417 0 01.756 19.2C.48 16.44.305 14.764.189 13.772A27.773 27.773 0 010 10.55a10.862 10.862 0 013.211-7.707C5.028.956 6.617 0 7.933 0 9.406 0 11 1.127 12.656 3.348a12.52 12.52 0 012.77 8.022 8.066 8.066 0 01-1.637 5.307 5.157 5.157 0 01-4.218 2.085 5.864 5.864 0 01-3.149-.948A7.538 7.538 0 014.03 15.54l.188 1.26c.039.195.078.558.131 1.06.034.317.072.675.12 1.087.062 1.062.126 2.336.126 3.728a7.828 7.828 0 01-.695 3.857 2.312 2.312 0 01-1.948 1.074zM6.863 2.843a12.979 12.979 0 00-2.519 2.842 8.876 8.876 0 00-.818 2.907 7.477 7.477 0 001.385 5.5 5.226 5.226 0 003.4 2.337 4.246 4.246 0 00.427.023 2.226 2.226 0 001.147-.275 2.57 2.57 0 001.259-2.085 4.544 4.544 0 00.153-.915c.01-.1.021-.218.036-.348a16.266 16.266 0 00-1.74-7.076 7.111 7.111 0 00-2.73-2.91z" fill="none"/></clipPath><clipPath id="f"><path d="M10.434 8.768L4.481 5.614v2.271c0 1.766.064 3.217.128 4.416.128 1.2.192 2.4.32 3.722a1.13 1.13 0 01-.256.883 4.181 4.181 0 01-1.664.189H1.28c-.576 0-.9-.568-1.088-1.64Q0 13.846 0 7.317a39.065 39.065 0 01.256-6.245C.448.315.768 0 1.344 0h3.137a.555.555 0 01.512.568 2.662 2.662 0 01-.256 1.451A5.7 5.7 0 004.481 4.1l5.953 3.217a35.231 35.231 0 01.32-6.056C10.946.442 11.331 0 11.843 0h3.2a.555.555 0 01.512.568 2.113 2.113 0 01-.064.631c-.192.757-.256 1.262-.32 1.64a11.791 11.791 0 00-.128 1.892c-.064.883-.064 1.7-.064 2.4q0 3.028.192 4.92c.128 1.262.256 2.523.384 3.911a1.131 1.131 0 01-.256.883 3.963 3.963 0 01-1.664.189h-1.792c-.64 0-1.088-.378-1.216-1.2-.128-.883-.192-3.217-.192-7.065z" fill="none"/></clipPath><clipPath id="g"><path d="M3.985 17.511a3.522 3.522 0 01-3.149-1.719A5.444 5.444 0 010 12.735a7.677 7.677 0 011.8-4.33c.511-.7 1.484-1.853 2.892-3.439.1-.1.272-.285.537-.572s.618-.668 1.071-1.146c.439-.435.643-.759.643-1.02a1.734 1.734 0 00-.065-.573c-.064-.191-.129-.45-.192-.7a3.151 3.151 0 01-.132-.764c0-.121.117-.191.322-.191h4.242c.247 0 .382.057.449.191v.573a3.241 3.241 0 00.132.692c.039.153.082.325.125.518l.578 2.1.321 1.082c.72 2.971 1.5 5.724 2.25 7.959l.77 2.073.01.027.569 1.53c0 .128-.062.19-.256.255a1.608 1.608 0 01-.514.064H11.76c-.128 0-.258-.193-.385-.574l-.514-1.91-.45-1.4-.511-1.655a11.768 11.768 0 01-2.06 4.139 4.958 4.958 0 01-3.855 1.847zM7.647 3.63A17.315 17.315 0 004.5 8.086a6.008 6.008 0 00-.58 2.294 2.706 2.706 0 00.514 1.72 1.927 1.927 0 001.671.765 3.089 3.089 0 002.378-1.085 3.209 3.209 0 00.836-1.91A12.462 12.462 0 008.74 7.2l-.514-1.6a13.221 13.221 0 00-.579-1.97z" fill="none"/></clipPath><clipPath id="h"><path d="M3.592 17.159H2.117a4.842 4.842 0 01-1.732-.191.769.769 0 01-.385-.762 7 7 0 011.988-4.449 9.1 9.1 0 016.029-3.3v-.196a14.836 14.836 0 01-4.81-1.715 4.356 4.356 0 01-2.18-3.877A2.343 2.343 0 012.052.381 6.619 6.619 0 014.811 0h10.454c.311 0 .449.176.449.572L15.587 2.8c0 1.81 0 3.241-.065 4.448-.069 1.3-.132 2.34-.192 3.178 0 .666.048 1.465.1 2.391l.024.406c.052.439.094.853.134 1.254.057.573.111 1.115.187 1.606 0 .157 0 .271.036.271a.045.045 0 00.028-.017.644.644 0 01-.321.509 2.955 2.955 0 01-1.347.19h-1.92a1.016 1.016 0 01-1.155-.826 29.9 29.9 0 01-.192-4.512l-.128-2.733a6.429 6.429 0 00-4.361 3.051 7.728 7.728 0 00-.706 3.367 2.37 2.37 0 01-.32 1.4c-.189.244-.811.376-1.797.376zM8.916 1.207a4.372 4.372 0 00-2.309.381c-.307.243-.449.728-.449 1.525A4.142 4.142 0 007.5 6.291a4.691 4.691 0 003.272 1.271V7.5c0-1.592 0-2.743.065-3.369.014-.136.03-.287.049-.453.066-.6.157-1.422.207-2.471z" fill="none"/></clipPath><clipPath id="i"><path d="M4.554 7.181l6.222-3.75a12.557 12.557 0 01.192-2.923C11.1.127 11.481 0 12.058 0h3.272c.321 0 .513.191.513.572L15.65 2.1q-.289 1.525-.385 2.479c-.064.636-.064 1.462-.064 2.606 0 1.843.064 3.368.128 4.576.064 1.271.257 2.669.449 4.322.064.381 0 .7-.192.826-.192.191-.577.254-1.347.254h-2.181c-.577 0-.962-.636-1.09-1.97-.192-1.335-.257-4.7-.257-10.232L4.49 8.707c0 1.017.064 2.034.128 3.114s.257 2.479.513 4.258c.064.381 0 .7-.192.826-.192.191-.577.254-1.347.254H1.411a1.378 1.378 0 01-.77-.191 1.823 1.823 0 01-.321-1.207l-.128-2.352a20.911 20.911 0 00-.064-2.161C0 9.215 0 7.88 0 7.372a40.209 40.209 0 01.321-6.355C.449.381.77 0 1.283 0h3.271C4.875 0 5 .191 5 .572L4.811 2.1c-.128.89-.192 1.652-.321 2.415a17.634 17.634 0 01.064 2.669z" fill="none"/></clipPath><clipPath id="j"><path d="M7.73 10.143V8.621a5.778 5.778 0 003.577-.887 3.967 3.967 0 001.278-3.3 3.786 3.786 0 00-.639-2.345 2.315 2.315 0 00-1.917-.889 2.733 2.733 0 00-2.236 1.082 3.207 3.207 0 00-.639 2.029l.128.507v.507c0 .38-.511.7-1.469 1.014a9.635 9.635 0 01-2.875.444c-.064 0-.064-.19-.064-.634a5.275 5.275 0 012.492-4.691A10.045 10.045 0 0110.924 0a9.047 9.047 0 014.536 1.014 3.806 3.806 0 012.108 3.423 4.044 4.044 0 01-1.853 3.613 10.057 10.057 0 01-3.9 1.2v.19l.894.19a10.093 10.093 0 013.513 1.014A4.017 4.017 0 0118.4 14.39a4.81 4.81 0 01-1.342 3.55 5.269 5.269 0 01-3.9 1.331 7.178 7.178 0 01-1.725-.19 10.559 10.559 0 01-1.278-.444c-.7-.254-1.341-.444-1.853-.634a3.45 3.45 0 00-1.214-.254 10.528 10.528 0 00-3.45.634 11.909 11.909 0 00-2.871 1.268L0 18.764a20.49 20.49 0 012.427-2.409 4.69 4.69 0 012.939-1.078 2.971 2.971 0 011.6.507 3.12 3.12 0 00.767.507 4.006 4.006 0 001.405.634 6.163 6.163 0 001.405.19 2.426 2.426 0 001.789-.761 4.065 4.065 0 00.894-2.789 3.069 3.069 0 00-1.086-2.409 4.032 4.032 0 00-2.555-.887H7.73z" fill="none"/></clipPath><clipPath id="k"><path d="M13.425 17.158H1.081a.887.887 0 01-.89-.5A7.448 7.448 0 010 14.509c0-1.293 0-2.9.064-4.983.058-1.933.122-3.738.19-5.362 0-1.519 0-2.523.064-3.091S.779.189 1.463.189h8.08c.3 0 .619-.014.954-.029.367-.017.747-.034 1.145-.034.4-.033.793-.048 1.211-.065.384-.015.78-.031 1.207-.061 1.172 0 1.718.261 1.718.82a1.9 1.9 0 01-.255.883c-.2.4-.389.77-.636 1.2a20.021 20.021 0 00-1.527 3.344h-1.78c.089-.4.149-.807.2-1.133.021-.141.039-.269.058-.381v-1.2a1.913 1.913 0 00-1.208-1.766 10.78 10.78 0 00-3.436-.379H4.835c-.032.259-.065.633-.106 1.106-.038.442-.086.991-.148 1.606l-.018.361c-.057 1.166-.111 2.267-.111 3.3a20.012 20.012 0 014.454.5A9.546 9.546 0 0112.534 9.9a7.067 7.067 0 012.291 2.964 6.481 6.481 0 01.7 2.9c0 .737-.308 1.2-.89 1.325a5.93 5.93 0 01-1.21.069zM4.39 9.4a3.392 3.392 0 01-.043.493 1.63 1.63 0 00-.021.2v5.741h5.917a1.942 1.942 0 00.063-.631v-.5a5.166 5.166 0 00-1.463-3.973A6.417 6.417 0 004.39 9.4z" fill="none"/></clipPath><clipPath id="l"><path d="M0 2.066a2.815 2.815 0 002.964 2.675 2.962 2.962 0 002.965-2.249L1.078 0A2.508 2.508 0 000 2.066z" fill="none"/></clipPath><clipPath id="m"><path d="M5.929 2.37C5.929 1.024 4.581 0 2.964 0S0 1.077 0 2.37z" fill="none"/></clipPath><clipPath id="n"><path d="M.2 1.378a2.163 2.163 0 00-.2.937 2.722 2.722 0 002.964 2.426 2.717 2.717 0 002.965-2.426 1.778 1.778 0 00-.4-1.158L3.1 0z" fill="none"/></clipPath><clipPath id="o"><path d="M4.577 0L0 2.255a2.8 2.8 0 002.961 2.486A2.759 2.759 0 005.923 2.2 2.312 2.312 0 004.577 0z" fill="none"/></clipPath><clipPath id="p"><path d="M28.36 17.553a4.445 4.445 0 011.219-3.083L26.82 12.9 5.775 35.61V7.361l4.235 2.265v-6.1L6.352 1.447 3.657 0A4.74 4.74 0 010 4.53v34.792a4.671 4.671 0 013.657 4.53H5.71l15.913-17.239-5.71 17.239h6.031l7.7-23.216a4.386 4.386 0 01-1.284-3.083z" fill="none"/></clipPath><clipPath id="q"><path d="M.127 39.111l40.314-23.224 40.188 23.16v-4.913C73.73 30.179 54.744 19.268 45.5 13.909 50.25 10.783 53.225 7.4 54.048 0h-5.19c-.823 6.125-3.544 8.1-8.481 10.974C35.5 8.1 32.72 6.125 31.9 0h-5.19c.823 7.4 3.8 10.783 8.544 13.909A97375.147 97375.147 0 010 34.2v4.913z" fill="none"/></clipPath><clipPath id="r"><path d="M28.394 39.315v-12.79l-5.7 3.087v8.821h-9.828L5.7 16.507l17.053-9.324v8.632l5.7-3.087V4.473A4.606 4.606 0 0124.845 0L0 14.113a4.657 4.657 0 011.458 3.339 4.4 4.4 0 01-.57 2.205l6.464 19.721a4.109 4.109 0 011.268-.189 4.666 4.666 0 014.69 4.662h11.6a4.441 4.441 0 013.484-4.536z" fill="none"/></clipPath><clipPath id="s"><path d="M5.929 2.37C5.929 1.024 4.581 0 2.964 0 1.28 0 0 1.077 0 2.37z" fill="none"/></clipPath></defs><path fill="rgba(0,0,0,0)" d="M0 0h332v64H0z"/><path d="M119.186 33.41h-9.693v-1.528h1.595c0-2.42-.447-4.2-1.276-5.286a3.3 3.3 0 00-2.679-1.274 3.512 3.512 0 00-3 1.592c-.959 1.338-1.469 3.439-1.469 6.369a34.1 34.1 0 00.319 4.458c.128.955.51 2.484 1.021 4.649a24.275 24.275 0 01.766 5.349 4.293 4.293 0 01-.128.892 2.577 2.577 0 01-.191.637l-.128.509a1.692 1.692 0 00.893.191c1.4 0 2.679-.955 3.955-2.866a10.863 10.863 0 001.914-6.177v-.892h-1.592v-1.528h9.7v1.528h-1.538c0 2.993-1.4 5.6-4.146 7.833a13.355 13.355 0 01-8.357 3.12 9.987 9.987 0 01-1.595-.064 6.013 6.013 0 01-1.148-.382v-.509a7.474 7.474 0 00-.316-2.356 15.511 15.511 0 00-2.488-4.012 18.211 18.211 0 01-3-4.967 10.857 10.857 0 01-.512-3.439 11.01 11.01 0 0111.355-11.463c3.445 0 6.124 1.019 7.91 3.057a9.435 9.435 0 012.3 5.031h1.531v1.528z" fill="none"/><g transform="translate(96.093 23.794)" clip-path="url(#a)"><path d="M-.647-.645h24.386v28.483H-.647z" fill="#244959"/></g><path d="M136.337 34.14l.949 1.079a7.712 7.712 0 01-1.771.89 3.976 3.976 0 01-1.645.317 2.824 2.824 0 01-1.265-.254 6.566 6.566 0 01-1.9-1.587 9.692 9.692 0 00-.822-.825 1.585 1.585 0 00-1.075-.444c-1.392 0-2.214 1.269-2.594 3.808a28.276 28.276 0 00-.185 3.485 12.186 12.186 0 012.275-1.265 6.625 6.625 0 012.594-.762 3.294 3.294 0 011.328.254 5.625 5.625 0 011.518.762 1.841 1.841 0 00.949.381 2.072 2.072 0 001.391-.57l.759.952a8.58 8.58 0 01-1.075 1.079 6.173 6.173 0 01-.886.7c-.379.254-.7.444-.949.635a2.3 2.3 0 01-.949.19 2.192 2.192 0 01-.822-.127 8.366 8.366 0 01-.886-.508 12.781 12.781 0 00-1.455-.825 2.734 2.734 0 00-1.2-.254 3.159 3.159 0 00-1.581.444 7.674 7.674 0 00-.886.635 7.784 7.784 0 001.328 4.57 4.414 4.414 0 003.732 1.841 6.692 6.692 0 002.151-.381 11.137 11.137 0 002.593-1.46l.7.762a8.452 8.452 0 01-2.846 1.967 8.921 8.921 0 01-3.732.762 9.841 9.841 0 01-5.693-1.587c-2.283-1.463-3.358-3.748-3.358-6.858V40.74a9.429 9.429 0 011.834-5.458 7.137 7.137 0 016.01-3.173 8.813 8.813 0 013.356.7c.569.254 1.265.635 2.151 1.079a5.537 5.537 0 00.759.444 1.865 1.865 0 00.632.127 1.042 1.042 0 00.569-.317z" fill="none"/><g transform="translate(121.029 32.109)" clip-path="url(#b)"><path d="M-.641-.643h17.54v19.564H-.641z" fill="#244959"/></g><path d="M152.41 49.139h-11.326c-.517 0-.829-.333-.954-1.017a40.322 40.322 0 01-.191-5.283 81.241 81.241 0 01.254-9.148c.128-1.081.568-1.652 1.273-1.652h8.843a12.167 12.167 0 012.036.127 1.8 1.8 0 011.464 1.973 4.191 4.191 0 01-2.036 3.431 17.66 17.66 0 01-4.581 1.969v.19a17.06 17.06 0 015.217 2.034c2.205 1.385 3.308 2.985 3.372 4.893a2.143 2.143 0 01-1.018 2.1 5.453 5.453 0 01-2.353.383zm-8.018-8.9l-.063 3.112.127 4.576h2.354a7.416 7.416 0 002.608-.318c.621-.248.892-.871.828-1.906a5.225 5.225 0 00-1.527-3.433 5.5 5.5 0 00-4.327-2.031zm.319-6.927a52.766 52.766 0 00-.128 5.593 4.358 4.358 0 003.309-1.4 3.9 3.9 0 001.147-2.666c0-.647-.2-1.02-.637-1.209a5 5 0 00-1.908-.317h-1.783z" fill="none"/><g transform="translate(139.939 32.039)" clip-path="url(#c)"><path d="M-.645-.644h17.132v18.383H-.645z" fill="#244959"/></g><path d="M171.871 34.14l.949 1.079a7.717 7.717 0 01-1.771.89 3.977 3.977 0 01-1.645.317 2.823 2.823 0 01-1.265-.254 6.564 6.564 0 01-1.9-1.587 9.7 9.7 0 00-.822-.825 1.585 1.585 0 00-1.075-.444c-1.392 0-2.214 1.269-2.594 3.808a28.291 28.291 0 00-.185 3.485 12.188 12.188 0 012.275-1.265 6.625 6.625 0 012.594-.762 3.294 3.294 0 011.328.254 5.627 5.627 0 011.518.762 1.841 1.841 0 00.949.381 2.072 2.072 0 001.391-.57l.759.952a8.589 8.589 0 01-1.075 1.079 6.18 6.18 0 01-.886.7c-.38.254-.7.444-.949.635a2.3 2.3 0 01-.949.19 2.191 2.191 0 01-.822-.127 8.367 8.367 0 01-.886-.508 12.792 12.792 0 00-1.455-.825 2.733 2.733 0 00-1.2-.254 3.159 3.159 0 00-1.581.444 7.663 7.663 0 00-.886.635 7.784 7.784 0 001.328 4.57 4.414 4.414 0 003.732 1.841 6.691 6.691 0 002.151-.381 11.14 11.14 0 002.594-1.46l.7.762a8.454 8.454 0 01-2.847 1.967 8.92 8.92 0 01-3.732.762 9.841 9.841 0 01-5.693-1.587c-2.283-1.463-3.358-3.748-3.358-6.858V40.74a9.43 9.43 0 011.834-5.458 7.137 7.137 0 016.01-3.173 8.813 8.813 0 013.356.7c.569.254 1.265.635 2.151 1.079a5.53 5.53 0 00.759.444 1.867 1.867 0 00.633.127 1.763 1.763 0 00.569-.317z" fill="none"/><g transform="translate(156.563 32.109)" clip-path="url(#d)"><path d="M-.641-.643h17.54v19.564H-.641z" fill="#244959"/></g><path d="M177.495 58.471c-.564 0-.882-.127-.944-.379v-4.927c0-.176-.014-.367-.028-.568-.017-.239-.035-.487-.035-.757a50.417 50.417 0 01-.189-1.775c-.276-2.76-.451-4.436-.567-5.428a27.773 27.773 0 01-.189-3.222 10.862 10.862 0 013.211-7.707c1.817-1.887 3.406-2.843 4.722-2.843 1.473 0 3.067 1.127 4.723 3.348a12.52 12.52 0 012.77 8.022 8.066 8.066 0 01-1.637 5.307 5.157 5.157 0 01-4.218 2.085 5.864 5.864 0 01-3.149-.948 7.538 7.538 0 01-2.392-2.274l.188 1.26c.039.195.078.558.131 1.06.034.317.072.675.12 1.087.062 1.062.126 2.336.126 3.728a7.828 7.828 0 01-.695 3.857 2.312 2.312 0 01-1.948 1.074zm4.911-24.763a12.979 12.979 0 00-2.519 2.842 8.876 8.876 0 00-.818 2.907 7.477 7.477 0 001.385 5.5 5.226 5.226 0 003.4 2.337 4.246 4.246 0 00.427.023 2.226 2.226 0 001.147-.275 2.57 2.57 0 001.259-2.085 4.544 4.544 0 00.153-.915c.01-.1.021-.218.036-.348a16.266 16.266 0 00-1.74-7.076 7.111 7.111 0 00-2.73-2.91z" fill="none"/><g transform="translate(175.543 30.865)" clip-path="url(#e)"><path d="M-.638-.64h16.706v28.886H-.638z" fill="#244959"/></g><path d="M203.711 40.807l-5.953-3.154v2.271c0 1.766.064 3.217.128 4.416.128 1.2.192 2.4.32 3.722a1.13 1.13 0 01-.256.883 4.181 4.181 0 01-1.664.189h-1.729c-.576 0-.9-.568-1.088-1.64q-.192-1.609-.192-8.138a39.065 39.065 0 01.256-6.245c.192-.757.512-1.072 1.088-1.072h3.137a.555.555 0 01.512.568 2.662 2.662 0 01-.256 1.451 5.7 5.7 0 00-.256 2.081l5.953 3.217a35.231 35.231 0 01.32-6.056c.192-.819.577-1.261 1.089-1.261h3.2a.555.555 0 01.512.568 2.113 2.113 0 01-.064.631c-.192.757-.256 1.262-.32 1.64a11.791 11.791 0 00-.128 1.892c-.064.883-.064 1.7-.064 2.4q0 3.028.192 4.92c.128 1.262.256 2.523.384 3.911a1.131 1.131 0 01-.256.883 3.963 3.963 0 01-1.664.189h-1.792c-.64 0-1.088-.378-1.216-1.2-.128-.883-.192-3.217-.192-7.065z" fill="none"/><g transform="translate(193.277 32.039)" clip-path="url(#f)"><path d="M-.649-.639h16.853v18.373H-.649z" fill="#244959"/></g><path d="M216.308 49.614a3.522 3.522 0 01-3.149-1.719 5.444 5.444 0 01-.836-3.057 7.677 7.677 0 011.8-4.33c.511-.7 1.484-1.853 2.892-3.439.1-.1.272-.285.537-.572s.618-.668 1.071-1.146c.439-.435.643-.759.643-1.02a1.734 1.734 0 00-.065-.573c-.064-.191-.129-.45-.192-.7a3.151 3.151 0 01-.132-.764c0-.121.117-.191.322-.191h4.242c.247 0 .382.057.449.191v.573a3.241 3.241 0 00.132.692c.039.153.082.325.125.518l.578 2.1.321 1.082c.72 2.971 1.5 5.724 2.25 7.959l.77 2.073.01.027.569 1.53c0 .128-.062.19-.256.255a1.608 1.608 0 01-.514.064h-3.792c-.128 0-.258-.193-.385-.574l-.514-1.91-.45-1.4-.511-1.655a11.768 11.768 0 01-2.06 4.139 4.958 4.958 0 01-3.855 1.847zm3.662-13.881a17.315 17.315 0 00-3.147 4.456 6.008 6.008 0 00-.58 2.294 2.706 2.706 0 00.514 1.72 1.927 1.927 0 001.671.765 3.089 3.089 0 002.378-1.085 3.209 3.209 0 00.836-1.91 12.462 12.462 0 00-.579-2.67l-.514-1.6a13.221 13.221 0 00-.579-1.97z" fill="none"/><g transform="translate(212.323 32.103)" clip-path="url(#g)"><path d="M-.651-.645h17.625v18.8H-.651z" fill="#244959"/></g><path d="M234.886 49.198h-1.475a4.842 4.842 0 01-1.732-.191.769.769 0 01-.385-.762 7 7 0 011.988-4.449 9.1 9.1 0 016.029-3.3V40.3a14.836 14.836 0 01-4.81-1.715 4.356 4.356 0 01-2.18-3.877 2.343 2.343 0 011.025-2.288 6.619 6.619 0 012.759-.381h10.454c.311 0 .449.176.449.572l-.127 2.228c0 1.81 0 3.241-.065 4.448-.069 1.3-.132 2.34-.192 3.178 0 .666.048 1.465.1 2.391l.024.406c.052.439.094.853.134 1.254.057.573.111 1.115.187 1.606 0 .157 0 .271.036.271a.045.045 0 00.028-.017.644.644 0 01-.321.509 2.955 2.955 0 01-1.347.19h-1.92a1.016 1.016 0 01-1.155-.826 29.9 29.9 0 01-.192-4.512l-.128-2.733a6.429 6.429 0 00-4.361 3.051 7.728 7.728 0 00-.706 3.367 2.37 2.37 0 01-.32 1.4c-.189.244-.811.376-1.797.376zm5.324-15.952a4.372 4.372 0 00-2.309.381c-.307.243-.449.728-.449 1.525a4.142 4.142 0 001.342 3.178 4.691 4.691 0 003.272 1.271v-.062c0-1.592 0-2.743.065-3.369.014-.136.03-.287.049-.453.066-.6.157-1.422.207-2.471z" fill="none"/><g transform="translate(231.294 32.039)" clip-path="url(#h)"><path d="M-.65-.644h17.143v18.446H-.65z" fill="#244959"/></g><path d="M261.966 39.22l6.222-3.75a12.557 12.557 0 01.192-2.923c.132-.381.513-.508 1.09-.508h3.272c.321 0 .513.191.513.572l-.193 1.528q-.289 1.525-.385 2.479c-.064.636-.064 1.462-.064 2.606 0 1.843.064 3.368.128 4.576.064 1.271.257 2.669.449 4.322.064.381 0 .7-.192.826-.192.191-.577.254-1.347.254h-2.181c-.577 0-.962-.636-1.09-1.97-.192-1.335-.257-4.7-.257-10.232l-6.221 3.746c0 1.017.064 2.034.128 3.114s.257 2.479.513 4.258c.064.381 0 .7-.192.826-.192.191-.577.254-1.347.254h-2.181a1.378 1.378 0 01-.77-.191 1.823 1.823 0 01-.321-1.207l-.128-2.352a20.911 20.911 0 00-.064-2.161c-.128-2.033-.128-3.368-.128-3.876a40.209 40.209 0 01.321-6.355c.128-.636.449-1.017.962-1.017h3.271c.321 0 .446.191.446.572l-.189 1.528c-.128.89-.192 1.652-.321 2.415a17.634 17.634 0 01.064 2.669z" fill="none"/><g transform="translate(257.412 32.039)" clip-path="url(#i)"><path d="M-.65-.644h17.143v18.446H-.65z" fill="#244959"/></g><path d="M281.634 42.25v-1.522a5.778 5.778 0 003.577-.887 3.967 3.967 0 001.278-3.3 3.786 3.786 0 00-.639-2.345 2.315 2.315 0 00-1.917-.889 2.733 2.733 0 00-2.236 1.082 3.207 3.207 0 00-.639 2.029l.128.507v.507c0 .38-.511.7-1.469 1.014a9.635 9.635 0 01-2.875.444c-.064 0-.064-.19-.064-.634a5.275 5.275 0 012.492-4.691 10.045 10.045 0 015.558-1.458 9.047 9.047 0 014.536 1.014 3.806 3.806 0 012.108 3.423 4.044 4.044 0 01-1.853 3.613 10.057 10.057 0 01-3.9 1.2v.19l.894.19a10.093 10.093 0 013.513 1.014 4.017 4.017 0 012.178 3.746 4.81 4.81 0 01-1.342 3.55 5.269 5.269 0 01-3.9 1.331 7.178 7.178 0 01-1.725-.19 10.559 10.559 0 01-1.278-.444c-.7-.254-1.341-.444-1.853-.634a3.45 3.45 0 00-1.214-.254 10.528 10.528 0 00-3.45.634 11.909 11.909 0 00-2.871 1.268l-.767-.887a20.49 20.49 0 012.427-2.409 4.69 4.69 0 012.939-1.078 2.971 2.971 0 011.6.507 3.12 3.12 0 00.767.507 4.006 4.006 0 001.405.634 6.163 6.163 0 001.405.19 2.426 2.426 0 001.789-.761 4.065 4.065 0 00.894-2.789 3.069 3.069 0 00-1.086-2.409 4.032 4.032 0 00-2.555-.887h-1.855z" fill="none"/><g transform="translate(273.904 32.107)" clip-path="url(#j)"><path d="M-.648-.642h19.693v20.935H-.648z" fill="#244959"/></g><path d="M309.947 49.198h-12.344a.887.887 0 01-.89-.5 7.448 7.448 0 01-.191-2.149c0-1.293 0-2.9.064-4.983.058-1.933.122-3.738.19-5.362 0-1.519 0-2.523.064-3.091s.461-.884 1.145-.884h8.08c.3 0 .619-.014.954-.029.367-.017.747-.034 1.145-.034.4-.033.793-.048 1.211-.065.384-.015.78-.031 1.207-.061 1.172 0 1.718.261 1.718.82a1.9 1.9 0 01-.255.883c-.2.4-.389.77-.636 1.2a20.021 20.021 0 00-1.527 3.344h-1.78c.089-.4.149-.807.2-1.133.021-.141.039-.269.058-.381v-1.2a1.913 1.913 0 00-1.208-1.766 10.78 10.78 0 00-3.436-.379h-2.359c-.032.259-.065.633-.106 1.106-.038.442-.086.991-.148 1.606l-.018.361c-.057 1.166-.111 2.267-.111 3.3a20.012 20.012 0 014.454.5 9.546 9.546 0 013.628 1.639 7.067 7.067 0 012.291 2.964 6.481 6.481 0 01.7 2.9c0 .737-.308 1.2-.89 1.325a5.93 5.93 0 01-1.21.069zm-9.035-7.758a3.392 3.392 0 01-.043.493 1.63 1.63 0 00-.021.2v5.741h5.917a1.942 1.942 0 00.063-.631v-.5a5.166 5.166 0 00-1.463-3.973 6.417 6.417 0 00-4.453-1.33z" fill="none"/><g transform="translate(296.522 32.04)" clip-path="url(#k)"><path d="M-.645-.639h17.068v18.436H-.645z" fill="#244959"/></g><path d="M318.232 49.614a3.522 3.522 0 01-3.149-1.719 5.444 5.444 0 01-.836-3.057 7.677 7.677 0 011.8-4.33c.511-.7 1.484-1.853 2.892-3.439.1-.1.272-.285.537-.572s.618-.668 1.071-1.146c.439-.435.643-.759.643-1.02a1.734 1.734 0 00-.065-.573c-.064-.191-.129-.45-.192-.7a3.151 3.151 0 01-.132-.764c0-.121.117-.191.322-.191h4.242c.247 0 .382.057.449.191v.573a3.241 3.241 0 00.132.692c.039.153.082.325.125.518l.578 2.1.321 1.082c.72 2.971 1.5 5.724 2.25 7.959l.77 2.073.01.027.569 1.53c0 .128-.062.19-.256.255a1.608 1.608 0 01-.514.064h-3.792c-.128 0-.258-.193-.385-.574l-.514-1.91-.45-1.4-.511-1.655a11.768 11.768 0 01-2.06 4.139 4.958 4.958 0 01-3.855 1.847zm3.662-13.881a17.315 17.315 0 00-3.147 4.456 6.008 6.008 0 00-.58 2.294 2.706 2.706 0 00.514 1.72 1.927 1.927 0 001.671.765 3.089 3.089 0 002.378-1.085 3.209 3.209 0 00.836-1.91 12.462 12.462 0 00-.579-2.67l-.514-1.6a13.221 13.221 0 00-.579-1.97z" fill="none"/><g transform="translate(314.247 32.103)" clip-path="url(#g)"><path d="M-.651-.645h17.625v18.8H-.651z" fill="#244959"/></g><path d="M71.143 37.622a2.815 2.815 0 002.964 2.675 2.962 2.962 0 002.965-2.249l-4.851-2.492a2.508 2.508 0 00-1.078 2.066z" fill="none"/><g transform="translate(71.143 35.556)" clip-path="url(#l)"><path d="M0 0h7.114v5.926H0z" fill="#244959"/></g><path d="M43.872 64c0-1.346-1.348-2.37-2.965-2.37s-2.964 1.077-2.964 2.37z" fill="none"/><g transform="translate(37.943 61.63)" clip-path="url(#m)"><path d="M0 0h7.114v3.556H0z" fill="#244959"/></g><path d="M38.143 19.156a2.163 2.163 0 00-.2.937 2.722 2.722 0 002.964 2.426 2.717 2.717 0 002.965-2.426 1.778 1.778 0 00-.4-1.158l-2.429-1.157z" fill="none"/><g transform="translate(37.943 17.778)" clip-path="url(#n)"><path d="M0 0h7.114v7.111H0z" fill="#244959"/></g><path d="M9.32 35.556l-4.577 2.255a2.8 2.8 0 002.961 2.486 2.759 2.759 0 002.962-2.541 2.312 2.312 0 00-1.346-2.2z" fill="none"/><g transform="translate(4.743 35.556)" clip-path="url(#o)"><path d="M0 0h7.114v7.111H0z" fill="#244959"/></g><path d="M69.86 37.701a4.445 4.445 0 011.219-3.083l-2.759-1.57-21.045 22.71V27.509l4.235 2.265v-6.1l-3.658-2.079-2.695-1.447a4.74 4.74 0 01-3.657 4.53V59.47A4.671 4.671 0 0145.157 64h2.053l15.913-17.239L57.413 64h6.031l7.7-23.216a4.386 4.386 0 01-1.284-3.083z" fill="none"/><g transform="translate(41.5 20.148)" clip-path="url(#p)"><path d="M0 0h30.829v46.222H0z" fill="#244959"/></g><path d="M.127 39.111l40.314-23.224 40.188 23.16v-4.913C73.73 30.179 54.744 19.268 45.5 13.909 50.25 10.783 53.225 7.4 54.048 0h-5.19c-.823 6.125-3.544 8.1-8.481 10.974C35.5 8.1 32.72 6.125 31.9 0h-5.19c.823 7.4 3.8 10.783 8.544 13.909A97375.147 97375.147 0 010 34.2v4.913z" fill="none"/><g clip-path="url(#q)"><path d="M0 0h81.814v40.3H0z" fill="#244959"/></g><path d="M39.065 59.463v-12.79l-5.7 3.087v8.821h-9.828l-7.166-21.926 17.053-9.324v8.632l5.7-3.087v-8.255a4.606 4.606 0 01-3.608-4.473L10.671 34.261a4.657 4.657 0 011.458 3.339 4.4 4.4 0 01-.57 2.205l6.464 19.721a4.109 4.109 0 011.268-.189 4.666 4.666 0 014.69 4.662h11.6a4.441 4.441 0 013.484-4.536z" fill="none"/><g transform="translate(10.671 20.148)" clip-path="url(#r)"><path d="M0 0h29.643v46.222H0z" fill="#244959"/></g><path d="M22.529 64c0-1.346-1.348-2.37-2.965-2.37-1.684 0-2.964 1.077-2.964 2.37z" fill="none"/><g transform="translate(16.6 61.63)" clip-path="url(#s)"><path d="M-1.186 0h7.114v3.556h-7.114z" fill="#244959"/></g></svg>