<svg xmlns="http://www.w3.org/2000/svg" width="16" height="37.151"><defs><clipPath id="a"><path fill="none" d="M0 0h16v37.152H0z"/></clipPath></defs><g clip-path="url(#a)" fill="#447185"><path d="M8 26a8.009 8.009 0 01-8-8V8a8 8 0 0116 0v10a8.009 8.009 0 01-8 8zM8 2a6.007 6.007 0 00-6 6v10a6 6 0 1012 0V8a6.007 6.007 0 00-6-6z"/><path d="M7.5 5a.5.5 0 011 0v3.536a.5.5 0 01-1 0zm7 26.132a1.002 1.002 0 011 1.736L8 37.152.5 32.868a1.002 1.002 0 111-1.736L8 34.848z"/><path d="M14.5 26.132a1.002 1.002 0 011 1.736L8 32.152.5 27.868a1.002 1.002 0 111-1.736L8 29.848z"/></g></svg>