<svg xmlns="http://www.w3.org/2000/svg" width="30" height="18"><defs><clipPath id="a"><path fill="none" d="M0 0h30v18H0z"/></clipPath><clipPath id="b"><path d="M0 0h30v18H0z" fill="none"/></clipPath></defs><g clip-path="url(#a)"><path d="M0 0h30v18H0z" fill="none"/><g clip-path="url(#b)"><path d="M29.313 1.222c.21-.7 0-1.222-.992-1.222h-3.285a1.419 1.419 0 00-1.427.941 27.736 27.736 0 01-4.032 6.776c-.762.77-1.113 1.022-1.532 1.022-.21 0-.52-.252-.564-.953V1.222C17.481.379 17.3 0 16.6 0h-5.162a.8.8 0 00-.838.762c0 .8 1.185.986 1.314 3.233v4.883c-.008 1.071-.2 1.258-.617 1.258-1.109 0-3.818-4.125-5.422-8.845C5.56.371 5.245 0 4.406 0H1.129C.185 0 0 .448 0 .941c0 .875 1.113 5.229 5.185 10.991C7.9 15.866 11.716 18 15.191 18c2.088 0 2.346-.472 2.29-1.287v-2.977c.056-.949.254-1.136.915-1.136.484 0 1.318.248 3.27 2.142C23.887 16.99 24.254 18 25.508 18h3.282c.939 0 1.407-.472 1.133-1.409a14.106 14.106 0 00-2.766-3.885c-.766-.912-1.911-1.894-2.262-2.39-.484-.631-.347-.912 0-1.474 0 0 4-5.689 4.419-7.619" fill="#447185"/></g></g></svg>